<?xml version="1.0" encoding="UTF-8"?>
<svg width="800px" height="600px" viewBox="0 0 800 600" version="1.1" xmlns="http://www.w3.org/2000/svg" xmlns:xlink="http://www.w3.org/1999/xlink">
    <!-- Generator: Sketch 52.5 (67469) - http://www.bohemiancoding.com/sketch -->
    <title>Icon_presentation</title>
    <desc>Created with Sketch.</desc>
    <defs>
        <path d="M248.749256,434 L245.498513,434 C241.909483,434 239,431.090063 239,427.508023 L239,425.491977 C239,421.906557 241.915977,419 245.498513,419 L252,419 L252,69.0055712 C252,62.3750773 257.372102,57 263.998796,57 L535.001204,57 C541.627956,57 547,62.3714173 547,69.0055712 L547,88 L571.501487,88 C575.090517,88 578,90.9099366 578,94.4919773 L578,96.5080227 C578,100.093443 575.084023,103 571.501487,103 L547,103 L535.498513,103 C531.915977,103 529,105.906557 529,109.491977 L529,111.508023 C529,115.090063 531.909483,118 535.498513,118 L547,118 L547,118.018838 C550.356108,118.273456 553,121.077341 553,124.491977 L553,126.508023 C553,129.925599 550.350643,132.726384 547,132.98112 L547,475.994429 C547,482.624923 541.627898,488 535.001204,488 L263.998796,488 C257.372044,488 252,482.628583 252,475.994429 L252,464 L233.498513,464 C229.909483,464 227,461.090063 227,457.508023 L227,455.491977 C227,451.906557 229.915977,449 233.498513,449 L252,449 L276.501487,449 C280.084023,449 283,446.093443 283,442.508023 L283,440.491977 C283,436.909937 280.090517,434 276.501487,434 L248.749256,434 Z M556.5,152 C552.910149,152 550,149.089851 550,145.5 C550,141.910149 552.910149,139 556.5,139 C560.089851,139 563,141.910149 563,145.5 C563,149.089851 560.089851,152 556.5,152 Z" id="path-1"></path>
        <filter x="-8.5%" y="-7.0%" width="117.1%" height="113.9%" filterUnits="objectBoundingBox" id="filter-2">
            <feOffset dx="0" dy="0" in="SourceAlpha" result="shadowOffsetOuter1"></feOffset>
            <feGaussianBlur stdDeviation="10" in="shadowOffsetOuter1" result="shadowBlurOuter1"></feGaussianBlur>
            <feColorMatrix values="0 0 0 0 0.114433952   0 0 0 0 0.117895937   0 0 0 0 0.125106293  0 0 0 0.422497736 0" type="matrix" in="shadowBlurOuter1"></feColorMatrix>
        </filter>
        <linearGradient x1="50%" y1="8.78231742%" x2="50%" y2="97.827854%" id="linearGradient-3">
            <stop stop-color="#00FD93" offset="0%"></stop>
            <stop stop-color="#0097E0" offset="61.6520426%"></stop>
            <stop stop-color="#0040B3" offset="100%"></stop>
        </linearGradient>
        <rect id="path-4" x="72.3661033" y="18.2309821" width="33.9012376" height="41.0197098" rx="2.8"></rect>
        <mask id="mask-5" maskContentUnits="userSpaceOnUse" maskUnits="objectBoundingBox" x="0" y="0" width="33.9012376" height="41.0197098" fill="white">
            <use xlink:href="#path-4"></use>
        </mask>
        <rect id="path-6" x="-3.19744231e-13" y="32.5553253" width="35.2051314" height="48.8329879" rx="1.89"></rect>
        <path d="M6.07189572,7.48864957 C7.62455023,7.48864957 9.01965933,7.48864957 11.5692833,7.48864957 C14.1189073,7.48864957 16.4236994,6.09457186 16.4236994,4.27109907 C16.4236994,1.49774709 12.9912311,0.00149062709 8.45796254,0.00149062709 C3.92469403,0.00149062709 0.0373106337,1.33721402 0.0373106337,4.11056601 C0.0373106337,6.28280961 0.758218426,6.7684438 3.26521939,7.27638866 C3.95896263,7.41694836 5.08933537,7.48864957 6.07189572,7.48864957 Z" id="path-8"></path>
        <path d="M6.07189572,7.48864957 C7.62455023,7.48864957 9.01965933,7.48864957 11.5692833,7.48864957 C14.1189073,7.48864957 16.4236994,6.09457186 16.4236994,4.27109907 C16.4236994,1.49774709 12.9912311,0.00149062709 8.45796254,0.00149062709 C3.92469403,0.00149062709 0.0373106337,1.33721402 0.0373106337,4.11056601 C0.0373106337,6.28280961 0.758218426,6.7684438 3.26521939,7.27638866 C3.95896263,7.41694836 5.08933537,7.48864957 6.07189572,7.48864957 Z" id="path-10"></path>
        <linearGradient x1="50.5663203%" y1="-0.00665283024%" x2="49.4336797%" y2="99.9960923%" id="linearGradient-12">
            <stop stop-color="#000000" offset="0%"></stop>
            <stop stop-color="#00FF92" offset="0%"></stop>
            <stop stop-color="#007DF3" offset="59%"></stop>
            <stop stop-color="#003EB1" offset="100%"></stop>
        </linearGradient>
    </defs>
    <g id="Icon_presentation" stroke="none" stroke-width="1" fill="none" fill-rule="evenodd">
        <g id="White_BG">
            <use fill="black" fill-opacity="1" filter="url(#filter-2)" xlink:href="#path-1"></use>
            <use fill="#FFFFFF" fill-rule="evenodd" xlink:href="#path-1"></use>
        </g>
        <ellipse id="BG_oval" fill="#009BDC" opacity="0.319746377" cx="399.49336" cy="307.388313" rx="81.4933596" ry="81.3883131"></ellipse>
        <g id="Crane" transform="translate(383.184096, 221.808425) scale(-1, 1) translate(-383.184096, -221.808425) translate(331.000000, 185.000000)">
            <g id="Base" transform="translate(64.542741, 0.651107)" stroke="#43769A" stroke-linecap="round" stroke-linejoin="round" stroke-width="1.4">
                <path d="M0.503896119,71.7117967 L8.67823471,71.7117967 C8.67823471,71.7117967 9.98411218,9.46660148 7.36910459,0.562143741 L2.73752561,0.518127388 C2.73752561,0.518127388 -0.940793184,16.5608234 0.503896119,71.7117967 Z" fill="#FFFFFF"></path>
                <polyline id="Path-2" points="1.6926239 71.7117967 8.6843443 64.7290888 0.874102433 58.0310291 8.88203925 51.4435148 0.874102433 44.0677469 9.00429788 36.6809488 0.874102433 28.5612333 7.89518735 21.5491987 1.79884325 15.4607129 7.04213575 10.2241791 2.27993182 5.46811376 6.46024376 1.29319032"></polyline>
                <polyline id="Path-2" transform="translate(4.939200, 36.502494) scale(-1, 1) translate(-4.939200, -36.502494) " points="1.6926239 71.7117967 8.6843443 64.7290888 2.13183106 58.1850218 8.88203925 51.4435148 1.55235867 44.1232823 9.00429788 36.6809488 0.874102433 28.5612333 7.89518735 21.5491987 1.79884325 15.4607129 7.04213575 10.2241791 2.27993182 5.46811376 6.46024376 1.29319032"></polyline>
            </g>
            <g id="Front" transform="translate(0.000000, 16.277663)" stroke="#43769A" stroke-width="1.4">
                <polyline id="Path-3" stroke-linecap="round" stroke-linejoin="round" points="103.62606 8.4917039 0.286263467 8.4917039 5.2449004 0.437247907 53.989196 0.603877724 57.4379813 7.62698754"></polyline>
                <polyline id="Path-4" points="57.0335163 8.19340876 47.2756831 1.29988019 40.1713836 7.62576597 33.664701 1.65901912 26.0539757 7.34338081 19.076426 1.81710899 12.3976848 7.20304741 5.12792829 1.65901912"></polyline>
                <polyline id="Path-4" transform="translate(27.681088, 4.872955) scale(1, -1) translate(-27.681088, -4.872955) " points="53.8334097 8.44602933 47.2756831 2.01875983 40.1713836 8.34464561 33.664701 2.37789877 26.0539757 8.06226046 19.076426 2.53598863 12.3976848 7.92192706 1.52876677 1.29988019"></polyline>
            </g>
            <polyline id="Top_hodler" stroke="#43769A" stroke-width="1.4" points="21.9664369 16.4835151 67.0628401 0.635161101 72.2442532 0.635161101 96.2237184 17.5591019"></polyline>
            <g id="Cabin" transform="translate(56.719378, 31.904219)">
                <path d="M16.5962844,13.7760381 L3.75276583,13.7760381 C3.75276583,13.7760381 1.14570236,14.0585543 0.474719551,10.5136359 L0.474719551,5.86794257 C0.474719551,5.86794257 0.780865371,0.00244859206 6.85989558,0.00244859206 L16.6954346,0.00244859206 L16.5962844,13.7760381 Z" id="Path" stroke="#43769A" stroke-width="1.4" fill="#F5F3F3"></path>
                <path d="M16.0077743,7.87000533 L1.14421963,7.87000533 L1.14421963,10.5443293 C1.54444645,13.2186532 3.49613371,13.2186532 3.49613371,13.2186532 L16.0077743,13.2186532 L16.0077743,7.87000533 Z" id="Path-7" fill="#4D5775"></path>
                <path d="M0.8295943,7.71270504 L16.1811982,7.71270504" id="Path-8" stroke="#43769A" stroke-width="1.4"></path>
                <path d="M7.85591899,0.0809749438 L7.85591899,7.39843049" id="Path-5" stroke="#43769A" stroke-width="1.4"></path>
            </g>
            <g id="Back" transform="translate(79.537519, 16.277663)" stroke="#43769A" stroke-width="1.4">
                <rect id="Rectangle" x="0.7" y="0.7" width="23.3739813" height="7.06438457"></rect>
                <polyline id="Path-6" points="0.878624035 0.8719393 8.63878916 7.92660325 16.0825622 1.46709006 24.3443296 7.89605183"></polyline>
                <polyline id="Path-6" transform="translate(13.063395, 4.687284) scale(1, -1) translate(-13.063395, -4.687284) " points="1.78245989 1.44796437 8.63878916 7.92660325 16.0825622 1.46709006 24.3443296 7.89605183"></polyline>
            </g>
        </g>
        <g id="Computer" transform="translate(338.000000, 254.000000)">
            <g id="Keyboard" transform="translate(0.000000, 100.270402)" stroke="#43769A">
                <rect id="Rectangle-9" stroke-width="0.875" fill="#FFFFFF" x="4.35950232" y="0.4375" width="5.66167053" height="3.18790459" rx="1.5939523"></rect>
                <rect id="Rectangle-9" stroke-width="0.875" fill="#FFFFFF" x="13.8376746" y="0.4375" width="5.66167053" height="3.18790459" rx="1.5939523"></rect>
                <rect id="Rectangle-9" stroke-width="0.875" fill="#FFFFFF" x="22.9890133" y="0.4375" width="5.66167053" height="3.18790459" rx="1.5939523"></rect>
                <rect id="Rectangle-9" stroke-width="0.875" fill="#FFFFFF" x="69.3993741" y="0.4375" width="5.66167053" height="3.18790459" rx="1.5939523"></rect>
                <rect id="Rectangle-9" stroke-width="0.875" fill="#FFFFFF" x="78.5507129" y="0.4375" width="5.66167053" height="3.18790459" rx="1.5939523"></rect>
                <rect id="Rectangle-9" stroke-width="0.875" fill="#FFFFFF" x="95.2192227" y="0.4375" width="5.66167053" height="3.18790459" rx="1.5939523"></rect>
                <rect id="Rectangle-9" stroke-width="0.875" fill="#FFFFFF" x="104.370561" y="0.4375" width="5.66167053" height="3.18790459" rx="1.5939523"></rect>
                <rect id="Rectangle-9" stroke-width="0.875" fill="#FFFFFF" x="113.5219" y="0.4375" width="5.66167053" height="3.18790459" rx="1.5939523"></rect>
                <rect id="Rectangle-9" stroke-width="0.875" fill="#FFFFFF" x="32.7940191" y="0.4375" width="32.7888532" height="3.18790459" rx="1.5939523"></rect>
                <path d="M1.21010732,4.3568326 L0.647453611,6.54617952 C0.431165815,7.38777892 0.931309967,8.02688457 1.81028636,8.02688457 L122.02608,8.02688457 C122.892947,8.02688457 123.348498,7.41093055 123.091874,6.58422017 L122.401565,4.36040129 C122.112719,3.42988924 121.066264,2.65833328 120.097262,2.65833328 L3.40557463,2.65833328 C2.44536822,2.65833328 1.44820646,3.43036289 1.21010732,4.3568326 Z" id="Rectangle-8" stroke-width="0.875" fill="#FFFFFF"></path>
                <path d="M1.14391734,5.24791843 L123.44649,5.24791843" id="Line" stroke-width="1.05" stroke-linecap="square"></path>
            </g>
            <g id="Monitor" transform="translate(3.911681, 0.000000)">
                <rect id="Monitor_BG" stroke="#43769A" stroke-width="1.12" fill="#FFFFFF" x="0.56" y="0.56" width="114.274597" height="80.2063179" rx="4.76"></rect>
                <ellipse id="Oval-2" fill="#43769A" cx="58.023272" cy="73.5750351" rx="1.95584063" ry="1.95331952"></ellipse>
                <ellipse id="Camera" fill="#5F4AB6" cx="57.1739671" cy="3.26874268" rx="1" ry="1"></ellipse>
                <rect id="Monitor_BG" stroke="#43769A" stroke-width="1.12" fill-opacity="0.3" fill="url(#linearGradient-3)" x="5.00831781" y="5.78998829" width="103.546301" height="61.6398595"></rect>
                <g id="Monitor_base" transform="translate(38.464866, 80.801906)" fill="#FFFFFF" stroke="#43769A">
                    <path d="M7.15570025,0.35 L5.57794328,15.3493944 L33.0781623,14.3439543 L31.2789265,0.35 L7.15570025,0.35 Z" id="Rectangle-7" stroke-width="0.7"></path>
                    <rect id="Rectangle-6" stroke-width="0.56" x="0.28" y="13.6178836" width="36.8582027" height="1.79349473" rx="0.896747365"></rect>
                </g>
                <g id="Monitor_left_group" transform="translate(5.233315, 7.583483)" fill="#43769A">
                    <g id="Buttons" transform="translate(3.139989, 0.000000)">
                        <ellipse id="Oval" cx="1.17749589" cy="1.17674737" rx="1.17749589" ry="1.17674737"></ellipse>
                        <ellipse id="Oval-Copy" cx="4.31748493" cy="1.17674737" rx="1.17749589" ry="1.17674737"></ellipse>
                        <ellipse id="Oval-Copy-2" cx="7.45747397" cy="1.17674737" rx="1.17749589" ry="1.17674737"></ellipse>
                    </g>
                    <rect id="Rectangle" x="0" y="3.39949239" width="103.357973" height="1.04599766"></rect>
                    <rect id="Rectangle-2" x="3.66332055" y="28.7649356" width="13.0832877" height="1.56899649" rx="0.784498243"></rect>
                    <rect id="Rectangle-2-Copy-6" x="3.9249863" y="44.193401" width="19.3632657" height="1.56899649" rx="0.784498243"></rect>
                    <rect id="Rectangle-2-Copy-4" x="19.3632657" y="28.7649356" width="7.8499726" height="1.56899649" rx="0.784498243"></rect>
                    <rect id="Rectangle-2-Copy-4" x="3.9249863" y="12.5519719" width="19.3632657" height="1.56899649" rx="0.784498243"></rect>
                    <rect id="Rectangle-2-Copy-4" x="10.4666301" y="16.4744631" width="29.3065644" height="1.56899649" rx="0.784498243"></rect>
                    <path d="M3.9249863,33.7334245 C3.9249863,33.300158 4.27406326,32.9489262 4.71617889,32.9489262 L14.3854211,32.9489262 C14.8223847,32.9489262 15.1766137,33.2971374 15.1766137,33.7334245 L15.1766137,33.7334245 C15.1766137,34.1666909 14.8275367,34.5179227 14.3854211,34.5179227 L4.71617889,34.5179227 C4.27921529,34.5179227 3.9249863,34.1697115 3.9249863,33.7334245 L3.9249863,33.7334245 Z" id="Rectangle-2-Copy-2"></path>
                    <rect id="Rectangle-2-Copy-2" x="4.18665205" y="8.36798126" width="13.0832877" height="1.30749707" rx="0.653748536"></rect>
                    <path d="M10.7282959,48.7696408 C10.7282959,48.4085854 11.0183532,48.1158923 11.3814951,48.1158923 L39.381661,48.1158923 C39.742413,48.1158923 40.0348603,48.4060682 40.0348603,48.7696408 L40.0348603,48.7696408 C40.0348603,49.1306961 39.7448029,49.4233893 39.381661,49.4233893 L11.3814951,49.4233893 C11.0207431,49.4233893 10.7282959,49.1332134 10.7282959,48.7696408 L10.7282959,48.7696408 Z" id="Rectangle-2-Copy-2"></path>
                    <rect id="Rectangle-2-Copy-2" x="43.6981808" y="48.1158923" width="4.18665205" height="1.30749707" rx="0.653748536"></rect>
                    <rect id="Rectangle-2-Copy-5" x="3.9249863" y="40.2709098" width="13.0832877" height="1.56899649" rx="0.784498243"></rect>
                    <path d="M10.4666301,25.6269426 C10.4666301,25.1936762 10.8131622,24.8424444 11.2481625,24.8424444 L47.1033005,24.8424444 C47.5349289,24.8424444 47.8848329,25.1906555 47.8848329,25.6269426 L47.8848329,25.6269426 C47.8848329,26.060209 47.5383008,26.4114409 47.1033005,26.4114409 L11.2481625,26.4114409 C10.8165341,26.4114409 10.4666301,26.0632297 10.4666301,25.6269426 L10.4666301,25.6269426 Z" id="Rectangle-2-Copy-3"></path>
                    <path d="M21.194926,21.442952 C21.194926,21.0096856 21.5475615,20.6584537 21.9711074,20.6584537 L51.818635,20.6584537 C52.2473082,20.6584537 52.5948164,21.0066649 52.5948164,21.442952 L52.5948164,21.442952 C52.5948164,21.8762184 52.2421809,22.2274502 51.818635,22.2274502 L21.9711074,22.2274502 C21.5424343,22.2274502 21.194926,21.8792391 21.194926,21.442952 L21.194926,21.442952 Z" id="Rectangle-2-Copy"></path>
                    <rect id="Rectangle-2-Copy" x="10.4666301" y="20.6584537" width="7.8499726" height="1.56899649" rx="0.784498243"></rect>
                    <rect id="Rectangle-2-Copy" x="26.1665753" y="44.193401" width="17.5316055" height="1.56899649" rx="0.784498243"></rect>
                </g>
                <use id="Rectangle-3" stroke="#43769A" mask="url(#mask-5)" stroke-width="2.8" opacity="0.48658288" stroke-dasharray="2.8" xlink:href="#path-4"></use>
            </g>
        </g>
        <g id="Floating_window" transform="translate(416.000000, 209.000000)">
            <g id="BG_bits">
                <mask id="mask-7" fill="white">
                    <use xlink:href="#path-6"></use>
                </mask>
                <rect stroke="#43769A" stroke-width="1.47" x="-0.735" y="31.8203253" width="36.6751314" height="50.3029879" rx="1.89"></rect>
                <rect id="Rectangle-4" fill="#D0E6F2" mask="url(#mask-7)" x="-1.5696032" y="31.7658099" width="38.7305752" height="8.0998429"></rect>
                <path d="M17.4297997,0.651106505 L17.4297997,32.5553253" id="Path-9" stroke="#43769A" stroke-width="1.46999993"></path>
            </g>
            <g id="Top_bar" transform="translate(4.141780, 35.771869)" fill="#43769A">
                <ellipse id="Oval-3" cx="0.88752432" cy="0.877239303" rx="1" ry="1"></ellipse>
                <ellipse id="Oval-3" cx="3.84593872" cy="0.877239303" rx="1" ry="1"></ellipse>
                <ellipse id="Oval-3" cx="6.80435312" cy="0.877239303" rx="1" ry="1"></ellipse>
            </g>
            <g id="Writing_Overlay" transform="translate(4.733463, 43.082197)" fill="#43769A">
                <rect id="Rectangle-5" x="0.29584144" y="0" width="13.0170234" height="1" rx="0.5"></rect>
                <rect id="Rectangle-5" x="0" y="4.09378341" width="21.5964251" height="1" rx="0.5"></rect>
                <rect id="Rectangle-5" x="0" y="13.4510026" width="15.0879134" height="1" rx="0.5"></rect>
                <rect id="Rectangle-5" x="15.9754378" y="13.4510026" width="5.9168288" height="1" rx="0.5"></rect>
                <path d="M0,27.9254512 C0,27.6832082 0.189378969,27.4868315 0.433785496,27.4868315 L16.4291766,27.4868315 C16.6687497,27.4868315 16.8629621,27.6902928 16.8629621,27.9254512 L16.8629621,27.9254512 C16.8629621,28.1676941 16.6735831,28.3640708 16.4291766,28.3640708 L0.433785496,28.3640708 C0.194212382,28.3640708 0,28.1606095 0,27.9254512 L0,27.9254512 Z" id="Rectangle-5"></path>
                <rect id="Rectangle-5" x="0" y="9.06480613" width="16.8629621" height="1" rx="0.5"></rect>
                <rect id="Rectangle-5" x="0.29584144" y="23.3930481" width="19.2296936" height="1" rx="0.5"></rect>
                <rect id="Rectangle-5" x="0.29584144" y="23.3930481" width="19.2296936" height="1" rx="0.5"></rect>
                <rect id="Rectangle-5" x="6.21267024" y="31.5806149" width="14.2003891" height="1" rx="0.5"></rect>
                <path d="M-1.73807954e-14,32.0603016 C-1.73807954e-14,31.795378 0.213485548,31.5806149 0.479242221,31.5806149 L5.14174514,31.5806149 C5.40642331,31.5806149 5.62098736,31.8019794 5.62098736,32.0603016 L5.62098736,31.9781675 C5.62098736,32.2430912 5.40750181,32.4578542 5.14174514,32.4578542 L0.479242221,32.4578542 C0.214564051,32.4578542 -1.73807954e-14,32.2364897 -1.73807954e-14,31.9781675 L-1.73807954e-14,32.0603016 Z" id="Rectangle-5"></path>
            </g>
        </g>
        <g id="Mouse" transform="translate(468.000000, 354.000000)">
            <g transform="translate(0.341067, 0.303339)">
                <mask id="mask-9" fill="white">
                    <use xlink:href="#path-8"></use>
                </mask>
                <use id="Oval-4" stroke="#5F4AB6" stroke-width="0.5" fill="#FFFFFF" xlink:href="#path-8"></use>
                <path d="M0.290480776,3.17557551 C0.290480776,3.17557551 8.19286288,7.04277342 16.3810189,3.17557551 C24.5691749,-0.691622389 13.4249134,13.7328812 13.4249134,13.7328812 C13.4249134,13.7328812 -5.87063224,16.7862887 -4.56958781,11.369502 C-3.26854337,5.95271536 0.290480776,3.17557551 0.290480776,3.17557551 Z" id="Path-2" fill="#E7F7FF" mask="url(#mask-9)"></path>
                <mask id="mask-11" fill="white">
                    <use xlink:href="#path-10"></use>
                </mask>
                <use id="Oval-4" stroke="#43769A" stroke-width="0.5" xlink:href="#path-10"></use>
            </g>
        </g>
        <g id="footer_text" transform="translate(308.000000, 397.000000)">
            <path d="M24.717,12.198 L16.617,2.496 L16.617,12 L15.807,12 L15.807,0.156 L23.907,9.84 L23.907,0.3 L24.717,0.3 L24.717,12.198 Z M33.177,12.126 C32.1089947,12.126 31.1190046,11.8590027 30.207,11.325 C29.2949954,10.7909973 28.5750026,10.0650046 28.047,9.147 C27.5189974,8.22899541 27.255,7.2300054 27.255,6.15 C27.255,5.0699946 27.5189974,4.07100459 28.047,3.153 C28.5750026,2.23499541 29.2949954,1.50900267 30.207,0.975 C31.1190046,0.44099733 32.1089947,0.174 33.177,0.174 C34.2450053,0.174 35.2349954,0.44099733 36.147,0.975 C37.0590046,1.50900267 37.7789974,2.23499541 38.307,3.153 C38.8350026,4.07100459 39.099,5.0699946 39.099,6.15 C39.099,7.2300054 38.8350026,8.22899541 38.307,9.147 C37.7789974,10.0650046 37.0590046,10.7909973 36.147,11.325 C35.2349954,11.8590027 34.2450053,12.126 33.177,12.126 Z M33.177,1.002 C32.2529954,1.002 31.4010039,1.23299769 30.621,1.695 C29.8409961,2.15700231 29.2200023,2.78099607 28.758,3.567 C28.2959977,4.35300393 28.065,5.21399532 28.065,6.15 C28.065,7.08600468 28.2959977,7.94699607 28.758,8.733 C29.2200023,9.51900393 29.8409961,10.1429977 30.621,10.605 C31.4010039,11.0670023 32.2529954,11.298 33.177,11.298 C34.1010046,11.298 34.9529961,11.0670023 35.733,10.605 C36.5130039,10.1429977 37.1309977,9.51900393 37.587,8.733 C38.0430023,7.94699607 38.271,7.08600468 38.271,6.15 C38.271,5.21399532 38.0430023,4.35300393 37.587,3.567 C37.1309977,2.78099607 36.5130039,2.15700231 35.733,1.695 C34.9529961,1.23299769 34.1010046,1.002 33.177,1.002 Z M51.213,9.678 L54.111,0.3 L54.975,0.3 L51.285,12.198 L47.955,3.486 L44.589,12.198 L40.881,0.3 L41.727,0.3 L44.661,9.714 L47.955,1.218 L51.213,9.678 Z M66.855,12 L63.489,12 L63.489,0.3 L66.855,0.3 C67.6830041,0.3 68.4509965,0.45299847 69.159,0.759 C69.8670035,1.06500153 70.4789974,1.49999718 70.995,2.064 C71.4870025,2.6040027 71.8649987,3.22199652 72.129,3.918 C72.3930013,4.61400348 72.525,5.3519961 72.525,6.132 C72.525,6.9120039 72.3930013,7.64999652 72.129,8.346 C71.8649987,9.04200348 71.4870025,9.66599724 70.995,10.218 C70.4789974,10.7940029 69.8670035,11.2349985 69.159,11.541 C68.4509965,11.8470015 67.6830041,12 66.855,12 Z M64.299,1.128 L64.299,11.19 L66.855,11.19 C68.3070073,11.19 69.4889954,10.6800051 70.401,9.66 C70.8210021,9.20399772 71.1419989,8.67300303 71.364,8.067 C71.5860011,7.46099697 71.697,6.81600342 71.697,6.132 C71.697,5.45999664 71.5860011,4.82100303 71.364,4.215 C71.1419989,3.60899697 70.8210021,3.07800228 70.401,2.622 C69.4769954,1.62599502 68.2950072,1.128 66.855,1.128 L64.299,1.128 Z M82.731,12 L75.153,12 L75.153,0.3 L82.731,0.3 L82.731,1.128 L75.963,1.128 L75.963,5.736 L81.237,5.736 L81.237,6.564 L75.963,6.564 L75.963,11.154 L82.731,11.154 L82.731,12 Z M90.507,10.182 L94.935,0.3 L95.835,0.3 L90.507,12.198 L85.197,0.3 L86.079,0.3 L90.507,10.182 Z M105.951,12 L98.373,12 L98.373,0.3 L105.951,0.3 L105.951,1.128 L99.183,1.128 L99.183,5.736 L104.457,5.736 L104.457,6.564 L99.183,6.564 L99.183,11.154 L105.951,11.154 L105.951,12 Z M116.589,12 L109.209,12 L109.209,0.3 L110.019,0.3 L110.019,11.19 L116.589,11.19 L116.589,12 Z M124.851,12.126 C123.782995,12.126 122.793005,11.8590027 121.881,11.325 C120.968995,10.7909973 120.249003,10.0650046 119.721,9.147 C119.192997,8.22899541 118.929,7.2300054 118.929,6.15 C118.929,5.0699946 119.192997,4.07100459 119.721,3.153 C120.249003,2.23499541 120.968995,1.50900267 121.881,0.975 C122.793005,0.44099733 123.782995,0.174 124.851,0.174 C125.919005,0.174 126.908995,0.44099733 127.821,0.975 C128.733005,1.50900267 129.452997,2.23499541 129.981,3.153 C130.509003,4.07100459 130.773,5.0699946 130.773,6.15 C130.773,7.2300054 130.509003,8.22899541 129.981,9.147 C129.452997,10.0650046 128.733005,10.7909973 127.821,11.325 C126.908995,11.8590027 125.919005,12.126 124.851,12.126 Z M124.851,1.002 C123.926995,1.002 123.075004,1.23299769 122.295,1.695 C121.514996,2.15700231 120.894002,2.78099607 120.432,3.567 C119.969998,4.35300393 119.739,5.21399532 119.739,6.15 C119.739,7.08600468 119.969998,7.94699607 120.432,8.733 C120.894002,9.51900393 121.514996,10.1429977 122.295,10.605 C123.075004,11.0670023 123.926995,11.298 124.851,11.298 C125.775005,11.298 126.626996,11.0670023 127.407,10.605 C128.187004,10.1429977 128.804998,9.51900393 129.261,8.733 C129.717002,7.94699607 129.945,7.08600468 129.945,6.15 C129.945,5.21399532 129.717002,4.35300393 129.261,3.567 C128.804998,2.78099607 128.187004,2.15700231 127.407,1.695 C126.626996,1.23299769 125.775005,1.002 124.851,1.002 Z M134.121,12 L133.311,12 L133.293,0.3 L137.469,0.3 C138.153003,0.3 138.785997,0.4499985 139.368,0.75 C139.950003,1.0500015 140.411998,1.45199748 140.754,1.956 C141.096002,2.46000252 141.267,3.011997 141.267,3.612 C141.267,4.20000294 141.096002,4.74899745 140.754,5.259 C140.411998,5.76900255 139.950003,6.1739985 139.368,6.474 C138.785997,6.7740015 138.153003,6.924 137.469,6.924 L134.121,6.924 L134.121,12 Z M134.103,1.128 L134.121,6.078 L137.469,6.078 C138.009003,6.078 138.506998,5.96700111 138.963,5.745 C139.419002,5.52299889 139.781999,5.22300189 140.052,4.845 C140.322001,4.46699811 140.457,4.05600222 140.457,3.612 C140.457,3.15599772 140.322001,2.73900189 140.052,2.361 C139.781999,1.98299811 139.419002,1.68300111 138.963,1.461 C138.506998,1.23899889 138.009003,1.128 137.469,1.128 L134.103,1.128 Z M145.029,12 L144.219,12 L144.219,0.3 L145.029,0.3 L145.029,12 Z M157.449,12.198 L149.349,2.496 L149.349,12 L148.539,12 L148.539,0.156 L156.639,9.84 L156.639,0.3 L157.449,0.3 L157.449,12.198 Z M170.121,6.186 L170.121,12 L165.891,12 C164.822995,12 163.839004,11.7360026 162.939,11.208 C162.038995,10.6799974 161.325003,9.96300453 160.797,9.057 C160.268997,8.15099547 160.005,7.1580054 160.005,6.078 C160.005,5.00999466 160.268997,4.02300453 160.797,3.117 C161.325003,2.21099547 162.038995,1.49100267 162.939,0.957 C163.839004,0.42299733 164.822995,0.156 165.891,0.156 C166.707004,0.156 167.489996,0.32399832 168.24,0.66 C168.990004,0.99600168 169.640997,1.463997 170.193,2.064 L169.599,2.622 C169.118998,2.10599742 168.555003,1.70700141 167.907,1.425 C167.258997,1.14299859 166.587003,1.002 165.891,1.002 C164.978995,1.002 164.133004,1.22999772 163.353,1.686 C162.572996,2.14200228 161.955002,2.75699613 161.499,3.531 C161.042998,4.30500387 160.815,5.15399538 160.815,6.078 C160.815,7.00200462 161.042998,7.8539961 161.499,8.634 C161.955002,9.4140039 162.572996,10.0349977 163.353,10.497 C164.133004,10.9590023 164.978995,11.19 165.891,11.19 L169.275,11.19 L169.275,6.996 L165.423,6.996 L165.423,6.186 L170.121,6.186 Z M6.636,27.844 C7.18800276,28.0840012 7.65899805,28.4589975 8.049,28.969 C8.43900195,29.4790026 8.634,30.0579968 8.634,30.706 C8.634,31.1260021 8.54100093,31.536998 8.355,31.939 C8.16899907,32.341002 7.90200174,32.6979984 7.554,33.01 C7.1939982,33.3220016 6.77100243,33.5649991 6.285,33.739 C5.79899757,33.9130009 5.2860027,34 4.746,34 L0.444,34 L0.462,22.3 L3.81,22.3 C4.90200546,22.3 5.77199676,22.6059969 6.42,23.218 C6.7200015,23.4940014 6.95099919,23.8119982 7.113,24.172 C7.27500081,24.5320018 7.356,24.9039981 7.356,25.288 C7.356,25.7680024 7.24500111,26.205998 7.023,26.602 C6.80099889,26.998002 6.52800162,27.3039989 6.204,27.52 L6.042,27.628 C6.27000114,27.7000004 6.46799916,27.7719996 6.636,27.844 Z M1.272,27.394 L3.774,27.394 C4.09800162,27.394 4.36799892,27.3760002 4.584,27.34 C4.80000108,27.3039998 5.01599892,27.2440004 5.232,27.16 C5.54400156,27.0279993 5.84099859,26.8000016 6.123,26.476 C6.40500141,26.1519984 6.546,25.7560023 6.546,25.288 C6.546,24.9159981 6.44100105,24.5650017 6.231,24.235 C6.02099895,23.9049984 5.70900207,23.638001 5.295,23.434 C4.88099793,23.229999 4.38600288,23.128 3.81,23.128 L1.272,23.128 L1.272,27.394 Z M4.746,33.19 C5.35800306,33.19 5.89799766,33.0700012 6.366,32.83 C6.83400234,32.5899988 7.19399874,32.2810019 7.446,31.903 C7.69800126,31.5249981 7.824,31.1260021 7.824,30.706 C7.824,30.2379977 7.67700147,29.8150019 7.383,29.437 C7.08899853,29.0589981 6.73800204,28.7800009 6.33,28.6 C5.75399712,28.3479987 5.02800438,28.222 4.152,28.222 L1.272,28.222 L1.272,33.19 L4.746,33.19 Z M15.744,34.126 C15.1559971,34.126 14.5890027,34.0090012 14.043,33.775 C13.4969973,33.5409988 13.0140021,33.2080022 12.594,32.776 C12.1739979,32.367998 11.8530011,31.8880028 11.631,31.336 C11.4089989,30.7839972 11.298,30.2020031 11.298,29.59 L11.298,22.3 L12.108,22.3 L12.108,29.59 C12.108,30.0940025 12.2009991,30.5739977 12.387,31.03 C12.5730009,31.4860023 12.8339983,31.8819983 13.17,32.218 C13.5180017,32.5660017 13.9139978,32.8329991 14.358,33.019 C14.8020022,33.2050009 15.2639976,33.298 15.744,33.298 C16.2360025,33.298 16.7039978,33.2050009 17.148,33.019 C17.5920022,32.8329991 17.9879983,32.5660017 18.336,32.218 C18.6720017,31.8819983 18.9329991,31.4860023 19.119,31.03 C19.3050009,30.5739977 19.398,30.0940025 19.398,29.59 L19.398,22.3 L20.208,22.3 L20.208,29.59 C20.208,30.2020031 20.0970011,30.7839972 19.875,31.336 C19.6529989,31.8880028 19.3320021,32.367998 18.912,32.776 C18.4919979,33.2080022 18.0120027,33.5409988 17.472,33.775 C16.9319973,34.0090012 16.3560031,34.126 15.744,34.126 Z M29.82,28.33 C30.3720028,28.6420016 30.8009985,29.0229978 31.107,29.473 C31.4130015,29.9230023 31.566,30.4059974 31.566,30.922 C31.566,31.3660022 31.4580011,31.788998 31.242,32.191 C31.0259989,32.593002 30.714002,32.9439985 30.306,33.244 C29.4659958,33.844003 28.4880056,34.144 27.372,34.144 C26.8199972,34.144 26.2920025,34.0660008 25.788,33.91 C25.2839975,33.7539992 24.834002,33.5320014 24.438,33.244 C23.7539966,32.7399975 23.3400007,32.1220037 23.196,31.39 L23.97,30.958 C24.0060002,31.6180033 24.3299969,32.1579979 24.942,32.578 C25.2540016,32.8180012 25.6199979,33.0009994 26.04,33.127 C26.4600021,33.2530006 26.9039977,33.316 27.372,33.316 C28.3320048,33.316 29.1419967,33.0700025 29.802,32.578 C30.4380032,32.1099977 30.756,31.5580032 30.756,30.922 C30.756,30.5499981 30.6390012,30.2020016 30.405,29.878 C30.1709988,29.5539984 29.8440021,29.2780011 29.424,29.05 C29.027998,28.845999 28.3200051,28.6840006 27.3,28.564 C27.2159996,28.5519999 26.9130026,28.5040004 26.391,28.42 C25.8689974,28.3359996 25.4220019,28.2040009 25.05,28.024 C24.4619971,27.7359986 24.0000017,27.3550024 23.664,26.881 C23.3279983,26.4069976 23.16,25.8940028 23.16,25.342 C23.16,24.8979978 23.2709989,24.481002 23.493,24.091 C23.7150011,23.7009981 24.029998,23.3560015 24.438,23.056 C24.834002,22.7679986 25.2839975,22.5460008 25.788,22.39 C26.2920025,22.2339992 26.8199972,22.156 27.372,22.156 C28.4880056,22.156 29.4659958,22.455997 30.306,23.056 C31.0020035,23.5840026 31.4099994,24.1959965 31.53,24.892 L30.756,25.324 C30.7439999,25.0239985 30.6570008,24.7360014 30.495,24.46 C30.3329992,24.1839986 30.1020015,23.9320011 29.802,23.704 C29.4779984,23.4639988 29.1060021,23.2810006 28.686,23.155 C28.2659979,23.0289994 27.8280023,22.966 27.372,22.966 C26.9159977,22.966 26.4750021,23.0289994 26.049,23.155 C25.6229979,23.2810006 25.2540016,23.4639988 24.942,23.704 C24.6299984,23.9320011 24.3900008,24.1869986 24.222,24.469 C24.0539992,24.7510014 23.97,25.0419985 23.97,25.342 C23.97,25.7140019 24.1079986,26.0829982 24.384,26.449 C24.6600014,26.8150018 25.001998,27.099999 25.41,27.304 C25.6620013,27.4240006 25.9409985,27.5109997 26.247,27.565 C26.5530015,27.6190003 26.9459976,27.6759997 27.426,27.736 L28.056,27.826 C28.3920017,27.8740002 28.7159984,27.9399996 29.028,28.024 C29.3400016,28.1080004 29.6039989,28.2099994 29.82,28.33 Z M35.634,34 L34.824,34 L34.824,22.3 L35.634,22.3 L35.634,34 Z M48.054,34.198 L39.954,24.496 L39.954,34 L39.144,34 L39.144,22.156 L47.244,31.84 L47.244,22.3 L48.054,22.3 L48.054,34.198 Z M58.908,34 L51.33,34 L51.33,22.3 L58.908,22.3 L58.908,23.128 L52.14,23.128 L52.14,27.736 L57.414,27.736 L57.414,28.564 L52.14,28.564 L52.14,33.154 L58.908,33.154 L58.908,34 Z M68.484,28.33 C69.0360028,28.6420016 69.4649985,29.0229978 69.771,29.473 C70.0770015,29.9230023 70.23,30.4059974 70.23,30.922 C70.23,31.3660022 70.1220011,31.788998 69.906,32.191 C69.6899989,32.593002 69.378002,32.9439985 68.97,33.244 C68.1299958,33.844003 67.1520056,34.144 66.036,34.144 C65.4839972,34.144 64.9560025,34.0660008 64.452,33.91 C63.9479975,33.7539992 63.498002,33.5320014 63.102,33.244 C62.4179966,32.7399975 62.0040007,32.1220037 61.86,31.39 L62.634,30.958 C62.6700002,31.6180033 62.9939969,32.1579979 63.606,32.578 C63.9180016,32.8180012 64.2839979,33.0009994 64.704,33.127 C65.1240021,33.2530006 65.5679977,33.316 66.036,33.316 C66.9960048,33.316 67.8059967,33.0700025 68.466,32.578 C69.1020032,32.1099977 69.42,31.5580032 69.42,30.922 C69.42,30.5499981 69.3030012,30.2020016 69.069,29.878 C68.8349988,29.5539984 68.5080021,29.2780011 68.088,29.05 C67.691998,28.845999 66.9840051,28.6840006 65.964,28.564 C65.8799996,28.5519999 65.5770026,28.5040004 65.055,28.42 C64.5329974,28.3359996 64.0860019,28.2040009 63.714,28.024 C63.1259971,27.7359986 62.6640017,27.3550024 62.328,26.881 C61.9919983,26.4069976 61.824,25.8940028 61.824,25.342 C61.824,24.8979978 61.9349989,24.481002 62.157,24.091 C62.3790011,23.7009981 62.693998,23.3560015 63.102,23.056 C63.498002,22.7679986 63.9479975,22.5460008 64.452,22.39 C64.9560025,22.2339992 65.4839972,22.156 66.036,22.156 C67.1520056,22.156 68.1299958,22.455997 68.97,23.056 C69.6660035,23.5840026 70.0739994,24.1959965 70.194,24.892 L69.42,25.324 C69.4079999,25.0239985 69.3210008,24.7360014 69.159,24.46 C68.9969992,24.1839986 68.7660015,23.9320011 68.466,23.704 C68.1419984,23.4639988 67.7700021,23.2810006 67.35,23.155 C66.9299979,23.0289994 66.4920023,22.966 66.036,22.966 C65.5799977,22.966 65.1390021,23.0289994 64.713,23.155 C64.2869979,23.2810006 63.9180016,23.4639988 63.606,23.704 C63.2939984,23.9320011 63.0540008,24.1869986 62.886,24.469 C62.7179992,24.7510014 62.634,25.0419985 62.634,25.342 C62.634,25.7140019 62.7719986,26.0829982 63.048,26.449 C63.3240014,26.8150018 63.665998,27.099999 64.074,27.304 C64.3260013,27.4240006 64.6049985,27.5109997 64.911,27.565 C65.2170015,27.6190003 65.6099976,27.6759997 66.09,27.736 L66.72,27.826 C67.0560017,27.8740002 67.3799984,27.9399996 67.692,28.024 C68.0040016,28.1080004 68.2679989,28.2099994 68.484,28.33 Z M79.59,28.33 C80.1420028,28.6420016 80.5709985,29.0229978 80.877,29.473 C81.1830015,29.9230023 81.336,30.4059974 81.336,30.922 C81.336,31.3660022 81.2280011,31.788998 81.012,32.191 C80.7959989,32.593002 80.484002,32.9439985 80.076,33.244 C79.2359958,33.844003 78.2580056,34.144 77.142,34.144 C76.5899972,34.144 76.0620025,34.0660008 75.558,33.91 C75.0539975,33.7539992 74.604002,33.5320014 74.208,33.244 C73.5239966,32.7399975 73.1100007,32.1220037 72.966,31.39 L73.74,30.958 C73.7760002,31.6180033 74.0999969,32.1579979 74.712,32.578 C75.0240016,32.8180012 75.3899979,33.0009994 75.81,33.127 C76.2300021,33.2530006 76.6739977,33.316 77.142,33.316 C78.1020048,33.316 78.9119967,33.0700025 79.572,32.578 C80.2080032,32.1099977 80.526,31.5580032 80.526,30.922 C80.526,30.5499981 80.4090012,30.2020016 80.175,29.878 C79.9409988,29.5539984 79.6140021,29.2780011 79.194,29.05 C78.797998,28.845999 78.0900051,28.6840006 77.07,28.564 C76.9859996,28.5519999 76.6830026,28.5040004 76.161,28.42 C75.6389974,28.3359996 75.1920019,28.2040009 74.82,28.024 C74.2319971,27.7359986 73.7700017,27.3550024 73.434,26.881 C73.0979983,26.4069976 72.93,25.8940028 72.93,25.342 C72.93,24.8979978 73.0409989,24.481002 73.263,24.091 C73.4850011,23.7009981 73.799998,23.3560015 74.208,23.056 C74.604002,22.7679986 75.0539975,22.5460008 75.558,22.39 C76.0620025,22.2339992 76.5899972,22.156 77.142,22.156 C78.2580056,22.156 79.2359958,22.455997 80.076,23.056 C80.7720035,23.5840026 81.1799994,24.1959965 81.3,24.892 L80.526,25.324 C80.5139999,25.0239985 80.4270008,24.7360014 80.265,24.46 C80.1029992,24.1839986 79.8720015,23.9320011 79.572,23.704 C79.2479984,23.4639988 78.8760021,23.2810006 78.456,23.155 C78.0359979,23.0289994 77.5980023,22.966 77.142,22.966 C76.6859977,22.966 76.2450021,23.0289994 75.819,23.155 C75.3929979,23.2810006 75.0240016,23.4639988 74.712,23.704 C74.3999984,23.9320011 74.1600008,24.1869986 73.992,24.469 C73.8239992,24.7510014 73.74,25.0419985 73.74,25.342 C73.74,25.7140019 73.8779986,26.0829982 74.154,26.449 C74.4300014,26.8150018 74.771998,27.099999 75.18,27.304 C75.4320013,27.4240006 75.7109985,27.5109997 76.017,27.565 C76.3230015,27.6190003 76.7159976,27.6759997 77.196,27.736 L77.826,27.826 C78.1620017,27.8740002 78.4859984,27.9399996 78.798,28.024 C79.1100016,28.1080004 79.3739989,28.2099994 79.59,28.33 Z M96.672,28.33 C97.2240028,28.6420016 97.6529985,29.0229978 97.959,29.473 C98.2650015,29.9230023 98.418,30.4059974 98.418,30.922 C98.418,31.3660022 98.3100011,31.788998 98.094,32.191 C97.8779989,32.593002 97.566002,32.9439985 97.158,33.244 C96.3179958,33.844003 95.3400056,34.144 94.224,34.144 C93.6719972,34.144 93.1440025,34.0660008 92.64,33.91 C92.1359975,33.7539992 91.686002,33.5320014 91.29,33.244 C90.6059966,32.7399975 90.1920007,32.1220037 90.048,31.39 L90.822,30.958 C90.8580002,31.6180033 91.1819969,32.1579979 91.794,32.578 C92.1060016,32.8180012 92.4719979,33.0009994 92.892,33.127 C93.3120021,33.2530006 93.7559977,33.316 94.224,33.316 C95.1840048,33.316 95.9939967,33.0700025 96.654,32.578 C97.2900032,32.1099977 97.608,31.5580032 97.608,30.922 C97.608,30.5499981 97.4910012,30.2020016 97.257,29.878 C97.0229988,29.5539984 96.6960021,29.2780011 96.276,29.05 C95.879998,28.845999 95.1720051,28.6840006 94.152,28.564 C94.0679996,28.5519999 93.7650026,28.5040004 93.243,28.42 C92.7209974,28.3359996 92.2740019,28.2040009 91.902,28.024 C91.3139971,27.7359986 90.8520017,27.3550024 90.516,26.881 C90.1799983,26.4069976 90.012,25.8940028 90.012,25.342 C90.012,24.8979978 90.1229989,24.481002 90.345,24.091 C90.5670011,23.7009981 90.881998,23.3560015 91.29,23.056 C91.686002,22.7679986 92.1359975,22.5460008 92.64,22.39 C93.1440025,22.2339992 93.6719972,22.156 94.224,22.156 C95.3400056,22.156 96.3179958,22.455997 97.158,23.056 C97.8540035,23.5840026 98.2619994,24.1959965 98.382,24.892 L97.608,25.324 C97.5959999,25.0239985 97.5090008,24.7360014 97.347,24.46 C97.1849992,24.1839986 96.9540015,23.9320011 96.654,23.704 C96.3299984,23.4639988 95.9580021,23.2810006 95.538,23.155 C95.1179979,23.0289994 94.6800023,22.966 94.224,22.966 C93.7679977,22.966 93.3270021,23.0289994 92.901,23.155 C92.4749979,23.2810006 92.1060016,23.4639988 91.794,23.704 C91.4819984,23.9320011 91.2420008,24.1869986 91.074,24.469 C90.9059992,24.7510014 90.822,25.0419985 90.822,25.342 C90.822,25.7140019 90.9599986,26.0829982 91.236,26.449 C91.5120014,26.8150018 91.853998,27.099999 92.262,27.304 C92.5140013,27.4240006 92.7929985,27.5109997 93.099,27.565 C93.4050015,27.6190003 93.7979976,27.6759997 94.278,27.736 L94.908,27.826 C95.2440017,27.8740002 95.5679984,27.9399996 95.88,28.024 C96.1920016,28.1080004 96.4559989,28.2099994 96.672,28.33 Z M102.486,34 L101.676,34 L101.676,22.3 L102.486,22.3 L102.486,34 Z M118.056,34 L117.246,34 L117.246,24.748 L112.062,32.146 L106.806,24.73 L106.806,34 L105.996,34 L105.996,22.156 L112.062,30.724 L118.056,22.156 L118.056,34 Z M122.178,34 L121.368,34 L121.35,22.3 L125.526,22.3 C126.210003,22.3 126.842997,22.4499985 127.425,22.75 C128.007003,23.0500015 128.468998,23.4519975 128.811,23.956 C129.153002,24.4600025 129.324,25.011997 129.324,25.612 C129.324,26.2000029 129.153002,26.7489975 128.811,27.259 C128.468998,27.7690026 128.007003,28.1739985 127.425,28.474 C126.842997,28.7740015 126.210003,28.924 125.526,28.924 L122.178,28.924 L122.178,34 Z M122.16,23.128 L122.178,28.078 L125.526,28.078 C126.066003,28.078 126.563998,27.9670011 127.02,27.745 C127.476002,27.5229989 127.838999,27.2230019 128.109,26.845 C128.379001,26.4669981 128.514,26.0560022 128.514,25.612 C128.514,25.1559977 128.379001,24.7390019 128.109,24.361 C127.838999,23.9829981 127.476002,23.6830011 127.02,23.461 C126.563998,23.2389989 126.066003,23.128 125.526,23.128 L122.16,23.128 Z M139.44,34 L132.06,34 L132.06,22.3 L132.87,22.3 L132.87,33.19 L139.44,33.19 L139.44,34 Z M143.544,34 L142.734,34 L142.734,22.3 L143.544,22.3 L143.544,34 Z M152.22,34.126 C151.151995,34.126 150.162005,33.8560027 149.25,33.316 C148.337995,32.7759973 147.618003,32.0470046 147.09,31.129 C146.561997,30.2109954 146.298,29.2120054 146.298,28.132 C146.298,27.0519946 146.561997,26.0560046 147.09,25.144 C147.618003,24.2319954 148.337995,23.5060027 149.25,22.966 C150.162005,22.4259973 151.151995,22.156 152.22,22.156 C153.048004,22.156 153.842996,22.3269983 154.605,22.669 C155.367004,23.0110017 156.035997,23.4939969 156.612,24.118 L155.982,24.676 C155.501998,24.1359973 154.935003,23.7160015 154.281,23.416 C153.626997,23.1159985 152.940004,22.966 152.22,22.966 C151.295995,22.966 150.444004,23.1969977 149.664,23.659 C148.883996,24.1210023 148.263002,24.747996 147.801,25.54 C147.338998,26.332004 147.108,27.1959953 147.108,28.132 C147.108,29.0680047 147.338998,29.931996 147.801,30.724 C148.263002,31.516004 148.883996,32.1429977 149.664,32.605 C150.444004,33.0670023 151.295995,33.298 152.22,33.298 C152.988004,33.298 153.716997,33.1300017 154.407,32.794 C155.097003,32.4579983 155.687998,31.990003 156.18,31.39 L156.828,31.894 C156.263997,32.6020035 155.580004,33.1509981 154.776,33.541 C153.971996,33.931002 153.120004,34.126 152.22,34.126 Z M160.392,34 L159.582,34 L159.582,22.3 L160.392,22.3 L160.392,34 Z M173.316,22.3 L173.316,23.128 L168.69,23.128 L168.69,34 L167.862,34 L167.862,23.128 L163.218,23.128 L163.218,22.3 L173.316,22.3 Z M180.75,29.068 L185.358,22.3 L186.33,22.3 L181.146,29.95 L181.146,34 L180.336,34 L180.336,29.95 L175.152,22.3 L176.124,22.3 L180.75,29.068 Z" id="Now-developing-busin" fill="#000000"></path>
            <path d="M34.7397461,52.4355469 C34.7397461,53.2304727 34.4685086,53.8418761 33.9260254,54.2697754 C33.3835422,54.6976747 32.6074269,54.9116211 31.5976562,54.9116211 L30.6738281,54.9116211 L30.6738281,58 L29.7607422,58 L29.7607422,50.1474609 L31.7963867,50.1474609 C33.7586361,50.1474609 34.7397461,50.9101486 34.7397461,52.4355469 Z M30.6738281,54.1274414 L31.4956055,54.1274414 C32.3048543,54.1274414 32.8902977,53.9967461 33.2519531,53.7353516 C33.6136086,53.473957 33.7944336,53.0550159 33.7944336,52.4785156 C33.7944336,51.9593073 33.6243507,51.5725924 33.2841797,51.3183594 C32.9440087,51.0641263 32.4140661,50.9370117 31.6943359,50.9370117 L30.6738281,50.9370117 L30.6738281,54.1274414 Z M37.140625,58 L36.2490234,58 L36.2490234,49.6425781 L37.140625,49.6425781 L37.140625,58 Z M41.5180664,58.1074219 C40.6479449,58.1074219 39.9613469,57.8424506 39.458252,57.3125 C38.955157,56.7825494 38.7036133,56.0467169 38.7036133,55.1049805 C38.7036133,54.1560825 38.9372535,53.4023465 39.404541,52.84375 C39.8718285,52.2851535 40.499345,52.0058594 41.2871094,52.0058594 C42.0247433,52.0058594 42.6083963,52.2484514 43.0380859,52.7336426 C43.4677756,53.2188338 43.6826172,53.8588827 43.6826172,54.6538086 L43.6826172,55.2177734 L39.6274414,55.2177734 C39.6453451,55.9088576 39.8199039,56.4334292 40.151123,56.7915039 C40.4823422,57.1495786 40.9487275,57.3286133 41.550293,57.3286133 C42.1840852,57.3286133 42.8107065,57.1961276 43.4301758,56.9311523 L43.4301758,57.7260742 C43.11507,57.8621426 42.8169773,57.9597165 42.5358887,58.0187988 C42.2548,58.0778812 41.9155293,58.1074219 41.5180664,58.1074219 Z M41.2763672,52.7524414 C40.8037086,52.7524414 40.4268406,52.9064112 40.145752,53.2143555 C39.8646633,53.5222997 39.6990562,53.9484022 39.6489258,54.4926758 L42.7265625,54.4926758 C42.7265625,53.9304985 42.6012382,53.4999201 42.3505859,53.2009277 C42.0999336,52.9019354 41.7418643,52.7524414 41.2763672,52.7524414 Z M48.8227539,58 L48.6455078,57.1621094 L48.6025391,57.1621094 C48.3089178,57.5309263 48.0161961,57.7806797 47.7243652,57.911377 C47.4325343,58.0420742 47.0681988,58.1074219 46.6313477,58.1074219 C46.0476859,58.1074219 45.5902523,57.9570328 45.2590332,57.65625 C44.9278141,57.3554672 44.762207,56.9275744 44.762207,56.3725586 C44.762207,55.1837506 45.7128811,54.5607099 47.6142578,54.503418 L48.6132812,54.4711914 L48.6132812,54.105957 C48.6132812,53.6440407 48.513917,53.3029796 48.3151855,53.0827637 C48.1164541,52.8625477 47.7986675,52.7524414 47.3618164,52.7524414 C46.8712541,52.7524414 46.3162466,52.9028305 45.6967773,53.2036133 L45.4228516,52.5214844 C45.7128921,52.3639315 46.0306786,52.2403976 46.3762207,52.1508789 C46.7217628,52.0613602 47.0681949,52.0166016 47.4155273,52.0166016 C48.1173538,52.0166016 48.6374495,52.1723617 48.9758301,52.4838867 C49.3142107,52.7954117 49.4833984,53.2949184 49.4833984,53.9824219 L49.4833984,58 L48.8227539,58 Z M46.8085938,57.371582 C47.3636095,57.371582 47.799559,57.2194026 48.1164551,56.9150391 C48.4333512,56.6106756 48.5917969,56.1845731 48.5917969,55.6367188 L48.5917969,55.1049805 L47.7001953,55.1425781 C46.9912074,55.1676434 46.4800634,55.2777497 46.166748,55.4729004 C45.8534327,55.6680511 45.6967773,55.9715149 45.6967773,56.3833008 C45.6967773,56.705568 45.7943512,56.9508455 45.989502,57.1191406 C46.1846527,57.2874357 46.4576805,57.371582 46.8085938,57.371582 Z M55.1176758,56.394043 C55.1176758,56.9418973 54.9135763,57.3644191 54.5053711,57.6616211 C54.0971659,57.9588231 53.524255,58.1074219 52.7866211,58.1074219 C52.0060182,58.1074219 51.3973004,57.983888 50.9604492,57.7368164 L50.9604492,56.909668 C51.2433282,57.0528979 51.546792,57.1656897 51.8708496,57.2480469 C52.1949072,57.3304041 52.5073227,57.371582 52.8081055,57.371582 C53.2736026,57.371582 53.6316719,57.2972826 53.8823242,57.1486816 C54.1329765,57.0000806 54.2583008,56.7736018 54.2583008,56.4692383 C54.2583008,56.2400705 54.1589365,56.0440275 53.9602051,55.8811035 C53.7614736,55.7181795 53.3738636,55.5257173 52.7973633,55.3037109 C52.249509,55.0996084 51.8601086,54.9214689 51.6291504,54.7692871 C51.3981922,54.6171054 51.2263189,54.4443369 51.1135254,54.2509766 C51.0007319,54.0576162 50.9443359,53.8266615 50.9443359,53.5581055 C50.9443359,53.0782854 51.1394837,52.699627 51.5297852,52.4221191 C51.9200866,52.1446112 52.4554002,52.0058594 53.1357422,52.0058594 C53.7695344,52.0058594 54.3889944,52.1347643 54.9941406,52.3925781 L54.6772461,53.1176758 C54.0864228,52.874185 53.5511092,52.7524414 53.0712891,52.7524414 C52.6487609,52.7524414 52.3300792,52.8186842 52.1152344,52.9511719 C51.9003896,53.0836595 51.7929688,53.2662749 51.7929688,53.4990234 C51.7929688,53.6565763 51.8332516,53.7908523 51.9138184,53.9018555 C51.9943852,54.0128586 52.1241853,54.1184891 52.3032227,54.21875 C52.48226,54.3190109 52.8260066,54.464029 53.3344727,54.6538086 C54.0327183,54.9080416 54.5044747,55.1640612 54.7497559,55.421875 C54.995037,55.6796888 55.1176758,56.0037415 55.1176758,56.394043 Z M59.0546875,58.1074219 C58.184566,58.1074219 57.497968,57.8424506 56.994873,57.3125 C56.4917781,56.7825494 56.2402344,56.0467169 56.2402344,55.1049805 C56.2402344,54.1560825 56.4738746,53.4023465 56.9411621,52.84375 C57.4084496,52.2851535 58.0359661,52.0058594 58.8237305,52.0058594 C59.5613644,52.0058594 60.1450174,52.2484514 60.574707,52.7336426 C61.0043967,53.2188338 61.2192383,53.8588827 61.2192383,54.6538086 L61.2192383,55.2177734 L57.1640625,55.2177734 C57.1819662,55.9088576 57.356525,56.4334292 57.6877441,56.7915039 C58.0189632,57.1495786 58.4853486,57.3286133 59.0869141,57.3286133 C59.7207063,57.3286133 60.3473276,57.1961276 60.9667969,56.9311523 L60.9667969,57.7260742 C60.6516911,57.8621426 60.3535984,57.9597165 60.0725098,58.0187988 C59.7914211,58.0778812 59.4521504,58.1074219 59.0546875,58.1074219 Z M58.8129883,52.7524414 C58.3403297,52.7524414 57.9634617,52.9064112 57.682373,53.2143555 C57.4012844,53.5222997 57.2356773,53.9484022 57.1855469,54.4926758 L60.2631836,54.4926758 C60.2631836,53.9304985 60.1378593,53.4999201 59.887207,53.2009277 C59.6365547,52.9019354 59.2784854,52.7524414 58.8129883,52.7524414 Z M67.9492188,58.1074219 C67.0970009,58.1074219 66.4372582,57.8451361 65.9699707,57.3205566 C65.5026832,56.7959772 65.269043,56.0538785 65.269043,55.0942383 C65.269043,54.1095328 65.5062639,53.3486355 65.9807129,52.8115234 C66.4551619,52.2744114 67.1310177,52.0058594 68.0083008,52.0058594 C68.2911798,52.0058594 68.5740546,52.0362953 68.8569336,52.097168 C69.1398126,52.1580407 69.3618156,52.2296545 69.5229492,52.3120117 L69.2490234,53.0693359 C69.0520823,52.9905595 68.8372407,52.9252118 68.6044922,52.873291 C68.3717436,52.8213702 68.1658538,52.7954102 67.9868164,52.7954102 C66.7908469,52.7954102 66.1928711,53.5580978 66.1928711,55.0834961 C66.1928711,55.806807 66.3387843,56.3618145 66.6306152,56.7485352 C66.9224461,57.1352558 67.3548148,57.3286133 67.9277344,57.3286133 C68.4182967,57.3286133 68.9213841,57.2229828 69.4370117,57.0117188 L69.4370117,57.8012695 C69.0431295,58.0053721 68.5472035,58.1074219 67.9492188,58.1074219 Z M74.8618164,58 L74.8618164,54.1918945 C74.8618164,53.7120744 74.7526053,53.3540051 74.5341797,53.1176758 C74.3157541,52.8813465 73.9737979,52.7631836 73.5083008,52.7631836 C72.8888315,52.7631836 72.436769,52.9314762 72.1520996,53.2680664 C71.8674302,53.6046566 71.7250977,54.1560834 71.7250977,54.9223633 L71.7250977,58 L70.8334961,58 L70.8334961,49.6425781 L71.7250977,49.6425781 L71.7250977,52.1723633 C71.7250977,52.4767268 71.7107749,52.7291657 71.6821289,52.9296875 L71.7358398,52.9296875 C71.9112965,52.6468085 72.1610498,52.4239103 72.4851074,52.2609863 C72.809165,52.0980623 73.1788716,52.0166016 73.5942383,52.0166016 C74.3139684,52.0166016 74.853758,52.1875797 75.213623,52.529541 C75.5734881,52.8715024 75.753418,53.4148726 75.753418,54.159668 L75.753418,58 L74.8618164,58 Z M80.0717773,58.1074219 C79.2016558,58.1074219 78.5150579,57.8424506 78.0119629,57.3125 C77.5088679,56.7825494 77.2573242,56.0467169 77.2573242,55.1049805 C77.2573242,54.1560825 77.4909645,53.4023465 77.958252,52.84375 C78.4255394,52.2851535 79.053056,52.0058594 79.8408203,52.0058594 C80.5784542,52.0058594 81.1621072,52.2484514 81.5917969,52.7336426 C82.0214865,53.2188338 82.2363281,53.8588827 82.2363281,54.6538086 L82.2363281,55.2177734 L78.1811523,55.2177734 C78.1990561,55.9088576 78.3736149,56.4334292 78.704834,56.7915039 C79.0360531,57.1495786 79.5024384,57.3286133 80.1040039,57.3286133 C80.7377961,57.3286133 81.3644175,57.1961276 81.9838867,56.9311523 L81.9838867,57.7260742 C81.668781,57.8621426 81.3706883,57.9597165 81.0895996,58.0187988 C80.808511,58.0778812 80.4692403,58.1074219 80.0717773,58.1074219 Z M79.8300781,52.7524414 C79.3574195,52.7524414 78.9805515,52.9064112 78.6994629,53.2143555 C78.4183742,53.5222997 78.2527672,53.9484022 78.2026367,54.4926758 L81.2802734,54.4926758 C81.2802734,53.9304985 81.1549492,53.4999201 80.9042969,53.2009277 C80.6536446,52.9019354 80.2955752,52.7524414 79.8300781,52.7524414 Z M86.1088867,58.1074219 C85.2566689,58.1074219 84.5969262,57.8451361 84.1296387,57.3205566 C83.6623512,56.7959772 83.4287109,56.0538785 83.4287109,55.0942383 C83.4287109,54.1095328 83.6659319,53.3486355 84.1403809,52.8115234 C84.6148298,52.2744114 85.2906857,52.0058594 86.1679688,52.0058594 C86.4508478,52.0058594 86.7337225,52.0362953 87.0166016,52.097168 C87.2994806,52.1580407 87.5214836,52.2296545 87.6826172,52.3120117 L87.4086914,53.0693359 C87.2117503,52.9905595 86.9969087,52.9252118 86.7641602,52.873291 C86.5314116,52.8213702 86.3255217,52.7954102 86.1464844,52.7954102 C84.9505149,52.7954102 84.3525391,53.5580978 84.3525391,55.0834961 C84.3525391,55.806807 84.4984523,56.3618145 84.7902832,56.7485352 C85.0821141,57.1352558 85.5144828,57.3286133 86.0874023,57.3286133 C86.5779647,57.3286133 87.0810521,57.2229828 87.5966797,57.0117188 L87.5966797,57.8012695 C87.2027975,58.0053721 86.7068715,58.1074219 86.1088867,58.1074219 Z M89.8740234,54.9868164 C90.0279956,54.7683908 90.262531,54.4819354 90.5776367,54.1274414 L92.4790039,52.1132812 L93.5371094,52.1132812 L91.1523438,54.621582 L93.7036133,58 L92.6240234,58 L90.5454102,55.2177734 L89.8740234,55.7978516 L89.8740234,58 L88.9931641,58 L88.9931641,49.6425781 L89.8740234,49.6425781 L89.8740234,54.0737305 C89.8740234,54.2706716 89.8597007,54.5750305 89.8310547,54.9868164 L89.8740234,54.9868164 Z M100.36377,52.0166016 C101.137211,52.0166016 101.737872,52.2806777 102.165771,52.8088379 C102.593671,53.3369981 102.807617,54.0844678 102.807617,55.0512695 C102.807617,56.0180712 102.59188,56.7691217 102.1604,57.3044434 C101.72892,57.839765 101.130049,58.1074219 100.36377,58.1074219 C99.9806296,58.1074219 99.6306168,58.0367032 99.3137207,57.8952637 C98.9968246,57.7538242 98.7309581,57.536297 98.5161133,57.2426758 L98.4516602,57.2426758 L98.2636719,58 L97.6245117,58 L97.6245117,49.6425781 L98.5161133,49.6425781 L98.5161133,51.6728516 C98.5161133,52.1276064 98.5017905,52.5358055 98.4731445,52.8974609 L98.5161133,52.8974609 C98.9314799,52.3102184 99.5473592,52.0166016 100.36377,52.0166016 Z M100.234863,52.7631836 C99.6261363,52.7631836 99.1875013,52.9377424 98.9189453,53.2868652 C98.6503893,53.6359881 98.5161133,54.224117 98.5161133,55.0512695 C98.5161133,55.8784221 98.65397,56.4701317 98.9296875,56.826416 C99.205405,57.1827003 99.6476207,57.3608398 100.256348,57.3608398 C100.804202,57.3608398 101.212401,57.1612162 101.480957,56.7619629 C101.749513,56.3627096 101.883789,55.7889035 101.883789,55.0405273 C101.883789,54.2742475 101.749513,53.7031269 101.480957,53.3271484 C101.212401,52.95117 100.797041,52.7631836 100.234863,52.7631836 Z M107.985352,58 L107.808105,57.1621094 L107.765137,57.1621094 C107.471515,57.5309263 107.178794,57.7806797 106.886963,57.911377 C106.595132,58.0420742 106.230796,58.1074219 105.793945,58.1074219 C105.210284,58.1074219 104.75285,57.9570328 104.421631,57.65625 C104.090412,57.3554672 103.924805,56.9275744 103.924805,56.3725586 C103.924805,55.1837506 104.875479,54.5607099 106.776855,54.503418 L107.775879,54.4711914 L107.775879,54.105957 C107.775879,53.6440407 107.676515,53.3029796 107.477783,53.0827637 C107.279052,52.8625477 106.961265,52.7524414 106.524414,52.7524414 C106.033852,52.7524414 105.478844,52.9028305 104.859375,53.2036133 L104.585449,52.5214844 C104.87549,52.3639315 105.193276,52.2403976 105.538818,52.1508789 C105.88436,52.0613602 106.230793,52.0166016 106.578125,52.0166016 C107.279951,52.0166016 107.800047,52.1723617 108.138428,52.4838867 C108.476808,52.7954117 108.645996,53.2949184 108.645996,53.9824219 L108.645996,58 L107.985352,58 Z M105.971191,57.371582 C106.526207,57.371582 106.962157,57.2194026 107.279053,56.9150391 C107.595949,56.6106756 107.754395,56.1845731 107.754395,55.6367188 L107.754395,55.1049805 L106.862793,55.1425781 C106.153805,55.1676434 105.642661,55.2777497 105.329346,55.4729004 C105.01603,55.6680511 104.859375,55.9715149 104.859375,56.3833008 C104.859375,56.705568 104.956949,56.9508455 105.1521,57.1191406 C105.34725,57.2874357 105.620278,57.371582 105.971191,57.371582 Z M112.835449,58.1074219 C111.983231,58.1074219 111.323489,57.8451361 110.856201,57.3205566 C110.388914,56.7959772 110.155273,56.0538785 110.155273,55.0942383 C110.155273,54.1095328 110.392494,53.3486355 110.866943,52.8115234 C111.341392,52.2744114 112.017248,52.0058594 112.894531,52.0058594 C113.17741,52.0058594 113.460285,52.0362953 113.743164,52.097168 C114.026043,52.1580407 114.248046,52.2296545 114.40918,52.3120117 L114.135254,53.0693359 C113.938313,52.9905595 113.723471,52.9252118 113.490723,52.873291 C113.257974,52.8213702 113.052084,52.7954102 112.873047,52.7954102 C111.677077,52.7954102 111.079102,53.5580978 111.079102,55.0834961 C111.079102,55.806807 111.225015,56.3618145 111.516846,56.7485352 C111.808677,57.1352558 112.241045,57.3286133 112.813965,57.3286133 C113.304527,57.3286133 113.807615,57.2229828 114.323242,57.0117188 L114.323242,57.8012695 C113.92936,58.0053721 113.433434,58.1074219 112.835449,58.1074219 Z M116.600586,54.9868164 C116.754558,54.7683908 116.989093,54.4819354 117.304199,54.1274414 L119.205566,52.1132812 L120.263672,52.1132812 L117.878906,54.621582 L120.430176,58 L119.350586,58 L117.271973,55.2177734 L116.600586,55.7978516 L116.600586,58 L115.719727,58 L115.719727,49.6425781 L116.600586,49.6425781 L116.600586,54.0737305 C116.600586,54.2706716 116.586263,54.5750305 116.557617,54.9868164 L116.600586,54.9868164 Z M128.148438,56.394043 C128.148438,56.9418973 127.944338,57.3644191 127.536133,57.6616211 C127.127928,57.9588231 126.555017,58.1074219 125.817383,58.1074219 C125.03678,58.1074219 124.428062,57.983888 123.991211,57.7368164 L123.991211,56.909668 C124.27409,57.0528979 124.577554,57.1656897 124.901611,57.2480469 C125.225669,57.3304041 125.538084,57.371582 125.838867,57.371582 C126.304364,57.371582 126.662434,57.2972826 126.913086,57.1486816 C127.163738,57.0000806 127.289062,56.7736018 127.289062,56.4692383 C127.289062,56.2400705 127.189698,56.0440275 126.990967,55.8811035 C126.792235,55.7181795 126.404625,55.5257173 125.828125,55.3037109 C125.280271,55.0996084 124.89087,54.9214689 124.659912,54.7692871 C124.428954,54.6171054 124.257081,54.4443369 124.144287,54.2509766 C124.031494,54.0576162 123.975098,53.8266615 123.975098,53.5581055 C123.975098,53.0782854 124.170245,52.699627 124.560547,52.4221191 C124.950848,52.1446112 125.486162,52.0058594 126.166504,52.0058594 C126.800296,52.0058594 127.419756,52.1347643 128.024902,52.3925781 L127.708008,53.1176758 C127.117185,52.874185 126.581871,52.7524414 126.102051,52.7524414 C125.679523,52.7524414 125.360841,52.8186842 125.145996,52.9511719 C124.931151,53.0836595 124.82373,53.2662749 124.82373,53.4990234 C124.82373,53.6565763 124.864013,53.7908523 124.94458,53.9018555 C125.025147,54.0128586 125.154947,54.1184891 125.333984,54.21875 C125.513022,54.3190109 125.856768,54.464029 126.365234,54.6538086 C127.06348,54.9080416 127.535236,55.1640612 127.780518,55.421875 C128.025799,55.6796888 128.148438,56.0037415 128.148438,56.394043 Z M134.679688,55.0512695 C134.679688,56.0109097 134.437991,56.7601698 133.95459,57.2990723 C133.471189,57.8379747 132.80339,58.1074219 131.951172,58.1074219 C131.424802,58.1074219 130.957522,57.983888 130.549316,57.7368164 C130.141111,57.4897449 129.82601,57.1352562 129.604004,56.6733398 C129.381998,56.2114235 129.270996,55.6707388 129.270996,55.0512695 C129.270996,54.0916293 129.510903,53.3441596 129.990723,52.8088379 C130.470543,52.2735162 131.136552,52.0058594 131.98877,52.0058594 C132.812341,52.0058594 133.466713,52.2797824 133.951904,52.8276367 C134.437096,53.375491 134.679688,54.1166945 134.679688,55.0512695 Z M130.194824,55.0512695 C130.194824,55.8032264 130.345213,56.3761374 130.645996,56.7700195 C130.946779,57.1639017 131.388994,57.3608398 131.972656,57.3608398 C132.556318,57.3608398 132.999429,57.1647969 133.302002,56.7727051 C133.604575,56.3806133 133.755859,55.8068072 133.755859,55.0512695 C133.755859,54.3028934 133.604575,53.7344583 133.302002,53.3459473 C132.999429,52.9574362 132.552737,52.7631836 131.961914,52.7631836 C131.378252,52.7631836 130.937827,52.9547507 130.640625,53.3378906 C130.343423,53.7210306 130.194824,54.2921512 130.194824,55.0512695 Z M141.32373,55.0512695 C141.32373,56.0109097 141.082034,56.7601698 140.598633,57.2990723 C140.115232,57.8379747 139.447433,58.1074219 138.595215,58.1074219 C138.068845,58.1074219 137.601565,57.983888 137.193359,57.7368164 C136.785154,57.4897449 136.470053,57.1352562 136.248047,56.6733398 C136.026041,56.2114235 135.915039,55.6707388 135.915039,55.0512695 C135.915039,54.0916293 136.154946,53.3441596 136.634766,52.8088379 C137.114586,52.2735162 137.780595,52.0058594 138.632812,52.0058594 C139.456384,52.0058594 140.110756,52.2797824 140.595947,52.8276367 C141.081138,53.375491 141.32373,54.1166945 141.32373,55.0512695 Z M136.838867,55.0512695 C136.838867,55.8032264 136.989256,56.3761374 137.290039,56.7700195 C137.590822,57.1639017 138.033037,57.3608398 138.616699,57.3608398 C139.200361,57.3608398 139.643472,57.1647969 139.946045,56.7727051 C140.248618,56.3806133 140.399902,55.8068072 140.399902,55.0512695 C140.399902,54.3028934 140.248618,53.7344583 139.946045,53.3459473 C139.643472,52.9574362 139.19678,52.7631836 138.605957,52.7631836 C138.022295,52.7631836 137.58187,52.9547507 137.284668,53.3378906 C136.987466,53.7210306 136.838867,54.2921512 136.838867,55.0512695 Z M146.915039,58 L146.915039,54.1918945 C146.915039,53.7120744 146.805828,53.3540051 146.587402,53.1176758 C146.368977,52.8813465 146.027021,52.7631836 145.561523,52.7631836 C144.945635,52.7631836 144.494468,52.9296858 144.208008,53.2626953 C143.921548,53.5957048 143.77832,54.1453412 143.77832,54.9116211 L143.77832,58 L142.886719,58 L142.886719,52.1132812 L143.611816,52.1132812 L143.756836,52.9189453 L143.799805,52.9189453 C143.982423,52.6289048 144.238442,52.4042163 144.567871,52.244873 C144.8973,52.0855298 145.264321,52.0058594 145.668945,52.0058594 C146.377933,52.0058594 146.911457,52.1768375 147.269531,52.5187988 C147.627606,52.8607602 147.806641,53.4077111 147.806641,54.159668 L147.806641,58 L146.915039,58 Z M149.509277,57.4306641 C149.509277,57.190754 149.563883,57.0090338 149.673096,56.885498 C149.782308,56.7619623 149.938964,56.7001953 150.143066,56.7001953 C150.35075,56.7001953 150.512776,56.7619623 150.62915,56.885498 C150.745525,57.0090338 150.803711,57.190754 150.803711,57.4306641 C150.803711,57.6634126 150.744629,57.8424473 150.626465,57.9677734 C150.5083,58.0930996 150.347169,58.1557617 150.143066,58.1557617 C149.960448,58.1557617 149.809164,58.0993658 149.689209,57.9865723 C149.569254,57.8737787 149.509277,57.6884779 149.509277,57.4306641 Z M152.355957,57.4306641 C152.355957,57.190754 152.410563,57.0090338 152.519775,56.885498 C152.628988,56.7619623 152.785644,56.7001953 152.989746,56.7001953 C153.197429,56.7001953 153.359456,56.7619623 153.47583,56.885498 C153.592204,57.0090338 153.650391,57.190754 153.650391,57.4306641 C153.650391,57.6634126 153.591309,57.8424473 153.473145,57.9677734 C153.35498,58.0930996 153.193849,58.1557617 152.989746,58.1557617 C152.807128,58.1557617 152.655844,58.0993658 152.535889,57.9865723 C152.415934,57.8737787 152.355957,57.6884779 152.355957,57.4306641 Z M155.208008,57.4306641 C155.208008,57.190754 155.262613,57.0090338 155.371826,56.885498 C155.481039,56.7619623 155.637694,56.7001953 155.841797,56.7001953 C156.04948,56.7001953 156.211507,56.7619623 156.327881,56.885498 C156.444255,57.0090338 156.502441,57.190754 156.502441,57.4306641 C156.502441,57.6634126 156.44336,57.8424473 156.325195,57.9677734 C156.207031,58.0930996 156.045899,58.1557617 155.841797,58.1557617 C155.659179,58.1557617 155.507894,58.0993658 155.387939,57.9865723 C155.267984,57.8737787 155.208008,57.6884779 155.208008,57.4306641 Z" id="Please-check-back-so" fill="#00B0CE"></path>
        </g>
        <g id="20190128_logo_mark" transform="translate(359.000000, 67.000000)">
            <path d="M20.264333,90.4719576 C20.264333,90.6697491 20.2535438,90.8755593 20.2319652,91.0893881 C20.2103866,91.3032168 20.1861107,91.5223913 20.1564402,91.7495843 L10.227597,91.7495843 C10.3424535,92.106993 10.5048203,92.4476572 10.7104177,92.762598 C10.9172731,93.0791898 11.1751455,93.360006 11.4737599,93.5938573 C12.1244848,94.0957019 12.9285162,94.3625389 13.7529972,94.3502765 C14.3246598,94.3484013 14.8918919,94.2508041 15.4307316,94.0616077 C15.9440411,93.8951745 16.4195873,93.630957 16.8306418,93.2838056 L18.7862005,95.2243015 C18.0255428,95.8119862 17.1713834,96.2699705 16.2588095,96.5794412 C15.4144897,96.8445929 14.5334937,96.9771672 13.6478016,96.9723515 C12.7505706,96.9803617 11.861148,96.8066372 11.0340964,96.4618354 C10.2520764,96.1356113 9.53988937,95.6648236 8.93557965,95.0746214 C8.33564162,94.4852926 7.85658488,93.7863858 7.52488012,93.0165197 C6.47252106,90.5865933 7.0326404,87.7657619 8.93557965,85.9120595 C9.54473388,85.324007 10.2591279,84.8535744 11.0421883,84.5248455 C11.8595731,84.1827225 12.7389424,84.0098991 13.626223,84.0170022 C14.4874272,84.0149687 15.3409577,84.1774111 16.1401273,84.495444 C16.9276959,84.8065394 17.6502087,85.2596787 18.2710119,85.8318737 C19.566806,87.0302917 20.2908558,88.7157459 20.264333,90.4719576 Z M17.0275464,89.2771894 C16.8063192,88.5285656 16.3511127,87.8687937 15.727437,87.3928236 C15.1209472,86.9263918 14.3722751,86.6784693 13.6046444,86.6898616 C12.8468757,86.6842974 12.1100562,86.9361664 11.516917,87.403515 C10.8987353,87.8824605 10.447783,88.5415359 10.227597,89.2878809 L17.0275464,89.2771894 Z M34.3713283,102 L31.2694078,102 L31.2694078,96.0448693 C30.8793222,96.3648583 30.4305415,96.6071802 29.9477199,96.7585228 C29.4564964,96.9073335 28.9454873,96.9821183 28.4318248,96.9803701 C27.5994637,96.9895013 26.7758693,96.8112881 26.023116,96.4591625 C25.3059791,96.1190738 24.6641787,95.6411805 24.1349905,95.0532385 C23.5974172,94.4494506 23.1784355,93.7514375 22.8996169,92.9951368 C22.6034246,92.2049713 22.4535694,91.3683227 22.457256,90.5254147 C22.4468487,89.6406204 22.6184723,88.7630016 22.9616553,87.9461055 C23.2811039,87.1844767 23.7381457,86.4870156 24.3103164,85.8880037 C24.8559753,85.3142757 25.5056263,84.8473237 26.2254152,84.5114812 C26.9165669,84.1828457 27.6733153,84.0120436 28.4399167,84.0116565 C28.963526,84.0112677 29.4846321,84.083237 29.9881797,84.2254852 C30.4467173,84.3482415 30.8802417,84.5490196 31.2694078,84.81886 L31.2694078,84.3083439 L34.3659337,84.3083439 L34.3713283,102 Z M31.2909863,93.37201 L31.2909863,87.4676636 C30.9672336,87.225792 30.6015773,87.044622 30.2120575,86.9330918 C29.8430384,86.8102021 29.4575619,86.7426348 29.0683928,86.7326273 C28.5831224,86.7275361 28.1017008,86.8184039 27.6522986,86.9999132 C27.2323876,87.175428 26.8546129,87.4368344 26.5436992,87.7670239 C26.2177352,88.1147901 25.9671265,88.5250445 25.8073302,88.9724835 C25.6245773,89.4783489 25.5332687,90.0121837 25.537598,90.5494705 C25.5362667,91.0621297 25.6276202,91.5708799 25.8073302,92.0516174 C25.9677523,92.4900218 26.2102633,92.8944706 26.5221206,93.2437127 C26.8209174,93.5770841 27.1889855,93.8424252 27.6010495,94.0215148 C28.8509824,94.5595057 30.3044969,94.3036572 31.2909863,93.37201 Z M48.6563469,96.6542813 L45.559821,96.6542813 L45.559821,95.7161076 C45.3513672,95.9198427 45.1164279,96.0951232 44.8612145,96.2373152 C44.3201876,96.5423371 43.7310919,96.7546931 43.1187443,96.8654372 C42.8317359,96.9213212 42.5400042,96.9499613 42.2475093,96.9509687 C41.6299441,96.9531198 41.01637,96.8528389 40.4322114,96.6542813 C39.859834,96.4603447 39.3357124,96.1478127 38.8947377,95.7374905 C38.424355,95.2875094 38.0604797,94.7398002 37.8292954,94.1337749 C37.5483576,93.3917434 37.4128674,92.6034113 37.4300918,91.8110601 L37.4300918,84.3270539 L40.5266177,84.3270539 L40.5266177,91.6560343 C40.5195223,92.0530051 40.5891043,92.4476581 40.7316142,92.8187281 C40.8541237,93.1284739 41.0374921,93.4110258 41.2710786,93.6499873 C41.4907266,93.8661715 41.7547456,94.0329913 42.0452101,94.1391206 C42.3380102,94.245845 42.6476232,94.3001468 42.9596023,94.2994922 C43.9296616,94.3124785 44.865469,93.9444333 45.5625183,93.275787 L45.5625183,84.3350725 L48.6590442,84.3350725 L48.6563469,96.6542813 Z M62,96.6542813 L58.9034741,96.6542813 L58.9034741,95.9914121 C58.3787682,96.3504717 57.7917168,96.6105273 57.1717932,96.7585228 C56.552802,96.901174 55.9191738,96.972035 55.2836676,96.9696787 C54.7271721,96.9767118 54.1738017,96.8862248 53.6490904,96.7023927 C53.1776717,96.5343423 52.7454989,96.2733896 52.3786516,95.9352821 C52.0216916,95.6026654 51.7395268,95.1991953 51.5505737,94.7512054 C51.3536597,94.2710037 51.2555353,93.7566604 51.2619602,93.238367 C51.2469698,92.6006343 51.4063458,91.9707592 51.7232023,91.4154769 C52.0361264,90.8918213 52.467296,90.4471789 52.9828518,90.1164673 C53.5519806,89.7520837 54.1808919,89.4888712 54.8413068,89.3386652 C55.5911538,89.1593539 56.3599637,89.0696204 57.1313334,89.0713792 L58.9169607,89.0713792 C58.9474229,88.4213733 58.6880158,87.7909545 58.2075649,87.347385 C57.7355335,86.9197275 57.053111,86.7085716 56.165692,86.7085716 C55.7107366,86.712575 55.259585,86.7911492 54.8305175,86.9411103 C54.3188067,87.130826 53.8509425,87.4208164 53.4548832,87.7937525 L51.6260987,85.9601709 C52.2884572,85.336006 53.0659698,84.844145 53.9161253,84.5114812 C54.7682328,84.1746815 55.6771749,84.0014354 56.5945662,84.000965 C57.3797316,83.9870317 58.1601744,84.1240951 58.8926848,84.4045668 C60.1970202,84.9042221 61.2112632,85.9503687 61.6628347,87.2618535 C61.9040001,88.0927796 62.0149843,88.9554733 61.991908,89.8197799 L62,96.6542813 Z M58.9034741,93.5858387 L58.9034741,91.3058897 L57.4873799,91.3058897 C57.0802639,91.3032872 56.6735542,91.331883 56.2708876,91.3914212 C55.9291816,91.4370565 55.5963696,91.5334716 55.2836676,91.6774171 C55.0221873,91.8022877 54.7932804,91.9852158 54.6147317,92.211989 C54.4483905,92.4331683 54.3619387,92.7033512 54.3692754,92.9790996 C54.3596486,93.3872266 54.5470131,93.7754356 54.8736747,94.0241877 C55.2466504,94.3063887 55.7076335,94.4501443 56.1764813,94.4304623 C56.6398166,94.4291257 57.1001736,94.3570021 57.5413263,94.2166335 C58.018348,94.0578398 58.4753908,93.8452918 58.9034741,93.5831659 L58.9034741,93.5858387 Z" id="equa" fill="#3C4951"></path>
            <path d="M52.9003234,37.1975173 C53.6827537,31.8469373 52.0995947,26.420567 48.5628259,22.3304905 C45.026057,18.240414 39.8854531,15.8911262 34.4787341,15.8939734 L15.5573961,15.8939734 C24.5350912,6.76350557 38.7489665,5.34100927 49.3575392,12.5113225 C59.9661118,19.6816358 63.9476608,33.4023833 58.8255358,45.1388234 L34.5,45.1388234 C31.2006246,45.1384987 28.0875582,43.6093708 26.070267,40.9981666 C24.0529758,38.3869624 23.3591004,34.9883424 24.1913531,31.7951959 L16.0970184,31.7951959 C15.3150583,37.1425611 16.895832,42.5657966 20.4284318,46.6551827 C23.9610317,50.7445688 29.0965295,53.0961811 34.5,53.0987398 L63.5598577,53.0987398 C72.7964747,38.659883 70.0343095,19.6285762 57.0741508,8.41224694 C44.1139921,-2.80408231 24.8860079,-2.80408231 11.9258492,8.41224694 C-1.03430949,19.6285762 -3.79647474,38.659883 5.44014231,53.0987398 C7.36332431,56.0934866 9.73459966,58.7753434 12.4711818,61.0506804 C18.6568582,66.198611 26.4528905,69.011874 34.5,68.9999623 L34.5797471,68.9999623 C42.5994597,68.9932249 50.3641999,66.1810736 56.5288182,61.0506804 L34.4654429,61.0506804 C25.5114369,61.0354309 17.1678758,56.5087264 12.2726458,49.0102297 C7.37741576,41.5117331 6.58958684,32.0510056 10.1771224,23.845914 L34.4601264,23.845914 C37.7679863,23.8346413 40.8934452,25.3606719 42.9191646,27.9761078 C44.944884,30.5915437 45.6410486,33.9996671 44.8033304,37.2001759 L52.9003234,37.1975173 Z" id="Path" fill="url(#linearGradient-12)"></path>
        </g>
    </g>
</svg>