<svg xmlns="http://www.w3.org/2000/svg" viewBox="0 0 696.67 695.15"><defs><style>.cls-1{opacity:0.82;}.cls-2{opacity:0.13;}.cls-3{fill:#001b40;}.cls-4{opacity:0.14;}</style></defs><title>circle_collection</title><g id="Layer_2" data-name="Layer 2"><g id="circle_rings"><g id="circle_collection" class="cls-1"><g class="cls-2"><path class="cls-3" d="M356.07,465.63a2.87,2.87,0,0,1-.19-5.73l.94-.07a2.87,2.87,0,0,1,.42,5.73l-1,.06Zm-16.29-.06h-.21l-1-.08a2.87,2.87,0,0,1,.47-5.72l.93.08a2.86,2.86,0,0,1-.2,5.72Zm33.36-2.36a2.87,2.87,0,0,1-.6-5.67l.91-.2a2.87,2.87,0,0,1,1.27,5.59l-1,.22A3.26,3.26,0,0,1,373.14,463.21ZM322.72,463a2.79,2.79,0,0,1-.64-.07l-1-.22a2.87,2.87,0,0,1,1.31-5.58l.92.21a2.87,2.87,0,0,1-.63,5.66Zm66.95-4.76a2.87,2.87,0,0,1-1-5.55l.88-.34a2.87,2.87,0,1,1,2.09,5.34l-.91.35A2.86,2.86,0,0,1,389.67,458.27ZM306.21,458a2.79,2.79,0,0,1-1-.2l-.91-.36a2.87,2.87,0,1,1,2.14-5.32l.87.35a2.86,2.86,0,0,1-1.05,5.53Zm99.05-7.06a2.87,2.87,0,0,1-1.41-5.37c.27-.15.54-.3.8-.46a2.87,2.87,0,0,1,2.88,5l-.86.49A2.89,2.89,0,0,1,405.26,450.9Zm-114.6-.43a2.75,2.75,0,0,1-1.43-.39l-.86-.49a2.87,2.87,0,0,1,2.92-4.94l.81.47a2.87,2.87,0,0,1-1.44,5.35Zm128.92-9.18a2.87,2.87,0,0,1-1.78-5.12l.74-.58a2.87,2.87,0,1,1,3.58,4.48l-.77.6A2.81,2.81,0,0,1,419.58,441.29Zm-143.18-.55a2.86,2.86,0,0,1-1.79-.62l-.75-.61a2.87,2.87,0,1,1,3.6-4.47l.73.59a2.87,2.87,0,0,1-1.79,5.11Zm155.91-11.08a2.87,2.87,0,0,1-2.08-4.84l.64-.68a2.87,2.87,0,0,1,4.2,3.9l-.67.72A2.84,2.84,0,0,1,432.31,429.66ZM263.75,429a2.85,2.85,0,0,1-2.1-.91l-.66-.72a2.87,2.87,0,1,1,4.22-3.88l.64.7a2.86,2.86,0,0,1-2.1,4.81Zm179.44-12.75a2.86,2.86,0,0,1-2.35-4.5l.53-.77a2.86,2.86,0,1,1,4.73,3.23l-.56.81A2.85,2.85,0,0,1,443.19,416.26ZM253,415.54a2.83,2.83,0,0,1-2.36-1.25l-.56-.81a2.87,2.87,0,1,1,4.77-3.19l.52.77a2.87,2.87,0,0,1-2.37,4.48ZM452,401.4a2.88,2.88,0,0,1-2.57-4.14l.42-.84a2.86,2.86,0,1,1,5.16,2.49l-.43.89A2.88,2.88,0,0,1,452,401.4Zm-207.61-.77a2.86,2.86,0,0,1-2.58-1.62l-.43-.89a2.87,2.87,0,0,1,5.19-2.45l.4.84a2.87,2.87,0,0,1-1.33,3.83A3,3,0,0,1,244.34,400.63ZM458.4,385.38a2.91,2.91,0,0,1-.87-.13,2.86,2.86,0,0,1-1.86-3.6l.28-.9a2.87,2.87,0,0,1,5.48,1.69l-.3.94A2.86,2.86,0,0,1,458.4,385.38ZM238,384.58a2.86,2.86,0,0,1-2.74-2l-.29-.95a2.87,2.87,0,0,1,5.5-1.64l.27.89a2.87,2.87,0,0,1-1.9,3.59A2.72,2.72,0,0,1,238,384.58Zm224.35-16a2.28,2.28,0,0,1-.45,0,2.86,2.86,0,0,1-2.39-3.28l.14-.92a2.87,2.87,0,0,1,5.68.85l-.15,1A2.88,2.88,0,0,1,462.37,368.59Zm-228.2-.83a2.87,2.87,0,0,1-2.83-2.44l-.14-1a2.87,2.87,0,1,1,5.68-.81l.13.93a2.87,2.87,0,0,1-2.41,3.26A3,3,0,0,1,234.17,367.76ZM463.78,351.4h0a2.87,2.87,0,0,1-2.85-2.89v-1.18a2.87,2.87,0,0,1,5.74,0v1.22A2.88,2.88,0,0,1,463.78,351.4Zm-230.89-.84a2.86,2.86,0,0,1-2.87-2.87v-1a2.87,2.87,0,0,1,2.87-2.85h0a2.88,2.88,0,0,1,2.85,2.89v.94A2.86,2.86,0,0,1,232.89,350.56ZM462.61,334a2.87,2.87,0,0,1-2.83-2.47l-.14-.92a2.87,2.87,0,0,1,5.67-.86l.14,1a2.87,2.87,0,0,1-2.43,3.25A2.83,2.83,0,0,1,462.61,334Zm-228.46-.59a2.09,2.09,0,0,1-.43,0,2.85,2.85,0,0,1-2.41-3.25l.14-1a2.87,2.87,0,0,1,5.67.88l-.14.93A2.88,2.88,0,0,1,234.15,333.36ZM458.9,317.1a2.87,2.87,0,0,1-2.75-2l-.27-.89a2.86,2.86,0,1,1,5.47-1.7l.29.94a2.86,2.86,0,0,1-1.92,3.57A2.91,2.91,0,0,1,458.9,317.1ZM238,316.53a2.72,2.72,0,0,1-.84-.13,2.86,2.86,0,0,1-1.9-3.58l.29-.94A2.87,2.87,0,0,1,241,313.6l-.28.9A2.87,2.87,0,0,1,238,316.53ZM452.7,301a2.89,2.89,0,0,1-2.6-1.64l-.4-.84a2.87,2.87,0,1,1,5.16-2.51l.42.88A2.87,2.87,0,0,1,452.7,301Zm-208.46-.56a2.86,2.86,0,0,1-2.58-4.11c.14-.3.28-.59.43-.89a2.87,2.87,0,1,1,5.14,2.54c-.13.28-.27.56-.41.84A2.86,2.86,0,0,1,244.24,300.45ZM444.16,286a2.87,2.87,0,0,1-2.38-1.27l-.53-.77a2.87,2.87,0,0,1,4.73-3.25l.56.82a2.87,2.87,0,0,1-2.38,4.47Zm-191.3-.53a2.92,2.92,0,0,1-1.61-.49,2.88,2.88,0,0,1-.76-4l.57-.81a2.86,2.86,0,1,1,4.7,3.27l-.52.77A2.89,2.89,0,0,1,252.86,285.5Zm180.63-13a2.86,2.86,0,0,1-2.12-.93l-.63-.69a2.87,2.87,0,0,1,4.19-3.91l.67.72a2.87,2.87,0,0,1-2.11,4.81ZM263.62,272a2.87,2.87,0,0,1-2.1-4.82l.66-.71a2.87,2.87,0,1,1,4.18,3.92l-.64.69A2.86,2.86,0,0,1,263.62,272Zm157.3-11.35a2.85,2.85,0,0,1-1.8-.64l-.73-.58a2.87,2.87,0,0,1,3.56-4.5l.77.62a2.87,2.87,0,0,1-1.8,5.1Zm-144.67-.4a2.87,2.87,0,0,1-1.8-5.11l.78-.61a2.87,2.87,0,0,1,3.54,4.51l-.73.58A2.88,2.88,0,0,1,276.25,260.26Zm130.48-9.43a2.86,2.86,0,0,1-1.45-.4l-.8-.47a2.86,2.86,0,1,1,2.85-5l.86.5a2.87,2.87,0,0,1-1.46,5.34Zm-116.25-.32a2.87,2.87,0,0,1-1.44-5.35l.85-.48a2.86,2.86,0,1,1,2.83,5l-.81.47A2.84,2.84,0,0,1,290.48,250.51Zm100.76-7.28a2.87,2.87,0,0,1-1.07-.21l-.87-.34a2.87,2.87,0,0,1,2.09-5.35l.92.37a2.87,2.87,0,0,1-1.07,5.53ZM306,243a2.86,2.86,0,0,1-1.05-5.53l.92-.36a2.86,2.86,0,1,1,2.05,5.35l-.86.34A2.84,2.84,0,0,1,306,243Zm68.79-5a3,3,0,0,1-.66-.07l-.91-.21a2.87,2.87,0,1,1,1.26-5.6l1,.22a2.87,2.87,0,0,1-.65,5.66Zm-52.31-.13a2.87,2.87,0,0,1-.64-5.66l1-.22a2.87,2.87,0,0,1,1.23,5.6l-.92.21A2.7,2.7,0,0,1,322.47,237.9Zm35.26-2.53h-.22l-.94-.07a2.87,2.87,0,1,1,.41-5.72l1,.07a2.87,2.87,0,0,1-.23,5.73Zm-18.21-.05a2.86,2.86,0,0,1-.21-5.72l1-.07a2.83,2.83,0,0,1,3,2.66,2.87,2.87,0,0,1-2.67,3.06l-.93.06Z"/></g><g class="cls-2"><path class="cls-3" d="M358.85,508.2a3.9,3.9,0,0,1-.25-7.79l1.27-.09a3.9,3.9,0,1,1,.57,7.78l-1.32.1Zm-22.16-.07h-.29l-1.33-.11a3.9,3.9,0,1,1,.63-7.77l1.27.09a3.91,3.91,0,0,1-.28,7.8Zm45.4-3.21a3.91,3.91,0,0,1-.83-7.72l1.24-.27a3.9,3.9,0,0,1,1.74,7.6l-1.31.3A4,4,0,0,1,382.09,504.92Zm-68.61-.25a3.69,3.69,0,0,1-.87-.1l-1.3-.3a3.9,3.9,0,1,1,1.78-7.59l1.25.28a3.9,3.9,0,0,1-.86,7.71Zm91.1-6.49a3.9,3.9,0,0,1-1.4-7.54l1.19-.46a3.9,3.9,0,1,1,2.85,7.26l-1.24.48A3.81,3.81,0,0,1,404.58,498.18ZM291,497.77a4,4,0,0,1-1.43-.27l-1.24-.5a3.9,3.9,0,1,1,2.91-7.24l1.19.48a3.9,3.9,0,0,1-1.43,7.53Zm134.77-9.61a3.9,3.9,0,0,1-1.92-7.3l1.09-.63a3.9,3.9,0,0,1,3.91,6.76c-.39.22-.77.45-1.16.66A3.84,3.84,0,0,1,425.79,488.16Zm-155.93-.58a3.84,3.84,0,0,1-1.95-.53l-1.16-.67a3.9,3.9,0,0,1,4-6.73l1.1.65a3.9,3.9,0,0,1-1.95,7.28Zm175.41-12.49a3.9,3.9,0,0,1-2.42-7l1-.79a3.9,3.9,0,1,1,4.88,6.09l-1.05.83A3.88,3.88,0,0,1,445.27,475.09Zm-194.81-.75a3.91,3.91,0,0,1-2.43-.85l-1-.83a3.9,3.9,0,1,1,4.9-6.07l1,.8a3.9,3.9,0,0,1-2.44,6.95ZM462.6,459.26a3.91,3.91,0,0,1-2.84-6.58l.87-.93a3.9,3.9,0,0,1,5.72,5.31l-.91,1A3.92,3.92,0,0,1,462.6,459.26Zm-229.35-.88a3.91,3.91,0,0,1-2.86-1.24l-.9-1a3.9,3.9,0,0,1,5.75-5.28l.87.95a3.9,3.9,0,0,1-2.86,6.55ZM477.39,441a3.89,3.89,0,0,1-3.2-6.12l.73-1.06a3.9,3.9,0,0,1,6.44,4.41l-.76,1.1A3.89,3.89,0,0,1,477.39,441Zm-258.79-1a3.88,3.88,0,0,1-3.22-1.69l-.76-1.11a3.9,3.9,0,1,1,6.48-4.35l.72,1.05a3.9,3.9,0,0,1-3.22,6.1Zm270.72-19.24a3.78,3.78,0,0,1-1.72-.41,3.89,3.89,0,0,1-1.78-5.22l.57-1.15a3.9,3.9,0,1,1,7,3.4l-.59,1.2A3.9,3.9,0,0,1,489.32,420.81Zm-282.48-1.05a3.91,3.91,0,0,1-3.52-2.2l-.58-1.21A3.9,3.9,0,1,1,209.8,413l.55,1.14a3.91,3.91,0,0,1-3.51,5.6ZM498.09,399a3.73,3.73,0,0,1-1.18-.19,3.9,3.9,0,0,1-2.54-4.89l.38-1.23a3.9,3.9,0,0,1,7.46,2.3l-.4,1.28A3.9,3.9,0,0,1,498.09,399Zm-299.86-1.1a3.9,3.9,0,0,1-3.72-2.75l-.39-1.28a3.9,3.9,0,1,1,7.47-2.24l.37,1.22a3.89,3.89,0,0,1-3.73,5.05Zm305.26-21.75a4.44,4.44,0,0,1-.62-.05,3.91,3.91,0,0,1-3.24-4.46l.19-1.26a3.9,3.9,0,0,1,7.72,1.15l-.2,1.33A3.9,3.9,0,0,1,503.49,376.17ZM193,375a3.91,3.91,0,0,1-3.86-3.32L189,370.4a3.9,3.9,0,1,1,7.72-1.11l.19,1.27a3.91,3.91,0,0,1-3.28,4.44A3.86,3.86,0,0,1,193,375Zm312.4-22.26h0a3.91,3.91,0,0,1-3.87-3.93v-1.61a3.91,3.91,0,0,1,7.81,0v1.66A3.9,3.9,0,0,1,505.41,352.78Zm-314.16-1.14a3.91,3.91,0,0,1-3.9-3.91V346.4a3.89,3.89,0,0,1,3.9-3.87h0a3.9,3.9,0,0,1,3.88,3.93v1.27A3.91,3.91,0,0,1,191.25,351.64ZM503.82,329a3.9,3.9,0,0,1-3.86-3.35l-.18-1.25a3.9,3.9,0,1,1,7.71-1.18l.2,1.33a3.9,3.9,0,0,1-3.31,4.41A3.6,3.6,0,0,1,503.82,329ZM193,328.23a5.65,5.65,0,0,1-.58,0,3.91,3.91,0,0,1-3.29-4.44l.2-1.32a3.9,3.9,0,0,1,7.71,1.21l-.19,1.26A3.9,3.9,0,0,1,193,328.23Zm305.8-22.12a3.9,3.9,0,0,1-3.74-2.77l-.37-1.22a3.9,3.9,0,0,1,7.45-2.31l.39,1.27a3.89,3.89,0,0,1-3.73,5Zm-300.63-.77a3.92,3.92,0,0,1-3.73-5l.4-1.28a3.9,3.9,0,0,1,7.44,2.34l-.38,1.23A3.91,3.91,0,0,1,198.14,305.34Zm292.19-21.13A3.9,3.9,0,0,1,486.8,282l-.54-1.14a3.9,3.9,0,0,1,7-3.41l.57,1.2a3.89,3.89,0,0,1-1.85,5.2A3.84,3.84,0,0,1,490.33,284.21Zm-283.63-.75a3.8,3.8,0,0,1-1.69-.39,3.9,3.9,0,0,1-1.83-5.2c.2-.41.4-.81.59-1.22a3.9,3.9,0,1,1,7,3.46l-.55,1.14A3.9,3.9,0,0,1,206.7,283.46Zm272-19.63a3.88,3.88,0,0,1-3.24-1.72l-.72-1.05a3.91,3.91,0,0,1,6.44-4.42l.75,1.11a3.91,3.91,0,0,1-1.06,5.42A3.86,3.86,0,0,1,478.72,263.83Zm-260.28-.71a3.85,3.85,0,0,1-2.19-.68,3.9,3.9,0,0,1-1-5.42l.77-1.11a3.9,3.9,0,1,1,6.4,4.46c-.24.34-.48.69-.71,1A3.92,3.92,0,0,1,218.44,263.12ZM464.19,245.4a3.89,3.89,0,0,1-2.87-1.27l-.87-.94a3.9,3.9,0,0,1,5.71-5.31l.91,1a3.91,3.91,0,0,1-2.88,6.54Zm-231.12-.64a3.91,3.91,0,0,1-2.86-6.56l.9-1a3.9,3.9,0,1,1,5.69,5.34l-.87.94A3.9,3.9,0,0,1,233.07,244.76Zm214-15.45a3.87,3.87,0,0,1-2.44-.86l-1-.8a3.9,3.9,0,1,1,4.85-6.11l1.05.83a3.9,3.9,0,0,1-2.46,6.94Zm-196.84-.54a3.91,3.91,0,0,1-2.44-7l1.05-.83a3.9,3.9,0,0,1,4.82,6.14c-.33.25-.66.52-1,.78A3.87,3.87,0,0,1,250.25,228.77Zm177.54-12.83a3.83,3.83,0,0,1-2-.54l-1.1-.64a3.9,3.9,0,1,1,3.89-6.76l1.16.68a3.9,3.9,0,0,1-2,7.26Zm-158.18-.43a3.9,3.9,0,0,1-1.95-7.28l1.15-.66a3.9,3.9,0,1,1,3.86,6.78l-1.11.64A3.9,3.9,0,0,1,269.61,215.51Zm137.1-9.91a3.93,3.93,0,0,1-1.45-.28l-1.18-.47a3.9,3.9,0,1,1,2.83-7.27l1.26.49a3.91,3.91,0,0,1-1.46,7.53Zm-116-.31a3.9,3.9,0,0,1-1.44-7.53l1.26-.49a3.9,3.9,0,0,1,2.79,7.29l-1.17.46A3.87,3.87,0,0,1,290.72,205.29Zm93.59-6.76a3.92,3.92,0,0,1-.89-.1l-1.24-.29a3.9,3.9,0,1,1,1.71-7.61l1.31.3a3.9,3.9,0,0,1-.89,7.7Zm-71.17-.18a3.9,3.9,0,0,1-.87-7.71l1.3-.29a3.9,3.9,0,0,1,1.69,7.62l-1.25.28A3.81,3.81,0,0,1,313.14,198.35Zm48-3.45h-.31l-1.28-.1a3.9,3.9,0,0,1,.57-7.78l1.33.1a3.9,3.9,0,0,1-.31,7.79Zm-24.78-.06a3.9,3.9,0,0,1-.29-7.79l1.34-.1a3.9,3.9,0,0,1,.52,7.79l-1.27.09Z"/></g><g class="cls-2"><path class="cls-3" d="M362.23,559.71a5.16,5.16,0,0,1-.34-10.3l1.68-.11a5.15,5.15,0,1,1,.76,10.27l-1.75.13Zm-29.27-.1-.38,0-1.77-.13a5.16,5.16,0,0,1,.85-10.28l1.67.13a5.16,5.16,0,0,1-.37,10.3Zm60-4.24a5.16,5.16,0,0,1-1.1-10.19l1.64-.37a5.15,5.15,0,0,1,2.29,10.05l-1.73.39A5.22,5.22,0,0,1,392.92,555.37ZM302.3,555a5.07,5.07,0,0,1-1.15-.13l-1.71-.39a5.16,5.16,0,0,1,2.35-10l1.65.38A5.15,5.15,0,0,1,302.3,555Zm120.32-8.56a5.16,5.16,0,0,1-1.85-10l1.57-.61a5.15,5.15,0,1,1,3.76,9.59l-1.64.64A5,5,0,0,1,422.62,546.48Zm-150-.55a5.22,5.22,0,0,1-1.88-.36l-1.64-.65a5.16,5.16,0,0,1,3.84-9.57l1.57.63a5.15,5.15,0,0,1-1.89,9.95Zm178-12.69a5.15,5.15,0,0,1-2.54-9.64l1.44-.83a5.15,5.15,0,0,1,5.16,8.92l-1.53.88A5.18,5.18,0,0,1,450.63,533.24Zm-205.93-.77a5.23,5.23,0,0,1-2.58-.69l-1.53-.9a5.15,5.15,0,0,1,5.23-8.88l1.46.85a5.16,5.16,0,0,1-2.58,9.62ZM476.35,516a5.15,5.15,0,0,1-3.19-9.2l1.32-1a5.15,5.15,0,0,1,6.44,8l-1.38,1.1A5.17,5.17,0,0,1,476.35,516Zm-257.27-1a5.11,5.11,0,0,1-3.21-1.13l-1.37-1.09a5.15,5.15,0,0,1,6.47-8l1.33,1.06a5.15,5.15,0,0,1-3.22,9.18Zm280.16-19.92a5.16,5.16,0,0,1-3.75-8.69l1.15-1.23a5.15,5.15,0,0,1,7.55,7L503,493.45A5.11,5.11,0,0,1,499.24,495.07Zm-302.89-1.16a5.16,5.16,0,0,1-3.78-1.64L191.39,491a5.15,5.15,0,1,1,7.59-7l1.15,1.25a5.14,5.14,0,0,1-3.78,8.65ZM518.78,471a5.15,5.15,0,0,1-4.23-8.09l1-1.39a5.15,5.15,0,1,1,8.5,5.82l-1,1.45A5.13,5.13,0,0,1,518.78,471ZM177,469.71a5.16,5.16,0,0,1-4.26-2.25l-1-1.46a5.15,5.15,0,0,1,8.56-5.74l.94,1.38a5.15,5.15,0,0,1-4.25,8.07Zm357.53-25.42a5.15,5.15,0,0,1-4.62-7.44l.74-1.51a5.15,5.15,0,1,1,9.28,4.49l-.78,1.59A5.16,5.16,0,0,1,534.53,444.29ZM161.47,442.9a5.16,5.16,0,0,1-4.65-2.91l-.76-1.59a5.15,5.15,0,0,1,9.32-4.4l.72,1.51a5.14,5.14,0,0,1-4.63,7.39Zm384.64-27.39a5.28,5.28,0,0,1-1.56-.24,5.15,5.15,0,0,1-3.35-6.47l.5-1.61a5.15,5.15,0,1,1,9.85,3l-.53,1.69A5.15,5.15,0,0,1,546.11,415.51Zm-396-1.44a5.16,5.16,0,0,1-4.93-3.63l-.51-1.7a5.15,5.15,0,1,1,9.87-2.95l.49,1.6a5.16,5.16,0,0,1-3.4,6.45A5.39,5.39,0,0,1,150.11,414.07Zm403.13-28.73a4.43,4.43,0,0,1-.81-.07,5.15,5.15,0,0,1-4.29-5.89l.26-1.66a5.15,5.15,0,1,1,10.19,1.52l-.27,1.75A5.15,5.15,0,0,1,553.24,385.34Zm-410-1.49a5.16,5.16,0,0,1-5.09-4.39l-.25-1.74a5.15,5.15,0,1,1,10.2-1.46l.24,1.67a5.15,5.15,0,0,1-4.33,5.86A5,5,0,0,1,143.2,383.85Zm412.58-29.4h0a5.16,5.16,0,0,1-5.12-5.19v-2.13a5.15,5.15,0,0,1,10.3,0v2.2A5.16,5.16,0,0,1,555.78,354.45Zm-414.89-1.51a5.16,5.16,0,0,1-5.16-5.16V346a5.15,5.15,0,0,1,5.15-5.12h0a5.16,5.16,0,0,1,5.12,5.19v1.68A5.16,5.16,0,0,1,140.89,352.94Zm412.79-29.85a5.16,5.16,0,0,1-5.1-4.43l-.24-1.65a5.15,5.15,0,0,1,10.18-1.56l.26,1.75a5.16,5.16,0,0,1-4.37,5.84A6.11,6.11,0,0,1,553.68,323.09ZM143.15,322a5.09,5.09,0,0,1-.77-.06,5.15,5.15,0,0,1-4.33-5.86l.26-1.74a5.15,5.15,0,0,1,10.18,1.6l-.25,1.66A5.16,5.16,0,0,1,143.15,322ZM547,292.82a5.16,5.16,0,0,1-4.93-3.66l-.49-1.61a5.15,5.15,0,0,1,9.84-3.06l.52,1.69a5.16,5.16,0,0,1-4.94,6.64Zm-397-1a5,5,0,0,1-1.51-.23,5.15,5.15,0,0,1-3.42-6.43l.53-1.7a5.15,5.15,0,0,1,9.83,3.1l-.5,1.62A5.15,5.15,0,0,1,150,291.79Zm385.88-27.9A5.15,5.15,0,0,1,531.2,261l-.72-1.51a5.15,5.15,0,0,1,9.27-4.5l.76,1.59a5.15,5.15,0,0,1-4.65,7.36Zm-374.58-1a5.07,5.07,0,0,1-2.22-.51,5.15,5.15,0,0,1-2.42-6.87l.78-1.61a5.16,5.16,0,0,1,9.25,4.57c-.25.5-.5,1-.74,1.5A5.15,5.15,0,0,1,161.28,262.9ZM520.52,237a5.16,5.16,0,0,1-4.28-2.28l-.94-1.38a5.15,5.15,0,1,1,8.5-5.83l1,1.46a5.15,5.15,0,0,1-1.4,7.15A5.07,5.07,0,0,1,520.52,237ZM176.78,236a5.15,5.15,0,0,1-4.25-8l1-1.47a5.15,5.15,0,1,1,8.46,5.89c-.32.45-.64.91-.95,1.37A5.15,5.15,0,0,1,176.78,236Zm324.56-23.4a5.18,5.18,0,0,1-3.8-1.67l-1.14-1.24a5.15,5.15,0,1,1,7.54-7l1.2,1.29a5.16,5.16,0,0,1-3.8,8.64Zm-305.23-.85a5.16,5.16,0,0,1-3.78-8.66l1.2-1.28A5.15,5.15,0,0,1,201,208.9l-1.16,1.24A5.1,5.1,0,0,1,196.11,211.79Zm282.65-20.4a5.1,5.1,0,0,1-3.23-1.14l-1.31-1.05a5.15,5.15,0,1,1,6.4-8.07l1.38,1.1a5.15,5.15,0,0,1-3.24,9.16Zm-259.95-.72a5.15,5.15,0,0,1-3.23-9.17l1.39-1.1a5.15,5.15,0,1,1,6.36,8.1l-1.3,1A5.16,5.16,0,0,1,218.81,190.67Zm234.46-16.93a5.07,5.07,0,0,1-2.61-.72l-1.45-.84a5.15,5.15,0,1,1,5.14-8.93l1.54.89a5.16,5.16,0,0,1-2.62,9.6Zm-208.9-.57a5.16,5.16,0,0,1-2.58-9.62l1.52-.87a5.15,5.15,0,1,1,5.09,9l-1.45.83A5.13,5.13,0,0,1,244.37,173.17Zm181.06-13.1a5,5,0,0,1-1.92-.37l-1.56-.62a5.15,5.15,0,1,1,3.74-9.6l1.66.66a5.15,5.15,0,0,1-1.92,9.93Zm-153.18-.4a5.15,5.15,0,0,1-1.9-9.94l1.66-.65a5.15,5.15,0,0,1,3.69,9.62l-1.56.61A5,5,0,0,1,272.25,159.67Zm123.6-8.93a4.76,4.76,0,0,1-1.18-.14l-1.63-.37a5.15,5.15,0,1,1,2.25-10.06l1.73.4a5.15,5.15,0,0,1-1.17,10.17Zm-94-.24a5.15,5.15,0,0,1-1.14-10.17l1.71-.39A5.15,5.15,0,1,1,304.65,150l-1.65.37A5.07,5.07,0,0,1,301.85,150.5ZM365.23,146l-.42,0-1.69-.12a5.15,5.15,0,0,1,.76-10.28l1.75.13a5.15,5.15,0,0,1-.4,10.29Zm-32.73-.08a5.15,5.15,0,0,1-.39-10.29l1.77-.13a5.16,5.16,0,0,1,.69,10.29l-1.68.11Z"/></g><g class="cls-2"><path class="cls-3" d="M366.35,622.66a6.68,6.68,0,0,1-.44-13.35l2.19-.15a6.68,6.68,0,1,1,1,13.32l-2.27.16Zm-38-.13-.5,0-2.29-.18a6.68,6.68,0,0,1,1.1-13.32l2.17.17a6.68,6.68,0,0,1-.48,13.35Zm77.74-5.5a6.68,6.68,0,0,1-1.41-13.21l2.12-.48a6.68,6.68,0,1,1,3,13l-2.24.5A6.42,6.42,0,0,1,406.14,617Zm-117.5-.42a6.37,6.37,0,0,1-1.49-.17l-2.22-.51a6.68,6.68,0,1,1,3.05-13l2.13.49a6.68,6.68,0,0,1-1.47,13.2Zm156-11.11a6.68,6.68,0,0,1-2.4-12.92l2-.79a6.68,6.68,0,1,1,4.88,12.44l-2.13.82A6.45,6.45,0,0,1,444.66,605.5Zm-194.48-.71a6.57,6.57,0,0,1-2.44-.47l-2.13-.84a6.68,6.68,0,1,1,5-12.4l2,.81a6.68,6.68,0,0,1-2.45,12.9ZM481,588.33a6.68,6.68,0,0,1-3.29-12.5c.63-.35,1.25-.71,1.87-1.07a6.68,6.68,0,0,1,6.7,11.57l-2,1.14A6.73,6.73,0,0,1,481,588.33Zm-267-1a6.78,6.78,0,0,1-3.34-.9l-2-1.16a6.68,6.68,0,0,1,6.78-11.52l1.89,1.11a6.68,6.68,0,0,1-3.35,12.47Zm300.4-21.4A6.68,6.68,0,0,1,510.2,554l1.71-1.35a6.68,6.68,0,0,1,8.35,10.43l-1.79,1.42A6.6,6.6,0,0,1,514.34,565.94Zm-333.62-1.27a6.66,6.66,0,0,1-4.16-1.46l-1.77-1.42a6.68,6.68,0,1,1,8.39-10.4l1.72,1.38a6.68,6.68,0,0,1-4.18,11.9ZM544,538.84a6.68,6.68,0,0,1-4.85-11.27l1.49-1.59a6.68,6.68,0,1,1,9.79,9.09l-1.56,1.67A6.66,6.66,0,0,1,544,538.84Zm-392.76-1.5a6.68,6.68,0,0,1-4.9-2.14l-1.54-1.66a6.68,6.68,0,0,1,9.84-9l1.5,1.61a6.69,6.69,0,0,1-4.9,11.23Zm418.1-29.71a6.69,6.69,0,0,1-5.48-10.5l1.24-1.8a6.68,6.68,0,0,1,11,7.55l-1.3,1.88A6.65,6.65,0,0,1,569.35,507.63ZM126.16,506a6.68,6.68,0,0,1-5.52-2.91l-1.29-1.9a6.68,6.68,0,1,1,11.1-7.44l1.22,1.79A6.69,6.69,0,0,1,126.16,506Zm463.62-33a6.69,6.69,0,0,1-6-9.64l1-2a6.68,6.68,0,0,1,12,5.82l-1,2.06A6.7,6.7,0,0,1,589.78,473ZM106,471.19a6.7,6.7,0,0,1-6-3.77l-1-2.07a6.68,6.68,0,1,1,12.08-5.7l.93,2a6.67,6.67,0,0,1-3.1,8.92A6.58,6.58,0,0,1,106,471.19ZM604.8,435.67a6.68,6.68,0,0,1-6.37-8.7l.65-2.09a6.68,6.68,0,1,1,12.77,3.94l-.68,2.19A6.68,6.68,0,0,1,604.8,435.67ZM91.28,433.8a6.69,6.69,0,0,1-6.38-4.71l-.67-2.2A6.68,6.68,0,0,1,97,423.06l.64,2.08a6.69,6.69,0,0,1-4.41,8.36A6.85,6.85,0,0,1,91.28,433.8ZM614,396.54a6.27,6.27,0,0,1-1-.08,6.68,6.68,0,0,1-5.55-7.64l.33-2.16a6.68,6.68,0,0,1,13.21,2l-.35,2.27A6.68,6.68,0,0,1,614,396.54ZM82.33,394.61a6.69,6.69,0,0,1-6.6-5.69l-.33-2.26a6.68,6.68,0,1,1,13.23-1.89l.31,2.16a6.69,6.69,0,0,1-5.61,7.61A6.82,6.82,0,0,1,82.33,394.61Zm535-38.13h-.05a6.67,6.67,0,0,1-6.63-6.73V347A6.68,6.68,0,1,1,624,347v2.85A6.67,6.67,0,0,1,617.33,356.48Zm-538-2a6.68,6.68,0,0,1-6.68-6.68v-2.28a6.68,6.68,0,0,1,6.68-6.64h0A6.69,6.69,0,0,1,86,345.66v2.19A6.68,6.68,0,0,1,79.33,354.53Zm535.28-38.71a6.69,6.69,0,0,1-6.61-5.73l-.31-2.15a6.68,6.68,0,1,1,13.21-2l.33,2.27a6.67,6.67,0,0,1-5.67,7.56A6.16,6.16,0,0,1,614.61,315.82ZM82.26,314.44a6.59,6.59,0,0,1-1-.07,6.68,6.68,0,0,1-5.63-7.59l.35-2.26a6.68,6.68,0,1,1,13.2,2.07l-.33,2.16A6.67,6.67,0,0,1,82.26,314.44ZM606,276.57a6.67,6.67,0,0,1-6.39-4.75l-.64-2.09a6.68,6.68,0,1,1,12.76-4l.67,2.19a6.68,6.68,0,0,1-4.46,8.33A6.9,6.9,0,0,1,606,276.57ZM91.12,275.24a6.7,6.7,0,0,1-6.39-8.65l.68-2.19a6.68,6.68,0,0,1,12.75,4l-.65,2.1A6.7,6.7,0,0,1,91.12,275.24Zm500.39-36.18a6.67,6.67,0,0,1-6-3.81l-.94-2a6.68,6.68,0,1,1,12-5.83l1,2a6.69,6.69,0,0,1-6,9.55Zm-485.73-1.28a6.69,6.69,0,0,1-6-9.58c.33-.69.67-1.39,1-2.08a6.69,6.69,0,0,1,12,5.92c-.33.64-.64,1.29-1,2A6.7,6.7,0,0,1,105.78,237.78Zm465.84-33.62a6.67,6.67,0,0,1-5.55-2.95l-1.22-1.8a6.68,6.68,0,0,1,11-7.56l1.29,1.9a6.69,6.69,0,0,1-5.54,10.41Zm-445.74-1.22a6.68,6.68,0,0,1-5.52-10.44l1.31-1.9a6.68,6.68,0,1,1,11,7.63c-.42.59-.82,1.19-1.23,1.79A6.66,6.66,0,0,1,125.88,202.94Zm420.87-30.35a6.65,6.65,0,0,1-4.93-2.16l-1.48-1.61a6.68,6.68,0,1,1,9.78-9.1l1.55,1.68a6.67,6.67,0,0,1-4.92,11.19ZM150.93,171.5A6.69,6.69,0,0,1,146,160.27l1.55-1.66a6.68,6.68,0,0,1,9.74,9.14l-1.5,1.61A6.64,6.64,0,0,1,150.93,171.5Zm366.53-26.45a6.7,6.7,0,0,1-4.19-1.48l-1.7-1.37a6.68,6.68,0,0,1,8.3-10.47l1.79,1.44a6.68,6.68,0,0,1-4.2,11.88Zm-337.09-.94a6.68,6.68,0,0,1-4.18-11.89c.59-.48,1.2-1,1.8-1.43a6.68,6.68,0,0,1,8.25,10.51l-1.7,1.35A6.69,6.69,0,0,1,180.37,144.11Zm304-22a6.69,6.69,0,0,1-3.38-.92l-1.88-1.1a6.68,6.68,0,1,1,6.66-11.58c.67.38,1.33.77,2,1.16a6.68,6.68,0,0,1-3.39,12.44Zm-270.89-.74A6.68,6.68,0,0,1,210.17,109l2-1.14a6.68,6.68,0,1,1,6.6,11.62l-1.89,1.08A6.63,6.63,0,0,1,213.52,121.41Zm234.79-17a6.65,6.65,0,0,1-2.49-.49l-2-.8a6.68,6.68,0,0,1,4.85-12.45l2.15.85a6.69,6.69,0,0,1-2.49,12.89Zm-198.64-.52A6.68,6.68,0,0,1,247.21,91l2.15-.84a6.68,6.68,0,0,1,4.79,12.48l-2,.79A6.88,6.88,0,0,1,249.67,103.92ZM410,92.33a6.66,6.66,0,0,1-1.53-.18l-2.12-.48a6.68,6.68,0,0,1,2.92-13l2.24.51A6.68,6.68,0,0,1,410,92.33ZM288.06,92a6.68,6.68,0,0,1-1.48-13.19l2.22-.5a6.68,6.68,0,1,1,2.89,13l-2.14.48A6.37,6.37,0,0,1,288.06,92Zm82.18-5.9-.54,0-2.19-.17a6.68,6.68,0,0,1,1-13.33l2.27.18a6.68,6.68,0,0,1-.52,13.34ZM327.8,86a6.68,6.68,0,0,1-.5-13.34l2.29-.16a6.68,6.68,0,1,1,.89,13.33l-2.17.16Z"/></g><g class="cls-4"><path class="cls-3" d="M371.1,695.15a8.44,8.44,0,0,1-.56-16.87l2.76-.19a8.44,8.44,0,1,1,1.24,16.84l-2.87.2Zm-48-.17-.62,0-2.89-.23A8.44,8.44,0,1,1,321,677.9l2.74.22a8.44,8.44,0,0,1-.61,16.86Zm98.24-7a8.44,8.44,0,0,1-1.79-16.69l2.68-.6A8.44,8.44,0,1,1,426,687.2l-2.83.64A8.7,8.7,0,0,1,421.38,688Zm-148.47-.53a8.09,8.09,0,0,1-1.88-.21l-2.8-.65a8.44,8.44,0,1,1,3.85-16.44l2.69.62a8.44,8.44,0,0,1-1.86,16.68Zm197.13-14a8.45,8.45,0,0,1-3-16.33l2.58-1a8.44,8.44,0,0,1,6.17,15.72l-2.69,1A8.51,8.51,0,0,1,470,673.47Zm-245.72-.9a8.39,8.39,0,0,1-3.09-.59l-2.69-1.07a8.44,8.44,0,1,1,6.29-15.67l2.58,1a8.44,8.44,0,0,1-3.09,16.3Zm291.62-20.79a8.45,8.45,0,0,1-4.16-15.8c.79-.45,1.58-.9,2.36-1.36a8.45,8.45,0,1,1,8.46,14.62l-2.52,1.44A8.42,8.42,0,0,1,515.94,651.78Zm-337.41-1.27a8.38,8.38,0,0,1-4.22-1.13l-2.5-1.46a8.44,8.44,0,0,1,8.56-14.55l2.39,1.39a8.44,8.44,0,0,1-4.23,15.75Zm379.55-27a8.45,8.45,0,0,1-5.23-15.08L555,606.7a8.44,8.44,0,0,1,10.54,13.18l-2.26,1.79A8.4,8.4,0,0,1,558.08,623.49Zm-421.52-1.61a8.39,8.39,0,0,1-5.27-1.85l-2.23-1.79a8.45,8.45,0,0,1,10.6-13.15l2.17,1.75a8.44,8.44,0,0,1-5.27,15Zm459-32.64A8.44,8.44,0,0,1,589.44,575l1.88-2a8.45,8.45,0,0,1,12.38,11.49l-2,2.11A8.42,8.42,0,0,1,595.58,589.24ZM99.32,587.35a8.42,8.42,0,0,1-6.19-2.7l-1.95-2.11a8.44,8.44,0,1,1,12.44-11.42l1.88,2a8.45,8.45,0,0,1-6.18,14.19ZM627.59,549.8a8.43,8.43,0,0,1-6.92-13.26l1.57-2.27a8.44,8.44,0,1,1,13.93,9.53l-1.64,2.38A8.43,8.43,0,0,1,627.59,549.8Zm-560-2.12a8.42,8.42,0,0,1-7-3.67L59,541.61a8.44,8.44,0,0,1,14-9.41l1.54,2.27a8.44,8.44,0,0,1-7,13.21ZM653.4,506a8.33,8.33,0,0,1-3.73-.88,8.43,8.43,0,0,1-3.83-11.3l1.21-2.49a8.44,8.44,0,0,1,15.2,7.36l-1.27,2.6A8.45,8.45,0,0,1,653.4,506ZM42.16,503.77A8.45,8.45,0,0,1,34.55,499l-1.25-2.61a8.44,8.44,0,1,1,15.27-7.21l1.18,2.47a8.43,8.43,0,0,1-3.92,11.27A8.35,8.35,0,0,1,42.16,503.77Zm630.22-44.88a8.46,8.46,0,0,1-8-11l.83-2.64a8.44,8.44,0,1,1,16.13,5l-.86,2.76A8.45,8.45,0,0,1,672.38,458.89ZM23.55,456.52a8.44,8.44,0,0,1-8.07-5.95l-.84-2.78A8.44,8.44,0,1,1,30.81,443l.8,2.63A8.44,8.44,0,0,1,26,456.14,8.32,8.32,0,0,1,23.55,456.52Zm660.51-47.08a8.6,8.6,0,0,1-1.33-.1,8.44,8.44,0,0,1-7-9.66l.42-2.71a8.44,8.44,0,1,1,16.7,2.49l-.44,2.86A8.44,8.44,0,0,1,684.06,409.44ZM12.23,407a8.46,8.46,0,0,1-8.34-7.18L3.48,397a8.44,8.44,0,0,1,16.71-2.39l.4,2.74a8.43,8.43,0,0,1-7.09,9.6A9.15,9.15,0,0,1,12.23,407Zm676-48.17h-.07a8.44,8.44,0,0,1-8.38-8.5v-3.48a8.45,8.45,0,0,1,16.89,0v3.6A8.45,8.45,0,0,1,688.22,358.83ZM8.44,356.36A8.44,8.44,0,0,1,0,347.92V345a8.44,8.44,0,0,1,8.44-8.39h.06a8.44,8.44,0,0,1,8.38,8.5v2.77A8.44,8.44,0,0,1,8.44,356.36Zm676.34-48.91a8.43,8.43,0,0,1-8.35-7.24l-.4-2.72A8.44,8.44,0,1,1,692.72,295l.42,2.87a8.44,8.44,0,0,1-7.16,9.55A8.15,8.15,0,0,1,684.78,307.45ZM12.15,305.71a9,9,0,0,1-1.26-.09A8.44,8.44,0,0,1,3.79,296l.43-2.86a8.44,8.44,0,0,1,16.68,2.62l-.41,2.73A8.45,8.45,0,0,1,12.15,305.71Zm661.69-47.85a8.44,8.44,0,0,1-8.08-6l-.81-2.64a8.45,8.45,0,1,1,16.13-5l.84,2.77a8.44,8.44,0,0,1-5.64,10.52A8.24,8.24,0,0,1,673.84,257.86Zm-650.5-1.68a8.57,8.57,0,0,1-2.48-.37,8.44,8.44,0,0,1-5.59-10.55l.86-2.78a8.44,8.44,0,0,1,16.1,5.08l-.82,2.65A8.45,8.45,0,0,1,23.34,256.18Zm632.25-45.71a8.43,8.43,0,0,1-7.63-4.82l-1.19-2.48A8.44,8.44,0,1,1,662,195.8l1.24,2.6a8.44,8.44,0,0,1-7.61,12.07ZM41.86,208.85a8.36,8.36,0,0,1-3.65-.84,8.45,8.45,0,0,1-4-11.27c.42-.87.85-1.75,1.28-2.62a8.44,8.44,0,1,1,15.14,7.47c-.41.82-.81,1.64-1.2,2.47A8.46,8.46,0,0,1,41.86,208.85Zm588.6-42.48a8.45,8.45,0,0,1-7-3.73l-1.54-2.27a8.44,8.44,0,1,1,13.93-9.55l1.62,2.4a8.42,8.42,0,0,1-2.29,11.71A8.32,8.32,0,0,1,630.46,166.37Zm-563.2-1.54a8.45,8.45,0,0,1-7-13.19c.55-.8,1.1-1.61,1.66-2.4a8.44,8.44,0,0,1,13.86,9.64c-.52.74-1,1.5-1.55,2.25A8.43,8.43,0,0,1,67.26,164.83ZM599,126.49a8.4,8.4,0,0,1-6.22-2.74l-1.88-2a8.44,8.44,0,0,1,12.36-11.5l2,2.12A8.45,8.45,0,0,1,599,126.49ZM98.92,125.1a8.45,8.45,0,0,1-6.19-14.19l2-2.1A8.44,8.44,0,1,1,107,120.37l-1.89,2A8.45,8.45,0,0,1,98.92,125.1ZM562,91.68a8.43,8.43,0,0,1-5.3-1.87l-2.15-1.72a8.45,8.45,0,0,1,10.5-13.23l2.26,1.81a8.44,8.44,0,0,1-5.31,15ZM136.11,90.5a8.44,8.44,0,0,1-5.29-15l2.28-1.81A8.44,8.44,0,0,1,143.52,87l-2.14,1.7A8.43,8.43,0,0,1,136.11,90.5ZM520.27,62.75A8.38,8.38,0,0,1,516,61.58l-2.38-1.38A8.44,8.44,0,1,1,522,45.56L524.55,47a8.44,8.44,0,0,1-4.28,15.72ZM178,61.82a8.44,8.44,0,0,1-4.24-15.75l2.5-1.44a8.44,8.44,0,1,1,8.34,14.68l-2.38,1.37A8.42,8.42,0,0,1,178,61.82ZM474.65,40.37a8.47,8.47,0,0,1-3.14-.61l-2.56-1A8.44,8.44,0,1,1,475.09,23c.9.36,1.81.71,2.71,1.08a8.45,8.45,0,0,1-3.15,16.28Zm-251-.66a8.45,8.45,0,0,1-3.11-16.3l2.72-1.05a8.44,8.44,0,0,1,6.05,15.76l-2.56,1A8.44,8.44,0,0,1,223.67,39.71ZM426.18,25.07a8.6,8.6,0,0,1-1.93-.22l-2.68-.62a8.44,8.44,0,1,1,3.7-16.47l2.83.65a8.44,8.44,0,0,1-1.92,16.66Zm-154-.39A8.44,8.44,0,0,1,270.31,8l2.8-.63a8.44,8.44,0,1,1,3.65,16.48l-2.71.61A8.09,8.09,0,0,1,272.17,24.68ZM376,17.22l-.67,0L372.57,17A8.44,8.44,0,1,1,373.8.15l2.87.22A8.44,8.44,0,0,1,376,17.22Zm-53.62-.13A8.44,8.44,0,0,1,321.75.23l2.9-.21a8.44,8.44,0,0,1,1.13,16.85l-2.74.2Z"/></g></g></g></g></svg>