<svg xmlns="http://www.w3.org/2000/svg" xmlns:xlink="http://www.w3.org/1999/xlink" viewBox="0 0 85.69 51.56"><defs><style>.cls-1{fill:none;}.cls-2{isolation:isolate;}.cls-3{clip-path:url(#clip-path);}.cls-4{fill:#3d7f6b;}.cls-5{fill:#3f846f;}.cls-6{fill:#428973;}.cls-7{fill:#448e77;}.cls-8{fill:#46937c;}.cls-9{fill:#499880;}.cls-10{fill:#4b9d84;}.cls-11{fill:#4da288;}.cls-12{fill:#50a78c;}.cls-13{fill:#52ab90;}.cls-14{fill:#54b094;}.cls-15{fill:#5abd9f;}.cls-16{clip-path:url(#clip-path-2);}.cls-17{clip-path:url(#clip-path-3);}.cls-18{clip-path:url(#clip-path-4);}.cls-19{clip-path:url(#clip-path-5);}.cls-20{fill:#000e21;}.cls-21{clip-path:url(#clip-path-6);}.cls-22{clip-path:url(#clip-path-7);}.cls-23{clip-path:url(#clip-path-8);}.cls-24{clip-path:url(#clip-path-9);}.cls-25{clip-path:url(#clip-path-10);}.cls-26{clip-path:url(#clip-path-11);}.cls-27{clip-path:url(#clip-path-12);}.cls-28{clip-path:url(#clip-path-13);}.cls-29{clip-path:url(#clip-path-14);}.cls-30{fill:#001025;}.cls-31{fill:#001026;}.cls-32{fill:#001128;}.cls-33{fill:#001129;}.cls-34{fill:#00122a;}.cls-35{fill:#00122c;}.cls-36{fill:#00132d;}.cls-37{fill:#00132e;}.cls-38{fill:#001531;}.cls-39{fill:#000f22;}.cls-40{fill:#001737;}.cls-41{clip-path:url(#clip-path-15);}.cls-42{fill:#000f24;}.cls-43{fill:#000f23;}.cls-44{clip-path:url(#clip-path-16);}.cls-45{clip-path:url(#clip-path-17);}.cls-46{clip-path:url(#clip-path-18);}.cls-47{clip-path:url(#clip-path-19);}.cls-48{clip-path:url(#clip-path-20);}.cls-49{clip-path:url(#clip-path-21);}.cls-50{clip-path:url(#clip-path-22);}.cls-51{clip-path:url(#clip-path-23);}.cls-52{clip-path:url(#clip-path-24);}.cls-53{clip-path:url(#clip-path-25);}.cls-54{clip-path:url(#clip-path-26);}.cls-55{clip-path:url(#clip-path-27);}.cls-56{clip-path:url(#clip-path-28);}.cls-57{clip-path:url(#clip-path-29);}.cls-58{clip-path:url(#clip-path-30);}.cls-59{clip-path:url(#clip-path-31);}.cls-60{clip-path:url(#clip-path-32);}.cls-61{clip-path:url(#clip-path-33);}.cls-62{clip-path:url(#clip-path-34);}.cls-63{clip-path:url(#clip-path-35);}.cls-64{clip-path:url(#clip-path-36);}.cls-65{clip-path:url(#clip-path-37);}.cls-66{clip-path:url(#clip-path-38);}.cls-67{clip-path:url(#clip-path-39);}.cls-68{clip-path:url(#clip-path-40);}.cls-69{clip-path:url(#clip-path-41);}.cls-70{clip-path:url(#clip-path-42);}.cls-71{fill:#fff;}.cls-72{fill:url(#linear-gradient);}</style><clipPath id="clip-path"><path class="cls-1" d="M55.07,11.63a3.14,3.14,0,0,0-2.86,0c0-.54,0-1.07,0-1.61V9.82a3.15,3.15,0,0,1,2.85,0Z"/></clipPath><clipPath id="clip-path-2"><path class="cls-1" d="M47.18,12a3.15,3.15,0,0,0-2.85,0c0-.53,0-1.07,0-1.6v-.22a3.15,3.15,0,0,1,2.85,0Z"/></clipPath><clipPath id="clip-path-3"><path class="cls-1" d="M51.91,11.82a1,1,0,0,0-.57.81V10.81a1,1,0,0,1,.58-.81Z"/></clipPath><clipPath id="clip-path-4"><path class="cls-1" d="M43.45,13V11.15a1,1,0,0,1,.58-.82v1.82A1,1,0,0,0,43.45,13Z"/></clipPath><clipPath id="clip-path-5"><path class="cls-1" d="M51.34,12.63V10.81a1,1,0,0,0,.6.84v1.82A1,1,0,0,1,51.34,12.63Z"/></clipPath><clipPath id="clip-path-6"><path class="cls-1" d="M43.45,13V11.15a1,1,0,0,0,.61.83V13.8A1,1,0,0,1,43.45,13Z"/></clipPath><clipPath id="clip-path-7"><path class="cls-1" d="M33.06,16.58a3.2,3.2,0,0,0-2.86,0c0-.53,0-1.07,0-1.6v-.21a3.15,3.15,0,0,1,2.85,0Z"/></clipPath><clipPath id="clip-path-8"><path class="cls-1" d="M29.9,16.77a1,1,0,0,0-.57.82V15.77a1,1,0,0,1,.58-.82Z"/></clipPath><clipPath id="clip-path-9"><path class="cls-1" d="M29.33,17.59V15.77a1,1,0,0,0,.61.83v1.82A1,1,0,0,1,29.33,17.59Z"/></clipPath><clipPath id="clip-path-10"><path class="cls-1" d="M28.37,19.34a3.15,3.15,0,0,0-2.85,0V17.53a3.15,3.15,0,0,1,2.85,0Z"/></clipPath><clipPath id="clip-path-11"><path class="cls-1" d="M25.22,19.53a1,1,0,0,0-.58.82V18.53a1,1,0,0,1,.58-.82Z"/></clipPath><clipPath id="clip-path-12"><path class="cls-1" d="M69.78,18.69v1.82a1,1,0,0,0-.6-.84V17.85A1,1,0,0,1,69.78,18.69Z"/></clipPath><clipPath id="clip-path-13"><path class="cls-1" d="M24.64,20.35V18.53a1,1,0,0,0,.61.83v1.82A1,1,0,0,1,24.64,20.35Z"/></clipPath><clipPath id="clip-path-14"><path class="cls-1" d="M69.78,18.69v1.82a1,1,0,0,1-.58.81V19.51A1,1,0,0,0,69.78,18.69Z"/></clipPath><clipPath id="clip-path-15"><path class="cls-1" d="M68.9,19.68V21.5a3.12,3.12,0,0,1-2.85,0V19.69A3.09,3.09,0,0,0,68.9,19.68Z"/></clipPath><clipPath id="clip-path-16"><path class="cls-1" d="M23.68,22.1a3.15,3.15,0,0,0-2.85,0V20.29a3.15,3.15,0,0,1,2.85,0Z"/></clipPath><clipPath id="clip-path-17"><path class="cls-1" d="M20.53,22.29a1,1,0,0,0-.58.81V21.28a1,1,0,0,1,.57-.81Z"/></clipPath><clipPath id="clip-path-18"><path class="cls-1" d="M20,23.1V21.28a1,1,0,0,0,.6.84v1.82A1,1,0,0,1,20,23.1Z"/></clipPath><clipPath id="clip-path-19"><path class="cls-1" d="M69.34,23.26v1.82a1,1,0,0,0-.6-.83V22.43A1,1,0,0,1,69.34,23.26Z"/></clipPath><clipPath id="clip-path-20"><path class="cls-1" d="M69.34,23.26v1.82a1,1,0,0,1-.58.82V24.08A1,1,0,0,0,69.34,23.26Z"/></clipPath><clipPath id="clip-path-21"><path class="cls-1" d="M68.45,24.26v1.81a3.15,3.15,0,0,1-2.85,0V24.27A3.16,3.16,0,0,0,68.45,24.26Z"/></clipPath><clipPath id="clip-path-22"><path class="cls-1" d="M11.7,29.15a3.15,3.15,0,0,0-2.85,0V27.34a3.12,3.12,0,0,1,2.84,0Z"/></clipPath><clipPath id="clip-path-23"><path class="cls-1" d="M8.55,29.34a1,1,0,0,0-.58.82V28.34a1,1,0,0,1,.57-.82Z"/></clipPath><clipPath id="clip-path-24"><path class="cls-1" d="M8,30.16V28.34a1,1,0,0,0,.6.83V31A1,1,0,0,1,8,30.16Z"/></clipPath><clipPath id="clip-path-25"><path class="cls-1" d="M61.58,31.52v1.81a1,1,0,0,0-.6-.83V30.68A1,1,0,0,1,61.58,31.52Z"/></clipPath><clipPath id="clip-path-26"><path class="cls-1" d="M61.58,31.52v1.81a1,1,0,0,1-.58.82V32.33A1,1,0,0,0,61.58,31.52Z"/></clipPath><clipPath id="clip-path-27"><path class="cls-1" d="M19.51,34.1a1,1,0,0,0-.6-.84V31.44a1,1,0,0,1,.61.84Z"/></clipPath><clipPath id="clip-path-28"><path class="cls-1" d="M60.7,32.51v1.82a3.15,3.15,0,0,1-2.85,0V32.52A3.12,3.12,0,0,0,60.7,32.51Z"/></clipPath><clipPath id="clip-path-29"><path class="cls-1" d="M19.52,32.28V34.1a1,1,0,0,1-.57.81V33.09A1,1,0,0,0,19.52,32.28Z"/></clipPath><clipPath id="clip-path-30"><path class="cls-1" d="M18.64,33.27v1.82a3.14,3.14,0,0,1-2.86,0V33.28A3.12,3.12,0,0,0,18.64,33.27Z"/></clipPath><clipPath id="clip-path-31"><path class="cls-1" d="M56.89,36.1a1,1,0,0,0-.6-.84V33.44a1,1,0,0,1,.61.84Z"/></clipPath><clipPath id="clip-path-32"><path class="cls-1" d="M56.9,34.28V36.1a1,1,0,0,1-.58.81V35.09A1,1,0,0,0,56.9,34.28Z"/></clipPath><clipPath id="clip-path-33"><path class="cls-1" d="M56,35.27v1.82a3.15,3.15,0,0,1-2.85,0V35.28A3.15,3.15,0,0,0,56,35.27Z"/></clipPath><clipPath id="clip-path-34"><path class="cls-1" d="M52.21,37v1.81a1,1,0,0,0-.6-.83V36.2A1,1,0,0,1,52.21,37Z"/></clipPath><clipPath id="clip-path-35"><path class="cls-1" d="M52.21,37v1.81a1,1,0,0,1-.57.82V37.85A1,1,0,0,0,52.21,37Z"/></clipPath><clipPath id="clip-path-36"><path class="cls-1" d="M51.33,38v1.82a3.16,3.16,0,0,1-2.84,0V38A3.15,3.15,0,0,0,51.33,38Z"/></clipPath><clipPath id="clip-path-37"><path class="cls-1" d="M32.41,41a3.15,3.15,0,0,0-2.85,0V39.15a3.15,3.15,0,0,1,2.85,0Z"/></clipPath><clipPath id="clip-path-38"><path class="cls-1" d="M29.26,41.15a1,1,0,0,0-.58.81V40.14a1,1,0,0,1,.58-.81Z"/></clipPath><clipPath id="clip-path-39"><path class="cls-1" d="M28.68,42V40.14a1,1,0,0,0,.61.84V42.8A1,1,0,0,1,28.68,42Z"/></clipPath><clipPath id="clip-path-40"><path class="cls-1" d="M40.22,45.91a1,1,0,0,0-.6-.84V43.25a1,1,0,0,1,.61.84Z"/></clipPath><clipPath id="clip-path-41"><path class="cls-1" d="M40.23,44.09v1.82a1,1,0,0,1-.57.81V44.9A1,1,0,0,0,40.23,44.09Z"/></clipPath><clipPath id="clip-path-42"><path class="cls-1" d="M39.35,45.08V46.9a3.17,3.17,0,0,1-2.86,0V45.09A3.15,3.15,0,0,0,39.35,45.08Z"/></clipPath><linearGradient id="linear-gradient" y1="36.48" x2="85.69" y2="36.48" gradientUnits="userSpaceOnUse"><stop offset="0" stop-color="#75f5ce"/><stop offset="1" stop-color="aqua"/></linearGradient></defs><title>document_stack_1_5th</title><g id="Layer_2" data-name="Layer 2"><g id="document_stack_1_5"><g id="document_stack_1_5th"><g class="cls-2"><g class="cls-2"><g class="cls-3"><g class="cls-2"><path class="cls-4" d="M55.07,9.81v1.82l-.28-.14V9.67l.28.14"/><path class="cls-5" d="M54.79,9.67v1.82l-.25-.08V9.59l.24.08"/><path class="cls-6" d="M54.55,9.59v1.82l-.21-.05V9.54l.21.05"/><path class="cls-7" d="M54.34,9.54v1.82l-.2,0V9.51l.2,0"/><path class="cls-8" d="M54.14,9.51v1.82l-.19,0V9.48l.2,0"/><path class="cls-9" d="M53.94,9.48V11.3h-.2V9.47h.2"/><path class="cls-10" d="M53.74,9.47v1.82h-.21V9.48h.2"/><path class="cls-11" d="M53.54,9.48v1.81l-.22,0V9.49h.23"/><path class="cls-12" d="M53.31,9.49v1.82l-.26,0V9.53l.26,0"/><path class="cls-13" d="M53.05,9.53v1.82l-.39.09V9.62a2.34,2.34,0,0,1,.38-.09"/><path class="cls-14" d="M52.67,9.62v1.82a2.28,2.28,0,0,0-.45.2V9.82a2.28,2.28,0,0,1,.45-.2"/></g></g></g><polygon class="cls-15" points="52.22 9.82 52.21 11.64 51.91 11.82 51.92 10 52.22 9.82"/><g class="cls-2"><g class="cls-16"><g class="cls-2"><path class="cls-4" d="M47.19,10.14V12l-.28-.13V10l.29.13"/><path class="cls-5" d="M46.9,10v1.82l-.25-.09V9.93l.24.08"/><path class="cls-6" d="M46.66,9.93v1.81l-.21-.05V9.87l.21.06"/><path class="cls-7" d="M46.45,9.87v1.82l-.2,0V9.84l.2,0"/><path class="cls-8" d="M46.25,9.84v1.82l-.19,0V9.82l.2,0"/><path class="cls-9" d="M46.05,9.82v1.82h-.2V9.81h.2"/><path class="cls-10" d="M45.85,9.81v1.82a.74.74,0,0,0-.21,0V9.81h.2"/><path class="cls-11" d="M45.65,9.81v1.82h-.22V9.82h.22"/><path class="cls-12" d="M45.43,9.82v1.82l-.26,0V9.86l.26,0"/><path class="cls-13" d="M45.17,9.86v1.82a2.34,2.34,0,0,0-.38.09V10a2.34,2.34,0,0,1,.38-.09"/><path class="cls-14" d="M44.79,10v1.82a2.28,2.28,0,0,0-.45.2V10.15a2.66,2.66,0,0,1,.45-.2"/></g></g></g><polygon class="cls-15" points="44.34 10.15 44.33 11.97 44.03 12.15 44.03 10.33 44.34 10.15"/><g class="cls-2"><g class="cls-17"><g class="cls-2"><path class="cls-14" d="M51.92,10v1.82h0V10h0"/><path class="cls-13" d="M51.9,10v1.82a1.34,1.34,0,0,0-.26.19V10.2A1.26,1.26,0,0,1,51.9,10"/><path class="cls-12" d="M51.65,10.2V12a.49.49,0,0,0-.12.13V10.33l.13-.13"/><path class="cls-11" d="M51.52,10.33v1.82l-.08.12V10.45l.08-.12"/><path class="cls-10" d="M51.44,10.45v1.82s0,.08-.06.11V10.57a.61.61,0,0,1,0-.12"/><path class="cls-9" d="M51.39,10.57v1.81l0,.12V10.68a.36.36,0,0,1,0-.11"/><path class="cls-8" d="M51.35,10.68V12.5a.45.45,0,0,0,0,.11V10.79s0-.07,0-.11"/><path class="cls-7" d="M51.34,10.79v0"/></g></g></g><g class="cls-2"><g class="cls-18"><g class="cls-2"><path class="cls-14" d="M44,10.33v1.82h0V10.34h0"/><path class="cls-13" d="M44,10.34v1.82a1.26,1.26,0,0,0-.25.19V10.53a1.64,1.64,0,0,1,.25-.19"/><path class="cls-12" d="M43.76,10.53v1.82l-.13.13V10.66a.71.71,0,0,1,.12-.13"/><path class="cls-11" d="M43.64,10.66v1.82l-.08.12V10.79a.6.6,0,0,1,.09-.13"/><path class="cls-10" d="M43.55,10.79V12.6a.61.61,0,0,0,0,.12V10.9a1.17,1.17,0,0,1,0-.11"/><path class="cls-9" d="M43.5,10.9v1.82a.49.49,0,0,0,0,.11V11l0-.11"/><path class="cls-8" d="M43.47,11v1.82s0,.08,0,.12V11.13a.49.49,0,0,1,0-.12"/><path class="cls-7" d="M43.46,11.13v0"/></g></g></g><g class="cls-2"><g class="cls-19"><g class="cls-2"><path class="cls-20" d="M51.94,11.65v1.82a1,1,0,0,1-.6-.84V10.81a1,1,0,0,0,.6.84"/></g></g></g><g class="cls-2"><g class="cls-21"><g class="cls-2"><path class="cls-20" d="M44.06,12V13.8a1,1,0,0,1-.6-.83V11.15a1,1,0,0,0,.61.83"/></g></g></g><g class="cls-2"><g class="cls-22"><g class="cls-2"><path class="cls-4" d="M33.06,14.76v1.82l-.28-.13V14.63l.28.13"/><path class="cls-5" d="M32.78,14.63v1.82l-.25-.08V14.55l.24.08"/><path class="cls-6" d="M32.54,14.55v1.82l-.21-.06V14.5l.21.05"/><path class="cls-7" d="M32.33,14.5v1.81l-.2,0V14.46l.2,0"/><path class="cls-8" d="M32.13,14.46v1.82l-.19,0V14.44l.2,0"/><path class="cls-9" d="M31.93,14.44v1.82h-.2V14.43h.2"/><path class="cls-10" d="M31.73,14.43v1.82h-.21V14.43h.2"/><path class="cls-11" d="M31.53,14.43v1.82H31.3V14.44h.23"/><path class="cls-12" d="M31.3,14.44v1.82l-.26,0V14.48l.26,0"/><path class="cls-13" d="M31,14.48V16.3a2.74,2.74,0,0,0-.39.09V14.58a2.36,2.36,0,0,1,.38-.1"/><path class="cls-14" d="M30.66,14.58v1.81a3.07,3.07,0,0,0-.45.2V14.78a2.28,2.28,0,0,1,.45-.2"/></g></g></g><polygon class="cls-15" points="30.21 14.78 30.2 16.59 29.9 16.77 29.91 14.95 30.21 14.78"/><g class="cls-2"><g class="cls-23"><g class="cls-2"><path class="cls-14" d="M29.91,15v1.82h0V15h0"/><path class="cls-13" d="M29.89,15v1.82a1.34,1.34,0,0,0-.26.19V15.15a1.26,1.26,0,0,1,.25-.19"/><path class="cls-12" d="M29.64,15.15V17a.71.71,0,0,0-.12.13V15.29a.86.86,0,0,1,.13-.14"/><path class="cls-11" d="M29.51,15.29V17.1a.83.83,0,0,0-.08.12V15.41a.36.36,0,0,1,.08-.12"/><path class="cls-10" d="M29.43,15.41v1.81a.67.67,0,0,0-.06.12V15.52a.37.37,0,0,1,.05-.11"/><path class="cls-9" d="M29.38,15.52v1.82l0,.11V15.63a.76.76,0,0,1,0-.11"/><path class="cls-8" d="M29.34,15.63v1.82a.49.49,0,0,0,0,.12V15.75s0-.08,0-.12"/><path class="cls-7" d="M29.33,15.75v0"/></g></g></g><g class="cls-2"><g class="cls-24"><g class="cls-2"><path class="cls-20" d="M29.94,16.6v1.82a1,1,0,0,1-.6-.83V15.77a1,1,0,0,0,.61.83"/></g></g></g><g class="cls-2"><g class="cls-25"><g class="cls-2"><path class="cls-4" d="M28.37,17.52v1.82l-.29-.13V17.39l.28.13"/><path class="cls-5" d="M28.09,17.39v1.82l-.24-.09V17.31l.25.08"/><path class="cls-6" d="M27.84,17.31v1.81l-.21-.05V17.25l.2.06"/><path class="cls-7" d="M27.64,17.25v1.82l-.2,0V17.22l.2,0"/><path class="cls-8" d="M27.44,17.22V19l-.2,0V17.2l.2,0"/><path class="cls-9" d="M27.24,17.2V19H27V17.19h.2"/><path class="cls-10" d="M27,17.19V19a.74.74,0,0,0-.21,0V17.19H27"/><path class="cls-11" d="M26.84,17.19V19h-.22V17.2h.23"/><path class="cls-12" d="M26.61,17.2V19l-.26,0V17.24l.26,0"/><path class="cls-13" d="M26.35,17.24v1.82a2.34,2.34,0,0,0-.38.09V17.33a2.62,2.62,0,0,1,.38-.09"/><path class="cls-14" d="M26,17.33v1.82a3.07,3.07,0,0,0-.45.2V17.53a3.07,3.07,0,0,1,.45-.2"/></g></g></g><polygon class="cls-15" points="25.52 17.53 25.52 19.35 25.22 19.53 25.22 17.71 25.52 17.53"/><polygon class="cls-5" points="69.18 17.85 69.18 19.67 55.07 11.63 55.07 9.81 69.18 17.85"/><g class="cls-2"><g class="cls-26"><g class="cls-2"><path class="cls-14" d="M25.22,17.71v1.82h0V17.72h0"/><path class="cls-13" d="M25.21,17.72v1.82a1.74,1.74,0,0,0-.26.19V17.91a1.34,1.34,0,0,1,.26-.19"/><path class="cls-12" d="M25,17.91v1.82l-.12.13V18.05a.86.86,0,0,1,.13-.14"/><path class="cls-11" d="M24.82,18.05v1.81a.57.57,0,0,0-.08.13V18.17a1.25,1.25,0,0,1,.08-.12"/><path class="cls-10" d="M24.74,18.17V20l-.06.11V18.28a.37.37,0,0,1,0-.11"/><path class="cls-9" d="M24.69,18.28V20.1l0,.11V18.39a.26.26,0,0,1,0-.11"/><path class="cls-8" d="M24.66,18.39v1.82a.49.49,0,0,0,0,.12V18.51a.5.5,0,0,1,0-.12"/><path class="cls-7" d="M24.64,18.51v0"/></g></g></g><g class="cls-2"><g class="cls-27"><g class="cls-2"><path class="cls-4" d="M69.78,18.69v1.82a1,1,0,0,0-.6-.84V17.85a1,1,0,0,1,.6.84"/></g></g></g><g class="cls-2"><g class="cls-28"><g class="cls-2"><path class="cls-20" d="M25.25,19.36v1.82a1,1,0,0,1-.6-.83V18.53a1,1,0,0,0,.61.83"/></g></g></g><g class="cls-2"><g class="cls-29"><g class="cls-2"><path class="cls-30" d="M69.78,18.69v1.82h0V18.69"/><path class="cls-31" d="M69.78,18.71v1.81s0,.08,0,.12V18.82a.45.45,0,0,0,0-.11"/><path class="cls-32" d="M69.77,18.82v1.82a.36.36,0,0,1,0,.11V18.94l0-.12"/><path class="cls-33" d="M69.74,18.94v1.81a.61.61,0,0,1,0,.12V19.05s0-.08.06-.11"/><path class="cls-34" d="M69.68,19.05v1.82L69.6,21V19.17l.08-.12"/><path class="cls-35" d="M69.6,19.17V21l-.13.14V19.31a1.49,1.49,0,0,0,.12-.14"/><path class="cls-36" d="M69.48,19.31v1.82a1.6,1.6,0,0,1-.25.18V19.5a2.93,2.93,0,0,0,.26-.19"/><path class="cls-37" d="M69.22,19.5v1.81h0V19.51h0"/></g></g></g><polygon class="cls-38" points="69.2 19.51 69.2 21.32 68.9 21.5 68.91 19.68 69.2 19.51"/><polygon class="cls-39" points="66.06 19.69 66.05 21.51 51.94 13.47 51.95 11.65 66.06 19.69"/><path class="cls-40" d="M69.18,17.85a.88.88,0,0,1,0,1.66l-.31.17a3.09,3.09,0,0,1-2.84,0l-14.12-8a.87.87,0,0,1,0-1.65l.3-.18a3.15,3.15,0,0,1,2.85,0Z"/><g class="cls-2"><g class="cls-41"><g class="cls-2"><path class="cls-37" d="M68.9,19.68V21.5a2.28,2.28,0,0,1-.45.2V19.88a1.86,1.86,0,0,0,.45-.2"/><path class="cls-36" d="M68.45,19.88V21.7l-.38.1V20l.38-.1"/><path class="cls-35" d="M68.07,20V21.8l-.26,0V20l.25,0"/><path class="cls-34" d="M67.82,20v1.82l-.22,0V20l.23,0"/><path class="cls-33" d="M67.59,20v1.82h-.21V20h.2"/><path class="cls-32" d="M67.39,20v1.82h-.2V20h.2"/><path class="cls-31" d="M67.19,20v1.82l-.19,0V20l.2,0"/><path class="cls-30" d="M67,20v1.82l-.2,0V20l.2,0"/><path class="cls-42" d="M66.79,20v1.82l-.21-.05V19.91l.21.05"/><path class="cls-43" d="M66.58,19.91v1.82l-.25-.08V19.83l.24.08"/><path class="cls-20" d="M66.34,19.83v1.82l-.28-.14V19.69a1.83,1.83,0,0,0,.28.14"/></g></g></g><g class="cls-2"><g class="cls-44"><g class="cls-2"><path class="cls-4" d="M23.68,20.28V22.1L23.4,22V20.15l.28.13"/><path class="cls-5" d="M23.4,20.15V22l-.25-.09V20.07l.24.08"/><path class="cls-6" d="M23.16,20.07v1.81l-.21-.05V20l.21.06"/><path class="cls-7" d="M23,20v1.82l-.2,0V20l.2,0"/><path class="cls-8" d="M22.75,20V21.8l-.19,0V20l.2,0"/><path class="cls-9" d="M22.55,20v1.82h-.2V20h.2"/><path class="cls-10" d="M22.35,20v1.82h-.21V20h.2"/><path class="cls-11" d="M22.15,20v1.82h-.22V20h.23"/><path class="cls-12" d="M21.92,20v1.82l-.26,0V20l.25,0"/><path class="cls-13" d="M21.67,20v1.82a2.34,2.34,0,0,0-.38.09V20.09a2.46,2.46,0,0,1,.39-.09"/><path class="cls-14" d="M21.28,20.09v1.82a2.28,2.28,0,0,0-.45.2V20.29a3.07,3.07,0,0,1,.45-.2"/></g></g></g><polygon class="cls-15" points="20.83 20.29 20.83 22.11 20.53 22.29 20.53 20.47 20.83 20.29"/><g class="cls-2"><g class="cls-45"><g class="cls-2"><path class="cls-14" d="M20.53,20.47v1.82h0V20.48h0"/><path class="cls-13" d="M20.52,20.48V22.3a1.26,1.26,0,0,0-.25.19V20.67a1.34,1.34,0,0,1,.26-.19"/><path class="cls-12" d="M20.26,20.67v1.82l-.13.13V20.8l.12-.13"/><path class="cls-11" d="M20.14,20.8v1.82a.83.83,0,0,0-.08.12V20.92a.83.83,0,0,1,.08-.12"/><path class="cls-10" d="M20.06,20.92v1.82a.61.61,0,0,0-.05.12V21l.06-.12"/><path class="cls-9" d="M20,21v1.82A.2.2,0,0,0,20,23V21.15L20,21"/><path class="cls-8" d="M20,21.15V23a.5.5,0,0,0,0,.12V21.27a.49.49,0,0,1,0-.12"/><path class="cls-7" d="M20,21.27v1.82h0V21.28h0"/></g></g></g><g class="cls-2"><g class="cls-46"><g class="cls-2"><path class="cls-20" d="M20.56,22.12v1.82A1,1,0,0,1,20,23.1V21.28a1,1,0,0,0,.6.84"/></g></g></g><polygon class="cls-5" points="68.73 22.43 68.73 24.25 47.18 11.96 47.19 10.14 68.73 22.43"/><g class="cls-2"><g class="cls-47"><g class="cls-2"><path class="cls-4" d="M69.34,23.26v1.82a1,1,0,0,0-.6-.83V22.43a1,1,0,0,1,.61.83"/></g></g></g><g class="cls-2"><g class="cls-48"><g class="cls-2"><path class="cls-30" d="M69.34,23.26v0"/><path class="cls-31" d="M69.34,23.28V25.1s0,.08,0,.11V23.4s0-.08,0-.12"/><path class="cls-32" d="M69.32,23.4v1.81a.56.56,0,0,1,0,.12V23.51l0-.11"/><path class="cls-33" d="M69.29,23.51v1.82a.54.54,0,0,1,0,.11V23.62a.37.37,0,0,0,.05-.11"/><path class="cls-34" d="M69.24,23.62v1.82l-.08.12V23.74l.08-.12"/><path class="cls-35" d="M69.16,23.74v1.82L69,25.7V23.88l.13-.14"/><path class="cls-36" d="M69,23.88V25.7a1.81,1.81,0,0,1-.25.19V24.07l.25-.19"/><path class="cls-37" d="M68.78,24.07v1.82h0V24.08h0"/></g></g></g><polygon class="cls-38" points="68.76 24.08 68.75 25.89 68.45 26.07 68.45 24.26 68.76 24.08"/><polygon class="cls-39" points="65.61 24.27 65.6 26.09 44.05 13.8 44.06 11.98 65.61 24.27"/><g class="cls-2"><g class="cls-49"><g class="cls-2"><path class="cls-37" d="M68.45,24.26v1.81a1.82,1.82,0,0,1-.45.2V24.46a2.34,2.34,0,0,0,.45-.2"/><path class="cls-36" d="M68,24.46v1.81a2.36,2.36,0,0,1-.38.1V24.55c.13,0,.26-.06.38-.09"/><path class="cls-35" d="M67.62,24.55v1.82a2.3,2.3,0,0,1-.26,0V24.59l.26,0"/><path class="cls-34" d="M67.36,24.59V26.4l-.22,0V24.6h.22"/><path class="cls-33" d="M67.14,24.6v1.82h-.21V24.6h.2"/><path class="cls-32" d="M66.94,24.6v1.82h-.2V24.59h.2"/><path class="cls-31" d="M66.74,24.59v1.82l-.19,0V24.57l.2,0"/><path class="cls-30" d="M66.54,24.57v1.82l-.2,0V24.53l.2,0"/><path class="cls-42" d="M66.34,24.53v1.82l-.21-.05V24.48l.21.05"/><path class="cls-43" d="M66.13,24.48V26.3l-.25-.08V24.4l.24.08"/><path class="cls-20" d="M65.89,24.4v1.82l-.28-.13V24.27a1.82,1.82,0,0,0,.28.13"/></g></g></g><g class="cls-2"><g class="cls-50"><g class="cls-2"><path class="cls-4" d="M11.7,27.33v1.82L11.42,29V27.2l.28.13"/><path class="cls-5" d="M11.42,27.2V29l-.25-.09V27.12l.24.08"/><path class="cls-6" d="M11.18,27.12v1.81L11,28.88V27.06l.21.06"/><path class="cls-7" d="M11,27.06v1.82l-.2,0V27l.2,0"/><path class="cls-8" d="M10.77,27v1.82l-.19,0V27l.2,0"/><path class="cls-9" d="M10.57,27v1.82h-.2V27h.2"/><path class="cls-10" d="M10.37,27v1.82a1.47,1.47,0,0,0-.21,0V27h.2"/><path class="cls-11" d="M10.17,27v1.82H9.94V27h.23"/><path class="cls-12" d="M9.94,27v1.82l-.26,0V27.05l.25,0"/><path class="cls-13" d="M9.69,27.05v1.82A2.34,2.34,0,0,0,9.3,29V27.14a2.34,2.34,0,0,1,.38-.09"/><path class="cls-14" d="M9.31,27.14V29a3.07,3.07,0,0,0-.45.2V27.34a2.34,2.34,0,0,1,.45-.2"/></g></g></g><polygon class="cls-15" points="8.86 27.34 8.85 29.16 8.55 29.34 8.55 27.52 8.86 27.34"/><g class="cls-2"><g class="cls-51"><g class="cls-2"><path class="cls-14" d="M8.55,27.52v1.82h0V27.53h0"/><path class="cls-13" d="M8.54,27.53v1.82a1.26,1.26,0,0,0-.25.19V27.72a1.74,1.74,0,0,1,.26-.19"/><path class="cls-12" d="M8.28,27.72v1.82a1.59,1.59,0,0,0-.13.13V27.85l.12-.13"/><path class="cls-11" d="M8.16,27.85v1.82a.83.83,0,0,0-.08.12V28a.57.57,0,0,1,.08-.13"/><path class="cls-10" d="M8.08,28v1.81a.61.61,0,0,0-.05.12V28.09A.39.39,0,0,1,8.08,28"/><path class="cls-9" d="M8,28.09v1.82A.76.76,0,0,0,8,30V28.2l0-.11"/><path class="cls-8" d="M8,28.2V30s0,.08,0,.12V28.32a.49.49,0,0,1,0-.12"/><path class="cls-7" d="M8,28.32v0"/></g></g></g><g class="cls-2"><g class="cls-52"><g class="cls-2"><path class="cls-20" d="M8.58,29.17V31a1,1,0,0,1-.6-.83V28.34a1,1,0,0,0,.6.83"/></g></g></g><polygon class="cls-5" points="60.98 30.68 60.98 32.5 33.06 16.58 33.06 14.76 60.98 30.68"/><path class="cls-1" d="M0,30.16V28.34a2.83,2.83,0,0,0,1.68,2.34V32.5A2.84,2.84,0,0,1,0,30.16Z"/><g class="cls-2"><g class="cls-53"><g class="cls-2"><path class="cls-4" d="M61.58,31.52v1.81a1,1,0,0,0-.6-.83V30.68a1,1,0,0,1,.6.84"/></g></g></g><polygon class="cls-5" points="18.91 31.44 18.91 33.26 11.7 29.15 11.7 27.33 18.91 31.44"/><g class="cls-2"><g class="cls-54"><g class="cls-2"><path class="cls-30" d="M61.58,31.52v0h0"/><path class="cls-31" d="M61.58,31.53v1.82a.5.5,0,0,1,0,.12V31.65a.49.49,0,0,0,0-.12"/><path class="cls-32" d="M61.57,31.65v1.82a.23.23,0,0,1,0,.11V31.76l0-.11"/><path class="cls-33" d="M61.54,31.76v1.82a.61.61,0,0,1-.05.12V31.88l.06-.12"/><path class="cls-34" d="M61.48,31.88V33.7l-.08.12V32a.83.83,0,0,0,.08-.12"/><path class="cls-35" d="M61.4,32v1.82l-.13.13V32.13A.74.74,0,0,0,61.4,32"/><path class="cls-36" d="M61.28,32.13V34a1.64,1.64,0,0,1-.25.19V32.32a1.74,1.74,0,0,0,.26-.19"/><path class="cls-37" d="M61,32.32v1.82h0V32.33h0"/></g></g></g><g class="cls-2"><g class="cls-55"><g class="cls-2"><path class="cls-4" d="M19.52,32.28V34.1a1,1,0,0,0-.6-.84V31.44a1,1,0,0,1,.61.84"/></g></g></g><polygon class="cls-38" points="61 32.33 61 34.15 60.7 34.33 60.7 32.51 61 32.33"/><polygon class="cls-39" points="57.85 32.52 57.85 34.34 29.93 18.42 29.93 16.6 57.85 32.52"/><g class="cls-2"><g class="cls-56"><g class="cls-2"><path class="cls-37" d="M60.7,32.51v1.82a2.28,2.28,0,0,1-.45.2V32.71a1.86,1.86,0,0,0,.45-.2"/><path class="cls-36" d="M60.25,32.71v1.82a2.34,2.34,0,0,1-.38.09V32.8a2.34,2.34,0,0,0,.38-.09"/><path class="cls-35" d="M59.87,32.8v1.82l-.26,0V32.84l.26,0"/><path class="cls-34" d="M59.61,32.84v1.82h-.22V32.85h.22"/><path class="cls-33" d="M59.39,32.85v1.82h-.21V32.86h.2"/><path class="cls-32" d="M59.19,32.86v1.81H59V32.85h.2"/><path class="cls-31" d="M59,32.85v1.81l-.19,0V32.82l.2,0"/><path class="cls-30" d="M58.79,32.82v1.82l-.2,0V32.79l.2,0"/><path class="cls-42" d="M58.59,32.79v1.82l-.21,0V32.74l.21,0"/><path class="cls-43" d="M58.38,32.74v1.82l-.25-.09V32.65l.24.09"/><path class="cls-20" d="M58.14,32.65v1.82l-.28-.13V32.52a1.2,1.2,0,0,0,.28.13"/></g></g></g><g class="cls-2"><g class="cls-57"><g class="cls-2"><path class="cls-30" d="M19.52,32.28v0"/><path class="cls-31" d="M19.52,32.3v1.82a.41.41,0,0,1,0,.11V32.41s0-.07,0-.11"/><path class="cls-32" d="M19.51,32.41v1.82l0,.12V32.53a.56.56,0,0,0,0-.12"/><path class="cls-33" d="M19.47,32.53v1.82s0,.07-.06.11V32.64a.54.54,0,0,0,0-.11"/><path class="cls-34" d="M19.42,32.64v1.82l-.08.12V32.76l.08-.12"/><path class="cls-35" d="M19.34,32.76v1.82a.74.74,0,0,1-.12.13V32.9l.13-.14"/><path class="cls-36" d="M19.21,32.9v1.81a1.34,1.34,0,0,1-.26.19V33.08a1.24,1.24,0,0,0,.25-.18"/><path class="cls-37" d="M19,33.08V34.9h0V33.09h0"/></g></g></g><polygon class="cls-38" points="18.94 33.09 18.94 34.91 18.64 35.09 18.64 33.27 18.94 33.09"/><polygon class="cls-39" points="15.79 33.28 15.78 35.1 8.57 30.99 8.58 29.17 15.79 33.28"/><polygon class="cls-5" points="56.29 33.44 56.29 35.26 28.37 19.34 28.37 17.52 56.29 33.44"/><g class="cls-2"><g class="cls-58"><g class="cls-2"><path class="cls-37" d="M18.64,33.27v1.82a2.13,2.13,0,0,1-.46.2V33.47a2.28,2.28,0,0,0,.45-.2"/><path class="cls-36" d="M18.19,33.47v1.82l-.38.1V33.57l.38-.1"/><path class="cls-35" d="M17.81,33.57v1.82l-.26,0V33.6l.26,0"/><path class="cls-34" d="M17.55,33.6v1.82l-.22,0V33.62l.23,0"/><path class="cls-33" d="M17.32,33.62v1.82h-.21V33.62h.2"/><path class="cls-32" d="M17.12,33.62v1.82h-.2V33.61h.2"/><path class="cls-31" d="M16.92,33.61v1.82l-.19,0V33.59l.2,0"/><path class="cls-30" d="M16.72,33.59V35.4a1.2,1.2,0,0,1-.2,0V33.55l.2,0"/><path class="cls-42" d="M16.52,33.55v1.82l-.21,0V33.5l.21,0"/><path class="cls-43" d="M16.31,33.5v1.82l-.25-.08V33.42l.24.08"/><path class="cls-20" d="M16.07,33.42v1.82l-.28-.14V33.28l.28.14"/></g></g></g><g class="cls-2"><g class="cls-59"><g class="cls-2"><path class="cls-4" d="M56.9,34.28V36.1a1,1,0,0,0-.6-.84V33.44a1,1,0,0,1,.61.84"/></g></g></g><g class="cls-2"><g class="cls-60"><g class="cls-2"><path class="cls-30" d="M56.9,34.28V36.1h0V34.29h0"/><path class="cls-31" d="M56.9,34.29v1.82a.49.49,0,0,1,0,.12V34.41s0-.08,0-.12"/><path class="cls-32" d="M56.88,34.41v1.82l0,.11V34.52a.35.35,0,0,0,0-.11"/><path class="cls-33" d="M56.85,34.52v1.82l-.06.12V34.64a.61.61,0,0,0,.05-.12"/><path class="cls-34" d="M56.8,34.64v1.82a.83.83,0,0,1-.08.12V34.76l.08-.12"/><path class="cls-35" d="M56.72,34.76v1.82l-.12.13V34.89l.13-.13"/><path class="cls-36" d="M56.59,34.89v1.82a1.74,1.74,0,0,1-.26.19V35.08a1.64,1.64,0,0,0,.25-.19"/><path class="cls-37" d="M56.34,35.08V36.9h0V35.09h0"/></g></g></g><polygon class="cls-38" points="56.32 35.09 56.31 36.91 56.01 37.09 56.02 35.27 56.32 35.09"/><polygon class="cls-39" points="53.17 35.28 53.16 37.1 25.24 21.18 25.25 19.36 53.17 35.28"/><g class="cls-2"><g class="cls-61"><g class="cls-2"><path class="cls-37" d="M56,35.27v1.82a2.66,2.66,0,0,1-.45.2V35.47a2.13,2.13,0,0,0,.46-.2"/><path class="cls-36" d="M55.56,35.47v1.82a2.34,2.34,0,0,1-.38.09V35.56a2.34,2.34,0,0,0,.38-.09"/><path class="cls-35" d="M55.18,35.56v1.82l-.26,0V35.6l.26,0"/><path class="cls-34" d="M54.92,35.6v1.82H54.7V35.61h.22"/><path class="cls-33" d="M54.7,35.61v1.82h-.21V35.62h.21"/><path class="cls-32" d="M54.49,35.62v1.81h-.2V35.6l.19,0"/><path class="cls-31" d="M54.3,35.6v1.82l-.19,0V35.58l.2,0"/><path class="cls-30" d="M54.1,35.58V37.4l-.2,0V35.55l.2,0"/><path class="cls-42" d="M53.9,35.55v1.82l-.21,0V35.5l.21,0"/><path class="cls-43" d="M53.69,35.5v1.82l-.25-.09V35.41a2.34,2.34,0,0,0,.24.09"/><path class="cls-20" d="M53.45,35.41v1.82l-.28-.13V35.28a1.2,1.2,0,0,0,.28.13"/></g></g></g><path class="cls-40" d="M56.29,33.44c.8.45.81,1.19,0,1.65l-.3.18a3.15,3.15,0,0,1-2.85,0L25.25,19.36c-.8-.45-.81-1.19,0-1.65l.3-.18a3.15,3.15,0,0,1,2.85,0Z"/><polygon class="cls-5" points="51.6 36.2 51.6 38.02 23.68 22.1 23.68 20.28 51.6 36.2"/><g class="cls-2"><g class="cls-62"><g class="cls-2"><path class="cls-4" d="M52.21,37v1.81a1,1,0,0,0-.6-.83V36.2a1,1,0,0,1,.61.84"/></g></g></g><g class="cls-2"><g class="cls-63"><g class="cls-2"><path class="cls-30" d="M52.21,37v0h0"/><path class="cls-31" d="M52.21,37.05v1.82a.49.49,0,0,1,0,.12V37.17a.5.5,0,0,0,0-.12"/><path class="cls-32" d="M52.19,37.17V39l0,.11V37.28a.23.23,0,0,0,0-.11"/><path class="cls-33" d="M52.16,37.28V39.1l-.06.12V37.4a.61.61,0,0,0,0-.12"/><path class="cls-34" d="M52.11,37.4v1.82l-.08.12V37.52l.08-.12"/><path class="cls-35" d="M52,37.52v1.82l-.12.13V37.65a1.59,1.59,0,0,0,.13-.13"/><path class="cls-36" d="M51.9,37.65v1.82a1.74,1.74,0,0,1-.26.19V37.84a1.64,1.64,0,0,0,.25-.19"/><path class="cls-37" d="M51.65,37.84v1.82h0V37.85h0"/></g></g></g><polygon class="cls-38" points="51.63 37.85 51.63 39.67 51.32 39.85 51.33 38.03 51.63 37.85"/><polygon class="cls-39" points="48.48 38.04 48.48 39.86 20.56 23.94 20.56 22.12 48.48 38.04"/><g class="cls-2"><g class="cls-64"><g class="cls-2"><path class="cls-37" d="M51.33,38v1.82a2.34,2.34,0,0,1-.45.2V38.23a3.07,3.07,0,0,0,.45-.2"/><path class="cls-36" d="M50.88,38.23v1.82c-.12,0-.25.07-.38.09V38.32a2.34,2.34,0,0,0,.38-.09"/><path class="cls-35" d="M50.5,38.32v1.82l-.25,0V38.36l.26,0"/><path class="cls-34" d="M50.24,38.36v1.82H50V38.37h.22"/><path class="cls-33" d="M50,38.37v1.82h-.2V38.37H50"/><path class="cls-32" d="M49.81,38.37v1.82h-.2V38.36h.2"/><path class="cls-31" d="M49.61,38.36v1.82l-.2,0V38.34l.19,0"/><path class="cls-30" d="M49.42,38.34v1.82l-.2,0V38.31l.2,0"/><path class="cls-42" d="M49.22,38.31v1.81l-.21,0V38.25l.21.06"/><path class="cls-43" d="M49,38.25v1.82L48.76,40V38.17l.25.08"/><path class="cls-20" d="M48.76,38.17V40a1.82,1.82,0,0,1-.28-.13V38l.28.13"/></g></g></g><g class="cls-2"><g class="cls-65"><g class="cls-2"><path class="cls-4" d="M32.41,39.14V41l-.28-.14V39a1.43,1.43,0,0,1,.28.13"/><path class="cls-5" d="M32.13,39v1.81l-.25-.08V38.92l.24.09"/><path class="cls-6" d="M31.89,38.92v1.82l-.21-.05V38.87l.21.05"/><path class="cls-7" d="M31.68,38.87v1.82a1.2,1.2,0,0,0-.2,0V38.84l.2,0"/><path class="cls-8" d="M31.48,38.84v1.82l-.19,0V38.81l.2,0"/><path class="cls-9" d="M31.28,38.81v1.82h-.2V38.8h.2"/><path class="cls-10" d="M31.08,38.8v1.82h-.21V38.8h.2"/><path class="cls-11" d="M30.88,38.8v1.82l-.22,0V38.82l.23,0"/><path class="cls-12" d="M30.65,38.82v1.82l-.26,0V38.86l.25,0"/><path class="cls-13" d="M30.4,38.86v1.81l-.38.1V39a2.46,2.46,0,0,1,.39-.09"/><path class="cls-14" d="M30,39v1.82a2.28,2.28,0,0,0-.45.2V39.15A2.28,2.28,0,0,1,30,39"/></g></g></g><polygon class="cls-15" points="29.56 39.15 29.56 40.97 29.26 41.15 29.26 39.33 29.56 39.15"/><g class="cls-2"><g class="cls-66"><g class="cls-2"><path class="cls-14" d="M29.26,39.33v1.82h0V39.34h0"/><path class="cls-13" d="M29.25,39.34v1.82a1.24,1.24,0,0,0-.25.18V39.53a1.34,1.34,0,0,1,.26-.19"/><path class="cls-12" d="M29,39.53v1.81l-.13.14V39.66a.49.49,0,0,1,.12-.13"/><path class="cls-11" d="M28.87,39.66v1.82l-.08.12V39.78l.09-.12"/><path class="cls-10" d="M28.78,39.78V41.6a.61.61,0,0,0-.05.12V39.9l.05-.12"/><path class="cls-9" d="M28.73,39.9v1.82a.36.36,0,0,0,0,.11V40l0-.11"/><path class="cls-8" d="M28.7,40v1.82s0,.08,0,.12V40.13s0-.08,0-.12"/><path class="cls-7" d="M28.68,40.13V42h0V40.14h0"/></g></g></g><g class="cls-2"><g class="cls-67"><g class="cls-2"><path class="cls-20" d="M29.29,41V42.8a1,1,0,0,1-.6-.84V40.14a1,1,0,0,0,.61.84"/></g></g></g><polygon class="cls-5" points="39.62 43.25 39.62 45.07 32.41 40.96 32.41 39.14 39.62 43.25"/><g class="cls-2"><g class="cls-68"><g class="cls-2"><path class="cls-4" d="M40.23,44.09v1.82a1,1,0,0,0-.6-.84V43.25a1,1,0,0,1,.61.84"/></g></g></g><g class="cls-2"><g class="cls-69"><g class="cls-2"><path class="cls-30" d="M40.23,44.09v1.82h0V44.1h0"/><path class="cls-31" d="M40.23,44.1v1.82a.49.49,0,0,1,0,.12V44.22a.5.5,0,0,0,0-.12"/><path class="cls-32" d="M40.21,44.22V46l0,.11V44.33a.2.2,0,0,0,0-.11"/><path class="cls-33" d="M40.18,44.33v1.82l-.06.12V44.45a.61.61,0,0,0,0-.12"/><path class="cls-34" d="M40.13,44.45v1.82a.83.83,0,0,1-.08.12V44.57l.08-.12"/><path class="cls-35" d="M40.05,44.57v1.82l-.12.13V44.7l.13-.13"/><path class="cls-36" d="M39.92,44.7v1.82a1.74,1.74,0,0,1-.26.19V44.89a1.26,1.26,0,0,0,.25-.19"/><path class="cls-37" d="M39.67,44.89v1.82h0V44.9h0"/></g></g></g><polygon class="cls-38" points="39.65 44.9 39.65 46.72 39.34 46.9 39.35 45.08 39.65 44.9"/><polygon class="cls-39" points="36.5 45.09 36.49 46.91 29.28 42.8 29.29 40.98 36.5 45.09"/><g class="cls-2"><g class="cls-70"><g class="cls-2"><path class="cls-37" d="M39.35,45.08V46.9a2.77,2.77,0,0,1-.46.2V45.28a3.07,3.07,0,0,0,.45-.2"/><path class="cls-36" d="M38.9,45.28V47.1a2.34,2.34,0,0,1-.38.09V45.37a2.34,2.34,0,0,0,.38-.09"/><path class="cls-35" d="M38.52,45.37v1.82l-.26,0V45.41l.26,0"/><path class="cls-34" d="M38.26,45.41v1.82H38V45.42h.23"/><path class="cls-33" d="M38,45.42v1.82h-.21V45.42H38"/><path class="cls-32" d="M37.83,45.42v1.82h-.2V45.41h.2"/><path class="cls-31" d="M37.63,45.41v1.82l-.19,0V45.39l.2,0"/><path class="cls-30" d="M37.43,45.39v1.82l-.2,0V45.36l.2,0"/><path class="cls-42" d="M37.23,45.36v1.82l-.21,0V45.31l.21,0"/><path class="cls-43" d="M37,45.31v1.82L36.77,47V45.22l.24.09"/><path class="cls-20" d="M36.78,45.22V47l-.28-.13V45.09a1.43,1.43,0,0,0,.28.13"/></g></g></g><path class="cls-71" d="M84,19.06c2.22,1.27,2.26,3.33.08,4.61L41.44,48.77a8.79,8.79,0,0,1-8,0L1.69,30.68c-2.21-1.27-2.25-3.33-.08-4.61L44.26,1a8.79,8.79,0,0,1,8,0ZM56,35.27l.3-.18c.78-.46.77-1.2,0-1.65L28.37,17.52a3.15,3.15,0,0,0-2.85,0l-.3.18c-.78.46-.77,1.2,0,1.65L53.17,35.28a3.15,3.15,0,0,0,2.85,0m4.68-2.76.3-.18a.87.87,0,0,0,0-1.65L33.06,14.76a3.15,3.15,0,0,0-2.85,0l-.3.17c-.78.46-.77,1.2,0,1.65L57.86,32.52a3.12,3.12,0,0,0,2.84,0M51.33,38l.3-.18c.78-.46.77-1.2,0-1.65L23.68,20.28a3.15,3.15,0,0,0-2.85,0l-.3.18c-.78.46-.76,1.2,0,1.65L48.48,38a3.15,3.15,0,0,0,2.85,0m-7-27.88-.31.18c-.78.46-.77,1.2,0,1.65L65.61,24.27a3.16,3.16,0,0,0,2.84,0l.31-.18c.78-.46.77-1.2,0-1.65L47.19,10.14a3.15,3.15,0,0,0-2.85,0m7.88-.33-.3.18a.87.87,0,0,0,0,1.65l14.12,8a3.09,3.09,0,0,0,2.84,0l.31-.17a.88.88,0,0,0,0-1.66l-14.11-8a3.15,3.15,0,0,0-2.85,0M39.35,45.08l.3-.18c.78-.46.77-1.2,0-1.65l-7.21-4.11a3.15,3.15,0,0,0-2.85,0l-.3.18c-.78.46-.77,1.2,0,1.65l7.21,4.11a3.15,3.15,0,0,0,2.85,0M18.64,33.27l.3-.18c.78-.45.77-1.19,0-1.65L11.7,27.33a3.12,3.12,0,0,0-2.84,0l-.31.18c-.78.46-.77,1.2,0,1.65l7.21,4.11a3.12,3.12,0,0,0,2.85,0"/><path class="cls-40" d="M68.73,22.43c.8.45.81,1.19,0,1.65l-.31.18a3.16,3.16,0,0,1-2.84,0L44.06,12c-.8-.45-.81-1.19,0-1.65l.31-.18a3.15,3.15,0,0,1,2.85,0Z"/><path class="cls-40" d="M61,30.68a.87.87,0,0,1,0,1.65l-.3.18a3.12,3.12,0,0,1-2.84,0L29.94,16.6c-.8-.45-.81-1.19,0-1.65l.3-.17a3.15,3.15,0,0,1,2.85,0Z"/><path class="cls-40" d="M18.91,31.44c.8.46.81,1.2,0,1.65l-.3.18a3.12,3.12,0,0,1-2.85,0L8.58,29.17c-.8-.45-.81-1.19,0-1.65l.31-.18a3.12,3.12,0,0,1,2.84,0Z"/><path class="cls-40" d="M51.6,36.2c.8.45.81,1.19,0,1.65l-.3.18a3.15,3.15,0,0,1-2.85,0L20.56,22.12c-.79-.45-.81-1.19,0-1.65l.3-.18a3.15,3.15,0,0,1,2.85,0Z"/><path class="cls-40" d="M39.62,43.25c.8.45.81,1.19,0,1.65l-.3.18a3.15,3.15,0,0,1-2.85,0L29.29,41c-.8-.45-.81-1.19,0-1.65l.3-.18a3.15,3.15,0,0,1,2.85,0Z"/><path class="cls-72" d="M85.68,21.56c0,.06,0,.12,0,.18s0,.1,0,.14a.84.84,0,0,1-.05.17.78.78,0,0,1,0,.14.91.91,0,0,1-.09.17c0,.05-.05.09-.07.13a2.14,2.14,0,0,1-.13.19l-.09.12a3.07,3.07,0,0,1-.25.26.6.6,0,0,1-.08.08l-.18.15-.15.12-.2.14-.2.12L41.44,48.77a6.26,6.26,0,0,1-.78.38l-.23.08a4.68,4.68,0,0,1-.53.17l-.56.14-.66.11-.19,0c-.31,0-.62,0-.94.06H37.4c-.31,0-.62,0-.93-.05l-.14,0a8.64,8.64,0,0,1-.91-.15l-.16,0a6.65,6.65,0,0,1-.76-.23l-.17,0a7.38,7.38,0,0,1-.85-.4L1.69,30.68A2.83,2.83,0,0,1,0,28.34v1.82A2.84,2.84,0,0,0,1.69,32.5L33.47,50.62a7.12,7.12,0,0,0,.79.37l.07,0a1,1,0,0,0,.16.06c.15,0,.3.11.46.15l.31.08.15,0,.13,0a4.85,4.85,0,0,0,.55.09l.23,0,.14,0,.18,0,.56,0h.19a.85.85,0,0,0,.16,0,1.62,1.62,0,0,0,.22,0c.21,0,.42,0,.62,0h.09l.2,0c.14,0,.29,0,.43-.06l.22,0,.56-.14.29-.07.24-.1.23-.08a5.65,5.65,0,0,0,.78-.38l42.65-25.1,0,0,.15-.09.21-.14.15-.12.18-.15s0,0,0,0l.06-.06a2.84,2.84,0,0,0,.24-.26l.05-.06,0-.06a2.14,2.14,0,0,0,.13-.19l.06-.08,0-.05a1.3,1.3,0,0,0,.08-.17l0-.1a.06.06,0,0,1,0,0l.05-.17,0-.11v0a1.1,1.1,0,0,0,0-.18.41.41,0,0,0,0-.11V21.4C85.69,21.45,85.68,21.51,85.68,21.56Z"/></g></g></g></g></svg>