<svg xmlns="http://www.w3.org/2000/svg" xmlns:xlink="http://www.w3.org/1999/xlink" viewBox="0 0 30.85 56.44"><defs><style>.cls-1{fill:none;}.cls-2{isolation:isolate;}.cls-3{clip-path:url(#clip-path);}.cls-4{fill:#5ec4a5;}.cls-5{fill:#5bbfa1;}.cls-6{fill:#59ba9d;}.cls-7{fill:#57b598;}.cls-8{fill:#54b094;}.cls-9{fill:#52ab90;}.cls-10{fill:#50a78c;}.cls-11{fill:#4da288;}.cls-12{fill:#4b9d84;}.cls-13{fill:#499880;}.cls-14{fill:#46937c;}.cls-15{fill:#448e77;}.cls-16{fill:#428973;}.cls-17{fill:#3f846f;}.cls-18{fill:#3d7f6b;}.cls-19{clip-path:url(#clip-path-2);}.cls-20{clip-path:url(#clip-path-3);}.cls-21{fill:#001633;}.cls-22{fill:#001532;}.cls-23{fill:#001531;}.cls-24{fill:#00142f;}.cls-25{fill:#00132e;}.cls-26{fill:#00132d;}.cls-27{fill:#00122c;}.cls-28{fill:#00122a;}.cls-29{fill:#001129;}.cls-30{fill:#001128;}.cls-31{clip-path:url(#clip-path-4);}.cls-32{clip-path:url(#clip-path-5);}.cls-33{clip-path:url(#clip-path-6);}.cls-34{clip-path:url(#clip-path-7);}.cls-35{clip-path:url(#clip-path-8);}.cls-36{fill:#65d3b1;}.cls-37{clip-path:url(#clip-path-9);}.cls-38{fill:#3f836e;}.cls-39{fill:#001737;}.cls-40{clip-path:url(#clip-path-10);}.cls-41{fill:#000e21;}.cls-42{fill:#000f23;}.cls-43{fill:#000f24;}.cls-44{fill:#001025;}.cls-45{fill:#001026;}.cls-46{clip-path:url(#clip-path-11);}.cls-47{clip-path:url(#clip-path-12);}.cls-48{clip-path:url(#clip-path-13);}.cls-49{clip-path:url(#clip-path-14);}.cls-50{clip-path:url(#clip-path-15);}.cls-51{clip-path:url(#clip-path-16);}.cls-52{clip-path:url(#clip-path-17);}.cls-53{clip-path:url(#clip-path-18);}.cls-54{clip-path:url(#clip-path-19);}.cls-55{clip-path:url(#clip-path-20);}.cls-56{clip-path:url(#clip-path-21);}.cls-57{clip-path:url(#clip-path-22);}.cls-58{fill:#000e22;}.cls-59{clip-path:url(#clip-path-23);}.cls-60{clip-path:url(#clip-path-24);}.cls-61{clip-path:url(#clip-path-25);}.cls-62{clip-path:url(#clip-path-26);}.cls-63{fill:#fff;}.cls-64{clip-path:url(#clip-path-27);}</style><clipPath id="clip-path" transform="translate(0)"><path class="cls-1" d="M17.92,40l2.37,1.37a.78.78,0,0,1,.33.73,2.46,2.46,0,0,1-1.13,2l-2.36-1.37a2.51,2.51,0,0,0,1.12-2A.77.77,0,0,0,17.92,40Z"/></clipPath><clipPath id="clip-path-2" transform="translate(0)"><path class="cls-1" d="M25.09,27.1l2.37,1.37a.8.8,0,0,1,.33.73,2.49,2.49,0,0,1-1.13,2l-2.37-1.37a2.52,2.52,0,0,0,1.13-2A.77.77,0,0,0,25.09,27.1Z"/></clipPath><clipPath id="clip-path-3" transform="translate(0)"><path class="cls-1" d="M17.92,40l2.37,1.37a.79.79,0,0,0-.8.08L17.12,40A.79.79,0,0,1,17.92,40Z"/></clipPath><clipPath id="clip-path-4" transform="translate(0)"><path class="cls-1" d="M25.09,27.1l2.37,1.37a.81.81,0,0,0-.81.08l-2.36-1.37A.77.77,0,0,1,25.09,27.1Z"/></clipPath><clipPath id="clip-path-5" transform="translate(0)"><path class="cls-1" d="M17.91,35.6,20.28,37a.8.8,0,0,1,.33.73,2.49,2.49,0,0,1-1.13,2l-2.37-1.37a2.5,2.5,0,0,0,1.13-2A.78.78,0,0,0,17.91,35.6Z"/></clipPath><clipPath id="clip-path-6" transform="translate(0)"><path class="cls-1" d="M25.41,23.91a.8.8,0,0,0-.33-.73l2.37,1.38a.8.8,0,0,1,.33.73,2.5,2.5,0,0,1-1.13,2l-2.37-1.38A2.49,2.49,0,0,0,25.41,23.91Z"/></clipPath><clipPath id="clip-path-7" transform="translate(0)"><path class="cls-1" d="M17.91,35.6,20.28,37a.84.84,0,0,0-.81.08l-2.36-1.37A.79.79,0,0,1,17.91,35.6Z"/></clipPath><clipPath id="clip-path-8" transform="translate(0)"><path class="cls-1" d="M25.08,23.18l2.37,1.38a.81.81,0,0,0-.81.08l-2.37-1.38A.81.81,0,0,1,25.08,23.18Z"/></clipPath><clipPath id="clip-path-9" transform="translate(0)"><path class="cls-1" d="M3.83,49.93a.79.79,0,0,0,.8-.08L7,51.22a.79.79,0,0,1-.81.08Z"/></clipPath><clipPath id="clip-path-10" transform="translate(0)"><path class="cls-1" d="M6.19,51.3,3.83,49.93a.8.8,0,0,1-.34-.73,2.5,2.5,0,0,1,1.14-2L7,48.62a2.48,2.48,0,0,0-1.14,2A.8.8,0,0,0,6.19,51.3Z"/></clipPath><clipPath id="clip-path-11" transform="translate(0)"><path class="cls-1" d="M3.63,56.17,1.26,54.79A2.8,2.8,0,0,1,.09,52.23L2.46,53.6A2.82,2.82,0,0,0,3.63,56.17Z"/></clipPath><clipPath id="clip-path-12" transform="translate(0)"><path class="cls-1" d="M3.81,45.58a.81.81,0,0,0,.81-.08L7,46.87a.79.79,0,0,1-.81.08Z"/></clipPath><clipPath id="clip-path-13" transform="translate(0)"><path class="cls-1" d="M25,8.83l2.37,1.38a.8.8,0,0,1,.33.73,2.47,2.47,0,0,1-1.13,2l-2.37-1.37a2.5,2.5,0,0,0,1.13-2A.8.8,0,0,0,25,8.83Z"/></clipPath><clipPath id="clip-path-14" transform="translate(0)"><path class="cls-1" d="M25,8.83l2.37,1.38a.81.81,0,0,0-.81.07L24.23,8.91A.81.81,0,0,1,25,8.83Z"/></clipPath><clipPath id="clip-path-15" transform="translate(0)"><path class="cls-1" d="M6.18,47,3.81,45.58a.8.8,0,0,1-.33-.73,2.51,2.51,0,0,1,1.13-2L7,44.27a2.5,2.5,0,0,0-1.13,1.95A.8.8,0,0,0,6.18,47Z"/></clipPath><clipPath id="clip-path-16" transform="translate(0)"><path class="cls-1" d="M25,4.92,27.4,6.29a.8.8,0,0,1,.33.73A2.51,2.51,0,0,1,26.6,9L24.23,7.6a2.47,2.47,0,0,0,1.13-1.95A.79.79,0,0,0,25,4.92Z"/></clipPath><clipPath id="clip-path-17" transform="translate(0)"><path class="cls-1" d="M3.8,41.23a.81.81,0,0,0,.81-.08L7,42.53a.81.81,0,0,1-.81.07Z"/></clipPath><clipPath id="clip-path-18" transform="translate(0)"><path class="cls-1" d="M25,4.92,27.4,6.29a.81.81,0,0,0-.81.08L24.22,5A.81.81,0,0,1,25,4.92Z"/></clipPath><clipPath id="clip-path-19" transform="translate(0)"><path class="cls-1" d="M6.17,42.6,3.8,41.23a.8.8,0,0,1-.33-.73,2.51,2.51,0,0,1,1.13-2L7,39.92a2.49,2.49,0,0,0-1.13,2A.78.78,0,0,0,6.17,42.6Z"/></clipPath><clipPath id="clip-path-20" transform="translate(0)"><path class="cls-1" d="M3.79,37.31a.79.79,0,0,0,.81-.08L7,38.61a.81.81,0,0,1-.81.08Z"/></clipPath><clipPath id="clip-path-21" transform="translate(0)"><path class="cls-1" d="M27.22.27l2.37,1.38a2.79,2.79,0,0,0-2.84.27L24.38.55A2.82,2.82,0,0,1,27.22.27Z"/></clipPath><clipPath id="clip-path-22" transform="translate(0)"><path class="cls-1" d="M6.16,38.69,3.79,37.31a.8.8,0,0,1-.33-.73,2.47,2.47,0,0,1,1.13-1.95L7,36a2.46,2.46,0,0,0-1.13,2A.78.78,0,0,0,6.16,38.69Z"/></clipPath><clipPath id="clip-path-23" transform="translate(0)"><path class="cls-1" d="M3.75,23a.81.81,0,0,0,.81-.08l2.37,1.38a.81.81,0,0,1-.81.08Z"/></clipPath><clipPath id="clip-path-24" transform="translate(0)"><path class="cls-1" d="M6.12,24.34,3.75,23a.77.77,0,0,1-.33-.72,2.48,2.48,0,0,1,1.13-2l2.37,1.38a2.46,2.46,0,0,0-1.13,2A.78.78,0,0,0,6.12,24.34Z"/></clipPath><clipPath id="clip-path-25" transform="translate(0)"><path class="cls-1" d="M3.74,19.05A.81.81,0,0,0,4.55,19l2.37,1.37a.83.83,0,0,1-.82.08Z"/></clipPath><clipPath id="clip-path-26" transform="translate(0)"><path class="cls-1" d="M6.1,20.42,3.74,19.05a.78.78,0,0,1-.33-.73,2.46,2.46,0,0,1,1.13-2l2.37,1.37a2.53,2.53,0,0,0-1.14,2A.82.82,0,0,0,6.1,20.42Z"/></clipPath><clipPath id="clip-path-27" transform="translate(0)"><path class="cls-1" d="M2.37,20.6,0,19.22a8.75,8.75,0,0,1,4-6.89L6.35,13.7A8.76,8.76,0,0,0,2.37,20.6Z"/></clipPath></defs><title>document_5</title><g id="Layer_2" data-name="Layer 2"><g id="document_network_5"><g id="document_5"><g class="cls-2"><g class="cls-2"><g class="cls-3"><g class="cls-2"><path class="cls-4" d="M19.49,44l-2.36-1.37a2,2,0,0,0,.37-.3l2.37,1.38a1.48,1.48,0,0,1-.38.29" transform="translate(0)"/><path class="cls-5" d="M19.87,43.72,17.5,42.34l.13-.13L20,43.59l-.12.13" transform="translate(0)"/><path class="cls-6" d="M20,43.59l-2.36-1.38.09-.11,2.37,1.38-.1.11" transform="translate(0)"/><path class="cls-7" d="M20.09,43.48,17.72,42.1l.07-.1,2.37,1.37-.07.11" transform="translate(0)"/><path class="cls-8" d="M20.16,43.37,17.79,42a.61.61,0,0,0,.07-.1l2.37,1.38-.07.09" transform="translate(0)"/><path class="cls-9" d="M20.23,43.28,17.86,41.9l.06-.1,2.37,1.38-.06.1" transform="translate(0)"/><path class="cls-10" d="M20.29,43.18,17.92,41.8l0-.09,2.37,1.37-.05.1" transform="translate(0)"/><path class="cls-11" d="M20.34,43.08,18,41.71l.05-.1L20.39,43l-.05.09" transform="translate(0)"/><path class="cls-12" d="M20.39,43,18,41.61l.05-.1,2.36,1.38,0,.1" transform="translate(0)"/><path class="cls-13" d="M20.43,42.89l-2.36-1.38a.42.42,0,0,1,0-.1l2.37,1.38-.05.1" transform="translate(0)"/><path class="cls-14" d="M20.48,42.79l-2.37-1.38a.49.49,0,0,1,0-.11l2.36,1.38,0,.11" transform="translate(0)"/><path class="cls-15" d="M20.51,42.68,18.15,41.3l0-.11,2.37,1.37a.56.56,0,0,1,0,.12" transform="translate(0)"/><path class="cls-16" d="M20.55,42.56l-2.37-1.37,0-.13,2.37,1.37,0,.13" transform="translate(0)"/><path class="cls-17" d="M20.58,42.43l-2.37-1.37,0-.16,2.37,1.37,0,.16" transform="translate(0)"/><path class="cls-18" d="M20.61,42.27,18.24,40.9a1.77,1.77,0,0,0,0-.23.77.77,0,0,0-.33-.72l2.37,1.37a.78.78,0,0,1,.33.73,1.62,1.62,0,0,1,0,.22" transform="translate(0)"/></g></g></g><g class="cls-2"><g class="cls-19"><g class="cls-2"><path class="cls-4" d="M26.66,31.16l-2.37-1.37a1.79,1.79,0,0,0,.38-.3L27,30.87a1.67,1.67,0,0,1-.38.29" transform="translate(0)"/><path class="cls-5" d="M27,30.87l-2.37-1.38.12-.13,2.37,1.38-.12.13" transform="translate(0)"/><path class="cls-6" d="M27.16,30.74l-2.37-1.38a.48.48,0,0,0,.09-.11l2.37,1.38-.09.11" transform="translate(0)"/><path class="cls-7" d="M27.25,30.63l-2.37-1.38.08-.1,2.37,1.37-.08.11" transform="translate(0)"/><path class="cls-8" d="M27.33,30.52,25,29.15a.61.61,0,0,1,.07-.1l2.36,1.38-.06.09" transform="translate(0)"/><path class="cls-9" d="M27.39,30.43,25,29.05a.31.31,0,0,0,0-.1l2.37,1.38-.06.1" transform="translate(0)"/><path class="cls-10" d="M27.45,30.33,25.08,29l.06-.09,2.37,1.37-.06.1" transform="translate(0)"/><path class="cls-11" d="M27.51,30.23l-2.37-1.37s0-.07.05-.1l2.37,1.38a.41.41,0,0,0,0,.09" transform="translate(0)"/><path class="cls-12" d="M27.56,30.14l-2.37-1.38a1,1,0,0,0,0-.1L27.6,30a1,1,0,0,0,0,.1" transform="translate(0)"/><path class="cls-13" d="M27.6,30l-2.37-1.38a.42.42,0,0,0,0-.1l2.37,1.38,0,.1" transform="translate(0)"/><path class="cls-14" d="M27.64,29.94l-2.37-1.38a.49.49,0,0,0,0-.11l2.37,1.38a.49.49,0,0,1,0,.11" transform="translate(0)"/><path class="cls-15" d="M27.68,29.83l-2.37-1.38a.49.49,0,0,0,0-.11l2.37,1.37s0,.08,0,.12" transform="translate(0)"/><path class="cls-16" d="M27.72,29.71l-2.37-1.37,0-.13,2.37,1.37,0,.13" transform="translate(0)"/><path class="cls-17" d="M27.75,29.58l-2.37-1.37,0-.16,2.37,1.37,0,.16" transform="translate(0)"/><path class="cls-18" d="M27.78,29.42l-2.37-1.37a1.77,1.77,0,0,0,0-.23.77.77,0,0,0-.33-.72l2.37,1.37a.8.8,0,0,1,.33.73,1.62,1.62,0,0,1,0,.22" transform="translate(0)"/></g></g></g><g class="cls-2"><g class="cls-20"><g class="cls-2"><path class="cls-21" d="M19.49,41.4,17.12,40l.16-.08,2.37,1.37-.16.08" transform="translate(0)"/><path class="cls-22" d="M19.65,41.32,17.28,40l.13-.05,2.37,1.38-.13,0" transform="translate(0)"/><path class="cls-23" d="M19.78,41.28,17.41,39.9l.1,0,2.37,1.38-.1,0" transform="translate(0)"/><path class="cls-24" d="M19.88,41.26l-2.37-1.38h.09L20,41.25h-.08" transform="translate(0)"/><path class="cls-25" d="M20,41.25,17.6,39.87h.07L20,41.25H20" transform="translate(0)"/><path class="cls-26" d="M20,41.25l-2.37-1.38h.07l2.37,1.38H20" transform="translate(0)"/><path class="cls-27" d="M20.11,41.26l-2.37-1.38.06,0,2.37,1.37h-.06" transform="translate(0)"/><path class="cls-28" d="M20.17,41.27,17.8,39.9l.06,0,2.37,1.37-.06,0" transform="translate(0)"/><path class="cls-29" d="M20.23,41.29l-2.37-1.37.06,0,2.37,1.38-.06,0" transform="translate(0)"/><polyline class="cls-30" points="20.29 41.32 17.92 39.94 17.93 39.95 20.29 41.32 20.29 41.32"/></g></g></g><g class="cls-2"><g class="cls-31"><g class="cls-2"><path class="cls-21" d="M26.65,28.55l-2.36-1.37.15-.08,2.37,1.37-.16.08" transform="translate(0)"/><path class="cls-22" d="M26.81,28.47,24.44,27.1l.14-.05L27,28.43l-.14,0" transform="translate(0)"/><path class="cls-23" d="M27,28.43l-2.37-1.38.1,0,2.37,1.38-.1,0" transform="translate(0)"/><path class="cls-24" d="M27.05,28.41,24.68,27h.08l2.37,1.38h-.08" transform="translate(0)"/><path class="cls-25" d="M27.13,28.4,24.76,27h.08l2.37,1.38h-.08" transform="translate(0)"/><path class="cls-26" d="M27.21,28.4,24.84,27h.07l2.36,1.38h-.06" transform="translate(0)"/><path class="cls-27" d="M27.27,28.41,24.91,27l.06,0,2.37,1.37h-.07" transform="translate(0)"/><path class="cls-28" d="M27.34,28.42,25,27.05l.06,0,2.37,1.37-.06,0" transform="translate(0)"/><path class="cls-29" d="M27.4,28.44,25,27.07l.06,0,2.36,1.38-.05,0" transform="translate(0)"/><polyline class="cls-30" points="27.45 28.47 25.09 27.09 25.09 27.1 27.46 28.47 27.45 28.47"/></g></g></g><g class="cls-2"><g class="cls-32"><g class="cls-2"><path class="cls-4" d="M19.48,39.66l-2.37-1.37a1.79,1.79,0,0,0,.38-.3l2.37,1.38a1.67,1.67,0,0,1-.38.29" transform="translate(0)"/><path class="cls-5" d="M19.86,39.37,17.49,38l.12-.13L20,39.24l-.12.13" transform="translate(0)"/><path class="cls-6" d="M20,39.24l-2.37-1.38a.52.52,0,0,0,.1-.11l2.36,1.38-.09.11" transform="translate(0)"/><path class="cls-7" d="M20.07,39.13l-2.36-1.38.07-.1L20.15,39l-.08.1" transform="translate(0)"/><path class="cls-8" d="M20.15,39l-2.37-1.38.07-.1,2.36,1.38-.06.1" transform="translate(0)"/><path class="cls-9" d="M20.21,38.93l-2.36-1.38.06-.1,2.36,1.38a.53.53,0,0,1-.06.1" transform="translate(0)"/><path class="cls-10" d="M20.27,38.83l-2.36-1.38a.41.41,0,0,1,.05-.09l2.37,1.38-.06.09" transform="translate(0)"/><path class="cls-11" d="M20.33,38.74,18,37.36s0-.07.05-.1l2.37,1.38a.31.31,0,0,0-.05.1" transform="translate(0)"/><path class="cls-12" d="M20.38,38.64,18,37.26a1,1,0,0,0,0-.1l2.37,1.38,0,.1" transform="translate(0)"/><path class="cls-13" d="M20.42,38.54l-2.37-1.38a.3.3,0,0,0,0-.1l2.37,1.38a.42.42,0,0,1,0,.1" transform="translate(0)"/><path class="cls-14" d="M20.46,38.44l-2.37-1.38a.36.36,0,0,0,0-.11l2.37,1.38a.49.49,0,0,1,0,.11" transform="translate(0)"/><path class="cls-15" d="M20.5,38.33,18.13,37a.36.36,0,0,0,0-.11l2.37,1.37s0,.08,0,.12" transform="translate(0)"/><path class="cls-16" d="M20.54,38.21l-2.37-1.37,0-.13,2.37,1.37,0,.13" transform="translate(0)"/><path class="cls-17" d="M20.57,38.08,18.2,36.71l0-.16,2.37,1.37,0,.16" transform="translate(0)"/><path class="cls-18" d="M20.6,37.92l-2.37-1.37a1.7,1.7,0,0,0,0-.22.78.78,0,0,0-.33-.73L20.28,37a.8.8,0,0,1,.33.73,1.55,1.55,0,0,1,0,.22" transform="translate(0)"/></g></g></g><g class="cls-2"><g class="cls-33"><g class="cls-2"><path class="cls-4" d="M26.65,27.25l-2.37-1.38a2.55,2.55,0,0,0,.38-.29L27,27a2.08,2.08,0,0,1-.38.3" transform="translate(0)"/><path class="cls-5" d="M27,27l-2.37-1.37.12-.13,2.37,1.37L27,27" transform="translate(0)"/><path class="cls-6" d="M27.15,26.82l-2.37-1.37.09-.11,2.37,1.37-.09.11" transform="translate(0)"/><path class="cls-7" d="M27.24,26.71l-2.37-1.37.08-.11,2.37,1.38-.08.1" transform="translate(0)"/><path class="cls-8" d="M27.32,26.61,25,25.23l.06-.1,2.37,1.38-.06.1" transform="translate(0)"/><path class="cls-9" d="M27.38,26.51,25,25.13a.47.47,0,0,0,.06-.09l2.37,1.38-.06.09" transform="translate(0)"/><path class="cls-10" d="M27.44,26.42,25.07,25l.06-.1,2.37,1.38-.06.1" transform="translate(0)"/><path class="cls-11" d="M27.5,26.32l-2.37-1.38a.41.41,0,0,1,.05-.09l2.36,1.37a1,1,0,0,1,0,.1" transform="translate(0)"/><path class="cls-12" d="M27.54,26.22l-2.36-1.37a1,1,0,0,1,0-.1l2.37,1.37a.31.31,0,0,1-.05.1" transform="translate(0)"/><path class="cls-13" d="M27.59,26.12l-2.37-1.37,0-.1L27.63,26a1,1,0,0,1,0,.1" transform="translate(0)"/><path class="cls-14" d="M27.63,26l-2.37-1.37a.76.76,0,0,0,0-.11l2.37,1.37a.36.36,0,0,1,0,.11" transform="translate(0)"/><path class="cls-15" d="M27.67,25.91,25.3,24.54s0-.08,0-.12l2.37,1.38a.76.76,0,0,0,0,.11" transform="translate(0)"/><path class="cls-16" d="M27.71,25.8l-2.37-1.38,0-.13,2.37,1.38,0,.13" transform="translate(0)"/><path class="cls-17" d="M27.74,25.67l-2.37-1.38,0-.16,2.36,1.38a1,1,0,0,1,0,.16" transform="translate(0)"/><path class="cls-18" d="M27.76,25.51,25.4,24.13a1.62,1.62,0,0,0,0-.22.8.8,0,0,0-.33-.73l2.37,1.38a.8.8,0,0,1,.33.73,1.8,1.8,0,0,1,0,.22" transform="translate(0)"/></g></g></g><g class="cls-2"><g class="cls-34"><g class="cls-2"><path class="cls-21" d="M19.47,37.05l-2.36-1.37a.8.8,0,0,1,.16-.08L19.63,37l-.16.07" transform="translate(0)"/><path class="cls-22" d="M19.63,37,17.27,35.6l.13-.05,2.37,1.38-.14,0" transform="translate(0)"/><path class="cls-23" d="M19.77,36.93,17.4,35.55l.1,0,2.37,1.38-.1,0" transform="translate(0)"/><path class="cls-24" d="M19.87,36.91,17.5,35.53h.08L20,36.9h-.08" transform="translate(0)"/><path class="cls-25" d="M20,36.9l-2.37-1.38h.08L20,36.9H20" transform="translate(0)"/><path class="cls-26" d="M20,36.9l-2.37-1.38h.07l2.36,1.38H20" transform="translate(0)"/><path class="cls-27" d="M20.09,36.91l-2.36-1.38.06,0,2.37,1.37h-.07" transform="translate(0)"/><path class="cls-28" d="M20.16,36.92l-2.37-1.37.06,0,2.37,1.37-.06,0" transform="translate(0)"/><path class="cls-29" d="M20.22,36.94l-2.37-1.37s0,0,.06,0L20.27,37l-.05,0" transform="translate(0)"/><polyline class="cls-30" points="20.27 36.97 17.91 35.59 17.91 35.6 20.28 36.98 20.27 36.97"/></g></g></g><g class="cls-2"><g class="cls-35"><g class="cls-2"><path class="cls-21" d="M26.64,24.64l-2.37-1.38.16-.08,2.37,1.38-.16.08" transform="translate(0)"/><path class="cls-22" d="M26.8,24.56l-2.37-1.38.14,0,2.37,1.37-.14,0" transform="translate(0)"/><path class="cls-23" d="M26.94,24.51l-2.37-1.37.1,0L27,24.49l-.1,0" transform="translate(0)"/><path class="cls-24" d="M27,24.49l-2.37-1.37h.08l2.37,1.37H27" transform="translate(0)"/><path class="cls-25" d="M27.12,24.48l-2.37-1.37h.08l2.36,1.37h-.07" transform="translate(0)"/><path class="cls-26" d="M27.19,24.48l-2.36-1.37h.06l2.37,1.37h-.07" transform="translate(0)"/><path class="cls-27" d="M27.26,24.49l-2.37-1.37H25l2.37,1.38-.07,0" transform="translate(0)"/><path class="cls-28" d="M27.33,24.51,25,23.13l.06,0,2.37,1.38-.06,0" transform="translate(0)"/><path class="cls-29" d="M27.39,24.53,25,23.15l.05,0,2.37,1.38-.05,0" transform="translate(0)"/><polyline class="cls-30" points="27.44 24.55 25.07 23.18 25.08 23.18 27.45 24.56 27.44 24.55"/></g></g></g><polygon class="cls-36" points="7 51.22 4.63 49.85 17.13 42.63 19.49 44.01 7 51.22"/><g class="cls-2"><g class="cls-37"><g class="cls-2"><polyline class="cls-13" points="6.19 51.3 3.83 49.93 3.83 49.93 6.2 51.31 6.19 51.3"/><path class="cls-12" d="M6.2,51.31,3.83,49.93l.06,0,2.37,1.37-.06,0" transform="translate(0)"/><path class="cls-11" d="M6.26,51.33,3.89,50,4,50l2.37,1.37-.06,0" transform="translate(0)"/><path class="cls-10" d="M6.32,51.35,4,50H4l2.37,1.38-.06,0" transform="translate(0)"/><path class="cls-9" d="M6.38,51.37,4,50h.07l2.37,1.38H6.38" transform="translate(0)"/><path class="cls-8" d="M6.45,51.38,4.08,50h.08l2.37,1.38H6.45" transform="translate(0)"/><path class="cls-7" d="M6.53,51.38,4.16,50h.08l2.37,1.38H6.53" transform="translate(0)"/><path class="cls-6" d="M6.61,51.37,4.24,50l.1,0,2.37,1.38-.1,0" transform="translate(0)"/><path class="cls-5" d="M6.71,51.35,4.34,50l.14,0L6.84,51.3l-.13.05" transform="translate(0)"/><path class="cls-4" d="M6.84,51.3,4.48,49.93l.15-.08L7,51.22a.8.8,0,0,1-.16.08" transform="translate(0)"/></g></g></g><polygon class="cls-38" points="27.77 22.68 25.4 21.3 25.38 12.17 27.75 13.55 27.77 22.68"/><polygon class="cls-39" points="7 48.62 4.63 47.24 17.12 40.03 19.49 41.4 7 48.62"/><g class="cls-2"><g class="cls-40"><g class="cls-2"><path class="cls-41" d="M6.19,51.3,3.83,49.93a.8.8,0,0,1-.34-.73,1.5,1.5,0,0,1,0-.22l2.37,1.37a1.8,1.8,0,0,0,0,.22.8.8,0,0,0,.33.73" transform="translate(0)"/><path class="cls-42" d="M5.88,50.35,3.51,49a.78.78,0,0,1,0-.16L5.9,50.2a.77.77,0,0,0,0,.15" transform="translate(0)"/><path class="cls-43" d="M5.9,50.2,3.53,48.82a.65.65,0,0,1,0-.13l2.36,1.38,0,.13" transform="translate(0)"/><path class="cls-44" d="M5.93,50.07,3.57,48.69l0-.11L6,50a.56.56,0,0,1,0,.12" transform="translate(0)"/><path class="cls-45" d="M6,50,3.6,48.58s0-.08,0-.11L6,49.84A.76.76,0,0,0,6,50" transform="translate(0)"/><path class="cls-30" d="M6,49.84,3.64,48.47a1,1,0,0,1,0-.1l2.37,1.37a1,1,0,0,1,0,.1" transform="translate(0)"/><path class="cls-29" d="M6.05,49.74,3.68,48.37a.93.93,0,0,1,0-.1l2.36,1.37a1,1,0,0,1,0,.1" transform="translate(0)"/><path class="cls-28" d="M6.09,49.64,3.73,48.27l0-.1,2.36,1.38a.41.41,0,0,1,0,.09" transform="translate(0)"/><path class="cls-27" d="M6.14,49.55,3.78,48.17a.41.41,0,0,1,.05-.09L6.2,49.45l-.06.1" transform="translate(0)"/><path class="cls-26" d="M6.2,49.45,3.83,48.08l.06-.1,2.37,1.38-.06.09" transform="translate(0)"/><path class="cls-25" d="M6.26,49.36,3.89,48l.06-.1,2.37,1.38-.06.1" transform="translate(0)"/><path class="cls-24" d="M6.32,49.26,4,47.88l.08-.1L6.4,49.16l-.08.1" transform="translate(0)"/><path class="cls-23" d="M6.4,49.16,4,47.78l.09-.11L6.49,49l-.09.12" transform="translate(0)"/><path class="cls-22" d="M6.49,49,4.12,47.67l.13-.14,2.36,1.38L6.49,49" transform="translate(0)"/><path class="cls-21" d="M6.61,48.91,4.25,47.53a2.12,2.12,0,0,1,.38-.29L7,48.62a1.52,1.52,0,0,0-.39.29" transform="translate(0)"/></g></g></g><path class="cls-23" d="M19.49,41.4c.62-.36,1.13-.07,1.13.65a2.46,2.46,0,0,1-1.13,2L7,51.22c-.62.37-1.14.07-1.14-.65a2.48,2.48,0,0,1,1.14-2Z" transform="translate(0)"/><polygon class="cls-36" points="6.99 46.88 4.62 45.5 17.11 38.29 19.48 39.66 6.99 46.88"/><g class="cls-2"><g class="cls-46"><g class="cls-2"><path class="cls-18" d="M3.63,56.17,1.26,54.79A2.8,2.8,0,0,1,.09,52.23L2.46,53.6a2.82,2.82,0,0,0,1.17,2.57" transform="translate(0)"/></g></g></g><g class="cls-2"><g class="cls-47"><g class="cls-2"><polyline class="cls-13" points="6.18 46.95 3.81 45.58 3.82 45.58 6.19 46.96 6.18 46.95"/><path class="cls-12" d="M6.19,47,3.82,45.58l.06,0L6.25,47l-.06,0" transform="translate(0)"/><path class="cls-11" d="M6.25,47,3.88,45.61l.06,0L6.31,47l-.06,0" transform="translate(0)"/><path class="cls-10" d="M6.31,47,3.94,45.63H4L6.37,47H6.31" transform="translate(0)"/><path class="cls-9" d="M6.37,47,4,45.64h.07L6.44,47H6.37" transform="translate(0)"/><path class="cls-8" d="M6.44,47,4.07,45.65h.08L6.51,47H6.44" transform="translate(0)"/><path class="cls-7" d="M6.51,47,4.15,45.65h.08L6.6,47H6.51" transform="translate(0)"/><path class="cls-6" d="M6.6,47,4.23,45.64l.1,0L6.7,47l-.1,0" transform="translate(0)"/><path class="cls-5" d="M6.7,47,4.33,45.62l.13,0L6.83,47,6.7,47" transform="translate(0)"/><path class="cls-4" d="M6.83,47,4.46,45.58a.8.8,0,0,0,.16-.08L7,46.87a.6.6,0,0,1-.16.08" transform="translate(0)"/></g></g></g><g class="cls-2"><g class="cls-48"><g class="cls-2"><path class="cls-4" d="M26.61,12.89l-2.37-1.37a2.08,2.08,0,0,0,.38-.3L27,12.6a1.67,1.67,0,0,1-.38.29" transform="translate(0)"/><path class="cls-5" d="M27,12.6l-2.37-1.38.12-.13,2.37,1.38L27,12.6" transform="translate(0)"/><path class="cls-6" d="M27.11,12.47l-2.37-1.38.1-.11,2.36,1.38-.09.11" transform="translate(0)"/><path class="cls-7" d="M27.2,12.36,24.84,11l.07-.1,2.37,1.37a.76.76,0,0,1-.08.11" transform="translate(0)"/><path class="cls-8" d="M27.28,12.25l-2.37-1.37.07-.1,2.37,1.38-.07.09" transform="translate(0)"/><path class="cls-9" d="M27.35,12.16,25,10.78l.06-.1,2.36,1.38a.93.93,0,0,0,0,.1" transform="translate(0)"/><path class="cls-10" d="M27.4,12.06,25,10.68a.41.41,0,0,1,.05-.09L27.46,12l-.06.09" transform="translate(0)"/><path class="cls-11" d="M27.46,12l-2.37-1.38.05-.1,2.37,1.38a.31.31,0,0,0-.05.1" transform="translate(0)"/><path class="cls-12" d="M27.51,11.87l-2.37-1.38a1,1,0,0,0,0-.1l2.37,1.38,0,.1" transform="translate(0)"/><path class="cls-13" d="M27.55,11.77l-2.37-1.38a.3.3,0,0,0,0-.1l2.37,1.38,0,.1" transform="translate(0)"/><path class="cls-14" d="M27.59,11.67l-2.37-1.38a.42.42,0,0,0,0-.1l2.37,1.37a.49.49,0,0,1,0,.11" transform="translate(0)"/><path class="cls-15" d="M27.63,11.56l-2.37-1.37s0-.08,0-.12l2.37,1.38a.49.49,0,0,0,0,.11" transform="translate(0)"/><path class="cls-16" d="M27.67,11.45,25.3,10.07l0-.13,2.37,1.38,0,.13" transform="translate(0)"/><path class="cls-17" d="M27.7,11.32,25.33,9.94l0-.16,2.36,1.38a1,1,0,0,1,0,.16" transform="translate(0)"/><path class="cls-18" d="M27.72,11.16,25.36,9.78a1.62,1.62,0,0,0,0-.22A.8.8,0,0,0,25,8.83l2.37,1.38a.8.8,0,0,1,.33.73,1.8,1.8,0,0,1,0,.22" transform="translate(0)"/></g></g></g><polygon class="cls-39" points="6.98 44.27 4.62 42.89 17.11 35.68 19.47 37.05 6.98 44.27"/><g class="cls-2"><g class="cls-49"><g class="cls-2"><path class="cls-21" d="M26.6,10.28,24.23,8.91l.16-.08,2.37,1.38-.16.07" transform="translate(0)"/><path class="cls-22" d="M26.76,10.21,24.39,8.83l.13-.05,2.37,1.38-.13.05" transform="translate(0)"/><path class="cls-23" d="M26.89,10.16,24.52,8.78l.1,0L27,10.14l-.1,0" transform="translate(0)"/><path class="cls-24" d="M27,10.14,24.62,8.76h.09l2.37,1.38H27" transform="translate(0)"/><path class="cls-25" d="M27.08,10.13,24.71,8.75h.07l2.37,1.38h-.07" transform="translate(0)"/><path class="cls-26" d="M27.15,10.13,24.78,8.75h.07l2.37,1.38h-.07" transform="translate(0)"/><path class="cls-27" d="M27.22,10.14,24.85,8.76l.06,0,2.37,1.37h-.06" transform="translate(0)"/><path class="cls-28" d="M27.28,10.15,24.91,8.78a.08.08,0,0,1,.06,0l2.37,1.38-.06,0" transform="translate(0)"/><path class="cls-29" d="M27.34,10.18,25,8.8l.06,0L27.4,10.2l-.06,0" transform="translate(0)"/><polyline class="cls-30" points="27.4 10.2 25.03 8.83 25.04 8.83 27.41 10.21 27.4 10.2"/></g></g></g><g class="cls-2"><g class="cls-50"><g class="cls-2"><path class="cls-41" d="M6.18,47,3.81,45.58a.8.8,0,0,1-.33-.73,1.64,1.64,0,0,1,0-.22L5.86,46a1.7,1.7,0,0,0,0,.22.8.8,0,0,0,.33.73" transform="translate(0)"/><path class="cls-42" d="M5.86,46,3.5,44.63a.88.88,0,0,1,0-.16l2.37,1.38,0,.15" transform="translate(0)"/><path class="cls-43" d="M5.89,45.85,3.52,44.47l0-.13,2.37,1.38,0,.13" transform="translate(0)"/><path class="cls-44" d="M5.92,45.72,3.55,44.34s0-.08,0-.11L6,45.6a.56.56,0,0,0,0,.12" transform="translate(0)"/><path class="cls-45" d="M6,45.6,3.59,44.23a.49.49,0,0,1,0-.11L6,45.5a.42.42,0,0,0,0,.1" transform="translate(0)"/><path class="cls-30" d="M6,45.5,3.63,44.12a.42.42,0,0,1,0-.1L6,45.39a.49.49,0,0,0,0,.11" transform="translate(0)"/><path class="cls-29" d="M6,45.39,3.67,44l0-.1L6.08,45.3l0,.09" transform="translate(0)"/><path class="cls-28" d="M6.08,45.3,3.71,43.92a.31.31,0,0,0,0-.1L6.13,45.2a.93.93,0,0,0,0,.1" transform="translate(0)"/><path class="cls-27" d="M6.13,45.2,3.76,43.82l.06-.09L6.18,45.1a.31.31,0,0,1,0,.1" transform="translate(0)"/><path class="cls-26" d="M6.18,45.1,3.82,43.73a.53.53,0,0,1,.06-.1L6.24,45l-.06.09" transform="translate(0)"/><path class="cls-25" d="M6.24,45,3.88,43.63l.06-.1,2.37,1.38a.86.86,0,0,0-.07.1" transform="translate(0)"/><path class="cls-24" d="M6.31,44.91,3.94,43.53l.08-.1,2.37,1.38a.39.39,0,0,0-.08.1" transform="translate(0)"/><path class="cls-23" d="M6.39,44.81,4,43.43l.09-.11,2.37,1.37a.94.94,0,0,0-.09.12" transform="translate(0)"/><path class="cls-22" d="M6.48,44.69,4.11,43.32l.12-.14L6.6,44.56l-.12.13" transform="translate(0)"/><path class="cls-21" d="M6.6,44.56,4.23,43.18a2.55,2.55,0,0,1,.38-.29L7,44.27a1.67,1.67,0,0,0-.38.29" transform="translate(0)"/></g></g></g><path class="cls-23" d="M19.47,37.05c.63-.36,1.14-.07,1.14.65a2.49,2.49,0,0,1-1.13,2L7,46.87c-.63.37-1.14.07-1.14-.65A2.5,2.5,0,0,1,7,44.27Z" transform="translate(0)"/><polygon class="cls-36" points="6.98 42.53 4.61 41.15 24.29 29.79 26.66 31.16 6.98 42.53"/><g class="cls-2"><g class="cls-51"><g class="cls-2"><path class="cls-4" d="M26.6,9,24.23,7.6a2.55,2.55,0,0,0,.38-.29L27,8.68a2.08,2.08,0,0,1-.38.3" transform="translate(0)"/><path class="cls-5" d="M27,8.68,24.61,7.31l.12-.13L27.1,8.55,27,8.68" transform="translate(0)"/><path class="cls-6" d="M27.1,8.55,24.73,7.18a.94.94,0,0,0,.09-.12l2.37,1.38-.09.11" transform="translate(0)"/><path class="cls-7" d="M27.19,8.44,24.82,7.06A.39.39,0,0,0,24.9,7l2.37,1.38-.08.1" transform="translate(0)"/><path class="cls-8" d="M27.27,8.34,24.9,7l.07-.1,2.36,1.38-.06.1" transform="translate(0)"/><path class="cls-9" d="M27.33,8.24,25,6.86A.41.41,0,0,0,25,6.77l2.37,1.38-.06.09" transform="translate(0)"/><path class="cls-10" d="M27.39,8.15,25,6.77l.06-.1,2.37,1.38-.06.1" transform="translate(0)"/><path class="cls-11" d="M27.45,8.05,25.08,6.67a.41.41,0,0,1,.05-.09L27.49,8a1,1,0,0,1,0,.1" transform="translate(0)"/><path class="cls-12" d="M27.49,8,25.13,6.58l0-.1,2.37,1.38L27.49,8" transform="translate(0)"/><path class="cls-13" d="M27.54,7.86,25.17,6.48a.42.42,0,0,0,0-.1l2.37,1.37s0,.07,0,.11" transform="translate(0)"/><path class="cls-14" d="M27.58,7.75,25.21,6.38a.49.49,0,0,0,0-.11l2.37,1.38,0,.1" transform="translate(0)"/><path class="cls-15" d="M27.62,7.65,25.25,6.27s0-.08,0-.11l2.36,1.37,0,.12" transform="translate(0)"/><path class="cls-16" d="M27.65,7.53,25.29,6.16l0-.13L27.69,7.4a.5.5,0,0,1,0,.13" transform="translate(0)"/><path class="cls-17" d="M27.69,7.4,25.32,6a1,1,0,0,0,0-.16l2.37,1.37a.78.78,0,0,1,0,.16" transform="translate(0)"/><path class="cls-18" d="M27.71,7.24,25.34,5.87a1.8,1.8,0,0,0,0-.22A.79.79,0,0,0,25,4.92L27.4,6.29a.8.8,0,0,1,.33.73,1.5,1.5,0,0,1,0,.22" transform="translate(0)"/></g></g></g><g class="cls-2"><g class="cls-52"><g class="cls-2"><polyline class="cls-13" points="6.17 42.6 3.8 41.23 3.81 41.23 6.18 42.61 6.17 42.6"/><path class="cls-12" d="M6.18,42.61,3.81,41.23l0,0,2.37,1.38-.05,0" transform="translate(0)"/><path class="cls-11" d="M6.23,42.64,3.86,41.26l.06,0,2.37,1.38-.06,0" transform="translate(0)"/><path class="cls-10" d="M6.29,42.66,3.92,41.28l.07,0,2.37,1.37H6.29" transform="translate(0)"/><path class="cls-9" d="M6.36,42.67,4,41.3h.07l2.37,1.38H6.36" transform="translate(0)"/><path class="cls-8" d="M6.43,42.68,4.06,41.3s.05,0,.07,0L6.5,42.68H6.43" transform="translate(0)"/><path class="cls-7" d="M6.5,42.68,4.13,41.3h.09l2.37,1.37H6.5" transform="translate(0)"/><path class="cls-6" d="M6.59,42.67,4.22,41.3l.1,0,2.37,1.38-.1,0" transform="translate(0)"/><path class="cls-5" d="M6.69,42.65,4.32,41.27l.13,0L6.82,42.6l-.13,0" transform="translate(0)"/><path class="cls-4" d="M6.82,42.6,4.45,41.23l.16-.08L7,42.53l-.16.07" transform="translate(0)"/></g></g></g><g class="cls-2"><g class="cls-53"><g class="cls-2"><path class="cls-21" d="M26.59,6.37,24.22,5l.16-.08,2.37,1.38-.16.08" transform="translate(0)"/><path class="cls-22" d="M26.75,6.29,24.38,4.91l.13,0,2.37,1.38-.13,0" transform="translate(0)"/><path class="cls-23" d="M26.88,6.25,24.51,4.87l.1,0L27,6.22l-.1,0" transform="translate(0)"/><path class="cls-24" d="M27,6.22,24.61,4.85h.09l2.37,1.38H27" transform="translate(0)"/><path class="cls-25" d="M27.07,6.22,24.7,4.84h.07l2.37,1.38h-.07" transform="translate(0)"/><path class="cls-26" d="M27.14,6.22,24.77,4.84h.07l2.37,1.37h-.07" transform="translate(0)"/><path class="cls-27" d="M27.21,6.22,24.84,4.85h.06l2.37,1.38-.06,0" transform="translate(0)"/><path class="cls-28" d="M27.27,6.24,24.9,4.86l.06,0,2.37,1.38-.06,0" transform="translate(0)"/><path class="cls-29" d="M27.33,6.26,25,4.88l.06,0,2.37,1.38-.06,0" transform="translate(0)"/><polyline class="cls-30" points="27.39 6.29 25.02 4.91 25.03 4.92 27.39 6.29 27.39 6.29"/></g></g></g><polygon class="cls-39" points="6.97 39.92 4.6 38.54 24.29 27.18 26.65 28.55 6.97 39.92"/><g class="cls-2"><g class="cls-54"><g class="cls-2"><path class="cls-41" d="M6.17,42.6,3.8,41.23a.8.8,0,0,1-.33-.73,1.62,1.62,0,0,1,0-.22l2.37,1.37a1.77,1.77,0,0,0,0,.23.78.78,0,0,0,.33.72" transform="translate(0)"/><path class="cls-42" d="M5.85,41.65,3.48,40.28l0-.16L5.88,41.5l0,.15" transform="translate(0)"/><path class="cls-43" d="M5.88,41.5,3.51,40.12l0-.13,2.37,1.38,0,.13" transform="translate(0)"/><path class="cls-44" d="M5.91,41.37,3.54,40a.49.49,0,0,1,0-.11L6,41.25a.56.56,0,0,0,0,.12" transform="translate(0)"/><path class="cls-45" d="M6,41.25,3.58,39.88a.49.49,0,0,1,0-.11L6,41.15l0,.1" transform="translate(0)"/><path class="cls-30" d="M6,41.15,3.62,39.77a.42.42,0,0,1,0-.1L6,41.05l0,.1" transform="translate(0)"/><path class="cls-29" d="M6,41.05,3.66,39.67l0-.1L6.07,41a.3.3,0,0,0,0,.1" transform="translate(0)"/><path class="cls-28" d="M6.07,41,3.7,39.57l0-.1,2.37,1.38,0,.1" transform="translate(0)"/><path class="cls-27" d="M6.12,40.85,3.75,39.47a.41.41,0,0,0,0-.09l2.37,1.38,0,.09" transform="translate(0)"/><path class="cls-26" d="M6.17,40.76,3.8,39.38l.06-.1,2.37,1.38-.06.1" transform="translate(0)"/><path class="cls-25" d="M6.23,40.66,3.86,39.28a.86.86,0,0,0,.07-.1L6.3,40.56a.61.61,0,0,0-.07.1" transform="translate(0)"/><path class="cls-24" d="M6.3,40.56,3.93,39.18l.07-.1,2.37,1.38-.07.1" transform="translate(0)"/><path class="cls-23" d="M6.37,40.46,4,39.08,4.1,39l2.37,1.38a.52.52,0,0,0-.1.11" transform="translate(0)"/><path class="cls-22" d="M6.47,40.35,4.1,39l.12-.13,2.37,1.37-.12.14" transform="translate(0)"/><path class="cls-21" d="M6.59,40.21,4.22,38.84a2.08,2.08,0,0,1,.38-.3L7,39.92a1.67,1.67,0,0,0-.38.29" transform="translate(0)"/></g></g></g><path class="cls-23" d="M26.65,28.55c.63-.36,1.14-.07,1.14.65a2.49,2.49,0,0,1-1.13,2L7,42.53c-.63.36-1.14.07-1.14-.65a2.49,2.49,0,0,1,1.13-2Z" transform="translate(0)"/><polygon class="cls-36" points="6.97 38.61 4.6 37.23 24.28 25.87 26.65 27.25 6.97 38.61"/><g class="cls-2"><g class="cls-55"><g class="cls-2"><polyline class="cls-13" points="6.16 38.69 3.79 37.31 3.8 37.32 6.17 38.69 6.16 38.69"/><path class="cls-12" d="M6.16,38.69,3.8,37.32l.05,0,2.37,1.38-.06,0" transform="translate(0)"/><path class="cls-11" d="M6.22,38.72,3.85,37.34l.06,0,2.37,1.37-.06,0" transform="translate(0)"/><path class="cls-10" d="M6.28,38.74,3.91,37.37H4l2.37,1.38-.07,0" transform="translate(0)"/><path class="cls-9" d="M6.35,38.76,4,37.38h.07l2.37,1.37H6.35" transform="translate(0)"/><path class="cls-8" d="M6.42,38.76,4.05,37.39h.07l2.37,1.38H6.42" transform="translate(0)"/><path class="cls-7" d="M6.49,38.77,4.12,37.39h.09l2.37,1.38H6.49" transform="translate(0)"/><path class="cls-6" d="M6.58,38.76,4.21,37.38l.1,0,2.37,1.38-.1,0" transform="translate(0)"/><path class="cls-5" d="M6.68,38.74,4.31,37.36l.13,0,2.37,1.38-.13.05" transform="translate(0)"/><path class="cls-4" d="M6.81,38.69,4.44,37.31a.79.79,0,0,0,.16-.08L7,38.61l-.16.08" transform="translate(0)"/></g></g></g><polygon class="cls-39" points="6.96 36 4.59 34.63 24.27 23.26 26.64 24.64 6.96 36"/><g class="cls-2"><g class="cls-56"><g class="cls-2"><path class="cls-4" d="M26.75,1.92,24.38.55a4.87,4.87,0,0,1,.56-.28L27.3,1.65a4,4,0,0,0-.55.27" transform="translate(0)"/><path class="cls-5" d="M27.3,1.65,24.94.27a2.9,2.9,0,0,1,.47-.16l2.37,1.37a4.59,4.59,0,0,0-.48.17" transform="translate(0)"/><path class="cls-6" d="M27.78,1.48,25.41.11,25.76,0l2.37,1.38-.35.07" transform="translate(0)"/><path class="cls-7" d="M28.13,1.41,25.76,0l.3,0,2.36,1.38-.29,0" transform="translate(0)"/><path class="cls-8" d="M28.42,1.38,26.06,0h.26l2.37,1.38h-.27" transform="translate(0)"/><path class="cls-9" d="M28.69,1.38,26.32,0l.24,0,2.37,1.38-.24,0" transform="translate(0)"/><path class="cls-10" d="M28.93,1.41,26.56,0l.23.05,2.36,1.38-.22-.05" transform="translate(0)"/><path class="cls-11" d="M29.15,1.46,26.79.08,27,.16l2.37,1.38-.22-.08" transform="translate(0)"/><path class="cls-12" d="M29.37,1.54,27,.16l.2.1,2.37,1.37-.2-.09" transform="translate(0)"/><path class="cls-13" d="M29.57,1.63,27.2.26h0l2.37,1.38,0,0" transform="translate(0)"/></g></g></g><g class="cls-2"><g class="cls-57"><g class="cls-2"><path class="cls-41" d="M6.16,38.69,3.79,37.31a.8.8,0,0,1-.33-.73,1.7,1.7,0,0,1,0-.22l2.37,1.38a1.62,1.62,0,0,0,0,.22.78.78,0,0,0,.33.73" transform="translate(0)"/><path class="cls-42" d="M5.84,37.74,3.47,36.36l0-.15,2.37,1.37,0,.16" transform="translate(0)"/><path class="cls-43" d="M5.87,37.58,3.5,36.21l0-.13L5.9,37.45l0,.13" transform="translate(0)"/><path class="cls-44" d="M5.9,37.45,3.53,36.08a.56.56,0,0,1,0-.12l2.36,1.38,0,.11" transform="translate(0)"/><path class="cls-45" d="M5.93,37.34,3.57,36l0-.1L6,37.23a.49.49,0,0,1,0,.11" transform="translate(0)"/><path class="cls-30" d="M6,37.23,3.6,35.86l0-.11L6,37.13a.42.42,0,0,1,0,.1" transform="translate(0)"/><path class="cls-29" d="M6,37.13,3.65,35.75l0-.09L6.06,37l0,.1" transform="translate(0)"/><path class="cls-28" d="M6.06,37,3.69,35.66l.05-.1,2.37,1.38a.41.41,0,0,0-.05.09" transform="translate(0)"/><path class="cls-27" d="M6.11,36.94,3.74,35.56l0-.1,2.37,1.38a.93.93,0,0,0,0,.1" transform="translate(0)"/><path class="cls-26" d="M6.16,36.84,3.79,35.46l.06-.09,2.37,1.37-.06.1" transform="translate(0)"/><path class="cls-25" d="M6.22,36.74,3.85,35.37a.36.36,0,0,1,.07-.1l2.37,1.38-.07.09" transform="translate(0)"/><path class="cls-24" d="M6.29,36.65,3.92,35.27a.86.86,0,0,1,.07-.1l2.37,1.37-.07.11" transform="translate(0)"/><path class="cls-23" d="M6.36,36.54,4,35.17l.1-.12,2.36,1.38-.09.11" transform="translate(0)"/><path class="cls-22" d="M6.45,36.43,4.09,35.05l.12-.13L6.58,36.3l-.13.13" transform="translate(0)"/><path class="cls-21" d="M6.58,36.3,4.21,34.92a1.67,1.67,0,0,1,.38-.29L7,36a2.08,2.08,0,0,0-.38.3" transform="translate(0)"/></g></g></g><path class="cls-23" d="M26.64,24.64c.63-.36,1.14-.07,1.14.65a2.5,2.5,0,0,1-1.13,2L7,38.61c-.63.36-1.14.07-1.14-.65A2.46,2.46,0,0,1,7,36Z" transform="translate(0)"/><polygon class="cls-36" points="5.82 35.35 3.45 33.98 25.4 21.3 27.77 22.68 5.82 35.35"/><polygon class="cls-39" points="5.79 26.22 3.42 24.84 25.38 12.17 27.75 13.55 5.79 26.22"/><polygon class="cls-23" points="27.75 13.55 27.77 22.68 5.82 35.35 5.79 26.22 27.75 13.55"/><polygon class="cls-58" points="5.82 35.35 3.45 33.98 3.42 24.84 5.79 26.22 5.82 35.35"/><polygon class="cls-36" points="6.93 24.26 4.56 22.88 24.24 11.52 26.61 12.89 6.93 24.26"/><g class="cls-2"><g class="cls-59"><g class="cls-2"><polyline class="cls-13" points="6.12 24.34 3.75 22.96 3.75 22.96 6.12 24.34 6.12 24.34"/><path class="cls-12" d="M6.12,24.34,3.75,23l.06,0,2.37,1.38-.06,0" transform="translate(0)"/><path class="cls-11" d="M6.18,24.37,3.81,23l.06,0,2.37,1.38-.06,0" transform="translate(0)"/><path class="cls-10" d="M6.24,24.39,3.87,23l.06,0L6.3,24.4H6.24" transform="translate(0)"/><path class="cls-9" d="M6.3,24.4,3.93,23H4l2.37,1.37H6.3" transform="translate(0)"/><path class="cls-8" d="M6.37,24.41,4,23h.08l2.37,1.37H6.37" transform="translate(0)"/><path class="cls-7" d="M6.45,24.41,4.08,23h.08L6.53,24.4H6.45" transform="translate(0)"/><path class="cls-6" d="M6.53,24.4,4.16,23l.1,0,2.37,1.37-.1,0" transform="translate(0)"/><path class="cls-5" d="M6.63,24.38,4.26,23,4.4,23l2.37,1.38-.14,0" transform="translate(0)"/><path class="cls-4" d="M6.77,24.34,4.4,23l.16-.08,2.37,1.38-.16.08" transform="translate(0)"/></g></g></g><polygon class="cls-39" points="6.92 21.65 4.55 20.27 24.23 8.91 26.6 10.29 6.92 21.65"/><g class="cls-2"><g class="cls-60"><g class="cls-2"><path class="cls-41" d="M6.12,24.34,3.75,23a.77.77,0,0,1-.33-.72,1.77,1.77,0,0,1,0-.23L5.8,23.39a1.7,1.7,0,0,0,0,.22.78.78,0,0,0,.33.73" transform="translate(0)"/><path class="cls-42" d="M5.8,23.39,3.43,22l0-.15,2.37,1.37,0,.16" transform="translate(0)"/><path class="cls-43" d="M5.83,23.23,3.46,21.86l0-.13L5.86,23.1l0,.13" transform="translate(0)"/><path class="cls-44" d="M5.86,23.1,3.49,21.73a.56.56,0,0,1,0-.12L5.89,23l0,.11" transform="translate(0)"/><path class="cls-45" d="M5.89,23,3.53,21.61l0-.11,2.37,1.38a.49.49,0,0,1,0,.11" transform="translate(0)"/><path class="cls-30" d="M5.93,22.88,3.56,21.5l0-.1L6,22.78a.42.42,0,0,1,0,.1" transform="translate(0)"/><path class="cls-29" d="M6,22.78,3.61,21.4l0-.1L6,22.68l0,.1" transform="translate(0)"/><path class="cls-28" d="M6,22.68,3.65,21.3l.05-.1,2.37,1.38-.05.1" transform="translate(0)"/><path class="cls-27" d="M6.07,22.58,3.7,21.2a.41.41,0,0,0,0-.09l2.37,1.38,0,.09" transform="translate(0)"/><path class="cls-26" d="M6.12,22.49,3.75,21.11l.06-.1,2.37,1.38-.06.1" transform="translate(0)"/><path class="cls-25" d="M6.18,22.39,3.81,21a.86.86,0,0,0,.07-.1l2.37,1.38-.07.1" transform="translate(0)"/><path class="cls-24" d="M6.25,22.29,3.88,20.91l.08-.1,2.36,1.38a.86.86,0,0,0-.07.1" transform="translate(0)"/><path class="cls-23" d="M6.32,22.19,4,20.81l.09-.11,2.37,1.37-.1.12" transform="translate(0)"/><path class="cls-22" d="M6.42,22.07,4.05,20.7l.12-.13,2.37,1.37-.12.13" transform="translate(0)"/><path class="cls-21" d="M6.54,21.94,4.17,20.57a2.08,2.08,0,0,1,.38-.3l2.37,1.38a2.55,2.55,0,0,0-.38.29" transform="translate(0)"/></g></g></g><path class="cls-23" d="M26.6,10.28c.63-.36,1.14-.06,1.14.66a2.47,2.47,0,0,1-1.13,2L6.93,24.26c-.63.36-1.14.07-1.14-.65a2.46,2.46,0,0,1,1.13-2Z" transform="translate(0)"/><polygon class="cls-36" points="6.92 20.34 4.55 18.97 24.23 7.6 26.6 8.98 6.92 20.34"/><g class="cls-2"><g class="cls-61"><g class="cls-2"><polyline class="cls-13" points="6.1 20.42 3.74 19.05 3.74 19.05 6.11 20.43 6.1 20.42"/><path class="cls-12" d="M6.11,20.43,3.74,19.05l.06,0,2.37,1.37-.06,0" transform="translate(0)"/><path class="cls-11" d="M6.17,20.45,3.8,19.08l.06,0,2.37,1.37-.06,0" transform="translate(0)"/><path class="cls-10" d="M6.23,20.47,3.86,19.1h.06l2.37,1.38-.06,0" transform="translate(0)"/><path class="cls-9" d="M6.29,20.49,3.92,19.11H4L6.36,20.5H6.29" transform="translate(0)"/><path class="cls-8" d="M6.36,20.5,4,19.12h.08L6.44,20.5H6.36" transform="translate(0)"/><path class="cls-7" d="M6.44,20.5,4.07,19.12h.08l2.37,1.38H6.44" transform="translate(0)"/><path class="cls-6" d="M6.52,20.49,4.15,19.11l.1,0,2.37,1.38-.1,0" transform="translate(0)"/><path class="cls-5" d="M6.62,20.47,4.25,19.09l.14,0,2.37,1.37-.14,0" transform="translate(0)"/><path class="cls-4" d="M6.76,20.42,4.39,19.05,4.55,19l2.37,1.37-.16.08" transform="translate(0)"/></g></g></g><polygon class="cls-39" points="6.91 17.73 4.54 16.36 24.22 4.99 26.59 6.37 6.91 17.73"/><g class="cls-2"><g class="cls-62"><g class="cls-2"><path class="cls-41" d="M6.1,20.42,3.74,19.05a.78.78,0,0,1-.33-.73,1.62,1.62,0,0,1,0-.22l2.37,1.38a1.5,1.5,0,0,0,0,.22.82.82,0,0,0,.33.72" transform="translate(0)"/><path class="cls-42" d="M5.79,19.48,3.42,18.1l0-.16,2.37,1.38a.76.76,0,0,0,0,.16" transform="translate(0)"/><path class="cls-43" d="M5.82,19.32,3.45,17.94l0-.13,2.37,1.38,0,.13" transform="translate(0)"/><path class="cls-44" d="M5.85,19.19,3.48,17.81l0-.11,2.37,1.37,0,.12" transform="translate(0)"/><path class="cls-45" d="M5.88,19.07,3.51,17.7a.76.76,0,0,0,0-.11L5.92,19a.36.36,0,0,1,0,.11" transform="translate(0)"/><path class="cls-30" d="M5.92,19,3.55,17.59l.05-.1L6,18.86a1,1,0,0,1,0,.1" transform="translate(0)"/><path class="cls-29" d="M6,18.86,3.6,17.49a.3.3,0,0,1,0-.1L6,18.76l0,.1" transform="translate(0)"/><path class="cls-28" d="M6,18.76,3.64,17.39l0-.1,2.37,1.38a.41.41,0,0,0,0,.09" transform="translate(0)"/><path class="cls-27" d="M6.06,18.67,3.69,17.29a.93.93,0,0,0,.05-.1l2.37,1.38-.05.1" transform="translate(0)"/><path class="cls-26" d="M6.11,18.57,3.74,17.19l.06-.09,2.37,1.37-.06.1" transform="translate(0)"/><path class="cls-25" d="M6.17,18.47,3.8,17.1a.86.86,0,0,1,.07-.1l2.37,1.37-.07.1" transform="translate(0)"/><path class="cls-24" d="M6.24,18.37,3.87,17a.86.86,0,0,1,.07-.1l2.37,1.37a.86.86,0,0,1-.07.1" transform="translate(0)"/><path class="cls-23" d="M6.31,18.27,3.94,16.9l.1-.12,2.37,1.38-.1.11" transform="translate(0)"/><path class="cls-22" d="M6.41,18.16,4,16.78l.12-.13L6.53,18l-.12.13" transform="translate(0)"/><path class="cls-21" d="M6.53,18,4.16,16.65a1.67,1.67,0,0,1,.38-.29l2.37,1.37a2.08,2.08,0,0,0-.38.3" transform="translate(0)"/></g></g></g><path class="cls-23" d="M26.59,6.37c.63-.36,1.14-.07,1.14.65A2.51,2.51,0,0,1,26.6,9L6.92,20.34c-.63.36-1.14.08-1.15-.64a2.53,2.53,0,0,1,1.14-2Z" transform="translate(0)"/><polygon class="cls-38" points="2.46 53.6 0.09 52.23 0 19.22 2.37 20.6 2.46 53.6"/><polygon class="cls-36" points="6.35 13.7 3.98 12.33 24.38 0.55 26.75 1.92 6.35 13.7"/><path class="cls-63" d="M26.75,1.92c2.2-1.27,4-.25,4,2.29l.1,33a8.8,8.8,0,0,1-4,6.9L6.47,55.89c-2.21,1.27-4,.25-4-2.29l-.09-33a8.76,8.76,0,0,1,4-6.9Zm1,20.76,0-9.13-22,12.67,0,9.13,22-12.67m-1.16-9.79a2.47,2.47,0,0,0,1.13-2c0-.72-.51-1-1.14-.66L6.92,21.65a2.46,2.46,0,0,0-1.13,2c0,.72.51,1,1.14.65L26.61,12.89M26.6,9a2.51,2.51,0,0,0,1.13-2c0-.72-.51-1-1.14-.65L6.91,17.73a2.53,2.53,0,0,0-1.14,2c0,.72.52,1,1.15.64L26.6,9m0,18.27a2.5,2.5,0,0,0,1.13-2c0-.72-.51-1-1.14-.65L7,36a2.46,2.46,0,0,0-1.13,2c0,.72.51,1,1.14.65L26.65,27.25m0,3.91a2.49,2.49,0,0,0,1.13-2c0-.72-.51-1-1.14-.65L7,39.92a2.49,2.49,0,0,0-1.13,2c0,.72.51,1,1.14.65L26.66,31.16m-7.18,8.5a2.49,2.49,0,0,0,1.13-2c0-.72-.51-1-1.14-.65L7,44.27a2.5,2.5,0,0,0-1.13,1.95c0,.72.51,1,1.14.65l12.49-7.21m0,4.35a2.46,2.46,0,0,0,1.13-2c0-.72-.51-1-1.13-.65L7,48.62a2.48,2.48,0,0,0-1.14,2c0,.72.52,1,1.14.65L19.49,44" transform="translate(0)"/><g class="cls-2"><g class="cls-64"><g class="cls-2"><path class="cls-18" d="M2.37,20.6,0,19.22a6.81,6.81,0,0,1,.05-.78l2.37,1.37a7.13,7.13,0,0,0,0,.79" transform="translate(0)"/><path class="cls-17" d="M2.42,19.81.05,18.44a5.48,5.48,0,0,1,.1-.56l2.36,1.38c0,.18-.07.37-.09.55" transform="translate(0)"/><path class="cls-16" d="M2.51,19.26.15,17.88c0-.15.07-.3.11-.46L2.63,18.8c0,.15-.08.31-.12.46" transform="translate(0)"/><path class="cls-15" d="M2.63,18.8.26,17.42.38,17l2.37,1.37-.12.41" transform="translate(0)"/><path class="cls-14" d="M2.75,18.39.38,17c0-.13.09-.26.14-.38L2.89,18c-.05.12-.1.25-.14.37" transform="translate(0)"/><path class="cls-13" d="M2.89,18,.52,16.64a2.75,2.75,0,0,1,.15-.36L3,17.66c0,.12-.1.24-.14.36" transform="translate(0)"/><path class="cls-12" d="M3,17.66.67,16.28l.15-.35,2.37,1.38c0,.12-.11.23-.16.35" transform="translate(0)"/><path class="cls-11" d="M3.19,17.31.82,15.93,1,15.59,3.36,17c-.06.11-.11.23-.17.34" transform="translate(0)"/><path class="cls-10" d="M3.36,17,1,15.59l.18-.33,2.37,1.37c-.06.12-.13.23-.19.34" transform="translate(0)"/><path class="cls-9" d="M3.55,16.63,1.18,15.26l.21-.34L3.76,16.3l-.21.33" transform="translate(0)"/><path class="cls-8" d="M3.76,16.3,1.39,14.92a4,4,0,0,1,.23-.34L4,16c-.08.12-.16.23-.23.35" transform="translate(0)"/><path class="cls-7" d="M4,16,1.62,14.58a3.38,3.38,0,0,1,.27-.36l2.36,1.37L4,16" transform="translate(0)"/><path class="cls-6" d="M4.25,15.59,1.89,14.22c.1-.14.21-.27.32-.4L4.58,15.2l-.33.39" transform="translate(0)"/><path class="cls-5" d="M4.58,15.2,2.21,13.82c.14-.16.29-.31.44-.46L5,14.73c-.15.15-.29.31-.43.47" transform="translate(0)"/><path class="cls-4" d="M5,14.73,2.65,13.36a6.42,6.42,0,0,1,1.33-1L6.35,13.7a6.75,6.75,0,0,0-1.34,1" transform="translate(0)"/></g></g></g></g></g></g></g></svg>