<svg xmlns="http://www.w3.org/2000/svg" xmlns:xlink="http://www.w3.org/1999/xlink" viewBox="0 0 60.2 36.53"><defs><style>.cls-1{fill:none;}.cls-2{isolation:isolate;}.cls-3{clip-path:url(#clip-path);}.cls-4{fill:#3d7f6b;}.cls-5{fill:#3f846f;}.cls-6{fill:#428973;}.cls-7{fill:#448e77;}.cls-8{fill:#46937c;}.cls-9{fill:#499880;}.cls-10{fill:#4b9d84;}.cls-11{fill:#4da288;}.cls-12{fill:#50a78c;}.cls-13{fill:#52ab90;}.cls-14{fill:#54b094;}.cls-15{clip-path:url(#clip-path-2);}.cls-16{fill:#000e21;}.cls-17{clip-path:url(#clip-path-3);}.cls-18{clip-path:url(#clip-path-4);}.cls-19{fill:#5abd9f;}.cls-20{clip-path:url(#clip-path-5);}.cls-21{clip-path:url(#clip-path-6);}.cls-22{fill:#3f836f;}.cls-23{clip-path:url(#clip-path-7);}.cls-24{clip-path:url(#clip-path-8);}.cls-25{clip-path:url(#clip-path-9);}.cls-26{fill:#000e22;}.cls-27{clip-path:url(#clip-path-10);}.cls-28{fill:#001025;}.cls-29{fill:#001026;}.cls-30{fill:#001128;}.cls-31{fill:#001129;}.cls-32{fill:#00122a;}.cls-33{fill:#00122c;}.cls-34{fill:#00132d;}.cls-35{fill:#00132e;}.cls-36{fill:#000f24;}.cls-37{fill:#000f23;}.cls-38{clip-path:url(#clip-path-11);}.cls-39{clip-path:url(#clip-path-12);}.cls-40{clip-path:url(#clip-path-13);}.cls-41{clip-path:url(#clip-path-14);}.cls-42{clip-path:url(#clip-path-15);}.cls-43{clip-path:url(#clip-path-16);}.cls-44{clip-path:url(#clip-path-17);}.cls-45{clip-path:url(#clip-path-18);}.cls-46{fill:#001531;}.cls-47{clip-path:url(#clip-path-19);}.cls-48{clip-path:url(#clip-path-20);}.cls-49{clip-path:url(#clip-path-21);}.cls-50{clip-path:url(#clip-path-22);}.cls-51{fill:#001737;}.cls-52{clip-path:url(#clip-path-23);}.cls-53{clip-path:url(#clip-path-24);}.cls-54{clip-path:url(#clip-path-25);}.cls-55{clip-path:url(#clip-path-26);}.cls-56{fill:#fff;}.cls-57{clip-path:url(#clip-path-27);}</style><clipPath id="clip-path"><path class="cls-1" d="M32.66,5.1a.79.79,0,0,0-.47.65V4.11a.78.78,0,0,1,.46-.65v0a2.46,2.46,0,0,1,2.27,0V5.1A2.5,2.5,0,0,0,32.66,5.1Z"/></clipPath><clipPath id="clip-path-2"><path class="cls-1" d="M32.19,5.75V4.11a.82.82,0,0,0,.47.66V6.41A.8.8,0,0,1,32.19,5.75Z"/></clipPath><clipPath id="clip-path-3"><path class="cls-1" d="M29.28,7.07a.79.79,0,0,0-.47.65V6.07a.79.79,0,0,1,.46-.65v0a2.5,2.5,0,0,1,2.26,0V7.07A2.44,2.44,0,0,0,29.28,7.07Z"/></clipPath><clipPath id="clip-path-4"><path class="cls-1" d="M28.81,7.72V6.07a.79.79,0,0,0,.47.67V8.38A.81.81,0,0,1,28.81,7.72Z"/></clipPath><clipPath id="clip-path-5"><path class="cls-1" d="M16.87,14.28a.79.79,0,0,0-.47.65V13.29a.79.79,0,0,1,.46-.66v0a2.52,2.52,0,0,1,2.27,0v1.65A2.47,2.47,0,0,0,16.87,14.28Z"/></clipPath><clipPath id="clip-path-6"><path class="cls-1" d="M16.4,14.93V13.29a.78.78,0,0,0,.47.66v1.64A.81.81,0,0,1,16.4,14.93Z"/></clipPath><clipPath id="clip-path-7"><path class="cls-1" d="M13.48,16.25a.77.77,0,0,0-.46.64V15.25a.81.81,0,0,1,.47-.65c0,.55,0,1.1,0,1.64,0-.54,0-1.09,0-1.64a2.5,2.5,0,0,1,2.26,0v1.65A2.46,2.46,0,0,0,13.48,16.25Z"/></clipPath><clipPath id="clip-path-8"><path class="cls-1" d="M55.08,17.12a.81.81,0,0,0-.48-.66c0-.48,0-1,0-1.45v-.19a.81.81,0,0,1,.47.66Z"/></clipPath><clipPath id="clip-path-9"><path class="cls-1" d="M13,16.89V15.25a.8.8,0,0,0,.48.66v1.65A.83.83,0,0,1,13,16.89Z"/></clipPath><clipPath id="clip-path-10"><path class="cls-1" d="M55.08,15.48v1.64a.81.81,0,0,1-.47.66,2.47,2.47,0,0,1-2.26,0V16.13a2.52,2.52,0,0,0,2.27,0A.78.78,0,0,0,55.08,15.48Z"/></clipPath><clipPath id="clip-path-11"><path class="cls-1" d="M60.2,15.05V16.7A2.8,2.8,0,0,1,58.56,19V17.34A2.8,2.8,0,0,0,60.2,15.05Z"/></clipPath><clipPath id="clip-path-12"><path class="cls-1" d="M51.7,17.45v1.64a.79.79,0,0,0-.47-.66V16.79A.8.8,0,0,1,51.7,17.45Z"/></clipPath><clipPath id="clip-path-13"><path class="cls-1" d="M9.72,18.43a.78.78,0,0,0-.46.65V17.44a.79.79,0,0,1,.47-.65c0,.54,0,1.09,0,1.64,0-.55,0-1.1,0-1.64a2.44,2.44,0,0,1,2.26,0v1.64A2.52,2.52,0,0,0,9.72,18.43Z"/></clipPath><clipPath id="clip-path-14"><path class="cls-1" d="M9.26,19.08V17.44a.83.83,0,0,0,.48.66v1.64A.81.81,0,0,1,9.26,19.08Z"/></clipPath><clipPath id="clip-path-15"><path class="cls-1" d="M51.7,17.45v1.64a.78.78,0,0,1-.46.65,2.52,2.52,0,0,1-2.27,0V18.1a2.52,2.52,0,0,0,2.27,0A.81.81,0,0,0,51.7,17.45Z"/></clipPath><clipPath id="clip-path-16"><path class="cls-1" d="M6,20.62a.77.77,0,0,0-.46.64V19.62A.81.81,0,0,1,6,19v1.65c0-.55,0-1.1,0-1.65a2.5,2.5,0,0,1,2.26,0v1.65A2.46,2.46,0,0,0,6,20.62Z"/></clipPath><clipPath id="clip-path-17"><path class="cls-1" d="M5.5,21.26V19.62a.8.8,0,0,0,.48.66v1.65A.83.83,0,0,1,5.5,21.26Z"/></clipPath><clipPath id="clip-path-18"><path class="cls-1" d="M0,21.47V19.83a2.83,2.83,0,0,0,1.67,2.32v1.64A2.82,2.82,0,0,1,0,21.47Z"/></clipPath><clipPath id="clip-path-19"><path class="cls-1" d="M39.29,24.66V26.3a.77.77,0,0,0-.47-.66V24A.81.81,0,0,1,39.29,24.66Z"/></clipPath><clipPath id="clip-path-20"><path class="cls-1" d="M25,24.66V26.3a.81.81,0,0,0-.47-.66V24A.79.79,0,0,1,25,24.66Z"/></clipPath><clipPath id="clip-path-21"><path class="cls-1" d="M39.29,24.66V26.3a.78.78,0,0,1-.46.65,2.52,2.52,0,0,1-2.27,0V25.31a2.5,2.5,0,0,0,2.26,0A.81.81,0,0,0,39.29,24.66Z"/></clipPath><clipPath id="clip-path-22"><path class="cls-1" d="M25,24.66V26.3a.79.79,0,0,1-.47.65,2.5,2.5,0,0,1-2.26,0V25.31a2.5,2.5,0,0,0,2.26,0A.79.79,0,0,0,25,24.66Z"/></clipPath><clipPath id="clip-path-23"><path class="cls-1" d="M35.9,26.62v1.65a.81.81,0,0,0-.47-.66V26A.78.78,0,0,1,35.9,26.62Z"/></clipPath><clipPath id="clip-path-24"><path class="cls-1" d="M21.19,26.84v1.65a.83.83,0,0,0-.47-.67V26.18A.79.79,0,0,1,21.19,26.84Z"/></clipPath><clipPath id="clip-path-25"><path class="cls-1" d="M35.9,26.62v1.65a.81.81,0,0,1-.46.65,2.52,2.52,0,0,1-2.27,0V27.27a2.47,2.47,0,0,0,2.26,0A.79.79,0,0,0,35.9,26.62Z"/></clipPath><clipPath id="clip-path-26"><path class="cls-1" d="M21.19,26.84v1.65a.81.81,0,0,1-.47.65,2.5,2.5,0,0,1-2.26,0V27.49a2.47,2.47,0,0,0,2.26,0A.78.78,0,0,0,21.19,26.84Z"/></clipPath><clipPath id="clip-path-27"><path class="cls-1" d="M30,33.93v1.64a8.73,8.73,0,0,1-8,0V33.93A8.77,8.77,0,0,0,30,33.93Z"/></clipPath></defs><title>document_3</title><g id="Layer_2" data-name="Layer 2"><g id="document_network_3"><g id="document_3"><g class="cls-2"><g class="cls-2"><g class="cls-3"><g class="cls-2"><path class="cls-4" d="M34.93,3.46V5.1L34.69,5V3.35l.23.11"/><path class="cls-5" d="M34.7,3.35V5l-.19-.07V3.28l.2.07"/><path class="cls-6" d="M34.5,3.28V4.92l-.17,0V3.24l.17,0"/><path class="cls-7" d="M34.33,3.24V4.88l-.16,0V3.21l.16,0"/><path class="cls-8" d="M34.17,3.21V4.85H34V3.19l.15,0"/><path class="cls-9" d="M34,3.19V4.84h-.16V3.19H34"/><path class="cls-10" d="M33.86,3.19V4.83H33.7V3.19h.16"/><path class="cls-11" d="M33.7,3.19V4.83h-.18V3.2h.18"/><path class="cls-12" d="M33.52,3.2V4.84l-.2,0V3.23l.2,0"/><path class="cls-13" d="M33.32,3.23V4.87A1.57,1.57,0,0,0,33,5V3.3l.3-.07"/><path class="cls-14" d="M33,3.3V5a2.17,2.17,0,0,0-.35.15h0V3.47h0A1.46,1.46,0,0,1,33,3.3"/><path class="cls-13" d="M32.64,3.47V5.11a1.15,1.15,0,0,0-.2.15V3.62l.2-.15"/><path class="cls-12" d="M32.44,3.62V5.26l-.1.11V3.73a.52.52,0,0,1,.1-.11"/><path class="cls-11" d="M32.34,3.73V5.37l-.07.09V3.82l.06-.09"/><path class="cls-10" d="M32.28,3.82V5.46a1,1,0,0,0,0,.1V3.91l.05-.09"/><path class="cls-9" d="M32.23,3.91V5.56l0,.08V4s0-.06,0-.09"/><path class="cls-8" d="M32.21,4V5.64s0,.07,0,.1V4.09a.28.28,0,0,1,0-.09"/><path class="cls-7" d="M32.2,4.09V5.74h0V4.09"/></g></g></g><g class="cls-2"><g class="cls-15"><g class="cls-2"><path class="cls-16" d="M32.67,4.77V6.41a.8.8,0,0,1-.48-.66V4.11a.82.82,0,0,0,.47.66"/></g></g></g><g class="cls-2"><g class="cls-17"><g class="cls-2"><path class="cls-4" d="M31.54,5.42V7.07L31.31,7V5.31l.23.11"/><path class="cls-5" d="M31.31,5.31V7l-.2-.07V5.25l.19.06"/><path class="cls-6" d="M31.12,5.25V6.89l-.17,0V5.21l.17,0"/><path class="cls-7" d="M31,5.21V6.85l-.16,0V5.18a.9.9,0,0,1,.16,0"/><path class="cls-8" d="M30.79,5.18V6.82l-.15,0V5.16l.16,0"/><path class="cls-9" d="M30.63,5.16V6.8h-.16V5.15h.15"/><path class="cls-10" d="M30.48,5.15V6.8h-.16V5.15h.17"/><path class="cls-11" d="M30.31,5.15V6.8h-.18V5.16h.17"/><path class="cls-12" d="M30.14,5.16V6.81l-.2,0V5.19l.21,0"/><path class="cls-13" d="M29.93,5.19V6.84l-.3.07V5.27l.3-.08"/><path class="cls-14" d="M29.63,5.27V6.91a1.25,1.25,0,0,0-.35.16h0V5.43h0a2.17,2.17,0,0,1,.35-.15"/><path class="cls-13" d="M29.26,5.43V7.08a.8.8,0,0,0-.21.15V5.58l.2-.15"/><path class="cls-12" d="M29.06,5.58V7.23l-.1.11V5.69l.1-.11"/><path class="cls-11" d="M29,5.69V7.34l-.06.09V5.79a.36.36,0,0,1,.07-.1"/><path class="cls-10" d="M28.89,5.79V7.43a.36.36,0,0,0,0,.09V5.88l0-.09"/><path class="cls-9" d="M28.85,5.88V7.52l0,.09V6a.29.29,0,0,1,0-.09"/><path class="cls-8" d="M28.83,6V7.61s0,.06,0,.09V6.06a.28.28,0,0,1,0-.09"/><path class="cls-7" d="M28.82,6.06v0h0"/></g></g></g><g class="cls-2"><g class="cls-18"><g class="cls-2"><path class="cls-16" d="M29.29,6.74V8.38a.81.81,0,0,1-.47-.66V6.07a.79.79,0,0,0,.47.67"/></g></g></g><polygon class="cls-19" points="27.02 6.74 27.02 8.38 19.12 12.97 19.13 11.32 27.02 6.74"/><g class="cls-2"><g class="cls-20"><g class="cls-2"><path class="cls-4" d="M19.14,12.63v1.65l-.23-.11V12.52l.23.11"/><path class="cls-5" d="M18.91,12.52v1.65l-.19-.07V12.46l.2.06"/><path class="cls-6" d="M18.71,12.46V14.1l-.17,0V12.42l.17,0"/><path class="cls-7" d="M18.54,12.42v1.64l-.16,0V12.39l.15,0"/><path class="cls-8" d="M18.39,12.39V14l-.15,0V12.37l.16,0"/><path class="cls-9" d="M18.23,12.37V14h-.16V12.36h.16"/><path class="cls-10" d="M18.07,12.36V14H17.9V12.36h.16"/><path class="cls-11" d="M17.91,12.36V14h-.17V12.38l.18,0"/><path class="cls-12" d="M17.73,12.38V14l-.21,0V12.4l.2,0"/><path class="cls-13" d="M17.53,12.4v1.65l-.3.07V12.48l.31-.08"/><path class="cls-14" d="M17.22,12.48v1.64a1.61,1.61,0,0,0-.35.16h0V12.65l0,0a2.17,2.17,0,0,1,.35-.15"/><path class="cls-13" d="M16.85,12.65v1.64l-.21.15V12.8a.75.75,0,0,1,.2-.15"/><path class="cls-12" d="M16.65,12.8v1.64l-.1.11V12.9l.1-.1"/><path class="cls-11" d="M16.55,12.9v1.65l-.06.09V13a.61.61,0,0,1,.07-.1"/><path class="cls-10" d="M16.48,13v1.64a.36.36,0,0,0,0,.09V13.09l0-.09"/><path class="cls-9" d="M16.44,13.09v1.64l0,.09V13.18a.29.29,0,0,1,0-.09"/><path class="cls-8" d="M16.42,13.18v1.64s0,.07,0,.1V13.27a.28.28,0,0,1,0-.09"/><path class="cls-7" d="M16.41,13.27v1.65h0V13.27"/></g></g></g><g class="cls-2"><g class="cls-21"><g class="cls-2"><path class="cls-16" d="M16.88,14v1.64a.81.81,0,0,1-.47-.66V13.29a.78.78,0,0,0,.47.66"/></g></g></g><polygon class="cls-22" points="54.61 14.82 54.6 16.46 34.92 5.1 34.93 3.46 54.61 14.82"/><g class="cls-2"><g class="cls-23"><g class="cls-2"><path class="cls-4" d="M15.75,14.6v1.65a1.67,1.67,0,0,0-.23-.12V14.49l.23.11"/><path class="cls-5" d="M15.52,14.49v1.64l-.2-.06V14.42l.19.07"/><path class="cls-6" d="M15.33,14.42v1.65l-.16,0V14.38l.17,0"/><path class="cls-7" d="M15.16,14.38V16L15,16V14.36l.16,0"/><path class="cls-8" d="M15,14.36V16l-.16,0V14.34l.15,0"/><path class="cls-9" d="M14.85,14.34V16h-.16V14.33h.16"/><path class="cls-10" d="M14.69,14.33V16h-.16V14.33h.17"/><path class="cls-11" d="M14.52,14.33V16l-.18,0V14.34h.17"/><path class="cls-12" d="M14.35,14.34V16l-.2,0V14.37l.21,0"/><path class="cls-13" d="M14.14,14.37V16l-.31.08V14.45l.3-.08"/><path class="cls-14" d="M13.84,14.45v1.64a1.58,1.58,0,0,0-.35.16h0V14.61h0a1.6,1.6,0,0,1,.35-.15"/><path class="cls-13" d="M13.47,14.61v1.65a.75.75,0,0,0-.2.15V14.76l.21-.15"/><path class="cls-12" d="M13.26,14.76v1.65l-.1.1V14.87a.87.87,0,0,1,.09-.11"/><path class="cls-11" d="M13.17,14.87v1.64a.53.53,0,0,0-.06.1V15l.07-.09"/><path class="cls-10" d="M13.1,15v1.65l0,.09V15.06a.3.3,0,0,1,0-.1"/><path class="cls-9" d="M13.06,15.06V16.7a.29.29,0,0,0,0,.09V15.14l0-.08"/><path class="cls-8" d="M13,15.14v1.65a.28.28,0,0,0,0,.09V15.24s0-.06,0-.1"/><path class="cls-7" d="M13,15.24v1.64h0V15.25h0"/></g></g></g><g class="cls-2"><g class="cls-24"><g class="cls-2"><path class="cls-4" d="M55.08,15.48v1.64a.81.81,0,0,0-.48-.66V14.82a.81.81,0,0,1,.47.66"/></g></g></g><g class="cls-2"><g class="cls-25"><g class="cls-2"><path class="cls-16" d="M13.5,15.91v1.65a.83.83,0,0,1-.47-.67V15.25a.8.8,0,0,0,.48.66"/></g></g></g><polygon class="cls-26" points="52.35 16.13 52.35 17.77 32.67 6.41 32.67 4.77 52.35 16.13"/><g class="cls-2"><g class="cls-27"><g class="cls-2"><path class="cls-28" d="M55.08,15.48v0h0"/><path class="cls-29" d="M55.08,15.49v1.65s0,.06,0,.09V15.59a.31.31,0,0,0,0-.1"/><path class="cls-30" d="M55.07,15.59v1.64l0,.09V15.68a.29.29,0,0,0,0-.09"/><path class="cls-31" d="M55.05,15.68v1.64a.36.36,0,0,1,0,.09V15.77l0-.09"/><path class="cls-32" d="M55,15.77v1.64a.61.61,0,0,1-.07.1V15.86l.06-.09"/><path class="cls-33" d="M54.94,15.86v1.65l-.1.1V16a.52.52,0,0,0,.1-.11"/><path class="cls-34" d="M54.84,16v1.64a.62.62,0,0,1-.2.15V16.12l.2-.15"/><path class="cls-35" d="M54.64,16.12v1.64l0,0a1.6,1.6,0,0,1-.35.15V16.29a2.21,2.21,0,0,0,.35-.16h0"/><path class="cls-34" d="M54.27,16.29v1.64A1.46,1.46,0,0,1,54,18V16.36l.3-.07"/><path class="cls-33" d="M54,16.36V18a.69.69,0,0,1-.2,0V16.39l.21,0"/><path class="cls-32" d="M53.76,16.39V18h-.18V16.4h.18"/><path class="cls-31" d="M53.58,16.4V18h-.16V16.4h.16"/><path class="cls-30" d="M53.42,16.4v1.65h-.16V16.39h.16"/><path class="cls-29" d="M53.26,16.39V18l-.16,0V16.38h.15"/><path class="cls-28" d="M53.11,16.38V18l-.16,0V16.35l.16,0"/><path class="cls-36" d="M53,16.35V18l-.16,0V16.31l.17,0"/><path class="cls-37" d="M52.78,16.31V18l-.2-.07V16.24l.2.07"/><path class="cls-16" d="M52.58,16.24v1.64a1,1,0,0,1-.23-.11V16.13l.23.11"/></g></g></g><polygon class="cls-22" points="51.22 16.79 51.22 18.43 31.54 7.07 31.55 5.42 51.22 16.79"/><g class="cls-2"><g class="cls-38"><g class="cls-2"><path class="cls-7" d="M60.2,15.05v0"/><path class="cls-8" d="M60.2,15.1v1.65c0,.1,0,.21,0,.32V15.43a1.86,1.86,0,0,0,0-.33"/><path class="cls-9" d="M60.16,15.43v1.64a1.92,1.92,0,0,1-.09.32V15.74a1.81,1.81,0,0,0,.09-.31"/><path class="cls-10" d="M60.07,15.74v1.65a3,3,0,0,1-.15.32V16.06a1.87,1.87,0,0,0,.15-.32"/><path class="cls-11" d="M59.92,16.06v1.65a3.29,3.29,0,0,1-.23.33V16.4a2.46,2.46,0,0,0,.22-.34"/><path class="cls-12" d="M59.7,16.4V18a3.09,3.09,0,0,1-.35.38V16.77a4,4,0,0,0,.35-.37"/><path class="cls-13" d="M59.35,16.77v1.65a4.49,4.49,0,0,1-.71.52V17.3a4.07,4.07,0,0,0,.72-.53"/><path class="cls-14" d="M58.63,17.3v1.64l-.07,0V17.34l.06,0"/></g></g></g><g class="cls-2"><g class="cls-39"><g class="cls-2"><path class="cls-4" d="M51.7,17.45v1.64a.79.79,0,0,0-.47-.66V16.79a.8.8,0,0,1,.48.66"/></g></g></g><g class="cls-2"><g class="cls-40"><g class="cls-2"><path class="cls-4" d="M12,16.79v1.64l-.23-.11V16.68a1,1,0,0,1,.23.11"/><path class="cls-5" d="M11.76,16.68v1.64l-.2-.07V16.61l.19.07"/><path class="cls-6" d="M11.57,16.61v1.64l-.16,0V16.57l.17,0"/><path class="cls-7" d="M11.4,16.57v1.64l-.16,0V16.54l.16,0"/><path class="cls-8" d="M11.24,16.54v1.64h-.16V16.52l.15,0"/><path class="cls-9" d="M11.09,16.52v1.65h-.16V16.52h.16"/><path class="cls-10" d="M10.93,16.52v1.64h-.16V16.52h.17"/><path class="cls-11" d="M10.76,16.52v1.64h-.18V16.53h.17"/><path class="cls-12" d="M10.59,16.53v1.64l-.2,0V16.56a.76.76,0,0,1,.21,0"/><path class="cls-13" d="M10.38,16.56V18.2a1.57,1.57,0,0,0-.31.08V16.63l.3-.07"/><path class="cls-14" d="M10.08,16.63v1.65a2.17,2.17,0,0,0-.35.15h0V16.8h0a1.25,1.25,0,0,1,.35-.16"/><path class="cls-13" d="M9.71,16.8v1.64a1.73,1.73,0,0,0-.2.15V17a1.13,1.13,0,0,1,.21-.15"/><path class="cls-12" d="M9.5,17v1.64l-.1.11V17.05L9.5,17"/><path class="cls-11" d="M9.41,17.05V18.7a.47.47,0,0,0-.06.09V17.15l.07-.1"/><path class="cls-10" d="M9.34,17.15v1.64l-.05.09V17.24a.36.36,0,0,1,0-.09"/><path class="cls-9" d="M9.3,17.24v1.64a.29.29,0,0,0,0,.09V17.33l0-.09"/><path class="cls-8" d="M9.27,17.33V19a.28.28,0,0,0,0,.09V17.42s0-.06,0-.09"/><path class="cls-7" d="M9.26,17.42v0"/></g></g></g><polygon class="cls-26" points="48.97 18.1 48.96 19.74 29.29 8.38 29.29 6.74 48.97 18.1"/><g class="cls-2"><g class="cls-41"><g class="cls-2"><path class="cls-16" d="M9.74,18.1v1.64a.81.81,0,0,1-.47-.66V17.44a.83.83,0,0,0,.48.66"/></g></g></g><g class="cls-2"><g class="cls-42"><g class="cls-2"><path class="cls-28" d="M51.7,17.45v0h0"/><path class="cls-29" d="M51.7,17.46v1.65a.28.28,0,0,1,0,.09V17.55s0-.06,0-.09"/><path class="cls-30" d="M51.69,17.55V19.2a.29.29,0,0,1,0,.09V17.64l0-.09"/><path class="cls-31" d="M51.66,17.64v1.65a.41.41,0,0,1,0,.09V17.74a.3.3,0,0,0,0-.1"/><path class="cls-32" d="M51.62,17.74v1.64a.47.47,0,0,1-.06.09V17.83l.07-.09"/><path class="cls-33" d="M51.55,17.83v1.64a.52.52,0,0,1-.1.11V17.94a.87.87,0,0,0,.09-.11"/><path class="cls-34" d="M51.46,17.94v1.64l-.2.15V18.09l.21-.15"/><path class="cls-35" d="M51.25,18.09v1.64h0a1.84,1.84,0,0,1-.35.15V18.25a2.17,2.17,0,0,0,.35-.15h0"/><path class="cls-34" d="M50.89,18.25v1.64a1.67,1.67,0,0,1-.3.08V18.33l.31-.08"/><path class="cls-33" d="M50.58,18.33V20l-.21,0V18.35l.2,0"/><path class="cls-32" d="M50.38,18.35V20h-.18V18.37l.18,0"/><path class="cls-31" d="M50.2,18.37V20H50V18.37h.17"/><path class="cls-30" d="M50,18.37V20h-.16V18.36H50"/><path class="cls-29" d="M49.88,18.36V20h-.16V18.34l.16,0"/><path class="cls-28" d="M49.72,18.34V20l-.16,0V18.31l.16,0"/><path class="cls-36" d="M49.56,18.31V20l-.16,0V18.27l.17,0"/><path class="cls-37" d="M49.39,18.27v1.65l-.2-.07V18.21l.19.06"/><path class="cls-16" d="M49.2,18.21v1.64L49,19.74V18.1l.23.11"/></g></g></g><polygon class="cls-22" points="48.98 19.41 48.97 21.05 27.02 8.38 27.02 6.74 48.98 19.41"/><g class="cls-2"><g class="cls-43"><g class="cls-2"><path class="cls-4" d="M8.23,19v1.65A1.67,1.67,0,0,0,8,20.5V18.86l.23.11"/><path class="cls-5" d="M8,18.86V20.5l-.2-.06V18.79l.19.07"/><path class="cls-6" d="M7.81,18.79v1.65l-.17,0V18.75l.17,0"/><path class="cls-7" d="M7.64,18.75V20.4l-.15,0V18.73l.16,0"/><path class="cls-8" d="M7.48,18.73v1.64l-.16,0V18.71l.15,0"/><path class="cls-9" d="M7.33,18.71v1.64H7.16V18.7h.16"/><path class="cls-10" d="M7.17,18.7v1.64H7V18.7h.17"/><path class="cls-11" d="M7,18.7v1.64l-.18,0V18.71H7"/><path class="cls-12" d="M6.83,18.71v1.65a.64.64,0,0,0-.2,0V18.74l.21,0"/><path class="cls-13" d="M6.62,18.74v1.65a1.55,1.55,0,0,0-.31.07V18.82l.3-.08"/><path class="cls-14" d="M6.32,18.82v1.64a1.58,1.58,0,0,0-.35.16h0V19H6a1.6,1.6,0,0,1,.35-.15"/><path class="cls-13" d="M6,19v1.65a.75.75,0,0,0-.2.15V19.13L6,19"/><path class="cls-12" d="M5.74,19.13v1.65a.94.94,0,0,0-.1.1V19.24a.87.87,0,0,1,.09-.11"/><path class="cls-11" d="M5.65,19.24v1.64a.53.53,0,0,0-.06.1V19.34a.36.36,0,0,1,.07-.1"/><path class="cls-10" d="M5.58,19.34V21l0,.09V19.43a.25.25,0,0,1,0-.09"/><path class="cls-9" d="M5.54,19.43v1.64a.29.29,0,0,0,0,.09V19.52l0-.09"/><path class="cls-8" d="M5.51,19.52v1.64a.28.28,0,0,0,0,.09V19.61s0-.06,0-.09"/><path class="cls-7" d="M5.5,19.61v1.64h0V19.62h0"/></g></g></g><g class="cls-2"><g class="cls-44"><g class="cls-2"><path class="cls-16" d="M6,20.28v1.65a.83.83,0,0,1-.47-.67V19.62a.8.8,0,0,0,.48.66"/></g></g></g><g class="cls-2"><g class="cls-45"><g class="cls-2"><path class="cls-4" d="M1.67,22.15v1.64A2.82,2.82,0,0,1,0,21.47V19.83a2.83,2.83,0,0,0,1.67,2.32"/></g></g></g><polygon class="cls-46" points="48.98 19.41 48.97 21.05 41.08 25.64 41.08 24 48.98 19.41"/><polygon class="cls-26" points="41.08 24 41.08 25.64 19.12 12.97 19.13 11.32 41.08 24"/><polygon class="cls-22" points="38.82 24 38.81 25.64 19.13 14.28 19.14 12.63 38.82 24"/><polygon class="cls-22" points="24.48 24 24.48 25.64 11.99 18.43 11.99 16.79 24.48 24"/><g class="cls-2"><g class="cls-47"><g class="cls-2"><path class="cls-4" d="M39.29,24.66V26.3a.77.77,0,0,0-.47-.66V24a.81.81,0,0,1,.47.66"/></g></g></g><g class="cls-2"><g class="cls-48"><g class="cls-2"><path class="cls-4" d="M25,24.66V26.3a.81.81,0,0,0-.47-.66V24a.79.79,0,0,1,.47.66"/></g></g></g><polygon class="cls-26" points="36.56 25.31 36.55 26.95 16.87 15.59 16.88 13.95 36.56 25.31"/><polygon class="cls-26" points="22.23 25.31 22.22 26.95 9.73 19.74 9.74 18.1 22.23 25.31"/><g class="cls-2"><g class="cls-49"><g class="cls-2"><path class="cls-28" d="M39.29,24.66V26.3h0V24.67h0"/><path class="cls-29" d="M39.29,24.67v1.64a.31.31,0,0,1,0,.1V24.76s0-.06,0-.09"/><path class="cls-30" d="M39.28,24.76v1.65a.29.29,0,0,1,0,.09V24.85l0-.09"/><path class="cls-31" d="M39.25,24.85V26.5l0,.09V25a.42.42,0,0,0,0-.1"/><path class="cls-32" d="M39.21,25v1.64l-.07.09V25l.06-.09"/><path class="cls-33" d="M39.15,25v1.64a.52.52,0,0,1-.1.11V25.15l.1-.11"/><path class="cls-34" d="M39.05,25.15v1.64a1.73,1.73,0,0,1-.2.15V25.3l.21-.15"/><path class="cls-35" d="M38.84,25.3v1.64h0a1.87,1.87,0,0,1-.35.16V25.46a1.75,1.75,0,0,0,.34-.15h0"/><path class="cls-34" d="M38.48,25.46v1.65l-.3.07V25.54l.31-.08"/><path class="cls-33" d="M38.17,25.54v1.64l-.21,0V25.57l.2,0"/><path class="cls-32" d="M38,25.57v1.64h-.18V25.58H38"/><path class="cls-31" d="M37.79,25.58v1.64h-.16V25.58h.17"/><path class="cls-30" d="M37.62,25.58v1.64h-.16V25.57h.16"/><path class="cls-29" d="M37.46,25.57v1.64H37.3V25.55l.15,0"/><path class="cls-28" d="M37.31,25.55V27.2l-.16,0V25.53l.16,0"/><path class="cls-36" d="M37.15,25.53v1.64l-.16,0V25.48l.17.05"/><path class="cls-37" d="M37,25.48v1.65l-.2-.07V25.42l.19.06"/><path class="cls-16" d="M36.79,25.42v1.64L36.55,27V25.31l.23.11"/></g></g></g><g class="cls-2"><g class="cls-50"><g class="cls-2"><path class="cls-28" d="M25,24.66V26.3h0V24.67h0"/><path class="cls-29" d="M25,24.67v1.64s0,.07,0,.1V24.76a.28.28,0,0,0,0-.09"/><path class="cls-30" d="M24.94,24.76v1.65l0,.09V24.85a.29.29,0,0,0,0-.09"/><path class="cls-31" d="M24.92,24.85V26.5a.36.36,0,0,1,0,.09V25s0-.07.05-.1"/><path class="cls-32" d="M24.87,25v1.64l-.07.09V25l.06-.09"/><path class="cls-33" d="M24.81,25v1.64a.35.35,0,0,1-.1.11V25.15l.1-.11"/><path class="cls-34" d="M24.71,25.15v1.64a1.15,1.15,0,0,1-.2.15V25.3l.2-.15"/><path class="cls-35" d="M24.51,25.3v1.64h0a1.61,1.61,0,0,1-.35.16V25.46a2.17,2.17,0,0,0,.35-.15h0"/><path class="cls-34" d="M24.14,25.46v1.65l-.3.07V25.54l.3-.08"/><path class="cls-33" d="M23.84,25.54v1.64l-.2,0V25.57l.21,0"/><path class="cls-32" d="M23.63,25.57v1.64h-.18V25.58h.17"/><path class="cls-31" d="M23.46,25.58v1.64h-.16V25.58h.17"/><path class="cls-30" d="M23.29,25.58v1.64h-.16V25.57h.15"/><path class="cls-29" d="M23.14,25.57v1.64H23V25.55l.16,0"/><path class="cls-28" d="M23,25.55V27.2l-.15,0V25.52a.9.9,0,0,0,.16,0"/><path class="cls-36" d="M22.82,25.52v1.65l-.17,0V25.48l.17,0"/><path class="cls-37" d="M22.65,25.48v1.65l-.2-.07V25.42l.19.06"/><path class="cls-16" d="M22.46,25.42v1.64L22.22,27V25.31l.23.11"/></g></g></g><path class="cls-51" d="M24.48,24a.69.69,0,0,1,0,1.31,2.5,2.5,0,0,1-2.26,0L9.74,18.1c-.63-.37-.64-1,0-1.31a2.44,2.44,0,0,1,2.26,0Z"/><polygon class="cls-22" points="35.43 25.96 35.43 27.61 15.75 16.25 15.75 14.6 35.43 25.96"/><polygon class="cls-22" points="20.72 26.18 20.72 27.82 8.23 20.61 8.23 18.97 20.72 26.18"/><g class="cls-2"><g class="cls-52"><g class="cls-2"><path class="cls-4" d="M35.9,26.62v1.65a.81.81,0,0,0-.47-.66V26a.78.78,0,0,1,.47.66"/></g></g></g><g class="cls-2"><g class="cls-53"><g class="cls-2"><path class="cls-4" d="M21.19,26.84v1.65a.83.83,0,0,0-.47-.67V26.18a.79.79,0,0,1,.47.66"/></g></g></g><polygon class="cls-26" points="33.18 27.27 33.17 28.92 13.49 17.56 13.5 15.91 33.18 27.27"/><polygon class="cls-26" points="18.46 27.49 18.46 29.14 5.97 21.93 5.98 20.28 18.46 27.49"/><g class="cls-2"><g class="cls-54"><g class="cls-2"><path class="cls-28" d="M35.9,26.62v1.65h0V26.62"/><path class="cls-29" d="M35.9,26.64v1.64a.28.28,0,0,1,0,.09V26.73a.28.28,0,0,0,0-.09"/><path class="cls-30" d="M35.89,26.73v1.64l0,.09V26.82a.29.29,0,0,0,0-.09"/><path class="cls-31" d="M35.87,26.82v1.64a.3.3,0,0,1,0,.1V26.91l0-.09"/><path class="cls-32" d="M35.83,26.91v1.65l-.06.09V27a.36.36,0,0,0,.07-.1"/><path class="cls-33" d="M35.76,27v1.64l-.1.11V27.12l.1-.11"/><path class="cls-34" d="M35.66,27.12v1.64l-.21.15V27.26a1,1,0,0,0,.2-.14"/><path class="cls-35" d="M35.46,27.26v1.65h0a2.17,2.17,0,0,1-.35.15V27.43a1.84,1.84,0,0,0,.35-.15l0,0"/><path class="cls-34" d="M35.09,27.43v1.64l-.3.08V27.5a1.63,1.63,0,0,0,.3-.07"/><path class="cls-33" d="M34.79,27.5v1.65l-.21,0V27.53a.69.69,0,0,0,.2,0"/><path class="cls-32" d="M34.59,27.53v1.65H34.4V27.54h.18"/><path class="cls-31" d="M34.41,27.54v1.65h-.16V27.55h.16"/><path class="cls-30" d="M34.25,27.55v1.64h-.16V27.54h.16"/><path class="cls-29" d="M34.09,27.54v1.64l-.15,0V27.52l.16,0"/><path class="cls-28" d="M33.93,27.52v1.64l-.16,0V27.49l.16,0"/><path class="cls-36" d="M33.77,27.49v1.65l-.17-.05V27.45l.17,0"/><path class="cls-37" d="M33.6,27.45v1.64a1.52,1.52,0,0,1-.2-.06V27.38l.19.07"/><path class="cls-16" d="M33.41,27.38V29l-.23-.11V27.27a1,1,0,0,0,.23.11"/></g></g></g><path class="cls-51" d="M35.43,26a.7.7,0,0,1,0,1.32,2.47,2.47,0,0,1-2.26,0L13.5,15.91c-.63-.36-.64-.95,0-1.31a2.5,2.5,0,0,1,2.26,0Z"/><g class="cls-2"><g class="cls-55"><g class="cls-2"><path class="cls-28" d="M21.19,26.84v1.65h0V26.84"/><path class="cls-29" d="M21.19,26.86V28.5s0,.06,0,.09V27a.28.28,0,0,0,0-.09"/><path class="cls-30" d="M21.18,27v1.64l0,.09V27a.29.29,0,0,0,0-.09"/><path class="cls-31" d="M21.16,27v1.64a.36.36,0,0,1,0,.09V27.13l.05-.09"/><path class="cls-32" d="M21.11,27.13v1.64a.36.36,0,0,1-.07.1V27.23l.06-.1"/><path class="cls-33" d="M21.05,27.23v1.64l-.1.11V27.33a.94.94,0,0,0,.1-.1"/><path class="cls-34" d="M21,27.33V29a1.15,1.15,0,0,1-.2.15V27.48a1,1,0,0,0,.2-.15"/><path class="cls-35" d="M20.75,27.48v1.65h0a1.6,1.6,0,0,1-.35.15V27.65a1.58,1.58,0,0,0,.35-.16h0"/><path class="cls-34" d="M20.38,27.65v1.64l-.3.08V27.72l.3-.07"/><path class="cls-33" d="M20.08,27.72v1.65l-.2,0V27.75l.21,0"/><path class="cls-32" d="M19.87,27.75v1.64l-.18,0V27.76h.17"/><path class="cls-31" d="M19.7,27.76v1.65h-.16V27.76h.17"/><path class="cls-30" d="M19.53,27.76v1.65h-.16V27.76h.15"/><path class="cls-29" d="M19.38,27.76V29.4l-.16,0V27.74l.16,0"/><path class="cls-28" d="M19.22,27.74v1.64l-.16,0V27.71l.16,0"/><path class="cls-36" d="M19.06,27.71v1.64l-.16,0V27.67l.17,0"/><path class="cls-37" d="M18.89,27.67v1.64l-.2-.06V27.6l.19.07"/><path class="cls-16" d="M18.7,27.6v1.65l-.23-.11V27.49l.23.11"/></g></g></g><path class="cls-56" d="M58.54,12.73c2.21,1.28,2.21,3.34,0,4.61L30,33.93a8.77,8.77,0,0,1-7.95,0L1.67,22.15c-2.21-1.27-2.22-3.34,0-4.61L30.18,1a8.76,8.76,0,0,1,8,0ZM41.08,24,49,19.41,27,6.74l-7.89,4.58L41.08,24m-4.52,1.31a2.5,2.5,0,0,0,2.26,0,.69.69,0,0,0,0-1.31L19.14,12.63a2.52,2.52,0,0,0-2.27,0,.7.7,0,0,0,0,1.32L36.56,25.31m15.79-9.18a2.52,2.52,0,0,0,2.27,0,.69.69,0,0,0,0-1.31L34.93,3.46a2.46,2.46,0,0,0-2.27,0c-.62.36-.62.94,0,1.31L52.35,16.13M33.18,27.27a2.47,2.47,0,0,0,2.26,0,.7.7,0,0,0,0-1.32L15.75,14.6a2.5,2.5,0,0,0-2.26,0c-.63.36-.62,1,0,1.31L33.18,27.27M49,18.1a2.52,2.52,0,0,0,2.27,0c.62-.36.61-1,0-1.31L31.54,5.42a2.5,2.5,0,0,0-2.26,0c-.62.36-.62,1,0,1.32L49,18.1M22.23,25.31a2.5,2.5,0,0,0,2.26,0,.69.69,0,0,0,0-1.31L12,16.79a2.44,2.44,0,0,0-2.26,0c-.63.36-.62.94,0,1.31l12.49,7.21m-3.76,2.18a2.47,2.47,0,0,0,2.26,0,.69.69,0,0,0,0-1.31L8.23,19A2.5,2.5,0,0,0,6,19c-.63.36-.62,1,0,1.31l12.49,7.21"/><path class="cls-51" d="M54.61,14.82a.69.69,0,0,1,0,1.31,2.52,2.52,0,0,1-2.27,0L32.67,4.77c-.63-.37-.63-.95,0-1.31a2.46,2.46,0,0,1,2.27,0Z"/><path class="cls-51" d="M51.22,16.79c.63.36.64.95,0,1.31a2.52,2.52,0,0,1-2.27,0L29.29,6.74c-.63-.37-.63-1,0-1.32a2.5,2.5,0,0,1,2.26,0Z"/><polygon class="cls-51" points="48.98 19.41 41.08 24 19.13 11.32 27.02 6.74 48.98 19.41"/><path class="cls-51" d="M38.82,24a.69.69,0,0,1,0,1.31,2.5,2.5,0,0,1-2.26,0L16.88,14a.7.7,0,0,1,0-1.32,2.52,2.52,0,0,1,2.27,0Z"/><path class="cls-51" d="M20.72,26.18a.69.69,0,0,1,0,1.31,2.47,2.47,0,0,1-2.26,0L6,20.28c-.63-.36-.64-1,0-1.31a2.5,2.5,0,0,1,2.26,0Z"/><polygon class="cls-19" points="58.57 17.34 58.56 18.98 30.02 35.57 30.02 33.93 58.57 17.34"/><polygon class="cls-22" points="22.07 33.93 22.06 35.57 1.66 23.79 1.67 22.15 22.07 33.93"/><g class="cls-2"><g class="cls-57"><g class="cls-2"><path class="cls-14" d="M30,33.93v1.64a6,6,0,0,1-1.24.54V34.47A6,6,0,0,0,30,33.93"/><path class="cls-13" d="M28.79,34.47v1.64a7.15,7.15,0,0,1-1.06.27V34.74a8.81,8.81,0,0,0,1.07-.27"/><path class="cls-12" d="M27.72,34.74v1.64c-.24,0-.48.08-.72.1V34.84l.71-.1"/><path class="cls-11" d="M27,34.84v1.64l-.62,0V34.88l.63,0"/><path class="cls-10" d="M26.38,34.88v1.64H25.8V34.88h.57"/><path class="cls-9" d="M25.81,34.88v1.64a5.07,5.07,0,0,1-.55,0V34.85a4.93,4.93,0,0,0,.55,0"/><path class="cls-8" d="M25.26,34.85v1.64l-.55-.06V34.79a4.87,4.87,0,0,0,.55.06"/><path class="cls-7" d="M24.71,34.79v1.64l-.55-.09V34.69l.56.1"/><path class="cls-6" d="M24.15,34.69v1.65a5.66,5.66,0,0,1-.59-.15V34.55l.59.14"/><path class="cls-5" d="M23.56,34.55v1.64a5.44,5.44,0,0,1-.68-.23V34.32c.22.09.45.16.68.23"/><path class="cls-4" d="M22.88,34.32V36a5.62,5.62,0,0,1-.82-.39V33.93a5.5,5.5,0,0,0,.81.39"/></g></g></g></g></g></g></g></svg>