<svg xmlns="http://www.w3.org/2000/svg" xmlns:xlink="http://www.w3.org/1999/xlink" viewBox="0 0 38.72 71.92"><defs><style>.cls-1{fill:none;}.cls-2{isolation:isolate;}.cls-3{clip-path:url(#clip-path);}.cls-4{fill:#5ec4a5;}.cls-5{fill:#5bbfa1;}.cls-6{fill:#59ba9d;}.cls-7{fill:#57b598;}.cls-8{fill:#54b094;}.cls-9{fill:#52ab90;}.cls-10{fill:#50a78c;}.cls-11{fill:#4da288;}.cls-12{fill:#4b9d84;}.cls-13{fill:#499880;}.cls-14{fill:#46937c;}.cls-15{fill:#448e77;}.cls-16{fill:#428973;}.cls-17{fill:#3f846f;}.cls-18{fill:#3d7f6b;}.cls-19{clip-path:url(#clip-path-2);}.cls-20{fill:#001633;}.cls-21{fill:#001532;}.cls-22{fill:#001531;}.cls-23{fill:#00142f;}.cls-24{fill:#00132e;}.cls-25{fill:#00132d;}.cls-26{fill:#00122c;}.cls-27{fill:#00122a;}.cls-28{fill:#001129;}.cls-29{fill:#001128;}.cls-30{clip-path:url(#clip-path-3);}.cls-31{clip-path:url(#clip-path-4);}.cls-32{clip-path:url(#clip-path-5);}.cls-33{clip-path:url(#clip-path-6);}.cls-34{clip-path:url(#clip-path-7);}.cls-35{clip-path:url(#clip-path-8);}.cls-36{clip-path:url(#clip-path-9);}.cls-37{clip-path:url(#clip-path-10);}.cls-38{clip-path:url(#clip-path-11);}.cls-39{clip-path:url(#clip-path-12);}.cls-40{fill:#65d3b1;}.cls-41{clip-path:url(#clip-path-13);}.cls-42{clip-path:url(#clip-path-14);}.cls-43{fill:#001737;}.cls-44{clip-path:url(#clip-path-15);}.cls-45{fill:#000e21;}.cls-46{fill:#000f23;}.cls-47{fill:#000f24;}.cls-48{fill:#001025;}.cls-49{fill:#001026;}.cls-50{clip-path:url(#clip-path-16);}.cls-51{clip-path:url(#clip-path-17);}.cls-52{clip-path:url(#clip-path-18);}.cls-53{clip-path:url(#clip-path-19);}.cls-54{clip-path:url(#clip-path-20);}.cls-55{clip-path:url(#clip-path-21);}.cls-56{clip-path:url(#clip-path-22);}.cls-57{clip-path:url(#clip-path-23);}.cls-58{clip-path:url(#clip-path-24);}.cls-59{clip-path:url(#clip-path-25);}.cls-60{clip-path:url(#clip-path-26);}.cls-61{clip-path:url(#clip-path-27);}.cls-62{clip-path:url(#clip-path-28);}.cls-63{clip-path:url(#clip-path-29);}.cls-64{clip-path:url(#clip-path-30);}.cls-65{clip-path:url(#clip-path-31);}.cls-66{clip-path:url(#clip-path-32);}.cls-67{clip-path:url(#clip-path-33);}.cls-68{clip-path:url(#clip-path-34);}.cls-69{clip-path:url(#clip-path-35);}.cls-70{clip-path:url(#clip-path-36);}.cls-71{clip-path:url(#clip-path-37);}.cls-72{fill:#3f836e;}.cls-73{fill:#000e22;}.cls-74{fill:#fff;}.cls-75{clip-path:url(#clip-path-38);}.cls-76{clip-path:url(#clip-path-39);}</style><clipPath id="clip-path" transform="translate(0 0)"><path class="cls-1" d="M31.64,46.09l2.85,1.66a1,1,0,0,1,.41.92,3.1,3.1,0,0,1-1.42,2.46l-2.84-1.65A3.13,3.13,0,0,0,32.06,47,1,1,0,0,0,31.64,46.09Z"/></clipPath><clipPath id="clip-path-2" transform="translate(0 0)"><path class="cls-1" d="M31.64,46.09l2.85,1.66a1,1,0,0,0-1,.09l-2.84-1.65A1,1,0,0,1,31.64,46.09Z"/></clipPath><clipPath id="clip-path-3" transform="translate(0 0)"><path class="cls-1" d="M31.63,41.16l2.84,1.66a1,1,0,0,1,.42.92,3.13,3.13,0,0,1-1.42,2.46l-2.85-1.65a3.14,3.14,0,0,0,1.43-2.47A1,1,0,0,0,31.63,41.16Z"/></clipPath><clipPath id="clip-path-4" transform="translate(0 0)"><path class="cls-1" d="M31.63,41.16l2.84,1.66a1,1,0,0,0-1,.09l-2.85-1.65A1,1,0,0,1,31.63,41.16Z"/></clipPath><clipPath id="clip-path-5" transform="translate(0 0)"><path class="cls-1" d="M31.62,36.23l2.84,1.65a1,1,0,0,1,.42.93,3.14,3.14,0,0,1-1.43,2.46l-2.84-1.65A3.12,3.12,0,0,0,32,37.15,1,1,0,0,0,31.62,36.23Z"/></clipPath><clipPath id="clip-path-6" transform="translate(0 0)"><path class="cls-1" d="M31.62,36.23l2.84,1.65a1,1,0,0,0-1,.1L30.6,36.33A1,1,0,0,1,31.62,36.23Z"/></clipPath><clipPath id="clip-path-7" transform="translate(0 0)"><path class="cls-1" d="M31.6,31.3,34.44,33a1,1,0,0,1,.42.92,3.13,3.13,0,0,1-1.42,2.47L30.6,34.69A3.15,3.15,0,0,0,32,32.22,1,1,0,0,0,31.6,31.3Z"/></clipPath><clipPath id="clip-path-8" transform="translate(0 0)"><path class="cls-1" d="M31.6,31.3,34.44,33a1,1,0,0,0-1,.1L30.59,31.4A1,1,0,0,1,31.6,31.3Z"/></clipPath><clipPath id="clip-path-9" transform="translate(0 0)"><path class="cls-1" d="M31.59,26.37,34.43,28a1,1,0,0,1,.42.92,3.16,3.16,0,0,1-1.43,2.47l-2.84-1.65A3.16,3.16,0,0,0,32,27.29,1,1,0,0,0,31.59,26.37Z"/></clipPath><clipPath id="clip-path-10" transform="translate(0 0)"><path class="cls-1" d="M31.59,26.37,34.43,28a1,1,0,0,0-1,.1l-2.84-1.65A1,1,0,0,1,31.59,26.37Z"/></clipPath><clipPath id="clip-path-11" transform="translate(0 0)"><path class="cls-1" d="M31.57,21.44l2.85,1.65a1,1,0,0,1,.41.92,3.12,3.12,0,0,1-1.42,2.47l-2.84-1.65A3.15,3.15,0,0,0,32,22.36,1,1,0,0,0,31.57,21.44Z"/></clipPath><clipPath id="clip-path-12" transform="translate(0 0)"><path class="cls-1" d="M31.57,21.44l2.85,1.65a1,1,0,0,0-1,.1l-2.84-1.65A1,1,0,0,1,31.57,21.44Z"/></clipPath><clipPath id="clip-path-13" transform="translate(0 0)"><path class="cls-1" d="M4.83,63.9a1,1,0,0,0,1-.1l2.85,1.65a1,1,0,0,1-1,.1Z"/></clipPath><clipPath id="clip-path-14" transform="translate(0 0)"><path class="cls-1" d="M31.56,16.51l2.84,1.65a1,1,0,0,1,.42.92,3.15,3.15,0,0,1-1.42,2.47L30.55,19.9A3.16,3.16,0,0,0,32,17.43,1,1,0,0,0,31.56,16.51Z"/></clipPath><clipPath id="clip-path-15" transform="translate(0 0)"><path class="cls-1" d="M7.67,65.55,4.83,63.9A1,1,0,0,1,4.41,63a3.13,3.13,0,0,1,1.42-2.47l2.85,1.65a3.16,3.16,0,0,0-1.43,2.47A1,1,0,0,0,7.67,65.55Z"/></clipPath><clipPath id="clip-path-16" transform="translate(0 0)"><path class="cls-1" d="M31.56,16.51l2.84,1.65a1,1,0,0,0-1,.1l-2.85-1.65A1,1,0,0,1,31.56,16.51Z"/></clipPath><clipPath id="clip-path-17" transform="translate(0 0)"><path class="cls-1" d="M4.13,71.66,1.29,70A2.79,2.79,0,0,1,.12,67.44L3,69.09A2.82,2.82,0,0,0,4.13,71.66Z"/></clipPath><clipPath id="clip-path-18" transform="translate(0 0)"><path class="cls-1" d="M4.81,59a1,1,0,0,0,1-.1l2.84,1.65a1,1,0,0,1-1,.1Z"/></clipPath><clipPath id="clip-path-19" transform="translate(0 0)"><path class="cls-1" d="M31.55,12.68l2.84,1.65a1,1,0,0,1,.42.92,3.16,3.16,0,0,1-1.42,2.46l-2.85-1.65A3.14,3.14,0,0,0,32,13.59,1,1,0,0,0,31.55,12.68Z"/></clipPath><clipPath id="clip-path-20" transform="translate(0 0)"><path class="cls-1" d="M31.55,12.68l2.84,1.65a1,1,0,0,0-1,.1l-2.85-1.65A1,1,0,0,1,31.55,12.68Z"/></clipPath><clipPath id="clip-path-21" transform="translate(0 0)"><path class="cls-1" d="M7.65,60.62,4.81,59a1,1,0,0,1-.41-.92,3.11,3.11,0,0,1,1.42-2.47l2.84,1.65A3.13,3.13,0,0,0,7.24,59.7,1,1,0,0,0,7.65,60.62Z"/></clipPath><clipPath id="clip-path-22" transform="translate(0 0)"><path class="cls-1" d="M31.54,8.29,34.38,10a1,1,0,0,1,.42.91,3.16,3.16,0,0,1-1.43,2.47l-2.84-1.65A3.12,3.12,0,0,0,32,9.21,1,1,0,0,0,31.54,8.29Z"/></clipPath><clipPath id="clip-path-23" transform="translate(0 0)"><path class="cls-1" d="M4.8,54a1,1,0,0,0,1-.09l2.84,1.65a1,1,0,0,1-1,.1Z"/></clipPath><clipPath id="clip-path-24" transform="translate(0 0)"><path class="cls-1" d="M31.54,8.29,34.38,10a1,1,0,0,0-1,.1L30.52,8.39A1,1,0,0,1,31.54,8.29Z"/></clipPath><clipPath id="clip-path-25" transform="translate(0 0)"><path class="cls-1" d="M7.64,55.69,4.8,54a1,1,0,0,1-.42-.91,3.14,3.14,0,0,1,1.43-2.47L8.65,52.3a3.14,3.14,0,0,0-1.43,2.47A1,1,0,0,0,7.64,55.69Z"/></clipPath><clipPath id="clip-path-26" transform="translate(0 0)"><path class="cls-1" d="M18.09,26.6a1,1,0,0,0,1-.1L22,28.16a1,1,0,0,1-1,.1Z"/></clipPath><clipPath id="clip-path-27" transform="translate(0 0)"><path class="cls-1" d="M4.78,49.1a1,1,0,0,0,1-.1l2.84,1.66a1,1,0,0,1-1,.1Z"/></clipPath><clipPath id="clip-path-28" transform="translate(0 0)"><path class="cls-1" d="M20.93,28.26,18.09,26.6a1,1,0,0,1-.41-.91,3.11,3.11,0,0,1,1.42-2.47l2.84,1.65a3.13,3.13,0,0,0-1.42,2.47A1,1,0,0,0,20.93,28.26Z"/></clipPath><clipPath id="clip-path-29" transform="translate(0 0)"><path class="cls-1" d="M7.63,50.76,4.78,49.1a1,1,0,0,1-.41-.91,3.13,3.13,0,0,1,1.42-2.47l2.84,1.65a3.16,3.16,0,0,0-1.42,2.47A1,1,0,0,0,7.63,50.76Z"/></clipPath><clipPath id="clip-path-30" transform="translate(0 0)"><path class="cls-1" d="M18.08,22.77a1,1,0,0,0,1-.1l2.84,1.65a1,1,0,0,1-1,.1Z"/></clipPath><clipPath id="clip-path-31" transform="translate(0 0)"><path class="cls-1" d="M4.77,44.17a1,1,0,0,0,1-.1l2.84,1.66a1,1,0,0,1-1,.09Z"/></clipPath><clipPath id="clip-path-32" transform="translate(0 0)"><path class="cls-1" d="M20.92,24.42l-2.84-1.65a1,1,0,0,1-.42-.92,3.16,3.16,0,0,1,1.43-2.47L21.93,21a3.1,3.1,0,0,0-1.42,2.46A1,1,0,0,0,20.92,24.42Z"/></clipPath><clipPath id="clip-path-33" transform="translate(0 0)"><path class="cls-1" d="M7.61,45.83,4.77,44.17a1,1,0,0,1-.42-.91,3.18,3.18,0,0,1,1.43-2.48l2.84,1.66A3.11,3.11,0,0,0,7.2,44.91,1,1,0,0,0,7.61,45.83Z"/></clipPath><clipPath id="clip-path-34" transform="translate(0 0)"><path class="cls-1" d="M18.07,18.38a1,1,0,0,0,1-.1l2.84,1.66a1,1,0,0,1-1,.1Z"/></clipPath><clipPath id="clip-path-35" transform="translate(0 0)"><path class="cls-1" d="M4.76,39.24a1,1,0,0,0,1-.1l2.85,1.65a1,1,0,0,1-1,.1Z"/></clipPath><clipPath id="clip-path-36" transform="translate(0 0)"><path class="cls-1" d="M20.91,20l-2.84-1.66a1,1,0,0,1-.42-.91A3.16,3.16,0,0,1,19.08,15l2.84,1.65a3.16,3.16,0,0,0-1.43,2.47A1,1,0,0,0,20.91,20Z"/></clipPath><clipPath id="clip-path-37" transform="translate(0 0)"><path class="cls-1" d="M7.6,40.89,4.76,39.24a1,1,0,0,1-.42-.91,3.16,3.16,0,0,1,1.42-2.48l2.85,1.66A3.14,3.14,0,0,0,7.18,40,1,1,0,0,0,7.6,40.89Z"/></clipPath><clipPath id="clip-path-38" transform="translate(0 0)"><path class="cls-1" d="M34.59.27l2.84,1.65a2.82,2.82,0,0,0-2.84.28L31.75.55A2.82,2.82,0,0,1,34.59.27Z"/></clipPath><clipPath id="clip-path-39" transform="translate(0 0)"><path class="cls-1" d="M2.84,25.13,0,23.48a8.76,8.76,0,0,1,4-6.9l2.84,1.65A8.76,8.76,0,0,0,2.84,25.13Z"/></clipPath></defs><title>document_1</title><g id="Layer_2" data-name="Layer 2"><g id="document_network_1"><g id="document_1"><g class="cls-2"><g class="cls-2"><g class="cls-3"><g class="cls-2"><path class="cls-4" d="M33.48,51.13l-2.84-1.65a2.06,2.06,0,0,0,.48-.37L34,50.76a2.06,2.06,0,0,1-.48.37" transform="translate(0 0)"/><path class="cls-5" d="M34,50.76l-2.84-1.65.15-.16,2.84,1.65-.15.16" transform="translate(0 0)"/><path class="cls-6" d="M34.11,50.6,31.27,49l.12-.15,2.84,1.66-.12.14" transform="translate(0 0)"/><path class="cls-7" d="M34.23,50.46,31.39,48.8l.09-.12,2.84,1.65-.09.13" transform="translate(0 0)"/><path class="cls-8" d="M34.32,50.33l-2.84-1.65.09-.13,2.84,1.65-.09.13" transform="translate(0 0)"/><path class="cls-9" d="M34.41,50.2l-2.84-1.65.07-.12,2.84,1.65-.07.12" transform="translate(0 0)"/><path class="cls-10" d="M34.48,50.08l-2.84-1.65a.75.75,0,0,1,.07-.12L34.55,50l-.07.12" transform="translate(0 0)"/><path class="cls-11" d="M34.55,50l-2.84-1.65.06-.12,2.84,1.65-.06.12" transform="translate(0 0)"/><path class="cls-12" d="M34.61,49.84l-2.84-1.65a.61.61,0,0,0,.05-.12l2.85,1.65-.06.12" transform="translate(0 0)"/><path class="cls-13" d="M34.67,49.72l-2.85-1.65.06-.13,2.84,1.65a.5.5,0,0,0,0,.13" transform="translate(0 0)"/><path class="cls-14" d="M34.72,49.59l-2.84-1.65s0-.09,0-.14l2.85,1.65-.05.14" transform="translate(0 0)"/><path class="cls-15" d="M34.77,49.45,31.92,47.8a.78.78,0,0,0,0-.14l2.84,1.65s0,.1,0,.14" transform="translate(0 0)"/><path class="cls-16" d="M34.81,49.31,32,47.66c0-.06,0-.11,0-.17l2.84,1.65a1,1,0,0,1,0,.17" transform="translate(0 0)"/><path class="cls-17" d="M34.85,49.14,32,47.49a1.2,1.2,0,0,0,0-.2L34.89,49a1.29,1.29,0,0,1,0,.19" transform="translate(0 0)"/><path class="cls-18" d="M34.89,49,32,47.29a1.27,1.27,0,0,0,0-.28,1,1,0,0,0-.42-.92l2.85,1.66a1,1,0,0,1,.41.92,2.72,2.72,0,0,1,0,.28" transform="translate(0 0)"/></g></g></g><g class="cls-2"><g class="cls-19"><g class="cls-2"><path class="cls-20" d="M33.47,47.84l-2.84-1.65.2-.1,2.84,1.66a1.76,1.76,0,0,0-.2.09" transform="translate(0 0)"/><path class="cls-21" d="M33.67,47.75l-2.84-1.66L31,46l2.84,1.65a.58.58,0,0,0-.17.06" transform="translate(0 0)"/><path class="cls-22" d="M33.84,47.69,31,46l.12,0L34,47.66l-.12,0" transform="translate(0 0)"/><path class="cls-23" d="M34,47.66,31.12,46h.11l2.84,1.65H34" transform="translate(0 0)"/><path class="cls-24" d="M34.07,47.65,31.23,46h.09l2.84,1.65h-.09" transform="translate(0 0)"/><path class="cls-25" d="M34.16,47.65,31.32,46h.09l2.84,1.65h-.09" transform="translate(0 0)"/><path class="cls-26" d="M34.25,47.66,31.41,46l.08,0,2.84,1.65-.08,0" transform="translate(0 0)"/><path class="cls-27" d="M34.33,47.68,31.49,46l.07,0,2.85,1.66-.08,0" transform="translate(0 0)"/><path class="cls-28" d="M34.41,47.71l-2.85-1.66.08,0,2.84,1.65-.07,0" transform="translate(0 0)"/><polyline class="cls-29" points="34.48 47.74 31.64 46.09 31.64 46.09 34.48 47.75 34.48 47.74"/></g></g></g><g class="cls-2"><g class="cls-30"><g class="cls-2"><path class="cls-4" d="M33.47,46.2l-2.85-1.65a2.37,2.37,0,0,0,.48-.37l2.84,1.65a2.24,2.24,0,0,1-.47.37" transform="translate(0 0)"/><path class="cls-5" d="M33.94,45.83,31.1,44.18a1.29,1.29,0,0,0,.16-.17l2.84,1.66c-.05,0-.1.11-.16.16" transform="translate(0 0)"/><path class="cls-6" d="M34.1,45.67,31.26,44a.76.76,0,0,0,.11-.14l2.85,1.66-.12.14" transform="translate(0 0)"/><path class="cls-7" d="M34.22,45.53l-2.85-1.66a.64.64,0,0,0,.1-.13l2.84,1.66-.09.13" transform="translate(0 0)"/><path class="cls-8" d="M34.31,45.4l-2.84-1.66.08-.12,2.84,1.65-.08.13" transform="translate(0 0)"/><path class="cls-9" d="M34.39,45.27l-2.84-1.65a.75.75,0,0,0,.07-.12l2.85,1.65-.08.12" transform="translate(0 0)"/><path class="cls-10" d="M34.47,45.15,31.62,43.5a.75.75,0,0,0,.07-.12L34.53,45l-.06.12" transform="translate(0 0)"/><path class="cls-11" d="M34.53,45l-2.84-1.65.06-.12,2.85,1.65a.75.75,0,0,1-.07.12" transform="translate(0 0)"/><path class="cls-12" d="M34.6,44.91l-2.85-1.65.06-.13,2.84,1.66,0,.12" transform="translate(0 0)"/><path class="cls-13" d="M34.65,44.79l-2.84-1.66a.61.61,0,0,0,.05-.12l2.84,1.65a1.12,1.12,0,0,1-.05.13" transform="translate(0 0)"/><path class="cls-14" d="M34.7,44.66,31.86,43a.78.78,0,0,0,.05-.14l2.84,1.65a.78.78,0,0,1,0,.14" transform="translate(0 0)"/><path class="cls-15" d="M34.75,44.52l-2.84-1.65.05-.14,2.84,1.65s0,.1,0,.14" transform="translate(0 0)"/><path class="cls-16" d="M34.8,44.38,32,42.73a1,1,0,0,1,0-.17l2.84,1.65c0,.06,0,.11,0,.17" transform="translate(0 0)"/><path class="cls-17" d="M34.84,44.21,32,42.56l0-.2L34.87,44l0,.19" transform="translate(0 0)"/><path class="cls-18" d="M34.87,44,32,42.36a2.46,2.46,0,0,0,0-.28,1,1,0,0,0-.42-.92l2.84,1.66a1,1,0,0,1,.42.92c0,.09,0,.18,0,.28" transform="translate(0 0)"/></g></g></g><g class="cls-2"><g class="cls-31"><g class="cls-2"><path class="cls-20" d="M33.46,42.91l-2.85-1.65.2-.1,2.85,1.65-.2.1" transform="translate(0 0)"/><path class="cls-21" d="M33.66,42.81l-2.85-1.65.17,0,2.84,1.65-.16.05" transform="translate(0 0)"/><path class="cls-22" d="M33.82,42.76,31,41.11a.31.31,0,0,1,.13,0L34,42.73l-.13,0" transform="translate(0 0)"/><path class="cls-23" d="M34,42.73l-2.84-1.65h.1l2.84,1.65H34" transform="translate(0 0)"/><path class="cls-24" d="M34.05,42.72l-2.84-1.65h.1l2.84,1.65h-.1" transform="translate(0 0)"/><path class="cls-25" d="M34.15,42.72l-2.84-1.65h.08l2.85,1.65h-.09" transform="translate(0 0)"/><path class="cls-26" d="M34.24,42.73l-2.85-1.65.08,0,2.85,1.65-.08,0" transform="translate(0 0)"/><path class="cls-27" d="M34.32,42.75,31.47,41.1l.08,0,2.84,1.66-.07,0" transform="translate(0 0)"/><path class="cls-28" d="M34.39,42.78l-2.84-1.66.07,0,2.84,1.65-.07,0" transform="translate(0 0)"/><polyline class="cls-29" points="34.46 42.81 31.62 41.16 31.63 41.16 34.47 42.81 34.46 42.81"/></g></g></g><g class="cls-2"><g class="cls-32"><g class="cls-2"><path class="cls-4" d="M33.45,41.27l-2.84-1.65a2.37,2.37,0,0,0,.48-.37l2.84,1.65a2.06,2.06,0,0,1-.48.37" transform="translate(0 0)"/><path class="cls-5" d="M33.93,40.9l-2.84-1.65.15-.17,2.85,1.66-.16.16" transform="translate(0 0)"/><path class="cls-6" d="M34.09,40.74l-2.85-1.66.12-.14,2.84,1.65-.11.15" transform="translate(0 0)"/><path class="cls-7" d="M34.2,40.59l-2.84-1.65.09-.13,2.85,1.66-.1.12" transform="translate(0 0)"/><path class="cls-8" d="M34.3,40.47l-2.85-1.66.09-.12,2.84,1.65-.08.13" transform="translate(0 0)"/><path class="cls-9" d="M34.38,40.34l-2.84-1.65.07-.12,2.84,1.65-.07.12" transform="translate(0 0)"/><path class="cls-10" d="M34.45,40.22l-2.84-1.65.07-.12,2.84,1.65a.75.75,0,0,1-.07.12" transform="translate(0 0)"/><path class="cls-11" d="M34.52,40.1l-2.84-1.65.06-.12L34.58,40l-.06.12" transform="translate(0 0)"/><path class="cls-12" d="M34.58,40l-2.84-1.65.06-.13,2.84,1.66-.06.12" transform="translate(0 0)"/><path class="cls-13" d="M34.64,39.86,31.8,38.2a.61.61,0,0,1,.05-.12l2.84,1.65s0,.08,0,.13" transform="translate(0 0)"/><path class="cls-14" d="M34.69,39.73l-2.84-1.65,0-.14,2.84,1.65-.05.14" transform="translate(0 0)"/><path class="cls-15" d="M34.74,39.59,31.9,37.94s0-.1,0-.14l2.84,1.65a.74.74,0,0,1,0,.14" transform="translate(0 0)"/><path class="cls-16" d="M34.78,39.45,31.94,37.8a1,1,0,0,0,0-.17l2.84,1.65a1,1,0,0,1,0,.17" transform="translate(0 0)"/><path class="cls-17" d="M34.82,39.28,32,37.63a1.18,1.18,0,0,0,0-.2l2.84,1.66a1.29,1.29,0,0,1,0,.19" transform="translate(0 0)"/><path class="cls-18" d="M34.86,39.09,32,37.43a2.62,2.62,0,0,0,0-.28,1,1,0,0,0-.41-.92l2.84,1.65a1,1,0,0,1,.42.93c0,.09,0,.18,0,.28" transform="translate(0 0)"/></g></g></g><g class="cls-2"><g class="cls-33"><g class="cls-2"><path class="cls-20" d="M33.44,38,30.6,36.33l.2-.1,2.84,1.65-.2.1" transform="translate(0 0)"/><path class="cls-21" d="M33.64,37.88,30.8,36.23l.17-.06,2.84,1.66-.17.05" transform="translate(0 0)"/><path class="cls-22" d="M33.81,37.83,31,36.17l.12,0,2.84,1.65-.12,0" transform="translate(0 0)"/><path class="cls-23" d="M33.93,37.8l-2.84-1.65h.11L34,37.79h-.11" transform="translate(0 0)"/><path class="cls-24" d="M34,37.79,31.2,36.14h.09l2.85,1.65H34" transform="translate(0 0)"/><path class="cls-25" d="M34.14,37.79l-2.85-1.65h.09l2.84,1.65h-.08" transform="translate(0 0)"/><path class="cls-26" d="M34.22,37.8l-2.84-1.65.08,0,2.84,1.65-.08,0" transform="translate(0 0)"/><path class="cls-27" d="M34.3,37.82l-2.84-1.65.08,0,2.84,1.65-.08,0" transform="translate(0 0)"/><path class="cls-28" d="M34.38,37.84l-2.84-1.65.07,0,2.84,1.65-.07,0" transform="translate(0 0)"/><polyline class="cls-29" points="34.45 37.88 31.61 36.23 31.61 36.23 34.46 37.88 34.45 37.88"/></g></g></g><g class="cls-2"><g class="cls-34"><g class="cls-2"><path class="cls-4" d="M33.44,36.34,30.6,34.69a2.63,2.63,0,0,0,.47-.37L33.92,36a2.37,2.37,0,0,1-.48.37" transform="translate(0 0)"/><path class="cls-5" d="M33.92,36l-2.85-1.65a1.29,1.29,0,0,0,.16-.17l2.84,1.65-.15.17" transform="translate(0 0)"/><path class="cls-6" d="M34.07,35.8l-2.84-1.65.12-.14,2.84,1.65-.12.14" transform="translate(0 0)"/><path class="cls-7" d="M34.19,35.66,31.35,34l.09-.13,2.84,1.65-.09.13" transform="translate(0 0)"/><path class="cls-8" d="M34.28,35.53l-2.84-1.65.08-.12,2.85,1.65-.09.12" transform="translate(0 0)"/><path class="cls-9" d="M34.37,35.41l-2.85-1.65.08-.12,2.84,1.65-.07.12" transform="translate(0 0)"/><path class="cls-10" d="M34.44,35.29,31.6,33.64l.06-.12,2.85,1.65a.75.75,0,0,0-.07.12" transform="translate(0 0)"/><path class="cls-11" d="M34.51,35.17l-2.85-1.65a.75.75,0,0,0,.07-.12l2.84,1.65-.06.12" transform="translate(0 0)"/><path class="cls-12" d="M34.57,35.05,31.73,33.4s0-.09.05-.13l2.84,1.66a.61.61,0,0,1,0,.12" transform="translate(0 0)"/><path class="cls-13" d="M34.62,34.93l-2.84-1.66a.61.61,0,0,0,0-.12l2.85,1.65-.06.13" transform="translate(0 0)"/><path class="cls-14" d="M34.68,34.8l-2.85-1.65a.78.78,0,0,0,.05-.14l2.85,1.65a.78.78,0,0,0,0,.14" transform="translate(0 0)"/><path class="cls-15" d="M34.73,34.66,31.88,33l.05-.15,2.84,1.66s0,.09,0,.14" transform="translate(0 0)"/><path class="cls-16" d="M34.77,34.52l-2.84-1.66s0-.1,0-.16l2.84,1.65c0,.06,0,.11,0,.17" transform="translate(0 0)"/><path class="cls-17" d="M34.81,34.35,32,32.7l0-.2,2.84,1.65a1.2,1.2,0,0,1,0,.2" transform="translate(0 0)"/><path class="cls-18" d="M34.84,34.15,32,32.5a2.64,2.64,0,0,0,0-.28,1,1,0,0,0-.42-.92L34.44,33a1,1,0,0,1,.42.92,1.27,1.27,0,0,1,0,.28" transform="translate(0 0)"/></g></g></g><g class="cls-2"><g class="cls-35"><g class="cls-2"><path class="cls-20" d="M33.43,33.05,30.59,31.4a1.24,1.24,0,0,1,.2-.1L33.63,33l-.2.1" transform="translate(0 0)"/><path class="cls-21" d="M33.63,33,30.79,31.3l.16-.06L33.8,32.9l-.17.05" transform="translate(0 0)"/><path class="cls-22" d="M33.8,32.9,31,31.24l.13,0,2.84,1.65-.12,0" transform="translate(0 0)"/><path class="cls-23" d="M33.92,32.87l-2.84-1.65h.1L34,32.86h-.11" transform="translate(0 0)"/><path class="cls-24" d="M34,32.86l-2.85-1.65a.33.33,0,0,1,.1,0l2.84,1.65H34" transform="translate(0 0)"/><path class="cls-25" d="M34.12,32.86l-2.84-1.65h.09l2.84,1.65h-.09" transform="translate(0 0)"/><path class="cls-26" d="M34.21,32.87l-2.84-1.65.08,0,2.84,1.65-.08,0" transform="translate(0 0)"/><path class="cls-27" d="M34.29,32.89l-2.84-1.65.07,0,2.84,1.65-.07,0" transform="translate(0 0)"/><path class="cls-28" d="M34.36,32.91l-2.84-1.65.07,0L34.44,33l-.08,0" transform="translate(0 0)"/><polyline class="cls-29" points="34.44 32.95 31.59 31.3 31.6 31.3 34.44 32.95 34.44 32.95"/></g></g></g><g class="cls-2"><g class="cls-36"><g class="cls-2"><path class="cls-4" d="M33.42,31.41l-2.84-1.65a2.37,2.37,0,0,0,.48-.37L33.9,31a2.37,2.37,0,0,1-.48.37" transform="translate(0 0)"/><path class="cls-5" d="M33.9,31l-2.84-1.65.16-.17,2.84,1.65a1.29,1.29,0,0,1-.16.17" transform="translate(0 0)"/><path class="cls-6" d="M34.06,30.87l-2.84-1.65a1.71,1.71,0,0,0,.11-.14l2.84,1.65a.76.76,0,0,1-.11.14" transform="translate(0 0)"/><path class="cls-7" d="M34.17,30.73l-2.84-1.65a1.47,1.47,0,0,0,.1-.13l2.84,1.65a.64.64,0,0,1-.1.13" transform="translate(0 0)"/><path class="cls-8" d="M34.27,30.6,31.43,29a.83.83,0,0,1,.08-.12l2.84,1.65-.08.12" transform="translate(0 0)"/><path class="cls-9" d="M34.35,30.48l-2.84-1.65.07-.12,2.85,1.65-.08.12" transform="translate(0 0)"/><path class="cls-10" d="M34.43,30.36l-2.85-1.65a.75.75,0,0,0,.07-.12l2.84,1.65-.06.12" transform="translate(0 0)"/><path class="cls-11" d="M34.49,30.24l-2.84-1.65.06-.12,2.84,1.65-.06.12" transform="translate(0 0)"/><path class="cls-12" d="M34.55,30.12l-2.84-1.65.06-.13L34.61,30l-.06.13" transform="translate(0 0)"/><path class="cls-13" d="M34.61,30l-2.84-1.65s0-.08.05-.13l2.84,1.66a.61.61,0,0,1,0,.12" transform="translate(0 0)"/><path class="cls-14" d="M34.66,29.87l-2.84-1.66s0-.09.05-.13l2.84,1.65a.78.78,0,0,1-.05.14" transform="translate(0 0)"/><path class="cls-15" d="M34.71,29.73l-2.84-1.65a.83.83,0,0,0,0-.15l2.85,1.66s0,.09,0,.14" transform="translate(0 0)"/><path class="cls-16" d="M34.76,29.59l-2.85-1.66a.94.94,0,0,0,0-.16l2.85,1.65a1,1,0,0,0,0,.17" transform="translate(0 0)"/><path class="cls-17" d="M34.8,29.42,32,27.77a1.42,1.42,0,0,0,0-.2l2.84,1.65,0,.2" transform="translate(0 0)"/><path class="cls-18" d="M34.83,29.22,32,27.57a2.64,2.64,0,0,0,0-.28,1,1,0,0,0-.42-.92L34.43,28a1,1,0,0,1,.42.92,2.46,2.46,0,0,1,0,.28" transform="translate(0 0)"/></g></g></g><g class="cls-2"><g class="cls-37"><g class="cls-2"><path class="cls-20" d="M33.41,28.12l-2.84-1.65.2-.1L33.61,28l-.2.1" transform="translate(0 0)"/><path class="cls-21" d="M33.61,28l-2.84-1.65.17-.06L33.78,28l-.17.06" transform="translate(0 0)"/><path class="cls-22" d="M33.78,28l-2.84-1.65.12,0,2.85,1.65-.13,0" transform="translate(0 0)"/><path class="cls-23" d="M33.91,27.94l-2.85-1.65h.11L34,27.93h-.1" transform="translate(0 0)"/><path class="cls-24" d="M34,27.93l-2.84-1.65a.17.17,0,0,1,.1,0l2.84,1.65H34" transform="translate(0 0)"/><path class="cls-25" d="M34.11,27.93l-2.84-1.65h.08l2.84,1.65h-.08" transform="translate(0 0)"/><path class="cls-26" d="M34.19,27.94l-2.84-1.65.08,0L34.27,28l-.08,0" transform="translate(0 0)"/><path class="cls-27" d="M34.27,28l-2.84-1.65.08,0L34.35,28l-.08,0" transform="translate(0 0)"/><path class="cls-28" d="M34.35,28l-2.84-1.65.07,0L34.42,28l-.07,0" transform="translate(0 0)"/><polyline class="cls-29" points="34.42 28.02 31.58 26.37 31.59 26.37 34.43 28.02 34.42 28.02"/></g></g></g><g class="cls-2"><g class="cls-38"><g class="cls-2"><path class="cls-4" d="M33.41,26.48l-2.84-1.65a2.37,2.37,0,0,0,.48-.37l2.84,1.65a2.37,2.37,0,0,1-.48.37" transform="translate(0 0)"/><path class="cls-5" d="M33.89,26.11l-2.84-1.65.15-.17L34,25.94l-.15.17" transform="translate(0 0)"/><path class="cls-6" d="M34,25.94,31.2,24.29l.12-.14,2.84,1.65-.12.14" transform="translate(0 0)"/><path class="cls-7" d="M34.16,25.8l-2.84-1.65.09-.13,2.84,1.65-.09.13" transform="translate(0 0)"/><path class="cls-8" d="M34.25,25.67,31.41,24l.09-.12,2.84,1.65-.09.12" transform="translate(0 0)"/><path class="cls-9" d="M34.34,25.55,31.5,23.9l.07-.12,2.84,1.65-.07.12" transform="translate(0 0)"/><path class="cls-10" d="M34.41,25.43l-2.84-1.65a.75.75,0,0,1,.07-.12l2.84,1.65-.07.12" transform="translate(0 0)"/><path class="cls-11" d="M34.48,25.31l-2.84-1.65.06-.12,2.84,1.65-.06.12" transform="translate(0 0)"/><path class="cls-12" d="M34.54,25.19,31.7,23.54a1.12,1.12,0,0,0,.05-.13l2.85,1.65-.06.13" transform="translate(0 0)"/><path class="cls-13" d="M34.6,25.06l-2.85-1.65.06-.13,2.84,1.66a.61.61,0,0,0,0,.12" transform="translate(0 0)"/><path class="cls-14" d="M34.65,24.94l-2.84-1.66a.69.69,0,0,1,.05-.13L34.7,24.8l-.05.14" transform="translate(0 0)"/><path class="cls-15" d="M34.7,24.8l-2.84-1.65s0-.1,0-.15l2.84,1.65c0,.05,0,.1,0,.15" transform="translate(0 0)"/><path class="cls-16" d="M34.74,24.65,31.9,23l0-.16,2.84,1.65a.75.75,0,0,1,0,.16" transform="translate(0 0)"/><path class="cls-17" d="M34.78,24.49l-2.84-1.65a1.38,1.38,0,0,0,0-.2l2.85,1.65a1.42,1.42,0,0,1,0,.2" transform="translate(0 0)"/><path class="cls-18" d="M34.82,24.29,32,22.64a1.32,1.32,0,0,0,0-.28,1,1,0,0,0-.42-.92l2.85,1.65a1,1,0,0,1,.41.92,2.62,2.62,0,0,1,0,.28" transform="translate(0 0)"/></g></g></g><g class="cls-2"><g class="cls-39"><g class="cls-2"><path class="cls-20" d="M33.4,23.19l-2.84-1.65.2-.1,2.84,1.65-.2.1" transform="translate(0 0)"/><path class="cls-21" d="M33.6,23.09l-2.84-1.65.17-.06L33.77,23l-.17.06" transform="translate(0 0)"/><path class="cls-22" d="M33.77,23l-2.84-1.65.12,0L33.89,23l-.12,0" transform="translate(0 0)"/><path class="cls-23" d="M33.89,23l-2.84-1.65.11,0L34,23h-.11" transform="translate(0 0)"/><path class="cls-24" d="M34,23l-2.84-1.66h.09L34.09,23H34" transform="translate(0 0)"/><path class="cls-25" d="M34.09,23l-2.84-1.65h.09L34.18,23h-.09" transform="translate(0 0)"/><path class="cls-26" d="M34.18,23l-2.84-1.65h.08L34.26,23l-.08,0" transform="translate(0 0)"/><path class="cls-27" d="M34.26,23l-2.84-1.66.07,0,2.85,1.65-.08,0" transform="translate(0 0)"/><path class="cls-28" d="M34.34,23.05,31.49,21.4l.08,0,2.84,1.65-.07,0" transform="translate(0 0)"/><polyline class="cls-29" points="34.41 23.09 31.57 21.44 31.57 21.44 34.41 23.09 34.41 23.09"/></g></g></g><polygon class="cls-40" points="8.69 65.45 5.84 63.8 30.64 49.48 33.48 51.13 8.69 65.45"/><g class="cls-2"><g class="cls-41"><g class="cls-2"><polyline class="cls-13" points="7.67 65.55 4.83 63.9 4.83 63.9 7.68 65.55 7.67 65.55"/><path class="cls-12" d="M7.68,65.55,4.83,63.9l.08,0,2.84,1.65-.07,0" transform="translate(0 0)"/><path class="cls-11" d="M7.75,65.59,4.91,63.94,5,64l2.84,1.65-.07,0" transform="translate(0 0)"/><path class="cls-10" d="M7.82,65.61,5,64l.08,0L7.9,65.63l-.08,0" transform="translate(0 0)"/><path class="cls-9" d="M7.9,65.63,5.06,64h.09L8,65.64H7.9" transform="translate(0 0)"/><path class="cls-8" d="M8,65.64,5.15,64h.09l2.84,1.65a.27.27,0,0,1-.09,0" transform="translate(0 0)"/><path class="cls-7" d="M8.08,65.64,5.24,64h.11l2.84,1.65H8.08" transform="translate(0 0)"/><path class="cls-6" d="M8.19,65.63,5.35,64l.13,0,2.84,1.66-.13,0" transform="translate(0 0)"/><path class="cls-5" d="M8.32,65.61,5.48,64l.16-.05,2.85,1.65-.17.06" transform="translate(0 0)"/><path class="cls-4" d="M8.49,65.55,5.64,63.9a1.24,1.24,0,0,0,.2-.1l2.85,1.65-.2.1" transform="translate(0 0)"/></g></g></g><g class="cls-2"><g class="cls-42"><g class="cls-2"><path class="cls-4" d="M33.4,21.55,30.55,19.9a2.8,2.8,0,0,0,.48-.37l2.84,1.65a2.63,2.63,0,0,1-.47.37" transform="translate(0 0)"/><path class="cls-5" d="M33.87,21.18,31,19.53l.16-.17L34,21a1.29,1.29,0,0,1-.16.17" transform="translate(0 0)"/><path class="cls-6" d="M34,21l-2.84-1.65a.76.76,0,0,0,.11-.14l2.85,1.65L34,21" transform="translate(0 0)"/><path class="cls-7" d="M34.15,20.87,31.3,19.22a1.13,1.13,0,0,0,.1-.13l2.84,1.65-.09.13" transform="translate(0 0)"/><path class="cls-8" d="M34.24,20.74,31.4,19.09l.08-.12,2.84,1.65-.08.12" transform="translate(0 0)"/><path class="cls-9" d="M34.32,20.62,31.48,19l.08-.12L34.4,20.5l-.08.12" transform="translate(0 0)"/><path class="cls-10" d="M34.4,20.5l-2.84-1.65.06-.12,2.84,1.65-.06.12" transform="translate(0 0)"/><path class="cls-11" d="M34.46,20.38l-2.84-1.65.06-.13,2.85,1.66a.75.75,0,0,1-.07.12" transform="translate(0 0)"/><path class="cls-12" d="M34.53,20.26,31.68,18.6l.06-.12,2.84,1.65s0,.09,0,.13" transform="translate(0 0)"/><path class="cls-13" d="M34.58,20.13l-2.84-1.65a.5.5,0,0,0,.05-.13L34.63,20a.5.5,0,0,1-.05.13" transform="translate(0 0)"/><path class="cls-14" d="M34.63,20l-2.84-1.65a.69.69,0,0,0,.05-.13l2.84,1.65a.69.69,0,0,1,0,.13" transform="translate(0 0)"/><path class="cls-15" d="M34.68,19.87l-2.84-1.65s0-.1.05-.15l2.84,1.65c0,.05,0,.1,0,.15" transform="translate(0 0)"/><path class="cls-16" d="M34.73,19.72l-2.84-1.65a.94.94,0,0,1,0-.16l2.84,1.65,0,.16" transform="translate(0 0)"/><path class="cls-17" d="M34.77,19.56l-2.84-1.65,0-.2,2.84,1.65,0,.2" transform="translate(0 0)"/><path class="cls-18" d="M34.8,19.36,32,17.71a2.64,2.64,0,0,0,0-.28,1,1,0,0,0-.42-.92l2.84,1.65a1,1,0,0,1,.42.92,2.64,2.64,0,0,1,0,.28" transform="translate(0 0)"/></g></g></g><polygon class="cls-43" points="8.68 62.16 5.83 60.51 30.63 46.19 33.47 47.84 8.68 62.16"/><g class="cls-2"><g class="cls-44"><g class="cls-2"><path class="cls-45" d="M7.67,65.55,4.83,63.9A1,1,0,0,1,4.41,63a2.64,2.64,0,0,1,0-.28l2.84,1.65c0,.1,0,.19,0,.28a1,1,0,0,0,.42.92" transform="translate(0 0)"/><path class="cls-46" d="M7.27,64.35,4.43,62.7l0-.2L7.3,64.15l0,.2" transform="translate(0 0)"/><path class="cls-47" d="M7.3,64.15,4.46,62.5l0-.16L7.35,64c0,.05,0,.11,0,.16" transform="translate(0 0)"/><path class="cls-48" d="M7.35,64,4.5,62.34l0-.15,2.84,1.65a.83.83,0,0,0,0,.15" transform="translate(0 0)"/><path class="cls-49" d="M7.39,63.84,4.55,62.19a.78.78,0,0,1,0-.14l2.84,1.66a.69.69,0,0,0-.05.13" transform="translate(0 0)"/><path class="cls-29" d="M7.44,63.71,4.6,62.05a1.12,1.12,0,0,1,.05-.13l2.84,1.66s0,.08,0,.13" transform="translate(0 0)"/><path class="cls-28" d="M7.49,63.58,4.65,61.92l.06-.12,2.84,1.65-.06.13" transform="translate(0 0)"/><path class="cls-27" d="M7.55,63.45,4.71,61.8l.06-.12,2.84,1.65-.06.12" transform="translate(0 0)"/><path class="cls-26" d="M7.61,63.33,4.77,61.68a.75.75,0,0,1,.07-.12l2.84,1.65a.75.75,0,0,0-.07.12" transform="translate(0 0)"/><path class="cls-25" d="M7.68,63.21,4.84,61.56a.75.75,0,0,1,.07-.12l2.84,1.65-.07.12" transform="translate(0 0)"/><path class="cls-24" d="M7.75,63.09,4.91,61.44,5,61.31,7.83,63l-.08.13" transform="translate(0 0)"/><path class="cls-23" d="M7.83,63,5,61.31l.1-.13,2.84,1.65a.64.64,0,0,1-.1.13" transform="translate(0 0)"/><path class="cls-22" d="M7.93,62.83,5.09,61.18A1.34,1.34,0,0,1,5.2,61l2.85,1.65-.12.14" transform="translate(0 0)"/><path class="cls-21" d="M8.05,62.69,5.2,61c0-.06.11-.11.16-.16L8.2,62.53l-.15.16" transform="translate(0 0)"/><path class="cls-20" d="M8.2,62.53,5.36,60.88a2.24,2.24,0,0,1,.47-.37l2.85,1.65a2.37,2.37,0,0,0-.48.37" transform="translate(0 0)"/></g></g></g><path class="cls-22" d="M33.47,47.84c.79-.45,1.43-.08,1.43.83a3.1,3.1,0,0,1-1.42,2.46L8.69,65.45c-.79.45-1.44.09-1.44-.82a3.16,3.16,0,0,1,1.43-2.47Z" transform="translate(0 0)"/><g class="cls-2"><g class="cls-50"><g class="cls-2"><path class="cls-20" d="M33.39,18.26l-2.85-1.65.2-.1,2.85,1.65a1.24,1.24,0,0,0-.2.1" transform="translate(0 0)"/><path class="cls-21" d="M33.59,18.16l-2.85-1.65.17-.06,2.84,1.65-.16.06" transform="translate(0 0)"/><path class="cls-22" d="M33.75,18.1l-2.84-1.65.13,0,2.84,1.66-.13,0" transform="translate(0 0)"/><path class="cls-23" d="M33.88,18.08,31,16.42h.1L34,18.07h-.1" transform="translate(0 0)"/><path class="cls-24" d="M34,18.07l-2.84-1.66h.1l2.84,1.66a.17.17,0,0,0-.1,0" transform="translate(0 0)"/><path class="cls-25" d="M34.08,18.07l-2.84-1.66h.08l2.85,1.66h-.09" transform="translate(0 0)"/><path class="cls-26" d="M34.17,18.08l-2.85-1.66.08,0,2.85,1.66-.08,0" transform="translate(0 0)"/><path class="cls-27" d="M34.25,18.1,31.4,16.44l.08,0,2.84,1.65-.07,0" transform="translate(0 0)"/><path class="cls-28" d="M34.32,18.12l-2.84-1.65.07,0,2.84,1.65-.07,0" transform="translate(0 0)"/><polyline class="cls-29" points="34.39 18.16 31.55 16.5 31.56 16.51 34.4 18.16 34.39 18.16"/></g></g></g><polygon class="cls-40" points="8.67 60.52 5.83 58.87 30.62 44.55 33.47 46.2 8.67 60.52"/><g class="cls-2"><g class="cls-51"><g class="cls-2"><path class="cls-18" d="M4.13,71.66,1.29,70A2.79,2.79,0,0,1,.12,67.44L3,69.09a2.82,2.82,0,0,0,1.16,2.57" transform="translate(0 0)"/></g></g></g><g class="cls-2"><g class="cls-52"><g class="cls-2"><polyline class="cls-13" points="7.66 60.62 4.81 58.97 4.82 58.97 7.66 60.62 7.66 60.62"/><path class="cls-12" d="M7.66,60.62,4.82,59l.07,0,2.84,1.65-.07,0" transform="translate(0 0)"/><path class="cls-11" d="M7.73,60.66,4.89,59,5,59l2.84,1.65-.08,0" transform="translate(0 0)"/><path class="cls-10" d="M7.81,60.68,5,59l.08,0L7.89,60.7l-.08,0" transform="translate(0 0)"/><path class="cls-9" d="M7.89,60.7,5.05,59.05h.08L8,60.71H7.89" transform="translate(0 0)"/><path class="cls-8" d="M8,60.71,5.13,59.06h.1l2.84,1.65H8" transform="translate(0 0)"/><path class="cls-7" d="M8.07,60.71,5.23,59.06h.11L8.18,60.7H8.07" transform="translate(0 0)"/><path class="cls-6" d="M8.18,60.7,5.34,59.05l.12,0L8.3,60.68l-.12,0" transform="translate(0 0)"/><path class="cls-5" d="M8.3,60.68,5.46,59,5.63,59l2.84,1.65-.17.06" transform="translate(0 0)"/><path class="cls-4" d="M8.47,60.62,5.63,59l.2-.1,2.84,1.65-.2.1" transform="translate(0 0)"/></g></g></g><g class="cls-2"><g class="cls-53"><g class="cls-2"><path class="cls-4" d="M33.39,17.71l-2.85-1.65a2.37,2.37,0,0,0,.48-.37l2.84,1.65a2.24,2.24,0,0,1-.47.37" transform="translate(0 0)"/><path class="cls-5" d="M33.86,17.34,31,15.69l.16-.17L34,17.18c-.05.05-.1.11-.16.16" transform="translate(0 0)"/><path class="cls-6" d="M34,17.18l-2.84-1.66a.76.76,0,0,0,.11-.14L34.13,17l-.11.14" transform="translate(0 0)"/><path class="cls-7" d="M34.13,17l-2.84-1.66a.64.64,0,0,0,.1-.13l2.84,1.66-.1.13" transform="translate(0 0)"/><path class="cls-8" d="M34.23,16.91l-2.84-1.66.08-.12,2.84,1.65-.08.13" transform="translate(0 0)"/><path class="cls-9" d="M34.31,16.78l-2.84-1.65a.75.75,0,0,0,.07-.12l2.85,1.65-.08.12" transform="translate(0 0)"/><path class="cls-10" d="M34.39,16.66,31.54,15a.75.75,0,0,0,.07-.12l2.84,1.65-.06.12" transform="translate(0 0)"/><path class="cls-11" d="M34.45,16.54l-2.84-1.65.06-.12,2.84,1.65a.67.67,0,0,1-.06.12" transform="translate(0 0)"/><path class="cls-12" d="M34.51,16.42l-2.84-1.65.06-.13,2.84,1.66-.06.12" transform="translate(0 0)"/><path class="cls-13" d="M34.57,16.3l-2.84-1.66a.61.61,0,0,0,.05-.12l2.84,1.65a1.12,1.12,0,0,1,0,.13" transform="translate(0 0)"/><path class="cls-14" d="M34.62,16.17l-2.84-1.65a.78.78,0,0,0,0-.14L34.67,16a.78.78,0,0,1-.05.14" transform="translate(0 0)"/><path class="cls-15" d="M34.67,16l-2.84-1.65a1,1,0,0,0,0-.14l2.85,1.65s0,.1,0,.14" transform="translate(0 0)"/><path class="cls-16" d="M34.72,15.89l-2.85-1.65a1,1,0,0,0,0-.17l2.85,1.65c0,.06,0,.11,0,.17" transform="translate(0 0)"/><path class="cls-17" d="M34.76,15.72l-2.85-1.65a1.18,1.18,0,0,0,0-.2l2.84,1.66,0,.19" transform="translate(0 0)"/><path class="cls-18" d="M34.79,15.53,32,13.87a2.46,2.46,0,0,0,0-.28,1,1,0,0,0-.42-.91l2.84,1.65a1,1,0,0,1,.42.92c0,.09,0,.18,0,.28" transform="translate(0 0)"/></g></g></g><polygon class="cls-43" points="8.66 57.23 5.82 55.58 30.61 41.26 33.46 42.91 8.66 57.23"/><g class="cls-2"><g class="cls-54"><g class="cls-2"><path class="cls-20" d="M33.38,14.43l-2.85-1.65.2-.1,2.85,1.65a1.24,1.24,0,0,0-.2.1" transform="translate(0 0)"/><path class="cls-21" d="M33.58,14.33l-2.85-1.65.17-.06,2.84,1.65-.16.06" transform="translate(0 0)"/><path class="cls-22" d="M33.74,14.27,30.9,12.62l.13,0,2.84,1.65-.13,0" transform="translate(0 0)"/><path class="cls-23" d="M33.87,14.24,31,12.59h.1L34,14.23h-.11" transform="translate(0 0)"/><path class="cls-24" d="M34,14.23l-2.85-1.65h.1l2.84,1.65H34" transform="translate(0 0)"/><path class="cls-25" d="M34.07,14.23l-2.84-1.65h.09l2.84,1.65h-.09" transform="translate(0 0)"/><path class="cls-26" d="M34.16,14.24l-2.84-1.65.08,0,2.84,1.65-.08,0" transform="translate(0 0)"/><path class="cls-27" d="M34.24,14.26,31.4,12.61l.07,0,2.84,1.65-.07,0" transform="translate(0 0)"/><path class="cls-28" d="M34.31,14.29l-2.84-1.65.07,0,2.84,1.65-.07,0" transform="translate(0 0)"/><polyline class="cls-29" points="34.38 14.32 31.54 12.67 31.55 12.68 34.39 14.33 34.38 14.32"/></g></g></g><g class="cls-2"><g class="cls-55"><g class="cls-2"><path class="cls-45" d="M7.65,60.62,4.81,59a1,1,0,0,1-.41-.92,2.62,2.62,0,0,1,0-.28l2.85,1.65a1.37,1.37,0,0,0,0,.28,1,1,0,0,0,.41.92" transform="translate(0 0)"/><path class="cls-46" d="M7.26,59.42,4.41,57.77a1.42,1.42,0,0,1,0-.2l2.84,1.65,0,.2" transform="translate(0 0)"/><path class="cls-47" d="M7.29,59.22,4.45,57.57a1,1,0,0,1,0-.17l2.84,1.66,0,.16" transform="translate(0 0)"/><path class="cls-48" d="M7.33,59.06,4.49,57.4s0-.09,0-.14l2.85,1.65a.88.88,0,0,0,0,.15" transform="translate(0 0)"/><path class="cls-49" d="M7.38,58.91,4.53,57.26a.78.78,0,0,0,0-.14l2.84,1.65s0,.09,0,.14" transform="translate(0 0)"/><path class="cls-29" d="M7.42,58.77,4.58,57.12,4.64,57l2.84,1.66-.06.12" transform="translate(0 0)"/><path class="cls-28" d="M7.48,58.65,4.64,57a.61.61,0,0,1,.05-.12l2.84,1.65s0,.08,0,.13" transform="translate(0 0)"/><path class="cls-27" d="M7.53,58.52,4.69,56.87l.06-.12L7.6,58.4a.75.75,0,0,0-.07.12" transform="translate(0 0)"/><path class="cls-26" d="M7.6,58.4,4.75,56.75a.75.75,0,0,0,.07-.12l2.84,1.65-.06.12" transform="translate(0 0)"/><path class="cls-25" d="M7.66,58.28,4.82,56.63a1.25,1.25,0,0,1,.08-.12l2.84,1.65-.08.12" transform="translate(0 0)"/><path class="cls-24" d="M7.74,58.16,4.9,56.51A.57.57,0,0,1,5,56.38L7.82,58a.57.57,0,0,0-.08.13" transform="translate(0 0)"/><path class="cls-23" d="M7.82,58,5,56.38l.09-.13L7.92,57.9l-.1.13" transform="translate(0 0)"/><path class="cls-22" d="M7.92,57.9,5.07,56.25l.12-.14L8,57.76l-.11.14" transform="translate(0 0)"/><path class="cls-21" d="M8,57.76,5.19,56.11,5.34,56,8.19,57.6,8,57.76" transform="translate(0 0)"/><path class="cls-20" d="M8.19,57.6,5.34,56a2.06,2.06,0,0,1,.48-.37l2.84,1.65a2.63,2.63,0,0,0-.47.37" transform="translate(0 0)"/></g></g></g><path class="cls-22" d="M33.46,42.91c.79-.45,1.43-.08,1.43.83a3.13,3.13,0,0,1-1.42,2.46L8.67,60.52c-.79.45-1.43.09-1.43-.82a3.13,3.13,0,0,1,1.42-2.47Z" transform="translate(0 0)"/><polygon class="cls-40" points="8.66 55.59 5.82 53.94 30.61 39.62 33.45 41.27 8.66 55.59"/><g class="cls-2"><g class="cls-56"><g class="cls-2"><path class="cls-4" d="M33.37,13.33l-2.84-1.65a2.8,2.8,0,0,0,.48-.37L33.85,13a2.37,2.37,0,0,1-.48.37" transform="translate(0 0)"/><path class="cls-5" d="M33.85,13,31,11.31l.15-.17L34,12.79l-.16.17" transform="translate(0 0)"/><path class="cls-6" d="M34,12.79l-2.85-1.65.12-.14,2.84,1.65a1.71,1.71,0,0,1-.11.14" transform="translate(0 0)"/><path class="cls-7" d="M34.12,12.65,31.28,11a1.13,1.13,0,0,1,.1-.13l2.84,1.65a.64.64,0,0,1-.1.13" transform="translate(0 0)"/><path class="cls-8" d="M34.22,12.52l-2.84-1.65.08-.12L34.3,12.4l-.08.12" transform="translate(0 0)"/><path class="cls-9" d="M34.3,12.4l-2.84-1.65.07-.12,2.84,1.65a.75.75,0,0,1-.07.12" transform="translate(0 0)"/><path class="cls-10" d="M34.37,12.28l-2.84-1.65.07-.12,2.84,1.65a.75.75,0,0,1-.07.12" transform="translate(0 0)"/><path class="cls-11" d="M34.44,12.16,31.6,10.51l.06-.12L34.5,12l-.06.12" transform="translate(0 0)"/><path class="cls-12" d="M34.5,12l-2.84-1.65.06-.13,2.84,1.65L34.5,12" transform="translate(0 0)"/><path class="cls-13" d="M34.56,11.91l-2.84-1.65s0-.08.05-.13l2.84,1.65a.5.5,0,0,1,0,.13" transform="translate(0 0)"/><path class="cls-14" d="M34.61,11.78l-2.84-1.65s0-.09.05-.13l2.84,1.65s0,.09,0,.13" transform="translate(0 0)"/><path class="cls-15" d="M34.66,11.65,31.82,10c0-.05,0-.1,0-.15L34.7,11.5a.83.83,0,0,1,0,.15" transform="translate(0 0)"/><path class="cls-16" d="M34.7,11.5,31.86,9.85a.94.94,0,0,0,0-.16l2.84,1.65a.75.75,0,0,1,0,.16" transform="translate(0 0)"/><path class="cls-17" d="M34.74,11.34,31.9,9.69a1.42,1.42,0,0,0,0-.2l2.84,1.65a1.42,1.42,0,0,1,0,.2" transform="translate(0 0)"/><path class="cls-18" d="M34.78,11.14,31.94,9.49a1.31,1.31,0,0,0,0-.28,1,1,0,0,0-.41-.92L34.38,10a1,1,0,0,1,.42.91,2.64,2.64,0,0,1,0,.28" transform="translate(0 0)"/></g></g></g><g class="cls-2"><g class="cls-57"><g class="cls-2"><polyline class="cls-13" points="7.64 55.69 4.8 54.03 4.81 54.04 7.65 55.69 7.64 55.69"/><path class="cls-12" d="M7.65,55.69,4.81,54l.07,0,2.84,1.66-.07,0" transform="translate(0 0)"/><path class="cls-11" d="M7.72,55.73,4.88,54.07l.07,0L7.8,55.75l-.08,0" transform="translate(0 0)"/><path class="cls-10" d="M7.8,55.75,5,54.1l.08,0,2.85,1.65-.08,0" transform="translate(0 0)"/><path class="cls-9" d="M7.88,55.77,5,54.12h.09L8,55.78H7.88" transform="translate(0 0)"/><path class="cls-8" d="M8,55.78,5.12,54.13h.09l2.85,1.65H8" transform="translate(0 0)"/><path class="cls-7" d="M8.06,55.78,5.21,54.13h.11l2.84,1.65h-.1" transform="translate(0 0)"/><path class="cls-6" d="M8.16,55.77,5.32,54.12l.13,0,2.84,1.65a.31.31,0,0,1-.13,0" transform="translate(0 0)"/><path class="cls-5" d="M8.29,55.74,5.45,54.09,5.62,54l2.84,1.66-.17.05" transform="translate(0 0)"/><path class="cls-4" d="M8.46,55.69,5.62,54l.2-.09,2.84,1.65-.2.1" transform="translate(0 0)"/></g></g></g><g class="cls-2"><g class="cls-58"><g class="cls-2"><path class="cls-20" d="M33.36,10.05,30.52,8.39l.2-.1L33.56,10l-.2.1" transform="translate(0 0)"/><path class="cls-21" d="M33.56,10,30.72,8.29l.17,0,2.84,1.65-.17.06" transform="translate(0 0)"/><path class="cls-22" d="M33.73,9.89,30.89,8.24a.5.5,0,0,1,.13,0l2.84,1.65-.13,0" transform="translate(0 0)"/><path class="cls-23" d="M33.86,9.86,31,8.21h.1L34,9.85h-.1" transform="translate(0 0)"/><path class="cls-24" d="M34,9.85,31.12,8.2h.1l2.84,1.65H34" transform="translate(0 0)"/><path class="cls-25" d="M34.06,9.85,31.22,8.2h.08l2.85,1.65h-.09" transform="translate(0 0)"/><path class="cls-26" d="M34.15,9.86,31.3,8.21l.08,0,2.85,1.65-.08,0" transform="translate(0 0)"/><path class="cls-27" d="M34.23,9.88,31.38,8.23l.08,0L34.3,9.91l-.07,0" transform="translate(0 0)"/><path class="cls-28" d="M34.3,9.91,31.46,8.25l.07,0,2.84,1.65-.07,0" transform="translate(0 0)"/><polyline class="cls-29" points="34.37 9.94 31.53 8.29 31.54 8.29 34.38 9.95 34.37 9.94"/></g></g></g><polygon class="cls-43" points="8.65 52.3 5.81 50.65 30.6 36.33 33.44 37.98 8.65 52.3"/><g class="cls-2"><g class="cls-59"><g class="cls-2"><path class="cls-45" d="M7.64,55.69,4.8,54a1,1,0,0,1-.42-.91,2.64,2.64,0,0,1,0-.28l2.84,1.65a2.64,2.64,0,0,0,0,.28,1,1,0,0,0,.42.92" transform="translate(0 0)"/><path class="cls-46" d="M7.24,54.49,4.4,52.84l0-.2,2.85,1.65a1.42,1.42,0,0,0,0,.2" transform="translate(0 0)"/><path class="cls-47" d="M7.28,54.29,4.43,52.64l.05-.17,2.84,1.66a.94.94,0,0,0,0,.16" transform="translate(0 0)"/><path class="cls-48" d="M7.32,54.13,4.48,52.47a1,1,0,0,1,0-.14L7.36,54c0,.05,0,.1,0,.15" transform="translate(0 0)"/><path class="cls-49" d="M7.36,54,4.52,52.33a.78.78,0,0,1,.05-.14l2.84,1.65,0,.14" transform="translate(0 0)"/><path class="cls-29" d="M7.41,53.84,4.57,52.19s0-.08,0-.13l2.84,1.65s0,.09,0,.13" transform="translate(0 0)"/><path class="cls-28" d="M7.46,53.71,4.62,52.06l.06-.12,2.84,1.65-.06.12" transform="translate(0 0)"/><path class="cls-27" d="M7.52,53.59,4.68,51.94l.06-.12,2.84,1.65-.06.12" transform="translate(0 0)"/><path class="cls-26" d="M7.58,53.47,4.74,51.82a.75.75,0,0,1,.07-.12l2.84,1.65-.07.12" transform="translate(0 0)"/><path class="cls-25" d="M7.65,53.35,4.81,51.7c0-.05.05-.09.07-.13l2.84,1.66-.07.12" transform="translate(0 0)"/><path class="cls-24" d="M7.72,53.23,4.88,51.57,5,51.45,7.81,53.1l-.09.13" transform="translate(0 0)"/><path class="cls-23" d="M7.81,53.1,5,51.45a1.13,1.13,0,0,0,.1-.13L7.9,53l-.09.13" transform="translate(0 0)"/><path class="cls-22" d="M7.9,53,5.06,51.32l.12-.14L8,52.83,7.9,53" transform="translate(0 0)"/><path class="cls-21" d="M8,52.83,5.18,51.18,5.33,51l2.84,1.66L8,52.83" transform="translate(0 0)"/><path class="cls-20" d="M8.17,52.67,5.33,51a2.32,2.32,0,0,1,.48-.36L8.65,52.3a2.06,2.06,0,0,0-.48.37" transform="translate(0 0)"/></g></g></g><polygon class="cls-43" points="8.61 37.51 5.76 35.85 30.56 21.54 33.4 23.19 8.61 37.51"/><polygon class="cls-40" points="21.95 28.16 19.11 26.5 30.55 19.9 33.4 21.55 21.95 28.16"/><polygon class="cls-40" points="8.64 50.66 5.8 49 30.6 34.69 33.44 36.34 8.64 50.66"/><g class="cls-2"><g class="cls-60"><g class="cls-2"><polyline class="cls-13" points="20.93 28.26 18.09 26.6 18.1 26.61 20.94 28.26 20.93 28.26"/><path class="cls-12" d="M20.94,28.26,18.1,26.61l.07,0L21,28.3l-.07,0" transform="translate(0 0)"/><path class="cls-11" d="M21,28.3l-2.84-1.66.08,0,2.84,1.65-.08,0" transform="translate(0 0)"/><path class="cls-10" d="M21.09,28.32l-2.84-1.65.08,0,2.84,1.65-.08,0" transform="translate(0 0)"/><path class="cls-9" d="M21.17,28.34l-2.84-1.65h.08l2.85,1.65h-.09" transform="translate(0 0)"/><path class="cls-8" d="M21.26,28.35,18.41,26.7h.1l2.84,1.65h-.09" transform="translate(0 0)"/><path class="cls-7" d="M21.35,28.35,18.51,26.7h.1l2.85,1.65h-.11" transform="translate(0 0)"/><path class="cls-6" d="M21.46,28.34l-2.85-1.65.13,0,2.84,1.65-.12,0" transform="translate(0 0)"/><path class="cls-5" d="M21.58,28.31l-2.84-1.65a.58.58,0,0,0,.17-.06l2.84,1.66-.17,0" transform="translate(0 0)"/><path class="cls-4" d="M21.75,28.26,18.91,26.6l.2-.1L22,28.16l-.2.1" transform="translate(0 0)"/></g></g></g><g class="cls-2"><g class="cls-61"><g class="cls-2"><polyline class="cls-13" points="7.63 50.76 4.79 49.1 4.79 49.11 7.63 50.76 7.63 50.76"/><path class="cls-12" d="M7.63,50.76,4.79,49.11l.07,0L7.71,50.8l-.08,0" transform="translate(0 0)"/><path class="cls-11" d="M7.71,50.8,4.86,49.14l.08,0,2.84,1.65-.07,0" transform="translate(0 0)"/><path class="cls-10" d="M7.78,50.82,4.94,49.17l.08,0,2.84,1.65-.08,0" transform="translate(0 0)"/><path class="cls-9" d="M7.86,50.84,5,49.19h.09L8,50.85H7.86" transform="translate(0 0)"/><path class="cls-8" d="M8,50.85,5.11,49.2H5.2L8,50.85H8" transform="translate(0 0)"/><path class="cls-7" d="M8,50.85,5.2,49.2h.11l2.84,1.65H8" transform="translate(0 0)"/><path class="cls-6" d="M8.15,50.84,5.31,49.19l.12,0,2.85,1.65-.13,0" transform="translate(0 0)"/><path class="cls-5" d="M8.28,50.81,5.43,49.16a.58.58,0,0,0,.17-.06l2.84,1.66-.16.05" transform="translate(0 0)"/><path class="cls-4" d="M8.44,50.76,5.6,49.1a.93.93,0,0,0,.2-.1l2.84,1.66a1.24,1.24,0,0,1-.2.1" transform="translate(0 0)"/></g></g></g><polygon class="cls-43" points="21.94 24.87 19.1 23.22 30.54 16.61 33.39 18.26 21.94 24.87"/><polygon class="cls-43" points="8.63 47.37 5.79 45.72 30.59 31.4 33.43 33.05 8.63 47.37"/><polygon class="cls-40" points="21.94 24.32 19.1 22.67 30.54 16.06 33.38 17.71 21.94 24.32"/><g class="cls-2"><g class="cls-62"><g class="cls-2"><path class="cls-45" d="M20.93,28.26,18.09,26.6a1,1,0,0,1-.41-.91,2.62,2.62,0,0,1,0-.28l2.85,1.65a1.32,1.32,0,0,0,0,.28,1,1,0,0,0,.41.92" transform="translate(0 0)"/><path class="cls-46" d="M20.54,27.06l-2.85-1.65a1.18,1.18,0,0,1,0-.2l2.84,1.65a1.38,1.38,0,0,0,0,.2" transform="translate(0 0)"/><path class="cls-47" d="M20.57,26.86l-2.84-1.65a1,1,0,0,1,0-.17l2.84,1.65c0,.06,0,.12,0,.17" transform="translate(0 0)"/><path class="cls-48" d="M20.61,26.69,17.77,25c0-.05,0-.09,0-.14l2.85,1.65a1.21,1.21,0,0,0-.05.14" transform="translate(0 0)"/><path class="cls-49" d="M20.66,26.55,17.81,24.9l.05-.14,2.84,1.65c0,.05,0,.09,0,.14" transform="translate(0 0)"/><path class="cls-29" d="M20.7,26.41l-2.84-1.65a.5.5,0,0,0,.05-.13l2.85,1.65-.06.13" transform="translate(0 0)"/><path class="cls-28" d="M20.76,26.28l-2.85-1.65.06-.12,2.84,1.65,0,.12" transform="translate(0 0)"/><path class="cls-27" d="M20.81,26.16,18,24.51l.06-.12L20.88,26a.75.75,0,0,0-.07.12" transform="translate(0 0)"/><path class="cls-26" d="M20.88,26,18,24.39a.83.83,0,0,0,.07-.13l2.84,1.66-.06.12" transform="translate(0 0)"/><path class="cls-25" d="M20.94,25.92,18.1,24.26a.83.83,0,0,1,.08-.12L21,25.8l-.08.12" transform="translate(0 0)"/><path class="cls-24" d="M21,25.8l-2.84-1.66a.83.83,0,0,1,.08-.12l2.84,1.65a.57.57,0,0,0-.08.13" transform="translate(0 0)"/><path class="cls-23" d="M21.1,25.67,18.26,24l.09-.13,2.85,1.65a1.13,1.13,0,0,0-.1.13" transform="translate(0 0)"/><path class="cls-22" d="M21.2,25.54l-2.85-1.65.12-.14,2.84,1.65a1.34,1.34,0,0,0-.11.14" transform="translate(0 0)"/><path class="cls-21" d="M21.31,25.4l-2.84-1.65.15-.17,2.85,1.66-.16.16" transform="translate(0 0)"/><path class="cls-20" d="M21.47,25.24l-2.85-1.66a2.32,2.32,0,0,1,.48-.36l2.84,1.65a2.24,2.24,0,0,0-.47.37" transform="translate(0 0)"/></g></g></g><path class="cls-22" d="M33.39,18.26c.79-.46,1.43-.09,1.43.82a3.15,3.15,0,0,1-1.42,2.47L22,28.16c-.79.45-1.43.09-1.43-.82a3.13,3.13,0,0,1,1.42-2.47Z" transform="translate(0 0)"/><g class="cls-2"><g class="cls-63"><g class="cls-2"><path class="cls-45" d="M7.63,50.76,4.78,49.1a1,1,0,0,1-.41-.91,1.32,1.32,0,0,1,0-.28l2.84,1.65a2.64,2.64,0,0,0,0,.28,1,1,0,0,0,.42.92" transform="translate(0 0)"/><path class="cls-46" d="M7.23,49.56,4.39,47.91l0-.2,2.84,1.65,0,.2" transform="translate(0 0)"/><path class="cls-47" d="M7.26,49.36,4.42,47.71c0-.06,0-.11,0-.17L7.3,49.19c0,.06,0,.11,0,.17" transform="translate(0 0)"/><path class="cls-48" d="M7.3,49.19,4.46,47.54a.78.78,0,0,1,0-.14l2.84,1.65c0,.05,0,.1,0,.14" transform="translate(0 0)"/><path class="cls-49" d="M7.35,49.05,4.51,47.4s0-.09,0-.14L7.4,48.91a.78.78,0,0,0-.05.14" transform="translate(0 0)"/><path class="cls-29" d="M7.4,48.91,4.55,47.26l.06-.13,2.84,1.65a1.12,1.12,0,0,0,0,.13" transform="translate(0 0)"/><path class="cls-28" d="M7.45,48.78,4.61,47.13l0-.12,2.85,1.65-.06.12" transform="translate(0 0)"/><path class="cls-27" d="M7.51,48.66,4.66,47a.75.75,0,0,1,.07-.12l2.84,1.65-.06.12" transform="translate(0 0)"/><path class="cls-26" d="M7.57,48.54,4.73,46.89l.06-.13,2.85,1.66a.75.75,0,0,0-.07.12" transform="translate(0 0)"/><path class="cls-25" d="M7.64,48.42,4.79,46.76l.08-.12L7.71,48.3a.75.75,0,0,0-.07.12" transform="translate(0 0)"/><path class="cls-24" d="M7.71,48.3,4.87,46.64,5,46.52l2.84,1.65-.08.13" transform="translate(0 0)"/><path class="cls-23" d="M7.79,48.17,5,46.52a1.13,1.13,0,0,1,.1-.13L7.89,48l-.1.13" transform="translate(0 0)"/><path class="cls-22" d="M7.89,48,5.05,46.39a1.34,1.34,0,0,1,.11-.14L8,47.9,7.89,48" transform="translate(0 0)"/><path class="cls-21" d="M8,47.9,5.16,46.25l.16-.17,2.84,1.66L8,47.9" transform="translate(0 0)"/><path class="cls-20" d="M8.16,47.74,5.32,46.08a2.56,2.56,0,0,1,.47-.36l2.84,1.65a2.24,2.24,0,0,0-.47.37" transform="translate(0 0)"/></g></g></g><path class="cls-22" d="M33.43,33.05c.79-.45,1.43-.08,1.43.82a3.13,3.13,0,0,1-1.42,2.47L8.64,50.66c-.79.45-1.43.09-1.43-.82a3.16,3.16,0,0,1,1.42-2.47Z" transform="translate(0 0)"/><polygon class="cls-40" points="8.63 45.73 5.79 44.07 30.58 29.76 33.42 31.41 8.63 45.73"/><g class="cls-2"><g class="cls-64"><g class="cls-2"><polyline class="cls-13" points="20.92 24.42 18.08 22.77 18.09 22.77 20.93 24.42 20.92 24.42"/><path class="cls-12" d="M20.93,24.42l-2.84-1.65.07,0L21,24.46l-.07,0" transform="translate(0 0)"/><path class="cls-11" d="M21,24.46l-2.84-1.65.08,0,2.84,1.66-.08,0" transform="translate(0 0)"/><path class="cls-10" d="M21.08,24.49l-2.84-1.66.08,0,2.84,1.65h-.08" transform="translate(0 0)"/><path class="cls-9" d="M21.16,24.5l-2.84-1.65h.08l2.85,1.65h-.09" transform="translate(0 0)"/><path class="cls-8" d="M21.25,24.51,18.4,22.86a.34.34,0,0,0,.1,0l2.84,1.66h-.09" transform="translate(0 0)"/><path class="cls-7" d="M21.34,24.52,18.5,22.86h.1l2.85,1.65-.11,0" transform="translate(0 0)"/><path class="cls-6" d="M21.45,24.5,18.6,22.85l.13,0,2.84,1.65-.12,0" transform="translate(0 0)"/><path class="cls-5" d="M21.57,24.48l-2.84-1.65.17-.06,2.84,1.65-.17.06" transform="translate(0 0)"/><path class="cls-4" d="M21.74,24.42,18.9,22.77l.2-.1,2.84,1.65-.2.1" transform="translate(0 0)"/></g></g></g><g class="cls-2"><g class="cls-65"><g class="cls-2"><polyline class="cls-13" points="7.61 45.83 4.77 44.17 4.78 44.18 7.62 45.83 7.61 45.83"/><path class="cls-12" d="M7.62,45.83,4.78,44.18l.07,0,2.84,1.65-.07,0" transform="translate(0 0)"/><path class="cls-11" d="M7.69,45.86,4.85,44.21l.08,0,2.84,1.65-.08,0" transform="translate(0 0)"/><path class="cls-10" d="M7.77,45.89,4.93,44.24l.08,0,2.84,1.65-.08,0" transform="translate(0 0)"/><path class="cls-9" d="M7.85,45.91,5,44.26h.08l2.84,1.65H7.85" transform="translate(0 0)"/><path class="cls-8" d="M7.93,45.92,5.09,44.27h.1L8,45.92h-.1" transform="translate(0 0)"/><path class="cls-7" d="M8,45.92,5.19,44.27h.1l2.85,1.65H8" transform="translate(0 0)"/><path class="cls-6" d="M8.14,45.91,5.29,44.26l.13,0,2.84,1.65-.12,0" transform="translate(0 0)"/><path class="cls-5" d="M8.26,45.88,5.42,44.23l.17-.06,2.84,1.65a.58.58,0,0,1-.17.06" transform="translate(0 0)"/><path class="cls-4" d="M8.43,45.82,5.59,44.17l.2-.1,2.84,1.66a1.76,1.76,0,0,1-.2.09" transform="translate(0 0)"/></g></g></g><polygon class="cls-43" points="21.93 21.04 19.09 19.38 30.53 12.78 33.38 14.43 21.93 21.04"/><g class="cls-2"><g class="cls-66"><g class="cls-2"><path class="cls-45" d="M20.92,24.42l-2.84-1.65a1,1,0,0,1-.42-.92c0-.09,0-.18,0-.28l2.85,1.65a1.37,1.37,0,0,0,0,.28,1,1,0,0,0,.41.92" transform="translate(0 0)"/><path class="cls-46" d="M20.53,23.22l-2.85-1.65a1.77,1.77,0,0,1,0-.2L20.56,23a1.62,1.62,0,0,0,0,.2" transform="translate(0 0)"/><path class="cls-47" d="M20.56,23l-2.84-1.65a.94.94,0,0,1,0-.16l2.84,1.65a1.24,1.24,0,0,0,0,.16" transform="translate(0 0)"/><path class="cls-48" d="M20.6,22.86l-2.84-1.65c0-.05,0-.1,0-.15l2.84,1.66s0,.09,0,.14" transform="translate(0 0)"/><path class="cls-49" d="M20.64,22.72,17.8,21.06s0-.09.05-.13l2.84,1.65a.78.78,0,0,1-.05.14" transform="translate(0 0)"/><path class="cls-29" d="M20.69,22.58l-2.84-1.65s0-.09,0-.13l2.84,1.65a.69.69,0,0,1,0,.13" transform="translate(0 0)"/><path class="cls-28" d="M20.74,22.45,17.9,20.8l.06-.12,2.84,1.65-.06.12" transform="translate(0 0)"/><path class="cls-27" d="M20.8,22.33,18,20.68l.06-.12,2.84,1.65-.06.12" transform="translate(0 0)"/><path class="cls-26" d="M20.86,22.21,18,20.56a.35.35,0,0,1,.07-.12l2.84,1.65-.07.12" transform="translate(0 0)"/><path class="cls-25" d="M20.93,22.09l-2.84-1.65c0-.05.05-.09.07-.13L21,22l-.07.12" transform="translate(0 0)"/><path class="cls-24" d="M21,22l-2.84-1.66a.83.83,0,0,0,.08-.12l2.85,1.65L21,22" transform="translate(0 0)"/><path class="cls-23" d="M21.09,21.84l-2.85-1.65a1.13,1.13,0,0,0,.1-.13l2.84,1.65-.09.13" transform="translate(0 0)"/><path class="cls-22" d="M21.18,21.71l-2.84-1.65.12-.14,2.84,1.65-.12.14" transform="translate(0 0)"/><path class="cls-21" d="M21.3,21.57l-2.84-1.65.15-.17,2.84,1.66-.15.16" transform="translate(0 0)"/><path class="cls-20" d="M21.45,21.41l-2.84-1.66a2.8,2.8,0,0,1,.48-.37L21.93,21a2.06,2.06,0,0,0-.48.37" transform="translate(0 0)"/></g></g></g><polygon class="cls-40" points="21.93 19.94 19.09 18.29 30.53 11.68 33.37 13.33 21.93 19.94"/><polygon class="cls-43" points="8.62 42.44 5.78 40.78 30.57 26.47 33.41 28.12 8.62 42.44"/><g class="cls-2"><g class="cls-67"><g class="cls-2"><path class="cls-45" d="M7.61,45.83,4.77,44.17a1,1,0,0,1-.42-.91,2.46,2.46,0,0,1,0-.28l2.84,1.65a2.62,2.62,0,0,0,0,.28,1,1,0,0,0,.41.92" transform="translate(0 0)"/><path class="cls-46" d="M7.21,44.63,4.37,43a1.18,1.18,0,0,1,0-.2l2.84,1.65a1.42,1.42,0,0,0,0,.2" transform="translate(0 0)"/><path class="cls-47" d="M7.25,44.43,4.41,42.78a1,1,0,0,1,0-.17l2.84,1.65a1,1,0,0,0,0,.17" transform="translate(0 0)"/><path class="cls-48" d="M7.29,44.26,4.45,42.61s0-.1,0-.14l2.84,1.65c0,.05,0,.1,0,.14" transform="translate(0 0)"/><path class="cls-49" d="M7.33,44.12,4.49,42.47l0-.14L7.38,44a.78.78,0,0,1,0,.14" transform="translate(0 0)"/><path class="cls-29" d="M7.38,44,4.54,42.33s0-.09,0-.13l2.85,1.65L7.38,44" transform="translate(0 0)"/><path class="cls-28" d="M7.44,43.85,4.59,42.2l.06-.12,2.84,1.65a.61.61,0,0,0,0,.12" transform="translate(0 0)"/><path class="cls-27" d="M7.49,43.73,4.65,42.08,4.71,42l2.84,1.66-.06.12" transform="translate(0 0)"/><path class="cls-26" d="M7.55,43.61,4.71,42l.07-.12,2.84,1.66a.75.75,0,0,1-.07.12" transform="translate(0 0)"/><path class="cls-25" d="M7.62,43.49,4.78,41.83l.07-.12L7.7,43.36l-.08.13" transform="translate(0 0)"/><path class="cls-24" d="M7.7,43.36,4.85,41.71l.09-.12,2.84,1.65-.08.12" transform="translate(0 0)"/><path class="cls-23" d="M7.78,43.24,4.94,41.59,5,41.46l2.84,1.65-.09.13" transform="translate(0 0)"/><path class="cls-22" d="M7.87,43.11,5,41.46l.12-.14L8,43l-.12.14" transform="translate(0 0)"/><path class="cls-21" d="M8,43,5.15,41.32l.15-.17L8.15,42.8,8,43" transform="translate(0 0)"/><path class="cls-20" d="M8.15,42.8,5.3,41.15a2.8,2.8,0,0,1,.48-.37l2.84,1.66a2,2,0,0,0-.47.36" transform="translate(0 0)"/></g></g></g><path class="cls-22" d="M33.41,28.12c.79-.45,1.44-.08,1.44.82a3.16,3.16,0,0,1-1.43,2.47L8.63,45.73c-.79.45-1.43.09-1.43-.82a3.11,3.11,0,0,1,1.42-2.47Z" transform="translate(0 0)"/><g class="cls-2"><g class="cls-68"><g class="cls-2"><polyline class="cls-13" points="20.91 20.04 18.07 18.39 18.08 18.39 20.92 20.04 20.91 20.04"/><path class="cls-12" d="M20.92,20l-2.84-1.65.07,0L21,20.08l-.07,0" transform="translate(0 0)"/><path class="cls-11" d="M21,20.08l-2.84-1.66.07,0,2.85,1.65-.08,0" transform="translate(0 0)"/><path class="cls-10" d="M21.07,20.1l-2.85-1.65.08,0,2.85,1.65-.08,0" transform="translate(0 0)"/><path class="cls-9" d="M21.15,20.12,18.3,18.47h.09l2.84,1.65h-.08" transform="translate(0 0)"/><path class="cls-8" d="M21.23,20.13l-2.84-1.65h.1l2.84,1.65h-.1" transform="translate(0 0)"/><path class="cls-7" d="M21.33,20.13l-2.84-1.65h.1l2.84,1.65h-.1" transform="translate(0 0)"/><path class="cls-6" d="M21.43,20.12l-2.84-1.65.13,0,2.84,1.65a.61.61,0,0,1-.13,0" transform="translate(0 0)"/><path class="cls-5" d="M21.56,20.09l-2.84-1.65.17-.06L21.73,20l-.17.05" transform="translate(0 0)"/><path class="cls-4" d="M21.73,20l-2.84-1.66.2-.1,2.84,1.66-.2.1" transform="translate(0 0)"/></g></g></g><polygon class="cls-40" points="8.62 40.79 5.77 39.14 30.57 24.83 33.41 26.48 8.62 40.79"/><polygon class="cls-43" points="21.92 16.65 19.08 15 30.52 8.39 33.36 10.04 21.92 16.65"/><g class="cls-2"><g class="cls-69"><g class="cls-2"><polyline class="cls-13" points="7.6 40.89 4.76 39.24 4.76 39.25 7.61 40.9 7.6 40.89"/><path class="cls-12" d="M7.61,40.9,4.76,39.25l.08,0,2.84,1.65-.07,0" transform="translate(0 0)"/><path class="cls-11" d="M7.68,40.93,4.84,39.28l.07,0L7.75,41l-.07,0" transform="translate(0 0)"/><path class="cls-10" d="M7.75,41,4.91,39.31l.08,0L7.83,41l-.08,0" transform="translate(0 0)"/><path class="cls-9" d="M7.83,41,5,39.33h.09L7.92,41H7.83" transform="translate(0 0)"/><path class="cls-8" d="M7.92,41,5.08,39.34h.09L8,41H7.92" transform="translate(0 0)"/><path class="cls-7" d="M8,41,5.17,39.34h.11L8.12,41H8" transform="translate(0 0)"/><path class="cls-6" d="M8.12,41,5.28,39.33l.13,0L8.25,41l-.13,0" transform="translate(0 0)"/><path class="cls-5" d="M8.25,41,5.41,39.3a.52.52,0,0,0,.16-.06l2.85,1.65L8.25,41" transform="translate(0 0)"/><path class="cls-4" d="M8.42,40.89,5.57,39.24a.75.75,0,0,0,.2-.1l2.85,1.65-.2.1" transform="translate(0 0)"/></g></g></g><g class="cls-2"><g class="cls-70"><g class="cls-2"><path class="cls-45" d="M20.91,20l-2.84-1.66a1,1,0,0,1-.42-.91,2.64,2.64,0,0,1,0-.28l2.84,1.65a2.64,2.64,0,0,0,0,.28,1,1,0,0,0,.42.92" transform="translate(0 0)"/><path class="cls-46" d="M20.51,18.84l-2.84-1.65,0-.2,2.85,1.65a1.42,1.42,0,0,0,0,.2" transform="translate(0 0)"/><path class="cls-47" d="M20.55,18.64,17.7,17s0-.11.05-.16l2.84,1.65a.94.94,0,0,0,0,.16" transform="translate(0 0)"/><path class="cls-48" d="M20.59,18.48l-2.84-1.65a.83.83,0,0,1,0-.15l2.84,1.65c0,.05,0,.1,0,.15" transform="translate(0 0)"/><path class="cls-49" d="M20.63,18.33l-2.84-1.65a.69.69,0,0,1,.05-.13l2.84,1.65s0,.09-.05.13" transform="translate(0 0)"/><path class="cls-29" d="M20.68,18.2l-2.84-1.65a.5.5,0,0,1,.05-.13l2.84,1.65s0,.08-.05.13" transform="translate(0 0)"/><path class="cls-28" d="M20.73,18.07l-2.84-1.65.06-.13,2.84,1.65-.06.13" transform="translate(0 0)"/><path class="cls-27" d="M20.79,17.94,18,16.29l.06-.12,2.84,1.65-.06.12" transform="translate(0 0)"/><path class="cls-26" d="M20.85,17.82,18,16.17a.75.75,0,0,1,.07-.12l2.84,1.65a.75.75,0,0,0-.07.12" transform="translate(0 0)"/><path class="cls-25" d="M20.92,17.7l-2.84-1.65a.75.75,0,0,1,.07-.12L21,17.58l-.07.12" transform="translate(0 0)"/><path class="cls-24" d="M21,17.58l-2.84-1.65.08-.12,2.84,1.65a.83.83,0,0,1-.08.12" transform="translate(0 0)"/><path class="cls-23" d="M21.07,17.46l-2.84-1.65a.64.64,0,0,1,.1-.13l2.84,1.65-.1.13" transform="translate(0 0)"/><path class="cls-22" d="M21.17,17.33l-2.84-1.65a.76.76,0,0,1,.11-.14l2.85,1.65-.12.14" transform="translate(0 0)"/><path class="cls-21" d="M21.29,17.19l-2.85-1.65.16-.17L21.44,17l-.15.17" transform="translate(0 0)"/><path class="cls-20" d="M21.44,17,18.6,15.37a2.37,2.37,0,0,1,.48-.37l2.84,1.65a2.8,2.8,0,0,0-.48.37" transform="translate(0 0)"/></g></g></g><path class="cls-22" d="M33.36,10.05c.79-.46,1.43-.1,1.44.81a3.16,3.16,0,0,1-1.43,2.47L21.93,19.94c-.79.45-1.43.09-1.44-.82a3.16,3.16,0,0,1,1.43-2.47Z" transform="translate(0 0)"/><g class="cls-2"><g class="cls-71"><g class="cls-2"><path class="cls-45" d="M7.6,40.89,4.76,39.24a1,1,0,0,1-.42-.91,2.46,2.46,0,0,1,0-.28L7.2,39.7a2.64,2.64,0,0,0,0,.28,1,1,0,0,0,.42.91" transform="translate(0 0)"/><path class="cls-46" d="M7.2,39.7,4.36,38.05l0-.2L7.23,39.5l0,.2" transform="translate(0 0)"/><path class="cls-47" d="M7.23,39.5,4.39,37.85c0-.06,0-.11,0-.17l2.85,1.65,0,.17" transform="translate(0 0)"/><path class="cls-48" d="M7.28,39.33,4.43,37.68s0-.1.05-.14l2.84,1.65a.74.74,0,0,0,0,.14" transform="translate(0 0)"/><path class="cls-49" d="M7.32,39.19,4.48,37.54a.58.58,0,0,1,0-.14l2.84,1.65,0,.14" transform="translate(0 0)"/><path class="cls-29" d="M7.37,39.05,4.53,37.4a.69.69,0,0,1,0-.13l2.84,1.65s0,.09,0,.13" transform="translate(0 0)"/><path class="cls-28" d="M7.42,38.92,4.58,37.27l.06-.12L7.48,38.8l-.06.12" transform="translate(0 0)"/><path class="cls-27" d="M7.48,38.8,4.64,37.15,4.7,37l2.84,1.66-.06.12" transform="translate(0 0)"/><path class="cls-26" d="M7.54,38.68,4.7,37a.75.75,0,0,1,.07-.12l2.84,1.65a.54.54,0,0,0-.07.13" transform="translate(0 0)"/><path class="cls-25" d="M7.61,38.55,4.77,36.9a.75.75,0,0,1,.07-.12l2.84,1.65-.07.12" transform="translate(0 0)"/><path class="cls-24" d="M7.68,38.43,4.84,36.78l.08-.12,2.84,1.65-.08.12" transform="translate(0 0)"/><path class="cls-23" d="M7.76,38.31,4.92,36.66a.64.64,0,0,1,.1-.13l2.84,1.65a1.13,1.13,0,0,1-.1.13" transform="translate(0 0)"/><path class="cls-22" d="M7.86,38.18,5,36.53a1.71,1.71,0,0,1,.11-.14L8,38l-.12.14" transform="translate(0 0)"/><path class="cls-21" d="M8,38,5.13,36.39l.16-.17,2.84,1.65L8,38" transform="translate(0 0)"/><path class="cls-20" d="M8.13,37.87,5.29,36.22a3.18,3.18,0,0,1,.47-.37l2.85,1.66a2.32,2.32,0,0,0-.48.36" transform="translate(0 0)"/></g></g></g><path class="cls-22" d="M33.4,23.19c.79-.46,1.43-.08,1.43.82a3.12,3.12,0,0,1-1.42,2.47L8.62,40.79c-.79.46-1.44.09-1.44-.81a3.14,3.14,0,0,1,1.43-2.47Z" transform="translate(0 0)"/><polygon class="cls-72" points="18.14 30.36 15.29 28.71 15.26 17.2 18.1 18.86 18.14 30.36"/><polygon class="cls-40" points="7.17 36.69 4.33 35.04 15.29 28.71 18.14 30.36 7.17 36.69"/><polygon class="cls-43" points="7.14 25.18 4.3 23.53 15.26 17.2 18.1 18.86 7.14 25.18"/><polygon class="cls-73" points="7.17 36.69 4.33 35.04 4.3 23.53 7.14 25.18 7.17 36.69"/><path class="cls-74" d="M34.59,2.2c2.21-1.27,4-.25,4,2.28l.12,44a8.75,8.75,0,0,1-4,6.89L7,71.38c-2.21,1.27-4,.25-4-2.29l-.13-44a8.76,8.76,0,0,1,4-6.9Zm-27.45,23,0,11.5,11-6.33,0-11.5-11,6.33m26.27,1.29A3.12,3.12,0,0,0,34.83,24c0-.9-.64-1.28-1.43-.82L8.61,37.51A3.14,3.14,0,0,0,7.18,40c0,.9.65,1.27,1.44.81L33.41,26.48m0,4.93a3.16,3.16,0,0,0,1.43-2.47c0-.9-.65-1.27-1.44-.82L8.62,42.44A3.11,3.11,0,0,0,7.2,44.91c0,.91.64,1.27,1.43.82L33.42,31.41m.06,19.72a3.1,3.1,0,0,0,1.42-2.46c0-.91-.64-1.28-1.43-.83L8.68,62.16a3.16,3.16,0,0,0-1.43,2.47c0,.91.65,1.27,1.44.82L33.48,51.13m0-14.79a3.13,3.13,0,0,0,1.42-2.47c0-.9-.64-1.27-1.43-.82L8.63,47.37a3.16,3.16,0,0,0-1.42,2.47c0,.91.64,1.27,1.43.82l24.8-14.32m0,4.93a3.14,3.14,0,0,0,1.43-2.46c0-.91-.65-1.28-1.44-.83L8.65,52.3a3.14,3.14,0,0,0-1.43,2.47c0,.91.65,1.27,1.44.82L33.45,41.27m0,4.93a3.13,3.13,0,0,0,1.42-2.46c0-.91-.64-1.28-1.43-.83L8.66,57.23A3.13,3.13,0,0,0,7.24,59.7c0,.91.64,1.27,1.43.82L33.47,46.2M33.4,21.55a3.15,3.15,0,0,0,1.42-2.47c0-.91-.64-1.28-1.43-.82L21.94,24.87a3.13,3.13,0,0,0-1.42,2.47c0,.91.64,1.27,1.43.82L33.4,21.55m0-8.22a3.16,3.16,0,0,0,1.43-2.47c0-.91-.65-1.27-1.44-.81l-11.44,6.6a3.16,3.16,0,0,0-1.43,2.47c0,.91.65,1.27,1.44.82l11.44-6.61m0,4.38a3.16,3.16,0,0,0,1.42-2.46c0-.91-.64-1.28-1.43-.82L21.93,21a3.1,3.1,0,0,0-1.42,2.46c0,.91.64,1.28,1.43.82l11.45-6.61" transform="translate(0 0)"/><path class="cls-22" d="M33.44,38,8.65,52.3a3.14,3.14,0,0,0-1.43,2.47c0,.91.65,1.27,1.44.82L33.45,41.27a3.14,3.14,0,0,0,1.43-2.46C34.87,37.9,34.23,37.53,33.44,38Z" transform="translate(0 0)"/><g class="cls-2"><g class="cls-75"><g class="cls-2"><path class="cls-4" d="M34.59,2.2,31.75.55a5.84,5.84,0,0,1,.56-.28l2.84,1.65a5.84,5.84,0,0,0-.56.28" transform="translate(0 0)"/><path class="cls-5" d="M35.15,1.92,32.31.27a3.27,3.27,0,0,1,.47-.16l2.84,1.65a3.27,3.27,0,0,0-.47.16" transform="translate(0 0)"/><path class="cls-6" d="M35.62,1.76,32.78.11,33.13,0,36,1.68l-.35.08" transform="translate(0 0)"/><path class="cls-7" d="M36,1.68,33.13,0l.3,0,2.84,1.65-.3,0" transform="translate(0 0)"/><path class="cls-8" d="M36.27,1.65,33.43,0h.26l2.84,1.66h-.26" transform="translate(0 0)"/><path class="cls-9" d="M36.53,1.66,33.69,0l.24,0,2.85,1.65-.25,0" transform="translate(0 0)"/><path class="cls-10" d="M36.78,1.68,33.93,0l.23.05L37,1.74l-.22-.06" transform="translate(0 0)"/><path class="cls-11" d="M37,1.74,34.16.08l.21.08,2.84,1.65L37,1.74" transform="translate(0 0)"/><path class="cls-12" d="M37.21,1.81,34.37.16l.2.1,2.84,1.65a1.24,1.24,0,0,0-.2-.1" transform="translate(0 0)"/><path class="cls-13" d="M37.41,1.91,34.57.26h0l2.84,1.65h0" transform="translate(0 0)"/></g></g></g><path class="cls-22" d="M33.38,14.43c.79-.46,1.43-.09,1.43.82a3.16,3.16,0,0,1-1.42,2.46L21.94,24.32c-.79.46-1.43.09-1.43-.82A3.1,3.1,0,0,1,21.93,21Z" transform="translate(0 0)"/><polygon class="cls-22" points="18.1 18.86 18.14 30.36 7.17 36.69 7.14 25.18 18.1 18.86"/><polygon class="cls-72" points="2.97 69.09 0.13 67.44 0 23.48 2.84 25.13 2.97 69.09"/><polygon class="cls-40" points="6.82 18.23 3.98 16.58 31.75 0.55 34.59 2.2 6.82 18.23"/><g class="cls-2"><g class="cls-76"><g class="cls-2"><path class="cls-18" d="M2.84,25.13,0,23.48a7.13,7.13,0,0,1,.05-.79l2.84,1.66a6.81,6.81,0,0,0-.05.78" transform="translate(0 0)"/><path class="cls-17" d="M2.89,24.35.05,22.69a5.3,5.3,0,0,1,.1-.55L3,23.79c0,.19-.07.37-.1.56" transform="translate(0 0)"/><path class="cls-16" d="M3,23.79.15,22.14c0-.15.07-.31.11-.46L3.1,23.33c0,.15-.08.31-.11.46" transform="translate(0 0)"/><path class="cls-15" d="M3.1,23.33.26,21.68l.12-.41,2.85,1.65c0,.14-.09.28-.13.41" transform="translate(0 0)"/><path class="cls-14" d="M3.23,22.92.38,21.27c0-.12.09-.25.14-.37l2.84,1.65c0,.12-.09.25-.13.37" transform="translate(0 0)"/><path class="cls-13" d="M3.36,22.55.52,20.9a2.75,2.75,0,0,1,.15-.36l2.84,1.65-.15.36" transform="translate(0 0)"/><path class="cls-12" d="M3.51,22.19.67,20.54l.15-.35,2.85,1.65c-.06.12-.11.23-.16.35" transform="translate(0 0)"/><path class="cls-11" d="M3.67,21.84.82,20.19,1,19.85,3.84,21.5c-.06.11-.12.23-.17.34" transform="translate(0 0)"/><path class="cls-10" d="M3.84,21.5,1,19.85l.18-.34L4,21.17c-.07.11-.13.22-.19.33" transform="translate(0 0)"/><path class="cls-9" d="M4,21.17,1.18,19.51l.21-.33,2.84,1.65a3.79,3.79,0,0,0-.2.34" transform="translate(0 0)"/><path class="cls-8" d="M4.23,20.83,1.39,19.18c.07-.12.15-.23.23-.35l2.84,1.65-.23.35" transform="translate(0 0)"/><path class="cls-7" d="M4.46,20.48,1.62,18.83c.09-.12.17-.24.27-.36l2.84,1.65-.27.36" transform="translate(0 0)"/><path class="cls-6" d="M4.73,20.12,1.89,18.47l.32-.39,2.84,1.65-.32.39" transform="translate(0 0)"/><path class="cls-5" d="M5.05,19.73,2.21,18.08c.14-.16.29-.32.44-.47l2.84,1.66c-.15.14-.3.3-.44.46" transform="translate(0 0)"/><path class="cls-4" d="M5.49,19.27,2.65,17.61a6.42,6.42,0,0,1,1.33-1l2.84,1.65a6.48,6.48,0,0,0-1.33,1" transform="translate(0 0)"/></g></g></g></g></g></g></g></svg>