<svg xmlns="http://www.w3.org/2000/svg" xmlns:xlink="http://www.w3.org/1999/xlink" viewBox="0 0 60.31 36.44"><defs><style>.cls-1{fill:none;}.cls-2{isolation:isolate;}.cls-3{clip-path:url(#clip-path);}.cls-4{fill:#3d7f6b;}.cls-5{fill:#3f846f;}.cls-6{fill:#428973;}.cls-7{fill:#448e77;}.cls-8{fill:#46937c;}.cls-9{fill:#499880;}.cls-10{fill:#4b9d84;}.cls-11{fill:#4da288;}.cls-12{fill:#50a78c;}.cls-13{fill:#52ab90;}.cls-14{clip-path:url(#clip-path-2);}.cls-15{fill:#001025;}.cls-16{fill:#001026;}.cls-17{fill:#001128;}.cls-18{fill:#001129;}.cls-19{fill:#00122a;}.cls-20{fill:#00122c;}.cls-21{fill:#00132d;}.cls-22{clip-path:url(#clip-path-3);}.cls-23{clip-path:url(#clip-path-4);}.cls-24{clip-path:url(#clip-path-5);}.cls-25{clip-path:url(#clip-path-6);}.cls-26{clip-path:url(#clip-path-7);}.cls-27{fill:#59bb9d;}.cls-28{clip-path:url(#clip-path-8);}.cls-29{clip-path:url(#clip-path-9);}.cls-30{fill:#001531;}.cls-31{clip-path:url(#clip-path-10);}.cls-32{fill:#000f24;}.cls-33{fill:#000f23;}.cls-34{fill:#000e21;}.cls-35{fill:#001738;}.cls-36{clip-path:url(#clip-path-11);}.cls-37{clip-path:url(#clip-path-12);}.cls-38{clip-path:url(#clip-path-13);}.cls-39{clip-path:url(#clip-path-14);}.cls-40{clip-path:url(#clip-path-15);}.cls-41{clip-path:url(#clip-path-16);}.cls-42{clip-path:url(#clip-path-17);}.cls-43{clip-path:url(#clip-path-18);}.cls-44{clip-path:url(#clip-path-19);}.cls-45{clip-path:url(#clip-path-20);}.cls-46{clip-path:url(#clip-path-21);}.cls-47{clip-path:url(#clip-path-22);}.cls-48{clip-path:url(#clip-path-23);}.cls-49{clip-path:url(#clip-path-24);}.cls-50{fill:#fff;}.cls-51{fill:url(#linear-gradient);}</style><clipPath id="clip-path"><path class="cls-1" d="M27.66,4.57a2.47,2.47,0,0,0-2.26,0l0-1.15V3.25a2.47,2.47,0,0,1,2.26,0,.85.85,0,0,1,.48.69l0,1.3A.87.87,0,0,0,27.66,4.57Z"/></clipPath><clipPath id="clip-path-2"><path class="cls-1" d="M28.17,4l0,1.3a.79.79,0,0,1-.46.63l0-1.3A.79.79,0,0,0,28.17,4Z"/></clipPath><clipPath id="clip-path-3"><path class="cls-1" d="M31.59,6l0,1.3a.8.8,0,0,0-.48-.68,2.5,2.5,0,0,0-2.26,0l0-1.3a2.45,2.45,0,0,1,2.25,0A.82.82,0,0,1,31.59,6Z"/></clipPath><clipPath id="clip-path-4"><path class="cls-1" d="M31.59,6l0,1.3a.76.76,0,0,1-.45.63l0-1.3A.76.76,0,0,0,31.59,6Z"/></clipPath><clipPath id="clip-path-5"><path class="cls-1" d="M44.15,13.35l0,1.3a.8.8,0,0,0-.48-.69,2.5,2.5,0,0,0-2.26,0l0-1.3a2.5,2.5,0,0,1,2.26,0A.8.8,0,0,1,44.15,13.35Z"/></clipPath><clipPath id="clip-path-6"><path class="cls-1" d="M44.15,13.35l0,1.3a.77.77,0,0,1-.45.63l0-1.3A.77.77,0,0,0,44.15,13.35Z"/></clipPath><clipPath id="clip-path-7"><path class="cls-1" d="M47.58,15.35l0,1.3a.84.84,0,0,0-.48-.68,2.47,2.47,0,0,0-2.26,0l0-1.3a2.47,2.47,0,0,1,2.26,0A.84.84,0,0,1,47.58,15.35Z"/></clipPath><clipPath id="clip-path-8"><path class="cls-1" d="M47.58,15.35l0,1.3a.81.81,0,0,1-.46.64l0-1.3A.82.82,0,0,0,47.58,15.35Z"/></clipPath><clipPath id="clip-path-9"><path class="cls-1" d="M6,15.78a.79.79,0,0,0-.46.63l0-1.3A.81.81,0,0,1,6,14.47Z"/></clipPath><clipPath id="clip-path-10"><path class="cls-1" d="M5.5,16.41l0-1.3a.84.84,0,0,0,.48.68,2.47,2.47,0,0,0,2.26,0l0,1.31a2.5,2.5,0,0,1-2.26,0A.84.84,0,0,1,5.5,16.41Z"/></clipPath><clipPath id="clip-path-11"><path class="cls-1" d="M9.39,17.79a.75.75,0,0,0-.46.63l0-1.3a.75.75,0,0,1,.46-.63Z"/></clipPath><clipPath id="clip-path-12"><path class="cls-1" d="M8.93,18.42l0-1.3a.8.8,0,0,0,.48.68,2.5,2.5,0,0,0,2.26,0l0,1.3a2.5,2.5,0,0,1-2.26,0A.8.8,0,0,1,8.93,18.42Z"/></clipPath><clipPath id="clip-path-13"><path class="cls-1" d="M43.77,22.31a2.47,2.47,0,0,0-2.26,0l0-1.3a2.47,2.47,0,0,1,2.26,0l0,1.3,0-1.3a.83.83,0,0,1,.48.68l0,1.3A.84.84,0,0,0,43.77,22.31Z"/></clipPath><clipPath id="clip-path-14"><path class="cls-1" d="M44.28,21.69l0,1.3a.79.79,0,0,1-.46.63l0-1.3A.79.79,0,0,0,44.28,21.69Z"/></clipPath><clipPath id="clip-path-15"><path class="cls-1" d="M47.58,24.54a2.49,2.49,0,0,0-2.27,0l0-1.31a2.52,2.52,0,0,1,2.27,0l0,1.3,0-1.3a.8.8,0,0,1,.47.68l0,1.3A.8.8,0,0,0,47.58,24.54Z"/></clipPath><clipPath id="clip-path-16"><path class="cls-1" d="M48.08,23.92l0,1.3a.77.77,0,0,1-.45.64l0-1.31A.76.76,0,0,0,48.08,23.92Z"/></clipPath><clipPath id="clip-path-17"><path class="cls-1" d="M21.94,25.16a.79.79,0,0,0-.46.63l0-1.3a.79.79,0,0,1,.46-.63Z"/></clipPath><clipPath id="clip-path-18"><path class="cls-1" d="M21.48,25.79l0-1.3a.84.84,0,0,0,.48.68,2.49,2.49,0,0,0,2.27,0l0,1.3a2.49,2.49,0,0,1-2.27,0A.85.85,0,0,1,21.48,25.79Z"/></clipPath><clipPath id="clip-path-19"><path class="cls-1" d="M25.37,27.17a.79.79,0,0,0-.46.63l0-1.3a.79.79,0,0,1,.46-.63Z"/></clipPath><clipPath id="clip-path-20"><path class="cls-1" d="M24.91,27.8l0-1.3a.83.83,0,0,0,.48.69,2.47,2.47,0,0,0,2.26,0l0,1.3a2.47,2.47,0,0,1-2.26,0A.82.82,0,0,1,24.91,27.8Z"/></clipPath><clipPath id="clip-path-21"><path class="cls-1" d="M29.17,29.4a.77.77,0,0,0-.45.63l0-1.3a.77.77,0,0,1,.45-.63Z"/></clipPath><clipPath id="clip-path-22"><path class="cls-1" d="M28.72,30l0-1.3a.8.8,0,0,0,.48.69,2.45,2.45,0,0,0,2.25,0l0,1.3a2.45,2.45,0,0,1-2.25,0A.8.8,0,0,1,28.72,30Z"/></clipPath><clipPath id="clip-path-23"><path class="cls-1" d="M33,31.64a.79.79,0,0,0-.46.63l0-1.3a.79.79,0,0,1,.46-.63Z"/></clipPath><clipPath id="clip-path-24"><path class="cls-1" d="M32.52,32.27l0-1.3a.84.84,0,0,0,.48.68,2.5,2.5,0,0,0,2.26,0l0,1.3A2.47,2.47,0,0,1,33,33,.84.84,0,0,1,32.52,32.27Z"/></clipPath><linearGradient id="linear-gradient" y1="25.61" x2="60.31" y2="25.61" gradientUnits="userSpaceOnUse"><stop offset="0" stop-color="#75f5ce"/><stop offset="1" stop-color="aqua"/></linearGradient></defs><title>document_stack_2_4</title><g id="Layer_2" data-name="Layer 2"><g id="document_stack_2_4"><g id="document_stack_2_4-2" data-name="document_stack_2_4"><g class="cls-2"><g class="cls-2"><g class="cls-3"><g class="cls-2"><path class="cls-4" d="M28.17,4l0,1.3a.87.87,0,0,0-.48-.69l-.22-.1,0-1.3.22.1a.85.85,0,0,1,.48.69"/><path class="cls-5" d="M27.47,3.17l0,1.3-.19-.07,0-1.3.19.07"/><path class="cls-6" d="M27.28,3.1l0,1.3-.17-.05,0-1.3.17.05"/><path class="cls-7" d="M27.11,3.05l0,1.3-.17,0L27,3l.16,0"/><path class="cls-8" d="M27,3l0,1.3-.15,0,0-1.3L27,3"/><path class="cls-9" d="M26.79,3l0,1.3h-.17l0-1.3h.17"/><path class="cls-10" d="M26.62,3l0,1.3h-.17l0-1.3h.17"/><path class="cls-11" d="M26.45,3l0,1.3h-.19l0-1.3h.19"/><path class="cls-12" d="M26.26,3l0,1.3-.22,0L26,3l.22,0"/><path class="cls-13" d="M26,3l0,1.3a2.32,2.32,0,0,0-.61.22l0-1.3A2.32,2.32,0,0,1,26,3"/></g></g></g><g class="cls-2"><g class="cls-14"><g class="cls-2"><path class="cls-15" d="M28.17,4l0,1.3v0l0-1.3V4"/><path class="cls-16" d="M28.17,4l0,1.3a.29.29,0,0,1,0,.09l0-1.3a.29.29,0,0,0,0-.09"/><path class="cls-17" d="M28.15,4.08l0,1.3,0,.09,0-1.3,0-.09"/><path class="cls-18" d="M28.12,4.17l0,1.3a.31.31,0,0,1-.05.1l0-1.3.05-.1"/><path class="cls-19" d="M28.07,4.27l0,1.3a.86.86,0,0,0-.07.1l0-1.31.07-.09"/><path class="cls-20" d="M28,4.36l0,1.31-.12.11,0-1.3L28,4.36"/><path class="cls-21" d="M27.88,4.48l0,1.3-.17.11,0-1.3.17-.11"/></g></g></g><g class="cls-2"><g class="cls-22"><g class="cls-2"><path class="cls-4" d="M31.59,6l0,1.3a.8.8,0,0,0-.48-.68l-.21-.11,0-1.3a1.36,1.36,0,0,1,.21.1.82.82,0,0,1,.48.69"/><path class="cls-5" d="M30.9,5.18l0,1.3-.2-.07,0-1.3.2.07"/><path class="cls-6" d="M30.7,5.11l0,1.3-.17,0,0-1.3.17.05"/><path class="cls-7" d="M30.53,5.06l0,1.3-.16,0,0-1.3.16,0"/><path class="cls-8" d="M30.37,5l0,1.3-.16,0,0-1.3.16,0"/><path class="cls-9" d="M30.21,5l0,1.3H30l0-1.3h.16"/><path class="cls-10" d="M30.05,5l0,1.3h-.17l0-1.3h.17"/><path class="cls-11" d="M29.88,5l0,1.3h-.19l0-1.3h.19"/><path class="cls-12" d="M29.69,5l0,1.3-.23,0,0-1.3.23,0"/><path class="cls-13" d="M29.46,5.05l0,1.3a2,2,0,0,0-.61.21l0-1.3a1.85,1.85,0,0,1,.6-.21"/></g></g></g><g class="cls-2"><g class="cls-23"><g class="cls-2"><path class="cls-15" d="M31.59,6l0,1.3v0l0-1.3V6"/><path class="cls-16" d="M31.59,6l0,1.3s0,.06,0,.09l0-1.3s0-.06,0-.09"/><path class="cls-17" d="M31.58,6.09l0,1.3a.3.3,0,0,1,0,.1l0-1.3,0-.1"/><path class="cls-18" d="M31.55,6.19l0,1.3,0,.09,0-1.3a.41.41,0,0,1,.05-.09"/><path class="cls-19" d="M31.5,6.28l0,1.3-.08.1,0-1.3.08-.1"/><path class="cls-20" d="M31.42,6.38l0,1.3a.43.43,0,0,1-.12.11l0-1.3a.65.65,0,0,0,.12-.11"/><path class="cls-21" d="M31.3,6.49l0,1.3a.91.91,0,0,1-.16.11l0-1.3a.91.91,0,0,0,.16-.11"/></g></g></g><polygon class="cls-5" points="41.39 11.32 41.36 12.62 33.37 7.93 33.4 6.63 41.39 11.32"/><g class="cls-2"><g class="cls-24"><g class="cls-2"><path class="cls-4" d="M44.15,13.35l0,1.3a.8.8,0,0,0-.48-.69l-.21-.11,0-1.3.21.11a.8.8,0,0,1,.48.69"/><path class="cls-5" d="M43.46,12.55l0,1.3-.2-.07,0-1.3.2.07"/><path class="cls-6" d="M43.26,12.48l0,1.3-.17,0,0-1.3.17,0"/><path class="cls-7" d="M43.09,12.44l0,1.3-.16,0,0-1.3a.45.45,0,0,1,.16,0"/><path class="cls-8" d="M42.93,12.41l0,1.3-.16,0,0-1.3.16,0"/><path class="cls-9" d="M42.77,12.39l0,1.3h-.17l0-1.3h.17"/><path class="cls-10" d="M42.6,12.38l0,1.3H42.4l0-1.31h.17"/><path class="cls-11" d="M42.43,12.37l0,1.31h-.19l0-1.3.19,0"/><path class="cls-12" d="M42.24,12.39l0,1.3-.22,0,0-1.3a.83.83,0,0,1,.22,0"/><path class="cls-13" d="M42,12.42l0,1.3a1.91,1.91,0,0,0-.61.21l0-1.3a1.91,1.91,0,0,1,.61-.21"/></g></g></g><g class="cls-2"><g class="cls-25"><g class="cls-2"><path class="cls-15" d="M44.15,13.35l0,1.3v0l0-1.3v0"/><path class="cls-16" d="M44.15,13.37l0,1.3s0,.07,0,.1l0-1.3s0-.07,0-.1"/><path class="cls-17" d="M44.14,13.47l0,1.3a.36.36,0,0,1,0,.09l0-1.3a.36.36,0,0,0,0-.09"/><path class="cls-18" d="M44.1,13.56l0,1.3A.41.41,0,0,1,44,15l0-1.3a.41.41,0,0,0,.05-.09"/><path class="cls-19" d="M44.05,13.65,44,15a.36.36,0,0,1-.07.1l0-1.3a.36.36,0,0,0,.07-.1"/><path class="cls-20" d="M44,13.75l0,1.3a.68.68,0,0,1-.12.12l0-1.3a.68.68,0,0,0,.12-.12"/><path class="cls-21" d="M43.86,13.87l0,1.3-.16.11,0-1.3.16-.11"/></g></g></g><g class="cls-2"><g class="cls-26"><g class="cls-2"><path class="cls-4" d="M47.58,15.35l0,1.3a.84.84,0,0,0-.48-.68l-.22-.1,0-1.31.22.11a.84.84,0,0,1,.48.68"/><path class="cls-5" d="M46.88,14.56l0,1.31-.19-.08,0-1.3.19.07"/><path class="cls-6" d="M46.69,14.49l0,1.3-.18,0,0-1.3.17,0"/><path class="cls-7" d="M46.52,14.45l0,1.3-.16,0,0-1.3.17,0"/><path class="cls-8" d="M46.35,14.42l0,1.3-.16,0,0-1.3.16,0"/><path class="cls-9" d="M46.19,14.4l0,1.3H46l0-1.3h.16"/><path class="cls-10" d="M46,14.39l0,1.3h-.17l0-1.3H46"/><path class="cls-11" d="M45.86,14.39l0,1.3h-.19l0-1.3h.19"/><path class="cls-12" d="M45.67,14.4l0,1.3-.23,0,0-1.3.23,0"/><path class="cls-13" d="M45.44,14.43l0,1.3a1.66,1.66,0,0,0-.6.22l0-1.3a1.66,1.66,0,0,1,.6-.22"/></g></g></g><polygon class="cls-27" points="25.43 3.25 25.4 4.55 5.96 15.78 5.99 14.47 25.43 3.25"/><g class="cls-2"><g class="cls-28"><g class="cls-2"><path class="cls-15" d="M47.58,15.35l0,1.3v0l0-1.3v0"/><path class="cls-16" d="M47.58,15.38l0,1.3a.34.34,0,0,1,0,.1l0-1.3s0-.07,0-.1"/><path class="cls-17" d="M47.56,15.48l0,1.3,0,.09,0-1.3,0-.09"/><path class="cls-18" d="M47.53,15.57l0,1.3,0,.09,0-1.3.05-.09"/><path class="cls-19" d="M47.48,15.66l0,1.3a.39.39,0,0,1-.08.1l0-1.3.08-.1"/><path class="cls-20" d="M47.4,15.76l0,1.3a.43.43,0,0,1-.12.11l0-1.3a.43.43,0,0,0,.12-.11"/><path class="cls-21" d="M47.28,15.87l0,1.3-.16.12,0-1.3.16-.12"/></g></g></g><g class="cls-2"><g class="cls-29"><g class="cls-2"><path class="cls-13" d="M6,14.47l0,1.31-.17.11,0-1.3L6,14.47"/><path class="cls-12" d="M5.82,14.59l0,1.3L5.67,16l0-1.3.12-.11"/><path class="cls-11" d="M5.7,14.7l0,1.3-.07.1,0-1.3a.86.86,0,0,1,.07-.1"/><path class="cls-10" d="M5.63,14.8l0,1.3a.41.41,0,0,0,0,.09l0-1.3a.41.41,0,0,1,0-.09"/><path class="cls-9" d="M5.58,14.89l0,1.3,0,.1,0-1.31,0-.09"/><path class="cls-8" d="M5.55,15l0,1.31a.29.29,0,0,0,0,.09l0-1.3s0-.06,0-.1"/><path class="cls-7" d="M5.53,15.08l0,1.3v0l0-1.3v0"/></g></g></g><polygon class="cls-30" points="27.71 4.59 27.68 5.89 8.24 17.11 8.27 15.81 27.71 4.59"/><g class="cls-2"><g class="cls-31"><g class="cls-2"><path class="cls-21" d="M8.27,15.81l0,1.31a1.91,1.91,0,0,1-.61.21l0-1.3a1.71,1.71,0,0,0,.61-.22"/><path class="cls-20" d="M7.66,16l0,1.3a.83.83,0,0,1-.22,0l0-1.3.22,0"/><path class="cls-19" d="M7.44,16.06l0,1.3-.19,0,0-1.31h.19"/><path class="cls-18" d="M7.25,16.07l0,1.31H7.05l0-1.3h.17"/><path class="cls-17" d="M7.08,16.07l0,1.3H6.89l0-1.3h.16"/><path class="cls-16" d="M6.92,16.06l0,1.3-.16,0,0-1.3.16,0"/><path class="cls-15" d="M6.76,16l0,1.3a.41.41,0,0,1-.16,0l0-1.3.16,0"/><path class="cls-32" d="M6.6,16l0,1.3-.18,0,0-1.3.18,0"/><path class="cls-33" d="M6.42,16l0,1.3L6.2,17.2l0-1.3.19.07"/><path class="cls-34" d="M6.23,15.9l0,1.3A1.51,1.51,0,0,1,6,17.09a.84.84,0,0,1-.48-.68l0-1.3a.84.84,0,0,0,.48.68l.22.11"/></g></g></g><path class="cls-35" d="M25.43,3.25a2.47,2.47,0,0,1,2.26,0c.63.38.64,1,0,1.32L8.27,15.81a2.47,2.47,0,0,1-2.26,0c-.63-.37-.64-1,0-1.32Z"/><polygon class="cls-27" points="28.86 5.26 28.82 6.56 9.38 17.79 9.41 16.48 28.86 5.26"/><g class="cls-2"><g class="cls-36"><g class="cls-2"><path class="cls-13" d="M9.42,16.49l0,1.3a.71.71,0,0,0-.17.11l0-1.3a.71.71,0,0,1,.17-.11"/><path class="cls-12" d="M9.25,16.6l0,1.3A.65.65,0,0,0,9.1,18l0-1.3a.63.63,0,0,1,.12-.11"/><path class="cls-11" d="M9.13,16.71l0,1.3a.61.61,0,0,0-.07.1l0-1.3a.61.61,0,0,1,.07-.1"/><path class="cls-10" d="M9.06,16.81l0,1.3a.41.41,0,0,0,0,.09l0-1.3a.41.41,0,0,1,.05-.09"/><path class="cls-9" d="M9,16.9l0,1.3a.42.42,0,0,0,0,.1L9,17a.3.3,0,0,1,0-.1"/><path class="cls-8" d="M9,17l0,1.3s0,.06,0,.09l0-1.3S9,17,9,17"/><path class="cls-7" d="M9,17.09l0,1.3v0l0-1.3v0"/></g></g></g><path class="cls-1" d="M0,16.08l0-1.3a2.86,2.86,0,0,0,1.68,2.4l0,1.31A2.87,2.87,0,0,1,0,16.08Z"/><polygon class="cls-30" points="31.14 6.6 31.11 7.9 11.67 19.13 11.7 17.82 31.14 6.6"/><g class="cls-2"><g class="cls-37"><g class="cls-2"><path class="cls-21" d="M11.7,17.83l0,1.3a2,2,0,0,1-.61.21l0-1.3a2,2,0,0,0,.61-.21"/><path class="cls-20" d="M11.09,18l0,1.3a.83.83,0,0,1-.22,0l0-1.3.22,0"/><path class="cls-19" d="M10.87,18.07l0,1.3-.19,0,0-1.31h.19"/><path class="cls-18" d="M10.68,18.08l0,1.31h-.17l0-1.31a.48.48,0,0,0,.17,0"/><path class="cls-17" d="M10.51,18.08l0,1.31-.17,0,0-1.3h.17"/><path class="cls-16" d="M10.34,18.07l0,1.3-.16,0,0-1.3.16,0"/><path class="cls-15" d="M10.18,18.05l0,1.3a.45.45,0,0,1-.16,0L10,18l.16,0"/><path class="cls-32" d="M10,18l0,1.3-.17,0,0-1.3L10,18"/><path class="cls-33" d="M9.85,18l0,1.3-.2-.07,0-1.3.2.07"/><path class="cls-34" d="M9.65,17.91l0,1.3a1,1,0,0,1-.21-.11.8.8,0,0,1-.48-.68l0-1.3a.8.8,0,0,0,.48.68l.21.11"/></g></g></g><path class="cls-35" d="M28.86,5.26a2.45,2.45,0,0,1,2.25,0c.63.37.65,1,0,1.32L11.7,17.83a2.5,2.5,0,0,1-2.26,0c-.63-.37-.64-1,0-1.31Z"/><polygon class="cls-27" points="33.4 6.63 33.37 7.93 11.69 20.44 11.72 19.14 33.4 6.63"/><g class="cls-2"><g class="cls-38"><g class="cls-2"><path class="cls-4" d="M44.28,21.69l0,1.3a.84.84,0,0,0-.48-.68l-.21-.11,0-1.3.21.11a.83.83,0,0,1,.48.68"/><path class="cls-5" d="M43.59,20.9l0,1.3-.2-.07,0-1.3.2.07"/><path class="cls-6" d="M43.39,20.83l0,1.3-.17-.05,0-1.3.17,0"/><path class="cls-7" d="M43.22,20.78l0,1.3-.17,0,0-1.3.17,0"/><path class="cls-8" d="M43.05,20.75l0,1.3-.16,0,0-1.3.16,0"/><path class="cls-9" d="M42.89,20.73l0,1.3H42.7l0-1.3h.16"/><path class="cls-10" d="M42.73,20.72l0,1.3h-.17l0-1.3h.17"/><path class="cls-11" d="M42.56,20.72l0,1.3h-.19l0-1.3h.19"/><path class="cls-12" d="M42.37,20.73l0,1.3-.23,0,0-1.3.23,0"/><path class="cls-13" d="M42.14,20.77l0,1.3a1.85,1.85,0,0,0-.6.21l0-1.3a1.85,1.85,0,0,1,.6-.21"/></g></g></g><g class="cls-2"><g class="cls-39"><g class="cls-2"><path class="cls-15" d="M44.28,21.69l0,1.3v0l0-1.3v0"/><path class="cls-16" d="M44.28,21.72l0,1.3a.29.29,0,0,1,0,.09l0-1.3a.29.29,0,0,0,0-.09"/><path class="cls-17" d="M44.26,21.81l0,1.3,0,.09,0-1.3,0-.09"/><path class="cls-18" d="M44.23,21.9l0,1.3a.31.31,0,0,1-.05.1l0-1.3a.47.47,0,0,0,0-.1"/><path class="cls-19" d="M44.18,22l0,1.3a.86.86,0,0,0-.07.1l0-1.31.07-.09"/><path class="cls-20" d="M44.11,22.09l0,1.31-.12.11,0-1.3.12-.12"/><path class="cls-21" d="M44,22.21l0,1.3-.17.11,0-1.3.17-.11"/></g></g></g><g class="cls-2"><g class="cls-40"><g class="cls-2"><path class="cls-4" d="M48.08,23.92l0,1.3a.8.8,0,0,0-.47-.68l-.22-.11,0-1.3.22.11a.8.8,0,0,1,.47.68"/><path class="cls-5" d="M47.39,23.13l0,1.3-.2-.07,0-1.3.2.07"/><path class="cls-6" d="M47.19,23.06l0,1.3-.17,0L47,23l.17,0"/><path class="cls-7" d="M47,23l0,1.3-.16,0,0-1.3L47,23"/><path class="cls-8" d="M46.86,23l0,1.3-.16,0,0-1.3.16,0"/><path class="cls-9" d="M46.7,23l0,1.3h-.16l0-1.3h.16"/><path class="cls-10" d="M46.54,23l0,1.3h-.18l0-1.3a.54.54,0,0,1,.18,0"/><path class="cls-11" d="M46.36,23l0,1.3h-.18l0-1.3h.18"/><path class="cls-12" d="M46.18,23l0,1.3-.23,0L46,23a1.6,1.6,0,0,1,.23,0"/><path class="cls-13" d="M46,23l0,1.3a1.78,1.78,0,0,0-.61.22l0-1.31A2,2,0,0,1,46,23"/></g></g></g><polygon class="cls-27" points="41.41 12.63 41.38 13.94 21.94 25.16 21.97 23.86 41.41 12.63"/><polygon class="cls-33" points="19.71 23.83 19.68 25.14 11.69 20.44 11.72 19.14 19.71 23.83"/><polygon class="cls-35" points="33.4 6.63 41.39 11.32 19.71 23.83 11.72 19.14 33.4 6.63"/><polygon class="cls-30" points="41.39 11.32 41.36 12.62 19.68 25.14 19.71 23.83 41.39 11.32"/><g class="cls-2"><g class="cls-41"><g class="cls-2"><path class="cls-15" d="M48.08,23.92l0,1.3v0l0-1.3v0"/><path class="cls-16" d="M48.08,24l0,1.3a.38.38,0,0,1,0,.1l0-1.31a.28.28,0,0,0,0-.09"/><path class="cls-17" d="M48.07,24l0,1.31,0,.09,0-1.3,0-.1"/><path class="cls-18" d="M48,24.14l0,1.3,0,.09,0-1.3,0-.09"/><path class="cls-19" d="M48,24.23l0,1.3-.08.1,0-1.3.08-.1"/><path class="cls-20" d="M47.91,24.33l0,1.3a.43.43,0,0,1-.12.11l0-1.3a.43.43,0,0,0,.12-.11"/><path class="cls-21" d="M47.79,24.44l0,1.3-.16.12,0-1.31a.91.91,0,0,0,.16-.11"/></g></g></g><g class="cls-2"><g class="cls-42"><g class="cls-2"><path class="cls-13" d="M22,23.86l0,1.3a.91.91,0,0,0-.16.11l0-1.3a.91.91,0,0,1,.16-.11"/><path class="cls-12" d="M21.81,24l0,1.3a.65.65,0,0,0-.12.11l0-1.3a.43.43,0,0,1,.12-.11"/><path class="cls-11" d="M21.69,24.08l0,1.3-.08.1,0-1.3.08-.1"/><path class="cls-10" d="M21.61,24.18l0,1.3,0,.09,0-1.3.05-.09"/><path class="cls-9" d="M21.56,24.27l0,1.3,0,.1,0-1.3,0-.1"/><path class="cls-8" d="M21.53,24.37l0,1.3a.28.28,0,0,0,0,.09l0-1.3a.28.28,0,0,1,0-.09"/><path class="cls-7" d="M21.52,24.46l0,1.3v0l0-1.3v0"/></g></g></g><polygon class="cls-30" points="43.7 13.98 43.67 15.28 24.23 26.5 24.26 25.2 43.7 13.98"/><g class="cls-2"><g class="cls-43"><g class="cls-2"><path class="cls-21" d="M24.26,25.2l0,1.3a2.32,2.32,0,0,1-.61.22l0-1.3a2.32,2.32,0,0,0,.61-.22"/><path class="cls-20" d="M23.65,25.42l0,1.3-.23,0,0-1.3.22,0"/><path class="cls-19" d="M23.43,25.45l0,1.3h-.18l0-1.3h.19"/><path class="cls-18" d="M23.24,25.46l0,1.3H23l0-1.3h.18"/><path class="cls-17" d="M23.06,25.46l0,1.3h-.16l0-1.3h.16"/><path class="cls-16" d="M22.9,25.45l0,1.3-.16,0,0-1.3.16,0"/><path class="cls-15" d="M22.74,25.43l0,1.3-.16,0,0-1.3.16,0"/><path class="cls-32" d="M22.58,25.4l0,1.3-.17-.05,0-1.3.17,0"/><path class="cls-33" d="M22.41,25.35l0,1.3-.2-.07,0-1.3.2.07"/><path class="cls-34" d="M22.21,25.28l0,1.3-.22-.1a.85.85,0,0,1-.48-.69l0-1.3a.84.84,0,0,0,.48.68l.22.11"/></g></g></g><path class="cls-35" d="M41.41,12.63a2.5,2.5,0,0,1,2.26,0c.63.37.65,1,0,1.32L24.26,25.2a2.49,2.49,0,0,1-2.27,0c-.62-.37-.64-1,0-1.31Z"/><polygon class="cls-27" points="44.84 14.64 44.81 15.95 25.37 27.17 25.4 25.87 44.84 14.64"/><g class="cls-2"><g class="cls-44"><g class="cls-2"><path class="cls-13" d="M25.4,25.87l0,1.3-.17.11,0-1.3.17-.11"/><path class="cls-12" d="M25.23,26l0,1.3-.12.11,0-1.3.12-.11"/><path class="cls-11" d="M25.11,26.09l0,1.3-.07.1,0-1.3a.61.61,0,0,1,.07-.1"/><path class="cls-10" d="M25,26.19l0,1.3a.31.31,0,0,0-.05.1l0-1.31a.41.41,0,0,1,.05-.09"/><path class="cls-9" d="M25,26.28l0,1.31a.32.32,0,0,0,0,.09l0-1.3a.54.54,0,0,1,0-.1"/><path class="cls-8" d="M25,26.38l0,1.3a.29.29,0,0,0,0,.09l0-1.3a.29.29,0,0,1,0-.09"/><path class="cls-7" d="M24.94,26.47l0,1.3v0l0-1.3v0"/></g></g></g><polygon class="cls-30" points="47.12 15.98 47.09 17.29 27.65 28.51 27.68 27.21 47.12 15.98"/><g class="cls-2"><g class="cls-45"><g class="cls-2"><path class="cls-21" d="M27.68,27.21l0,1.3a2.32,2.32,0,0,1-.61.22l0-1.3a2.32,2.32,0,0,0,.61-.22"/><path class="cls-20" d="M27.07,27.43l0,1.3-.23,0,0-1.3.23,0"/><path class="cls-19" d="M26.84,27.46l0,1.3h-.19l0-1.3h.18"/><path class="cls-18" d="M26.66,27.47l0,1.3h-.17l0-1.3h.18"/><path class="cls-17" d="M26.48,27.47l0,1.3h-.16l0-1.3h.16"/><path class="cls-16" d="M26.32,27.46l0,1.3-.16,0,0-1.3.16,0"/><path class="cls-15" d="M26.16,27.44l0,1.3-.16,0,0-1.3.16,0"/><path class="cls-32" d="M26,27.41l0,1.3-.17-.05,0-1.3.17.05"/><path class="cls-33" d="M25.83,27.36l0,1.3-.19-.07,0-1.3.19.07"/><path class="cls-34" d="M25.64,27.29l0,1.3-.22-.1a.82.82,0,0,1-.48-.69l0-1.3a.83.83,0,0,0,.48.69l.22.1"/></g></g></g><path class="cls-35" d="M44.84,14.65a2.47,2.47,0,0,1,2.26,0c.63.37.64,1,0,1.32L27.68,27.21a2.47,2.47,0,0,1-2.26,0c-.63-.37-.64-1,0-1.32Z"/><polygon class="cls-27" points="41.54 20.98 41.51 22.28 29.17 29.4 29.2 28.1 41.54 20.98"/><g class="cls-2"><g class="cls-46"><g class="cls-2"><path class="cls-13" d="M29.2,28.1l0,1.3-.16.12,0-1.31.16-.11"/><path class="cls-12" d="M29,28.21l0,1.31a.43.43,0,0,0-.12.11l0-1.3a.68.68,0,0,1,.12-.12"/><path class="cls-11" d="M28.92,28.33l0,1.3-.08.1,0-1.3.08-.1"/><path class="cls-10" d="M28.84,28.43l0,1.3,0,.09,0-1.3.05-.09"/><path class="cls-9" d="M28.79,28.52l0,1.3,0,.09,0-1.3,0-.09"/><path class="cls-8" d="M28.76,28.61l0,1.3a.34.34,0,0,0,0,.1l0-1.3a.31.31,0,0,1,0-.1"/><path class="cls-7" d="M28.75,28.71l0,1.3v0l0-1.3v0"/></g></g></g><polygon class="cls-30" points="43.82 22.32 43.79 23.62 31.45 30.74 31.48 29.44 43.82 22.32"/><g class="cls-2"><g class="cls-47"><g class="cls-2"><path class="cls-21" d="M31.48,29.44l0,1.3a1.64,1.64,0,0,1-.61.22l0-1.3a1.64,1.64,0,0,0,.61-.22"/><path class="cls-20" d="M30.87,29.66l0,1.3a.83.83,0,0,1-.22,0l0-1.3.22,0"/><path class="cls-19" d="M30.65,29.69l0,1.3h-.19l0-1.3h.19"/><path class="cls-18" d="M30.46,29.7l0,1.3a.49.49,0,0,1-.17,0l0-1.3a1,1,0,0,0,.17,0"/><path class="cls-17" d="M30.29,29.7l0,1.3H30.1l0-1.3h.16"/><path class="cls-16" d="M30.13,29.69l0,1.3-.16,0,0-1.3.16,0"/><path class="cls-15" d="M30,29.67l0,1.3a.76.76,0,0,1-.16,0l0-1.3.16,0"/><path class="cls-32" d="M29.81,29.64l0,1.3-.17,0,0-1.3.17,0"/><path class="cls-33" d="M29.64,29.6l0,1.3-.2-.07,0-1.3.2.07"/><path class="cls-34" d="M29.44,29.53l0,1.3-.21-.11a.8.8,0,0,1-.48-.69l0-1.3a.8.8,0,0,0,.48.69l.21.11"/></g></g></g><path class="cls-35" d="M41.54,21a2.47,2.47,0,0,1,2.26,0c.63.37.64.95,0,1.31L31.48,29.44a2.45,2.45,0,0,1-2.25,0c-.63-.37-.65-1,0-1.32Z"/><polygon class="cls-27" points="45.34 23.21 45.31 24.52 32.98 31.64 33.01 30.34 45.34 23.21"/><g class="cls-2"><g class="cls-48"><g class="cls-2"><path class="cls-13" d="M33,30.34l0,1.3-.17.11,0-1.3.17-.11"/><path class="cls-12" d="M32.84,30.45l0,1.3-.12.11,0-1.3.12-.11"/><path class="cls-11" d="M32.72,30.56l0,1.3a.86.86,0,0,1-.07.1l0-1.3.07-.1"/><path class="cls-10" d="M32.65,30.66l0,1.3a.41.41,0,0,0,0,.09l0-1.3a.41.41,0,0,1,0-.09"/><path class="cls-9" d="M32.6,30.75l0,1.3,0,.1,0-1.3,0-.1"/><path class="cls-8" d="M32.57,30.85l0,1.3a.29.29,0,0,0,0,.09l0-1.3a.29.29,0,0,1,0-.09"/><path class="cls-7" d="M32.55,30.94l0,1.3v0l0-1.3v0"/></g></g></g><polygon class="cls-30" points="47.63 24.55 47.6 25.86 35.26 32.98 35.29 31.68 47.63 24.55"/><g class="cls-2"><g class="cls-49"><g class="cls-2"><path class="cls-21" d="M35.29,31.68l0,1.3a2.32,2.32,0,0,1-.61.22l0-1.31a2,2,0,0,0,.61-.21"/><path class="cls-20" d="M34.68,31.89l0,1.31-.23,0,0-1.3.23,0"/><path class="cls-19" d="M34.45,31.93l0,1.3h-.18l0-1.3h.18"/><path class="cls-18" d="M34.27,31.94l0,1.3h-.17l0-1.3h.17"/><path class="cls-17" d="M34.1,31.94l0,1.3H33.9l0-1.3h.17"/><path class="cls-16" d="M33.93,31.93l0,1.3-.16,0,0-1.3.16,0"/><path class="cls-15" d="M33.77,31.91l0,1.3-.16,0,0-1.3.16,0"/><path class="cls-32" d="M33.61,31.88l0,1.3-.17,0,0-1.3.17.05"/><path class="cls-33" d="M33.44,31.83l0,1.3-.19-.07,0-1.3.19.07"/><path class="cls-34" d="M33.25,31.76l0,1.3L33,33a.84.84,0,0,1-.48-.69l0-1.3a.84.84,0,0,0,.48.68l.22.11"/></g></g></g><path class="cls-35" d="M45.34,23.21a2.52,2.52,0,0,1,2.27,0c.63.37.63,1,0,1.31L35.29,31.68a2.5,2.5,0,0,1-2.26,0c-.63-.37-.64-1,0-1.31Z"/><path class="cls-50" d="M21.79.92a8.73,8.73,0,0,1,8,.08L58.63,18c2.22,1.3,2.25,3.38.07,4.63L38.55,34.23a8.71,8.71,0,0,1-7.95-.09l-28.89-17c-2.21-1.3-2.25-3.37-.07-4.63Zm19.6,10.4-8-4.69L11.72,19.14l8,4.69L41.39,11.32M43.7,14c.62-.36.6-1,0-1.32a2.5,2.5,0,0,0-2.26,0L22,23.86c-.62.35-.6.94,0,1.31a2.49,2.49,0,0,0,2.27,0L43.7,14m3.42,2c.62-.36.61-1,0-1.32a2.47,2.47,0,0,0-2.26,0L25.4,25.87c-.62.36-.61.95,0,1.32a2.47,2.47,0,0,0,2.26,0L47.12,16m-16-9.39c.62-.36.6-.95,0-1.32a2.45,2.45,0,0,0-2.25,0L9.42,16.49c-.62.35-.61.94,0,1.31a2.5,2.5,0,0,0,2.26,0L31.14,6.6m-3.43-2c.62-.36.61-.94,0-1.32a2.47,2.47,0,0,0-2.26,0L6,14.47c-.62.36-.61.95,0,1.32a2.47,2.47,0,0,0,2.26,0L27.71,4.59M43.82,22.32c.62-.36.61-.94,0-1.31a2.47,2.47,0,0,0-2.26,0L29.2,28.1c-.62.36-.6.95,0,1.32a2.45,2.45,0,0,0,2.25,0l12.34-7.12m3.81,2.23c.61-.35.61-.94,0-1.31a2.52,2.52,0,0,0-2.27,0L33,30.34c-.62.35-.61.94,0,1.31a2.5,2.5,0,0,0,2.26,0l12.34-7.13"/><path class="cls-51" d="M60.3,20.55l0,.19,0,.13-.06.18-.06.13a1.14,1.14,0,0,1-.1.19l-.07.12-.19.24-.06.08a3.11,3.11,0,0,1-.37.35l-.1.08a5.23,5.23,0,0,1-.52.35L38.55,34.23a6.51,6.51,0,0,1-.8.37l-.12,0a7.61,7.61,0,0,1-.85.25l-.17,0a7.36,7.36,0,0,1-.84.14l-.13,0c-.32,0-.64,0-1,0h-.16q-.47,0-.93-.06l-.15,0a7,7,0,0,1-.91-.17l-.15,0a5.94,5.94,0,0,1-.75-.23l-.19-.07a5.45,5.45,0,0,1-.84-.41l-28.89-17A2.86,2.86,0,0,1,0,14.78l0,1.3a2.87,2.87,0,0,0,1.68,2.41l28.89,17a6.53,6.53,0,0,0,.75.37l.09,0,.19.07.41.15.34.09.15,0,.11,0a5.72,5.72,0,0,0,.57.11l.23,0,.15,0,.18,0,.58,0h.33a2.43,2.43,0,0,0,.27,0c.22,0,.44,0,.66,0h0l.13,0c.21,0,.43-.05.64-.09l.21,0,.16,0A7.61,7.61,0,0,0,37.6,36l.12-.05a6.51,6.51,0,0,0,.8-.37L58.67,23.89a5.23,5.23,0,0,0,.52-.35l.06,0s0,0,0,0a3.11,3.11,0,0,0,.37-.35h0l0-.07a1.08,1.08,0,0,0,.18-.24s0,0,0,0l0-.08a1.62,1.62,0,0,0,.1-.18l0-.07,0-.07.06-.18,0-.08a.11.11,0,0,1,0-.05l0-.19s0-.06,0-.09v-.09l0-1.31C60.31,20.43,60.3,20.49,60.3,20.55Z"/></g></g></g></g></svg>