<svg xmlns="http://www.w3.org/2000/svg" xmlns:xlink="http://www.w3.org/1999/xlink" viewBox="0 0 37.78 71.38"><defs><style>.cls-1{fill:none;}.cls-2{isolation:isolate;}.cls-3{clip-path:url(#clip-path);}.cls-4{fill:#3d7f6b;}.cls-5{fill:#3f846f;}.cls-6{fill:#428973;}.cls-7{fill:#448e77;}.cls-8{fill:#46937c;}.cls-9{fill:#499880;}.cls-10{fill:#4b9d84;}.cls-11{fill:#4da288;}.cls-12{fill:#50a78c;}.cls-13{fill:#52ab90;}.cls-14{fill:#54b094;}.cls-15{fill:#57b598;}.cls-16{fill:#59ba9d;}.cls-17{fill:#5bbfa1;}.cls-18{fill:#5ec4a5;}.cls-19{fill:#60c9a9;}.cls-20{fill:#62cead;}.cls-21{fill:#65d3b1;}.cls-22{fill:#67d8b5;}.cls-23{fill:#69ddb9;}.cls-24{fill:#6ce1be;}.cls-25{fill:#6ee6c2;}.cls-26{fill:#70ebc6;}.cls-27{fill:#73f0ca;}.cls-28{fill:#75f5ce;}.cls-29{fill:#86f6d4;}.cls-30{fill:#8cf7d6;}.cls-31{fill:#92f7d8;}.cls-32{fill:#96f7da;}.cls-33{fill:#9af8db;}.cls-34{clip-path:url(#clip-path-2);}.cls-35{fill:#000e21;}.cls-36{fill:#000f23;}.cls-37{fill:#000f24;}.cls-38{fill:#001025;}.cls-39{fill:#001026;}.cls-40{fill:#001128;}.cls-41{fill:#001129;}.cls-42{fill:#00122a;}.cls-43{fill:#00122c;}.cls-44{fill:#00132d;}.cls-45{fill:#00132e;}.cls-46{fill:#00142f;}.cls-47{fill:#001531;}.cls-48{fill:#001532;}.cls-49{fill:#001633;}.cls-50{clip-path:url(#clip-path-3);}.cls-51{clip-path:url(#clip-path-4);}.cls-52{clip-path:url(#clip-path-5);}.cls-53{clip-path:url(#clip-path-6);}.cls-54{clip-path:url(#clip-path-7);}.cls-55{clip-path:url(#clip-path-8);}.cls-56{clip-path:url(#clip-path-9);}.cls-57{clip-path:url(#clip-path-10);}.cls-58{clip-path:url(#clip-path-11);}.cls-59{clip-path:url(#clip-path-12);}.cls-60{fill:#65d3b2;}.cls-61{fill:#001737;}.cls-62{clip-path:url(#clip-path-13);}.cls-63{fill:#001634;}.cls-64{fill:#001736;}.cls-65{fill:#001838;}.cls-66{fill:#00183a;}.cls-67{fill:#00193b;}.cls-68{fill:#00193c;}.cls-69{fill:#001a3d;}.cls-70{fill:#001a3f;}.cls-71{fill:#001b40;}.cls-72{fill:#1f3657;}.cls-73{fill:#2b4260;}.cls-74{fill:#354a68;}.cls-75{fill:#3d526e;}.cls-76{fill:#445873;}.cls-77{clip-path:url(#clip-path-14);}.cls-78{fill:#000e22;}.cls-79{fill:#5abd9f;}.cls-80{clip-path:url(#clip-path-15);}.cls-81{clip-path:url(#clip-path-16);}.cls-82{clip-path:url(#clip-path-17);}.cls-83{clip-path:url(#clip-path-18);}.cls-84{clip-path:url(#clip-path-19);}.cls-85{clip-path:url(#clip-path-20);}.cls-86{clip-path:url(#clip-path-21);}.cls-87{clip-path:url(#clip-path-22);}.cls-88{clip-path:url(#clip-path-23);}.cls-89{clip-path:url(#clip-path-24);}.cls-90{clip-path:url(#clip-path-25);}.cls-91{clip-path:url(#clip-path-26);}.cls-92{clip-path:url(#clip-path-27);}.cls-93{clip-path:url(#clip-path-28);}.cls-94{fill:#fff;}.cls-95{clip-path:url(#clip-path-29);}.cls-96{clip-path:url(#clip-path-30);}.cls-97{clip-path:url(#clip-path-31);}</style><clipPath id="clip-path"><path class="cls-1" d="M6.19,47.29a3.16,3.16,0,0,0,1.43,2.47l-1.9,1.1A3.11,3.11,0,0,1,4.3,48.39l1.89-1.1L4.3,48.39a1,1,0,0,1,.41-.92l1.9-1.1A1,1,0,0,0,6.19,47.29Z"/></clipPath><clipPath id="clip-path-2"><path class="cls-1" d="M4.71,47.47l1.9-1.1a1,1,0,0,1,1,.1l-1.9,1.1A1,1,0,0,0,4.71,47.47Z"/></clipPath><clipPath id="clip-path-3"><path class="cls-1" d="M6.21,42.36a3.14,3.14,0,0,0,1.42,2.47l-1.89,1.1a3.16,3.16,0,0,1-1.43-2.47c.63-.37,1.26-.74,1.9-1.1-.64.36-1.27.73-1.9,1.1a1,1,0,0,1,.42-.92l1.89-1.1A1,1,0,0,0,6.21,42.36Z"/></clipPath><clipPath id="clip-path-4"><path class="cls-1" d="M4.73,42.54l1.89-1.1a1,1,0,0,1,1,.1l-1.9,1.1A1,1,0,0,0,4.73,42.54Z"/></clipPath><clipPath id="clip-path-5"><path class="cls-1" d="M6.22,37.43A3.16,3.16,0,0,0,7.64,39.9L5.75,41a3.17,3.17,0,0,1-1.43-2.47l1.9-1.1-1.9,1.1a1,1,0,0,1,.42-.92l1.9-1.1A1,1,0,0,0,6.22,37.43Z"/></clipPath><clipPath id="clip-path-6"><path class="cls-1" d="M4.74,37.61l1.9-1.1a1,1,0,0,1,1,.1l-1.89,1.1A1,1,0,0,0,4.74,37.61Z"/></clipPath><clipPath id="clip-path-7"><path class="cls-1" d="M6.23,32.5A3.17,3.17,0,0,0,7.66,35l-1.9,1.1A3.16,3.16,0,0,1,4.34,33.6l1.89-1.1L4.34,33.6a1,1,0,0,1,.42-.92l1.89-1.1A1,1,0,0,0,6.23,32.5Z"/></clipPath><clipPath id="clip-path-8"><path class="cls-1" d="M4.76,32.68l1.89-1.1a1,1,0,0,1,1,.1l-1.9,1.1A1,1,0,0,0,4.76,32.68Z"/></clipPath><clipPath id="clip-path-9"><path class="cls-1" d="M6.25,27.56A3.14,3.14,0,0,0,7.67,30l-1.89,1.1a3.17,3.17,0,0,1-1.43-2.47l1.9-1.11-1.9,1.11a1,1,0,0,1,.42-.92l1.89-1.1A1,1,0,0,0,6.25,27.56Z"/></clipPath><clipPath id="clip-path-10"><path class="cls-1" d="M4.77,27.75l1.89-1.1a1,1,0,0,1,1,.1l-1.89,1.1A1,1,0,0,0,4.77,27.75Z"/></clipPath><clipPath id="clip-path-11"><path class="cls-1" d="M6.26,22.63a3.18,3.18,0,0,0,1.43,2.48l-1.9,1.1a3.14,3.14,0,0,1-1.42-2.47l1.89-1.11L4.37,23.74a1,1,0,0,1,.41-.92l1.9-1.1A1,1,0,0,0,6.26,22.63Z"/></clipPath><clipPath id="clip-path-12"><path class="cls-1" d="M4.78,22.82l1.9-1.1a1,1,0,0,1,1,.1l-1.9,1.1A1,1,0,0,0,4.78,22.82Z"/></clipPath><clipPath id="clip-path-13"><path class="cls-1" d="M33.42,64.17l-1.89,1.1a1,1,0,0,0,.42-.92,3.14,3.14,0,0,0-1.43-2.46l1.9-1.1a3.1,3.1,0,0,1,1.42,2.46A1,1,0,0,1,33.42,64.17Z"/></clipPath><clipPath id="clip-path-14"><path class="cls-1" d="M33.44,59.24l-1.9,1.1a1,1,0,0,0,.42-.92A3.1,3.1,0,0,0,30.54,57l1.89-1.1a3.12,3.12,0,0,1,1.43,2.46A1,1,0,0,1,33.44,59.24Z"/></clipPath><clipPath id="clip-path-15"><path class="cls-1" d="M33.45,54.31l-1.89,1.1a1,1,0,0,0,.42-.92A3.14,3.14,0,0,0,30.55,52l1.9-1.11a3.15,3.15,0,0,1,1.42,2.47A1,1,0,0,1,33.45,54.31Z"/></clipPath><clipPath id="clip-path-16"><path class="cls-1" d="M19.62,25.41a3.14,3.14,0,0,0,1.43,2.47L19.15,29a3.13,3.13,0,0,1-1.42-2.47l1.89-1.1-1.89,1.1a1,1,0,0,1,.42-.92L20,24.49A1,1,0,0,0,19.62,25.41Z"/></clipPath><clipPath id="clip-path-17"><path class="cls-1" d="M33.47,49.38l-1.9,1.1a1,1,0,0,0,.42-.92,3.15,3.15,0,0,0-1.42-2.47L32.46,46a3.16,3.16,0,0,1,1.43,2.47A1,1,0,0,1,33.47,49.38Z"/></clipPath><clipPath id="clip-path-18"><path class="cls-1" d="M18.15,25.59,20,24.49a1,1,0,0,1,1,.1l-1.9,1.1A1,1,0,0,0,18.15,25.59Z"/></clipPath><clipPath id="clip-path-19"><path class="cls-1" d="M19.64,21.57a3.12,3.12,0,0,0,1.42,2.48l-1.89,1.1a3.16,3.16,0,0,1-1.43-2.47l1.9-1.11-1.9,1.11a1,1,0,0,1,.42-.92l1.89-1.1A1,1,0,0,0,19.64,21.57Z"/></clipPath><clipPath id="clip-path-20"><path class="cls-1" d="M18.16,21.76l1.89-1.1a1,1,0,0,1,1,.1l-1.9,1.1A1,1,0,0,0,18.16,21.76Z"/></clipPath><clipPath id="clip-path-21"><path class="cls-1" d="M33.48,44.45l-1.89,1.1a1,1,0,0,0,.41-.92,3.12,3.12,0,0,0-1.42-2.47l1.89-1.1a3.16,3.16,0,0,1,1.43,2.47A1,1,0,0,1,33.48,44.45Z"/></clipPath><clipPath id="clip-path-22"><path class="cls-1" d="M19.65,17.2a3.13,3.13,0,0,0,1.42,2.46l-1.89,1.1a3.14,3.14,0,0,1-1.43-2.46l1.9-1.1-1.9,1.1a1,1,0,0,1,.42-.92l1.9-1.11A1,1,0,0,0,19.65,17.2Z"/></clipPath><clipPath id="clip-path-23"><path class="cls-1" d="M18.17,17.38l1.9-1.11a1,1,0,0,1,1,.1l-1.89,1.11A1,1,0,0,0,18.17,17.38Z"/></clipPath><clipPath id="clip-path-24"><path class="cls-1" d="M33.49,39.52l-1.89,1.1A1,1,0,0,0,32,39.7a3.16,3.16,0,0,0-1.43-2.47l1.9-1.1a3.12,3.12,0,0,1,1.42,2.47A1,1,0,0,1,33.49,39.52Z"/></clipPath><clipPath id="clip-path-25"><path class="cls-1" d="M33.51,34.59l-1.9,1.1a1,1,0,0,0,.42-.92,3.12,3.12,0,0,0-1.42-2.47l1.89-1.1a3.16,3.16,0,0,1,1.43,2.47A1,1,0,0,1,33.51,34.59Z"/></clipPath><clipPath id="clip-path-26"><path class="cls-1" d="M33.52,30.75l-1.89,1.1a1,1,0,0,0,.41-.92,3.1,3.1,0,0,0-1.42-2.46l1.89-1.11a3.16,3.16,0,0,1,1.43,2.47A1,1,0,0,1,33.52,30.75Z"/></clipPath><clipPath id="clip-path-27"><path class="cls-1" d="M33.53,26.37l-1.89,1.1a1,1,0,0,1-1-.1l1.9-1.1A1,1,0,0,0,33.53,26.37Z"/></clipPath><clipPath id="clip-path-28"><path class="cls-1" d="M33.53,26.37l-1.89,1.1a1,1,0,0,0,.42-.92,3.16,3.16,0,0,0-1.43-2.47l1.9-1.1A3.15,3.15,0,0,1,34,25.45,1,1,0,0,1,33.53,26.37Z"/></clipPath><clipPath id="clip-path-29"><path class="cls-1" d="M36.49,70l-1.9,1.11a2.82,2.82,0,0,0,1.17-2.57l1.89-1.1A2.79,2.79,0,0,1,36.49,70Z"/></clipPath><clipPath id="clip-path-30"><path class="cls-1" d="M1.29,1.37,3.18.27A2.82,2.82,0,0,1,6,.55L4.13,1.65A2.82,2.82,0,0,0,1.29,1.37Z"/></clipPath><clipPath id="clip-path-31"><path class="cls-1" d="M31.9,17.68l1.9-1.1a8.82,8.82,0,0,1,4,6.89l-1.9,1.11A8.76,8.76,0,0,0,31.9,17.68Z"/></clipPath></defs><title>document_6</title><g id="Layer_2" data-name="Layer 2"><g id="document_network_6"><g id="document_6"><g class="cls-2"><g class="cls-2"><g class="cls-3"><g class="cls-2"><path class="cls-4" d="M4.71,47.47l1.9-1.1a.82.82,0,0,0-.25.24l-1.89,1.1a.78.78,0,0,1,.24-.24"/><path class="cls-5" d="M4.47,47.71l1.89-1.1-.05.1-1.9,1.1.06-.1"/><path class="cls-6" d="M4.41,47.81l1.9-1.1,0,.08-1.89,1.1,0-.08"/><path class="cls-7" d="M4.38,47.89l1.89-1.1s0,.05,0,.08L4.35,48l0-.08"/><path class="cls-8" d="M4.35,48l1.9-1.1a.19.19,0,0,0,0,.07L4.33,48a.19.19,0,0,0,0-.07"/><path class="cls-9" d="M4.33,48l1.9-1.1s0,.05,0,.07l-1.89,1.1s0,0,0-.07"/><path class="cls-10" d="M4.32,48.11,6.21,47a.17.17,0,0,1,0,.07l-1.89,1.1s0,0,0-.07"/><path class="cls-11" d="M4.31,48.18l1.89-1.1v.07l-1.9,1.1s0,0,0-.07"/><path class="cls-12" d="M4.3,48.25l1.9-1.1s0,0,0,.06L4.3,48.32v-.07"/><path class="cls-13" d="M4.3,48.32l1.89-1.11v.07L4.3,48.38v-.06"/><path class="cls-14" d="M4.3,48.38l1.89-1.1h0v.06L4.3,48.45v-.06h0"/><path class="cls-15" d="M4.3,48.45l1.89-1.1a.15.15,0,0,0,0,.07l-1.9,1.1v-.07"/><path class="cls-16" d="M4.3,48.52l1.9-1.1v.07l-1.89,1.1a.15.15,0,0,1,0-.07"/><path class="cls-17" d="M4.31,48.59l1.89-1.1s0,0,0,.07l-1.9,1.1v-.07"/><path class="cls-18" d="M4.31,48.66l1.9-1.1s0,0,0,.07l-1.9,1.1a.2.2,0,0,0,0-.07"/><path class="cls-19" d="M4.32,48.73l1.9-1.1s0,0,0,.08l-1.89,1.1s0-.05,0-.08"/><path class="cls-20" d="M4.34,48.81l1.89-1.1s0,0,0,.07l-1.9,1.1s0-.05,0-.07"/><path class="cls-21" d="M4.35,48.88l1.9-1.1s0,0,0,.08L4.37,49s0-.05,0-.08"/><path class="cls-22" d="M4.37,49l1.89-1.1a.19.19,0,0,1,0,.07L4.39,49s0-.05,0-.07"/><path class="cls-23" d="M4.39,49l1.89-1.1,0,.08-1.9,1.1,0-.08"/><path class="cls-24" d="M4.41,49.11,6.31,48a.19.19,0,0,0,0,.07l-1.89,1.1,0-.07"/><path class="cls-25" d="M4.44,49.18l1.89-1.1,0,.08-1.9,1.1a.24.24,0,0,1,0-.08"/><path class="cls-26" d="M4.46,49.26l1.9-1.1a.25.25,0,0,0,0,.07l-1.89,1.1,0-.07"/><path class="cls-27" d="M4.49,49.33l1.89-1.1,0,.07L4.52,49.4l0-.07"/><path class="cls-28" d="M4.52,49.4l1.89-1.1,0,.06L4.55,49.47l0-.07"/><path class="cls-29" d="M4.55,49.47l1.89-1.11,0,.07L4.58,49.54l0-.07"/><path class="cls-30" d="M4.58,49.54l1.89-1.11s0,0,0,.08l-1.9,1.1,0-.07"/><path class="cls-31" d="M4.61,49.61l1.9-1.1,0,.09L4.66,49.7l0-.09"/><path class="cls-32" d="M4.66,49.7l1.89-1.1a.75.75,0,0,1,.07.12L4.73,49.83s-.05-.09-.07-.13"/><path class="cls-33" d="M4.73,49.83l1.89-1.11c0,.06.07.12.11.17L4.84,50l-.11-.16"/><path class="cls-32" d="M4.84,50l1.89-1.1.09.13-1.89,1.1A.38.38,0,0,1,4.84,50"/><path class="cls-31" d="M4.93,50.12,6.82,49l.06.08L5,50.2l-.06-.08"/><path class="cls-30" d="M5,50.2l1.89-1.1.06.07L5,50.27l0-.07"/><path class="cls-29" d="M5,50.27l1.9-1.1,0,.07L5.1,50.34,5,50.27"/><path class="cls-28" d="M5.1,50.34,7,49.24l.06.06-1.9,1.1-.05-.06"/><path class="cls-27" d="M5.15,50.4l1.9-1.1.06.06-1.9,1.1-.06-.06"/><path class="cls-26" d="M5.21,50.46l1.9-1.1.06.06-1.9,1.1-.06-.06"/><path class="cls-25" d="M5.27,50.52l1.9-1.1.06.06-1.89,1.1-.07-.06"/><path class="cls-24" d="M5.34,50.58l1.89-1.1.06.05L5.4,50.63l-.06-.05"/><path class="cls-23" d="M5.4,50.63l1.89-1.1.07,0-1.9,1.1-.06,0"/><path class="cls-22" d="M5.46,50.68l1.9-1.1.06.05-1.9,1.1-.06,0"/><path class="cls-21" d="M5.52,50.73l1.9-1.1.06,0L5.59,50.78l-.07-.05"/><path class="cls-20" d="M5.59,50.78l1.89-1.11.06,0L5.65,50.82l-.06,0"/><path class="cls-19" d="M5.65,50.82l1.89-1.11.06,0-1.89,1.1-.06,0"/><path class="cls-18" d="M5.71,50.85l1.89-1.1h0l-1.9,1.1h0"/></g></g></g><g class="cls-2"><g class="cls-34"><g class="cls-2"><path class="cls-35" d="M4.71,47.47l1.9-1.1.11,0-1.89,1.1-.12,0"/><path class="cls-36" d="M4.83,47.42l1.89-1.1.1,0-1.89,1.1-.1,0"/><path class="cls-37" d="M4.93,47.39l1.89-1.1h.09L5,47.38H4.93"/><path class="cls-38" d="M5,47.38l1.9-1.1H7L5.09,47.38H5"/><path class="cls-39" d="M5.09,47.38,7,46.27h.07l-1.9,1.1H5.09"/><path class="cls-40" d="M5.15,47.38l1.9-1.1h.06l-1.89,1.1H5.15"/><path class="cls-41" d="M5.22,47.38l1.89-1.1h.06L5.28,47.4l-.06,0"/><path class="cls-42" d="M5.28,47.4l1.89-1.11.06,0-1.89,1.1H5.28"/><path class="cls-43" d="M5.34,47.41l1.89-1.1h.06L5.4,47.42H5.34"/><path class="cls-44" d="M5.4,47.42l1.89-1.1.06,0-1.9,1.1,0,0"/><path class="cls-45" d="M5.45,47.44l1.9-1.1.06,0-1.9,1.1-.06,0"/><path class="cls-46" d="M5.51,47.46l1.9-1.1,0,0-1.89,1.1-.06,0"/><path class="cls-47" d="M5.57,47.49l1.89-1.1.06,0-1.89,1.1-.06,0"/><path class="cls-48" d="M5.63,47.52l1.89-1.1a.09.09,0,0,1,.06,0l-1.9,1.1,0,0"/><path class="cls-49" d="M5.68,47.55l1.9-1.1,0,0-1.9,1.1-.05,0"/></g></g></g><g class="cls-2"><g class="cls-50"><g class="cls-2"><path class="cls-4" d="M4.73,42.54l1.89-1.1a.82.82,0,0,0-.25.24l-1.89,1.1a.82.82,0,0,1,.25-.24"/><path class="cls-5" d="M4.48,42.78l1.89-1.1,0,.1-1.89,1.1.05-.1"/><path class="cls-6" d="M4.43,42.88l1.89-1.1,0,.08L4.39,43a.3.3,0,0,1,0-.08"/><path class="cls-7" d="M4.39,43l1.9-1.1,0,.08L4.37,43a.24.24,0,0,1,0-.08"/><path class="cls-8" d="M4.37,43l1.89-1.1a.64.64,0,0,0,0,.07l-1.89,1.1a.19.19,0,0,1,0-.07"/><path class="cls-9" d="M4.35,43.11,6.24,42s0,.05,0,.07l-1.9,1.1s0,0,0-.07"/><path class="cls-10" d="M4.33,43.18l1.9-1.1a.15.15,0,0,0,0,.07l-1.9,1.1a.17.17,0,0,0,0-.07"/><path class="cls-11" d="M4.32,43.25l1.9-1.1s0,0,0,.07l-1.89,1.1v-.07"/><path class="cls-12" d="M4.32,43.32l1.89-1.1v.06l-1.9,1.11a.15.15,0,0,1,0-.07"/><path class="cls-13" d="M4.31,43.39l1.9-1.11v.07l-1.9,1.1v-.06"/><path class="cls-14" d="M4.31,43.45l1.9-1.1h0v.06l-1.9,1.1v-.06h0"/><path class="cls-15" d="M4.31,43.52l1.9-1.1v.07l-1.9,1.1v-.07"/><path class="cls-16" d="M4.31,43.59l1.9-1.1a.17.17,0,0,0,0,.07l-1.9,1.1a.2.2,0,0,0,0-.07"/><path class="cls-17" d="M4.32,43.66l1.9-1.1v.07l-1.89,1.1s0,0,0-.07"/><path class="cls-18" d="M4.33,43.73l1.89-1.1a.17.17,0,0,1,0,.07L4.34,43.8a.15.15,0,0,1,0-.07"/><path class="cls-19" d="M4.34,43.8l1.89-1.1s0,0,0,.08l-1.9,1.1s0-.05,0-.08"/><path class="cls-20" d="M4.35,43.88l1.9-1.1s0,0,0,.07L4.37,44s0-.05,0-.07"/><path class="cls-21" d="M4.37,44l1.89-1.1,0,.08L4.38,44s0-.05,0-.08"/><path class="cls-22" d="M4.38,44l1.9-1.1a.19.19,0,0,0,0,.07L4.4,44.1a.19.19,0,0,0,0-.07"/><path class="cls-23" d="M4.4,44.1,6.3,43l0,.08-1.89,1.1,0-.08"/><path class="cls-24" d="M4.43,44.18l1.89-1.1a.19.19,0,0,1,0,.07l-1.89,1.1a.19.19,0,0,1,0-.07"/><path class="cls-25" d="M4.45,44.25l1.89-1.1,0,.08-1.89,1.1,0-.08"/><path class="cls-26" d="M4.48,44.33l1.89-1.1,0,.07L4.5,44.4a.25.25,0,0,1,0-.07"/><path class="cls-27" d="M4.5,44.4l1.9-1.1a.64.64,0,0,1,0,.07l-1.89,1.1,0-.07"/><path class="cls-28" d="M4.53,44.47l1.89-1.1,0,.06L4.56,44.54l0-.07"/><path class="cls-29" d="M4.56,44.54l1.89-1.11a.16.16,0,0,0,0,.07l-1.9,1.1,0-.06"/><path class="cls-30" d="M4.59,44.6l1.9-1.1,0,.08-1.89,1.1a.2.2,0,0,1,0-.08"/><path class="cls-31" d="M4.63,44.68l1.89-1.1.05.09-1.9,1.1,0-.09"/><path class="cls-32" d="M4.67,44.77l1.9-1.1a.75.75,0,0,0,.07.12l-1.9,1.1a.75.75,0,0,0-.07-.12"/><path class="cls-33" d="M4.74,44.89l1.9-1.1.1.17-1.89,1.1c0-.05-.07-.11-.11-.17"/><path class="cls-32" d="M4.85,45.06,6.74,44l.09.13-1.89,1.1-.09-.13"/><path class="cls-31" d="M4.94,45.19l1.89-1.1.07.08L5,45.27l-.06-.08"/><path class="cls-30" d="M5,45.27l1.9-1.1,0,.07-1.89,1.1L5,45.27"/><path class="cls-29" d="M5.06,45.34,7,44.24l.06.07-1.9,1.1-.05-.07"/><path class="cls-28" d="M5.11,45.41,7,44.31l0,.06-1.89,1.1-.06-.06"/><path class="cls-27" d="M5.17,45.47l1.89-1.1.06.06-1.89,1.1-.06-.06"/><path class="cls-26" d="M5.23,45.53l1.89-1.1.06.06-1.89,1.1-.06-.06"/><path class="cls-25" d="M5.29,45.59l1.89-1.1.06.06-1.89,1.1-.06-.06"/><path class="cls-24" d="M5.35,45.65l1.89-1.1a.18.18,0,0,1,.07.05l-1.9,1.1-.06-.05"/><path class="cls-23" d="M5.41,45.7l1.9-1.1.06,0-1.89,1.1a.18.18,0,0,1-.07,0"/><path class="cls-22" d="M5.48,45.75l1.89-1.1.06.05L5.54,45.8l-.06,0"/><path class="cls-21" d="M5.54,45.8l1.89-1.1.07,0L5.6,45.85l-.06-.05"/><path class="cls-20" d="M5.6,45.85l1.9-1.11.06,0-1.9,1.11-.06,0"/><path class="cls-19" d="M5.66,45.89l1.9-1.11.06,0-1.9,1.1-.06,0"/><path class="cls-18" d="M5.72,45.92l1.9-1.1h0l-1.89,1.1h0"/></g></g></g><g class="cls-2"><g class="cls-51"><g class="cls-2"><path class="cls-35" d="M4.73,42.54l1.89-1.1.12,0-1.9,1.1-.11,0"/><path class="cls-36" d="M4.84,42.49l1.9-1.1.1,0-1.9,1.1-.1,0"/><path class="cls-37" d="M4.94,42.46l1.9-1.1h.08L5,42.45H4.94"/><path class="cls-38" d="M5,42.45l1.89-1.1H7L5.1,42.45H5"/><path class="cls-39" d="M5.1,42.45,7,41.34h.07l-1.89,1.1H5.1"/><path class="cls-40" d="M5.17,42.45l1.89-1.1h.06l-1.89,1.1H5.17"/><path class="cls-41" d="M5.23,42.45l1.89-1.1h.07l-1.9,1.1H5.23"/><path class="cls-42" d="M5.29,42.46l1.9-1.1.06,0-1.9,1.1-.06,0"/><path class="cls-43" d="M5.35,42.48l1.9-1.1h0l-1.89,1.1H5.35"/><path class="cls-44" d="M5.41,42.49l1.89-1.1.06,0-1.89,1.1-.06,0"/><path class="cls-45" d="M5.47,42.51l1.89-1.1.06,0-1.89,1.1-.06,0"/><path class="cls-46" d="M5.53,42.53l1.89-1.1.06,0-1.9,1.1,0,0"/><path class="cls-47" d="M5.58,42.56l1.9-1.1,0,0L5.64,42.59l-.06,0"/><path class="cls-48" d="M5.64,42.59l1.89-1.11.06,0L5.7,42.62l-.06,0"/><path class="cls-49" d="M5.7,42.62l1.89-1.11,0,0-1.9,1.1,0,0"/></g></g></g><g class="cls-2"><g class="cls-52"><g class="cls-2"><path class="cls-4" d="M4.74,37.61l1.9-1.1a.72.72,0,0,0-.25.24l-1.9,1.1a.82.82,0,0,1,.25-.24"/><path class="cls-5" d="M4.49,37.85l1.9-1.1-.06.1L4.44,38l0-.1"/><path class="cls-6" d="M4.44,38l1.89-1.1,0,.08L4.41,38l0-.08"/><path class="cls-7" d="M4.41,38l1.89-1.1a.19.19,0,0,0,0,.08l-1.9,1.1,0-.08"/><path class="cls-8" d="M4.38,38.11,6.28,37a.14.14,0,0,0,0,.07l-1.9,1.1a.64.64,0,0,1,0-.07"/><path class="cls-9" d="M4.36,38.18l1.9-1.1a.64.64,0,0,0,0,.07l-1.89,1.1s0,0,0-.07"/><path class="cls-10" d="M4.35,38.25l1.89-1.1a.2.2,0,0,1,0,.07l-1.89,1.1a.15.15,0,0,1,0-.07"/><path class="cls-11" d="M4.34,38.32l1.89-1.1v.07l-1.9,1.1a.15.15,0,0,1,0-.07"/><path class="cls-12" d="M4.33,38.39l1.9-1.1a.13.13,0,0,0,0,.06l-1.89,1.1v-.06"/><path class="cls-13" d="M4.33,38.45l1.89-1.1v.07l-1.9,1.1s0,0,0-.07"/><path class="cls-14" d="M4.32,38.52l1.9-1.1h0v.06l-1.89,1.1a.13.13,0,0,1,0-.06h0"/><path class="cls-15" d="M4.33,38.59l1.89-1.1v.07l-1.89,1.1v-.07"/><path class="cls-16" d="M4.33,38.66l1.89-1.1a.17.17,0,0,1,0,.07l-1.9,1.1v-.07"/><path class="cls-17" d="M4.33,38.73l1.9-1.1a.17.17,0,0,0,0,.07l-1.9,1.1a.17.17,0,0,0,0-.07"/><path class="cls-18" d="M4.34,38.8l1.9-1.1a.17.17,0,0,0,0,.07l-1.9,1.1a.2.2,0,0,0,0-.07"/><path class="cls-19" d="M4.35,38.87l1.9-1.1s0,0,0,.07L4.36,39a.22.22,0,0,0,0-.08"/><path class="cls-20" d="M4.36,39l1.9-1.11s0,0,0,.08L4.38,39s0-.05,0-.07"/><path class="cls-21" d="M4.38,39l1.89-1.1a.19.19,0,0,1,0,.07L4.4,39.1s0-.05,0-.08"/><path class="cls-22" d="M4.4,39.1,6.29,38a.31.31,0,0,1,0,.08l-1.89,1.1a.19.19,0,0,1,0-.07"/><path class="cls-23" d="M4.42,39.17l1.89-1.1a.24.24,0,0,1,0,.08l-1.89,1.1a.24.24,0,0,1,0-.08"/><path class="cls-24" d="M4.44,39.25l1.89-1.1,0,.07-1.9,1.1a.19.19,0,0,0,0-.07"/><path class="cls-25" d="M4.46,39.32l1.9-1.1a.25.25,0,0,1,0,.07L4.49,39.4l0-.08"/><path class="cls-26" d="M4.49,39.4l1.89-1.11,0,.07L4.52,39.47l0-.07"/><path class="cls-27" d="M4.52,39.47l1.89-1.11,0,.07-1.9,1.11a.25.25,0,0,1,0-.07"/><path class="cls-28" d="M4.54,39.54l1.9-1.11,0,.07-1.9,1.1,0-.06"/><path class="cls-29" d="M4.57,39.6l1.9-1.1,0,.07-1.9,1.1,0-.07"/><path class="cls-30" d="M4.6,39.67l1.9-1.1a.3.3,0,0,0,0,.08l-1.9,1.1a.3.3,0,0,0,0-.08"/><path class="cls-31" d="M4.64,39.75l1.9-1.1a.59.59,0,0,0,0,.08L4.69,39.84l-.05-.09"/><path class="cls-32" d="M4.69,39.84l1.89-1.11c0,.05,0,.09.07.13L4.76,40a.75.75,0,0,1-.07-.12"/><path class="cls-33" d="M4.76,40l1.89-1.1c0,.06.07.12.11.17l-1.9,1.1L4.76,40"/><path class="cls-32" d="M4.86,40.13,6.76,39l.09.13L5,40.26l-.09-.13"/><path class="cls-31" d="M5,40.26l1.9-1.1.06.08L5,40.34,5,40.26"/><path class="cls-30" d="M5,40.34l1.89-1.1.06.07-1.9,1.1A.18.18,0,0,1,5,40.34"/><path class="cls-29" d="M5.07,40.41,7,39.31l0,.06L5.13,40.48l-.06-.07"/><path class="cls-28" d="M5.13,40.48,7,39.37l.06.07-1.9,1.1,0-.06"/><path class="cls-27" d="M5.18,40.54l1.9-1.1.06.06-1.9,1.1-.06-.06"/><path class="cls-26" d="M5.24,40.6l1.9-1.1.06.06-1.9,1.1-.06-.06"/><path class="cls-25" d="M5.3,40.66l1.9-1.1.06,0-1.9,1.11-.06-.06"/><path class="cls-24" d="M5.36,40.72l1.9-1.11.06.06-1.89,1.1-.07-.05"/><path class="cls-23" d="M5.43,40.77l1.89-1.1.06,0-1.89,1.1-.06,0"/><path class="cls-22" d="M5.49,40.82l1.89-1.1.07.05-1.9,1.1-.06,0"/><path class="cls-21" d="M5.55,40.87l1.9-1.1.06,0-1.9,1.1-.06,0"/><path class="cls-20" d="M5.61,40.91l1.9-1.1.06,0L5.67,41l-.06,0"/><path class="cls-19" d="M5.67,41l1.9-1.1.06,0L5.74,41l-.07,0"/><path class="cls-18" d="M5.74,41l1.89-1.1h0L5.75,41h0"/></g></g></g><g class="cls-2"><g class="cls-53"><g class="cls-2"><path class="cls-35" d="M4.74,37.61l1.9-1.1.11,0-1.89,1.1-.12,0"/><path class="cls-36" d="M4.86,37.56l1.89-1.1a.38.38,0,0,1,.1,0L5,37.53l-.1,0"/><path class="cls-37" d="M5,37.53l1.89-1.1h.08L5,37.52H5"/><path class="cls-38" d="M5,37.52l1.89-1.1H7l-1.9,1.1H5"/><path class="cls-39" d="M5.11,37.51,7,36.41h.07l-1.9,1.1H5.11"/><path class="cls-40" d="M5.18,37.52l1.9-1.1h.06l-1.9,1.1H5.18"/><path class="cls-41" d="M5.24,37.52l1.9-1.1H7.2l-1.89,1.1H5.24"/><path class="cls-42" d="M5.31,37.53l1.89-1.1.06,0-1.9,1.1-.05,0"/><path class="cls-43" d="M5.36,37.55l1.9-1.1h.06l-1.9,1.1H5.36"/><path class="cls-44" d="M5.42,37.56l1.9-1.1.06,0-1.9,1.1-.06,0"/><path class="cls-45" d="M5.48,37.58l1.9-1.1,0,0L5.54,37.6l-.06,0"/><path class="cls-46" d="M5.54,37.6l1.89-1.1.06,0L5.6,37.63l-.06,0"/><path class="cls-47" d="M5.6,37.63l1.89-1.1.06,0-1.9,1.1-.05,0"/><path class="cls-48" d="M5.65,37.65l1.9-1.1.06,0-1.9,1.11-.06,0"/><path class="cls-49" d="M5.71,37.69l1.9-1.11,0,0-1.89,1.1,0,0"/></g></g></g><g class="cls-2"><g class="cls-54"><g class="cls-2"><path class="cls-4" d="M4.76,32.68l1.89-1.1a.82.82,0,0,0-.25.24l-1.89,1.1a.72.72,0,0,1,.25-.24"/><path class="cls-5" d="M4.51,32.92l1.89-1.1-.05.1L4.45,33l.06-.1"/><path class="cls-6" d="M4.45,33l1.9-1.1,0,.08L4.42,33.1l0-.08"/><path class="cls-7" d="M4.42,33.1,6.31,32a.19.19,0,0,1,0,.07l-1.9,1.11,0-.08"/><path class="cls-8" d="M4.39,33.18l1.9-1.11,0,.08-1.89,1.1s0,0,0-.07"/><path class="cls-9" d="M4.38,33.25l1.89-1.1s0,0,0,.07l-1.9,1.1a.64.64,0,0,1,0-.07"/><path class="cls-10" d="M4.36,33.32l1.9-1.1a.15.15,0,0,0,0,.07l-1.9,1.1s0,0,0-.07"/><path class="cls-11" d="M4.35,33.39l1.9-1.1a.13.13,0,0,0,0,.06l-1.9,1.11a.2.2,0,0,0,0-.07"/><path class="cls-12" d="M4.34,33.46l1.9-1.11v.07l-1.9,1.1v-.06"/><path class="cls-13" d="M4.34,33.52l1.9-1.1a.2.2,0,0,0,0,.07l-1.89,1.1v-.07"/><path class="cls-14" d="M4.34,33.59l1.89-1.1h0v.06l-1.89,1.1V33.6h0"/><path class="cls-15" d="M4.34,33.66l1.89-1.1a.17.17,0,0,1,0,.07l-1.9,1.1v-.07"/><path class="cls-16" d="M4.34,33.73l1.9-1.1v.07L4.35,33.8s0,0,0-.07"/><path class="cls-17" d="M4.35,33.8l1.89-1.1a.17.17,0,0,1,0,.07l-1.89,1.1a.17.17,0,0,1,0-.07"/><path class="cls-18" d="M4.36,33.87l1.89-1.1s0,0,0,.07l-1.89,1.1a.17.17,0,0,1,0-.07"/><path class="cls-19" d="M4.37,33.94l1.89-1.1a.2.2,0,0,1,0,.07L4.38,34a.22.22,0,0,1,0-.08"/><path class="cls-20" d="M4.38,34l1.89-1.11s0,.05,0,.08l-1.9,1.1s0-.05,0-.07"/><path class="cls-21" d="M4.39,34.09,6.29,33a.19.19,0,0,0,0,.07l-1.9,1.11a.24.24,0,0,0,0-.08"/><path class="cls-22" d="M4.41,34.17l1.9-1.11a.24.24,0,0,0,0,.08l-1.9,1.1s0-.05,0-.07"/><path class="cls-23" d="M4.43,34.24l1.9-1.1a.24.24,0,0,0,0,.08l-1.9,1.1a.24.24,0,0,0,0-.08"/><path class="cls-24" d="M4.45,34.32l1.9-1.1s0,.05,0,.07l-1.89,1.1,0-.07"/><path class="cls-25" d="M4.48,34.39l1.89-1.1,0,.07-1.9,1.1a.64.64,0,0,1,0-.07"/><path class="cls-26" d="M4.5,34.46l1.9-1.1a.25.25,0,0,1,0,.07L4.53,34.54l0-.08"/><path class="cls-27" d="M4.53,34.54l1.89-1.11,0,.07L4.56,34.6l0-.06"/><path class="cls-28" d="M4.56,34.6l1.89-1.1,0,.07-1.89,1.1,0-.07"/><path class="cls-29" d="M4.59,34.67l1.89-1.1,0,.07-1.89,1.1,0-.07"/><path class="cls-30" d="M4.62,34.74l1.89-1.1a.3.3,0,0,1,0,.08l-1.89,1.1a.3.3,0,0,1,0-.08"/><path class="cls-31" d="M4.66,34.82l1.89-1.1a.59.59,0,0,0,0,.08L4.7,34.91a.36.36,0,0,1,0-.09"/><path class="cls-32" d="M4.7,34.91,6.59,33.8l.08.13L4.77,35l-.07-.12"/><path class="cls-33" d="M4.77,35l1.9-1.1.1.17L4.88,35.2c0-.05-.07-.11-.11-.17"/><path class="cls-32" d="M4.88,35.2l1.89-1.1.09.13L5,35.33l-.09-.13"/><path class="cls-31" d="M5,35.33l1.89-1.1.07.08L5,35.41,5,35.33"/><path class="cls-30" d="M5,35.41l1.9-1.1.05.07-1.89,1.1L5,35.41"/><path class="cls-29" d="M5.09,35.48,7,34.38l.06.06-1.9,1.1,0-.06"/><path class="cls-28" d="M5.14,35.54,7,34.44l0,.07L5.2,35.61l-.06-.07"/><path class="cls-27" d="M5.2,35.61l1.89-1.1.06.06-1.9,1.1,0-.06"/><path class="cls-26" d="M5.25,35.67l1.9-1.1.06.06-1.9,1.1-.06-.06"/><path class="cls-25" d="M5.31,35.73l1.9-1.1.06,0L5.38,35.79l-.07-.06"/><path class="cls-24" d="M5.38,35.79l1.89-1.11.07.06-1.9,1.1-.06-.05"/><path class="cls-23" d="M5.44,35.84l1.9-1.1.06,0-1.9,1.1-.06,0"/><path class="cls-22" d="M5.5,35.89l1.9-1.1.06.05-1.89,1.1-.07,0"/><path class="cls-21" d="M5.57,35.94l1.89-1.1.06,0L5.63,36l-.06,0"/><path class="cls-20" d="M5.63,36l1.89-1.1.06,0L5.69,36l-.06,0"/><path class="cls-19" d="M5.69,36l1.89-1.1.06,0-1.89,1.1-.06,0"/><path class="cls-18" d="M5.75,36.06,7.64,35h0l-1.9,1.1h0"/></g></g></g><g class="cls-2"><g class="cls-55"><g class="cls-2"><path class="cls-35" d="M4.76,32.68l1.89-1.1.12,0-1.9,1.1-.11,0"/><path class="cls-36" d="M4.87,32.63l1.9-1.1a.17.17,0,0,1,.1,0L5,32.6l-.1,0"/><path class="cls-37" d="M5,32.6l1.9-1.1H7l-1.9,1.1H5"/><path class="cls-38" d="M5.05,32.59,7,31.49H7l-1.89,1.1H5.05"/><path class="cls-39" d="M5.13,32.58,7,31.48h.07l-1.9,1.11H5.13"/><path class="cls-40" d="M5.19,32.59l1.9-1.11h.06l-1.89,1.1H5.19"/><path class="cls-41" d="M5.26,32.59l1.89-1.1h.07l-1.9,1.1H5.26"/><path class="cls-42" d="M5.32,32.6l1.9-1.1h0L5.38,32.62l-.06,0"/><path class="cls-43" d="M5.38,32.62l1.89-1.11.06,0-1.89,1.1H5.38"/><path class="cls-44" d="M5.44,32.63l1.89-1.1.06,0L5.5,32.65l-.06,0"/><path class="cls-45" d="M5.5,32.65l1.89-1.1.06,0-1.9,1.1,0,0"/><path class="cls-46" d="M5.55,32.67l1.9-1.1.06,0-1.9,1.1-.06,0"/><path class="cls-47" d="M5.61,32.7l1.9-1.1,0,0-1.89,1.1-.06,0"/><path class="cls-48" d="M5.67,32.72l1.89-1.1.06,0-1.89,1.1-.06,0"/><path class="cls-49" d="M5.73,32.75l1.89-1.1,0,0-1.9,1.1,0,0"/></g></g></g><g class="cls-2"><g class="cls-56"><g class="cls-2"><path class="cls-4" d="M4.77,27.75l1.89-1.1a.69.69,0,0,0-.24.24L4.52,28a.82.82,0,0,1,.25-.24"/><path class="cls-5" d="M4.52,28l1.9-1.1-.06.1-1.89,1.1a.31.31,0,0,1,0-.1"/><path class="cls-6" d="M4.47,28.09,6.36,27l0,.08-1.9,1.1,0-.08"/><path class="cls-7" d="M4.43,28.17l1.9-1.1,0,.07-1.89,1.1s0,0,0-.07"/><path class="cls-8" d="M4.41,28.24l1.89-1.1a.24.24,0,0,1,0,.08l-1.89,1.1s0-.05,0-.08"/><path class="cls-9" d="M4.39,28.32l1.89-1.1s0,0,0,.07l-1.89,1.1a.15.15,0,0,1,0-.07"/><path class="cls-10" d="M4.38,28.39l1.89-1.1s0,0,0,.07l-1.89,1.1a.15.15,0,0,1,0-.07"/><path class="cls-11" d="M4.37,28.46l1.89-1.1a.13.13,0,0,1,0,.06L4.36,28.53a.15.15,0,0,1,0-.07"/><path class="cls-12" d="M4.36,28.53l1.89-1.11v.07l-1.9,1.1a.13.13,0,0,0,0-.06"/><path class="cls-13" d="M4.35,28.59l1.9-1.1v.07l-1.9,1.1v-.07"/><path class="cls-14" d="M4.35,28.66l1.9-1.1h0v.07l-1.9,1.1v-.06h0"/><path class="cls-15" d="M4.35,28.73l1.9-1.1v.07L4.36,28.8s0-.05,0-.07"/><path class="cls-16" d="M4.36,28.8l1.89-1.1a.17.17,0,0,0,0,.07l-1.9,1.1V28.8"/><path class="cls-17" d="M4.36,28.87l1.9-1.1v.07l-1.89,1.1s0-.05,0-.07"/><path class="cls-18" d="M4.37,28.94l1.89-1.1s0,.05,0,.07L4.38,29s0-.05,0-.07"/><path class="cls-19" d="M4.38,29l1.9-1.1a.17.17,0,0,0,0,.07l-1.9,1.1s0,0,0-.07"/><path class="cls-20" d="M4.39,29.08,6.29,28s0,.05,0,.08l-1.89,1.1s0-.05,0-.08"/><path class="cls-21" d="M4.41,29.16l1.89-1.1s0,.05,0,.07l-1.89,1.1a.19.19,0,0,1,0-.07"/><path class="cls-22" d="M4.43,29.23l1.89-1.1s0,.05,0,.08l-1.89,1.1a.19.19,0,0,1,0-.08"/><path class="cls-23" d="M4.45,29.31l1.89-1.1s0,.05,0,.08l-1.89,1.1a.24.24,0,0,1,0-.08"/><path class="cls-24" d="M4.47,29.39l1.89-1.1,0,.07-1.9,1.1s0-.05,0-.07"/><path class="cls-25" d="M4.49,29.46l1.9-1.1a.19.19,0,0,0,0,.07l-1.89,1.1,0-.07"/><path class="cls-26" d="M4.52,29.53l1.89-1.1,0,.07-1.9,1.1a.64.64,0,0,1,0-.07"/><path class="cls-27" d="M4.54,29.6l1.9-1.1,0,.07-1.9,1.1,0-.07"/><path class="cls-28" d="M4.57,29.67l1.9-1.1,0,.07-1.9,1.1,0-.07"/><path class="cls-29" d="M4.6,29.74l1.9-1.1,0,.07-1.9,1.1,0-.07"/><path class="cls-30" d="M4.63,29.81l1.9-1.1,0,.08-1.89,1.1s0-.05,0-.08"/><path class="cls-31" d="M4.67,29.89l1.89-1.1.05.08L4.71,30a.59.59,0,0,1,0-.08"/><path class="cls-32" d="M4.71,30l1.9-1.1c0,.05,0,.09.07.13L4.79,30.1,4.71,30"/><path class="cls-33" d="M4.79,30.1,6.68,29a1.63,1.63,0,0,0,.11.17l-1.9,1.1a1,1,0,0,1-.1-.17"/><path class="cls-32" d="M4.89,30.27l1.9-1.1.09.13L5,30.4l-.09-.13"/><path class="cls-31" d="M5,30.4l1.9-1.1.06.08L5,30.48,5,30.4"/><path class="cls-30" d="M5,30.48l1.9-1.1,0,.07L5.1,30.55,5,30.48"/><path class="cls-29" d="M5.1,30.55,7,29.45l.06.06-1.89,1.1-.06-.06"/><path class="cls-28" d="M5.16,30.61l1.89-1.1.06.06-1.9,1.11,0-.07"/><path class="cls-27" d="M5.21,30.68l1.9-1.11a.18.18,0,0,0,0,.07l-1.89,1.1-.06-.06"/><path class="cls-26" d="M5.27,30.74l1.89-1.1.06.06L5.33,30.8l-.06-.06"/><path class="cls-25" d="M5.33,30.8l1.89-1.1.07.05-1.9,1.1-.06-.05"/><path class="cls-24" d="M5.39,30.85l1.9-1.1.06.06-1.9,1.1-.06-.06"/><path class="cls-23" d="M5.45,30.91l1.9-1.1.06.05L5.52,31l-.07-.05"/><path class="cls-22" d="M5.52,31l1.89-1.1.07.05L5.58,31,5.52,31"/><path class="cls-21" d="M5.58,31l1.9-1.1.06,0-1.9,1.1-.06,0"/><path class="cls-20" d="M5.64,31.05,7.54,30l.06,0-1.9,1.1-.06,0"/><path class="cls-19" d="M5.7,31.09,7.6,30l.06,0-1.9,1.1-.06,0"/><path class="cls-18" d="M5.76,31.13,7.66,30h0l-1.89,1.1h0"/></g></g></g><g class="cls-2"><g class="cls-57"><g class="cls-2"><path class="cls-35" d="M4.77,27.75l1.89-1.1.12-.06L4.88,27.7l-.11.05"/><path class="cls-36" d="M4.88,27.7l1.9-1.11.1,0L5,27.67l-.1,0"/><path class="cls-37" d="M5,27.67l1.9-1.1H7l-1.89,1.1H5"/><path class="cls-38" d="M5.07,27.66,7,26.56H7l-1.9,1.1H5.07"/><path class="cls-39" d="M5.14,27.65,7,26.55H7.1L5.21,27.66H5.14"/><path class="cls-40" d="M5.21,27.66,7.1,26.55h.07l-1.9,1.1H5.21"/><path class="cls-41" d="M5.27,27.66l1.9-1.1h.06l-1.9,1.1H5.27"/><path class="cls-42" d="M5.33,27.67l1.9-1.1h.06l-1.9,1.1H5.33"/><path class="cls-43" d="M5.39,27.68l1.9-1.1.06,0-1.9,1.1-.06,0"/><path class="cls-44" d="M5.45,27.7l1.9-1.1.05,0-1.89,1.1-.06,0"/><path class="cls-45" d="M5.51,27.72l1.89-1.1.06,0-1.89,1.1-.06,0"/><path class="cls-46" d="M5.57,27.74l1.89-1.1.06,0-1.9,1.11,0,0"/><path class="cls-47" d="M5.62,27.77l1.9-1.11.06,0-1.9,1.1-.06,0"/><path class="cls-48" d="M5.68,27.79l1.9-1.1.06,0-1.9,1.1-.06,0"/><path class="cls-49" d="M5.74,27.82l1.9-1.1,0,0-1.89,1.1,0,0"/></g></g></g><g class="cls-2"><g class="cls-58"><g class="cls-2"><path class="cls-4" d="M4.78,22.82l1.9-1.1a.71.71,0,0,0-.25.24l-1.89,1.1a.78.78,0,0,1,.24-.24"/><path class="cls-5" d="M4.54,23.06,6.43,22a.31.31,0,0,0,0,.1l-1.9,1.1.06-.1"/><path class="cls-6" d="M4.48,23.16l1.9-1.1a.2.2,0,0,0,0,.08l-1.89,1.1,0-.08"/><path class="cls-7" d="M4.45,23.24l1.89-1.1s0,.05,0,.07l-1.9,1.1,0-.07"/><path class="cls-8" d="M4.42,23.31l1.9-1.1a.24.24,0,0,0,0,.08l-1.9,1.1a.24.24,0,0,0,0-.08"/><path class="cls-9" d="M4.4,23.39l1.9-1.1a.64.64,0,0,0,0,.07l-1.89,1.1s0-.05,0-.07"/><path class="cls-10" d="M4.39,23.46l1.89-1.1a.13.13,0,0,1,0,.06L4.38,23.53s0-.05,0-.07"/><path class="cls-11" d="M4.38,23.53l1.89-1.11v.07l-1.9,1.1s0,0,0-.06"/><path class="cls-12" d="M4.37,23.59l1.9-1.1s0,.05,0,.07l-1.89,1.1v-.07"/><path class="cls-13" d="M4.37,23.66l1.89-1.1v.07l-1.89,1.1v-.07"/><path class="cls-14" d="M4.37,23.73l1.89-1.1h0v.07L4.37,23.8v-.06h0"/><path class="cls-15" d="M4.37,23.8l1.89-1.1a.2.2,0,0,0,0,.07l-1.9,1.1V23.8"/><path class="cls-16" d="M4.37,23.87l1.9-1.1v.07l-1.89,1.1a.17.17,0,0,1,0-.07"/><path class="cls-17" d="M4.38,23.94l1.89-1.1s0,0,0,.07L4.38,24v-.07"/><path class="cls-18" d="M4.38,24l1.9-1.1s0,.05,0,.07l-1.9,1.1a.17.17,0,0,0,0-.07"/><path class="cls-19" d="M4.39,24.08,6.29,23s0,.05,0,.07l-1.89,1.1a.64.64,0,0,1,0-.07"/><path class="cls-20" d="M4.41,24.15l1.89-1.1s0,.05,0,.08l-1.9,1.1s0-.05,0-.08"/><path class="cls-21" d="M4.42,24.23l1.9-1.1s0,.05,0,.07L4.44,24.3s0-.05,0-.07"/><path class="cls-22" d="M4.44,24.3l1.89-1.1a.24.24,0,0,1,0,.08l-1.89,1.1s0-.05,0-.08"/><path class="cls-23" d="M4.46,24.38l1.89-1.1,0,.07-1.9,1.11s0-.05,0-.08"/><path class="cls-24" d="M4.48,24.46l1.9-1.11a.24.24,0,0,0,0,.08l-1.89,1.1,0-.07"/><path class="cls-25" d="M4.51,24.53l1.89-1.1,0,.07-1.9,1.1a.19.19,0,0,1,0-.07"/><path class="cls-26" d="M4.53,24.6l1.9-1.1a.14.14,0,0,0,0,.07l-1.89,1.1,0-.07"/><path class="cls-27" d="M4.56,24.67l1.89-1.1,0,.07-1.89,1.1,0-.07"/><path class="cls-28" d="M4.59,24.74l1.89-1.1,0,.07-1.89,1.1,0-.07"/><path class="cls-29" d="M4.62,24.81l1.89-1.1,0,.07-1.89,1.1,0-.07"/><path class="cls-30" d="M4.65,24.88l1.89-1.1s0,0,0,.08L4.68,25l0-.08"/><path class="cls-31" d="M4.68,25l1.9-1.1a.59.59,0,0,1,0,.08L4.73,25,4.68,25"/><path class="cls-32" d="M4.73,25l1.89-1.1.07.13L4.8,25.17s0-.08-.07-.13"/><path class="cls-33" d="M4.8,25.17l1.89-1.1.11.17-1.89,1.1a1.63,1.63,0,0,1-.11-.17"/><path class="cls-32" d="M4.91,25.34l1.89-1.1.09.13L5,25.47a.51.51,0,0,1-.09-.13"/><path class="cls-31" d="M5,25.47l1.89-1.1.06.08-1.89,1.1L5,25.47"/><path class="cls-30" d="M5.06,25.55,7,24.45l.06.07-1.9,1.1-.05-.07"/><path class="cls-29" d="M5.11,25.62,7,24.52l0,.06-1.89,1.1-.06-.06"/><path class="cls-28" d="M5.17,25.68l1.89-1.1.06.06-1.9,1.1,0-.06"/><path class="cls-27" d="M5.22,25.74l1.9-1.1.06.06-1.9,1.11-.06-.07"/><path class="cls-26" d="M5.28,25.81l1.9-1.11a.34.34,0,0,0,.06.06l-1.9,1.11-.06-.06"/><path class="cls-25" d="M5.34,25.87l1.9-1.11.06.06-1.89,1.1-.07-.05"/><path class="cls-24" d="M5.41,25.92l1.89-1.1.06.06L5.47,26l-.06-.06"/><path class="cls-23" d="M5.47,26l1.89-1.1.07.05L5.53,26,5.47,26"/><path class="cls-22" d="M5.53,26l1.9-1.1.06.05-1.9,1.1-.06,0"/><path class="cls-21" d="M5.59,26.08,7.49,25l.06,0-1.89,1.1-.07,0"/><path class="cls-20" d="M5.66,26.12,7.55,25l.06,0-1.89,1.1-.06,0"/><path class="cls-19" d="M5.72,26.16l1.89-1.1.06,0L5.78,26.2l-.06,0"/><path class="cls-18" d="M5.78,26.2l1.89-1.1h0l-1.9,1.1h0"/></g></g></g><g class="cls-2"><g class="cls-59"><g class="cls-2"><path class="cls-35" d="M4.78,22.82l1.9-1.1.11-.06L4.9,22.76l-.12.06"/><path class="cls-36" d="M4.9,22.76l1.89-1.1.1,0L5,22.74l-.1,0"/><path class="cls-37" d="M5,22.74l1.89-1.1.09,0-1.9,1.11H5"/><path class="cls-38" d="M5.08,22.73,7,21.62h.07l-1.89,1.1H5.08"/><path class="cls-39" d="M5.16,22.72l1.89-1.1h.07l-1.9,1.1H5.16"/><path class="cls-40" d="M5.22,22.72l1.9-1.1h.06l-1.89,1.1H5.22"/><path class="cls-41" d="M5.29,22.73l1.89-1.1h.06l-1.89,1.1H5.29"/><path class="cls-42" d="M5.35,22.74l1.89-1.1H7.3l-1.89,1.1H5.35"/><path class="cls-43" d="M5.41,22.75l1.89-1.1.06,0-1.89,1.1-.06,0"/><path class="cls-44" d="M5.47,22.77l1.89-1.1.06,0-1.9,1.1,0,0"/><path class="cls-45" d="M5.52,22.79l1.9-1.1.06,0-1.9,1.1-.06,0"/><path class="cls-46" d="M5.58,22.81l1.9-1.1,0,0L5.64,22.84l-.06,0"/><path class="cls-47" d="M5.64,22.84l1.89-1.11.06,0L5.7,22.86l-.06,0"/><path class="cls-48" d="M5.7,22.86l1.89-1.1.06,0-1.9,1.1,0,0"/><path class="cls-49" d="M5.75,22.89l1.9-1.1,0,0-1.9,1.1,0,0"/></g></g></g><polygon class="cls-60" points="5.72 50.86 7.62 49.76 32.41 64.08 30.52 65.18 5.72 50.86"/><polygon class="cls-61" points="5.73 47.57 7.63 46.47 32.42 60.79 30.52 61.89 5.73 47.57"/><g class="cls-2"><g class="cls-62"><g class="cls-2"><path class="cls-49" d="M30.52,61.89l1.9-1.1h0L30.54,61.9h0"/><path class="cls-63" d="M30.54,61.9l1.89-1.11.06,0-1.89,1.1-.06,0"/><path class="cls-64" d="M30.6,61.93l1.89-1.1.06,0L30.66,62l-.06,0"/><path class="cls-61" d="M30.66,62l1.89-1.1.07.05L30.72,62,30.66,62"/><path class="cls-65" d="M30.72,62l1.9-1.1.06,0-1.9,1.1-.06,0"/><path class="cls-66" d="M30.78,62.06l1.9-1.1.06.06-1.89,1.1-.07-.06"/><path class="cls-67" d="M30.85,62.12,32.74,61l.07,0-1.9,1.1-.06-.05"/><path class="cls-68" d="M30.91,62.17l1.9-1.1.06.06L31,62.23l-.06-.06"/><path class="cls-69" d="M31,62.23l1.9-1.1.06.06L31,62.29,31,62.23"/><path class="cls-70" d="M31,62.29l1.9-1.1.06.06-1.9,1.1L31,62.29"/><path class="cls-71" d="M31.09,62.35l1.9-1.1,0,.06-1.89,1.1-.06-.06"/><path class="cls-72" d="M31.15,62.41,33,61.31l.06.07-1.9,1.1-.05-.07"/><path class="cls-73" d="M31.2,62.48l1.9-1.1,0,.06-1.89,1.11-.06-.07"/><path class="cls-74" d="M31.26,62.55l1.89-1.11.07.09-1.9,1.1-.06-.08"/><path class="cls-75" d="M31.32,62.63l1.9-1.1.09.13-1.9,1.1-.09-.13"/><path class="cls-76" d="M31.41,62.76l1.9-1.1.1.17-1.89,1.1a1,1,0,0,0-.11-.17"/><path class="cls-75" d="M31.52,62.93l1.89-1.1a.75.75,0,0,1,.07.12l-1.89,1.1-.07-.12"/><path class="cls-74" d="M31.59,63.05,33.48,62l.05.09-1.9,1.1,0-.09"/><path class="cls-73" d="M31.63,63.14l1.9-1.1,0,.07-1.89,1.1a.25.25,0,0,0,0-.07"/><path class="cls-72" d="M31.67,63.21l1.89-1.1a.25.25,0,0,1,0,.07l-1.9,1.1,0-.07"/><path class="cls-71" d="M31.7,63.28l1.9-1.1,0,.07-1.9,1.1,0-.07"/><path class="cls-70" d="M31.73,63.35l1.9-1.1a.64.64,0,0,1,0,.07l-1.89,1.1,0-.07"/><path class="cls-69" d="M31.76,63.42l1.89-1.1,0,.07-1.9,1.1a.19.19,0,0,0,0-.07"/><path class="cls-68" d="M31.78,63.49l1.9-1.1a.19.19,0,0,1,0,.07l-1.89,1.1,0-.07"/><path class="cls-67" d="M31.81,63.56l1.89-1.1,0,.07-1.9,1.11a.24.24,0,0,0,0-.08"/><path class="cls-66" d="M31.83,63.64l1.9-1.11s0,0,0,.08l-1.89,1.1,0-.07"/><path class="cls-65" d="M31.86,63.71l1.89-1.1s0,0,0,.08l-1.89,1.1a.24.24,0,0,1,0-.08"/><path class="cls-61" d="M31.88,63.79l1.89-1.1s0,.05,0,.07l-1.9,1.1s0,0,0-.07"/><path class="cls-64" d="M31.89,63.86l1.9-1.1s0,.05,0,.08l-1.89,1.1s0,0,0-.08"/><path class="cls-63" d="M31.91,63.94l1.89-1.1a.64.64,0,0,1,0,.07L31.92,64s0-.05,0-.07"/><path class="cls-49" d="M31.92,64l1.9-1.1a.17.17,0,0,0,0,.07l-1.9,1.1s0,0,0-.07"/><path class="cls-48" d="M31.93,64.08l1.9-1.1v.07l-1.89,1.1s0-.05,0-.07"/><path class="cls-47" d="M31.94,64.15l1.89-1.1a.17.17,0,0,1,0,.07l-1.9,1.1v-.07"/><path class="cls-46" d="M31.94,64.22l1.9-1.1v.07L32,64.29a.17.17,0,0,0,0-.07"/><path class="cls-45" d="M32,64.29l1.89-1.1v.06h0L32,64.36h0v-.06"/><path class="cls-44" d="M32,64.36l1.89-1.1v.07L32,64.43v-.07"/><path class="cls-43" d="M32,64.43l1.89-1.1v.06l-1.9,1.1s0,0,0-.06"/><path class="cls-42" d="M31.94,64.49l1.9-1.1s0,0,0,.07l-1.89,1.1v-.07"/><path class="cls-41" d="M31.94,64.56l1.89-1.1s0,0,0,.07l-1.89,1.1a.2.2,0,0,1,0-.07"/><path class="cls-40" d="M31.93,64.63l1.89-1.1s0,0,0,.07l-1.9,1.1a.64.64,0,0,0,0-.07"/><path class="cls-39" d="M31.91,64.7l1.9-1.1a.25.25,0,0,0,0,.07l-1.9,1.11a.24.24,0,0,0,0-.08"/><path class="cls-38" d="M31.89,64.78l1.9-1.11,0,.08-1.89,1.1s0,0,0-.07"/><path class="cls-37" d="M31.87,64.85l1.89-1.1,0,.08-1.9,1.1a.2.2,0,0,0,0-.08"/><path class="cls-36" d="M31.83,64.93l1.9-1.1-.06.1L31.78,65a.31.31,0,0,0,0-.1"/><path class="cls-35" d="M31.78,65l1.89-1.1a.64.64,0,0,1-.25.24l-1.89,1.1a.64.64,0,0,0,.25-.24"/></g></g></g><polygon class="cls-60" points="5.74 45.93 7.63 44.83 32.42 59.14 30.53 60.24 5.74 45.93"/><polygon class="cls-61" points="5.74 42.64 7.64 41.54 32.43 55.85 30.54 56.96 5.74 42.64"/><g class="cls-2"><g class="cls-77"><g class="cls-2"><path class="cls-49" d="M30.54,57l1.89-1.1h0L30.55,57h0"/><path class="cls-63" d="M30.55,57l1.9-1.1.06,0L30.61,57l-.06,0"/><path class="cls-64" d="M30.61,57l1.9-1.1.06,0L30.67,57l-.06,0"/><path class="cls-61" d="M30.67,57l1.9-1.1.06,0-1.89,1.11L30.67,57"/><path class="cls-65" d="M30.74,57.09,32.63,56l.06.05-1.89,1.1-.06,0"/><path class="cls-66" d="M30.8,57.13,32.69,56l.07,0-1.9,1.11-.06-.06"/><path class="cls-67" d="M30.86,57.19l1.9-1.11.06.06-1.89,1.1-.07-.05"/><path class="cls-68" d="M30.93,57.24l1.89-1.1.06.06L31,57.3l-.06-.06"/><path class="cls-69" d="M31,57.3l1.89-1.1.06.06-1.89,1.1L31,57.3"/><path class="cls-70" d="M31.05,57.36l1.89-1.1.06.06-1.89,1.1-.06-.06"/><path class="cls-71" d="M31.11,57.42,33,56.32l.06.06-1.9,1.1-.05-.06"/><path class="cls-72" d="M31.16,57.48l1.9-1.1,0,.07-1.89,1.1-.06-.07"/><path class="cls-73" d="M31.22,57.55l1.89-1.1.06.06-1.9,1.1-.05-.06"/><path class="cls-74" d="M31.27,57.61l1.9-1.1.06.09-1.89,1.1-.07-.09"/><path class="cls-75" d="M31.34,57.7l1.89-1.1.09.13-1.89,1.1-.09-.13"/><path class="cls-76" d="M31.43,57.83l1.89-1.1.11.16L31.53,58l-.1-.17"/><path class="cls-75" d="M31.53,58l1.9-1.11s0,.09.07.13l-1.9,1.1a.75.75,0,0,0-.07-.12"/><path class="cls-74" d="M31.6,58.12,33.5,57l0,.09-1.89,1.1,0-.09"/><path class="cls-73" d="M31.65,58.21l1.89-1.1,0,.07-1.9,1.1,0-.07"/><path class="cls-72" d="M31.68,58.28l1.9-1.1,0,.07-1.89,1.1,0-.07"/><path class="cls-71" d="M31.72,58.35l1.89-1.1,0,.07-1.9,1.1a.19.19,0,0,0,0-.07"/><path class="cls-70" d="M31.74,58.42l1.9-1.1,0,.07-1.9,1.1,0-.07"/><path class="cls-69" d="M31.77,58.49l1.9-1.1a.14.14,0,0,1,0,.07l-1.89,1.1,0-.07"/><path class="cls-68" d="M31.8,58.56l1.89-1.1,0,.07-1.9,1.1a.19.19,0,0,0,0-.07"/><path class="cls-67" d="M31.82,58.63l1.9-1.1a.19.19,0,0,1,0,.07l-1.89,1.1,0-.07"/><path class="cls-66" d="M31.85,58.7l1.89-1.1a.24.24,0,0,1,0,.08l-1.89,1.1s0-.05,0-.08"/><path class="cls-65" d="M31.87,58.78l1.89-1.1a.19.19,0,0,1,0,.08l-1.89,1.1s0,0,0-.08"/><path class="cls-61" d="M31.89,58.86l1.89-1.1a.19.19,0,0,1,0,.07l-1.89,1.1s0,0,0-.07"/><path class="cls-64" d="M31.91,58.93l1.89-1.1s0,.05,0,.07L31.92,59s0,0,0-.08"/><path class="cls-63" d="M31.92,59l1.9-1.11s0,.05,0,.08l-1.9,1.1a.15.15,0,0,0,0-.07"/><path class="cls-49" d="M31.93,59.08l1.9-1.1s0,0,0,.07L32,59.15s0,0,0-.07"/><path class="cls-48" d="M32,59.15l1.89-1.1s0,.05,0,.07L32,59.22v-.07"/><path class="cls-47" d="M32,59.22l1.9-1.1v.07L32,59.29a.17.17,0,0,0,0-.07"/><path class="cls-46" d="M32,59.29l1.89-1.1s0,0,0,.07L32,59.36v-.07"/><path class="cls-45" d="M32,59.36l1.9-1.1v.06h0L32,59.43h0v-.06"/><path class="cls-44" d="M32,59.43l1.9-1.1v.07L32,59.5v-.07"/><path class="cls-43" d="M32,59.5l1.9-1.1a.13.13,0,0,0,0,.06L32,59.56V59.5"/><path class="cls-42" d="M32,59.56l1.89-1.1a.15.15,0,0,1,0,.07L32,59.63a.2.2,0,0,1,0-.07"/><path class="cls-41" d="M32,59.63l1.89-1.1a.15.15,0,0,1,0,.07l-1.89,1.1s0,0,0-.07"/><path class="cls-40" d="M31.94,59.7l1.89-1.1a.17.17,0,0,1,0,.07l-1.89,1.1s0,0,0-.07"/><path class="cls-39" d="M31.93,59.77l1.89-1.1a.64.64,0,0,1,0,.07l-1.89,1.11a.24.24,0,0,1,0-.08"/><path class="cls-38" d="M31.91,59.85l1.89-1.11a.31.31,0,0,0,0,.08l-1.9,1.1,0-.07"/><path class="cls-37" d="M31.88,59.92l1.9-1.1a.59.59,0,0,1,0,.08L31.85,60l0-.08"/><path class="cls-36" d="M31.85,60l1.89-1.1a.93.93,0,0,1-.05.1l-1.9,1.1.06-.1"/><path class="cls-35" d="M31.79,60.1l1.9-1.1a.71.71,0,0,1-.25.24l-1.9,1.1a.64.64,0,0,0,.25-.24"/></g></g></g><path class="cls-78" d="M30.54,57A3.1,3.1,0,0,1,32,59.42c0,.91-.64,1.28-1.43.83L5.74,45.93a3.16,3.16,0,0,1-1.43-2.47c0-.91.64-1.27,1.43-.82Z"/><polygon class="cls-60" points="5.75 41 7.64 39.9 32.44 54.21 30.54 55.31 5.75 41"/><polygon class="cls-79" points="4.41 8.94 6.3 7.84 6.27 19.35 4.38 20.45 4.41 8.94"/><polygon class="cls-61" points="5.8 22.92 7.7 21.82 32.49 36.13 30.59 37.23 5.8 22.92"/><polygon class="cls-60" points="4.38 20.45 6.27 19.35 17.23 25.68 15.34 26.78 4.38 20.45"/><polygon class="cls-61" points="5.76 37.71 7.65 36.61 32.45 50.92 30.55 52.02 5.76 37.71"/><g class="cls-2"><g class="cls-80"><g class="cls-2"><path class="cls-49" d="M30.55,52l1.9-1.11h0L30.57,52h0"/><path class="cls-63" d="M30.57,52l1.89-1.1.06,0-1.89,1.1-.06,0"/><path class="cls-64" d="M30.63,52.07,32.52,51l.06,0-1.89,1.1-.06,0"/><path class="cls-61" d="M30.69,52.11,32.58,51l.06,0-1.89,1.11-.06,0"/><path class="cls-65" d="M30.75,52.16l1.89-1.11.07.05-1.9,1.1-.06,0"/><path class="cls-66" d="M30.81,52.2l1.9-1.1.06,0-1.89,1.1-.07,0"/><path class="cls-67" d="M30.88,52.25l1.89-1.1.06.06-1.89,1.1-.06-.06"/><path class="cls-68" d="M30.94,52.31l1.89-1.1.07.06L31,52.37l-.06-.06"/><path class="cls-69" d="M31,52.37l1.9-1.1.06.06-1.9,1.1L31,52.37"/><path class="cls-70" d="M31.06,52.43l1.9-1.1.06.06-1.9,1.1-.06-.06"/><path class="cls-71" d="M31.12,52.49l1.9-1.1,0,.06-1.89,1.1-.06-.06"/><path class="cls-72" d="M31.18,52.55l1.89-1.1.06.06-1.9,1.11-.05-.07"/><path class="cls-73" d="M31.23,52.62l1.9-1.11,0,.07-1.89,1.1-.06-.06"/><path class="cls-74" d="M31.29,52.68l1.89-1.1.07.09-1.9,1.1-.06-.09"/><path class="cls-75" d="M31.35,52.77l1.9-1.1.09.12-1.9,1.11-.09-.13"/><path class="cls-76" d="M31.44,52.9l1.9-1.11.1.17-1.89,1.1-.11-.16"/><path class="cls-75" d="M31.55,53.06,33.44,52a.83.83,0,0,1,.07.13l-1.89,1.1a.54.54,0,0,1-.07-.13"/><path class="cls-74" d="M31.62,53.19l1.89-1.1a.56.56,0,0,0,.05.08l-1.9,1.11,0-.09"/><path class="cls-73" d="M31.66,53.28l1.9-1.11,0,.08-1.89,1.1,0-.07"/><path class="cls-72" d="M31.7,53.35l1.89-1.1,0,.07-1.89,1.1,0-.07"/><path class="cls-71" d="M31.73,53.42l1.89-1.1,0,.07-1.89,1.1,0-.07"/><path class="cls-70" d="M31.76,53.49l1.89-1.1,0,.07-1.89,1.1,0-.07"/><path class="cls-69" d="M31.79,53.56l1.89-1.1,0,.07-1.9,1.1a.64.64,0,0,0,0-.07"/><path class="cls-68" d="M31.81,53.63l1.9-1.1a.64.64,0,0,1,0,.07l-1.89,1.1,0-.07"/><path class="cls-67" d="M31.84,53.7l1.89-1.1,0,.07-1.9,1.1s0-.05,0-.07"/><path class="cls-66" d="M31.86,53.77l1.9-1.1a.24.24,0,0,0,0,.08l-1.9,1.1a.24.24,0,0,0,0-.08"/><path class="cls-65" d="M31.88,53.85l1.9-1.1s0,0,0,.07l-1.9,1.11a.19.19,0,0,0,0-.08"/><path class="cls-61" d="M31.9,53.93l1.9-1.11a.24.24,0,0,0,0,.08L31.92,54a.19.19,0,0,0,0-.07"/><path class="cls-64" d="M31.92,54l1.9-1.1s0,.05,0,.07l-1.89,1.1a.64.64,0,0,1,0-.07"/><path class="cls-63" d="M31.94,54.07,33.83,53a.22.22,0,0,1,0,.08L32,54.15s0,0,0-.08"/><path class="cls-49" d="M32,54.15l1.89-1.1a.15.15,0,0,1,0,.07L32,54.22s0,0,0-.07"/><path class="cls-48" d="M32,54.22l1.89-1.1a.15.15,0,0,1,0,.07L32,54.29a.17.17,0,0,1,0-.07"/><path class="cls-47" d="M32,54.29l1.89-1.1s0,0,0,.07L32,54.36v-.07"/><path class="cls-46" d="M32,54.36l1.9-1.1v.07L32,54.43a.2.2,0,0,1,0-.07"/><path class="cls-45" d="M32,54.43l1.89-1.1v.06h0L32,54.5h0v-.06"/><path class="cls-44" d="M32,54.5l1.89-1.1v.06L32,54.57a.2.2,0,0,0,0-.07"/><path class="cls-43" d="M32,54.57l1.9-1.11v.07L32,54.63v-.06"/><path class="cls-42" d="M32,54.63l1.9-1.1a.2.2,0,0,0,0,.07L32,54.7a.15.15,0,0,0,0-.07"/><path class="cls-41" d="M32,54.7l1.9-1.1s0,0,0,.07L32,54.77a.15.15,0,0,0,0-.07"/><path class="cls-40" d="M32,54.77l1.9-1.1s0,0,0,.07l-1.89,1.1s0-.05,0-.07"/><path class="cls-39" d="M31.94,54.84l1.89-1.1a.19.19,0,0,1,0,.07l-1.89,1.1a.64.64,0,0,0,0-.07"/><path class="cls-38" d="M31.92,54.91l1.89-1.1a.24.24,0,0,1,0,.08L31.9,55a.31.31,0,0,1,0-.08"/><path class="cls-37" d="M31.9,55l1.89-1.1,0,.08-1.9,1.1,0-.08"/><path class="cls-36" d="M31.86,55.07l1.9-1.1-.06.1-1.89,1.1.05-.1"/><path class="cls-35" d="M31.81,55.17l1.89-1.1a.82.82,0,0,1-.25.24l-1.89,1.1a.71.71,0,0,0,.25-.24"/></g></g></g><polygon class="cls-60" points="5.76 36.07 7.66 34.97 32.45 49.28 30.56 50.38 5.76 36.07"/><polygon class="cls-61" points="5.77 32.78 7.67 31.68 32.46 45.99 30.57 47.09 5.77 32.78"/><g class="cls-2"><g class="cls-81"><g class="cls-2"><path class="cls-4" d="M18.15,25.59,20,24.49a.75.75,0,0,0-.25.25l-1.89,1.1a.75.75,0,0,1,.25-.25"/><path class="cls-5" d="M17.9,25.84l1.89-1.1-.05.09-1.89,1.1a.41.41,0,0,1,0-.09"/><path class="cls-6" d="M17.85,25.93l1.89-1.1,0,.08L17.81,26a.36.36,0,0,1,0-.09"/><path class="cls-7" d="M17.81,26l1.9-1.11,0,.08-1.89,1.1a.14.14,0,0,1,0-.07"/><path class="cls-8" d="M17.79,26.09,19.68,25s0,.05,0,.07l-1.89,1.1a.19.19,0,0,1,0-.07"/><path class="cls-9" d="M17.77,26.16l1.89-1.1s0,.05,0,.07l-1.9,1.1a.64.64,0,0,0,0-.07"/><path class="cls-10" d="M17.75,26.23l1.9-1.1a.17.17,0,0,0,0,.07l-1.9,1.1a.15.15,0,0,0,0-.07"/><path class="cls-11" d="M17.74,26.3l1.9-1.1s0,.05,0,.07l-1.89,1.1V26.3"/><path class="cls-12" d="M17.74,26.37l1.89-1.1v.07l-1.9,1.1a.17.17,0,0,1,0-.07"/><path class="cls-13" d="M17.73,26.44l1.9-1.1v.07l-1.9,1.1v-.07"/><path class="cls-14" d="M17.73,26.51l1.9-1.1h0s0,0,0,.07l-1.9,1.1v-.07h0"/><path class="cls-15" d="M17.73,26.58l1.9-1.1v.06l-1.9,1.11v-.07"/><path class="cls-16" d="M17.73,26.65l1.9-1.11v.07l-1.89,1.11a.15.15,0,0,0,0-.07"/><path class="cls-17" d="M17.74,26.72l1.89-1.11a.2.2,0,0,1,0,.07l-1.89,1.11a.2.2,0,0,1,0-.07"/><path class="cls-18" d="M17.75,26.79l1.89-1.11a.22.22,0,0,1,0,.08l-1.89,1.1a.2.2,0,0,1,0-.07"/><path class="cls-19" d="M17.76,26.86l1.89-1.1a.64.64,0,0,1,0,.07l-1.9,1.1s0-.05,0-.07"/><path class="cls-20" d="M17.77,26.93l1.9-1.1s0,.05,0,.07L17.79,27s0-.05,0-.08"/><path class="cls-21" d="M17.79,27l1.89-1.11s0,.05,0,.08l-1.9,1.1s0,0,0-.07"/><path class="cls-22" d="M17.8,27.08,19.7,26a.31.31,0,0,0,0,.08l-1.9,1.1a.24.24,0,0,0,0-.08"/><path class="cls-23" d="M17.82,27.16l1.9-1.1s0,.05,0,.07l-1.89,1.1,0-.07"/><path class="cls-24" d="M17.85,27.23l1.89-1.1a.24.24,0,0,1,0,.08l-1.89,1.1a.24.24,0,0,1,0-.08"/><path class="cls-25" d="M17.87,27.31l1.89-1.1,0,.07-1.9,1.1a.19.19,0,0,0,0-.07"/><path class="cls-26" d="M17.89,27.38l1.9-1.1,0,.07-1.9,1.1,0-.07"/><path class="cls-27" d="M17.92,27.45l1.9-1.1s0,0,0,.07L18,27.52l0-.07"/><path class="cls-28" d="M18,27.52l1.89-1.1,0,.07L18,27.59l0-.07"/><path class="cls-29" d="M18,27.59l1.89-1.1,0,.07L18,27.66l0-.07"/><path class="cls-30" d="M18,27.66l1.9-1.1,0,.07-1.89,1.1a.25.25,0,0,1,0-.07"/><path class="cls-31" d="M18.05,27.73l1.89-1.1,0,.09-1.9,1.1,0-.09"/><path class="cls-32" d="M18.09,27.82l1.9-1.1a.83.83,0,0,0,.07.13L18.16,28l-.07-.13"/><path class="cls-33" d="M18.16,28l1.9-1.1.1.17-1.89,1.1L18.16,28"/><path class="cls-32" d="M18.27,28.12,20.16,27l.09.12-1.89,1.1-.09-.12"/><path class="cls-31" d="M18.36,28.24l1.89-1.1.07.09-1.9,1.1-.06-.09"/><path class="cls-30" d="M18.42,28.33l1.9-1.1.05.06L18.48,28.4l-.06-.07"/><path class="cls-29" d="M18.48,28.4l1.89-1.11.06.07-1.9,1.1-.05-.06"/><path class="cls-28" d="M18.53,28.46l1.9-1.1.05.06-1.89,1.1-.06-.06"/><path class="cls-27" d="M18.59,28.52l1.89-1.1.06.06-1.89,1.1-.06-.06"/><path class="cls-26" d="M18.65,28.58l1.89-1.1.06.06-1.89,1.1-.06-.06"/><path class="cls-25" d="M18.71,28.64l1.89-1.1.06.06-1.89,1.1-.06-.06"/><path class="cls-24" d="M18.77,28.7l1.89-1.1.07,0-1.9,1.11-.06-.06"/><path class="cls-23" d="M18.83,28.76l1.9-1.11.06.06-1.89,1.1-.07,0"/><path class="cls-22" d="M18.9,28.81l1.89-1.1.06,0L19,28.85l-.06,0"/><path class="cls-21" d="M19,28.85l1.89-1.1.06.05L19,28.9l-.06,0"/><path class="cls-20" d="M19,28.9l1.89-1.1.07,0-1.9,1.1-.06,0"/><path class="cls-19" d="M19.08,28.94l1.9-1.1.06,0L19.14,29l-.06,0"/><path class="cls-18" d="M19.14,29,21,27.87h0L19.15,29h0"/></g></g></g><path class="cls-78" d="M30.55,52A3.14,3.14,0,0,1,32,54.49c0,.91-.65,1.28-1.44.82L5.75,41a3.17,3.17,0,0,1-1.43-2.47c0-.91.65-1.28,1.44-.82Z"/><g class="cls-2"><g class="cls-82"><g class="cls-2"><path class="cls-49" d="M30.57,47.09,32.46,46h0l-1.9,1.1h0"/><path class="cls-63" d="M30.58,47.1l1.9-1.1.06,0-1.9,1.1-.06,0"/><path class="cls-64" d="M30.64,47.14l1.9-1.1.06,0-1.9,1.1-.06,0"/><path class="cls-61" d="M30.7,47.18l1.9-1.1.06,0-1.9,1.1-.06,0"/><path class="cls-65" d="M30.76,47.22l1.9-1.1.06.05-1.89,1.1-.07-.05"/><path class="cls-66" d="M30.83,47.27l1.89-1.1.06,0-1.89,1.1-.06,0"/><path class="cls-67" d="M30.89,47.32l1.89-1.1.07.06L31,47.38l-.06-.06"/><path class="cls-68" d="M31,47.38l1.9-1.1.06.06L31,47.44,31,47.38"/><path class="cls-69" d="M31,47.44l1.89-1.1.06.06-1.89,1.1L31,47.44"/><path class="cls-70" d="M31.08,47.5,33,46.4l.06.06-1.89,1.1-.06-.06"/><path class="cls-71" d="M31.14,47.56,33,46.46l.06.06-1.9,1.1-.05-.06"/><path class="cls-72" d="M31.19,47.62l1.9-1.1,0,.06-1.89,1.1-.06-.06"/><path class="cls-73" d="M31.25,47.68l1.89-1.1.06.07-1.9,1.1a.18.18,0,0,1-.05-.07"/><path class="cls-74" d="M31.3,47.75l1.9-1.1.06.09-1.9,1.1-.06-.09"/><path class="cls-75" d="M31.36,47.84l1.9-1.1.09.12L31.45,48a.38.38,0,0,0-.09-.13"/><path class="cls-76" d="M31.45,48l1.9-1.11c0,.06.07.12.11.17l-1.9,1.1L31.45,48"/><path class="cls-75" d="M31.56,48.13l1.9-1.1a.83.83,0,0,0,.07.13l-1.9,1.1-.07-.13"/><path class="cls-74" d="M31.63,48.26l1.9-1.1a.59.59,0,0,0,0,.08l-1.89,1.1a.56.56,0,0,1-.05-.08"/><path class="cls-73" d="M31.68,48.34l1.89-1.1a.3.3,0,0,0,0,.08l-1.9,1.1,0-.08"/><path class="cls-72" d="M31.71,48.42l1.9-1.1,0,.07-1.9,1.1,0-.07"/><path class="cls-71" d="M31.74,48.49l1.9-1.1,0,.07-1.9,1.1,0-.07"/><path class="cls-70" d="M31.77,48.56l1.9-1.1,0,.07-1.9,1.1,0-.07"/><path class="cls-69" d="M31.8,48.63l1.9-1.1a.25.25,0,0,0,0,.07l-1.89,1.1,0-.07"/><path class="cls-68" d="M31.83,48.7l1.89-1.1,0,.07-1.9,1.1s0-.05,0-.07"/><path class="cls-67" d="M31.85,48.77l1.9-1.1s0,0,0,.07l-1.89,1.1,0-.07"/><path class="cls-66" d="M31.88,48.84l1.89-1.1a.24.24,0,0,1,0,.08l-1.89,1.1a.24.24,0,0,1,0-.08"/><path class="cls-65" d="M31.9,48.92l1.89-1.1a.19.19,0,0,1,0,.07L31.92,49a.19.19,0,0,1,0-.07"/><path class="cls-61" d="M31.92,49l1.89-1.1,0,.08-1.89,1.1a.24.24,0,0,1,0-.08"/><path class="cls-64" d="M31.94,49.07,33.83,48s0,.05,0,.07L32,49.14s0,0,0-.07"/><path class="cls-63" d="M32,49.14l1.9-1.1a.22.22,0,0,0,0,.08L32,49.22s0,0,0-.08"/><path class="cls-49" d="M32,49.22l1.9-1.1a.2.2,0,0,0,0,.07L32,49.29a.15.15,0,0,0,0-.07"/><path class="cls-48" d="M32,49.29l1.9-1.1a.2.2,0,0,0,0,.07L32,49.36a.15.15,0,0,0,0-.07"/><path class="cls-47" d="M32,49.36l1.9-1.1v.07L32,49.43a.2.2,0,0,1,0-.07"/><path class="cls-46" d="M32,49.43l1.89-1.1v.07L32,49.5v-.07"/><path class="cls-45" d="M32,49.5l1.89-1.1a.13.13,0,0,1,0,.06h0L32,49.57h0V49.5"/><path class="cls-44" d="M32,49.57l1.9-1.11s0,0,0,.07L32,49.63v-.06"/><path class="cls-43" d="M32,49.63l1.89-1.1v.07L32,49.7a.15.15,0,0,0,0-.07"/><path class="cls-42" d="M32,49.7l1.9-1.1a.17.17,0,0,1,0,.07L32,49.77V49.7"/><path class="cls-41" d="M32,49.77l1.89-1.1a.17.17,0,0,1,0,.07L32,49.84a.17.17,0,0,1,0-.07"/><path class="cls-40" d="M32,49.84l1.89-1.1s0,0,0,.07L32,49.91s0,0,0-.07"/><path class="cls-39" d="M32,49.91l1.9-1.1s0,0,0,.07L31.93,50a.14.14,0,0,0,0-.07"/><path class="cls-38" d="M31.93,50l1.9-1.1,0,.08-1.89,1.1a.24.24,0,0,0,0-.08"/><path class="cls-37" d="M31.91,50.06,33.8,49l0,.08-1.9,1.1,0-.08"/><path class="cls-36" d="M31.87,50.14l1.9-1.1a.47.47,0,0,0-.05.1l-1.9,1.1a.31.31,0,0,0,.05-.1"/><path class="cls-35" d="M31.82,50.24l1.9-1.1a.94.94,0,0,1-.25.24l-1.9,1.1a.82.82,0,0,0,.25-.24"/></g></g></g><path class="cls-78" d="M30.57,47.09A3.15,3.15,0,0,1,32,49.56c0,.91-.64,1.28-1.43.82L5.76,36.07A3.16,3.16,0,0,1,4.34,33.6c0-.91.64-1.28,1.43-.82Z"/><polygon class="cls-60" points="5.78 31.14 7.67 30.04 32.47 44.35 30.57 45.45 5.78 31.14"/><g class="cls-2"><g class="cls-83"><g class="cls-2"><path class="cls-35" d="M18.15,25.59,20,24.49l.12,0-1.9,1.1-.11.05"/><path class="cls-36" d="M18.26,25.54l1.9-1.1.1,0-1.9,1.1-.1,0"/><path class="cls-37" d="M18.36,25.51l1.9-1.1h.08l-1.9,1.1h-.08"/><path class="cls-38" d="M18.44,25.5l1.9-1.1h.07l-1.89,1.1h-.08"/><path class="cls-39" d="M18.52,25.5l1.89-1.1h.07l-1.89,1.1h-.07"/><path class="cls-40" d="M18.59,25.5l1.89-1.1h.06l-1.89,1.1h-.06"/><path class="cls-41" d="M18.65,25.51l1.89-1.1h.07l-1.9,1.1h-.06"/><path class="cls-42" d="M18.71,25.52l1.9-1.1h.06l-1.9,1.1h-.06"/><path class="cls-43" d="M18.77,25.53l1.9-1.1,0,0-1.89,1.1-.06,0"/><path class="cls-44" d="M18.83,25.55l1.89-1.1h.06l-1.89,1.11-.06,0"/><path class="cls-45" d="M18.89,25.57l1.89-1.11.06,0-1.9,1.1-.05,0"/><path class="cls-46" d="M18.94,25.59l1.9-1.1.06,0L19,25.61l-.06,0"/><path class="cls-47" d="M19,25.61l1.9-1.1.05,0-1.89,1.1-.06,0"/><path class="cls-48" d="M19.06,25.64,21,24.54l.06,0-1.89,1.1-.06,0"/><path class="cls-49" d="M19.12,25.67,21,24.57l0,0-1.9,1.1,0,0"/></g></g></g><g class="cls-2"><g class="cls-84"><g class="cls-2"><path class="cls-4" d="M18.16,21.76l1.89-1.1a.62.62,0,0,0-.24.24L17.91,22a.82.82,0,0,1,.25-.24"/><path class="cls-5" d="M17.91,22l1.9-1.1-.06.1-1.89,1.1a.31.31,0,0,1,.05-.1"/><path class="cls-6" d="M17.86,22.1,19.75,21l0,.08-1.9,1.1a.2.2,0,0,1,0-.08"/><path class="cls-7" d="M17.82,22.18l1.9-1.1,0,.07-1.89,1.1a.19.19,0,0,1,0-.07"/><path class="cls-8" d="M17.8,22.25l1.89-1.1a.24.24,0,0,1,0,.08l-1.89,1.1a.24.24,0,0,1,0-.08"/><path class="cls-9" d="M17.78,22.33l1.89-1.1s0,0,0,.07l-1.9,1.1a.64.64,0,0,1,0-.07"/><path class="cls-10" d="M17.76,22.4l1.9-1.1s0,0,0,.06l-1.9,1.11a.2.2,0,0,0,0-.07"/><path class="cls-11" d="M17.75,22.47l1.9-1.11s0,.05,0,.07l-1.89,1.1v-.06"/><path class="cls-12" d="M17.75,22.53l1.89-1.1v.07l-1.9,1.1s0,0,0-.07"/><path class="cls-13" d="M17.74,22.6l1.9-1.1v.07l-1.9,1.1V22.6"/><path class="cls-14" d="M17.74,22.67l1.9-1.1h0v.07l-1.9,1.1v-.06h0"/><path class="cls-15" d="M17.74,22.74l1.9-1.1v.07l-1.89,1.1a.17.17,0,0,1,0-.07"/><path class="cls-16" d="M17.75,22.81l1.89-1.1a.17.17,0,0,0,0,.07l-1.9,1.1v-.07"/><path class="cls-17" d="M17.75,22.88l1.9-1.1v.07L17.76,23s0-.05,0-.07"/><path class="cls-18" d="M17.76,23l1.89-1.1a.17.17,0,0,1,0,.07L17.77,23s0,0,0-.07"/><path class="cls-19" d="M17.77,23l1.89-1.1s0,0,0,.08l-1.9,1.1s0-.05,0-.08"/><path class="cls-20" d="M17.78,23.1l1.9-1.1s0,.05,0,.07l-1.89,1.1s0-.05,0-.07"/><path class="cls-21" d="M17.8,23.17l1.89-1.1s0,.05,0,.08l-1.9,1.1s0-.05,0-.08"/><path class="cls-22" d="M17.81,23.25l1.9-1.1s0,.05,0,.07l-1.9,1.1a.19.19,0,0,0,0-.07"/><path class="cls-23" d="M17.83,23.32l1.9-1.1s0,.05,0,.08l-1.89,1.1,0-.08"/><path class="cls-24" d="M17.86,23.4l1.89-1.1,0,.07-1.9,1.1a.19.19,0,0,1,0-.07"/><path class="cls-25" d="M17.88,23.47l1.9-1.1a.24.24,0,0,0,0,.08l-1.89,1.1,0-.08"/><path class="cls-26" d="M17.91,23.55l1.89-1.1,0,.07-1.9,1.1a.25.25,0,0,1,0-.07"/><path class="cls-27" d="M17.93,23.62l1.9-1.1a.14.14,0,0,1,0,.06L18,23.69l0-.07"/><path class="cls-28" d="M18,23.69l1.89-1.11,0,.07L18,23.75l0-.06"/><path class="cls-29" d="M18,23.75l1.89-1.1a.16.16,0,0,0,0,.07L18,23.82l0-.07"/><path class="cls-30" d="M18,23.82l1.9-1.1,0,.08-1.89,1.1a.3.3,0,0,1,0-.08"/><path class="cls-31" d="M18.06,23.9,20,22.8l.05.08L18.1,24l0-.08"/><path class="cls-32" d="M18.1,24l1.9-1.1a.54.54,0,0,0,.07.13l-1.9,1.1S18.12,24,18.1,24"/><path class="cls-33" d="M18.17,24.11l1.9-1.1.1.17-1.89,1.1-.11-.17"/><path class="cls-32" d="M18.28,24.28l1.89-1.1.09.13-1.89,1.1-.09-.13"/><path class="cls-31" d="M18.37,24.41l1.89-1.1.07.08-1.9,1.1-.06-.08"/><path class="cls-30" d="M18.43,24.49l1.9-1.1.05.07-1.89,1.1-.06-.07"/><path class="cls-29" d="M18.49,24.56l1.89-1.1.06.06-1.9,1.1-.05-.06"/><path class="cls-28" d="M18.54,24.62l1.9-1.1,0,.06-1.89,1.1-.06-.06"/><path class="cls-27" d="M18.6,24.68l1.89-1.1.06.06-1.89,1.1-.06-.06"/><path class="cls-26" d="M18.66,24.74l1.89-1.1.06.06-1.89,1.1s0,0-.06-.06"/><path class="cls-25" d="M18.72,24.8l1.89-1.1.06.06-1.89,1.1-.06-.06"/><path class="cls-24" d="M18.78,24.86l1.89-1.1.07.06-1.9,1.1-.06-.06"/><path class="cls-23" d="M18.84,24.92l1.9-1.1.06.05L18.91,25l-.07,0"/><path class="cls-22" d="M18.91,25l1.89-1.1.06.05L19,25,18.91,25"/><path class="cls-21" d="M19,25l1.89-1.1.06,0L19,25.06,19,25"/><path class="cls-20" d="M19,25.06,20.92,24,21,24l-1.9,1.1-.06,0"/><path class="cls-19" d="M19.09,25.1,21,24l.06,0-1.9,1.1-.06,0"/><path class="cls-18" d="M19.15,25.14l1.9-1.1h0l-1.89,1.1h0"/></g></g></g><polygon class="cls-61" points="5.79 27.85 7.68 26.75 32.48 41.06 30.58 42.16 5.79 27.85"/><g class="cls-2"><g class="cls-85"><g class="cls-2"><path class="cls-35" d="M18.16,21.76l1.89-1.1.12-.06-1.9,1.11-.11.05"/><path class="cls-36" d="M18.27,21.71l1.9-1.11.1,0-1.9,1.1-.1,0"/><path class="cls-37" d="M18.37,21.68l1.9-1.1.08,0-1.89,1.11h-.09"/><path class="cls-38" d="M18.46,21.67l1.89-1.11h.07l-1.89,1.1h-.07"/><path class="cls-39" d="M18.53,21.66l1.89-1.1h.07l-1.89,1.1h-.07"/><path class="cls-40" d="M18.6,21.66l1.89-1.1h.06l-1.89,1.1H18.6"/><path class="cls-41" d="M18.66,21.67l1.89-1.1h.07l-1.9,1.1h-.06"/><path class="cls-42" d="M18.72,21.68l1.9-1.1h.06l-1.9,1.1h-.06"/><path class="cls-43" d="M18.78,21.69l1.9-1.1.06,0-1.9,1.1-.06,0"/><path class="cls-44" d="M18.84,21.71l1.9-1.1.05,0-1.89,1.1-.06,0"/><path class="cls-45" d="M18.9,21.73l1.89-1.1.06,0L19,21.75l-.06,0"/><path class="cls-46" d="M19,21.75l1.89-1.1.06,0L19,21.78l-.05,0"/><path class="cls-47" d="M19,21.78l1.9-1.11.06,0-1.9,1.1-.06,0"/><path class="cls-48" d="M19.07,21.8,21,20.7l.05,0-1.89,1.1-.06,0"/><path class="cls-49" d="M19.13,21.83,21,20.73l.05,0-1.9,1.1,0,0"/></g></g></g><polygon class="cls-61" points="4.41 8.94 6.3 7.84 17.27 14.17 15.37 15.27 4.41 8.94"/><polygon class="cls-78" points="15.37 15.27 15.34 26.78 4.38 20.45 4.41 8.94 15.37 15.27"/><polygon class="cls-47" points="15.37 15.27 17.27 14.17 17.23 25.68 15.34 26.78 15.37 15.27"/><g class="cls-2"><g class="cls-86"><g class="cls-2"><path class="cls-49" d="M30.58,42.16l1.89-1.1h0l-1.9,1.1h0"/><path class="cls-63" d="M30.59,42.17l1.9-1.1.06,0-1.9,1.1-.06,0"/><path class="cls-64" d="M30.65,42.21l1.9-1.1.06,0-1.89,1.1-.07,0"/><path class="cls-61" d="M30.72,42.25l1.89-1.1.06,0-1.89,1.1-.06,0"/><path class="cls-65" d="M30.78,42.29l1.89-1.1.07.05-1.9,1.1-.06-.05"/><path class="cls-66" d="M30.84,42.34l1.9-1.1.06,0-1.9,1.1-.06,0"/><path class="cls-67" d="M30.9,42.39l1.9-1.1.06.06L31,42.45l-.07-.06"/><path class="cls-68" d="M31,42.45l1.89-1.1.07.06L31,42.51,31,42.45"/><path class="cls-69" d="M31,42.51l1.9-1.1.06.06-1.9,1.1L31,42.51"/><path class="cls-70" d="M31.09,42.57l1.9-1.1,0,.06-1.89,1.1-.06-.06"/><path class="cls-71" d="M31.15,42.63,33,41.53l.06.06-1.9,1.1-.05-.06"/><path class="cls-72" d="M31.2,42.69l1.9-1.1,0,.06-1.89,1.1-.06-.06"/><path class="cls-73" d="M31.26,42.75l1.89-1.1.06.07-1.89,1.1-.06-.07"/><path class="cls-74" d="M31.32,42.82l1.89-1.1.06.08-1.89,1.11-.06-.09"/><path class="cls-75" d="M31.38,42.91l1.89-1.11.09.13L31.47,43l-.09-.12"/><path class="cls-76" d="M31.47,43l1.89-1.1a1.63,1.63,0,0,1,.11.17l-1.9,1.1-.1-.17"/><path class="cls-75" d="M31.57,43.2l1.9-1.1.07.13-1.89,1.1-.08-.13"/><path class="cls-74" d="M31.65,43.33l1.89-1.1a.3.3,0,0,1,0,.08l-1.89,1.1,0-.08"/><path class="cls-73" d="M31.69,43.41l1.89-1.1a.3.3,0,0,1,0,.08l-1.89,1.1a.3.3,0,0,1,0-.08"/><path class="cls-72" d="M31.73,43.49l1.89-1.1,0,.07-1.89,1.1,0-.07"/><path class="cls-71" d="M31.76,43.56l1.89-1.1,0,.07-1.89,1.1,0-.07"/><path class="cls-70" d="M31.79,43.63l1.89-1.1,0,.06-1.9,1.11a.14.14,0,0,0,0-.07"/><path class="cls-69" d="M31.81,43.7l1.9-1.11,0,.07-1.9,1.11,0-.07"/><path class="cls-68" d="M31.84,43.77l1.9-1.11a.24.24,0,0,0,0,.08l-1.89,1.1,0-.07"/><path class="cls-67" d="M31.87,43.84l1.89-1.1a.19.19,0,0,1,0,.07l-1.89,1.1a.19.19,0,0,1,0-.07"/><path class="cls-66" d="M31.89,43.91l1.89-1.1,0,.08L31.91,44s0-.05,0-.08"/><path class="cls-65" d="M31.91,44l1.9-1.1a.19.19,0,0,0,0,.07l-1.9,1.1a.19.19,0,0,0,0-.07"/><path class="cls-61" d="M31.93,44.06l1.9-1.1s0,0,0,.08L32,44.14s0,0,0-.08"/><path class="cls-64" d="M32,44.14,33.84,43s0,.05,0,.07L32,44.21s0-.05,0-.07"/><path class="cls-63" d="M32,44.21l1.9-1.1s0,0,0,.07L32,44.29s0,0,0-.08"/><path class="cls-49" d="M32,44.29l1.89-1.11a.22.22,0,0,1,0,.08L32,44.36a.2.2,0,0,1,0-.07"/><path class="cls-48" d="M32,44.36l1.89-1.1s0,0,0,.07L32,44.43v-.07"/><path class="cls-47" d="M32,44.43l1.9-1.1a.2.2,0,0,0,0,.07L32,44.5a.15.15,0,0,0,0-.07"/><path class="cls-46" d="M32,44.5l1.9-1.1v.07L32,44.57V44.5"/><path class="cls-45" d="M32,44.57l1.9-1.1v.06h0L32,44.63h0v-.06"/><path class="cls-44" d="M32,44.63l1.9-1.1v.07L32,44.7v-.07"/><path class="cls-43" d="M32,44.7l1.9-1.1a.15.15,0,0,1,0,.07L32,44.77V44.7"/><path class="cls-42" d="M32,44.77l1.89-1.1v.07L32,44.84s0,0,0-.07"/><path class="cls-41" d="M32,44.84l1.9-1.1a.17.17,0,0,0,0,.07L32,44.91a.17.17,0,0,0,0-.07"/><path class="cls-40" d="M32,44.91l1.9-1.1s0,0,0,.07L32,45s0,0,0-.07"/><path class="cls-39" d="M32,45l1.89-1.1a.19.19,0,0,1,0,.07L32,45.05s0,0,0-.07"/><path class="cls-38" d="M32,45.05,33.84,44a.24.24,0,0,1,0,.08l-1.9,1.1,0-.08"/><path class="cls-37" d="M31.92,45.13l1.9-1.1a.3.3,0,0,1,0,.08l-1.89,1.1,0-.08"/><path class="cls-36" d="M31.89,45.21l1.89-1.1a.47.47,0,0,1-.05.1l-1.9,1.1.06-.1"/><path class="cls-35" d="M31.83,45.31l1.9-1.1a.82.82,0,0,1-.25.24l-1.89,1.1a.78.78,0,0,0,.24-.24"/></g></g></g><path class="cls-78" d="M30.58,42.16A3.12,3.12,0,0,1,32,44.63c0,.91-.64,1.28-1.43.82L5.78,31.14a3.17,3.17,0,0,1-1.43-2.47c0-.91.65-1.28,1.44-.82Z"/><polygon class="cls-60" points="5.79 26.21 7.69 25.11 32.48 39.42 30.59 40.52 5.79 26.21"/><g class="cls-2"><g class="cls-87"><g class="cls-2"><path class="cls-4" d="M18.17,17.38l1.9-1.11a.67.67,0,0,0-.25.25l-1.9,1.1a.64.64,0,0,1,.25-.24"/><path class="cls-5" d="M17.92,17.62l1.9-1.1-.06.09-1.89,1.1.05-.09"/><path class="cls-6" d="M17.87,17.71l1.89-1.1,0,.09-1.89,1.1,0-.09"/><path class="cls-7" d="M17.84,17.8l1.89-1.1,0,.07-1.89,1.1,0-.07"/><path class="cls-8" d="M17.81,17.87l1.89-1.1s0,.05,0,.07L17.79,18s0-.05,0-.08"/><path class="cls-9" d="M17.79,18l1.9-1.11s0,.05,0,.08L17.78,18s0-.05,0-.07"/><path class="cls-10" d="M17.78,18l1.89-1.1s0,0,0,.06l-1.89,1.11a.15.15,0,0,1,0-.07"/><path class="cls-11" d="M17.77,18.09,19.66,17a.15.15,0,0,1,0,.07l-1.89,1.1a.13.13,0,0,1,0-.06"/><path class="cls-12" d="M17.76,18.15l1.89-1.1v.07l-1.89,1.1v-.07"/><path class="cls-13" d="M17.76,18.22l1.89-1.1v.07l-1.9,1.1a.2.2,0,0,1,0-.07"/><path class="cls-14" d="M17.75,18.29l1.9-1.1h0v.06l-1.9,1.1V18.3h0"/><path class="cls-15" d="M17.75,18.36l1.9-1.1v.07l-1.89,1.1a.17.17,0,0,0,0-.07"/><path class="cls-16" d="M17.76,18.43l1.89-1.1s0,.05,0,.07l-1.9,1.1v-.07"/><path class="cls-17" d="M17.76,18.5l1.9-1.1a.17.17,0,0,0,0,.07l-1.9,1.1a.17.17,0,0,0,0-.07"/><path class="cls-18" d="M17.77,18.57l1.9-1.1a.17.17,0,0,0,0,.07l-1.9,1.1s0-.05,0-.07"/><path class="cls-19" d="M17.78,18.64l1.9-1.1a.15.15,0,0,0,0,.07l-1.9,1.1s0,0,0-.07"/><path class="cls-20" d="M17.79,18.71l1.9-1.1s0,.05,0,.08l-1.89,1.1s0-.05,0-.08"/><path class="cls-21" d="M17.81,18.79l1.89-1.1s0,0,0,.07l-1.89,1.1a.19.19,0,0,1,0-.07"/><path class="cls-22" d="M17.83,18.86l1.89-1.1s0,0,0,.08l-1.89,1.1a.24.24,0,0,1,0-.08"/><path class="cls-23" d="M17.85,18.94l1.89-1.1a.19.19,0,0,1,0,.07L17.87,19a.31.31,0,0,1,0-.08"/><path class="cls-24" d="M17.87,19l1.89-1.11,0,.08-1.9,1.1a.64.64,0,0,0,0-.07"/><path class="cls-25" d="M17.89,19.09l1.9-1.1a.19.19,0,0,0,0,.07l-1.89,1.1,0-.07"/><path class="cls-26" d="M17.92,19.16l1.89-1.1,0,.07-1.9,1.1a.64.64,0,0,1,0-.07"/><path class="cls-27" d="M17.94,19.23l1.9-1.1,0,.07L18,19.3l0-.07"/><path class="cls-28" d="M18,19.3l1.9-1.1,0,.07L18,19.37l0-.07"/><path class="cls-29" d="M18,19.37l1.9-1.1,0,.07L18,19.44l0-.07"/><path class="cls-30" d="M18,19.44l1.9-1.1,0,.07-1.89,1.1,0-.07"/><path class="cls-31" d="M18.07,19.51,20,18.41l.05.09-1.9,1.1,0-.09"/><path class="cls-32" d="M18.11,19.6,20,18.5a.75.75,0,0,0,.07.12l-1.9,1.1a.75.75,0,0,0-.07-.12"/><path class="cls-33" d="M18.18,19.72l1.9-1.1.1.17-1.89,1.1c0-.05-.07-.11-.11-.17"/><path class="cls-32" d="M18.29,19.89l1.89-1.1.09.13L18.38,20l-.09-.13"/><path class="cls-31" d="M18.38,20l1.89-1.1.07.08-1.9,1.11L18.38,20"/><path class="cls-30" d="M18.44,20.11,20.34,19l.05.07-1.89,1.1-.06-.06"/><path class="cls-29" d="M18.5,20.17l1.89-1.1.06.07-1.9,1.1-.05-.07"/><path class="cls-28" d="M18.55,20.24l1.9-1.1.05.06-1.89,1.1-.06-.06"/><path class="cls-27" d="M18.61,20.3l1.89-1.1.06.06-1.89,1.1-.06-.06"/><path class="cls-26" d="M18.67,20.36l1.89-1.1.06.06-1.89,1.1-.06-.06"/><path class="cls-25" d="M18.73,20.42l1.89-1.1.07.06-1.9,1.1-.06-.06"/><path class="cls-24" d="M18.79,20.48l1.9-1.1.06.05-1.9,1.1-.06-.05"/><path class="cls-23" d="M18.85,20.53l1.9-1.1.06.06-1.89,1.1-.07-.06"/><path class="cls-22" d="M18.92,20.59l1.89-1.1.06,0L19,20.63l-.06,0"/><path class="cls-21" d="M19,20.63l1.89-1.1.07,0L19,20.68,19,20.63"/><path class="cls-20" d="M19,20.68l1.9-1.1.06,0-1.9,1.1-.06,0"/><path class="cls-19" d="M19.1,20.72l1.9-1.1.06,0-1.9,1.11-.06,0"/><path class="cls-18" d="M19.16,20.76l1.9-1.11h0l-1.89,1.1h0"/></g></g></g><g class="cls-2"><g class="cls-88"><g class="cls-2"><path class="cls-35" d="M18.17,17.38l1.9-1.11.11-.05-1.89,1.1-.12.06"/><path class="cls-36" d="M18.29,17.32l1.89-1.1.1,0-1.89,1.1-.1,0"/><path class="cls-37" d="M18.39,17.29l1.89-1.1h.08l-1.89,1.1h-.08"/><path class="cls-38" d="M18.47,17.28l1.89-1.1h.08l-1.9,1.1h-.07"/><path class="cls-39" d="M18.54,17.28l1.9-1.1h.06l-1.89,1.1h-.07"/><path class="cls-40" d="M18.61,17.28l1.89-1.1h.07l-1.9,1.1h-.06"/><path class="cls-41" d="M18.67,17.29l1.9-1.1h.06l-1.89,1.1h-.07"/><path class="cls-42" d="M18.74,17.3l1.89-1.1h.06l-1.9,1.1h-.05"/><path class="cls-43" d="M18.79,17.31l1.9-1.1.06,0-1.9,1.1-.06,0"/><path class="cls-44" d="M18.85,17.33l1.9-1.1h.05l-1.89,1.11-.06,0"/><path class="cls-45" d="M18.91,17.35l1.89-1.11.06,0L19,17.37l-.06,0"/><path class="cls-46" d="M19,17.37l1.89-1.1.06,0L19,17.39l-.06,0"/><path class="cls-47" d="M19,17.39l1.89-1.1.06,0-1.9,1.1,0,0"/><path class="cls-48" d="M19.08,17.42l1.9-1.1.06,0-1.9,1.1-.06,0"/><path class="cls-49" d="M19.14,17.45l1.9-1.1,0,0-1.89,1.11-.05,0"/></g></g></g><g class="cls-2"><g class="cls-89"><g class="cls-2"><path class="cls-49" d="M30.59,37.23l1.9-1.1h0l-1.89,1.1h0"/><path class="cls-63" d="M30.61,37.24l1.89-1.1.06,0-1.89,1.1-.06,0"/><path class="cls-64" d="M30.67,37.28l1.89-1.1.06,0-1.89,1.1-.06,0"/><path class="cls-61" d="M30.73,37.32l1.89-1.1.07,0-1.9,1.1-.06,0"/><path class="cls-65" d="M30.79,37.36l1.9-1.1.06.05-1.9,1.1-.06,0"/><path class="cls-66" d="M30.85,37.41l1.9-1.1.06,0-1.89,1.1-.07-.05"/><path class="cls-67" d="M30.92,37.46l1.89-1.1.07.06L31,37.52l-.06-.06"/><path class="cls-68" d="M31,37.52l1.9-1.1.06.06L31,37.58,31,37.52"/><path class="cls-69" d="M31,37.58l1.9-1.1.06.05-1.9,1.11L31,37.58"/><path class="cls-70" d="M31.1,37.64,33,36.53l.06.07-1.9,1.1-.06-.06"/><path class="cls-71" d="M31.16,37.7l1.9-1.1,0,.06-1.89,1.1-.06-.06"/><path class="cls-72" d="M31.22,37.76l1.89-1.1.06.06-1.9,1.1-.05-.06"/><path class="cls-73" d="M31.27,37.82l1.9-1.1,0,.07-1.89,1.1-.06-.07"/><path class="cls-74" d="M31.33,37.89l1.89-1.1.07.08L31.39,38l-.06-.08"/><path class="cls-75" d="M31.39,38l1.9-1.1.09.13-1.9,1.1L31.39,38"/><path class="cls-76" d="M31.48,38.1l1.9-1.1.1.17-1.89,1.1a1.63,1.63,0,0,0-.11-.17"/><path class="cls-75" d="M31.59,38.27l1.89-1.1a.54.54,0,0,1,.07.13l-1.89,1.1-.07-.13"/><path class="cls-74" d="M31.66,38.4l1.89-1.1a.56.56,0,0,1,.05.08l-1.9,1.1,0-.08"/><path class="cls-73" d="M31.7,38.48l1.9-1.1,0,.08-1.89,1.1a.3.3,0,0,0,0-.08"/><path class="cls-72" d="M31.74,38.56l1.89-1.1a.16.16,0,0,1,0,.07l-1.9,1.1,0-.07"/><path class="cls-71" d="M31.77,38.63l1.9-1.1,0,.06L31.8,38.7l0-.07"/><path class="cls-70" d="M31.8,38.7l1.9-1.11a.14.14,0,0,0,0,.07l-1.89,1.11,0-.07"/><path class="cls-69" d="M31.83,38.77l1.89-1.11,0,.07-1.9,1.1a.14.14,0,0,0,0-.06"/><path class="cls-68" d="M31.85,38.83l1.9-1.1a.24.24,0,0,1,0,.08l-1.89,1.1,0-.08"/><path class="cls-67" d="M31.88,38.91l1.89-1.1,0,.07L31.9,39a.19.19,0,0,0,0-.07"/><path class="cls-66" d="M31.9,39l1.9-1.1s0,0,0,.08l-1.89,1.1,0-.08"/><path class="cls-65" d="M31.93,39.06,33.82,38s0,0,0,.07L32,39.13a.19.19,0,0,1,0-.07"/><path class="cls-61" d="M32,39.13,33.84,38l0,.08L32,39.21s0-.05,0-.08"/><path class="cls-64" d="M32,39.21l1.9-1.1s0,0,0,.07L32,39.28s0-.05,0-.07"/><path class="cls-63" d="M32,39.28l1.89-1.1a.64.64,0,0,0,0,.07L32,39.35s0,0,0-.07"/><path class="cls-49" d="M32,39.35l1.9-1.1a.22.22,0,0,0,0,.08L32,39.43s0,0,0-.08"/><path class="cls-48" d="M32,39.43l1.9-1.1v.07L32,39.5s0,0,0-.07"/><path class="cls-47" d="M32,39.5l1.89-1.1a.15.15,0,0,1,0,.07L32,39.57V39.5"/><path class="cls-46" d="M32,39.57l1.9-1.1v.06L32,39.64a.15.15,0,0,0,0-.07"/><path class="cls-45" d="M32,39.64l1.89-1.11v.07h0L32,39.7h0v-.06"/><path class="cls-44" d="M32,39.7l1.89-1.1v.07L32,39.77V39.7"/><path class="cls-43" d="M32,39.77l1.89-1.1v.07L32,39.84s0,0,0-.07"/><path class="cls-42" d="M32,39.84l1.9-1.1s0,0,0,.07L32,39.91v-.07"/><path class="cls-41" d="M32,39.91l1.89-1.1s0,0,0,.07L32,40a.17.17,0,0,1,0-.07"/><path class="cls-40" d="M32,40l1.89-1.1s0,0,0,.07L32,40.05s0,0,0-.07"/><path class="cls-39" d="M32,40.05l1.9-1.1a.19.19,0,0,0,0,.07L32,40.12a.19.19,0,0,0,0-.07"/><path class="cls-38" d="M32,40.12l1.9-1.1,0,.08-1.89,1.1s0-.05,0-.08"/><path class="cls-37" d="M31.94,40.2l1.89-1.1,0,.08-1.9,1.1,0-.08"/><path class="cls-36" d="M31.9,40.28l1.9-1.1-.06.1-1.89,1.1a.47.47,0,0,0,0-.1"/><path class="cls-35" d="M31.85,40.38l1.89-1.1a.72.72,0,0,1-.25.24l-1.89,1.1a.82.82,0,0,0,.25-.24"/></g></g></g><path class="cls-78" d="M30.59,37.23A3.16,3.16,0,0,1,32,39.7c0,.91-.65,1.28-1.44.82L5.79,26.21a3.14,3.14,0,0,1-1.42-2.47c0-.91.64-1.28,1.43-.82Z"/><polygon class="cls-60" points="19.16 28.98 21.05 27.88 32.49 34.49 30.6 35.59 19.16 28.98"/><polygon class="cls-61" points="19.16 25.7 21.06 24.59 32.5 31.2 30.61 32.3 19.16 25.7"/><polygon class="cls-60" points="19.16 25.15 21.06 24.05 32.5 30.65 30.61 31.75 19.16 25.15"/><g class="cls-2"><g class="cls-90"><g class="cls-2"><path class="cls-49" d="M30.61,32.3l1.89-1.1h0l-1.9,1.1h0"/><path class="cls-63" d="M30.62,32.31l1.9-1.1.06,0-1.9,1.1-.06,0"/><path class="cls-64" d="M30.68,32.35l1.9-1.1.06,0-1.9,1.1-.06,0"/><path class="cls-61" d="M30.74,32.39l1.9-1.1.06,0-1.89,1.1-.07,0"/><path class="cls-65" d="M30.81,32.43l1.89-1.1.06.05-1.89,1.1-.06,0"/><path class="cls-66" d="M30.87,32.48l1.89-1.1.07.05-1.9,1.1-.06-.05"/><path class="cls-67" d="M30.93,32.53l1.9-1.1.06.06L31,32.59l-.07-.06"/><path class="cls-68" d="M31,32.59l1.89-1.1.06.05-1.89,1.11L31,32.59"/><path class="cls-69" d="M31.06,32.65,33,31.54l.06.06-1.89,1.11-.06-.06"/><path class="cls-70" d="M31.12,32.71,33,31.6l.06.07-1.89,1.1-.06-.06"/><path class="cls-71" d="M31.18,32.77l1.89-1.1.06.06-1.9,1.1-.05-.06"/><path class="cls-72" d="M31.23,32.83l1.9-1.1,0,.06-1.89,1.1-.06-.06"/><path class="cls-73" d="M31.29,32.89l1.89-1.1.06.07L31.34,33l-.05-.07"/><path class="cls-74" d="M31.34,33l1.9-1.1.06.08L31.41,33,31.34,33"/><path class="cls-75" d="M31.41,33l1.89-1.1.09.13-1.89,1.1L31.41,33"/><path class="cls-76" d="M31.5,33.17l1.89-1.1.11.17-1.9,1.1-.1-.17"/><path class="cls-75" d="M31.6,33.34l1.9-1.1s0,.08.07.13l-1.9,1.1a.54.54,0,0,0-.07-.13"/><path class="cls-74" d="M31.67,33.47l1.9-1.1a.59.59,0,0,1,0,.08l-1.89,1.1,0-.08"/><path class="cls-73" d="M31.72,33.55l1.89-1.1s0,0,0,.08l-1.9,1.1,0-.08"/><path class="cls-72" d="M31.75,33.63l1.9-1.1,0,.07-1.89,1.1a.43.43,0,0,0,0-.07"/><path class="cls-71" d="M31.79,33.7l1.89-1.1,0,.06-1.9,1.11a.14.14,0,0,0,0-.07"/><path class="cls-70" d="M31.81,33.77l1.9-1.11,0,.07-1.9,1.1,0-.06"/><path class="cls-69" d="M31.84,33.83l1.9-1.1a.64.64,0,0,0,0,.07l-1.89,1.1,0-.07"/><path class="cls-68" d="M31.87,33.9l1.89-1.1,0,.08L31.89,34a.24.24,0,0,0,0-.08"/><path class="cls-67" d="M31.89,34l1.9-1.1s0,0,0,.07l-1.89,1.1,0-.07"/><path class="cls-66" d="M31.92,34.05,33.81,33a.19.19,0,0,1,0,.08l-1.89,1.1s0-.05,0-.08"/><path class="cls-65" d="M31.94,34.13,33.83,33a.19.19,0,0,1,0,.07L32,34.2s0-.05,0-.07"/><path class="cls-61" d="M32,34.2l1.89-1.1a.24.24,0,0,1,0,.08L32,34.28s0-.05,0-.08"/><path class="cls-64" d="M32,34.28l1.89-1.1s0,0,0,.07L32,34.35s0-.05,0-.07"/><path class="cls-63" d="M32,34.35l1.9-1.1s0,0,0,.07L32,34.42a.2.2,0,0,0,0-.07"/><path class="cls-49" d="M32,34.42l1.9-1.1s0,0,0,.07L32,34.5s0,0,0-.08"/><path class="cls-48" d="M32,34.5l1.89-1.11s0,0,0,.07L32,34.57V34.5"/><path class="cls-47" d="M32,34.57l1.9-1.11v.07L32,34.64a.15.15,0,0,0,0-.07"/><path class="cls-46" d="M32,34.64l1.89-1.11s0,0,0,.07L32,34.7v-.06"/><path class="cls-45" d="M32,34.7l1.9-1.1v.07h0L32,34.77h0V34.7"/><path class="cls-44" d="M32,34.77l1.9-1.1v.07L32,34.84v-.07"/><path class="cls-43" d="M32,34.84l1.9-1.1a.17.17,0,0,0,0,.07L32,34.91v-.07"/><path class="cls-42" d="M32,34.91l1.89-1.1a.17.17,0,0,1,0,.07L32,35a.17.17,0,0,1,0-.07"/><path class="cls-41" d="M32,35l1.89-1.1a.2.2,0,0,1,0,.07L32,35.05s0,0,0-.07"/><path class="cls-40" d="M32,35.05,33.9,34a.2.2,0,0,1,0,.07L32,35.12s0,0,0-.07"/><path class="cls-39" d="M32,35.12,33.89,34s0,0,0,.07L32,35.19a.19.19,0,0,1,0-.07"/><path class="cls-38" d="M32,35.19l1.89-1.1a.24.24,0,0,0,0,.08L32,35.27l0-.08"/><path class="cls-37" d="M32,35.27l1.9-1.1a.59.59,0,0,0,0,.08l-1.89,1.1,0-.08"/><path class="cls-36" d="M31.92,35.35l1.89-1.1a.93.93,0,0,0-.05.1l-1.9,1.1.06-.1"/><path class="cls-35" d="M31.86,35.45l1.9-1.1a.82.82,0,0,1-.25.24l-1.9,1.1a.72.72,0,0,0,.25-.24"/></g></g></g><path class="cls-78" d="M30.61,32.3A3.12,3.12,0,0,1,32,34.77c0,.91-.64,1.28-1.43.82L19.15,29a3.13,3.13,0,0,1-1.42-2.47c0-.91.64-1.27,1.43-.82Z"/><polygon class="cls-61" points="19.18 21.86 21.07 20.76 32.51 27.36 30.62 28.47 19.18 21.86"/><g class="cls-2"><g class="cls-91"><g class="cls-2"><path class="cls-49" d="M30.62,28.47l1.89-1.11h0l-1.9,1.1h0"/><path class="cls-63" d="M30.63,28.47l1.9-1.1.06,0-1.9,1.1-.06,0"/><path class="cls-64" d="M30.69,28.51l1.9-1.1.06,0-1.9,1.1-.06,0"/><path class="cls-61" d="M30.75,28.55l1.9-1.1.06,0L30.82,28.6l-.07-.05"/><path class="cls-65" d="M30.82,28.6l1.89-1.11.06.05-1.89,1.1-.06,0"/><path class="cls-66" d="M30.88,28.64l1.89-1.1.07.05-1.9,1.11-.06-.06"/><path class="cls-67" d="M30.94,28.7l1.9-1.11.06.06L31,28.75l-.07-.05"/><path class="cls-68" d="M31,28.75l1.89-1.1.06.06-1.89,1.1L31,28.75"/><path class="cls-69" d="M31.07,28.81,33,27.71l.06.06-1.89,1.1-.06-.06"/><path class="cls-70" d="M31.13,28.87,33,27.77l.06.06-1.89,1.1-.06-.06"/><path class="cls-71" d="M31.19,28.93l1.89-1.1.06.06L31.24,29l0-.06"/><path class="cls-72" d="M31.24,29l1.9-1.1a.18.18,0,0,1,0,.07l-1.89,1.1L31.24,29"/><path class="cls-73" d="M31.3,29.06,33.19,28l.06.06-1.9,1.1-.05-.06"/><path class="cls-74" d="M31.35,29.12l1.9-1.1.06.09-1.89,1.1-.07-.09"/><path class="cls-75" d="M31.42,29.21l1.89-1.1.09.13-1.89,1.1-.09-.13"/><path class="cls-76" d="M31.51,29.34l1.89-1.1.11.16-1.9,1.11-.1-.17"/><path class="cls-75" d="M31.61,29.51l1.9-1.11c0,.05.05.09.07.13l-1.9,1.1a.75.75,0,0,0-.07-.12"/><path class="cls-74" d="M31.68,29.63l1.9-1.1,0,.09-1.89,1.1-.05-.09"/><path class="cls-73" d="M31.73,29.72l1.89-1.1a.25.25,0,0,1,0,.07l-1.9,1.1,0-.07"/><path class="cls-72" d="M31.76,29.79l1.9-1.1,0,.07-1.89,1.1a.25.25,0,0,0,0-.07"/><path class="cls-71" d="M31.8,29.86l1.89-1.1,0,.07-1.89,1.1,0-.07"/><path class="cls-70" d="M31.83,29.93l1.89-1.1,0,.07L31.85,30a.19.19,0,0,1,0-.07"/><path class="cls-69" d="M31.85,30l1.9-1.1a.14.14,0,0,1,0,.07l-1.89,1.1,0-.07"/><path class="cls-68" d="M31.88,30.07,33.77,29l0,.07-1.9,1.1a.19.19,0,0,0,0-.07"/><path class="cls-67" d="M31.9,30.14,33.8,29a.19.19,0,0,1,0,.07l-1.89,1.1,0-.07"/><path class="cls-66" d="M31.93,30.21l1.89-1.1,0,.08L32,30.29s0-.05,0-.08"/><path class="cls-65" d="M32,30.29l1.9-1.1a.19.19,0,0,0,0,.07L32,30.37s0-.05,0-.08"/><path class="cls-61" d="M32,30.37l1.9-1.11s0,0,0,.08L32,30.44s0-.05,0-.07"/><path class="cls-64" d="M32,30.44l1.89-1.1s0,.05,0,.07L32,30.52s0-.05,0-.08"/><path class="cls-63" d="M32,30.52l1.9-1.11s0,.05,0,.08L32,30.59a.64.64,0,0,0,0-.07"/><path class="cls-49" d="M32,30.59l1.89-1.1s0,0,0,.07L32,30.66a.17.17,0,0,1,0-.07"/><path class="cls-48" d="M32,30.66l1.89-1.1s0,.05,0,.07L32,30.73v-.07"/><path class="cls-47" d="M32,30.73l1.9-1.1v.07L32,30.8a.17.17,0,0,0,0-.07"/><path class="cls-46" d="M32,30.8l1.89-1.1a.15.15,0,0,1,0,.07L32,30.87V30.8"/><path class="cls-45" d="M32,30.87l1.9-1.1v.06h0L32,30.94h0v-.06"/><path class="cls-44" d="M32,30.94l1.9-1.1v.07L32,31v-.07"/><path class="cls-43" d="M32,31l1.9-1.1s0,0,0,.06L32,31.08V31"/><path class="cls-42" d="M32,31.08,33.93,30V30L32,31.14s0,0,0-.06"/><path class="cls-41" d="M32,31.14l1.9-1.1a.64.64,0,0,1,0,.07L32,31.21s0,0,0-.07"/><path class="cls-40" d="M32,31.21l1.89-1.1a.15.15,0,0,1,0,.07L32,31.28s0,0,0-.07"/><path class="cls-39" d="M32,31.28l1.89-1.1s0,.05,0,.08L32,31.36a.24.24,0,0,1,0-.08"/><path class="cls-38" d="M32,31.36l1.89-1.1s0,0,0,.07L32,31.43l0-.07"/><path class="cls-37" d="M32,31.43l1.9-1.1a.59.59,0,0,1,0,.08l-1.89,1.11,0-.09"/><path class="cls-36" d="M31.93,31.52l1.89-1.11a.31.31,0,0,1,0,.1l-1.9,1.1.06-.09"/><path class="cls-35" d="M31.87,31.61l1.9-1.1a.64.64,0,0,1-.25.24l-1.89,1.1a.61.61,0,0,0,.24-.24"/></g></g></g><path class="cls-78" d="M30.62,28.47A3.1,3.1,0,0,1,32,30.93c0,.92-.64,1.28-1.43.82l-11.44-6.6a3.16,3.16,0,0,1-1.43-2.47c0-.91.65-1.28,1.43-.82Z"/><polygon class="cls-60" points="19.18 20.76 21.07 19.66 32.52 26.27 30.62 27.37 19.18 20.76"/><g class="cls-2"><g class="cls-92"><g class="cls-2"><path class="cls-18" d="M30.62,27.37l1.9-1.1,0,0-1.89,1.1-.05,0"/><path class="cls-17" d="M30.67,27.4l1.89-1.1.06,0-1.89,1.1-.06,0"/><path class="cls-16" d="M30.73,27.43l1.89-1.1.06,0-1.9,1.1-.05,0"/><path class="cls-15" d="M30.78,27.45l1.9-1.1.06,0-1.9,1.1-.06,0"/><path class="cls-14" d="M30.84,27.48l1.9-1.1,0,0L30.9,27.5l-.06,0"/><path class="cls-13" d="M30.9,27.5l1.89-1.1.06,0L31,27.52l-.06,0"/><path class="cls-12" d="M31,27.52l1.89-1.1h.06L31,27.54l-.06,0"/><path class="cls-11" d="M31,27.54l1.89-1.11.06,0-1.9,1.1H31"/><path class="cls-10" d="M31.07,27.55l1.9-1.1H33l-1.89,1.1h-.07"/><path class="cls-9" d="M31.14,27.56,33,26.46h.06L31.2,27.57h-.06"/><path class="cls-8" d="M31.2,27.57l1.89-1.11h.07l-1.89,1.1H31.2"/><path class="cls-7" d="M31.27,27.57l1.89-1.1h.08l-1.9,1.1h-.07"/><path class="cls-6" d="M31.34,27.56l1.9-1.1h.08l-1.9,1.1h-.08"/><path class="cls-5" d="M31.42,27.55l1.9-1.1.1,0-1.9,1.1a.17.17,0,0,1-.1,0"/><path class="cls-4" d="M31.52,27.52l1.9-1.1.11-.05-1.89,1.1-.12.05"/></g></g></g><polygon class="cls-61" points="19.19 17.48 21.08 16.37 32.53 22.98 30.63 24.08 19.19 17.48"/><g class="cls-2"><g class="cls-93"><g class="cls-2"><path class="cls-49" d="M30.63,24.08l1.9-1.1h0l-1.89,1.1h0"/><path class="cls-63" d="M30.65,24.09,32.54,23l.06,0-1.89,1.1-.06,0"/><path class="cls-64" d="M30.71,24.13,32.6,23l.06,0-1.89,1.1-.06,0"/><path class="cls-61" d="M30.77,24.17l1.89-1.1.06,0-1.89,1.1-.06,0"/><path class="cls-65" d="M30.83,24.21l1.89-1.1.07.05-1.9,1.1-.06-.05"/><path class="cls-66" d="M30.89,24.26l1.9-1.1.06.05L31,24.31l-.07,0"/><path class="cls-67" d="M31,24.31l1.89-1.1.06.06L31,24.37,31,24.31"/><path class="cls-68" d="M31,24.37l1.89-1.1.07.05-1.9,1.11L31,24.37"/><path class="cls-69" d="M31.08,24.43,33,23.32l.06.06-1.9,1.11-.06-.06"/><path class="cls-70" d="M31.14,24.49,33,23.38a.18.18,0,0,1,.05.07l-1.89,1.1-.06-.06"/><path class="cls-71" d="M31.2,24.55l1.89-1.1.06.06-1.89,1.1-.06-.06"/><path class="cls-72" d="M31.26,24.61l1.89-1.1.06.06-1.9,1.1,0-.06"/><path class="cls-73" d="M31.31,24.67l1.9-1.1,0,.07-1.89,1.1-.06-.07"/><path class="cls-74" d="M31.37,24.74l1.89-1.1.06.08-1.89,1.1-.06-.08"/><path class="cls-75" d="M31.43,24.82l1.89-1.1.09.13L31.52,25l-.09-.13"/><path class="cls-76" d="M31.52,25l1.89-1.1a1.63,1.63,0,0,1,.11.17l-1.89,1.1L31.52,25"/><path class="cls-75" d="M31.63,25.12,33.52,24l.07.12L31.7,25.25l-.07-.13"/><path class="cls-74" d="M31.7,25.25l1.89-1.11a.36.36,0,0,1,0,.09l-1.89,1.1a.59.59,0,0,0,0-.08"/><path class="cls-73" d="M31.74,25.33l1.89-1.1,0,.08-1.89,1.1,0-.08"/><path class="cls-72" d="M31.78,25.41l1.89-1.1,0,.07-1.89,1.1,0-.07"/><path class="cls-71" d="M31.81,25.48l1.89-1.1,0,.06-1.89,1.1,0-.06"/><path class="cls-70" d="M31.84,25.54l1.89-1.1,0,.07-1.9,1.1a.25.25,0,0,0,0-.07"/><path class="cls-69" d="M31.86,25.61l1.9-1.1,0,.07-1.9,1.1,0-.07"/><path class="cls-68" d="M31.89,25.68l1.9-1.1a.24.24,0,0,0,0,.08l-1.89,1.1,0-.08"/><path class="cls-67" d="M31.92,25.76l1.89-1.1,0,.07-1.9,1.1a.19.19,0,0,1,0-.07"/><path class="cls-66" d="M31.94,25.83l1.9-1.1a.24.24,0,0,0,0,.08L32,25.91a.24.24,0,0,0,0-.08"/><path class="cls-65" d="M32,25.91l1.9-1.1a.19.19,0,0,0,0,.07L32,26a.19.19,0,0,0,0-.07"/><path class="cls-61" d="M32,26l1.9-1.1s0,.05,0,.08L32,26.06s0,0,0-.08"/><path class="cls-64" d="M32,26.06,33.89,25a.19.19,0,0,1,0,.07L32,26.13s0-.05,0-.07"/><path class="cls-63" d="M32,26.13,33.91,25s0,0,0,.07L32,26.21a.22.22,0,0,1,0-.08"/><path class="cls-49" d="M32,26.21l1.89-1.11a.22.22,0,0,1,0,.08L32,26.28s0-.05,0-.07"/><path class="cls-48" d="M32,26.28l1.89-1.1a.15.15,0,0,1,0,.07l-1.89,1.1a.17.17,0,0,1,0-.07"/><path class="cls-47" d="M32.05,26.35l1.89-1.1a.2.2,0,0,0,0,.07l-1.9,1.1v-.07"/><path class="cls-46" d="M32.05,26.42l1.9-1.1v.07l-1.9,1.1v-.07"/><path class="cls-45" d="M32.05,26.49l1.9-1.1v.06h0l-1.89,1.1h0a.13.13,0,0,0,0-.06"/><path class="cls-44" d="M32.06,26.56,34,25.46v.07l-1.9,1.1a.17.17,0,0,0,0-.07"/><path class="cls-43" d="M32.05,26.63l1.9-1.1a.13.13,0,0,1,0,.06L32.05,26.7v-.07"/><path class="cls-42" d="M32.05,26.7l1.89-1.11v.07L32,26.76a.13.13,0,0,0,0-.06"/><path class="cls-41" d="M32,26.76l1.9-1.1a.2.2,0,0,0,0,.07L32,26.83a.15.15,0,0,0,0-.07"/><path class="cls-40" d="M32,26.83l1.9-1.1a.64.64,0,0,1,0,.07L32,26.9s0,0,0-.07"/><path class="cls-39" d="M32,26.9l1.89-1.1a.14.14,0,0,1,0,.07L32,27s0-.05,0-.08"/><path class="cls-38" d="M32,27l1.89-1.11a.19.19,0,0,1,0,.08L32,27.05,32,27"/><path class="cls-37" d="M32,27.05l1.9-1.1,0,.08-1.9,1.1,0-.08"/><path class="cls-36" d="M31.94,27.13l1.9-1.1-.06.1-1.89,1.1.05-.1"/><path class="cls-35" d="M31.89,27.23l1.89-1.1a.72.72,0,0,1-.25.24l-1.89,1.1a.82.82,0,0,0,.25-.24"/></g></g></g><path class="cls-78" d="M30.63,24.08a3.16,3.16,0,0,1,1.43,2.47c0,.91-.65,1.28-1.44.82L19.18,20.76a3.14,3.14,0,0,1-1.43-2.46c0-.92.65-1.28,1.44-.82Z"/><path class="cls-94" d="M31.9,17.68,4.13,1.65C1.92.38.13,1.4.12,3.93L0,47.9a8.75,8.75,0,0,0,4,6.89l27.77,16c2.21,1.27,4,.25,4-2.29l.12-44A8.76,8.76,0,0,0,31.9,17.68ZM4.41,8.94l11,6.33,0,11.51-11-6.33,0-11.51m26.1,56.24L5.72,50.86A3.11,3.11,0,0,1,4.3,48.39c0-.91.64-1.27,1.43-.82L30.52,61.89A3.14,3.14,0,0,1,32,64.35c0,.91-.65,1.28-1.44.83m0-4.93L5.74,45.93a3.16,3.16,0,0,1-1.43-2.47c0-.91.64-1.27,1.43-.82L30.54,57A3.1,3.1,0,0,1,32,59.42c0,.91-.64,1.28-1.43.83m0-4.94L5.75,41a2.76,2.76,0,0,1-.89-.88L4.77,40l-.06-.09a4.27,4.27,0,0,1-.27-.63v0a2.35,2.35,0,0,1-.11-.68c0-.91.65-1.28,1.44-.82L30.55,52a2.44,2.44,0,0,1,.62.51v0l.21.26a3.45,3.45,0,0,1,.47.94v.05a2.35,2.35,0,0,1,.11.68c0,.91-.65,1.28-1.44.82m0-4.93L5.76,36.07A3.16,3.16,0,0,1,4.34,33.6c0-.91.64-1.28,1.43-.82l24.8,14.31A3.15,3.15,0,0,1,32,49.56c0,.91-.64,1.28-1.43.82m0-4.93L5.78,31.14a3.17,3.17,0,0,1-1.43-2.47c0-.91.65-1.28,1.44-.82L30.58,42.16A3.12,3.12,0,0,1,32,44.63c0,.91-.64,1.28-1.43.82m0-4.93L5.79,26.21a3.14,3.14,0,0,1-1.42-2.47c0-.91.64-1.28,1.43-.82L30.59,37.23A3.16,3.16,0,0,1,32,39.7c0,.91-.65,1.28-1.44.82m0-4.93L19.15,29a3.13,3.13,0,0,1-1.42-2.47c0-.91.64-1.27,1.43-.82L30.61,32.3A3.12,3.12,0,0,1,32,34.77c0,.91-.64,1.28-1.43.82m0-3.84-11.44-6.6a3.16,3.16,0,0,1-1.43-2.47c0-.91.65-1.28,1.43-.82l11.45,6.61A3.1,3.1,0,0,1,32,30.93c0,.92-.64,1.28-1.43.82m0-4.38L19.18,20.76a3.14,3.14,0,0,1-1.43-2.46c0-.92.65-1.28,1.44-.82l11.44,6.6a3.16,3.16,0,0,1,1.43,2.47c0,.91-.65,1.28-1.44.82"/><path class="cls-78" d="M30.52,61.89,5.73,47.57c-.79-.45-1.43-.09-1.43.82a3.11,3.11,0,0,0,1.42,2.47L30.51,65.18c.79.45,1.44.08,1.44-.83A3.14,3.14,0,0,0,30.52,61.89Z"/><g class="cls-2"><g class="cls-95"><g class="cls-2"><polyline class="cls-14" points="35.76 68.54 37.65 67.44 37.65 67.45 35.76 68.56 35.76 68.54"/><path class="cls-13" d="M35.76,68.55l1.89-1.1v.2l-1.9,1.1a1.34,1.34,0,0,0,0-.2"/><path class="cls-12" d="M35.75,68.75l1.9-1.1c0,.06,0,.12,0,.19l-1.9,1.1a1.28,1.28,0,0,0,0-.19"/><path class="cls-11" d="M35.74,68.94l1.9-1.1a1.11,1.11,0,0,0,0,.19l-1.9,1.1a1.23,1.23,0,0,0,0-.19"/><path class="cls-10" d="M35.72,69.13l1.9-1.1,0,.19-1.9,1.1,0-.19"/><path class="cls-9" d="M35.69,69.32l1.9-1.1c0,.06,0,.13,0,.19l-1.9,1.1a1.06,1.06,0,0,0,0-.19"/><path class="cls-8" d="M35.65,69.51l1.9-1.1a1.6,1.6,0,0,0,0,.21l-1.9,1.1a1.6,1.6,0,0,0,0-.21"/><path class="cls-7" d="M35.6,69.72l1.9-1.1a1.72,1.72,0,0,0-.07.21l-1.9,1.1a1.72,1.72,0,0,0,.07-.21"/><path class="cls-6" d="M35.53,69.93l1.9-1.1c0,.08-.07.15-.1.22l-1.89,1.11.09-.23"/><path class="cls-5" d="M35.44,70.16l1.89-1.11-.15.28-1.9,1.1c.06-.09.11-.18.16-.27"/><path class="cls-4" d="M35.28,70.43l1.9-1.1a2,2,0,0,1-.69.67l-1.9,1.11a2,2,0,0,0,.69-.68"/></g></g></g><g class="cls-2"><g class="cls-96"><g class="cls-2"><path class="cls-4" d="M1.29,1.37,3.18.27A2,2,0,0,1,3.51.12l-1.9,1.1a1.87,1.87,0,0,0-.32.15"/><path class="cls-5" d="M1.61,1.22,3.51.12,3.78,0,1.89,1.14l-.28.08"/><path class="cls-6" d="M1.89,1.14,3.78,0,4,0,2.12,1.11l-.23,0"/><path class="cls-7" d="M2.12,1.11,4,0h.21L2.33,1.1H2.12"/><path class="cls-8" d="M2.33,1.1,4.22,0h.19l-1.9,1.1H2.33"/><path class="cls-9" d="M2.51,1.11,4.41,0h.18L2.69,1.13l-.18,0"/><path class="cls-10" d="M2.69,1.13,4.59,0l.17,0L2.87,1.15l-.18,0"/><path class="cls-11" d="M2.87,1.15,4.76.05l.16,0L3,1.19l-.16,0"/><path class="cls-12" d="M3,1.19,4.92.09l.17.05-1.9,1.1L3,1.19"/><path class="cls-13" d="M3.19,1.24,5.09.14l.16,0-1.9,1.1-.16-.05"/><path class="cls-14" d="M3.35,1.29,5.25.19l.16.06L3.52,1.35l-.17-.06"/><path class="cls-15" d="M3.52,1.35,5.41.25l.16.07L3.68,1.42l-.16-.07"/><path class="cls-16" d="M3.68,1.42,5.57.32l.16.07L3.84,1.49l-.16-.07"/><path class="cls-17" d="M3.84,1.49,5.73.39,5.9.48,4,1.58l-.16-.09"/><path class="cls-18" d="M4,1.58,5.9.48,6,.55,4.13,1.65,4,1.58"/></g></g></g><polygon class="cls-79" points="35.88 24.58 37.78 23.47 37.65 67.44 35.76 68.54 35.88 24.58"/><polygon class="cls-60" points="4.13 1.65 6.02 0.55 33.8 16.58 31.9 17.68 4.13 1.65"/><g class="cls-2"><g class="cls-97"><g class="cls-2"><path class="cls-18" d="M31.9,17.68l1.9-1.1,0,0-1.89,1.1,0,0"/><path class="cls-19" d="M31.94,17.71l1.89-1.1a1,1,0,0,1,.17.1l-1.89,1.1-.17-.1"/><path class="cls-20" d="M32.11,17.81,34,16.71l.17.11-1.89,1.1-.17-.11"/><path class="cls-21" d="M32.28,17.92l1.89-1.1.18.12-1.9,1.11a1.09,1.09,0,0,0-.17-.13"/><path class="cls-22" d="M32.45,18.05l1.9-1.11.17.14-1.89,1.1-.18-.13"/><path class="cls-23" d="M32.63,18.18l1.89-1.1.18.14-1.89,1.11-.18-.15"/><path class="cls-24" d="M32.81,18.33l1.89-1.11.18.16L33,18.48l-.17-.15"/><path class="cls-25" d="M33,18.48l1.9-1.1.17.16-1.89,1.1L33,18.48"/><path class="cls-26" d="M33.16,18.64l1.89-1.1c.06.06.12.11.17.17l-1.89,1.1-.17-.17"/><path class="cls-27" d="M33.33,18.81l1.89-1.1.17.17L33.49,19l-.16-.17"/><path class="cls-28" d="M33.49,19l1.9-1.1.15.17-1.89,1.1L33.49,19"/><path class="cls-29" d="M33.65,19.15l1.89-1.1.16.18-1.9,1.1-.15-.18"/><path class="cls-30" d="M33.8,19.33l1.9-1.1.15.19L34,19.53l-.16-.2"/><path class="cls-31" d="M34,19.53l1.89-1.11.18.24-1.9,1.1a2,2,0,0,0-.17-.23"/><path class="cls-32" d="M34.13,19.76l1.9-1.1.25.35-1.9,1.11a3.27,3.27,0,0,0-.25-.36"/><path class="cls-33" d="M34.38,20.12,36.28,19c.11.16.21.33.31.49l-1.9,1.1c-.1-.16-.2-.32-.31-.48"/><path class="cls-32" d="M34.69,20.6l1.9-1.1c.06.11.12.23.19.34l-1.9,1.1-.19-.34"/><path class="cls-31" d="M34.88,20.94l1.9-1.1.12.24L35,21.18l-.12-.24"/><path class="cls-30" d="M35,21.18l1.9-1.1.1.21-1.89,1.1L35,21.18"/><path class="cls-29" d="M35.11,21.39,37,20.29l.09.19-1.9,1.1c0-.06,0-.12-.08-.19"/><path class="cls-28" d="M35.19,21.58l1.9-1.1c0,.07,0,.13.08.19l-1.9,1.1c0-.06-.05-.12-.08-.19"/><path class="cls-27" d="M35.27,21.77l1.9-1.1.08.2L35.35,22a1.67,1.67,0,0,0-.08-.2"/><path class="cls-26" d="M35.35,22l1.9-1.1.07.19-1.89,1.1c0-.06,0-.13-.08-.19"/><path class="cls-25" d="M35.43,22.16l1.89-1.1c0,.07,0,.14.07.2L35.5,22.37a1.72,1.72,0,0,1-.07-.21"/><path class="cls-24" d="M35.5,22.37l1.89-1.11c0,.07,0,.14.07.21l-1.9,1.1-.06-.2"/><path class="cls-23" d="M35.56,22.57l1.9-1.1.06.21-1.9,1.1-.06-.21"/><path class="cls-22" d="M35.62,22.78l1.9-1.1a1.6,1.6,0,0,1,0,.21L35.68,23l-.06-.21"/><path class="cls-21" d="M35.68,23l1.89-1.1a1.6,1.6,0,0,1,0,.21l-1.89,1.1c0-.07,0-.14,0-.21"/><path class="cls-20" d="M35.73,23.2l1.89-1.1c0,.07,0,.14.05.21l-1.9,1.1c0-.07,0-.14,0-.21"/><path class="cls-19" d="M35.77,23.41l1.9-1.1,0,.2-1.89,1.1a1.18,1.18,0,0,1,0-.2"/><path class="cls-18" d="M35.81,23.61l1.89-1.1,0,.2-1.9,1.1a1.5,1.5,0,0,0,0-.2"/><path class="cls-17" d="M35.83,23.81l1.9-1.1c0,.07,0,.13,0,.2L35.86,24l0-.2"/><path class="cls-16" d="M35.86,24l1.89-1.1c0,.06,0,.13,0,.19l-1.9,1.1c0-.06,0-.13,0-.19"/><path class="cls-15" d="M35.87,24.2l1.9-1.1v.19L35.88,24.4a1.34,1.34,0,0,0,0-.2"/><path class="cls-14" d="M35.88,24.4l1.89-1.11a1.09,1.09,0,0,1,0,.18l-1.9,1.11V24.4"/></g></g></g></g></g></g></g></svg>