<svg xmlns="http://www.w3.org/2000/svg" xmlns:xlink="http://www.w3.org/1999/xlink" viewBox="0 0 85.76 51.34"><defs><style>.cls-1{fill:none;}.cls-2{isolation:isolate;}.cls-3{clip-path:url(#clip-path);}.cls-4{fill:#3d7f6b;}.cls-5{fill:#3f846f;}.cls-6{fill:#428973;}.cls-7{fill:#448e77;}.cls-8{fill:#46937c;}.cls-9{fill:#499880;}.cls-10{fill:#4b9d84;}.cls-11{fill:#4da288;}.cls-12{fill:#50a78c;}.cls-13{fill:#52ab90;}.cls-14{fill:#54b094;}.cls-15{fill:#5abd9f;}.cls-16{clip-path:url(#clip-path-2);}.cls-17{clip-path:url(#clip-path-3);}.cls-18{clip-path:url(#clip-path-4);}.cls-19{clip-path:url(#clip-path-5);}.cls-20{fill:#000e21;}.cls-21{clip-path:url(#clip-path-6);}.cls-22{clip-path:url(#clip-path-7);}.cls-23{clip-path:url(#clip-path-8);}.cls-24{clip-path:url(#clip-path-9);}.cls-25{clip-path:url(#clip-path-10);}.cls-26{fill:#3f836f;}.cls-27{clip-path:url(#clip-path-11);}.cls-28{clip-path:url(#clip-path-12);}.cls-29{clip-path:url(#clip-path-13);}.cls-30{clip-path:url(#clip-path-14);}.cls-31{fill:#001025;}.cls-32{fill:#001026;}.cls-33{fill:#001128;}.cls-34{fill:#001129;}.cls-35{fill:#00122a;}.cls-36{fill:#00122c;}.cls-37{fill:#00132d;}.cls-38{fill:#00132e;}.cls-39{fill:#001531;}.cls-40{fill:#000e22;}.cls-41{clip-path:url(#clip-path-15);}.cls-42{fill:#000f24;}.cls-43{fill:#000f23;}.cls-44{fill:#001737;}.cls-45{clip-path:url(#clip-path-16);}.cls-46{clip-path:url(#clip-path-17);}.cls-47{clip-path:url(#clip-path-18);}.cls-48{clip-path:url(#clip-path-19);}.cls-49{clip-path:url(#clip-path-20);}.cls-50{clip-path:url(#clip-path-21);}.cls-51{clip-path:url(#clip-path-22);}.cls-52{clip-path:url(#clip-path-23);}.cls-53{clip-path:url(#clip-path-24);}.cls-54{clip-path:url(#clip-path-25);}.cls-55{clip-path:url(#clip-path-26);}.cls-56{clip-path:url(#clip-path-27);}.cls-57{clip-path:url(#clip-path-28);}.cls-58{clip-path:url(#clip-path-29);}.cls-59{clip-path:url(#clip-path-30);}.cls-60{clip-path:url(#clip-path-31);}.cls-61{clip-path:url(#clip-path-32);}.cls-62{clip-path:url(#clip-path-33);}.cls-63{clip-path:url(#clip-path-34);}.cls-64{clip-path:url(#clip-path-35);}.cls-65{clip-path:url(#clip-path-36);}.cls-66{clip-path:url(#clip-path-37);}.cls-67{clip-path:url(#clip-path-38);}.cls-68{clip-path:url(#clip-path-39);}.cls-69{clip-path:url(#clip-path-40);}.cls-70{clip-path:url(#clip-path-41);}.cls-71{clip-path:url(#clip-path-42);}.cls-72{clip-path:url(#clip-path-43);}.cls-73{clip-path:url(#clip-path-44);}.cls-74{fill:#fff;}.cls-75{clip-path:url(#clip-path-45);}</style><clipPath id="clip-path"><path class="cls-1" d="M55.26,11.48a3.12,3.12,0,0,0-2.85,0c0-.49,0-1,0-1.46V9.83a3.18,3.18,0,0,1,2.85,0Z"/></clipPath><clipPath id="clip-path-2"><path class="cls-1" d="M47.38,11.78a3.15,3.15,0,0,0-2.85,0V10.14a3.12,3.12,0,0,1,2.85,0Z"/></clipPath><clipPath id="clip-path-3"><path class="cls-1" d="M51.53,12.47V10.83a1,1,0,0,1,.58-.82v1.64A1,1,0,0,0,51.53,12.47Z"/></clipPath><clipPath id="clip-path-4"><path class="cls-1" d="M43.64,12.78V11.13a1,1,0,0,1,.59-.81V12A1,1,0,0,0,43.64,12.78Z"/></clipPath><clipPath id="clip-path-5"><path class="cls-1" d="M51.53,12.47V10.83a1,1,0,0,0,.6.83V13.3A1,1,0,0,1,51.53,12.47Z"/></clipPath><clipPath id="clip-path-6"><path class="cls-1" d="M43.64,12.78V11.13a1,1,0,0,0,.6.84v1.64A1,1,0,0,1,43.64,12.78Z"/></clipPath><clipPath id="clip-path-7"><path class="cls-1" d="M33.2,16.35a3.18,3.18,0,0,0-2.85,0c0-.48,0-1,0-1.45v-.19a3.12,3.12,0,0,1,2.85,0Z"/></clipPath><clipPath id="clip-path-8"><path class="cls-1" d="M29.46,17.35V15.7a1,1,0,0,1,.58-.82v1.65A1,1,0,0,0,29.46,17.35Z"/></clipPath><clipPath id="clip-path-9"><path class="cls-1" d="M29.46,17.35V15.7a1,1,0,0,0,.59.83v1.65A1,1,0,0,1,29.46,17.35Z"/></clipPath><clipPath id="clip-path-10"><path class="cls-1" d="M28.49,19.09a3.18,3.18,0,0,0-2.85,0V17.45a3.12,3.12,0,0,1,2.85,0Z"/></clipPath><clipPath id="clip-path-11"><path class="cls-1" d="M25.33,19.27a1,1,0,0,0-.59.82V18.45a1,1,0,0,1,.58-.82Z"/></clipPath><clipPath id="clip-path-12"><path class="cls-1" d="M69.88,20.41a1,1,0,0,0-.59-.84V17.93a1,1,0,0,1,.6.83Z"/></clipPath><clipPath id="clip-path-13"><path class="cls-1" d="M24.74,20.09V18.45a1,1,0,0,0,.59.83v1.64A1,1,0,0,1,24.74,20.09Z"/></clipPath><clipPath id="clip-path-14"><path class="cls-1" d="M69.89,18.76v1.65a1,1,0,0,1-.58.81V19.58A1,1,0,0,0,69.89,18.76Z"/></clipPath><clipPath id="clip-path-15"><path class="cls-1" d="M69,19.76V21.4a3.09,3.09,0,0,1-2.84,0V19.76A3.18,3.18,0,0,0,69,19.76Z"/></clipPath><clipPath id="clip-path-16"><path class="cls-1" d="M23.77,21.83a3.18,3.18,0,0,0-2.85,0V20.19a3.12,3.12,0,0,1,2.85,0Z"/></clipPath><clipPath id="clip-path-17"><path class="cls-1" d="M20.61,22a1,1,0,0,0-.58.82V21.19a1,1,0,0,1,.59-.82Z"/></clipPath><clipPath id="clip-path-18"><path class="cls-1" d="M20,22.83V21.19a1,1,0,0,0,.59.83v1.64A1,1,0,0,1,20,22.83Z"/></clipPath><clipPath id="clip-path-19"><path class="cls-1" d="M69.39,23.33V25a1,1,0,0,0-.59-.83V22.5A1,1,0,0,1,69.39,23.33Z"/></clipPath><clipPath id="clip-path-20"><path class="cls-1" d="M85.76,21.51v1.64a2.82,2.82,0,0,1-1.64,2.3V23.8A2.79,2.79,0,0,0,85.76,21.51Z"/></clipPath><clipPath id="clip-path-21"><path class="cls-1" d="M69.39,23.33V25a1,1,0,0,1-.58.83V24.15A1,1,0,0,0,69.39,23.33Z"/></clipPath><clipPath id="clip-path-22"><path class="cls-1" d="M68.5,24.33V26a3.09,3.09,0,0,1-2.84,0V24.33A3.18,3.18,0,0,0,68.5,24.33Z"/></clipPath><clipPath id="clip-path-23"><path class="cls-1" d="M11.71,28.84a3.12,3.12,0,0,0-2.85,0c0-.48,0-1,0-1.45V27.2a3.09,3.09,0,0,1,2.84,0Z"/></clipPath><clipPath id="clip-path-24"><path class="cls-1" d="M8.56,29a1,1,0,0,0-.59.82V28.2a1,1,0,0,1,.58-.83Z"/></clipPath><clipPath id="clip-path-25"><path class="cls-1" d="M8,29.84V28.2a1,1,0,0,0,.59.83v1.64A1,1,0,0,1,8,29.84Z"/></clipPath><clipPath id="clip-path-26"><path class="cls-1" d="M0,29.82V28.18A2.83,2.83,0,0,0,1.67,30.5v1.65A2.83,2.83,0,0,1,0,29.82Z"/></clipPath><clipPath id="clip-path-27"><path class="cls-1" d="M61.54,33.2a1,1,0,0,0-.6-.83c0-.49,0-1,0-1.45v-.2a1,1,0,0,1,.6.84Z"/></clipPath><clipPath id="clip-path-28"><path class="cls-1" d="M19.48,32.16v1.65a1,1,0,0,0-.59-.83V31.33A1,1,0,0,1,19.48,32.16Z"/></clipPath><clipPath id="clip-path-29"><path class="cls-1" d="M61.55,31.56V33.2A1,1,0,0,1,61,34V32.38A1,1,0,0,0,61.55,31.56Z"/></clipPath><clipPath id="clip-path-30"><path class="cls-1" d="M60.66,32.55V34.2a3.15,3.15,0,0,1-2.85,0V32.55A3.14,3.14,0,0,0,60.66,32.55Z"/></clipPath><clipPath id="clip-path-31"><path class="cls-1" d="M19.48,32.16v1.65a1,1,0,0,1-.59.82V33A1,1,0,0,0,19.48,32.16Z"/></clipPath><clipPath id="clip-path-32"><path class="cls-1" d="M18.59,33.16V34.8a3.15,3.15,0,0,1-2.85,0V33.16A3.14,3.14,0,0,0,18.59,33.16Z"/></clipPath><clipPath id="clip-path-33"><path class="cls-1" d="M56.83,35.94a1,1,0,0,0-.6-.83V33.46a1,1,0,0,1,.6.84Z"/></clipPath><clipPath id="clip-path-34"><path class="cls-1" d="M56.83,34.3v1.64a1,1,0,0,1-.59.82V35.12A1,1,0,0,0,56.83,34.3Z"/></clipPath><clipPath id="clip-path-35"><path class="cls-1" d="M55.94,35.3v1.64a3.18,3.18,0,0,1-2.85,0V35.29A3.15,3.15,0,0,0,55.94,35.3Z"/></clipPath><clipPath id="clip-path-36"><path class="cls-1" d="M52.11,37v1.64a1,1,0,0,0-.6-.83V36.21A1,1,0,0,1,52.11,37Z"/></clipPath><clipPath id="clip-path-37"><path class="cls-1" d="M52.11,37v1.64a1,1,0,0,1-.59.82V37.86A1,1,0,0,0,52.11,37Z"/></clipPath><clipPath id="clip-path-38"><path class="cls-1" d="M51.22,38v1.64a3.14,3.14,0,0,1-2.86,0V38A3.18,3.18,0,0,0,51.22,38Z"/></clipPath><clipPath id="clip-path-39"><path class="cls-1" d="M32.29,40.72a3.15,3.15,0,0,0-2.85,0V39.08a3.12,3.12,0,0,1,2.85,0Z"/></clipPath><clipPath id="clip-path-40"><path class="cls-1" d="M29.13,40.9a1,1,0,0,0-.58.82V40.07a1,1,0,0,1,.59-.82Z"/></clipPath><clipPath id="clip-path-41"><path class="cls-1" d="M28.55,41.72V40.07a1,1,0,0,0,.6.84v1.64A1,1,0,0,1,28.55,41.72Z"/></clipPath><clipPath id="clip-path-42"><path class="cls-1" d="M40.05,44.05v1.64a1,1,0,0,0-.6-.83V43.21A1,1,0,0,1,40.05,44.05Z"/></clipPath><clipPath id="clip-path-43"><path class="cls-1" d="M40.05,44.05v1.64a1,1,0,0,1-.58.82V44.87A1,1,0,0,0,40.05,44.05Z"/></clipPath><clipPath id="clip-path-44"><path class="cls-1" d="M39.17,45v1.65a3.18,3.18,0,0,1-2.85,0V45A3.14,3.14,0,0,0,39.17,45Z"/></clipPath><clipPath id="clip-path-45"><path class="cls-1" d="M41.21,48.74v1.64a8.73,8.73,0,0,1-8,0V48.74A8.77,8.77,0,0,0,41.21,48.74Z"/></clipPath></defs><title>document_2</title><g id="Layer_2" data-name="Layer 2"><g id="document_network_2"><g id="document_2"><g class="cls-2"><g class="cls-2"><g class="cls-3"><g class="cls-2"><path class="cls-4" d="M55.27,9.83v1.65a2,2,0,0,0-.29-.14V9.69l.29.14"/><path class="cls-5" d="M55,9.69v1.65l-.24-.08V9.61l.25.08"/><path class="cls-6" d="M54.73,9.61v1.65l-.21-.06V9.56l.21,0"/><path class="cls-7" d="M54.52,9.56V11.2l-.2,0V9.52l.2,0"/><path class="cls-8" d="M54.32,9.52v1.65l-.2,0V9.5l.2,0"/><path class="cls-9" d="M54.12,9.5v1.65h-.2V9.49h.2"/><path class="cls-10" d="M53.92,9.49v1.65h-.21V9.49h.2"/><path class="cls-11" d="M53.72,9.49v1.65h-.22V9.51l.23,0"/><path class="cls-12" d="M53.49,9.51v1.64l-.26,0V9.54l.25,0"/><path class="cls-13" d="M53.24,9.54v1.65a2.34,2.34,0,0,0-.38.09V9.64l.38-.1"/><path class="cls-14" d="M52.86,9.64v1.64a2.19,2.19,0,0,0-.44.2V9.83a2,2,0,0,1,.44-.19"/></g></g></g><polygon class="cls-15" points="52.42 9.83 52.41 11.47 52.11 11.65 52.11 10.01 52.42 9.83"/><g class="cls-2"><g class="cls-16"><g class="cls-2"><path class="cls-4" d="M47.38,10.14v1.64l-.29-.14V10a1.3,1.3,0,0,1,.29.14"/><path class="cls-5" d="M47.09,10v1.64l-.24-.08V9.92l.24.08"/><path class="cls-6" d="M46.85,9.92v1.64l-.21-.05V9.86l.21.06"/><path class="cls-7" d="M46.64,9.86v1.65l-.2,0V9.83l.2,0"/><path class="cls-8" d="M46.44,9.83v1.64l-.2,0V9.81l.19,0"/><path class="cls-9" d="M46.25,9.81v1.64H46V9.8h.2"/><path class="cls-10" d="M46.05,9.8v1.64h-.2V9.8h.21"/><path class="cls-11" d="M45.84,9.8v1.64l-.23,0V9.81h.22"/><path class="cls-12" d="M45.62,9.81v1.65l-.26,0V9.85l.26,0"/><path class="cls-13" d="M45.36,9.85v1.64l-.38.1V9.94a2.74,2.74,0,0,1,.39-.09"/><path class="cls-14" d="M45,9.94v1.65a2,2,0,0,0-.44.19V10.14a2.94,2.94,0,0,1,.44-.2"/></g></g></g><polygon class="cls-15" points="44.53 10.14 44.53 11.78 44.22 11.96 44.23 10.31 44.53 10.14"/><g class="cls-2"><g class="cls-17"><g class="cls-2"><path class="cls-14" d="M52.11,10v1.64l0,0V10h0"/><path class="cls-13" d="M52.09,10v1.65a1.6,1.6,0,0,0-.25.18V10.21a1.26,1.26,0,0,1,.25-.19"/><path class="cls-12" d="M51.84,10.21v1.64a.75.75,0,0,0-.12.14V10.34a1.59,1.59,0,0,1,.13-.13"/><path class="cls-11" d="M51.71,10.34V12a.83.83,0,0,0-.08.12V10.46a.83.83,0,0,1,.08-.12"/><path class="cls-10" d="M51.63,10.46v1.65a.6.6,0,0,0-.06.11V10.58a.61.61,0,0,1,.05-.12"/><path class="cls-9" d="M51.58,10.58v1.64l0,.12V10.69a.49.49,0,0,1,0-.11"/><path class="cls-8" d="M51.54,10.69v1.65a.37.37,0,0,0,0,.11V10.81s0-.08,0-.12"/><path class="cls-7" d="M51.53,10.81v0"/></g></g></g><g class="cls-2"><g class="cls-18"><g class="cls-2"><path class="cls-14" d="M44.23,10.32V12h0V10.33h0"/><path class="cls-13" d="M44.2,10.33V12a2.93,2.93,0,0,0-.26.19V10.52a1.64,1.64,0,0,1,.25-.19"/><path class="cls-12" d="M44,10.52v1.64a1.49,1.49,0,0,0-.12.14V10.65a1.59,1.59,0,0,1,.13-.13"/><path class="cls-11" d="M43.82,10.65V12.3a.83.83,0,0,0-.08.12V10.77l.08-.12"/><path class="cls-10" d="M43.74,10.77v1.65l-.06.11V10.89a.61.61,0,0,1,.05-.12"/><path class="cls-9" d="M43.69,10.89v1.64l0,.11V11a.23.23,0,0,1,0-.11"/><path class="cls-8" d="M43.66,11v1.64a.49.49,0,0,0,0,.12V11.12a.5.5,0,0,1,0-.12"/><path class="cls-7" d="M43.64,11.12v0h0"/></g></g></g><g class="cls-2"><g class="cls-19"><g class="cls-2"><path class="cls-20" d="M52.13,11.66V13.3a1,1,0,0,1-.59-.83V10.83a1,1,0,0,0,.6.83"/></g></g></g><g class="cls-2"><g class="cls-21"><g class="cls-2"><path class="cls-20" d="M44.24,12v1.64a1,1,0,0,1-.59-.83V11.13a1,1,0,0,0,.6.84"/></g></g></g><g class="cls-2"><g class="cls-22"><g class="cls-2"><path class="cls-4" d="M33.21,14.71v1.64l-.29-.14V14.57a2.75,2.75,0,0,1,.3.14"/><path class="cls-5" d="M32.91,14.57v1.64l-.25-.08V14.49l.24.08"/><path class="cls-6" d="M32.67,14.49v1.64l-.21-.05V14.43l.21.06"/><path class="cls-7" d="M32.46,14.43v1.65l-.19,0V14.4l.2,0"/><path class="cls-8" d="M32.26,14.4V16l-.2,0V14.38l.2,0"/><path class="cls-9" d="M32.06,14.38V16h-.2V14.37h.19"/><path class="cls-10" d="M31.87,14.37V16h-.21V14.37h.21"/><path class="cls-11" d="M31.66,14.37V16l-.22,0V14.38h.22"/><path class="cls-12" d="M31.44,14.38V16l-.26,0V14.42l.26,0"/><path class="cls-13" d="M31.18,14.42v1.64l-.38.1V14.51a2.34,2.34,0,0,1,.38-.09"/><path class="cls-14" d="M30.8,14.51v1.65a2.44,2.44,0,0,0-.44.19V14.71a2,2,0,0,1,.44-.2"/></g></g></g><polygon class="cls-15" points="30.36 14.71 30.35 16.35 30.05 16.53 30.05 14.88 30.36 14.71"/><g class="cls-2"><g class="cls-23"><g class="cls-2"><path class="cls-14" d="M30.05,14.88v1.65h0V14.9l0,0"/><path class="cls-13" d="M30,14.9v1.64a1.64,1.64,0,0,0-.25.19V15.09A1.74,1.74,0,0,1,30,14.9"/><path class="cls-12" d="M29.77,15.09v1.64a.86.86,0,0,0-.13.14V15.22l.12-.13"/><path class="cls-11" d="M29.65,15.22v1.65a.62.62,0,0,0-.08.12V15.34l.08-.12"/><path class="cls-10" d="M29.57,15.34V17a.37.37,0,0,0,0,.11V15.46l.06-.12"/><path class="cls-9" d="M29.51,15.46V17.1a.61.61,0,0,0,0,.11V15.57l0-.11"/><path class="cls-8" d="M29.48,15.57v1.64a.5.5,0,0,0,0,.12V15.69a.49.49,0,0,1,0-.12"/><path class="cls-7" d="M29.47,15.69v0h0"/></g></g></g><g class="cls-2"><g class="cls-24"><g class="cls-2"><path class="cls-20" d="M30.06,16.53v1.65a1,1,0,0,1-.6-.83V15.7a1,1,0,0,0,.59.83"/></g></g></g><g class="cls-2"><g class="cls-25"><g class="cls-2"><path class="cls-4" d="M28.49,17.45v1.64a2.75,2.75,0,0,0-.3-.14V17.31l.29.14"/><path class="cls-5" d="M28.2,17.31V19L28,18.87V17.23l.25.08"/><path class="cls-6" d="M28,17.23v1.64l-.21-.05V17.17l.21.06"/><path class="cls-7" d="M27.74,17.17v1.65l-.2,0V17.14l.2,0"/><path class="cls-8" d="M27.54,17.14v1.64l-.2,0V17.12l.19,0"/><path class="cls-9" d="M27.35,17.12v1.64h-.19V17.11h.2"/><path class="cls-10" d="M27.15,17.11v1.64h-.21V17.11h.21"/><path class="cls-11" d="M26.94,17.11v1.64l-.22,0V17.12h.22"/><path class="cls-12" d="M26.72,17.12v1.65l-.26,0V17.16l.26,0"/><path class="cls-13" d="M26.46,17.16V18.8l-.38.1V17.25a2.62,2.62,0,0,1,.38-.09"/><path class="cls-14" d="M26.08,17.25V18.9a2,2,0,0,0-.44.19V17.45a2.19,2.19,0,0,1,.44-.2"/></g></g></g><polygon class="cls-15" points="25.64 17.45 25.64 19.09 25.33 19.27 25.33 17.63 25.64 17.45"/><polygon class="cls-26" points="69.29 17.93 69.29 19.57 55.26 11.48 55.27 9.83 69.29 17.93"/><g class="cls-2"><g class="cls-27"><g class="cls-2"><path class="cls-14" d="M25.33,17.63v1.64h0V17.64h0"/><path class="cls-13" d="M25.31,17.64v1.64a2,2,0,0,0-.26.19V17.83a1.74,1.74,0,0,1,.26-.19"/><path class="cls-12" d="M25.05,17.83v1.64l-.13.14V18l.12-.13"/><path class="cls-11" d="M24.93,18v1.65l-.08.12V18.08l.08-.12"/><path class="cls-10" d="M24.85,18.08v1.65a.54.54,0,0,0-.05.11V18.2l.06-.12"/><path class="cls-9" d="M24.79,18.2v1.64l0,.12V18.31l0-.11"/><path class="cls-8" d="M24.76,18.31V20s0,.07,0,.11V18.43a.49.49,0,0,1,0-.12"/><path class="cls-7" d="M24.75,18.43v0"/></g></g></g><g class="cls-2"><g class="cls-28"><g class="cls-2"><path class="cls-4" d="M69.89,18.76v1.65a1,1,0,0,0-.59-.84V17.93a1,1,0,0,1,.6.83"/></g></g></g><g class="cls-2"><g class="cls-29"><g class="cls-2"><path class="cls-20" d="M25.34,19.28v1.64a1,1,0,0,1-.6-.83V18.45a1,1,0,0,0,.59.83"/></g></g></g><g class="cls-2"><g class="cls-30"><g class="cls-2"><path class="cls-31" d="M69.89,18.76v1.65h0V18.76"/><path class="cls-32" d="M69.89,18.78v1.64a.49.49,0,0,1,0,.12V18.89a.36.36,0,0,0,0-.11"/><path class="cls-33" d="M69.87,18.89v1.65l0,.11V19a.27.27,0,0,0,0-.12"/><path class="cls-34" d="M69.84,19v1.64l-.06.12V19.12a.54.54,0,0,0,0-.11"/><path class="cls-35" d="M69.79,19.12v1.65a.83.83,0,0,1-.08.12V19.24l.08-.12"/><path class="cls-36" d="M69.71,19.24v1.65l-.12.13V19.38l.13-.14"/><path class="cls-37" d="M69.58,19.38V21a1.74,1.74,0,0,1-.26.19V19.57l.25-.19"/><path class="cls-38" d="M69.33,19.57v1.64h0V19.58h0"/></g></g></g><polygon class="cls-39" points="69.3 19.58 69.3 21.22 68.99 21.4 69 19.76 69.3 19.58"/><polygon class="cls-40" points="66.15 19.76 66.15 21.4 52.12 13.3 52.13 11.66 66.15 19.76"/><g class="cls-2"><g class="cls-41"><g class="cls-2"><path class="cls-38" d="M69,19.76V21.4a2,2,0,0,1-.44.19V20a2.92,2.92,0,0,0,.44-.19"/><path class="cls-37" d="M68.56,20v1.64a2.36,2.36,0,0,1-.38.1V20.05l.38-.1"/><path class="cls-36" d="M68.18,20.05v1.64l-.26,0V20.08l.26,0"/><path class="cls-35" d="M67.92,20.08v1.65h-.22V20.1l.22,0"/><path class="cls-34" d="M67.7,20.1v1.64h-.2V20.1h.21"/><path class="cls-33" d="M67.49,20.1v1.64h-.2V20.09h.2"/><path class="cls-32" d="M67.29,20.09v1.64l-.2,0V20.06l.19,0"/><path class="cls-31" d="M67.1,20.06v1.65l-.2,0V20a1.2,1.2,0,0,0,.2,0"/><path class="cls-42" d="M66.9,20v1.64l-.21-.05V20l.21.05"/><path class="cls-43" d="M66.69,20v1.64l-.24-.08V19.9l.25.08"/><path class="cls-20" d="M66.44,19.9v1.64a2,2,0,0,1-.29-.14V19.76l.29.14"/></g></g></g><path class="cls-44" d="M69.29,17.93c.79.46.8,1.19,0,1.65l-.3.18a3.18,3.18,0,0,1-2.85,0l-14-8.1c-.79-.46-.8-1.2,0-1.65l.31-.18a3.18,3.18,0,0,1,2.85,0Z"/><g class="cls-2"><g class="cls-45"><g class="cls-2"><path class="cls-4" d="M23.77,20.19v1.64a2.75,2.75,0,0,0-.3-.14V20.05l.29.14"/><path class="cls-5" d="M23.48,20.05v1.64l-.24-.08V20l.25.08"/><path class="cls-6" d="M23.23,20v1.64L23,21.56V19.92l.21,0"/><path class="cls-7" d="M23,19.92v1.64l-.2,0V19.88l.19,0"/><path class="cls-8" d="M22.83,19.88v1.65l-.2,0V19.86l.2,0"/><path class="cls-9" d="M22.63,19.86V21.5h-.19V19.85h.2"/><path class="cls-10" d="M22.43,19.85v1.64h-.21V19.85h.2"/><path class="cls-11" d="M22.23,19.85v1.64l-.22,0V19.87l.23,0"/><path class="cls-12" d="M22,19.87v1.64l-.26,0V19.9l.25,0"/><path class="cls-13" d="M21.75,19.9v1.64l-.38.1V20a2.48,2.48,0,0,1,.39-.1"/><path class="cls-14" d="M21.36,20v1.64a2.53,2.53,0,0,0-.44.19V20.19a2.44,2.44,0,0,1,.44-.19"/></g></g></g><polygon class="cls-15" points="20.92 20.19 20.92 21.83 20.61 22.01 20.62 20.37 20.92 20.19"/><g class="cls-2"><g class="cls-46"><g class="cls-2"><path class="cls-14" d="M20.62,20.37V22h0V20.38h0"/><path class="cls-13" d="M20.59,20.38V22a2.93,2.93,0,0,0-.26.19V20.57a1.64,1.64,0,0,1,.25-.19"/><path class="cls-12" d="M20.34,20.57v1.64a1.49,1.49,0,0,0-.12.14V20.71a.86.86,0,0,1,.13-.14"/><path class="cls-11" d="M20.21,20.71v1.64a.83.83,0,0,0-.08.12V20.83a.5.5,0,0,1,.08-.12"/><path class="cls-10" d="M20.13,20.83v1.64l-.06.12V20.94a.37.37,0,0,1,.05-.11"/><path class="cls-9" d="M20.08,20.94v1.65l0,.11V21.06a.27.27,0,0,1,0-.12"/><path class="cls-8" d="M20.05,21.06V22.7a.49.49,0,0,0,0,.12V21.17a.36.36,0,0,1,0-.11"/><path class="cls-7" d="M20,21.17v1.65h0V21.17"/></g></g></g><g class="cls-2"><g class="cls-47"><g class="cls-2"><path class="cls-20" d="M20.62,22v1.64a1,1,0,0,1-.59-.83V21.19a1,1,0,0,0,.59.83"/></g></g></g><polygon class="cls-26" points="68.8 22.5 68.79 24.14 47.38 11.78 47.38 10.14 68.8 22.5"/><g class="cls-2"><g class="cls-48"><g class="cls-2"><path class="cls-4" d="M69.39,23.33V25a1,1,0,0,0-.59-.83V22.5a1,1,0,0,1,.59.83"/></g></g></g><g class="cls-2"><g class="cls-49"><g class="cls-2"><path class="cls-7" d="M85.76,21.51v0"/><path class="cls-8" d="M85.76,21.56V23.2c0,.11,0,.22,0,.33V21.88a1.12,1.12,0,0,0,0-.32"/><path class="cls-9" d="M85.72,21.88v1.65a1.81,1.81,0,0,1-.09.31V22.2a1.68,1.68,0,0,0,.09-.32"/><path class="cls-10" d="M85.63,22.2v1.64a1.87,1.87,0,0,1-.15.32V22.52a2.3,2.3,0,0,0,.15-.32"/><path class="cls-11" d="M85.48,22.52v1.64a2.54,2.54,0,0,1-.23.34V22.86a3.26,3.26,0,0,0,.22-.34"/><path class="cls-12" d="M85.26,22.86V24.5a4,4,0,0,1-.35.38V23.23a3,3,0,0,0,.35-.37"/><path class="cls-13" d="M84.91,23.23v1.65a5.25,5.25,0,0,1-.71.53V23.76a3.73,3.73,0,0,0,.72-.53"/><path class="cls-14" d="M84.19,23.76v1.65l-.07,0V23.8l.07,0"/></g></g></g><g class="cls-2"><g class="cls-50"><g class="cls-2"><path class="cls-31" d="M69.39,23.33v0"/><path class="cls-32" d="M69.39,23.35V25a.49.49,0,0,1,0,.12V23.46s0-.07,0-.11"/><path class="cls-33" d="M69.38,23.46v1.65l0,.11V23.58a.56.56,0,0,0,0-.12"/><path class="cls-34" d="M69.34,23.58v1.64a.67.67,0,0,1-.06.12V23.69a.54.54,0,0,0,0-.11"/><path class="cls-35" d="M69.29,23.69v1.65a.83.83,0,0,1-.08.12V23.81l.08-.12"/><path class="cls-36" d="M69.21,23.81v1.65l-.12.13V24l.13-.14"/><path class="cls-37" d="M69.08,24v1.64a1.74,1.74,0,0,1-.26.19V24.14l.25-.19"/><path class="cls-38" d="M68.83,24.14v1.64l0,0V24.15h0"/></g></g></g><polygon class="cls-39" points="68.8 24.15 68.8 25.8 68.49 25.97 68.5 24.33 68.8 24.15"/><polygon class="cls-40" points="65.65 24.33 65.64 25.97 44.23 13.61 44.24 11.96 65.65 24.33"/><g class="cls-2"><g class="cls-51"><g class="cls-2"><path class="cls-38" d="M68.5,24.33V26a2.55,2.55,0,0,1-.44.2V24.52a2.17,2.17,0,0,0,.44-.19"/><path class="cls-37" d="M68.06,24.52v1.65a2.34,2.34,0,0,1-.38.09V24.62l.38-.1"/><path class="cls-36" d="M67.68,24.62v1.64l-.26,0V24.65l.26,0"/><path class="cls-35" d="M67.42,24.65V26.3h-.22V24.67l.22,0"/><path class="cls-34" d="M67.2,24.67v1.64H67V24.67h.21"/><path class="cls-33" d="M67,24.67v1.64h-.19V24.66H67"/><path class="cls-32" d="M66.79,24.66V26.3l-.2,0V24.64l.19,0"/><path class="cls-31" d="M66.6,24.64v1.64l-.2,0V24.6l.2,0"/><path class="cls-42" d="M66.4,24.6v1.64l-.21,0V24.55l.21.05"/><path class="cls-43" d="M66.19,24.55v1.64l-.24-.08V24.47l.25.08"/><path class="cls-20" d="M65.94,24.47v1.64a2,2,0,0,1-.29-.14V24.33l.29.14"/></g></g></g><path class="cls-44" d="M68.8,22.5a.87.87,0,0,1,0,1.65l-.3.18a3.18,3.18,0,0,1-2.85,0L44.24,12c-.79-.46-.8-1.2,0-1.65l.3-.18a3.12,3.12,0,0,1,2.85,0Z"/><g class="cls-2"><g class="cls-52"><g class="cls-2"><path class="cls-4" d="M11.71,27.2v1.64l-.29-.14V27.06a1.3,1.3,0,0,1,.29.14"/><path class="cls-5" d="M11.42,27.06V28.7l-.25-.08V27l.24.09"/><path class="cls-6" d="M11.18,27v1.65L11,28.57V26.92l.21,0"/><path class="cls-7" d="M11,26.92v1.65l-.2,0V26.89l.2,0"/><path class="cls-8" d="M10.77,26.89v1.64l-.19,0V26.87l.2,0"/><path class="cls-9" d="M10.57,26.87v1.64h-.2V26.86h.2"/><path class="cls-10" d="M10.37,26.86V28.5h-.21V26.86h.2"/><path class="cls-11" d="M10.17,26.86V28.5l-.22,0V26.87h.22"/><path class="cls-12" d="M10,26.87v1.65a2.3,2.3,0,0,0-.26,0V26.91l.26,0"/><path class="cls-13" d="M9.69,26.91v1.64a2.36,2.36,0,0,0-.38.1V27a2.34,2.34,0,0,1,.38-.09"/><path class="cls-14" d="M9.31,27v1.65a2.17,2.17,0,0,0-.44.19V27.2a2,2,0,0,1,.44-.2"/></g></g></g><polygon class="cls-15" points="8.87 27.2 8.86 28.84 8.56 29.02 8.56 27.37 8.87 27.2"/><g class="cls-2"><g class="cls-53"><g class="cls-2"><path class="cls-14" d="M8.56,27.37V29h0V27.39l0,0"/><path class="cls-13" d="M8.54,27.39V29a1.64,1.64,0,0,0-.25.19V27.58a1.34,1.34,0,0,1,.26-.19"/><path class="cls-12" d="M8.28,27.58v1.64a.86.86,0,0,0-.13.14V27.71l.12-.13"/><path class="cls-11" d="M8.16,27.71v1.65a.5.5,0,0,0-.08.12V27.83a.83.83,0,0,1,.08-.12"/><path class="cls-10" d="M8.08,27.83v1.65a.37.37,0,0,0-.05.11V28a.67.67,0,0,1,.06-.12"/><path class="cls-9" d="M8,28v1.64a.56.56,0,0,0,0,.12V28.06L8,28"/><path class="cls-8" d="M8,28.06v1.65s0,.07,0,.11V28.18a.49.49,0,0,1,0-.12"/><path class="cls-7" d="M8,28.18v0"/></g></g></g><g class="cls-2"><g class="cls-54"><g class="cls-2"><path class="cls-20" d="M8.57,29v1.64A1,1,0,0,1,8,29.84V28.2a1,1,0,0,0,.59.83"/></g></g></g><g class="cls-2"><g class="cls-55"><g class="cls-2"><path class="cls-4" d="M1.67,30.5v1.65A2.83,2.83,0,0,1,0,29.82V28.18A2.83,2.83,0,0,0,1.67,30.5"/></g></g></g><polygon class="cls-26" points="60.95 30.72 60.94 32.37 33.2 16.35 33.2 14.71 60.95 30.72"/><polygon class="cls-26" points="18.88 31.33 18.88 32.98 11.71 28.84 11.71 27.2 18.88 31.33"/><g class="cls-2"><g class="cls-56"><g class="cls-2"><path class="cls-4" d="M61.55,31.56V33.2a1,1,0,0,0-.6-.83V30.72a1,1,0,0,1,.6.84"/></g></g></g><g class="cls-2"><g class="cls-57"><g class="cls-2"><path class="cls-4" d="M19.48,32.16v1.65a1,1,0,0,0-.59-.83V31.33a1,1,0,0,1,.6.83"/></g></g></g><g class="cls-2"><g class="cls-58"><g class="cls-2"><path class="cls-31" d="M61.55,31.56v0"/><path class="cls-32" d="M61.55,31.58v1.64a.49.49,0,0,1,0,.12V31.69s0-.08,0-.11"/><path class="cls-33" d="M61.53,31.69v1.65a.76.76,0,0,1,0,.11V31.8l0-.11"/><path class="cls-34" d="M61.5,31.8v1.65a.37.37,0,0,1-.05.11V31.92a.61.61,0,0,0,0-.12"/><path class="cls-35" d="M61.45,31.92v1.64a.83.83,0,0,1-.08.12V32l.08-.12"/><path class="cls-36" d="M61.37,32v1.64l-.12.14V32.17a.8.8,0,0,0,.13-.13"/><path class="cls-37" d="M61.24,32.17v1.65A2.93,2.93,0,0,1,61,34V32.36a1.64,1.64,0,0,0,.25-.19"/><path class="cls-38" d="M61,32.36V34h0V32.38l0,0"/></g></g></g><polygon class="cls-39" points="60.96 32.38 60.96 34.02 60.65 34.2 60.66 32.55 60.96 32.38"/><polygon class="cls-40" points="57.8 32.55 57.8 34.19 30.06 18.18 30.06 16.53 57.8 32.55"/><path class="cls-44" d="M61,30.72a.88.88,0,0,1,0,1.66l-.3.17a3.14,3.14,0,0,1-2.86,0l-27.74-16a.87.87,0,0,1,0-1.65l.31-.17a3.09,3.09,0,0,1,2.84,0Z"/><g class="cls-2"><g class="cls-59"><g class="cls-2"><path class="cls-38" d="M60.66,32.55V34.2a2.53,2.53,0,0,1-.44.19V32.75a2.48,2.48,0,0,0,.44-.2"/><path class="cls-37" d="M60.22,32.75v1.64l-.38.1V32.84a2.62,2.62,0,0,0,.38-.09"/><path class="cls-36" d="M59.84,32.84v1.65l-.26,0V32.88l.26,0"/><path class="cls-35" d="M59.58,32.88v1.64l-.22,0V32.89h.22"/><path class="cls-34" d="M59.36,32.89v1.65h-.2V32.89h.21"/><path class="cls-33" d="M59.15,32.89v1.65H59V32.88h.2"/><path class="cls-32" d="M59,32.88v1.65l-.2,0V32.86l.19,0"/><path class="cls-31" d="M58.76,32.86V34.5l-.2,0V32.83l.2,0"/><path class="cls-42" d="M58.56,32.83v1.64l-.21,0V32.77l.22.06"/><path class="cls-43" d="M58.34,32.77v1.65a2.5,2.5,0,0,1-.25-.09V32.69l.24.08"/><path class="cls-20" d="M58.1,32.69v1.64a1.55,1.55,0,0,1-.29-.14V32.55l.3.14"/></g></g></g><g class="cls-2"><g class="cls-60"><g class="cls-2"><path class="cls-31" d="M19.48,32.16v0"/><path class="cls-32" d="M19.47,32.18v1.65s0,.07,0,.11V32.3a.49.49,0,0,0,0-.12"/><path class="cls-33" d="M19.46,32.3v1.64a.36.36,0,0,1,0,.11V32.41l0-.11"/><path class="cls-34" d="M19.43,32.41v1.64a.61.61,0,0,1-.05.12V32.53l.05-.12"/><path class="cls-35" d="M19.38,32.53v1.64l-.08.12V32.65a.94.94,0,0,0,.09-.12"/><path class="cls-36" d="M19.29,32.65v1.64a.8.8,0,0,1-.13.13V32.78a.71.71,0,0,0,.12-.13"/><path class="cls-37" d="M19.17,32.78v1.64a1.26,1.26,0,0,1-.25.19V33a1.34,1.34,0,0,0,.26-.19"/><path class="cls-38" d="M18.91,33v1.64l0,0V33h0"/></g></g></g><polygon class="cls-39" points="18.89 32.98 18.89 34.63 18.58 34.8 18.59 33.16 18.89 32.98"/><polygon class="cls-40" points="15.73 33.16 15.73 34.81 8.56 30.67 8.57 29.02 15.73 33.16"/><polygon class="cls-26" points="56.23 33.47 56.23 35.11 28.48 19.09 28.49 17.45 56.23 33.47"/><g class="cls-2"><g class="cls-61"><g class="cls-2"><path class="cls-38" d="M18.59,33.16V34.8a2,2,0,0,1-.44.2V33.35a2.25,2.25,0,0,0,.45-.19"/><path class="cls-37" d="M18.14,33.35V35a2.34,2.34,0,0,1-.38.09V33.45a2.36,2.36,0,0,0,.38-.1"/><path class="cls-36" d="M17.76,33.45v1.64l-.26,0V33.49l.26,0"/><path class="cls-35" d="M17.5,33.49v1.64h-.23V33.5h.22"/><path class="cls-34" d="M17.28,33.5v1.64h-.2V33.5h.21"/><path class="cls-33" d="M17.07,33.5v1.65h-.2V33.49h.2"/><path class="cls-32" d="M16.87,33.49v1.65l-.2,0V33.47l.19,0"/><path class="cls-31" d="M16.68,33.47v1.64l-.2,0V33.43l.2,0"/><path class="cls-42" d="M16.48,33.43v1.65l-.21,0V33.38l.21,0"/><path class="cls-43" d="M16.27,33.38V35L16,34.94V33.3l.25.08"/><path class="cls-20" d="M16,33.3v1.64l-.29-.13V33.16l.29.14"/></g></g></g><path class="cls-44" d="M18.88,31.33a.87.87,0,0,1,0,1.65l-.3.18a3.14,3.14,0,0,1-2.86,0L8.57,29a.88.88,0,0,1,0-1.66l.31-.17a3.09,3.09,0,0,1,2.84,0Z"/><g class="cls-2"><g class="cls-62"><g class="cls-2"><path class="cls-4" d="M56.83,34.3v1.64a1,1,0,0,0-.6-.83V33.46a1,1,0,0,1,.6.84"/></g></g></g><g class="cls-2"><g class="cls-63"><g class="cls-2"><path class="cls-31" d="M56.83,34.3v0"/><path class="cls-32" d="M56.83,34.32V36s0,.08,0,.12V34.43s0-.08,0-.11"/><path class="cls-33" d="M56.82,34.43v1.65l0,.11V34.54a.36.36,0,0,0,0-.11"/><path class="cls-34" d="M56.78,34.54v1.65a.37.37,0,0,1-.05.11V34.66a.61.61,0,0,0,.05-.12"/><path class="cls-35" d="M56.73,34.66V36.3l-.08.12V34.78a.83.83,0,0,0,.08-.12"/><path class="cls-36" d="M56.65,34.78v1.64l-.13.14V34.91l.12-.13"/><path class="cls-37" d="M56.53,34.91v1.65l-.25.19V35.1a1.74,1.74,0,0,0,.26-.19"/><path class="cls-38" d="M56.27,35.1v1.65h0V35.12l0,0"/></g></g></g><polygon class="cls-39" points="56.24 35.12 56.24 36.76 55.93 36.94 55.94 35.3 56.24 35.12"/><polygon class="cls-40" points="53.09 35.29 53.08 36.94 25.34 20.92 25.34 19.28 53.09 35.29"/><g class="cls-2"><g class="cls-64"><g class="cls-2"><path class="cls-38" d="M55.94,35.3v1.64a2,2,0,0,1-.44.19V35.49a2.92,2.92,0,0,0,.44-.19"/><path class="cls-37" d="M55.5,35.49v1.64l-.38.1V35.58a2.62,2.62,0,0,0,.38-.09"/><path class="cls-36" d="M55.12,35.58v1.65l-.25,0V35.62l.26,0"/><path class="cls-35" d="M54.86,35.62v1.64l-.23,0V35.64l.22,0"/><path class="cls-34" d="M54.64,35.64v1.64h-.2V35.64h.21"/><path class="cls-33" d="M54.43,35.64v1.64h-.2V35.63h.2"/><path class="cls-32" d="M54.23,35.63v1.64l-.2,0V35.6l.19,0"/><path class="cls-31" d="M54,35.6v1.65l-.2,0V35.57l.2,0"/><path class="cls-42" d="M53.84,35.57v1.64l-.21-.05V35.52l.21,0"/><path class="cls-43" d="M53.63,35.52v1.64l-.25-.08V35.43a1.84,1.84,0,0,0,.25.09"/><path class="cls-20" d="M53.38,35.43v1.65l-.29-.14V35.29a1.55,1.55,0,0,0,.29.14"/></g></g></g><path class="cls-44" d="M56.23,33.46a.88.88,0,0,1,0,1.66l-.31.18a3.15,3.15,0,0,1-2.85,0l-27.75-16a.87.87,0,0,1,0-1.65l.31-.18a3.12,3.12,0,0,1,2.85,0Z"/><polygon class="cls-26" points="51.51 36.21 51.51 37.85 23.77 21.83 23.77 20.19 51.51 36.21"/><g class="cls-2"><g class="cls-65"><g class="cls-2"><path class="cls-4" d="M52.11,37v1.64a1,1,0,0,0-.6-.83V36.21a1,1,0,0,1,.6.83"/></g></g></g><g class="cls-2"><g class="cls-66"><g class="cls-2"><path class="cls-31" d="M52.11,37v0"/><path class="cls-32" d="M52.11,37.06V38.7a.5.5,0,0,1,0,.12V37.17a.37.37,0,0,0,0-.11"/><path class="cls-33" d="M52.1,37.17v1.65a.45.45,0,0,1,0,.11V37.29l0-.12"/><path class="cls-34" d="M52.07,37.29v1.64a.61.61,0,0,1-.05.12V37.4l.06-.11"/><path class="cls-35" d="M52,37.4v1.65l-.08.12V37.52A.83.83,0,0,0,52,37.4"/><path class="cls-36" d="M51.93,37.52v1.65a1.59,1.59,0,0,1-.13.13V37.66l.12-.14"/><path class="cls-37" d="M51.81,37.66V39.3a1.64,1.64,0,0,1-.25.19V37.85a2.93,2.93,0,0,0,.26-.19"/><path class="cls-38" d="M51.55,37.85v1.64h0V37.86h0"/></g></g></g><polygon class="cls-39" points="51.53 37.86 51.52 39.5 51.22 39.68 51.22 38.04 51.53 37.86"/><polygon class="cls-40" points="48.37 38.04 48.36 39.68 20.62 23.66 20.62 22.02 48.37 38.04"/><path class="cls-44" d="M51.51,36.21c.8.46.8,1.19,0,1.65l-.31.18a3.18,3.18,0,0,1-2.85,0L20.62,22a.87.87,0,0,1,0-1.65l.3-.18a3.12,3.12,0,0,1,2.85,0Z"/><g class="cls-2"><g class="cls-67"><g class="cls-2"><path class="cls-38" d="M51.22,38v1.64a2.44,2.44,0,0,1-.44.19V38.23a2.53,2.53,0,0,0,.44-.19"/><path class="cls-37" d="M50.78,38.23v1.64a2.48,2.48,0,0,1-.39.1V38.33l.38-.1"/><path class="cls-36" d="M50.4,38.33V40l-.25,0V38.36l.26,0"/><path class="cls-35" d="M50.14,38.36V40h-.23V38.38l.22,0"/><path class="cls-34" d="M49.92,38.38V40H49.7V38.38h.21"/><path class="cls-33" d="M49.71,38.38V40h-.19V38.37h.2"/><path class="cls-32" d="M49.51,38.37V40l-.2,0V38.34l.2,0"/><path class="cls-31" d="M49.31,38.34V40l-.2,0V38.31l.2,0"/><path class="cls-42" d="M49.11,38.31V40l-.21-.05V38.26l.21.05"/><path class="cls-43" d="M48.9,38.26V39.9l-.25-.08V38.18l.24.08"/><path class="cls-20" d="M48.66,38.18v1.64l-.29-.14V38l.29.14"/></g></g></g><g class="cls-2"><g class="cls-68"><g class="cls-2"><path class="cls-4" d="M32.29,39.08v1.64L32,40.58V38.94a2,2,0,0,1,.29.14"/><path class="cls-5" d="M32,38.94v1.64l-.25-.08V38.86l.24.08"/><path class="cls-6" d="M31.76,38.86V40.5l-.21,0V38.8l.21.06"/><path class="cls-7" d="M31.55,38.8v1.65l-.2,0V38.77l.2,0"/><path class="cls-8" d="M31.35,38.77v1.64l-.2,0V38.75l.2,0"/><path class="cls-9" d="M31.15,38.75v1.64h-.2V38.74h.2"/><path class="cls-10" d="M31,38.74v1.64h-.2V38.74a1.47,1.47,0,0,1,.21,0"/><path class="cls-11" d="M30.74,38.74v1.64l-.23,0V38.75h.22"/><path class="cls-12" d="M30.52,38.75V40.4l-.25,0V38.79l.26,0"/><path class="cls-13" d="M30.26,38.79v1.64l-.38.1V38.88a2.34,2.34,0,0,1,.38-.09"/><path class="cls-14" d="M29.88,38.88v1.65a2,2,0,0,0-.44.19V39.08a2.19,2.19,0,0,1,.44-.2"/></g></g></g><polygon class="cls-15" points="29.44 39.08 29.44 40.72 29.13 40.9 29.14 39.25 29.44 39.08"/><g class="cls-2"><g class="cls-69"><g class="cls-2"><path class="cls-14" d="M29.14,39.25V40.9h0V39.27l0,0"/><path class="cls-13" d="M29.11,39.27v1.64a1.26,1.26,0,0,0-.25.19V39.45l.25-.18"/><path class="cls-12" d="M28.86,39.45V41.1l-.13.13V39.59l.13-.14"/><path class="cls-11" d="M28.73,39.59v1.64l-.08.12V39.71l.08-.12"/><path class="cls-10" d="M28.65,39.71v1.64l-.06.12V39.83a.61.61,0,0,1,0-.12"/><path class="cls-9" d="M28.6,39.83v1.64l0,.11V39.94a.35.35,0,0,1,0-.11"/><path class="cls-8" d="M28.57,39.94v1.64a.49.49,0,0,0,0,.12V40.06a.5.5,0,0,1,0-.12"/><path class="cls-7" d="M28.55,40.06v0h0"/></g></g></g><g class="cls-2"><g class="cls-70"><g class="cls-2"><path class="cls-20" d="M29.15,40.91v1.64a1,1,0,0,1-.59-.83V40.07a1,1,0,0,0,.6.84"/></g></g></g><polygon class="cls-26" points="39.46 43.21 39.45 44.86 32.29 40.72 32.29 39.08 39.46 43.21"/><g class="cls-2"><g class="cls-71"><g class="cls-2"><path class="cls-4" d="M40.05,44.05v1.64a1,1,0,0,0-.6-.83V43.21a1,1,0,0,1,.59.84"/></g></g></g><g class="cls-2"><g class="cls-72"><g class="cls-2"><path class="cls-31" d="M40.05,44.05v0"/><path class="cls-32" d="M40.05,44.07v1.64s0,.08,0,.11V44.18a.45.45,0,0,0,0-.11"/><path class="cls-33" d="M40,44.18v1.64a.56.56,0,0,1,0,.12V44.29l0-.11"/><path class="cls-34" d="M40,44.29v1.65a.54.54,0,0,1,0,.11V44.41l0-.12"/><path class="cls-35" d="M40,44.41v1.64a.83.83,0,0,1-.08.12V44.53a.94.94,0,0,0,.09-.12"/><path class="cls-36" d="M39.87,44.53v1.64l-.13.14V44.66a.71.71,0,0,0,.12-.13"/><path class="cls-37" d="M39.75,44.66v1.65a1.81,1.81,0,0,1-.25.19V44.85a1.34,1.34,0,0,0,.26-.19"/><path class="cls-38" d="M39.49,44.85V46.5h0V44.87l0,0"/></g></g></g><polygon class="cls-39" points="39.47 44.87 39.47 46.51 39.16 46.69 39.17 45.04 39.47 44.87"/><polygon class="cls-40" points="36.31 45.04 36.3 46.69 29.14 42.55 29.15 40.91 36.31 45.04"/><path class="cls-44" d="M39.46,43.21a.88.88,0,0,1,0,1.66l-.3.17a3.14,3.14,0,0,1-2.86,0l-7.16-4.13a.88.88,0,0,1,0-1.66l.3-.17a3.12,3.12,0,0,1,2.85,0Z"/><g class="cls-2"><g class="cls-73"><g class="cls-2"><path class="cls-38" d="M39.17,45v1.65a2.53,2.53,0,0,1-.44.19V45.24a2.28,2.28,0,0,0,.45-.2"/><path class="cls-37" d="M38.72,45.24v1.64l-.38.1V45.33a2.34,2.34,0,0,0,.38-.09"/><path class="cls-36" d="M38.34,45.33V47l-.26,0V45.37l.26,0"/><path class="cls-35" d="M38.08,45.37V47l-.23,0V45.38h.22"/><path class="cls-34" d="M37.86,45.38V47h-.2V45.38h.21"/><path class="cls-33" d="M37.65,45.38V47h-.2V45.37h.2"/><path class="cls-32" d="M37.45,45.37V47l-.2,0V45.35l.19,0"/><path class="cls-31" d="M37.26,45.35V47l-.2,0V45.32l.2,0"/><path class="cls-42" d="M37.06,45.32V47l-.21-.05V45.26l.21.06"/><path class="cls-43" d="M36.85,45.26v1.65l-.24-.08V45.18l.25.08"/><path class="cls-20" d="M36.6,45.18v1.65l-.29-.14V45l.29.14"/></g></g></g><polygon class="cls-15" points="84.12 23.8 84.12 25.45 41.21 50.38 41.21 48.74 84.12 23.8"/><polygon class="cls-26" points="33.26 48.74 33.25 50.38 1.66 32.15 1.67 30.5 33.26 48.74"/><path class="cls-74" d="M84.1,19.19c2.21,1.28,2.22,3.34,0,4.61L41.21,48.74a8.77,8.77,0,0,1-8,0L1.67,30.5c-2.21-1.27-2.22-3.33,0-4.61L44.55,1a8.75,8.75,0,0,1,8,0ZM55.94,35.3l.31-.18a.88.88,0,0,0,0-1.66l-27.74-16a3.12,3.12,0,0,0-2.85,0l-.31.18a.87.87,0,0,0,0,1.65l27.75,16a3.15,3.15,0,0,0,2.85,0M51.22,38l.31-.18c.78-.46.78-1.19,0-1.65l-27.74-16a3.12,3.12,0,0,0-2.85,0l-.3.18a.87.87,0,0,0,0,1.65L48.37,38a3.18,3.18,0,0,0,2.85,0m9.44-5.49.3-.17a.88.88,0,0,0,0-1.66l-27.74-16a3.12,3.12,0,0,0-2.85,0l-.31.17a.87.87,0,0,0,0,1.65l27.74,16a3.14,3.14,0,0,0,2.86,0M44.53,10.14l-.3.18c-.79.45-.78,1.19,0,1.65L65.65,24.33a3.18,3.18,0,0,0,2.85,0l.3-.18a.87.87,0,0,0,0-1.65L47.38,10.14a3.12,3.12,0,0,0-2.85,0m7.89-.31-.31.18c-.78.45-.77,1.19,0,1.65l14,8.1a3.18,3.18,0,0,0,2.85,0l.3-.18c.79-.46.78-1.19,0-1.65l-14-8.1a3.18,3.18,0,0,0-2.85,0M39.17,45l.3-.17a.88.88,0,0,0,0-1.66l-7.17-4.13a3.12,3.12,0,0,0-2.85,0l-.3.17a.88.88,0,0,0,0,1.66L36.31,45a3.14,3.14,0,0,0,2.86,0M18.59,33.16l.3-.18a.87.87,0,0,0,0-1.65L11.71,27.2a3.09,3.09,0,0,0-2.84,0l-.31.17a.88.88,0,0,0,0,1.66l7.16,4.13a3.14,3.14,0,0,0,2.86,0"/><g class="cls-2"><g class="cls-75"><g class="cls-2"><path class="cls-14" d="M41.21,48.74v1.64a7,7,0,0,1-1.24.55V49.28a6,6,0,0,0,1.23-.54"/><path class="cls-13" d="M40,49.28v1.65a7.46,7.46,0,0,1-1.06.26V49.55A8.81,8.81,0,0,0,40,49.28"/><path class="cls-12" d="M38.91,49.55v1.64c-.24,0-.48.08-.72.1V49.65l.72-.1"/><path class="cls-11" d="M38.19,49.65v1.64c-.21,0-.41,0-.62,0V49.69l.62,0"/><path class="cls-10" d="M37.57,49.69v1.64H37V49.69a5.42,5.42,0,0,0,.57,0"/><path class="cls-9" d="M37,49.69v1.65l-.55,0V49.66a5.25,5.25,0,0,0,.56,0"/><path class="cls-8" d="M36.44,49.66v1.65l-.55-.06V49.6a5,5,0,0,0,.54.06"/><path class="cls-7" d="M35.9,49.6v1.65l-.56-.1V49.51c.18,0,.37.07.56.09"/><path class="cls-6" d="M35.34,49.51v1.64L34.75,51V49.36c.19.06.39.1.59.15"/><path class="cls-5" d="M34.75,49.36V51a7,7,0,0,1-.69-.24V49.13c.22.09.45.16.68.23"/><path class="cls-4" d="M34.07,49.13v1.64a6,6,0,0,1-.81-.39V48.74a5.05,5.05,0,0,0,.81.39"/></g></g></g></g></g></g></g></svg>