<svg xmlns="http://www.w3.org/2000/svg" xmlns:xlink="http://www.w3.org/1999/xlink" viewBox="0 0 77.05 50.32"><defs><style>.cls-1{fill:none;}.cls-2{isolation:isolate;}.cls-3{fill:#5abd9f;}.cls-4{fill:#3f836f;}.cls-5{clip-path:url(#clip-path);}.cls-6{fill:#3d7f6b;}.cls-7{fill:#3f846f;}.cls-8{fill:#428973;}.cls-9{fill:#448e77;}.cls-10{fill:#46937c;}.cls-11{fill:#499880;}.cls-12{fill:#4b9d84;}.cls-13{fill:#4da288;}.cls-14{fill:#50a78c;}.cls-15{fill:#52ab90;}.cls-16{fill:#54b094;}.cls-17{clip-path:url(#clip-path-2);}.cls-18{fill:#000e21;}.cls-19{clip-path:url(#clip-path-3);}.cls-20{clip-path:url(#clip-path-4);}.cls-21{clip-path:url(#clip-path-5);}.cls-22{clip-path:url(#clip-path-6);}.cls-23{clip-path:url(#clip-path-7);}.cls-24{fill:#000e22;}.cls-25{fill:#001531;}.cls-26{fill:#001737;}.cls-27{clip-path:url(#clip-path-8);}.cls-28{clip-path:url(#clip-path-9);}.cls-29{clip-path:url(#clip-path-10);}.cls-30{clip-path:url(#clip-path-11);}.cls-31{clip-path:url(#clip-path-12);}.cls-32{clip-path:url(#clip-path-13);}.cls-33{clip-path:url(#clip-path-14);}.cls-34{clip-path:url(#clip-path-15);}.cls-35{clip-path:url(#clip-path-16);}.cls-36{fill:#001025;}.cls-37{fill:#001026;}.cls-38{fill:#001128;}.cls-39{fill:#001129;}.cls-40{fill:#00122a;}.cls-41{fill:#00122c;}.cls-42{fill:#00132d;}.cls-43{fill:#00132e;}.cls-44{fill:#000f24;}.cls-45{fill:#000f23;}.cls-46{clip-path:url(#clip-path-17);}.cls-47{clip-path:url(#clip-path-18);}.cls-48{clip-path:url(#clip-path-19);}.cls-49{clip-path:url(#clip-path-20);}.cls-50{clip-path:url(#clip-path-21);}.cls-51{clip-path:url(#clip-path-22);}.cls-52{clip-path:url(#clip-path-23);}.cls-53{clip-path:url(#clip-path-24);}.cls-54{clip-path:url(#clip-path-25);}.cls-55{clip-path:url(#clip-path-26);}.cls-56{clip-path:url(#clip-path-27);}.cls-57{clip-path:url(#clip-path-28);}.cls-58{clip-path:url(#clip-path-29);}.cls-59{clip-path:url(#clip-path-30);}.cls-60{clip-path:url(#clip-path-31);}.cls-61{clip-path:url(#clip-path-32);}.cls-62{clip-path:url(#clip-path-33);}.cls-63{clip-path:url(#clip-path-34);}.cls-64{clip-path:url(#clip-path-35);}.cls-65{clip-path:url(#clip-path-36);}.cls-66{fill:#fff;}.cls-67{fill:url(#linear-gradient);}.cls-68{fill:url(#linear-gradient-2);}</style><clipPath id="clip-path"><path class="cls-1" d="M29,13.78a1,1,0,0,0-.58.82V13a1,1,0,0,1,.58-.82,3.17,3.17,0,0,1,2.86,0v1.64A3.18,3.18,0,0,0,29,13.78Z"/></clipPath><clipPath id="clip-path-2"><path class="cls-1" d="M28.38,14.6V13a1,1,0,0,0,.6.83v1.64A1,1,0,0,1,28.38,14.6Z"/></clipPath><clipPath id="clip-path-3"><path class="cls-1" d="M53.68,14.88a1,1,0,0,0-.58.83V14.06a1,1,0,0,1,.59-.82,3.15,3.15,0,0,1,2.85,0v1.64A3.18,3.18,0,0,0,53.68,14.88Z"/></clipPath><clipPath id="clip-path-4"><path class="cls-1" d="M53.1,15.71V14.06a1,1,0,0,0,.59.83v1.65A1,1,0,0,1,53.1,15.71Z"/></clipPath><clipPath id="clip-path-5"><path class="cls-1" d="M24.7,16.26a1,1,0,0,0-.59.82V15.43a1,1,0,0,1,.58-.81,3.12,3.12,0,0,1,2.85,0v1.64A3.15,3.15,0,0,0,24.7,16.26Z"/></clipPath><clipPath id="clip-path-6"><path class="cls-1" d="M49.89,17.09a1,1,0,0,0-.58.82V16.26a1,1,0,0,1,.59-.82,3.18,3.18,0,0,1,2.85,0v1.65A3.12,3.12,0,0,0,49.89,17.09Z"/></clipPath><clipPath id="clip-path-7"><path class="cls-1" d="M24.11,17.08V15.43a1,1,0,0,0,.59.84v1.64A1,1,0,0,1,24.11,17.08Z"/></clipPath><clipPath id="clip-path-8"><path class="cls-1" d="M49.31,17.91V16.26a1,1,0,0,0,.6.83v1.65A1,1,0,0,1,49.31,17.91Z"/></clipPath><clipPath id="clip-path-9"><path class="cls-1" d="M20.43,18.74a1,1,0,0,0-.58.82V17.91a1,1,0,0,1,.59-.82,3.15,3.15,0,0,1,2.85,0v1.64A3.14,3.14,0,0,0,20.43,18.74Z"/></clipPath><clipPath id="clip-path-10"><path class="cls-1" d="M46.58,19a1,1,0,0,0-.59.82V18.19a1,1,0,0,1,.58-.82,3.15,3.15,0,0,1,2.85,0V19A3.16,3.16,0,0,0,46.58,19Z"/></clipPath><clipPath id="clip-path-11"><path class="cls-1" d="M19.85,19.56V17.91a1,1,0,0,0,.6.84v1.64A1,1,0,0,1,19.85,19.56Z"/></clipPath><clipPath id="clip-path-12"><path class="cls-1" d="M46,19.83V18.19a1,1,0,0,0,.59.83v1.64A1,1,0,0,1,46,19.83Z"/></clipPath><clipPath id="clip-path-13"><path class="cls-1" d="M16.17,21.21a1,1,0,0,0-.58.82V20.39a1,1,0,0,1,.58-.82,3.2,3.2,0,0,1,2.86,0v1.65A3.15,3.15,0,0,0,16.17,21.21Z"/></clipPath><clipPath id="clip-path-14"><path class="cls-1" d="M68.57,22.32a1,1,0,0,0-.59-.83V19.85a1,1,0,0,1,.6.83Z"/></clipPath><clipPath id="clip-path-15"><path class="cls-1" d="M15.59,22V20.39a1,1,0,0,0,.6.83v1.65A1,1,0,0,1,15.59,22Z"/></clipPath><clipPath id="clip-path-16"><path class="cls-1" d="M68.58,20.68v1.64a1,1,0,0,1-.58.82,3.14,3.14,0,0,1-2.86,0V21.5a3.15,3.15,0,0,0,2.85,0A1,1,0,0,0,68.58,20.68Z"/></clipPath><clipPath id="clip-path-17"><path class="cls-1" d="M64.78,24.53a1,1,0,0,0-.59-.84V22.05a1,1,0,0,1,.6.83Z"/></clipPath><clipPath id="clip-path-18"><path class="cls-1" d="M11.91,23.69a1,1,0,0,0-.59.82V22.87a1,1,0,0,1,.58-.82,3.15,3.15,0,0,1,2.85,0v1.64A3.18,3.18,0,0,0,11.91,23.69Z"/></clipPath><clipPath id="clip-path-19"><path class="cls-1" d="M11.32,24.51V22.87a1,1,0,0,0,.59.83v1.64A1,1,0,0,1,11.32,24.51Z"/></clipPath><clipPath id="clip-path-20"><path class="cls-1" d="M64.79,22.88v1.65a1,1,0,0,1-.58.81,3.12,3.12,0,0,1-2.85,0V23.7a3.12,3.12,0,0,0,2.85,0A1,1,0,0,0,64.79,22.88Z"/></clipPath><clipPath id="clip-path-21"><path class="cls-1" d="M61.46,26.45a1,1,0,0,0-.59-.83V24a1,1,0,0,1,.6.83Z"/></clipPath><clipPath id="clip-path-22"><path class="cls-1" d="M7.64,26.17a1,1,0,0,0-.58.82V25.34a1,1,0,0,1,.59-.81,3.12,3.12,0,0,1,2.85,0v1.64A3.17,3.17,0,0,0,7.64,26.17Z"/></clipPath><clipPath id="clip-path-23"><path class="cls-1" d="M61.47,24.81v1.64a1,1,0,0,1-.58.82,3.12,3.12,0,0,1-2.85,0V25.63a3.18,3.18,0,0,0,2.85,0A1,1,0,0,0,61.47,24.81Z"/></clipPath><clipPath id="clip-path-24"><path class="cls-1" d="M7.06,27V25.34a1,1,0,0,0,.6.84v1.64A1,1,0,0,1,7.06,27Z"/></clipPath><clipPath id="clip-path-25"><path class="cls-1" d="M57.2,28.93a1,1,0,0,0-.59-.83V26.46a1,1,0,0,1,.6.83Z"/></clipPath><clipPath id="clip-path-26"><path class="cls-1" d="M57.21,27.29v1.64a1,1,0,0,1-.58.82,3.12,3.12,0,0,1-2.85,0V28.11a3.18,3.18,0,0,0,2.85,0A1,1,0,0,0,57.21,27.29Z"/></clipPath><clipPath id="clip-path-27"><path class="cls-1" d="M52.94,31.41a1,1,0,0,0-.6-.83c0-.49,0-1,0-1.45v-.2a1,1,0,0,1,.59.83Z"/></clipPath><clipPath id="clip-path-28"><path class="cls-1" d="M52.94,29.76v1.65a1,1,0,0,1-.59.82,3.18,3.18,0,0,1-2.85,0V30.58a3.12,3.12,0,0,0,2.85,0A1,1,0,0,0,52.94,29.76Z"/></clipPath><clipPath id="clip-path-29"><path class="cls-1" d="M48.67,33.89a1,1,0,0,0-.59-.84V31.41a1,1,0,0,1,.6.83Z"/></clipPath><clipPath id="clip-path-30"><path class="cls-1" d="M48.68,32.24v1.65a1,1,0,0,1-.58.81,3.12,3.12,0,0,1-2.85,0V33.06a3.12,3.12,0,0,0,2.85,0A1,1,0,0,0,48.68,32.24Z"/></clipPath><clipPath id="clip-path-31"><path class="cls-1" d="M44.41,36.36a1,1,0,0,0-.59-.83V33.89a1,1,0,0,1,.6.83Z"/></clipPath><clipPath id="clip-path-32"><path class="cls-1" d="M44.42,34.72v1.64a1,1,0,0,1-.58.82,3.12,3.12,0,0,1-2.85,0V35.54a3.18,3.18,0,0,0,2.85,0A1,1,0,0,0,44.42,34.72Z"/></clipPath><clipPath id="clip-path-33"><path class="cls-1" d="M40.15,38.84a1,1,0,0,0-.6-.83c0-.48,0-1,0-1.45v-.19a1,1,0,0,1,.59.83Z"/></clipPath><clipPath id="clip-path-34"><path class="cls-1" d="M40.15,37.2v1.64a1,1,0,0,1-.59.82,3.12,3.12,0,0,1-2.85,0V38a3.18,3.18,0,0,0,2.85,0A1,1,0,0,0,40.15,37.2Z"/></clipPath><clipPath id="clip-path-35"><path class="cls-1" d="M35.88,41.32a1,1,0,0,0-.59-.83V38.84a1,1,0,0,1,.6.83Z"/></clipPath><clipPath id="clip-path-36"><path class="cls-1" d="M35.89,39.67v1.65a1,1,0,0,1-.58.82,3.18,3.18,0,0,1-2.85,0V40.49a3.09,3.09,0,0,0,2.84,0A1,1,0,0,0,35.89,39.67Z"/></clipPath><linearGradient id="linear-gradient" y1="36.83" x2="77.05" y2="36.83" gradientUnits="userSpaceOnUse"><stop offset="0" stop-color="#75f5ce"/><stop offset="1" stop-color="aqua"/></linearGradient><linearGradient id="linear-gradient-2" y1="32.8" x2="77.05" y2="32.8" xlink:href="#linear-gradient"/></defs><title>document_stack_3_3</title><g id="Layer_2" data-name="Layer 2"><g id="document_stack_3_3"><g id="document_stack_3_3-2" data-name="document_stack_3_3"><g class="cls-2"><polygon class="cls-3" points="41.75 4.71 41.75 6.35 31.8 12.13 31.81 10.49 41.75 4.71"/><polygon class="cls-4" points="52.72 11.04 52.72 12.68 41.75 6.35 41.75 4.71 52.72 11.04"/><g class="cls-2"><g class="cls-5"><g class="cls-2"><path class="cls-6" d="M31.82,12.14v1.64l-.29-.14V12l.29.14"/><path class="cls-7" d="M31.53,12v1.64l-.25-.08V11.92l.25.08"/><path class="cls-8" d="M31.28,11.92v1.64l-.21-.05V11.87l.21.05"/><path class="cls-9" d="M31.07,11.87v1.64a1.2,1.2,0,0,0-.2,0V11.83l.2,0"/><path class="cls-10" d="M30.87,11.83v1.65l-.19,0V11.81l.2,0"/><path class="cls-11" d="M30.67,11.81v1.64h-.2V11.8h.2"/><path class="cls-12" d="M30.47,11.8v1.64h-.21V11.8h.21"/><path class="cls-13" d="M30.26,11.8v1.64l-.22,0V11.81h.22"/><path class="cls-14" d="M30,11.81v1.65l-.26,0V11.85l.26,0"/><path class="cls-15" d="M29.78,11.85v1.64l-.38.1V12a2.66,2.66,0,0,1,.38-.1"/><path class="cls-16" d="M29.4,12v1.64a2,2,0,0,0-.44.19l0,0V12.15h0A2.44,2.44,0,0,1,29.4,12"/><path class="cls-15" d="M28.94,12.15V13.8l-.25.18V12.34a1.26,1.26,0,0,1,.25-.19"/><path class="cls-14" d="M28.69,12.34V14a.75.75,0,0,0-.12.14V12.47l.13-.13"/><path class="cls-13" d="M28.56,12.47v1.65a.83.83,0,0,0-.08.12V12.59l.08-.12"/><path class="cls-12" d="M28.48,12.59v1.65a.6.6,0,0,0-.06.11V12.71a.61.61,0,0,1,.05-.12"/><path class="cls-11" d="M28.43,12.71v1.64l0,.12V12.82a.49.49,0,0,1,0-.11"/><path class="cls-10" d="M28.39,12.82v1.65a.41.41,0,0,0,0,.11V12.94s0-.08,0-.12"/><path class="cls-9" d="M28.38,12.94v0"/></g></g></g><g class="cls-2"><g class="cls-17"><g class="cls-2"><path class="cls-18" d="M29,13.79v1.64a1,1,0,0,1-.59-.83V13a1,1,0,0,0,.6.83"/></g></g></g><g class="cls-2"><g class="cls-19"><g class="cls-2"><path class="cls-6" d="M56.54,13.24v1.64l-.29-.14V13.1l.29.14"/><path class="cls-7" d="M56.25,13.1v1.64L56,14.66V13l.25.08"/><path class="cls-8" d="M56,13v1.64l-.21-.05V13L56,13"/><path class="cls-9" d="M55.79,13v1.64l-.2,0V12.93l.2,0"/><path class="cls-10" d="M55.59,12.93v1.65l-.2,0V12.91l.19,0"/><path class="cls-11" d="M55.4,12.91v1.64h-.2V12.9h.2"/><path class="cls-12" d="M55.2,12.9v1.64H55V12.9h.21"/><path class="cls-13" d="M55,12.9v1.64l-.23,0V12.92l.22,0"/><path class="cls-14" d="M54.77,12.92v1.64l-.25,0V13a2.3,2.3,0,0,1,.26,0"/><path class="cls-15" d="M54.51,13V14.6a2.46,2.46,0,0,0-.39.09V13.05l.38-.1"/><path class="cls-16" d="M54.13,13.05v1.64a3.43,3.43,0,0,0-.44.19l0,0V13.26l0,0a2,2,0,0,1,.44-.19"/><path class="cls-15" d="M53.66,13.26V14.9a1.34,1.34,0,0,0-.26.19V13.44a1.24,1.24,0,0,1,.25-.18"/><path class="cls-14" d="M53.41,13.44v1.65a.71.71,0,0,0-.12.13V13.58l.13-.14"/><path class="cls-13" d="M53.28,13.58v1.64a.83.83,0,0,0-.08.12V13.7a.83.83,0,0,1,.08-.12"/><path class="cls-12" d="M53.2,13.7v1.64a.67.67,0,0,0-.06.12V13.82a.61.61,0,0,1,.05-.12"/><path class="cls-11" d="M53.15,13.82v1.64l0,.11V13.93a.36.36,0,0,1,0-.11"/><path class="cls-10" d="M53.11,13.93v1.64a.49.49,0,0,0,0,.12V14.05s0-.08,0-.12"/><path class="cls-9" d="M53.1,14.05v0h0"/></g></g></g><g class="cls-2"><g class="cls-20"><g class="cls-2"><path class="cls-18" d="M53.69,14.89v1.65a1,1,0,0,1-.59-.83V14.06a1,1,0,0,0,.59.83"/></g></g></g><g class="cls-2"><g class="cls-21"><g class="cls-2"><path class="cls-6" d="M27.55,14.62v1.64l-.29-.14V14.48l.29.14"/><path class="cls-7" d="M27.26,14.48v1.64L27,16V14.4l.24.08"/><path class="cls-8" d="M27,14.4V16l-.21,0V14.34l.22.06"/><path class="cls-9" d="M26.8,14.34V16l-.2,0V14.31l.2,0"/><path class="cls-10" d="M26.6,14.31V16l-.2,0V14.29l.19,0"/><path class="cls-11" d="M26.41,14.29v1.64h-.2V14.28h.2"/><path class="cls-12" d="M26.21,14.28v1.64H26V14.28h.21"/><path class="cls-13" d="M26,14.28v1.64l-.23,0V14.29H26"/><path class="cls-14" d="M25.78,14.29v1.65l-.25,0V14.33l.26,0"/><path class="cls-15" d="M25.52,14.33V16l-.38.1V14.42a2.34,2.34,0,0,1,.38-.09"/><path class="cls-16" d="M25.14,14.42v1.65a2,2,0,0,0-.44.19h0V14.63h0a2,2,0,0,1,.44-.2"/><path class="cls-15" d="M24.68,14.63v1.64a1.81,1.81,0,0,0-.25.19V14.82a1.34,1.34,0,0,1,.26-.19"/><path class="cls-14" d="M24.42,14.82v1.64l-.13.14V15l.12-.13"/><path class="cls-13" d="M24.3,15V16.6l-.08.12V15.07A.83.83,0,0,1,24.3,15"/><path class="cls-12" d="M24.22,15.07v1.65a.37.37,0,0,0-.05.11V15.19l.06-.12"/><path class="cls-11" d="M24.16,15.19v1.64a.26.26,0,0,0,0,.11V15.3l0-.11"/><path class="cls-10" d="M24.13,15.3v1.64a.5.5,0,0,0,0,.12V15.42a.49.49,0,0,1,0-.12"/><path class="cls-9" d="M24.12,15.42v0h0"/></g></g></g><g class="cls-2"><g class="cls-22"><g class="cls-2"><path class="cls-6" d="M52.75,15.44v1.65a1.55,1.55,0,0,0-.29-.14V15.3l.29.14"/><path class="cls-7" d="M52.46,15.3V17l-.24-.09V15.22l.25.08"/><path class="cls-8" d="M52.21,15.22v1.64L52,16.81V15.17l.21.05"/><path class="cls-9" d="M52,15.17v1.64l-.2,0V15.14a1.38,1.38,0,0,1,.2,0"/><path class="cls-10" d="M51.8,15.14v1.64l-.2,0V15.11l.19,0"/><path class="cls-11" d="M51.61,15.11v1.65h-.2V15.1h.2"/><path class="cls-12" d="M51.41,15.1v1.65a.67.67,0,0,0-.2,0V15.1h.21"/><path class="cls-13" d="M51.2,15.1v1.65H51V15.12l.22,0"/><path class="cls-14" d="M51,15.12v1.64l-.25,0V15.15l.26,0"/><path class="cls-15" d="M50.72,15.15V16.8a2.46,2.46,0,0,0-.39.09V15.25l.38-.1"/><path class="cls-16" d="M50.34,15.25v1.64a2.48,2.48,0,0,0-.44.2h0V15.46l0,0a2.53,2.53,0,0,1,.44-.19"/><path class="cls-15" d="M49.87,15.46V17.1a1.74,1.74,0,0,0-.26.19V15.65a1.26,1.26,0,0,1,.25-.19"/><path class="cls-14" d="M49.62,15.65v1.64l-.12.13V15.78l.13-.13"/><path class="cls-13" d="M49.49,15.78v1.64a.57.57,0,0,0-.08.13V15.9l.08-.12"/><path class="cls-12" d="M49.41,15.9v1.65l-.06.11V16a.61.61,0,0,1,0-.12"/><path class="cls-11" d="M49.36,16v1.64l0,.11V16.13a.2.2,0,0,1,0-.11"/><path class="cls-10" d="M49.33,16.13v1.64a.49.49,0,0,0,0,.12V16.24a.52.52,0,0,1,0-.11"/><path class="cls-9" d="M49.31,16.24v0"/></g></g></g><g class="cls-2"><g class="cls-23"><g class="cls-2"><path class="cls-18" d="M24.71,16.27v1.64a1,1,0,0,1-.6-.83V15.43a1,1,0,0,0,.59.84"/></g></g></g><polygon class="cls-24" points="42.77 16.82 42.77 18.46 31.8 12.13 31.81 10.49 42.77 16.82"/><polygon class="cls-25" points="52.72 11.04 52.72 12.68 42.77 18.46 42.77 16.82 52.72 11.04"/><polygon class="cls-26" points="52.72 11.04 42.77 16.82 31.81 10.49 41.75 4.71 52.72 11.04"/><g class="cls-2"><g class="cls-27"><g class="cls-2"><path class="cls-18" d="M49.91,17.09v1.65a1,1,0,0,1-.59-.83V16.26a1,1,0,0,0,.6.83"/></g></g></g><g class="cls-2"><g class="cls-28"><g class="cls-2"><path class="cls-6" d="M23.29,17.1v1.64a2.75,2.75,0,0,0-.3-.14V17a1.55,1.55,0,0,1,.29.14"/><path class="cls-7" d="M23,17V18.6l-.24-.08V16.87L23,17"/><path class="cls-8" d="M22.75,16.87v1.65l-.21-.05V16.82l.21.05"/><path class="cls-9" d="M22.54,16.82v1.65l-.2,0V16.79l.2,0"/><path class="cls-10" d="M22.34,16.79v1.64l-.2,0V16.76l.2,0"/><path class="cls-11" d="M22.14,16.76v1.65h-.2V16.75h.2"/><path class="cls-12" d="M21.94,16.75V18.4h-.21V16.75h.2"/><path class="cls-13" d="M21.74,16.75V18.4h-.22V16.77l.23,0"/><path class="cls-14" d="M21.51,16.77v1.64l-.26,0V16.81l.25,0"/><path class="cls-15" d="M21.26,16.81v1.64a2.34,2.34,0,0,0-.38.09V16.9a2.34,2.34,0,0,1,.38-.09"/><path class="cls-16" d="M20.88,16.9v1.64a2.19,2.19,0,0,0-.44.2h0V17.11l0,0a2.53,2.53,0,0,1,.44-.19"/><path class="cls-15" d="M20.41,17.11v1.64a1.74,1.74,0,0,0-.26.19V17.3a1.64,1.64,0,0,1,.25-.19"/><path class="cls-14" d="M20.16,17.3v1.64l-.12.13V17.43a.8.8,0,0,1,.13-.13"/><path class="cls-13" d="M20,17.43v1.64a.83.83,0,0,0-.08.12V17.55l.08-.12"/><path class="cls-12" d="M20,17.55v1.64a.61.61,0,0,0-.05.12V17.66l.05-.11"/><path class="cls-11" d="M19.9,17.66v1.65a.49.49,0,0,0,0,.11V17.78a.53.53,0,0,1,0-.12"/><path class="cls-10" d="M19.87,17.78v1.64a.49.49,0,0,0,0,.12V17.89s0-.07,0-.11"/><path class="cls-9" d="M19.85,17.89v0"/></g></g></g><g class="cls-2"><g class="cls-29"><g class="cls-2"><path class="cls-6" d="M49.43,17.37V19l-.29-.14V17.23l.29.14"/><path class="cls-7" d="M49.14,17.23v1.64l-.24-.08V17.15l.25.08"/><path class="cls-8" d="M48.89,17.15v1.64l-.21-.05V17.1l.21,0"/><path class="cls-9" d="M48.68,17.1v1.64l-.2,0V17.06l.2,0"/><path class="cls-10" d="M48.48,17.06v1.65l-.2,0V17l.19,0"/><path class="cls-11" d="M48.29,17v1.64h-.19V17h.2"/><path class="cls-12" d="M48.09,17v1.64h-.21V17h.21"/><path class="cls-13" d="M47.88,17v1.64l-.22,0V17.05l.22,0"/><path class="cls-14" d="M47.66,17.05v1.64l-.26,0V17.08a2.3,2.3,0,0,1,.26,0"/><path class="cls-15" d="M47.4,17.08v1.65a2.34,2.34,0,0,0-.38.09V17.18l.38-.1"/><path class="cls-16" d="M47,17.18v1.64a2.53,2.53,0,0,0-.44.19l0,0V17.39l0,0a2.17,2.17,0,0,1,.44-.19"/><path class="cls-15" d="M46.56,17.39V19a1.26,1.26,0,0,0-.25.19V17.57a1.32,1.32,0,0,1,.26-.18"/><path class="cls-14" d="M46.3,17.57v1.65l-.13.13V17.71a.75.75,0,0,1,.12-.14"/><path class="cls-13" d="M46.18,17.71v1.64a.83.83,0,0,0-.08.12V17.83a.94.94,0,0,1,.09-.12"/><path class="cls-12" d="M46.09,17.83v1.64a.61.61,0,0,0-.05.12V17.94a1.17,1.17,0,0,0,.05-.11"/><path class="cls-11" d="M46,17.94v1.65a.36.36,0,0,0,0,.11V18.06l0-.12"/><path class="cls-10" d="M46,18.06V19.7s0,.08,0,.12V18.17a.41.41,0,0,1,0-.11"/><path class="cls-9" d="M46,18.17v1.65h0V18.17"/></g></g></g><g class="cls-2"><g class="cls-30"><g class="cls-2"><path class="cls-18" d="M20.45,18.75v1.64a1,1,0,0,1-.6-.83V17.91a1,1,0,0,0,.6.84"/></g></g></g><g class="cls-2"><g class="cls-31"><g class="cls-2"><path class="cls-18" d="M46.59,19v1.64a1,1,0,0,1-.6-.83V18.19a1,1,0,0,0,.59.83"/></g></g></g><polygon class="cls-4" points="67.98 19.85 67.98 21.49 56.53 14.88 56.54 13.24 67.98 19.85"/><g class="cls-2"><g class="cls-32"><g class="cls-2"><path class="cls-6" d="M19,19.57v1.65a1.55,1.55,0,0,0-.29-.14V19.43l.29.14"/><path class="cls-7" d="M18.74,19.43v1.65L18.49,21V19.35l.25.08"/><path class="cls-8" d="M18.49,19.35V21l-.22,0V19.3l.21.05"/><path class="cls-9" d="M18.28,19.3v1.64l-.2,0V19.26l.2,0"/><path class="cls-10" d="M18.08,19.26v1.65l-.19,0V19.24l.2,0"/><path class="cls-11" d="M17.88,19.24v1.65h-.2V19.23h.2"/><path class="cls-12" d="M17.68,19.23v1.65h-.21V19.23h.21"/><path class="cls-13" d="M17.47,19.23v1.65h-.22V19.25l.22,0"/><path class="cls-14" d="M17.25,19.25v1.64l-.26,0V19.28l.26,0"/><path class="cls-15" d="M17,19.28v1.65a2.34,2.34,0,0,0-.38.09V19.38l.38-.1"/><path class="cls-16" d="M16.61,19.38V21a2.53,2.53,0,0,0-.44.19l0,0V19.59l0,0a2.44,2.44,0,0,1,.44-.19"/><path class="cls-15" d="M16.15,19.59v1.64a1.64,1.64,0,0,0-.25.19V19.77a1.24,1.24,0,0,1,.25-.18"/><path class="cls-14" d="M15.9,19.77v1.65a.71.71,0,0,0-.12.13V19.91l.13-.14"/><path class="cls-13" d="M15.77,19.91v1.64a.83.83,0,0,0-.08.12V20a.83.83,0,0,1,.08-.12"/><path class="cls-12" d="M15.69,20v1.64a.67.67,0,0,0-.06.12V20.14a.54.54,0,0,1,0-.11"/><path class="cls-11" d="M15.64,20.14v1.65l0,.11V20.26a.56.56,0,0,1,0-.12"/><path class="cls-10" d="M15.6,20.26V21.9a.45.45,0,0,0,0,.11V20.37s0-.08,0-.11"/><path class="cls-9" d="M15.59,20.37v0"/></g></g></g><g class="cls-2"><g class="cls-33"><g class="cls-2"><path class="cls-6" d="M68.58,20.68v1.64a1,1,0,0,0-.59-.83V19.85a1,1,0,0,1,.6.83"/></g></g></g><g class="cls-2"><g class="cls-34"><g class="cls-2"><path class="cls-18" d="M16.19,21.22v1.65a1,1,0,0,1-.59-.84V20.39a1,1,0,0,0,.6.83"/></g></g></g><polygon class="cls-24" points="65.14 21.5 65.13 23.14 53.69 16.54 53.69 14.89 65.14 21.5"/><g class="cls-2"><g class="cls-35"><g class="cls-2"><path class="cls-36" d="M68.58,20.68v0"/><path class="cls-37" d="M68.58,20.7v1.64s0,.08,0,.12V20.81s0-.07,0-.11"/><path class="cls-38" d="M68.56,20.81v1.65a.76.76,0,0,1,0,.11V20.93l0-.12"/><path class="cls-39" d="M68.53,20.93v1.64a.37.37,0,0,1,0,.11V21a1.17,1.17,0,0,1,0-.11"/><path class="cls-40" d="M68.48,21v1.64a.83.83,0,0,1-.08.12V21.16a.94.94,0,0,0,.09-.12"/><path class="cls-41" d="M68.39,21.16V22.8l-.13.14V21.29a.49.49,0,0,0,.12-.13"/><path class="cls-42" d="M68.27,21.29v1.65a1.81,1.81,0,0,1-.25.19V21.48a1.34,1.34,0,0,0,.26-.19"/><path class="cls-43" d="M68,21.48v1.65h0a2.28,2.28,0,0,1-.45.2V21.69A2.17,2.17,0,0,0,68,21.5l0,0"/><path class="cls-42" d="M67.55,21.69v1.65a2.34,2.34,0,0,1-.38.09V21.79l.39-.1"/><path class="cls-41" d="M67.16,21.79v1.64l-.26,0V21.82l.25,0"/><path class="cls-40" d="M66.91,21.82v1.65h-.22V21.84l.23,0"/><path class="cls-39" d="M66.68,21.84v1.64h-.21V21.84h.21"/><path class="cls-38" d="M66.47,21.84v1.64h-.2V21.83h.2"/><path class="cls-37" d="M66.27,21.83v1.64l-.2,0V21.81l.19,0"/><path class="cls-36" d="M66.08,21.81v1.64l-.2,0V21.77l.2,0"/><path class="cls-44" d="M65.88,21.77v1.65l-.2-.05V21.72l.21.05"/><path class="cls-45" d="M65.67,21.72v1.65l-.25-.09V21.64l.24.08"/><path class="cls-18" d="M65.43,21.64v1.64a1.55,1.55,0,0,1-.29-.14V21.5a2,2,0,0,0,.29.14"/></g></g></g><path class="cls-26" d="M68,19.85a.87.87,0,0,1,0,1.65,3.15,3.15,0,0,1-2.85,0L53.69,14.89a.87.87,0,0,1,0-1.65,3.18,3.18,0,0,1,2.85,0Z"/><polygon class="cls-4" points="64.19 22.05 64.19 23.69 52.74 17.09 52.75 15.44 64.19 22.05"/><g class="cls-2"><g class="cls-46"><g class="cls-2"><path class="cls-6" d="M64.79,22.88v1.65a1,1,0,0,0-.59-.84V22.05a1,1,0,0,1,.6.83"/></g></g></g><g class="cls-2"><g class="cls-47"><g class="cls-2"><path class="cls-6" d="M14.76,22.05v1.64l-.29-.14V21.91l.29.14"/><path class="cls-7" d="M14.47,21.91v1.64l-.25-.08V21.83l.24.08"/><path class="cls-8" d="M14.23,21.83v1.64l-.21,0V21.78l.21,0"/><path class="cls-9" d="M14,21.78v1.64a1.38,1.38,0,0,0-.2,0V21.74l.21,0"/><path class="cls-10" d="M13.81,21.74v1.65l-.2,0V21.72l.19,0"/><path class="cls-11" d="M13.62,21.72v1.64h-.2V21.71h.2"/><path class="cls-12" d="M13.42,21.71v1.64h-.2V21.71h.21"/><path class="cls-13" d="M13.21,21.71v1.64l-.23,0V21.72h.22"/><path class="cls-14" d="M13,21.72v1.65l-.25,0V21.76l.26,0"/><path class="cls-15" d="M12.73,21.76V23.4l-.38.1V21.86a2.36,2.36,0,0,1,.38-.1"/><path class="cls-16" d="M12.35,21.86V23.5a2,2,0,0,0-.44.19l0,0V22.06h0a2,2,0,0,1,.44-.19"/><path class="cls-15" d="M11.89,22.06v1.65a1.8,1.8,0,0,0-.25.18V22.25a1.34,1.34,0,0,1,.26-.19"/><path class="cls-14" d="M11.63,22.25v1.64L11.5,24V22.38l.12-.13"/><path class="cls-13" d="M11.51,22.38V24l-.08.12V22.5l.08-.12"/><path class="cls-12" d="M11.43,22.5v1.65a.54.54,0,0,0-.05.11V22.62l.06-.12"/><path class="cls-11" d="M11.37,22.62v1.64a.27.27,0,0,0,0,.12V22.73l0-.11"/><path class="cls-10" d="M11.34,22.73v1.65a.43.43,0,0,0,0,.11V22.85a.49.49,0,0,1,0-.12"/><path class="cls-9" d="M11.33,22.85v0"/></g></g></g><polygon class="cls-24" points="61.35 23.7 61.35 25.34 49.9 18.74 49.91 17.09 61.35 23.7"/><g class="cls-2"><g class="cls-48"><g class="cls-2"><path class="cls-18" d="M11.92,23.7v1.64a1,1,0,0,1-.6-.83V22.87a1,1,0,0,0,.59.83"/></g></g></g><polygon class="cls-4" points="60.87 23.98 60.87 25.62 49.42 19.01 49.43 17.37 60.87 23.98"/><g class="cls-2"><g class="cls-49"><g class="cls-2"><path class="cls-36" d="M64.79,22.88v1.65h0V22.88"/><path class="cls-37" d="M64.79,22.9v1.64s0,.08,0,.12V23s0-.07,0-.11"/><path class="cls-38" d="M64.77,23v1.65a.49.49,0,0,1,0,.11V23.13l0-.12"/><path class="cls-39" d="M64.74,23.13v1.64a.61.61,0,0,1,0,.12V23.24l0-.11"/><path class="cls-40" d="M64.69,23.24v1.65L64.6,25V23.36a.94.94,0,0,0,.09-.12"/><path class="cls-41" d="M64.6,23.36V25l-.12.13V23.5a.75.75,0,0,0,.12-.14"/><path class="cls-42" d="M64.48,23.5v1.64a1.74,1.74,0,0,1-.26.19V23.69a2,2,0,0,0,.26-.19"/><path class="cls-43" d="M64.22,23.69v1.64h0a2.28,2.28,0,0,1-.45.2V23.9a2.55,2.55,0,0,0,.44-.2h0"/><path class="cls-42" d="M63.76,23.9v1.64a2.34,2.34,0,0,1-.38.09V24c.13,0,.26-.06.38-.09"/><path class="cls-41" d="M63.38,24v1.64l-.25,0V24l.26,0"/><path class="cls-40" d="M63.12,24v1.64h-.23V24h.22"/><path class="cls-39" d="M62.9,24v1.64h-.2V24h.21"/><path class="cls-38" d="M62.69,24v1.65l-.2,0V24h.2"/><path class="cls-37" d="M62.49,24v1.64l-.2,0V24l.19,0"/><path class="cls-36" d="M62.3,24v1.64l-.2,0V24l.2,0"/><path class="cls-44" d="M62.1,24v1.65l-.21-.05V23.92l.21,0"/><path class="cls-45" d="M61.89,23.92v1.65l-.24-.09V23.84l.25.08"/><path class="cls-18" d="M61.64,23.84v1.64a1.3,1.3,0,0,1-.29-.14V23.7l.29.14"/></g></g></g><path class="cls-26" d="M64.19,22.05a.87.87,0,0,1,0,1.65,3.12,3.12,0,0,1-2.85,0L49.91,17.09a.87.87,0,0,1,0-1.65,3.18,3.18,0,0,1,2.85,0Z"/><g class="cls-2"><g class="cls-50"><g class="cls-2"><path class="cls-6" d="M61.47,24.81v1.64a1,1,0,0,0-.59-.83V24a1,1,0,0,1,.6.83"/></g></g></g><g class="cls-2"><g class="cls-51"><g class="cls-2"><path class="cls-6" d="M10.5,24.53v1.64a2.75,2.75,0,0,0-.3-.14V24.39l.29.14"/><path class="cls-7" d="M10.21,24.39V26L10,26V24.31l.25.08"/><path class="cls-8" d="M10,24.31V26l-.21-.05V24.25l.21.06"/><path class="cls-9" d="M9.75,24.25V25.9l-.2,0V24.22l.2,0"/><path class="cls-10" d="M9.55,24.22v1.64l-.2,0V24.2l.2,0"/><path class="cls-11" d="M9.35,24.2v1.64h-.2V24.19h.19"/><path class="cls-12" d="M9.16,24.19v1.64H8.94V24.19a1.47,1.47,0,0,1,.21,0"/><path class="cls-13" d="M9,24.19v1.64l-.22,0V24.2H9"/><path class="cls-14" d="M8.72,24.2v1.65a2.3,2.3,0,0,0-.26,0V24.24l.25,0"/><path class="cls-15" d="M8.47,24.24v1.64l-.38.1V24.33a2.34,2.34,0,0,1,.38-.09"/><path class="cls-16" d="M8.09,24.33V26a2.17,2.17,0,0,0-.44.19h0V24.54h0a2,2,0,0,1,.44-.2"/><path class="cls-15" d="M7.62,24.54v1.64a2.93,2.93,0,0,0-.26.19V24.73a1.64,1.64,0,0,1,.25-.19"/><path class="cls-14" d="M7.37,24.73v1.64l-.12.14V24.86a1.59,1.59,0,0,1,.13-.13"/><path class="cls-13" d="M7.24,24.86v1.65a.83.83,0,0,0-.08.12V25l.08-.12"/><path class="cls-12" d="M7.16,25v1.65a.37.37,0,0,0,0,.11V25.1a.61.61,0,0,1,0-.12"/><path class="cls-11" d="M7.11,25.1v1.64a.76.76,0,0,0,0,.11V25.21l0-.11"/><path class="cls-10" d="M7.08,25.21v1.64s0,.08,0,.12V25.33s0-.08,0-.12"/><path class="cls-9" d="M7.06,25.33v0h0"/></g></g></g><polygon class="cls-24" points="58.03 25.63 58.03 27.27 46.59 20.66 46.59 19.02 58.03 25.63"/><g class="cls-2"><g class="cls-52"><g class="cls-2"><path class="cls-36" d="M61.47,24.81v0"/><path class="cls-37" d="M61.47,24.83v1.64a.49.49,0,0,1,0,.12V24.94s0-.07,0-.11"/><path class="cls-38" d="M61.46,24.94v1.65l0,.11V25.06a.56.56,0,0,0,0-.12"/><path class="cls-39" d="M61.42,25.06V26.7a.39.39,0,0,1-.06.11V25.17l.05-.11"/><path class="cls-40" d="M61.37,25.17v1.64a.83.83,0,0,1-.08.12V25.29a.83.83,0,0,0,.08-.12"/><path class="cls-41" d="M61.29,25.29v1.64a.75.75,0,0,1-.12.14V25.42a.8.8,0,0,0,.13-.13"/><path class="cls-42" d="M61.16,25.42v1.65a2,2,0,0,1-.26.19V25.61a1.26,1.26,0,0,0,.25-.19"/><path class="cls-43" d="M60.91,25.61v1.65h0a3.49,3.49,0,0,1-.44.2V25.82a2,2,0,0,0,.44-.19l0,0"/><path class="cls-42" d="M60.44,25.82v1.65a2.62,2.62,0,0,1-.38.09V25.92l.38-.1"/><path class="cls-41" d="M60.06,25.92v1.64l-.26,0V26l.26,0"/><path class="cls-40" d="M59.8,26V27.6h-.22V26l.22,0"/><path class="cls-39" d="M59.58,26v1.64h-.21V26h.21"/><path class="cls-38" d="M59.37,26v1.64h-.2V26h.19"/><path class="cls-37" d="M59.18,26V27.6l-.19,0V25.94l.2,0"/><path class="cls-36" d="M59,25.94v1.64l-.2,0V25.9l.2,0"/><path class="cls-44" d="M58.78,25.9v1.65l-.21-.06V25.85l.21,0"/><path class="cls-45" d="M58.57,25.85v1.64l-.25-.08V25.77l.24.08"/><path class="cls-18" d="M58.33,25.77v1.64L58,27.27V25.63a2.75,2.75,0,0,0,.3.14"/></g></g></g><path class="cls-26" d="M60.87,24a.87.87,0,0,1,0,1.65,3.18,3.18,0,0,1-2.85,0L46.59,19a.87.87,0,0,1,0-1.65,3.18,3.18,0,0,1,2.85,0Z"/><g class="cls-2"><g class="cls-53"><g class="cls-2"><path class="cls-18" d="M7.66,26.18v1.64a1,1,0,0,1-.6-.83V25.34a1,1,0,0,0,.6.84"/></g></g></g><polygon class="cls-4" points="56.61 26.46 56.61 28.1 31.81 13.79 31.82 12.14 56.61 26.46"/><g class="cls-2"><g class="cls-54"><g class="cls-2"><path class="cls-6" d="M57.21,27.29v1.64a1,1,0,0,0-.59-.83V26.46a1,1,0,0,1,.6.83"/></g></g></g><polygon class="cls-24" points="53.77 28.11 53.77 29.75 28.97 15.44 28.98 13.79 53.77 28.11"/><g class="cls-2"><g class="cls-55"><g class="cls-2"><path class="cls-36" d="M57.21,27.29v0h0"/><path class="cls-37" d="M57.21,27.3V29s0,.07,0,.11V27.42s0-.08,0-.12"/><path class="cls-38" d="M57.19,27.42v1.64a.56.56,0,0,1,0,.12V27.53l0-.11"/><path class="cls-39" d="M57.16,27.53v1.65a.54.54,0,0,1,0,.11V27.65l0-.12"/><path class="cls-40" d="M57.11,27.65v1.64l-.08.12V27.77a.94.94,0,0,0,.09-.12"/><path class="cls-41" d="M57,27.77v1.64l-.12.14V27.9a.71.71,0,0,0,.12-.13"/><path class="cls-42" d="M56.9,27.9v1.65a1.7,1.7,0,0,1-.26.18V28.09a1.34,1.34,0,0,0,.26-.19"/><path class="cls-43" d="M56.64,28.09v1.64l0,0a2.25,2.25,0,0,1-.45.19V28.3a2.53,2.53,0,0,0,.44-.19l0,0"/><path class="cls-42" d="M56.18,28.3v1.64l-.38.1V28.39a2.34,2.34,0,0,0,.38-.09"/><path class="cls-41" d="M55.8,28.39V30l-.25,0V28.43l.26,0"/><path class="cls-40" d="M55.54,28.43v1.64l-.23,0V28.45l.22,0"/><path class="cls-39" d="M55.32,28.45v1.64h-.2V28.45h.21"/><path class="cls-38" d="M55.11,28.45v1.64h-.2V28.44h.2"/><path class="cls-37" d="M54.91,28.44v1.64l-.2,0V28.41l.19,0"/><path class="cls-36" d="M54.72,28.41v1.65l-.2,0V28.38l.2,0"/><path class="cls-44" d="M54.52,28.38V30L54.3,30V28.33l.21.05"/><path class="cls-45" d="M54.31,28.33V30l-.24-.08V28.25l.25.08"/><path class="cls-18" d="M54.06,28.25v1.64a2,2,0,0,1-.29-.14V28.11l.29.14"/></g></g></g><polygon class="cls-4" points="52.35 28.93 52.34 30.58 27.55 16.26 27.55 14.62 52.35 28.93"/><g class="cls-2"><g class="cls-56"><g class="cls-2"><path class="cls-6" d="M52.94,29.76v1.65a1,1,0,0,0-.6-.83V28.93a1,1,0,0,1,.59.83"/></g></g></g><polygon class="cls-24" points="49.51 30.58 49.5 32.23 24.71 17.91 24.71 16.27 49.51 30.58"/><g class="cls-2"><g class="cls-57"><g class="cls-2"><path class="cls-36" d="M52.94,29.76v0"/><path class="cls-37" d="M52.94,29.78v1.65a.52.52,0,0,1,0,.11V29.9a.49.49,0,0,0,0-.12"/><path class="cls-38" d="M52.93,29.9v1.64a.2.2,0,0,1,0,.11V30l0-.11"/><path class="cls-39" d="M52.9,30v1.64a.61.61,0,0,1,0,.12V30.12L52.9,30"/><path class="cls-40" d="M52.84,30.12v1.65l-.08.12V30.25a.57.57,0,0,0,.08-.13"/><path class="cls-41" d="M52.76,30.25v1.64l-.13.13V30.38l.12-.13"/><path class="cls-42" d="M52.64,30.38V32a1.64,1.64,0,0,1-.25.19V30.57a1.74,1.74,0,0,0,.26-.19"/><path class="cls-43" d="M52.38,30.57v1.64l0,0a2,2,0,0,1-.44.19V30.78a2.28,2.28,0,0,0,.45-.2h0"/><path class="cls-42" d="M51.91,30.78v1.64l-.38.1V30.87a2.34,2.34,0,0,0,.38-.09"/><path class="cls-41" d="M51.53,30.87v1.65l-.26,0V30.91l.25,0"/><path class="cls-40" d="M51.28,30.91v1.64l-.22,0V30.92h.23"/><path class="cls-39" d="M51.05,30.92v1.65h-.21V30.92h.2"/><path class="cls-38" d="M50.85,30.92v1.65h-.2V30.91h.2"/><path class="cls-37" d="M50.65,30.91v1.65l-.19,0V30.89l.2,0"/><path class="cls-36" d="M50.45,30.89v1.65l-.2,0V30.86l.2,0"/><path class="cls-44" d="M50.25,30.86V32.5l-.21,0V30.81l.21.05"/><path class="cls-45" d="M50,30.81v1.64l-.25-.08V30.72l.24.09"/><path class="cls-18" d="M49.8,30.72v1.65l-.29-.14V30.58a1.55,1.55,0,0,0,.29.14"/></g></g></g><path class="cls-26" d="M52.35,28.93a.87.87,0,0,1,0,1.65,3.12,3.12,0,0,1-2.85,0L24.71,16.27a.87.87,0,0,1,0-1.65,3.12,3.12,0,0,1,2.85,0Z"/><polygon class="cls-4" points="48.08 31.41 48.08 33.05 23.29 18.74 23.29 17.1 48.08 31.41"/><g class="cls-2"><g class="cls-58"><g class="cls-2"><path class="cls-6" d="M48.68,32.24v1.65a1,1,0,0,0-.59-.84V31.41a1,1,0,0,1,.6.83"/></g></g></g><polygon class="cls-24" points="45.24 33.06 45.24 34.7 20.45 20.39 20.45 18.75 45.24 33.06"/><g class="cls-2"><g class="cls-59"><g class="cls-2"><path class="cls-36" d="M48.68,32.24v1.65h0V32.24"/><path class="cls-37" d="M48.68,32.26V33.9a.49.49,0,0,1,0,.12V32.37s0-.07,0-.11"/><path class="cls-38" d="M48.67,32.37V34l0,.11V32.49a.56.56,0,0,0,0-.12"/><path class="cls-39" d="M48.63,32.49v1.64a.67.67,0,0,1-.06.12V32.6a.54.54,0,0,0,.05-.11"/><path class="cls-40" d="M48.58,32.6v1.65l-.08.12V32.72a.83.83,0,0,0,.08-.12"/><path class="cls-41" d="M48.5,32.72v1.65a.71.71,0,0,1-.12.13V32.86l.13-.14"/><path class="cls-42" d="M48.37,32.86V34.5a1.34,1.34,0,0,1-.26.19V33.05a1.81,1.81,0,0,0,.25-.19"/><path class="cls-43" d="M48.12,33.05v1.64h0a2.19,2.19,0,0,1-.44.2V33.26a2.55,2.55,0,0,0,.44-.2h0"/><path class="cls-42" d="M47.65,33.26V34.9a2.62,2.62,0,0,1-.38.09V33.35c.13,0,.26-.06.38-.09"/><path class="cls-41" d="M47.27,33.35V35L47,35V33.39l.26,0"/><path class="cls-40" d="M47,33.39V35h-.22V33.4H47"/><path class="cls-39" d="M46.79,33.4V35h-.21V33.4h.21"/><path class="cls-38" d="M46.58,33.4v1.65l-.2,0V33.39h.19"/><path class="cls-37" d="M46.39,33.39V35l-.19,0V33.37l.2,0"/><path class="cls-36" d="M46.19,33.37V35L46,35V33.33l.2,0"/><path class="cls-44" d="M46,33.33V35l-.21,0V33.28l.21,0"/><path class="cls-45" d="M45.78,33.28v1.65l-.25-.09V33.2l.24.08"/><path class="cls-18" d="M45.54,33.2v1.64a1.55,1.55,0,0,1-.29-.14V33.06a2.75,2.75,0,0,0,.3.14"/></g></g></g><polygon class="cls-4" points="43.82 33.89 43.82 35.53 19.02 21.22 19.03 19.57 43.82 33.89"/><g class="cls-2"><g class="cls-60"><g class="cls-2"><path class="cls-6" d="M44.42,34.72v1.64a1,1,0,0,0-.59-.83V33.89a1,1,0,0,1,.6.83"/></g></g></g><polygon class="cls-24" points="40.98 35.54 40.98 37.18 16.18 22.87 16.19 21.22 40.98 35.54"/><g class="cls-2"><g class="cls-61"><g class="cls-2"><path class="cls-36" d="M44.42,34.72v0"/><path class="cls-37" d="M44.42,34.74v1.64a.49.49,0,0,1,0,.12V34.85s0-.07,0-.11"/><path class="cls-38" d="M44.4,34.85V36.5l0,.11V35l0-.12"/><path class="cls-39" d="M44.37,35v1.64l-.06.11V35.08l0-.11"/><path class="cls-40" d="M44.32,35.08v1.64l-.08.12V35.2l.08-.12"/><path class="cls-41" d="M44.24,35.2v1.64l-.12.14V35.33l.13-.13"/><path class="cls-42" d="M44.11,35.33V37a2.93,2.93,0,0,1-.26.19V35.52a1.34,1.34,0,0,0,.26-.19"/><path class="cls-43" d="M43.85,35.52v1.65h0a3.07,3.07,0,0,1-.45.2V35.73a2,2,0,0,0,.44-.19l0,0"/><path class="cls-42" d="M43.39,35.73v1.65a2.34,2.34,0,0,1-.38.09V35.83l.38-.1"/><path class="cls-41" d="M43,35.83v1.64l-.25,0V35.86l.26,0"/><path class="cls-40" d="M42.75,35.86v1.65h-.23V35.88l.22,0"/><path class="cls-39" d="M42.53,35.88v1.64h-.2V35.88h.21"/><path class="cls-38" d="M42.32,35.88v1.64h-.2V35.87h.2"/><path class="cls-37" d="M42.12,35.87v1.64l-.2,0V35.85l.19,0"/><path class="cls-36" d="M41.93,35.85v1.64l-.2,0V35.81l.2,0"/><path class="cls-44" d="M41.73,35.81v1.65l-.21-.06V35.76l.21.05"/><path class="cls-45" d="M41.52,35.76V37.4l-.24-.08V35.68l.25.08"/><path class="cls-18" d="M41.27,35.68v1.64L41,37.18V35.54l.29.14"/></g></g></g><path class="cls-26" d="M43.82,33.89a.87.87,0,0,1,0,1.65,3.18,3.18,0,0,1-2.85,0L16.19,21.22a.87.87,0,0,1,0-1.65,3.2,3.2,0,0,1,2.86,0Z"/><polygon class="cls-4" points="39.56 36.37 39.55 38.01 14.76 23.7 14.76 22.05 39.56 36.37"/><g class="cls-2"><g class="cls-62"><g class="cls-2"><path class="cls-6" d="M40.15,37.2v1.64a1,1,0,0,0-.6-.83V36.37a1,1,0,0,1,.59.83"/></g></g></g><polygon class="cls-24" points="36.72 38.02 36.71 39.66 11.92 25.34 11.92 23.7 36.72 38.02"/><g class="cls-2"><g class="cls-63"><g class="cls-2"><path class="cls-36" d="M40.15,37.2v0h0"/><path class="cls-37" d="M40.15,37.21v1.65a.43.43,0,0,1,0,.11V37.33a.49.49,0,0,0,0-.12"/><path class="cls-38" d="M40.14,37.33V39a.27.27,0,0,1,0,.12V37.44l0-.11"/><path class="cls-39" d="M40.11,37.44v1.65a.54.54,0,0,1-.05.11V37.56l.06-.12"/><path class="cls-40" d="M40.05,37.56V39.2a.83.83,0,0,1-.08.12V37.68a.83.83,0,0,0,.08-.12"/><path class="cls-41" d="M40,37.68v1.64l-.13.14V37.81l.12-.13"/><path class="cls-42" d="M39.85,37.81v1.65a1.6,1.6,0,0,1-.25.18V38a1.74,1.74,0,0,0,.26-.19"/><path class="cls-43" d="M39.59,38v1.64l0,0a2,2,0,0,1-.44.19V38.21a3.43,3.43,0,0,0,.44-.19l0,0"/><path class="cls-42" d="M39.13,38.21v1.64l-.38.1V38.3a2.46,2.46,0,0,0,.39-.09"/><path class="cls-41" d="M38.74,38.3V40a2.3,2.3,0,0,1-.26,0V38.34l.25,0"/><path class="cls-40" d="M38.49,38.34V40l-.22,0V38.36l.23,0"/><path class="cls-39" d="M38.26,38.36V40h-.21V38.36h.2"/><path class="cls-38" d="M38.06,38.36V40h-.2V38.35h.2"/><path class="cls-37" d="M37.86,38.35V40l-.19,0V38.32l.2,0"/><path class="cls-36" d="M37.66,38.32V40l-.2,0V38.29l.2,0"/><path class="cls-44" d="M37.46,38.29v1.64l-.21,0V38.24l.21,0"/><path class="cls-45" d="M37.25,38.24v1.64L37,39.8V38.16l.24.08"/><path class="cls-18" d="M37,38.16V39.8l-.29-.14V38l.29.14"/></g></g></g><path class="cls-26" d="M39.56,36.37a.87.87,0,0,1,0,1.65,3.18,3.18,0,0,1-2.85,0L11.92,23.7a.87.87,0,0,1,0-1.65,3.15,3.15,0,0,1,2.85,0Z"/><polygon class="cls-4" points="35.29 38.84 35.29 40.49 10.5 26.17 10.5 24.53 35.29 38.84"/><g class="cls-2"><g class="cls-64"><g class="cls-2"><path class="cls-6" d="M35.89,39.67v1.65a1,1,0,0,0-.59-.83V38.84a1,1,0,0,1,.6.83"/></g></g></g><polygon class="cls-24" points="32.45 40.49 32.45 42.14 7.66 27.82 7.66 26.18 32.45 40.49"/><g class="cls-2"><g class="cls-65"><g class="cls-2"><path class="cls-36" d="M35.89,39.67v0"/><path class="cls-37" d="M35.89,39.69v1.65a.45.45,0,0,1,0,.11V39.81s0-.08,0-.12"/><path class="cls-38" d="M35.88,39.81v1.64l0,.11V39.92a.49.49,0,0,0,0-.11"/><path class="cls-39" d="M35.84,39.92v1.64l-.05.12V40a.37.37,0,0,0,.05-.11"/><path class="cls-40" d="M35.79,40v1.65l-.09.12V40.16a.57.57,0,0,0,.08-.13"/><path class="cls-41" d="M35.71,40.16V41.8a.71.71,0,0,1-.12.13V40.29a1.59,1.59,0,0,0,.13-.13"/><path class="cls-42" d="M35.58,40.29v1.64a1.34,1.34,0,0,1-.26.19V40.48a1.26,1.26,0,0,0,.25-.19"/><path class="cls-43" d="M35.33,40.48v1.64l0,0a2.17,2.17,0,0,1-.44.19V40.69a2,2,0,0,0,.44-.2h0"/><path class="cls-42" d="M34.86,40.69v1.64l-.38.1V40.78a2.34,2.34,0,0,0,.38-.09"/><path class="cls-41" d="M34.48,40.78v1.65l-.26,0V40.82l.26,0"/><path class="cls-40" d="M34.22,40.82v1.64l-.22,0V40.83h.22"/><path class="cls-39" d="M34,40.83v1.65h-.21V40.83a.74.74,0,0,0,.21,0"/><path class="cls-38" d="M33.79,40.83v1.65h-.2V40.82h.19"/><path class="cls-37" d="M33.6,40.82v1.65l-.19,0V40.8l.2,0"/><path class="cls-36" d="M33.4,40.8v1.65l-.2,0V40.77l.2,0"/><path class="cls-44" d="M33.2,40.77v1.64l-.21,0V40.72l.21.05"/><path class="cls-45" d="M33,40.72v1.64l-.25-.08V40.63l.24.09"/><path class="cls-18" d="M32.75,40.63v1.65l-.29-.14V40.49a1.3,1.3,0,0,0,.29.14"/></g></g></g><path class="cls-66" d="M75.39,17c2.21,1.27,2.22,3.34,0,4.61l-38,22.09a8.73,8.73,0,0,1-8,0l-27.77-16c-2.21-1.28-2.22-3.34,0-4.61L39.65,1a8.75,8.75,0,0,1,8,0ZM41.75,4.71l-9.94,5.78,11,6.33L52.72,11l-11-6.33M36.72,38a3.18,3.18,0,0,0,2.85,0,.87.87,0,0,0,0-1.65L14.76,22.05a3.15,3.15,0,0,0-2.85,0,.87.87,0,0,0,0,1.65L36.72,38M41,35.54a3.18,3.18,0,0,0,2.85,0,.87.87,0,0,0,0-1.65L19,19.57a3.2,3.2,0,0,0-2.86,0,.87.87,0,0,0,0,1.65L41,35.54m4.26-2.48a3.12,3.12,0,0,0,2.85,0c.79-.46.78-1.19,0-1.65L23.29,17.1a3.15,3.15,0,0,0-2.85,0,.88.88,0,0,0,0,1.66L45.24,33.06m4.27-2.48a3.12,3.12,0,0,0,2.85,0,.87.87,0,0,0,0-1.65L27.55,14.62a3.12,3.12,0,0,0-2.85,0,.87.87,0,0,0,0,1.65l24.8,14.31m4.26-2.47a3.18,3.18,0,0,0,2.85,0,.87.87,0,0,0,0-1.65L31.82,12.14a3.17,3.17,0,0,0-2.86,0,.87.87,0,0,0,0,1.65L53.77,28.11M32.46,40.49a3.09,3.09,0,0,0,2.84,0c.79-.45.78-1.19,0-1.65L10.5,24.53a3.12,3.12,0,0,0-2.85,0c-.79.45-.78,1.19,0,1.65l24.8,14.31m32.68-19a3.15,3.15,0,0,0,2.85,0,.87.87,0,0,0,0-1.65L56.54,13.24a3.15,3.15,0,0,0-2.85,0,.87.87,0,0,0,0,1.65L65.14,21.5M58,25.63a3.18,3.18,0,0,0,2.85,0,.87.87,0,0,0,0-1.65L49.43,17.37a3.15,3.15,0,0,0-2.85,0,.87.87,0,0,0,0,1.65L58,25.63m3.32-1.93a3.12,3.12,0,0,0,2.85,0,.87.87,0,0,0,0-1.65L52.75,15.44a3.18,3.18,0,0,0-2.85,0,.87.87,0,0,0,0,1.65L61.35,23.7"/><path class="cls-26" d="M56.61,26.46a.87.87,0,0,1,0,1.65,3.18,3.18,0,0,1-2.85,0L29,13.79a.87.87,0,0,1,0-1.65,3.17,3.17,0,0,1,2.86,0Z"/><path class="cls-26" d="M48.08,31.41c.79.46.8,1.19,0,1.65a3.12,3.12,0,0,1-2.85,0L20.45,18.75a.88.88,0,0,1,0-1.66,3.15,3.15,0,0,1,2.85,0Z"/><path class="cls-26" d="M35.29,38.84c.79.46.8,1.2,0,1.65a3.09,3.09,0,0,1-2.84,0L7.66,26.18c-.79-.46-.8-1.2,0-1.65a3.12,3.12,0,0,1,2.85,0Z"/><path class="cls-67" d="M77,23.69s0,.09,0,.14a1.09,1.09,0,0,1,0,.17.84.84,0,0,1-.06.14,1.3,1.3,0,0,1-.08.17l-.07.13-.14.19a.94.94,0,0,1-.09.12l-.23.25s-.06.07-.1.1l-.17.14-.16.12-.2.14-.21.13-38,22.1a6.22,6.22,0,0,1-.78.37l-.22.08-.53.16a5.73,5.73,0,0,1-.56.14q-.35.08-.69.12l-.17,0c-.31,0-.62.05-.94.06h-.15c-.32,0-.63,0-.94-.06h-.14a8.91,8.91,0,0,1-.9-.16l-.16,0a6.41,6.41,0,0,1-.78-.23l-.14,0a6.18,6.18,0,0,1-.86-.41l-27.77-16A2.83,2.83,0,0,1,0,29.37V31a2.82,2.82,0,0,0,1.66,2.32l27.78,16a7.62,7.62,0,0,0,.81.39h0l.14,0,.5.17.28.07.16,0,.15,0,.56.1.2,0,.14,0,.21,0a5.07,5.07,0,0,0,.55,0h.58l.62,0h.07l.16,0c.17,0,.33,0,.49-.06l.2,0,.56-.14.3-.08.23-.08.22-.09a7.12,7.12,0,0,0,.79-.37l38-22.09.07,0,.14-.1.21-.13.15-.13.18-.14,0,0,.06-.06a2.84,2.84,0,0,0,.24-.26l.05-.06a.1.1,0,0,0,0,0l.13-.2.06-.08s0,0,0,0l.08-.18a.47.47,0,0,1,0-.1.06.06,0,0,1,0,0c0-.05,0-.11,0-.17l0-.11v0a1.1,1.1,0,0,0,0-.18s0-.07,0-.11v-1.7c0,.06,0,.11,0,.17S77,23.63,77,23.69Z"/><path class="cls-68" d="M1.66,29.3l27.78,16a7.62,7.62,0,0,0,.81.39h0l.14,0,.5.17.28.06.16,0,.15,0,.56.1.2,0,.14,0,.21,0,.55,0h.58l.62,0h.07l.16,0,.49-.07.2,0a5.09,5.09,0,0,0,.56-.14l.3-.07.23-.09.22-.08a7.12,7.12,0,0,0,.79-.37l38-22.09.07,0,.14-.1.21-.14.15-.12.18-.14,0,0,.06-.06a2.84,2.84,0,0,0,.24-.26l.05-.06a.21.21,0,0,0,0-.06,2.14,2.14,0,0,0,.13-.19l.06-.08,0,0,.08-.17a.31.31,0,0,1,0-.1s0,0,0,0l0-.17,0-.11v0a1.1,1.1,0,0,0,0-.18s0-.08,0-.12V19.31c0,.06,0,.11,0,.17s0,.11,0,.17,0,.1,0,.15a1.54,1.54,0,0,1,0,.17.75.75,0,0,1-.06.13,1.42,1.42,0,0,1-.08.18l-.07.12a1.43,1.43,0,0,1-.14.2.48.48,0,0,1-.09.11,2.85,2.85,0,0,1-.23.26l-.1.09-.17.15-.16.12-.2.14-.21.13-38,22.09a5.12,5.12,0,0,1-.78.38l-.22.08-.53.16-.56.14-.69.12-.17,0c-.31,0-.62,0-.94,0h-.15c-.32,0-.63,0-.94,0h-.14a8.91,8.91,0,0,1-.9-.16l-.16,0q-.41-.1-.78-.24l-.14,0a6.18,6.18,0,0,1-.86-.41l-27.77-16A2.84,2.84,0,0,1,0,25.33V27A2.82,2.82,0,0,0,1.66,29.3Z"/></g></g></g></g></svg>