<svg xmlns="http://www.w3.org/2000/svg" xmlns:xlink="http://www.w3.org/1999/xlink" viewBox="0 0 41.61 79.24"><defs><style>.cls-1{fill:none;}.cls-2{isolation:isolate;}.cls-3{clip-path:url(#clip-path);}.cls-4{fill:#5ec4a5;}.cls-5{fill:#5bbfa1;}.cls-6{fill:#59ba9d;}.cls-7{fill:#57b598;}.cls-8{fill:#54b094;}.cls-9{fill:#52ab90;}.cls-10{fill:#50a78c;}.cls-11{fill:#4da288;}.cls-12{fill:#4b9d84;}.cls-13{fill:#499880;}.cls-14{fill:#46937c;}.cls-15{fill:#448e77;}.cls-16{fill:#428973;}.cls-17{fill:#3f846f;}.cls-18{fill:#3d7f6b;}.cls-19{fill:#3f836e;}.cls-20{clip-path:url(#clip-path-2);}.cls-21{clip-path:url(#clip-path-3);}.cls-22{fill:#001633;}.cls-23{fill:#001532;}.cls-24{fill:#001531;}.cls-25{fill:#00142f;}.cls-26{fill:#00132e;}.cls-27{fill:#00132d;}.cls-28{fill:#00122c;}.cls-29{fill:#00122a;}.cls-30{fill:#001129;}.cls-31{fill:#001128;}.cls-32{fill:#65d3b1;}.cls-33{clip-path:url(#clip-path-4);}.cls-34{clip-path:url(#clip-path-5);}.cls-35{fill:#000e21;}.cls-36{fill:#000e22;}.cls-37{fill:#001737;}.cls-38{clip-path:url(#clip-path-6);}.cls-39{fill:#000f23;}.cls-40{fill:#000f24;}.cls-41{fill:#001025;}.cls-42{fill:#001026;}.cls-43{clip-path:url(#clip-path-7);}.cls-44{clip-path:url(#clip-path-8);}.cls-45{clip-path:url(#clip-path-9);}.cls-46{clip-path:url(#clip-path-10);}.cls-47{clip-path:url(#clip-path-11);}.cls-48{clip-path:url(#clip-path-12);}.cls-49{clip-path:url(#clip-path-13);}.cls-50{clip-path:url(#clip-path-14);}.cls-51{clip-path:url(#clip-path-15);}.cls-52{clip-path:url(#clip-path-16);}.cls-53{clip-path:url(#clip-path-17);}.cls-54{clip-path:url(#clip-path-18);}.cls-55{clip-path:url(#clip-path-19);}.cls-56{clip-path:url(#clip-path-20);}.cls-57{clip-path:url(#clip-path-21);}.cls-58{clip-path:url(#clip-path-22);}.cls-59{clip-path:url(#clip-path-23);}.cls-60{clip-path:url(#clip-path-24);}.cls-61{clip-path:url(#clip-path-25);}.cls-62{clip-path:url(#clip-path-26);}.cls-63{clip-path:url(#clip-path-27);}.cls-64{clip-path:url(#clip-path-28);}.cls-65{clip-path:url(#clip-path-29);}.cls-66{clip-path:url(#clip-path-30);}.cls-67{clip-path:url(#clip-path-31);}.cls-68{clip-path:url(#clip-path-32);}.cls-69{clip-path:url(#clip-path-33);}.cls-70{clip-path:url(#clip-path-34);}.cls-71{clip-path:url(#clip-path-35);}.cls-72{clip-path:url(#clip-path-36);}.cls-73{clip-path:url(#clip-path-37);}.cls-74{clip-path:url(#clip-path-38);}.cls-75{clip-path:url(#clip-path-39);}.cls-76{clip-path:url(#clip-path-40);}.cls-77{clip-path:url(#clip-path-41);}.cls-78{clip-path:url(#clip-path-42);}.cls-79{clip-path:url(#clip-path-43);}.cls-80{fill:#fff;}.cls-81{clip-path:url(#clip-path-44);}.cls-82{clip-path:url(#clip-path-45);}</style><clipPath id="clip-path" transform="translate(0)"><path class="cls-1" d="M36,56l-1.89-1.1a3.17,3.17,0,0,0,1.43-2.47l1.89,1.1A3.1,3.1,0,0,1,36,56Z"/></clipPath><clipPath id="clip-path-2" transform="translate(0)"><path class="cls-1" d="M35.07,51.12l1.9,1.1a1,1,0,0,1,.41.92L35.49,52A1,1,0,0,0,35.07,51.12Z"/></clipPath><clipPath id="clip-path-3" transform="translate(0)"><path class="cls-1" d="M35.07,51.12l1.9,1.1a1,1,0,0,0-1,.1l-1.89-1.1A1,1,0,0,1,35.07,51.12Z"/></clipPath><clipPath id="clip-path-4" transform="translate(0)"><path class="cls-1" d="M25.88,59.1a1,1,0,0,0,1-.1l1.89,1.1a1,1,0,0,1-1,.1Z"/></clipPath><clipPath id="clip-path-5" transform="translate(0)"><path class="cls-1" d="M27.77,60.2l-1.89-1.1a1,1,0,0,1-.42-.92l1.89,1.1A1,1,0,0,0,27.77,60.2Z"/></clipPath><clipPath id="clip-path-6" transform="translate(0)"><path class="cls-1" d="M27.35,58.93l-1.89-1.1a3.14,3.14,0,0,1,1.43-2.47l1.89,1.1A3.14,3.14,0,0,0,27.35,58.93Z"/></clipPath><clipPath id="clip-path-7" transform="translate(0)"><path class="cls-1" d="M35.91,42,34,40.92a3.18,3.18,0,0,0,1.43-2.48l1.89,1.1A3.12,3.12,0,0,1,35.91,42Z"/></clipPath><clipPath id="clip-path-8" transform="translate(0)"><path class="cls-1" d="M35,37.18l1.9,1.1a1,1,0,0,1,.41.91l-1.89-1.1A1,1,0,0,0,35,37.18Z"/></clipPath><clipPath id="clip-path-9" transform="translate(0)"><path class="cls-1" d="M35,37.18l1.9,1.1a1,1,0,0,0-1,.1L34,37.28A1,1,0,0,1,35,37.18Z"/></clipPath><clipPath id="clip-path-10" transform="translate(0)"><path class="cls-1" d="M35.9,36.56,34,35.46A3.1,3.1,0,0,0,35.43,33l1.9,1.1A3.16,3.16,0,0,1,35.9,36.56Z"/></clipPath><clipPath id="clip-path-11" transform="translate(0)"><path class="cls-1" d="M35.43,32.63a1,1,0,0,0-.41-.91l1.89,1.1a1,1,0,0,1,.42.92Z"/></clipPath><clipPath id="clip-path-12" transform="translate(0)"><path class="cls-1" d="M35,31.72l1.89,1.1a1,1,0,0,0-1,.1L34,31.82A1,1,0,0,1,35,31.72Z"/></clipPath><clipPath id="clip-path-13" transform="translate(0)"><path class="cls-1" d="M15.38,67.84l-1.9-1.1a3.14,3.14,0,0,0,1.43-2.47l1.89,1.1A3.11,3.11,0,0,1,15.38,67.84Z"/></clipPath><clipPath id="clip-path-14" transform="translate(0)"><path class="cls-1" d="M35.88,31.1,34,30a3.16,3.16,0,0,0,1.43-2.47l1.89,1.1A3.13,3.13,0,0,1,35.88,31.1Z"/></clipPath><clipPath id="clip-path-15" transform="translate(0)"><path class="cls-1" d="M14.91,63.92a1,1,0,0,0-.42-.92l1.89,1.1a1,1,0,0,1,.42.92Z"/></clipPath><clipPath id="clip-path-16" transform="translate(0)"><path class="cls-1" d="M35,26.26l1.89,1.1a1,1,0,0,1,.42.92l-1.89-1.1A1,1,0,0,0,35,26.26Z"/></clipPath><clipPath id="clip-path-17" transform="translate(0)"><path class="cls-1" d="M14.49,63l1.89,1.1a1,1,0,0,0-1,.1l-1.9-1.1A1,1,0,0,1,14.49,63Z"/></clipPath><clipPath id="clip-path-18" transform="translate(0)"><path class="cls-1" d="M35,26.26l1.89,1.1a1,1,0,0,0-1,.1L34,26.36A1,1,0,0,1,35,26.26Z"/></clipPath><clipPath id="clip-path-19" transform="translate(0)"><path class="cls-1" d="M7.2,72.08,5.3,71a1,1,0,0,0,1-.1L8.21,72A1,1,0,0,1,7.2,72.08Z"/></clipPath><clipPath id="clip-path-20" transform="translate(0)"><path class="cls-1" d="M7.2,72.08,5.3,71a1,1,0,0,1-.42-.92l1.9,1.1A1,1,0,0,0,7.2,72.08Z"/></clipPath><clipPath id="clip-path-21" transform="translate(0)"><path class="cls-1" d="M6.78,70.81l-1.9-1.1a3.16,3.16,0,0,1,1.43-2.47l1.89,1.1A3.15,3.15,0,0,0,6.78,70.81Z"/></clipPath><clipPath id="clip-path-22" transform="translate(0)"><path class="cls-1" d="M3.2,79l-1.9-1.1A2.79,2.79,0,0,1,.14,75.31L2,76.42A2.76,2.76,0,0,0,3.2,79Z"/></clipPath><clipPath id="clip-path-23" transform="translate(0)"><path class="cls-1" d="M32.69,20.2l-1.9-1.1a3.12,3.12,0,0,0,1.42-2.47l1.9,1.1A3.17,3.17,0,0,1,32.69,20.2Z"/></clipPath><clipPath id="clip-path-24" transform="translate(0)"><path class="cls-1" d="M32.21,16.28a1,1,0,0,0-.42-.92l1.9,1.1a1,1,0,0,1,.42.92Z"/></clipPath><clipPath id="clip-path-25" transform="translate(0)"><path class="cls-1" d="M31.79,15.36l1.9,1.1a1,1,0,0,0-1,.1l-1.89-1.1A1,1,0,0,1,31.79,15.36Z"/></clipPath><clipPath id="clip-path-26" transform="translate(0)"><path class="cls-1" d="M7.16,58.13,5.26,57a1,1,0,0,0,1-.1L8.17,58A1,1,0,0,1,7.16,58.13Z"/></clipPath><clipPath id="clip-path-27" transform="translate(0)"><path class="cls-1" d="M7.16,58.13,5.26,57a1,1,0,0,1-.42-.92l1.9,1.1A1,1,0,0,0,7.16,58.13Z"/></clipPath><clipPath id="clip-path-28" transform="translate(0)"><path class="cls-1" d="M6.74,56.86l-1.9-1.1A3.14,3.14,0,0,1,6.27,53.3l1.89,1.1A3.13,3.13,0,0,0,6.74,56.86Z"/></clipPath><clipPath id="clip-path-29" transform="translate(0)"><path class="cls-1" d="M29,17.48l-1.9-1.1a3.16,3.16,0,0,0,1.43-2.47L30.4,15A3.15,3.15,0,0,1,29,17.48Z"/></clipPath><clipPath id="clip-path-30" transform="translate(0)"><path class="cls-1" d="M28.09,12.64,30,13.74a1,1,0,0,1,.42.92l-1.89-1.1A1,1,0,0,0,28.09,12.64Z"/></clipPath><clipPath id="clip-path-31" transform="translate(0)"><path class="cls-1" d="M5.25,51.58a1,1,0,0,0,1-.1l1.9,1.1a1,1,0,0,1-1,.1Z"/></clipPath><clipPath id="clip-path-32" transform="translate(0)"><path class="cls-1" d="M28.09,12.64,30,13.74a1,1,0,0,0-1,.1l-1.9-1.1A1,1,0,0,1,28.09,12.64Z"/></clipPath><clipPath id="clip-path-33" transform="translate(0)"><path class="cls-1" d="M7.14,52.68l-1.89-1.1a1,1,0,0,1-.42-.92l1.89,1.1A1,1,0,0,0,7.14,52.68Z"/></clipPath><clipPath id="clip-path-34" transform="translate(0)"><path class="cls-1" d="M6.72,51.41,4.83,50.3a3.13,3.13,0,0,1,1.42-2.46l1.9,1.1A3.14,3.14,0,0,0,6.72,51.41Z"/></clipPath><clipPath id="clip-path-35" transform="translate(0)"><path class="cls-1" d="M5.23,46.12a1,1,0,0,0,1-.1l1.89,1.1a1,1,0,0,1-1,.1Z"/></clipPath><clipPath id="clip-path-36" transform="translate(0)"><path class="cls-1" d="M7.12,47.22l-1.89-1.1a1,1,0,0,1-.42-.92l1.9,1.1A1,1,0,0,0,7.12,47.22Z"/></clipPath><clipPath id="clip-path-37" transform="translate(0)"><path class="cls-1" d="M6.71,46l-1.9-1.1a3.14,3.14,0,0,1,1.43-2.47l1.89,1.1A3.12,3.12,0,0,0,6.71,46Z"/></clipPath><clipPath id="clip-path-38" transform="translate(0)"><path class="cls-1" d="M8.36,31.56a1,1,0,0,0,1-.1l1.89,1.1a1,1,0,0,1-1,.1Z"/></clipPath><clipPath id="clip-path-39" transform="translate(0)"><path class="cls-1" d="M12,24.57a1,1,0,0,0,1-.1L15,25.57a1,1,0,0,1-1,.1Z"/></clipPath><clipPath id="clip-path-40" transform="translate(0)"><path class="cls-1" d="M10.26,32.66l-1.9-1.1a1,1,0,0,1-.42-.92l1.9,1.1A1,1,0,0,0,10.26,32.66Z"/></clipPath><clipPath id="clip-path-41" transform="translate(0)"><path class="cls-1" d="M13.93,25.67,12,24.57a1,1,0,0,1-.42-.91l1.9,1.1A1,1,0,0,0,13.93,25.67Z"/></clipPath><clipPath id="clip-path-42" transform="translate(0)"><path class="cls-1" d="M9.84,31.39l-1.9-1.1a3.16,3.16,0,0,1,1.43-2.47l1.89,1.1A3.15,3.15,0,0,0,9.84,31.39Z"/></clipPath><clipPath id="clip-path-43" transform="translate(0)"><path class="cls-1" d="M13.51,24.41l-1.89-1.1a3.14,3.14,0,0,1,1.43-2.47l1.89,1.1A3.16,3.16,0,0,0,13.51,24.41Z"/></clipPath><clipPath id="clip-path-44" transform="translate(0)"><path class="cls-1" d="M38.41.27l1.89,1.1a2.82,2.82,0,0,0-2.84.28L35.57.55A2.82,2.82,0,0,1,38.41.27Z"/></clipPath><clipPath id="clip-path-45" transform="translate(0)"><path class="cls-1" d="M1.89,26.78,0,25.68a8.81,8.81,0,0,1,4-6.9l1.9,1.1A8.82,8.82,0,0,0,1.89,26.78Z"/></clipPath></defs><title>document_4</title><g id="Layer_2" data-name="Layer 2"><g id="document_network_4"><g id="document_4"><g class="cls-2"><g class="cls-2"><g class="cls-3"><g class="cls-2"><path class="cls-4" d="M36,56l-1.89-1.1a2.37,2.37,0,0,0,.48-.37l1.89,1.1A2.06,2.06,0,0,1,36,56" transform="translate(0)"/><path class="cls-5" d="M36.43,55.59l-1.89-1.1.15-.17,1.9,1.11-.16.16" transform="translate(0)"/><path class="cls-6" d="M36.59,55.43l-1.9-1.11.12-.14,1.9,1.1-.12.15" transform="translate(0)"/><path class="cls-7" d="M36.71,55.28l-1.9-1.1a1.47,1.47,0,0,0,.1-.13l1.89,1.1-.09.13" transform="translate(0)"/><path class="cls-8" d="M36.8,55.15l-1.89-1.1.08-.12L36.88,55l-.08.12" transform="translate(0)"/><path class="cls-9" d="M36.88,55,35,53.93l.07-.12,1.9,1.1-.08.12" transform="translate(0)"/><path class="cls-10" d="M37,54.91l-1.9-1.1a.75.75,0,0,0,.07-.12l1.9,1.1a.75.75,0,0,0-.07.12" transform="translate(0)"/><path class="cls-11" d="M37,54.79l-1.9-1.1.06-.12,1.9,1.1-.06.12" transform="translate(0)"/><path class="cls-12" d="M37.09,54.67l-1.9-1.1.06-.13,1.89,1.1a.69.69,0,0,1,0,.13" transform="translate(0)"/><path class="cls-13" d="M37.14,54.54l-1.89-1.1a.5.5,0,0,0,0-.13l1.9,1.1-.06.13" transform="translate(0)"/><path class="cls-14" d="M37.2,54.41l-1.9-1.1a.69.69,0,0,0,.05-.13l1.9,1.1a.69.69,0,0,0,0,.13" transform="translate(0)"/><path class="cls-15" d="M37.25,54.28l-1.9-1.1,0-.15,1.89,1.1s0,.1,0,.15" transform="translate(0)"/><path class="cls-16" d="M37.29,54.13,35.4,53a.94.94,0,0,1,0-.16L37.33,54a.94.94,0,0,1,0,.16" transform="translate(0)"/><path class="cls-17" d="M37.33,54l-1.89-1.1,0-.2,1.89,1.1a1.62,1.62,0,0,1,0,.2" transform="translate(0)"/><path class="cls-18" d="M37.36,53.77l-1.89-1.1c0-.1,0-.19,0-.28l1.89,1.1a1.37,1.37,0,0,1,0,.28" transform="translate(0)"/></g></g></g><polygon class="cls-19" points="37.38 53.49 35.49 52.39 35.49 52.04 37.38 53.14 37.38 53.49"/><g class="cls-2"><g class="cls-20"><g class="cls-2"><path class="cls-18" d="M37.38,53.14,35.49,52a1,1,0,0,0-.42-.92l1.9,1.1a1,1,0,0,1,.41.92" transform="translate(0)"/></g></g></g><g class="cls-2"><g class="cls-21"><g class="cls-2"><path class="cls-22" d="M35.94,52.32l-1.89-1.1.2-.1,1.9,1.1-.21.1" transform="translate(0)"/><path class="cls-23" d="M36.15,52.22l-1.9-1.1.17-.06,1.9,1.11-.17,0" transform="translate(0)"/><path class="cls-24" d="M36.32,52.17l-1.9-1.11.13,0,1.89,1.1a.27.27,0,0,0-.12,0" transform="translate(0)"/><path class="cls-25" d="M36.44,52.14,34.55,51h.1l1.9,1.1h-.11" transform="translate(0)"/><path class="cls-26" d="M36.55,52.13,34.65,51h.1l1.89,1.1h-.09" transform="translate(0)"/><path class="cls-27" d="M36.64,52.13,34.75,51h.09l1.89,1.1h-.09" transform="translate(0)"/><path class="cls-28" d="M36.73,52.14,34.84,51l.08,0,1.89,1.1-.08,0" transform="translate(0)"/><path class="cls-29" d="M36.81,52.16l-1.89-1.1.07,0,1.9,1.1-.08,0" transform="translate(0)"/><path class="cls-30" d="M36.89,52.18,35,51.08l.07,0,1.9,1.1-.07,0" transform="translate(0)"/><polyline class="cls-31" points="36.96 52.22 35.06 51.12 35.07 51.12 36.97 52.22 36.96 52.22"/></g></g></g><polygon class="cls-32" points="28.79 60.1 26.9 59 34.06 54.86 35.95 55.96 28.79 60.1"/><g class="cls-2"><g class="cls-33"><g class="cls-2"><polyline class="cls-13" points="27.77 60.2 25.88 59.09 25.89 59.1 27.78 60.2 27.77 60.2"/><path class="cls-12" d="M27.78,60.2l-1.89-1.1.07,0,1.89,1.1-.07,0" transform="translate(0)"/><path class="cls-11" d="M27.85,60.24,26,59.14l.07,0,1.9,1.1-.08,0" transform="translate(0)"/><path class="cls-10" d="M27.93,60.26,26,59.16l.09,0L28,60.28l-.08,0" transform="translate(0)"/><path class="cls-9" d="M28,60.28l-1.89-1.1h.08l1.9,1.1H28" transform="translate(0)"/><path class="cls-8" d="M28.1,60.29l-1.9-1.1h.1l1.89,1.1H28.1" transform="translate(0)"/><path class="cls-7" d="M28.19,60.29l-1.89-1.1h.1l1.9,1.1h-.11" transform="translate(0)"/><path class="cls-6" d="M28.3,60.28l-1.9-1.1a.5.5,0,0,0,.13,0l1.89,1.11-.12,0" transform="translate(0)"/><path class="cls-5" d="M28.42,60.26l-1.89-1.11.17,0,1.89,1.1-.17.06" transform="translate(0)"/><path class="cls-4" d="M28.59,60.2,26.7,59.1l.2-.1,1.89,1.1-.2.1" transform="translate(0)"/></g></g></g><g class="cls-2"><g class="cls-34"><g class="cls-2"><path class="cls-35" d="M27.77,60.2l-1.89-1.1a1,1,0,0,1-.42-.92l1.89,1.1a1,1,0,0,0,.42.92" transform="translate(0)"/></g></g></g><polygon class="cls-36" points="27.35 59.28 25.46 58.18 25.46 57.83 27.35 58.93 27.35 59.28"/><polygon class="cls-37" points="28.78 56.46 26.89 55.36 34.05 51.22 35.94 52.32 28.78 56.46"/><g class="cls-2"><g class="cls-38"><g class="cls-2"><path class="cls-35" d="M27.35,58.93l-1.89-1.1a1.32,1.32,0,0,1,0-.28l1.89,1.1a2.64,2.64,0,0,0,0,.28" transform="translate(0)"/><path class="cls-39" d="M27.37,58.65l-1.89-1.1,0-.2,1.9,1.1a1.42,1.42,0,0,0,0,.2" transform="translate(0)"/><path class="cls-40" d="M27.41,58.45l-1.9-1.1c0-.05,0-.11,0-.16l1.9,1.1a.94.94,0,0,0,0,.16" transform="translate(0)"/><path class="cls-41" d="M27.45,58.29l-1.9-1.1A.88.88,0,0,1,25.6,57l1.89,1.1a.83.83,0,0,0,0,.15" transform="translate(0)"/><path class="cls-42" d="M27.49,58.14,25.6,57l0-.13,1.9,1.1a.69.69,0,0,0-.05.13" transform="translate(0)"/><path class="cls-31" d="M27.54,58l-1.9-1.1.06-.13,1.89,1.1a.69.69,0,0,0-.05.13" transform="translate(0)"/><path class="cls-30" d="M27.59,57.88l-1.89-1.1a.61.61,0,0,1,.05-.12l1.9,1.1-.06.12" transform="translate(0)"/><path class="cls-29" d="M27.65,57.76l-1.9-1.1.06-.13,1.9,1.11-.06.12" transform="translate(0)"/><path class="cls-28" d="M27.71,57.64l-1.9-1.11a.75.75,0,0,0,.07-.12l1.9,1.1a.54.54,0,0,0-.07.13" transform="translate(0)"/><path class="cls-27" d="M27.78,57.51l-1.9-1.1.08-.12,1.89,1.1-.07.12" transform="translate(0)"/><path class="cls-26" d="M27.85,57.39,26,56.29l.08-.12,1.89,1.1-.08.12" transform="translate(0)"/><path class="cls-25" d="M27.93,57.27,26,56.17l.09-.13,1.9,1.1-.1.13" transform="translate(0)"/><path class="cls-24" d="M28,57.14,26.13,56l.12-.14,1.9,1.1-.12.14" transform="translate(0)"/><path class="cls-23" d="M28.15,57l-1.9-1.1a1.29,1.29,0,0,1,.16-.17l1.89,1.1-.15.17" transform="translate(0)"/><path class="cls-22" d="M28.3,56.83l-1.89-1.1a2.37,2.37,0,0,1,.48-.37l1.89,1.1a2.37,2.37,0,0,0-.48.37" transform="translate(0)"/></g></g></g><g class="cls-2"><g class="cls-43"><g class="cls-2"><path class="cls-4" d="M35.91,42,34,40.92a2.8,2.8,0,0,0,.48-.37l1.89,1.1a2.37,2.37,0,0,1-.48.37" transform="translate(0)"/><path class="cls-5" d="M36.39,41.65l-1.89-1.1.16-.17,1.89,1.1-.16.17" transform="translate(0)"/><path class="cls-6" d="M36.55,41.48l-1.89-1.1.11-.14,1.9,1.1-.12.14" transform="translate(0)"/><path class="cls-7" d="M36.67,41.34l-1.9-1.1.1-.13,1.89,1.1-.09.13" transform="translate(0)"/><path class="cls-8" d="M36.76,41.21l-1.89-1.1L35,40l1.89,1.1-.08.12" transform="translate(0)"/><path class="cls-9" d="M36.84,41.09,35,40a.54.54,0,0,0,.07-.13L36.92,41l-.08.12" transform="translate(0)"/><path class="cls-10" d="M36.92,41,35,39.86a.75.75,0,0,0,.07-.12l1.9,1.1-.07.13" transform="translate(0)"/><path class="cls-11" d="M37,40.84l-1.9-1.1.06-.12,1.9,1.1-.06.12" transform="translate(0)"/><path class="cls-12" d="M37.05,40.72l-1.9-1.1.06-.12,1.89,1.1a.61.61,0,0,1-.05.12" transform="translate(0)"/><path class="cls-13" d="M37.1,40.6l-1.89-1.1a1.12,1.12,0,0,0,0-.13l1.9,1.1-.06.13" transform="translate(0)"/><path class="cls-14" d="M37.16,40.47l-1.9-1.1a.78.78,0,0,0,.05-.14l1.9,1.1a.78.78,0,0,0-.05.14" transform="translate(0)"/><path class="cls-15" d="M37.21,40.33l-1.9-1.1,0-.14,1.89,1.1c0,.05,0,.1,0,.14" transform="translate(0)"/><path class="cls-16" d="M37.25,40.19l-1.89-1.1a1,1,0,0,1,0-.17L37.29,40a1,1,0,0,1,0,.17" transform="translate(0)"/><path class="cls-17" d="M37.29,40l-1.89-1.1,0-.2,1.89,1.1a1.2,1.2,0,0,1,0,.2" transform="translate(0)"/><path class="cls-18" d="M37.32,39.82l-1.89-1.1a2.46,2.46,0,0,0,0-.28l1.89,1.1a1.27,1.27,0,0,1,0,.28" transform="translate(0)"/></g></g></g><polygon class="cls-19" points="37.34 39.54 35.45 38.44 35.45 38.09 37.34 39.19 37.34 39.54"/><g class="cls-2"><g class="cls-44"><g class="cls-2"><path class="cls-18" d="M37.34,39.19l-1.89-1.1a1,1,0,0,0-.42-.91l1.9,1.1a1,1,0,0,1,.41.91" transform="translate(0)"/></g></g></g><g class="cls-2"><g class="cls-45"><g class="cls-2"><path class="cls-22" d="M35.9,38.38,34,37.28l.2-.1,1.9,1.1-.21.1" transform="translate(0)"/><path class="cls-23" d="M36.11,38.28l-1.9-1.1.17-.06,1.9,1.1-.17.06" transform="translate(0)"/><path class="cls-24" d="M36.28,38.22l-1.9-1.1.13,0,1.89,1.1-.12,0" transform="translate(0)"/><path class="cls-25" d="M36.4,38.19l-1.89-1.1h.1l1.9,1.1H36.4" transform="translate(0)"/><path class="cls-26" d="M36.51,38.18l-1.9-1.1h.1l1.89,1.1h-.09" transform="translate(0)"/><path class="cls-27" d="M36.6,38.18l-1.89-1.1h.09l1.89,1.1H36.6" transform="translate(0)"/><path class="cls-28" d="M36.69,38.19l-1.89-1.1.08,0,1.89,1.1-.08,0" transform="translate(0)"/><path class="cls-29" d="M36.77,38.21l-1.89-1.1.07,0,1.9,1.1-.08,0" transform="translate(0)"/><path class="cls-30" d="M36.85,38.24,35,37.14l.07,0,1.9,1.1-.07,0" transform="translate(0)"/><polyline class="cls-31" points="36.92 38.27 35.02 37.17 35.03 37.18 36.93 38.28 36.92 38.27"/></g></g></g><g class="cls-2"><g class="cls-46"><g class="cls-2"><path class="cls-4" d="M35.9,36.56,34,35.46a2.87,2.87,0,0,0,.49-.37l1.89,1.1a2.37,2.37,0,0,1-.48.37" transform="translate(0)"/><path class="cls-5" d="M36.38,36.19l-1.89-1.1.15-.17,1.9,1.1-.16.17" transform="translate(0)"/><path class="cls-6" d="M36.54,36l-1.9-1.1.12-.14,1.89,1.1a1.34,1.34,0,0,1-.11.14" transform="translate(0)"/><path class="cls-7" d="M36.65,35.88l-1.89-1.1.09-.13,1.9,1.1a1.13,1.13,0,0,1-.1.13" transform="translate(0)"/><path class="cls-8" d="M36.75,35.75l-1.9-1.1.09-.12,1.89,1.1-.08.12" transform="translate(0)"/><path class="cls-9" d="M36.83,35.63l-1.89-1.1s.05-.08.07-.13l1.9,1.11-.08.12" transform="translate(0)"/><path class="cls-10" d="M36.91,35.51,35,34.4a.63.63,0,0,0,.07-.12L37,35.39l-.06.12" transform="translate(0)"/><path class="cls-11" d="M37,35.39l-1.89-1.11.06-.12L37,35.26l-.06.13" transform="translate(0)"/><path class="cls-12" d="M37,35.26l-1.89-1.1L35.2,34l1.89,1.1-.06.12" transform="translate(0)"/><path class="cls-13" d="M37.09,35.14,35.2,34a.69.69,0,0,1,0-.13L37.14,35a.5.5,0,0,1,0,.13" transform="translate(0)"/><path class="cls-14" d="M37.14,35l-1.89-1.1a.69.69,0,0,1,0-.13l1.89,1.1a.69.69,0,0,1,0,.13" transform="translate(0)"/><path class="cls-15" d="M37.19,34.88l-1.89-1.1c0-.05,0-.1,0-.15l1.9,1.1c0,.05,0,.1-.05.15" transform="translate(0)"/><path class="cls-16" d="M37.24,34.73l-1.9-1.1a.94.94,0,0,0,0-.16l1.9,1.1a.94.94,0,0,0,0,.16" transform="translate(0)"/><path class="cls-17" d="M37.28,34.57l-1.9-1.1a1.38,1.38,0,0,0,0-.2l1.9,1.1,0,.2" transform="translate(0)"/><path class="cls-18" d="M37.31,34.37l-1.9-1.1a1.32,1.32,0,0,0,0-.28l1.9,1.1a2.64,2.64,0,0,1,0,.28" transform="translate(0)"/></g></g></g><polygon class="cls-19" points="37.33 34.09 35.43 32.99 35.43 32.63 37.33 33.74 37.33 34.09"/><g class="cls-2"><g class="cls-47"><g class="cls-2"><path class="cls-18" d="M37.33,33.74l-1.9-1.11a1,1,0,0,0-.41-.91l1.89,1.1a1,1,0,0,1,.42.92" transform="translate(0)"/></g></g></g><g class="cls-2"><g class="cls-48"><g class="cls-2"><path class="cls-22" d="M35.89,32.92,34,31.82l.21-.1,1.89,1.1-.2.1" transform="translate(0)"/><path class="cls-23" d="M36.09,32.82l-1.89-1.1.17-.06,1.89,1.1-.17.06" transform="translate(0)"/><path class="cls-24" d="M36.26,32.76l-1.89-1.1.12,0,1.9,1.11-.13,0" transform="translate(0)"/><path class="cls-25" d="M36.39,32.74l-1.9-1.11h.11l1.89,1.1-.1,0" transform="translate(0)"/><path class="cls-26" d="M36.49,32.72l-1.89-1.1h.09l1.9,1.11h-.1" transform="translate(0)"/><path class="cls-27" d="M36.59,32.73l-1.9-1.11h.09l1.9,1.11h-.09" transform="translate(0)"/><path class="cls-28" d="M36.68,32.74l-1.9-1.11.08,0,1.9,1.1h-.08" transform="translate(0)"/><path class="cls-29" d="M36.76,32.75l-1.9-1.1.08,0,1.89,1.1-.07,0" transform="translate(0)"/><path class="cls-30" d="M36.83,32.78l-1.89-1.1.07,0,1.89,1.11-.07,0" transform="translate(0)"/><polyline class="cls-31" points="36.9 32.82 35.01 31.71 35.02 31.72 36.91 32.82 36.9 32.82"/></g></g></g><g class="cls-2"><g class="cls-49"><g class="cls-2"><path class="cls-4" d="M15.38,67.84l-1.9-1.1a2.06,2.06,0,0,0,.48-.37l1.89,1.1a1.83,1.83,0,0,1-.47.37" transform="translate(0)"/><path class="cls-5" d="M15.85,67.47,14,66.37l.15-.16,1.9,1.1a1.21,1.21,0,0,1-.16.16" transform="translate(0)"/><path class="cls-6" d="M16,67.31l-1.9-1.1.12-.14,1.9,1.1-.12.14" transform="translate(0)"/><path class="cls-7" d="M16.13,67.17l-1.9-1.1a.64.64,0,0,1,.1-.13L16.22,67l-.09.13" transform="translate(0)"/><path class="cls-8" d="M16.22,67l-1.89-1.1.08-.13,1.89,1.1a.57.57,0,0,1-.08.13" transform="translate(0)"/><path class="cls-9" d="M16.3,66.91l-1.89-1.1.07-.12,1.9,1.1-.08.12" transform="translate(0)"/><path class="cls-10" d="M16.38,66.79l-1.9-1.1a.75.75,0,0,0,.07-.12l1.89,1.1-.06.12" transform="translate(0)"/><path class="cls-11" d="M16.44,66.67l-1.89-1.1.06-.12,1.9,1.1a.75.75,0,0,1-.07.12" transform="translate(0)"/><path class="cls-12" d="M16.51,66.55l-1.9-1.1.06-.13,1.89,1.11a.61.61,0,0,1,0,.12" transform="translate(0)"/><path class="cls-13" d="M16.56,66.43l-1.89-1.11.05-.12,1.9,1.1-.06.13" transform="translate(0)"/><path class="cls-14" d="M16.62,66.3l-1.9-1.1a.78.78,0,0,0,0-.14l1.89,1.1s0,.09,0,.14" transform="translate(0)"/><path class="cls-15" d="M16.66,66.16l-1.89-1.1a.83.83,0,0,0,0-.15l1.9,1.1a.88.88,0,0,1-.05.15" transform="translate(0)"/><path class="cls-16" d="M16.71,66l-1.9-1.1s0-.11,0-.16l1.89,1.1c0,.05,0,.11,0,.16" transform="translate(0)"/><path class="cls-17" d="M16.75,65.85l-1.89-1.1,0-.2,1.89,1.1a1.38,1.38,0,0,1,0,.2" transform="translate(0)"/><path class="cls-18" d="M16.78,65.65l-1.89-1.1a2.64,2.64,0,0,0,0-.28l1.89,1.1a1.32,1.32,0,0,1,0,.28" transform="translate(0)"/></g></g></g><polygon class="cls-19" points="16.8 65.37 14.91 64.27 14.91 63.92 16.8 65.02 16.8 65.37"/><g class="cls-2"><g class="cls-50"><g class="cls-2"><path class="cls-4" d="M35.88,31.1,34,30a2.37,2.37,0,0,0,.48-.37l1.9,1.1a2.74,2.74,0,0,1-.49.37" transform="translate(0)"/><path class="cls-5" d="M36.37,30.73l-1.9-1.1.16-.17,1.89,1.1-.15.17" transform="translate(0)"/><path class="cls-6" d="M36.52,30.56l-1.89-1.1a.76.76,0,0,0,.11-.14l1.9,1.1-.12.14" transform="translate(0)"/><path class="cls-7" d="M36.64,30.42l-1.9-1.1a1.13,1.13,0,0,0,.1-.13l1.89,1.1-.09.13" transform="translate(0)"/><path class="cls-8" d="M36.73,30.29l-1.89-1.1.08-.12,1.9,1.1-.09.12" transform="translate(0)"/><path class="cls-9" d="M36.82,30.17l-1.9-1.1A.75.75,0,0,0,35,29l1.9,1.1-.07.12" transform="translate(0)"/><path class="cls-10" d="M36.89,30.05,35,29a.75.75,0,0,0,.07-.12l1.9,1.1-.07.12" transform="translate(0)"/><path class="cls-11" d="M37,29.93l-1.9-1.1.06-.12,1.9,1.1-.06.12" transform="translate(0)"/><path class="cls-12" d="M37,29.81l-1.9-1.1.06-.13,1.89,1.1a.69.69,0,0,1,0,.13" transform="translate(0)"/><path class="cls-13" d="M37.07,29.68l-1.89-1.1a.5.5,0,0,0,0-.13l1.9,1.1-.06.13" transform="translate(0)"/><path class="cls-14" d="M37.13,29.55l-1.9-1.1a.69.69,0,0,0,.05-.13l1.9,1.1a.69.69,0,0,0,0,.13" transform="translate(0)"/><path class="cls-15" d="M37.18,29.42l-1.9-1.1a.83.83,0,0,0,0-.15l1.9,1.1c0,.05,0,.1,0,.15" transform="translate(0)"/><path class="cls-16" d="M37.22,29.27l-1.9-1.1c0-.05,0-.11,0-.16l1.89,1.1c0,.06,0,.11,0,.16" transform="translate(0)"/><path class="cls-17" d="M37.26,29.11,35.37,28l0-.2,1.89,1.1a1.38,1.38,0,0,1,0,.2" transform="translate(0)"/><path class="cls-18" d="M37.29,28.91l-1.89-1.1a2.64,2.64,0,0,0,0-.28l1.89,1.1a1.32,1.32,0,0,1,0,.28" transform="translate(0)"/></g></g></g><polygon class="cls-19" points="37.31 28.63 35.42 27.53 35.42 27.18 37.31 28.28 37.31 28.63"/><g class="cls-2"><g class="cls-51"><g class="cls-2"><path class="cls-18" d="M16.8,65l-1.89-1.1a1,1,0,0,0-.42-.92l1.89,1.1a1,1,0,0,1,.42.92" transform="translate(0)"/></g></g></g><g class="cls-2"><g class="cls-52"><g class="cls-2"><path class="cls-18" d="M37.31,28.28l-1.89-1.1a1,1,0,0,0-.42-.92l1.89,1.1a1,1,0,0,1,.42.92" transform="translate(0)"/></g></g></g><g class="cls-2"><g class="cls-53"><g class="cls-2"><path class="cls-22" d="M15.37,64.2l-1.9-1.1.2-.1,1.9,1.1-.2.1" transform="translate(0)"/><path class="cls-23" d="M15.57,64.1,13.67,63l.17-.06,1.9,1.11-.17,0" transform="translate(0)"/><path class="cls-24" d="M15.74,64.05l-1.9-1.11.13,0L15.86,64l-.12,0" transform="translate(0)"/><path class="cls-25" d="M15.86,64,14,62.92h.1L16,64h-.11" transform="translate(0)"/><path class="cls-26" d="M16,64l-1.9-1.1h.1L16.06,64H16" transform="translate(0)"/><path class="cls-27" d="M16.06,64l-1.89-1.1h.09L16.15,64h-.09" transform="translate(0)"/><path class="cls-28" d="M16.15,64l-1.89-1.1.08,0L16.23,64l-.08,0" transform="translate(0)"/><path class="cls-29" d="M16.23,64l-1.89-1.1.07,0,1.9,1.1-.08,0" transform="translate(0)"/><path class="cls-30" d="M16.31,64.06,14.41,63l.07,0,1.9,1.1-.07,0" transform="translate(0)"/><polyline class="cls-31" points="16.38 64.1 14.48 63 14.49 63 16.39 64.1 16.38 64.1"/></g></g></g><g class="cls-2"><g class="cls-54"><g class="cls-2"><path class="cls-22" d="M35.87,27.46,34,26.36l.2-.1,1.89,1.1-.2.1" transform="translate(0)"/><path class="cls-23" d="M36.07,27.36l-1.89-1.1.17-.06,1.89,1.1-.17.06" transform="translate(0)"/><path class="cls-24" d="M36.24,27.3l-1.89-1.1.12,0,1.9,1.1-.13,0" transform="translate(0)"/><path class="cls-25" d="M36.37,27.28l-1.9-1.1h.11l1.9,1.1h-.11" transform="translate(0)"/><path class="cls-26" d="M36.48,27.27l-1.9-1.1a.34.34,0,0,1,.1,0l1.89,1.1h-.09" transform="translate(0)"/><path class="cls-27" d="M36.57,27.27l-1.89-1.1h.08l1.9,1.1h-.09" transform="translate(0)"/><path class="cls-28" d="M36.66,27.28l-1.9-1.1.08,0,1.9,1.1-.08,0" transform="translate(0)"/><path class="cls-29" d="M36.74,27.3l-1.9-1.1.08,0,1.89,1.1-.07,0" transform="translate(0)"/><path class="cls-30" d="M36.81,27.32l-1.89-1.1.07,0,1.9,1.1-.08,0" transform="translate(0)"/><polyline class="cls-31" points="36.88 27.36 34.99 26.26 35 26.26 36.89 27.36 36.88 27.36"/></g></g></g><polygon class="cls-32" points="8.21 71.98 6.32 70.88 13.48 66.74 15.38 67.84 8.21 71.98"/><g class="cls-2"><g class="cls-55"><g class="cls-2"><polyline class="cls-13" points="7.2 72.08 5.3 70.98 5.31 70.98 7.21 72.08 7.2 72.08"/><path class="cls-12" d="M7.21,72.08,5.31,71l.07,0,1.9,1.1-.07,0" transform="translate(0)"/><path class="cls-11" d="M7.28,72.12,5.38,71l.08,0,1.89,1.1-.07,0" transform="translate(0)"/><path class="cls-10" d="M7.35,72.14,5.46,71l.08,0,1.89,1.1-.08,0" transform="translate(0)"/><path class="cls-9" d="M7.43,72.16l-1.89-1.1h.08l1.9,1.1H7.43" transform="translate(0)"/><path class="cls-8" d="M7.52,72.17l-1.9-1.1h.1l1.89,1.1a.14.14,0,0,1-.09,0" transform="translate(0)"/><path class="cls-7" d="M7.61,72.17l-1.89-1.1h.11l1.89,1.1H7.61" transform="translate(0)"/><path class="cls-6" d="M7.72,72.16l-1.89-1.1L6,71l1.9,1.1-.13,0" transform="translate(0)"/><path class="cls-5" d="M7.85,72.14,6,71,6.12,71,8,72.08l-.16.06" transform="translate(0)"/><path class="cls-4" d="M8,72.08,6.12,71l.2-.1L8.21,72l-.2.1" transform="translate(0)"/></g></g></g><g class="cls-2"><g class="cls-56"><g class="cls-2"><path class="cls-35" d="M7.2,72.08,5.3,71a1,1,0,0,1-.42-.92l1.9,1.1a1,1,0,0,0,.42.92" transform="translate(0)"/></g></g></g><polygon class="cls-36" points="6.78 71.16 4.88 70.06 4.88 69.71 6.78 70.81 6.78 71.16"/><polygon class="cls-37" points="8.2 68.34 6.31 67.24 13.47 63.1 15.37 64.2 8.2 68.34"/><g class="cls-2"><g class="cls-57"><g class="cls-2"><path class="cls-35" d="M6.78,70.81l-1.9-1.1a2.64,2.64,0,0,1,0-.28l1.9,1.1a1.32,1.32,0,0,0,0,.28" transform="translate(0)"/><path class="cls-39" d="M6.8,70.53l-1.9-1.1a1.42,1.42,0,0,1,0-.2l1.89,1.1a1.38,1.38,0,0,0,0,.2" transform="translate(0)"/><path class="cls-40" d="M6.83,70.33l-1.89-1.1a1,1,0,0,1,0-.17l1.89,1.11a.94.94,0,0,0,0,.16" transform="translate(0)"/><path class="cls-41" d="M6.87,70.17,5,69.06a1,1,0,0,1,0-.14L6.91,70s0,.1,0,.15" transform="translate(0)"/><path class="cls-42" d="M6.91,70,5,68.92a.78.78,0,0,1,.05-.14L7,69.89a.69.69,0,0,1,0,.13" transform="translate(0)"/><path class="cls-31" d="M7,69.89,5.07,68.78a.61.61,0,0,1,0-.12L7,69.76,7,69.89" transform="translate(0)"/><path class="cls-30" d="M7,69.76l-1.9-1.1.06-.13,1.89,1.1a.69.69,0,0,0-.05.13" transform="translate(0)"/><path class="cls-29" d="M7.07,69.63l-1.89-1.1.06-.12,1.89,1.1-.06.12" transform="translate(0)"/><path class="cls-28" d="M7.13,69.51l-1.89-1.1a.75.75,0,0,1,.07-.12l1.89,1.1a.75.75,0,0,1-.07.12" transform="translate(0)"/><path class="cls-27" d="M7.2,69.39l-1.89-1.1a.75.75,0,0,1,.07-.12l1.89,1.1-.07.12" transform="translate(0)"/><path class="cls-26" d="M7.27,69.27l-1.89-1.1.08-.12,1.9,1.1-.09.12" transform="translate(0)"/><path class="cls-25" d="M7.36,69.15l-1.9-1.1a.64.64,0,0,1,.1-.13L7.45,69l-.09.13" transform="translate(0)"/><path class="cls-24" d="M7.45,69l-1.89-1.1a.76.76,0,0,1,.11-.14l1.9,1.1L7.45,69" transform="translate(0)"/><path class="cls-23" d="M7.57,68.88l-1.9-1.1.16-.17,1.89,1.1-.15.17" transform="translate(0)"/><path class="cls-22" d="M7.72,68.71l-1.89-1.1a2.37,2.37,0,0,1,.48-.37l1.89,1.1a2.37,2.37,0,0,0-.48.37" transform="translate(0)"/></g></g></g><g class="cls-2"><g class="cls-58"><g class="cls-2"><path class="cls-18" d="M3.2,79l-1.9-1.1A2.79,2.79,0,0,1,.14,75.31L2,76.42A2.76,2.76,0,0,0,3.2,79" transform="translate(0)"/></g></g></g><g class="cls-2"><g class="cls-59"><g class="cls-2"><path class="cls-4" d="M32.69,20.2l-1.9-1.1a2.8,2.8,0,0,0,.48-.37l1.89,1.1a3.18,3.18,0,0,1-.47.37" transform="translate(0)"/><path class="cls-5" d="M33.16,19.83l-1.89-1.1.15-.17,1.9,1.1-.16.17" transform="translate(0)"/><path class="cls-6" d="M33.32,19.66l-1.9-1.1.12-.14,1.89,1.1a1.34,1.34,0,0,1-.11.14" transform="translate(0)"/><path class="cls-7" d="M33.43,19.52l-1.89-1.1a1.13,1.13,0,0,1,.1-.13l1.89,1.1a1.13,1.13,0,0,1-.1.13" transform="translate(0)"/><path class="cls-8" d="M33.53,19.39l-1.89-1.1.08-.12,1.89,1.1a.83.83,0,0,1-.08.12" transform="translate(0)"/><path class="cls-9" d="M33.61,19.27l-1.89-1.1.07-.12,1.9,1.1-.08.12" transform="translate(0)"/><path class="cls-10" d="M33.69,19.15l-1.9-1.1s.05-.08.07-.13L33.75,19l-.06.12" transform="translate(0)"/><path class="cls-11" d="M33.75,19l-1.89-1.11.06-.12,1.89,1.1a.52.52,0,0,1-.06.13" transform="translate(0)"/><path class="cls-12" d="M33.81,18.9l-1.89-1.1.06-.12,1.89,1.1-.06.12" transform="translate(0)"/><path class="cls-13" d="M33.87,18.78,32,17.68s0-.09.05-.13l1.89,1.1a.5.5,0,0,1-.05.13" transform="translate(0)"/><path class="cls-14" d="M33.92,18.65,32,17.55s0-.09,0-.13L34,18.52a.69.69,0,0,1,0,.13" transform="translate(0)"/><path class="cls-15" d="M34,18.52l-1.89-1.1c0-.05,0-.1,0-.15l1.9,1.1c0,.05,0,.1-.05.15" transform="translate(0)"/><path class="cls-16" d="M34,18.37l-1.9-1.1a.94.94,0,0,0,0-.16l1.9,1.1c0,.05,0,.11,0,.16" transform="translate(0)"/><path class="cls-17" d="M34.06,18.21l-1.9-1.1a1.77,1.77,0,0,0,0-.2L34.09,18l0,.2" transform="translate(0)"/><path class="cls-18" d="M34.09,18l-1.89-1.1a2.72,2.72,0,0,0,0-.28l1.9,1.1c0,.09,0,.18,0,.28" transform="translate(0)"/></g></g></g><polygon class="cls-19" points="34.11 17.73 32.22 16.63 32.21 16.28 34.11 17.38 34.11 17.73"/><g class="cls-2"><g class="cls-60"><g class="cls-2"><path class="cls-18" d="M34.11,17.38l-1.9-1.1a1,1,0,0,0-.42-.92l1.9,1.1a1,1,0,0,1,.42.92" transform="translate(0)"/></g></g></g><g class="cls-2"><g class="cls-61"><g class="cls-2"><path class="cls-22" d="M32.67,16.56l-1.89-1.1a.93.93,0,0,1,.2-.1l1.89,1.1-.2.1" transform="translate(0)"/><path class="cls-23" d="M32.87,16.46,31,15.36a.58.58,0,0,1,.17-.06L33,16.4l-.17.06" transform="translate(0)"/><path class="cls-24" d="M33,16.4l-1.89-1.1.12,0,1.9,1.1-.13,0" transform="translate(0)"/><path class="cls-25" d="M33.17,16.37l-1.9-1.1h.11l1.89,1.1h-.1" transform="translate(0)"/><path class="cls-26" d="M33.27,16.36l-1.89-1.1h.09l1.9,1.1h-.1" transform="translate(0)"/><path class="cls-27" d="M33.37,16.36l-1.9-1.1h.09l1.89,1.1h-.08" transform="translate(0)"/><path class="cls-28" d="M33.45,16.37l-1.89-1.1.08,0,1.89,1.1-.08,0" transform="translate(0)"/><path class="cls-29" d="M33.53,16.39l-1.89-1.1.07,0,1.9,1.1-.08,0" transform="translate(0)"/><path class="cls-30" d="M33.61,16.42l-1.9-1.1.08,0,1.89,1.1-.07,0" transform="translate(0)"/><polyline class="cls-31" points="33.68 16.45 31.79 15.35 31.8 15.36 33.69 16.46 33.68 16.45"/></g></g></g><polygon class="cls-32" points="8.17 58.04 6.28 56.94 34.02 40.92 35.91 42.02 8.17 58.04"/><g class="cls-2"><g class="cls-62"><g class="cls-2"><polyline class="cls-13" points="7.16 58.13 5.26 57.03 5.27 57.04 7.17 58.14 7.16 58.13"/><path class="cls-12" d="M7.17,58.14,5.27,57l.07,0,1.9,1.1-.07,0" transform="translate(0)"/><path class="cls-11" d="M7.24,58.17l-1.9-1.1.08,0,1.89,1.1-.07,0" transform="translate(0)"/><path class="cls-10" d="M7.31,58.2,5.42,57.1l.08,0,1.89,1.1-.08,0" transform="translate(0)"/><path class="cls-9" d="M7.39,58.22,5.5,57.12h.09l1.89,1.1H7.39" transform="translate(0)"/><path class="cls-8" d="M7.48,58.23l-1.89-1.1h.09l1.89,1.1H7.48" transform="translate(0)"/><path class="cls-7" d="M7.57,58.23l-1.89-1.1h.11l1.89,1.1H7.57" transform="translate(0)"/><path class="cls-6" d="M7.68,58.22l-1.89-1.1.12,0,1.9,1.1-.13,0" transform="translate(0)"/><path class="cls-5" d="M7.81,58.19l-1.9-1.1A.58.58,0,0,0,6.08,57L8,58.13a.52.52,0,0,1-.16.06" transform="translate(0)"/><path class="cls-4" d="M8,58.13,6.08,57l.2-.1L8.17,58a1.21,1.21,0,0,1-.2.09" transform="translate(0)"/></g></g></g><g class="cls-2"><g class="cls-63"><g class="cls-2"><path class="cls-35" d="M7.16,58.13,5.26,57a1,1,0,0,1-.42-.92l1.9,1.1a1,1,0,0,0,.42.92" transform="translate(0)"/></g></g></g><polygon class="cls-36" points="6.74 57.21 4.84 56.11 4.84 55.76 6.74 56.86 6.74 57.21"/><polygon class="cls-37" points="8.16 54.4 6.27 53.3 34.01 37.28 35.9 38.38 8.16 54.4"/><g class="cls-2"><g class="cls-64"><g class="cls-2"><path class="cls-35" d="M6.74,56.86l-1.9-1.1c0-.09,0-.18,0-.28l1.9,1.1a1.37,1.37,0,0,0,0,.28" transform="translate(0)"/><path class="cls-39" d="M6.76,56.58l-1.9-1.1a1.77,1.77,0,0,1,0-.2l1.89,1.11a1.25,1.25,0,0,0,0,.19" transform="translate(0)"/><path class="cls-40" d="M6.79,56.39,4.9,55.28a1.24,1.24,0,0,1,0-.16l1.89,1.1c0,.06,0,.11,0,.17" transform="translate(0)"/><path class="cls-41" d="M6.83,56.22l-1.89-1.1A.83.83,0,0,1,5,55l1.9,1.11a.58.58,0,0,0,0,.14" transform="translate(0)"/><path class="cls-42" d="M6.88,56.08,5,55s0-.09,0-.13l1.89,1.1c0,.05,0,.09,0,.14" transform="translate(0)"/><path class="cls-31" d="M6.92,55.94,5,54.84s0-.09,0-.13L7,55.81l-.06.13" transform="translate(0)"/><path class="cls-30" d="M7,55.81l-1.9-1.1.06-.12L7,55.69a.61.61,0,0,0,0,.12" transform="translate(0)"/><path class="cls-29" d="M7,55.69l-1.89-1.1.06-.12,1.89,1.1L7,55.69" transform="translate(0)"/><path class="cls-28" d="M7.09,55.57,5.2,54.47a.75.75,0,0,1,.07-.12l1.89,1.1a.75.75,0,0,1-.07.12" transform="translate(0)"/><path class="cls-27" d="M7.16,55.45l-1.89-1.1a.75.75,0,0,1,.07-.12l1.89,1.1-.07.12" transform="translate(0)"/><path class="cls-26" d="M7.23,55.33l-1.89-1.1.08-.13,1.9,1.1-.09.13" transform="translate(0)"/><path class="cls-25" d="M7.32,55.2l-1.9-1.1a1.47,1.47,0,0,0,.1-.13l1.89,1.1-.09.13" transform="translate(0)"/><path class="cls-24" d="M7.41,55.07,5.52,54l.11-.14,1.9,1.1-.12.14" transform="translate(0)"/><path class="cls-23" d="M7.53,54.93l-1.9-1.1.16-.16,1.89,1.1-.15.16" transform="translate(0)"/><path class="cls-22" d="M7.68,54.77l-1.89-1.1a2.06,2.06,0,0,1,.48-.37l1.89,1.1a2.06,2.06,0,0,0-.48.37" transform="translate(0)"/></g></g></g><path class="cls-24" d="M35.9,38.38c.8-.46,1.44-.09,1.44.81v.35A3.12,3.12,0,0,1,35.91,42L8.17,58c-.79.45-1.43.08-1.43-.83v-.35A3.13,3.13,0,0,1,8.16,54.4Z" transform="translate(0)"/><polygon class="cls-37" points="11.26 28.92 9.37 27.82 30.78 15.46 32.67 16.56 11.26 28.92"/><g class="cls-2"><g class="cls-65"><g class="cls-2"><path class="cls-4" d="M29,17.48l-1.9-1.1a2.8,2.8,0,0,0,.48-.37l1.89,1.1a2.32,2.32,0,0,1-.47.37" transform="translate(0)"/><path class="cls-5" d="M29.45,17.11,27.56,16l.16-.17,1.89,1.1-.16.17" transform="translate(0)"/><path class="cls-6" d="M29.61,16.94l-1.89-1.1.11-.14,1.9,1.1-.12.14" transform="translate(0)"/><path class="cls-7" d="M29.73,16.8l-1.9-1.1.1-.13,1.89,1.1-.09.13" transform="translate(0)"/><path class="cls-8" d="M29.82,16.67l-1.89-1.1.08-.12,1.89,1.1-.08.12" transform="translate(0)"/><path class="cls-9" d="M29.9,16.55,28,15.45l.07-.12,1.9,1.1-.08.12" transform="translate(0)"/><path class="cls-10" d="M30,16.43l-1.9-1.1a.75.75,0,0,0,.07-.12L30,16.31l-.06.12" transform="translate(0)"/><path class="cls-11" d="M30,16.31l-1.89-1.1.06-.13,1.9,1.11a.75.75,0,0,1-.07.12" transform="translate(0)"/><path class="cls-12" d="M30.11,16.19l-1.9-1.11.06-.12,1.89,1.1a1.12,1.12,0,0,1-.05.13" transform="translate(0)"/><path class="cls-13" d="M30.16,16.06,28.27,15s0-.08.05-.13l1.9,1.1-.06.13" transform="translate(0)"/><path class="cls-14" d="M30.22,15.93l-1.9-1.1s0-.09.05-.13l1.89,1.1,0,.13" transform="translate(0)"/><path class="cls-15" d="M30.26,15.8l-1.89-1.1a.83.83,0,0,0,0-.15l1.9,1.1s0,.1,0,.15" transform="translate(0)"/><path class="cls-16" d="M30.31,15.65l-1.9-1.1a.94.94,0,0,0,0-.16l1.9,1.1,0,.16" transform="translate(0)"/><path class="cls-17" d="M30.35,15.49l-1.9-1.1a1.42,1.42,0,0,0,0-.2l1.89,1.1,0,.2" transform="translate(0)"/><path class="cls-18" d="M30.38,15.29l-1.89-1.1a2.64,2.64,0,0,0,0-.28L30.4,15a2.64,2.64,0,0,1,0,.28" transform="translate(0)"/></g></g></g><polygon class="cls-19" points="30.4 15.01 28.51 13.91 28.5 13.56 30.4 14.66 30.4 15.01"/><polygon class="cls-32" points="8.16 52.58 6.26 51.48 34 35.46 35.9 36.56 8.16 52.58"/><g class="cls-2"><g class="cls-66"><g class="cls-2"><path class="cls-18" d="M30.4,14.66l-1.89-1.1a1,1,0,0,0-.42-.92L30,13.74a1,1,0,0,1,.42.92" transform="translate(0)"/></g></g></g><g class="cls-2"><g class="cls-67"><g class="cls-2"><polyline class="cls-13" points="7.14 52.68 5.25 51.58 5.25 51.58 7.15 52.68 7.14 52.68"/><path class="cls-12" d="M7.15,52.68l-1.9-1.1.08,0,1.89,1.1-.07,0" transform="translate(0)"/><path class="cls-11" d="M7.22,52.72l-1.89-1.1.07,0,1.9,1.1-.08,0" transform="translate(0)"/><path class="cls-10" d="M7.3,52.74l-1.9-1.1.08,0,1.9,1.1-.08,0" transform="translate(0)"/><path class="cls-9" d="M7.38,52.76l-1.9-1.1h.09l1.89,1.1H7.38" transform="translate(0)"/><path class="cls-8" d="M7.46,52.77l-1.89-1.1h.09l1.9,1.1h-.1" transform="translate(0)"/><path class="cls-7" d="M7.56,52.77l-1.9-1.1h.11l1.89,1.1h-.1" transform="translate(0)"/><path class="cls-6" d="M7.66,52.76l-1.89-1.1.12,0,1.9,1.1a.31.31,0,0,1-.13,0" transform="translate(0)"/><path class="cls-5" d="M7.79,52.73l-1.9-1.1.17-.05L8,52.68l-.17,0" transform="translate(0)"/><path class="cls-4" d="M8,52.68l-1.9-1.1.2-.1,1.9,1.1-.2.1" transform="translate(0)"/></g></g></g><g class="cls-2"><g class="cls-68"><g class="cls-2"><path class="cls-22" d="M29,13.84l-1.9-1.1.2-.1,1.9,1.1-.2.1" transform="translate(0)"/><path class="cls-23" d="M29.17,13.74l-1.9-1.1.17-.05,1.9,1.1-.17.05" transform="translate(0)"/><path class="cls-24" d="M29.34,13.69l-1.9-1.1a.28.28,0,0,1,.13,0l1.89,1.1-.12,0" transform="translate(0)"/><path class="cls-25" d="M29.46,13.66l-1.89-1.1h.1l1.9,1.1h-.11" transform="translate(0)"/><path class="cls-26" d="M29.57,13.65l-1.9-1.1h.1l1.89,1.1h-.09" transform="translate(0)"/><path class="cls-27" d="M29.66,13.65l-1.89-1.1h.08l1.9,1.1h-.09" transform="translate(0)"/><path class="cls-28" d="M29.75,13.66l-1.9-1.1.08,0,1.9,1.1-.08,0" transform="translate(0)"/><path class="cls-29" d="M29.83,13.68l-1.9-1.1.08,0,1.89,1.1-.07,0" transform="translate(0)"/><path class="cls-30" d="M29.9,13.7,28,12.6l.07,0,1.9,1.1-.08,0" transform="translate(0)"/><polyline class="cls-31" points="29.98 13.74 28.08 12.64 28.09 12.64 29.98 13.74 29.98 13.74"/></g></g></g><g class="cls-2"><g class="cls-69"><g class="cls-2"><path class="cls-35" d="M7.14,52.68l-1.89-1.1a1,1,0,0,1-.42-.92l1.89,1.1a1,1,0,0,0,.42.92" transform="translate(0)"/></g></g></g><polygon class="cls-36" points="6.72 51.76 4.83 50.66 4.83 50.3 6.72 51.41 6.72 51.76"/><polygon class="cls-37" points="8.15 48.94 6.25 47.84 33.99 31.82 35.89 32.92 8.15 48.94"/><g class="cls-2"><g class="cls-70"><g class="cls-2"><path class="cls-35" d="M6.72,51.41,4.83,50.3a1.37,1.37,0,0,1,0-.28l1.89,1.11a2.46,2.46,0,0,0,0,.28" transform="translate(0)"/><path class="cls-39" d="M6.74,51.13,4.85,50a1.25,1.25,0,0,1,0-.19l1.89,1.1,0,.2" transform="translate(0)"/><path class="cls-40" d="M6.77,50.93l-1.89-1.1c0-.06,0-.11,0-.17l1.9,1.1-.05.17" transform="translate(0)"/><path class="cls-41" d="M6.82,50.76l-1.9-1.1s0-.1,0-.14l1.9,1.1a.74.74,0,0,0,0,.14" transform="translate(0)"/><path class="cls-42" d="M6.86,50.62,5,49.52a.78.78,0,0,0,0-.14l1.9,1.1a.78.78,0,0,0,0,.14" transform="translate(0)"/><path class="cls-31" d="M6.91,50.48,5,49.38l.06-.13L7,50.35a1.12,1.12,0,0,0,0,.13" transform="translate(0)"/><path class="cls-30" d="M7,50.35l-1.89-1.1a.61.61,0,0,1,0-.12L7,50.23,7,50.35" transform="translate(0)"/><path class="cls-29" d="M7,50.23l-1.9-1.1L5.18,49l1.9,1.1L7,50.23" transform="translate(0)"/><path class="cls-28" d="M7.08,50.11,5.18,49a.75.75,0,0,0,.07-.12L7.15,50a.75.75,0,0,0-.07.12" transform="translate(0)"/><path class="cls-27" d="M7.15,50l-1.9-1.1.07-.12,1.9,1.1a.75.75,0,0,0-.07.12" transform="translate(0)"/><path class="cls-26" d="M7.22,49.87l-1.9-1.1.09-.13,1.89,1.1-.08.13" transform="translate(0)"/><path class="cls-25" d="M7.3,49.74l-1.89-1.1.09-.13,1.9,1.11-.1.12" transform="translate(0)"/><path class="cls-24" d="M7.4,49.62,5.5,48.51l.12-.14,1.89,1.1-.11.15" transform="translate(0)"/><path class="cls-23" d="M7.51,49.47l-1.89-1.1.15-.16,1.9,1.1-.16.16" transform="translate(0)"/><path class="cls-22" d="M7.67,49.31l-1.9-1.1a2.06,2.06,0,0,1,.48-.37l1.9,1.1a2.37,2.37,0,0,0-.48.37" transform="translate(0)"/></g></g></g><polygon class="cls-32" points="8.14 47.12 6.25 46.02 33.99 30 35.88 31.1 8.14 47.12"/><g class="cls-2"><g class="cls-71"><g class="cls-2"><polyline class="cls-13" points="7.13 47.22 5.23 46.12 5.24 46.12 7.13 47.22 7.13 47.22"/><path class="cls-12" d="M7.13,47.22l-1.89-1.1.07,0,1.89,1.1-.07,0" transform="translate(0)"/><path class="cls-11" d="M7.2,47.26l-1.89-1.1.07,0,1.9,1.1-.08,0" transform="translate(0)"/><path class="cls-10" d="M7.28,47.28l-1.9-1.1.09,0,1.89,1.1-.08,0" transform="translate(0)"/><path class="cls-9" d="M7.36,47.3,5.47,46.2h.08l1.9,1.1H7.36" transform="translate(0)"/><path class="cls-8" d="M7.45,47.31l-1.9-1.1h.1l1.89,1.1H7.45" transform="translate(0)"/><path class="cls-7" d="M7.54,47.31l-1.89-1.1h.1l1.9,1.1H7.54" transform="translate(0)"/><path class="cls-6" d="M7.65,47.3l-1.9-1.1.13,0,1.89,1.1-.12,0" transform="translate(0)"/><path class="cls-5" d="M7.77,47.28l-1.89-1.1.17-.06,1.89,1.1-.17.06" transform="translate(0)"/><path class="cls-4" d="M7.94,47.22l-1.89-1.1.2-.1,1.89,1.1-.2.1" transform="translate(0)"/></g></g></g><path class="cls-24" d="M35.89,32.92c.79-.46,1.43-.09,1.44.82v.35a3.16,3.16,0,0,1-1.43,2.47l-27.74,16c-.79.45-1.43.09-1.44-.82v-.35a3.14,3.14,0,0,1,1.43-2.47Z" transform="translate(0)"/><g class="cls-2"><g class="cls-72"><g class="cls-2"><path class="cls-35" d="M7.12,47.22l-1.89-1.1a1,1,0,0,1-.42-.92l1.9,1.1a1,1,0,0,0,.41.92" transform="translate(0)"/></g></g></g><polygon class="cls-36" points="6.71 46.3 4.81 45.2 4.81 44.85 6.71 45.95 6.71 46.3"/><polygon class="cls-37" points="8.13 43.48 6.24 42.38 33.98 26.36 35.87 27.46 8.13 43.48"/><g class="cls-2"><g class="cls-73"><g class="cls-2"><path class="cls-35" d="M6.71,46l-1.9-1.1c0-.09,0-.18,0-.28l1.9,1.1a1.37,1.37,0,0,0,0,.28" transform="translate(0)"/><path class="cls-39" d="M6.73,45.67l-1.9-1.1,0-.2,1.9,1.1a1.62,1.62,0,0,0,0,.2" transform="translate(0)"/><path class="cls-40" d="M6.76,45.47l-1.9-1.1s0-.11,0-.16l1.89,1.1a.94.94,0,0,0,0,.16" transform="translate(0)"/><path class="cls-41" d="M6.8,45.31l-1.89-1.1a.83.83,0,0,1,0-.15l1.89,1.1c0,.05,0,.1,0,.15" transform="translate(0)"/><path class="cls-42" d="M6.84,45.16,5,44.06l0-.14L6.89,45a.69.69,0,0,1,0,.13" transform="translate(0)"/><path class="cls-31" d="M6.89,45,5,43.92l0-.12L7,44.9,6.89,45" transform="translate(0)"/><path class="cls-30" d="M7,44.9l-1.9-1.1.06-.13L7,44.77a.5.5,0,0,0,0,.13" transform="translate(0)"/><path class="cls-29" d="M7,44.77l-1.89-1.1.06-.12,1.89,1.1L7,44.77" transform="translate(0)"/><path class="cls-28" d="M7.06,44.65l-1.89-1.1a.75.75,0,0,1,.07-.12l1.89,1.1a.75.75,0,0,1-.07.12" transform="translate(0)"/><path class="cls-27" d="M7.13,44.53l-1.89-1.1.07-.12,1.9,1.1-.08.12" transform="translate(0)"/><path class="cls-26" d="M7.21,44.41l-1.9-1.1.08-.13,1.9,1.1-.08.13" transform="translate(0)"/><path class="cls-25" d="M7.29,44.28l-1.9-1.1a.64.64,0,0,0,.1-.13l1.89,1.11-.09.12" transform="translate(0)"/><path class="cls-24" d="M7.38,44.16,5.49,43.05l.12-.14L7.5,44l-.12.15" transform="translate(0)"/><path class="cls-23" d="M7.5,44l-1.89-1.1.15-.16,1.9,1.1c-.06,0-.11.11-.16.16" transform="translate(0)"/><path class="cls-22" d="M7.66,43.85l-1.9-1.1a2.37,2.37,0,0,1,.48-.37l1.89,1.1a2.07,2.07,0,0,0-.47.37" transform="translate(0)"/></g></g></g><polygon class="cls-32" points="11.27 32.56 9.38 31.46 30.79 19.1 32.69 20.2 11.27 32.56"/><polygon class="cls-32" points="14.95 25.57 13.06 24.47 27.08 16.38 28.98 17.48 14.95 25.57"/><path class="cls-24" d="M35.87,27.46c.8-.46,1.44-.08,1.44.82v.35a3.13,3.13,0,0,1-1.43,2.47l-27.74,16c-.79.45-1.43.09-1.43-.82V46a3.12,3.12,0,0,1,1.42-2.47Z" transform="translate(0)"/><g class="cls-2"><g class="cls-74"><g class="cls-2"><polyline class="cls-13" points="10.26 32.66 8.36 31.56 8.37 31.56 10.26 32.66 10.26 32.66"/><path class="cls-12" d="M10.26,32.66l-1.89-1.1.07,0,1.9,1.1-.08,0" transform="translate(0)"/><path class="cls-11" d="M10.34,32.7l-1.9-1.1.08,0,1.89,1.11-.07,0" transform="translate(0)"/><path class="cls-10" d="M10.41,32.73,8.52,31.62l.08,0,1.89,1.1h-.08" transform="translate(0)"/><path class="cls-9" d="M10.49,32.74,8.6,31.64h.08l1.9,1.1h-.09" transform="translate(0)"/><path class="cls-8" d="M10.58,32.75l-1.9-1.1h.1l1.89,1.1h-.09" transform="translate(0)"/><path class="cls-7" d="M10.67,32.75l-1.89-1.1h.1l1.9,1.1h-.11" transform="translate(0)"/><path class="cls-6" d="M10.78,32.74l-1.9-1.1.13,0,1.89,1.1-.12,0" transform="translate(0)"/><path class="cls-5" d="M10.9,32.72,9,31.62l.17-.06,1.89,1.1-.17.06" transform="translate(0)"/><path class="cls-4" d="M11.07,32.66l-1.89-1.1.2-.1,1.89,1.1-.2.1" transform="translate(0)"/></g></g></g><g class="cls-2"><g class="cls-75"><g class="cls-2"><polyline class="cls-13" points="13.93 25.67 12.04 24.57 12.04 24.58 13.94 25.68 13.93 25.67"/><path class="cls-12" d="M13.94,25.68l-1.89-1.1.07,0L14,25.71l-.07,0" transform="translate(0)"/><path class="cls-11" d="M14,25.71l-1.89-1.1.07,0,1.9,1.1-.08,0" transform="translate(0)"/><path class="cls-10" d="M14.09,25.74l-1.9-1.1.08,0,1.9,1.1-.08,0" transform="translate(0)"/><path class="cls-9" d="M14.17,25.76l-1.9-1.1h.09l1.9,1.1h-.09" transform="translate(0)"/><path class="cls-8" d="M14.26,25.77l-1.9-1.1h.1l1.89,1.1h-.09" transform="translate(0)"/><path class="cls-7" d="M14.35,25.77l-1.89-1.1h.1l1.9,1.1h-.11" transform="translate(0)"/><path class="cls-6" d="M14.46,25.76l-1.9-1.1.13,0,1.89,1.1-.12,0" transform="translate(0)"/><path class="cls-5" d="M14.58,25.73l-1.89-1.1.17-.06,1.89,1.1a.49.49,0,0,1-.17.06" transform="translate(0)"/><path class="cls-4" d="M14.75,25.67l-1.89-1.1a1.24,1.24,0,0,0,.2-.1L15,25.57a.75.75,0,0,1-.2.1" transform="translate(0)"/></g></g></g><g class="cls-2"><g class="cls-76"><g class="cls-2"><path class="cls-35" d="M10.26,32.66l-1.9-1.1a1,1,0,0,1-.42-.92l1.9,1.1a1,1,0,0,0,.42.92" transform="translate(0)"/></g></g></g><polygon class="cls-36" points="9.84 31.74 7.94 30.64 7.94 30.29 9.84 31.39 9.84 31.74"/><g class="cls-2"><g class="cls-77"><g class="cls-2"><path class="cls-35" d="M13.93,25.67,12,24.57a1,1,0,0,1-.42-.91l1.9,1.1a1,1,0,0,0,.41.91" transform="translate(0)"/></g></g></g><polygon class="cls-36" points="13.52 24.76 11.62 23.66 11.62 23.31 13.51 24.41 13.52 24.76"/><polygon class="cls-37" points="14.94 21.94 13.05 20.84 27.07 12.74 28.97 13.84 14.94 21.94"/><path class="cls-24" d="M32.67,16.56c.79-.46,1.44-.09,1.44.82v.35a3.17,3.17,0,0,1-1.42,2.47L11.27,32.56c-.79.46-1.43.09-1.43-.82v-.35a3.15,3.15,0,0,1,1.42-2.47Z" transform="translate(0)"/><g class="cls-2"><g class="cls-78"><g class="cls-2"><path class="cls-35" d="M9.84,31.39l-1.9-1.1c0-.09,0-.18,0-.28l1.9,1.1a1.37,1.37,0,0,0,0,.28" transform="translate(0)"/><path class="cls-39" d="M9.86,31.11,8,30a1.42,1.42,0,0,1,0-.2l1.89,1.1a1.62,1.62,0,0,0,0,.2" transform="translate(0)"/><path class="cls-40" d="M9.89,30.91,8,29.81a.94.94,0,0,1,0-.16l1.89,1.1c0,.05,0,.11,0,.16" transform="translate(0)"/><path class="cls-41" d="M9.93,30.75,8,29.65a.83.83,0,0,1,0-.15L10,30.6a.88.88,0,0,0-.05.15" transform="translate(0)"/><path class="cls-42" d="M10,30.6l-1.9-1.1s0-.09.05-.14L10,30.47l0,.13" transform="translate(0)"/><path class="cls-31" d="M10,30.47,8.13,29.36l0-.12,1.9,1.1-.06.13" transform="translate(0)"/><path class="cls-30" d="M10.08,30.34l-1.9-1.1.06-.13,1.89,1.1a.69.69,0,0,0-.05.13" transform="translate(0)"/><path class="cls-29" d="M10.13,30.21l-1.89-1.1L8.3,29l1.9,1.1a.75.75,0,0,0-.07.12" transform="translate(0)"/><path class="cls-28" d="M10.2,30.09,8.3,29l.07-.12L10.26,30l-.06.12" transform="translate(0)"/><path class="cls-27" d="M10.26,30l-1.89-1.1.07-.12,1.9,1.1-.08.12" transform="translate(0)"/><path class="cls-26" d="M10.34,29.85l-1.9-1.1.09-.13,1.89,1.1-.08.13" transform="translate(0)"/><path class="cls-25" d="M10.42,29.72l-1.89-1.1.09-.13,1.9,1.11-.1.12" transform="translate(0)"/><path class="cls-24" d="M10.52,29.6l-1.9-1.11.12-.14,1.89,1.1-.11.15" transform="translate(0)"/><path class="cls-23" d="M10.63,29.45l-1.89-1.1.15-.16,1.9,1.1-.16.16" transform="translate(0)"/><path class="cls-22" d="M10.79,29.29l-1.9-1.1a2.37,2.37,0,0,1,.48-.37l1.89,1.1a2.63,2.63,0,0,0-.47.37" transform="translate(0)"/></g></g></g><path class="cls-24" d="M29,13.84c.79-.45,1.43-.09,1.43.82V15A3.15,3.15,0,0,1,29,17.48L15,25.57c-.79.46-1.43.1-1.43-.81v-.35a3.16,3.16,0,0,1,1.43-2.47Z" transform="translate(0)"/><g class="cls-2"><g class="cls-79"><g class="cls-2"><path class="cls-35" d="M13.51,24.41l-1.89-1.1a2.64,2.64,0,0,1,0-.28l1.89,1.1c0,.1,0,.19,0,.28" transform="translate(0)"/><path class="cls-39" d="M13.53,24.13,11.64,23l0-.2,1.9,1.1a1.77,1.77,0,0,0,0,.2" transform="translate(0)"/><path class="cls-40" d="M13.57,23.93l-1.9-1.1,0-.16,1.9,1.1a1.24,1.24,0,0,0,0,.16" transform="translate(0)"/><path class="cls-41" d="M13.61,23.77l-1.9-1.1c0-.05,0-.1,0-.15l1.89,1.11a.57.57,0,0,0,0,.14" transform="translate(0)"/><path class="cls-42" d="M13.65,23.63l-1.89-1.11,0-.13,1.9,1.1,0,.14" transform="translate(0)"/><path class="cls-31" d="M13.7,23.49l-1.9-1.1.06-.13,1.89,1.1s0,.09-.05.13" transform="translate(0)"/><path class="cls-30" d="M13.75,23.36l-1.89-1.1.05-.12,1.9,1.1-.06.12" transform="translate(0)"/><path class="cls-29" d="M13.81,23.24l-1.9-1.1A.75.75,0,0,1,12,22l1.89,1.1-.06.12" transform="translate(0)"/><path class="cls-28" d="M13.87,23.12,12,22l.06-.13L13.94,23a.75.75,0,0,0-.07.12" transform="translate(0)"/><path class="cls-27" d="M13.94,23,12,21.89l.08-.12L14,22.87s0,.08-.07.13" transform="translate(0)"/><path class="cls-26" d="M14,22.87l-1.89-1.1.08-.12,1.89,1.1-.08.12" transform="translate(0)"/><path class="cls-25" d="M14.09,22.75l-1.89-1.1a1.13,1.13,0,0,1,.1-.13l1.89,1.1a1.13,1.13,0,0,1-.1.13" transform="translate(0)"/><path class="cls-24" d="M14.19,22.62l-1.89-1.1a.76.76,0,0,1,.11-.14l1.9,1.1-.12.14" transform="translate(0)"/><path class="cls-23" d="M14.31,22.48l-1.9-1.1.16-.17,1.89,1.1-.15.17" transform="translate(0)"/><path class="cls-22" d="M14.46,22.31l-1.89-1.1a2.37,2.37,0,0,1,.48-.37l1.89,1.1a2.69,2.69,0,0,0-.48.37" transform="translate(0)"/></g></g></g><path class="cls-80" d="M41.47,3.93c0-2.53-1.8-3.56-4-2.28L5.88,19.88a8.82,8.82,0,0,0-4,6.9L2,76.42C2,79,3.84,80,6,78.69L37.63,60.46a8.76,8.76,0,0,0,4-6.89Zm-26.53,18,14-8.1c.79-.45,1.43-.09,1.43.82V15A3.15,3.15,0,0,1,29,17.48L15,25.57c-.79.46-1.43.1-1.43-.81v-.35a3.16,3.16,0,0,1,1.43-2.47m-3.68,7L32.67,16.56c.79-.46,1.44-.09,1.44.82v.35a3.17,3.17,0,0,1-1.42,2.47L11.27,32.56c-.79.46-1.43.09-1.43-.82v-.35a3.15,3.15,0,0,1,1.42-2.47M6.71,46a2.54,2.54,0,0,1,.11-.7l0-.09L6.91,45,7,44.8s0-.11.09-.17a3.31,3.31,0,0,1,.76-1l.07-.06.22-.14,27.74-16a1.29,1.29,0,0,1,.63-.19h.13l.09,0a.92.92,0,0,1,.59,1v.35a3,3,0,0,1-.55,1.62l0,.06a3.76,3.76,0,0,1-.25.31l-.09.1-.14.12-.07.06a1.87,1.87,0,0,1-.29.2l-27.74,16a1.26,1.26,0,0,1-.68.19H7.4l-.11,0-.08,0-.08,0a.71.71,0,0,1-.28-.29l0,0s0-.08-.05-.13a.14.14,0,0,0,0-.06.77.77,0,0,1,0-.15.9.9,0,0,1,0-.24V46m0,5.46v-.09a3.27,3.27,0,0,1,1.21-2.24,1.64,1.64,0,0,1,.22-.14l27.74-16a1.22,1.22,0,0,1,.74-.19h0a.54.54,0,0,1,.26.09l.09,0s0,0,0,.05l.06.06,0,0a1.28,1.28,0,0,1,.2.72v.35a2.16,2.16,0,0,1,0,.35c0,.12,0,.24-.08.36a3.21,3.21,0,0,1-1.32,1.76l-27.74,16A1,1,0,0,1,7,52.6s0,0,0,0l0-.06-.06-.09a.47.47,0,0,1,0-.1.3.3,0,0,1,0-.1.19.19,0,0,1,0-.08l0-.13a1.66,1.66,0,0,1,0-.24v-.35m0,5.45A3.13,3.13,0,0,1,8.16,54.4l27.74-16c.8-.46,1.44-.09,1.44.81v.35A3.12,3.12,0,0,1,35.91,42L8.17,58c-.79.45-1.43.08-1.43-.83v-.35m8.64,11L8.21,72c-.79.46-1.43.09-1.43-.82v-.35A3.15,3.15,0,0,1,8.2,68.34l7.17-4.14c.79-.45,1.43-.09,1.43.82v.35a3.11,3.11,0,0,1-1.42,2.47M36,56,28.79,60.1c-.79.45-1.43.09-1.44-.82v-.35a3.14,3.14,0,0,1,1.43-2.47l7.16-4.14c.8-.45,1.44-.09,1.44.82v.35A3.1,3.1,0,0,1,36,56" transform="translate(0)"/><path class="cls-24" d="M37.38,53.14c0-.91-.64-1.27-1.44-.82l-7.16,4.14a3.16,3.16,0,0,0-1.43,2.47v.35c0,.91.65,1.27,1.44.82L36,56a3.1,3.1,0,0,0,1.43-2.47Z" transform="translate(0)"/><path class="cls-24" d="M15.37,64.2c.79-.45,1.43-.09,1.43.82v.35a3.11,3.11,0,0,1-1.42,2.47L8.21,72c-.79.46-1.43.09-1.43-.82v-.35A3.15,3.15,0,0,1,8.2,68.34Z" transform="translate(0)"/><g class="cls-2"><g class="cls-81"><g class="cls-2"><path class="cls-4" d="M37.46,1.65,35.57.55a4.87,4.87,0,0,1,.56-.28L38,1.37a5.84,5.84,0,0,0-.56.28" transform="translate(0)"/><path class="cls-5" d="M38,1.37,36.13.27A2.9,2.9,0,0,1,36.6.11l1.89,1.1a3.27,3.27,0,0,0-.47.16" transform="translate(0)"/><path class="cls-6" d="M38.49,1.21,36.6.11A2.21,2.21,0,0,1,37,0l1.89,1.1-.35.08" transform="translate(0)"/><path class="cls-7" d="M38.84,1.13,37,0l.3,0,1.89,1.1-.3,0" transform="translate(0)"/><path class="cls-8" d="M39.14,1.1,37.25,0h.26L39.4,1.11h-.26" transform="translate(0)"/><path class="cls-9" d="M39.4,1.11,37.51,0l.24,0,1.89,1.1-.24,0" transform="translate(0)"/><path class="cls-10" d="M39.64,1.13,37.75,0,38,.08l1.9,1.11a1.55,1.55,0,0,0-.23-.06" transform="translate(0)"/><path class="cls-11" d="M39.87,1.19,38,.08l.21.08,1.9,1.1-.21-.07" transform="translate(0)"/><path class="cls-12" d="M40.08,1.26,38.18.16l.21.1,1.89,1.1-.2-.1" transform="translate(0)"/><path class="cls-13" d="M40.28,1.36,38.39.26h0l1.89,1.1h0" transform="translate(0)"/></g></g></g><polygon class="cls-19" points="2.04 76.42 0.14 75.31 0 25.68 1.9 26.78 2.04 76.42"/><polygon class="cls-32" points="5.88 19.89 3.98 18.78 35.57 0.55 37.46 1.65 5.88 19.89"/><g class="cls-2"><g class="cls-82"><g class="cls-2"><path class="cls-18" d="M1.89,26.78,0,25.68a7,7,0,0,1,.05-.78L2,26a5.32,5.32,0,0,0-.06.78" transform="translate(0)"/><path class="cls-17" d="M2,26,.05,24.9a5.3,5.3,0,0,1,.1-.55L2,25.45A5.25,5.25,0,0,0,2,26" transform="translate(0)"/><path class="cls-16" d="M2,25.45.15,24.35c0-.16.07-.31.11-.46L2.15,25c0,.15-.08.3-.11.46" transform="translate(0)"/><path class="cls-15" d="M2.15,25,.26,23.89l.12-.41,1.9,1.1c0,.14-.09.27-.13.41" transform="translate(0)"/><path class="cls-14" d="M2.28,24.58l-1.9-1.1c0-.13.09-.25.14-.38l1.89,1.1c-.05.13-.09.26-.13.38" transform="translate(0)"/><path class="cls-13" d="M2.41,24.2.52,23.1c0-.12.09-.24.14-.36l1.9,1.11-.15.35" transform="translate(0)"/><path class="cls-12" d="M2.56,23.85.66,22.74c.06-.11.11-.23.16-.34l1.9,1.1a3.73,3.73,0,0,0-.16.35" transform="translate(0)"/><path class="cls-11" d="M2.72,23.5.82,22.4,1,22.06l1.89,1.1a3.59,3.59,0,0,0-.17.34" transform="translate(0)"/><path class="cls-10" d="M2.89,23.16,1,22.06l.18-.34,1.9,1.1c-.07.11-.13.23-.19.34" transform="translate(0)"/><path class="cls-9" d="M3.08,22.82l-1.9-1.1.21-.34,1.89,1.1-.2.34" transform="translate(0)"/><path class="cls-8" d="M3.28,22.48l-1.89-1.1L1.62,21l1.9,1.1-.24.34" transform="translate(0)"/><path class="cls-7" d="M3.52,22.14,1.62,21q.13-.2.27-.36l1.89,1.1-.26.36" transform="translate(0)"/><path class="cls-6" d="M3.78,21.78l-1.89-1.1c.1-.14.21-.27.32-.4l1.9,1.1-.33.4" transform="translate(0)"/><path class="cls-5" d="M4.11,21.38l-1.9-1.1c.14-.16.29-.32.44-.46l1.89,1.1c-.15.15-.29.3-.43.46" transform="translate(0)"/><path class="cls-4" d="M4.54,20.92l-1.89-1.1a6.48,6.48,0,0,1,1.33-1l1.9,1.1a7.21,7.21,0,0,0-1.34,1" transform="translate(0)"/></g></g></g></g></g></g></g></svg>