<svg xmlns="http://www.w3.org/2000/svg" xmlns:xlink="http://www.w3.org/1999/xlink" viewBox="0 0 60.31 36.22"><defs><style>.cls-1{fill:none;}.cls-2{isolation:isolate;}.cls-3{clip-path:url(#clip-path);}.cls-4{fill:#3d7f6b;}.cls-5{fill:#3f846f;}.cls-6{fill:#428973;}.cls-7{fill:#448e77;}.cls-8{fill:#46937c;}.cls-9{fill:#499880;}.cls-10{fill:#4b9d84;}.cls-11{fill:#4da288;}.cls-12{fill:#50a78c;}.cls-13{fill:#52ab90;}.cls-14{clip-path:url(#clip-path-2);}.cls-15{fill:#001025;}.cls-16{fill:#001026;}.cls-17{fill:#001128;}.cls-18{fill:#001129;}.cls-19{fill:#00122a;}.cls-20{fill:#00122c;}.cls-21{fill:#00132d;}.cls-22{clip-path:url(#clip-path-3);}.cls-23{clip-path:url(#clip-path-4);}.cls-24{clip-path:url(#clip-path-5);}.cls-25{clip-path:url(#clip-path-6);}.cls-26{clip-path:url(#clip-path-7);}.cls-27{fill:#59bb9d;}.cls-28{clip-path:url(#clip-path-8);}.cls-29{clip-path:url(#clip-path-9);}.cls-30{fill:#001531;}.cls-31{clip-path:url(#clip-path-10);}.cls-32{fill:#000f24;}.cls-33{fill:#000f23;}.cls-34{fill:#000e21;}.cls-35{clip-path:url(#clip-path-11);}.cls-36{clip-path:url(#clip-path-12);}.cls-37{clip-path:url(#clip-path-13);}.cls-38{clip-path:url(#clip-path-14);}.cls-39{clip-path:url(#clip-path-15);}.cls-40{clip-path:url(#clip-path-16);}.cls-41{clip-path:url(#clip-path-17);}.cls-42{clip-path:url(#clip-path-18);}.cls-43{clip-path:url(#clip-path-19);}.cls-44{clip-path:url(#clip-path-20);}.cls-45{clip-path:url(#clip-path-21);}.cls-46{clip-path:url(#clip-path-22);}.cls-47{fill:#001738;}.cls-48{clip-path:url(#clip-path-23);}.cls-49{clip-path:url(#clip-path-24);}.cls-50{fill:#fff;}.cls-51{fill:url(#linear-gradient);}</style><clipPath id="clip-path"><path class="cls-1" d="M28.17,3.74l0,1.3a.87.87,0,0,0-.48-.69,2.5,2.5,0,0,0-2.26,0l0-1.3a2.47,2.47,0,0,1,2.26,0A.84.84,0,0,1,28.17,3.74Z"/></clipPath><clipPath id="clip-path-2"><path class="cls-1" d="M28.17,3.74l0,1.3a.79.79,0,0,1-.46.63l0-1.3A.79.79,0,0,0,28.17,3.74Z"/></clipPath><clipPath id="clip-path-3"><path class="cls-1" d="M31.08,6.37a2.47,2.47,0,0,0-2.26,0l0-1.15V5a2.47,2.47,0,0,1,2.26,0,.8.8,0,0,1,.48.68l0,1.3A.8.8,0,0,0,31.08,6.37Z"/></clipPath><clipPath id="clip-path-4"><path class="cls-1" d="M31.59,5.75l0,1.3a.76.76,0,0,1-.45.63l0-1.3A.76.76,0,0,0,31.59,5.75Z"/></clipPath><clipPath id="clip-path-5"><path class="cls-1" d="M43.64,13.74a2.47,2.47,0,0,0-2.26,0l0-1.15v-.16a2.5,2.5,0,0,1,2.26,0,.8.8,0,0,1,.48.68l0,1.3A.8.8,0,0,0,43.64,13.74Z"/></clipPath><clipPath id="clip-path-6"><path class="cls-1" d="M44.15,13.12l0,1.3a.8.8,0,0,1-.46.64l0-1.31A.77.77,0,0,0,44.15,13.12Z"/></clipPath><clipPath id="clip-path-7"><path class="cls-1" d="M47.07,15.75a2.47,2.47,0,0,0-2.26,0c0-.39,0-.77,0-1.15v-.15a2.47,2.47,0,0,1,2.26,0,.84.84,0,0,1,.48.69l0,1.3A.84.84,0,0,0,47.07,15.75Z"/></clipPath><clipPath id="clip-path-8"><path class="cls-1" d="M47.58,15.14l0,1.3a.81.81,0,0,1-.46.63l0-1.3A.81.81,0,0,0,47.58,15.14Z"/></clipPath><clipPath id="clip-path-9"><path class="cls-1" d="M6,15.56a.79.79,0,0,0-.46.63l0-1.3A.82.82,0,0,1,6,14.25Z"/></clipPath><clipPath id="clip-path-10"><path class="cls-1" d="M5.5,16.19l0-1.3a.84.84,0,0,0,.48.68,2.47,2.47,0,0,0,2.26,0l0,1.31a2.5,2.5,0,0,1-2.26,0A.84.84,0,0,1,5.5,16.19Z"/></clipPath><clipPath id="clip-path-11"><path class="cls-1" d="M9.38,17.56a.77.77,0,0,0-.45.63l0-1.3a.77.77,0,0,1,.45-.63Z"/></clipPath><clipPath id="clip-path-12"><path class="cls-1" d="M8.93,18.2l0-1.31a.8.8,0,0,0,.48.69,2.5,2.5,0,0,0,2.26,0l0,1.3a2.5,2.5,0,0,1-2.26,0A.8.8,0,0,1,8.93,18.2Z"/></clipPath><clipPath id="clip-path-13"><path class="cls-1" d="M43.77,22.09a2.5,2.5,0,0,0-2.26,0l0-1.3a2.47,2.47,0,0,1,2.26,0l0,1.31,0-1.31a.84.84,0,0,1,.48.69l0,1.3A.82.82,0,0,0,43.77,22.09Z"/></clipPath><clipPath id="clip-path-14"><path class="cls-1" d="M44.28,21.47l0,1.3a.79.79,0,0,1-.46.63l0-1.3A.79.79,0,0,0,44.28,21.47Z"/></clipPath><clipPath id="clip-path-15"><path class="cls-1" d="M47.58,24.32a2.47,2.47,0,0,0-2.26,0l0-1.3a2.47,2.47,0,0,1,2.26,0l0,1.3,0-1.3a.84.84,0,0,1,.48.68l0,1.31A.84.84,0,0,0,47.58,24.32Z"/></clipPath><clipPath id="clip-path-16"><path class="cls-1" d="M48.09,23.7l0,1.31a.81.81,0,0,1-.46.63l0-1.3A.82.82,0,0,0,48.09,23.7Z"/></clipPath><clipPath id="clip-path-17"><path class="cls-1" d="M21.94,24.94a.76.76,0,0,0-.45.63l0-1.3a.76.76,0,0,1,.45-.63Z"/></clipPath><clipPath id="clip-path-18"><path class="cls-1" d="M21.49,25.57l0-1.3A.82.82,0,0,0,22,25a2.45,2.45,0,0,0,2.25,0l0,1.3a2.45,2.45,0,0,1-2.25,0A.8.8,0,0,1,21.49,25.57Z"/></clipPath><clipPath id="clip-path-19"><path class="cls-1" d="M25.37,27a.77.77,0,0,0-.46.63l0-1.3a.79.79,0,0,1,.46-.63Z"/></clipPath><clipPath id="clip-path-20"><path class="cls-1" d="M24.91,27.58l0-1.3a.79.79,0,0,0,.48.68,2.44,2.44,0,0,0,2.26,0l0,1.3a2.47,2.47,0,0,1-2.26,0A.81.81,0,0,1,24.91,27.58Z"/></clipPath><clipPath id="clip-path-21"><path class="cls-1" d="M29.17,29.18a.82.82,0,0,0-.46.64l0-1.3a.77.77,0,0,1,.45-.64Z"/></clipPath><clipPath id="clip-path-22"><path class="cls-1" d="M28.71,29.82l0-1.3a.8.8,0,0,0,.47.68,2.49,2.49,0,0,0,2.27,0l0,1.31a2.52,2.52,0,0,1-2.27,0A.84.84,0,0,1,28.71,29.82Z"/></clipPath><clipPath id="clip-path-23"><path class="cls-1" d="M33,31.42a.79.79,0,0,0-.46.63l0-1.3a.79.79,0,0,1,.46-.63Z"/></clipPath><clipPath id="clip-path-24"><path class="cls-1" d="M32.52,32.05l0-1.3a.87.87,0,0,0,.48.69,2.47,2.47,0,0,0,2.26,0l0,1.3a2.47,2.47,0,0,1-2.26,0A.85.85,0,0,1,32.52,32.05Z"/></clipPath><linearGradient id="linear-gradient" y1="25.39" x2="60.31" y2="25.39" gradientUnits="userSpaceOnUse"><stop offset="0" stop-color="#75f5ce"/><stop offset="1" stop-color="aqua"/></linearGradient></defs><title>document_stack_2_1</title><g id="Layer_2" data-name="Layer 2"><g id="document_stack_2_1"><g id="document_stack_2_1-2" data-name="document_stack_2_1"><g class="cls-2"><g class="cls-2"><g class="cls-3"><g class="cls-2"><path class="cls-4" d="M28.17,3.74l0,1.3a.87.87,0,0,0-.48-.69l-.22-.1,0-1.3.22.1a.84.84,0,0,1,.48.69"/><path class="cls-5" d="M27.47,3l0,1.3-.19-.07,0-1.3.19.07"/><path class="cls-6" d="M27.28,2.88l0,1.3-.17,0,0-1.3.17,0"/><path class="cls-7" d="M27.11,2.83l0,1.3-.16,0,0-1.3.16,0"/><path class="cls-8" d="M27,2.8l0,1.3-.16,0,0-1.3.16,0"/><path class="cls-9" d="M26.79,2.78l0,1.3h-.17l0-1.3h.17"/><path class="cls-10" d="M26.62,2.77l0,1.3h-.17l0-1.3h.17"/><path class="cls-11" d="M26.45,2.77l0,1.3h-.18l0-1.3h.18"/><path class="cls-12" d="M26.27,2.78l0,1.3-.23,0,0-1.31.23,0"/><path class="cls-13" d="M26,2.81l0,1.31a2,2,0,0,0-.61.21l0-1.3A2.32,2.32,0,0,1,26,2.81"/></g></g></g><g class="cls-2"><g class="cls-14"><g class="cls-2"><path class="cls-15" d="M28.17,3.74l0,1.3v0l0-1.3v0"/><path class="cls-16" d="M28.17,3.77l0,1.3a.29.29,0,0,1,0,.09l0-1.3a.29.29,0,0,0,0-.09"/><path class="cls-17" d="M28.15,3.86l0,1.3,0,.1,0-1.31,0-.09"/><path class="cls-18" d="M28.12,4l0,1.31a.41.41,0,0,1-.05.09l0-1.3a.31.31,0,0,0,.05-.1"/><path class="cls-19" d="M28.07,4.05l0,1.3-.07.1,0-1.3a.86.86,0,0,1,.07-.1"/><path class="cls-20" d="M28,4.15l0,1.3-.12.11,0-1.3L28,4.15"/><path class="cls-21" d="M27.88,4.26l0,1.3-.17.11,0-1.3.17-.11"/></g></g></g><g class="cls-2"><g class="cls-22"><g class="cls-2"><path class="cls-4" d="M31.59,5.75l0,1.3a.8.8,0,0,0-.48-.68l-.21-.11,0-1.3.21.11a.8.8,0,0,1,.48.68"/><path class="cls-5" d="M30.9,5l0,1.3-.2-.07,0-1.3.2.07"/><path class="cls-6" d="M30.7,4.89l0,1.3-.17-.05,0-1.3.17,0"/><path class="cls-7" d="M30.53,4.84l0,1.3-.16,0,0-1.3.16,0"/><path class="cls-8" d="M30.37,4.81l0,1.3-.16,0,0-1.3.16,0"/><path class="cls-9" d="M30.21,4.79l0,1.3H30l0-1.3h.17"/><path class="cls-10" d="M30,4.78l0,1.3h-.17l0-1.3H30"/><path class="cls-11" d="M29.87,4.78l0,1.3h-.19l0-1.3h.19"/><path class="cls-12" d="M29.68,4.79l0,1.3-.22,0,0-1.31.22,0"/><path class="cls-13" d="M29.46,4.82l0,1.31a2,2,0,0,0-.61.21l0-1.3a2.32,2.32,0,0,1,.61-.22"/></g></g></g><g class="cls-2"><g class="cls-23"><g class="cls-2"><path class="cls-15" d="M31.59,5.75l0,1.3v0l0-1.3v0"/><path class="cls-16" d="M31.59,5.78l0,1.3a.38.38,0,0,1,0,.1l0-1.31a.28.28,0,0,0,0-.09"/><path class="cls-17" d="M31.58,5.87l0,1.31,0,.09,0-1.3,0-.1"/><path class="cls-18" d="M31.55,6l0,1.3-.05.09,0-1.3L31.55,6"/><path class="cls-19" d="M31.5,6.06l0,1.3-.08.1,0-1.3.08-.1"/><path class="cls-20" d="M31.42,6.16l0,1.3a.43.43,0,0,1-.12.11l0-1.3a.65.65,0,0,0,.12-.11"/><path class="cls-21" d="M31.3,6.27l0,1.3a.91.91,0,0,1-.16.11l0-1.3a.91.91,0,0,0,.16-.11"/></g></g></g><polygon class="cls-5" points="41.39 11.1 41.36 12.4 33.37 7.71 33.4 6.41 41.39 11.1"/><g class="cls-2"><g class="cls-24"><g class="cls-2"><path class="cls-4" d="M44.15,13.12l0,1.3a.8.8,0,0,0-.48-.68l-.21-.11,0-1.3.21.11a.8.8,0,0,1,.48.68"/><path class="cls-5" d="M43.46,12.33l0,1.3-.2-.07,0-1.3.2.07"/><path class="cls-6" d="M43.26,12.26l0,1.3-.17,0,0-1.3.17,0"/><path class="cls-7" d="M43.09,12.22l0,1.3-.16,0,0-1.3.16,0"/><path class="cls-8" d="M42.93,12.19l0,1.3-.16,0,0-1.3.16,0"/><path class="cls-9" d="M42.77,12.17l0,1.3h-.17l0-1.3h.17"/><path class="cls-10" d="M42.6,12.16l0,1.3a1,1,0,0,0-.17,0l0-1.3h.17"/><path class="cls-11" d="M42.43,12.16l0,1.3h-.19l0-1.3h.19"/><path class="cls-12" d="M42.24,12.17l0,1.3-.22,0,0-1.3a.83.83,0,0,1,.22,0"/><path class="cls-13" d="M42,12.2l0,1.3a1.78,1.78,0,0,0-.61.22l0-1.31A2,2,0,0,1,42,12.2"/></g></g></g><g class="cls-2"><g class="cls-25"><g class="cls-2"><path class="cls-15" d="M44.15,13.12l0,1.3v0l0-1.3v0"/><path class="cls-16" d="M44.15,13.15l0,1.3s0,.06,0,.1l0-1.31s0-.06,0-.09"/><path class="cls-17" d="M44.14,13.24l0,1.31a.36.36,0,0,1,0,.09l0-1.3a.3.3,0,0,0,0-.1"/><path class="cls-18" d="M44.1,13.34l0,1.3a.41.41,0,0,1,0,.09l0-1.3a.41.41,0,0,0,.05-.09"/><path class="cls-19" d="M44.05,13.43l0,1.3a.61.61,0,0,1-.07.1l0-1.3a.61.61,0,0,0,.07-.1"/><path class="cls-20" d="M44,13.53l0,1.3-.12.11,0-1.3.12-.11"/><path class="cls-21" d="M43.86,13.64l0,1.3-.17.12,0-1.31a.71.71,0,0,0,.17-.11"/></g></g></g><g class="cls-2"><g class="cls-26"><g class="cls-2"><path class="cls-4" d="M47.58,15.14l0,1.3a.84.84,0,0,0-.48-.69l-.22-.11,0-1.3.22.11a.84.84,0,0,1,.48.69"/><path class="cls-5" d="M46.88,14.34l0,1.3-.2-.07,0-1.3.2.07"/><path class="cls-6" d="M46.68,14.27l0,1.3-.17,0,0-1.3.17,0"/><path class="cls-7" d="M46.51,14.23l0,1.3-.16,0,0-1.3.16,0"/><path class="cls-8" d="M46.35,14.2l0,1.3-.16,0,0-1.3.16,0"/><path class="cls-9" d="M46.19,14.18l0,1.3H46l0-1.3h.16"/><path class="cls-10" d="M46,14.17l0,1.3h-.17l0-1.3H46"/><path class="cls-11" d="M45.86,14.17l0,1.3h-.19l0-1.3h.19"/><path class="cls-12" d="M45.67,14.18l0,1.3-.22,0,0-1.3.22,0"/><path class="cls-13" d="M45.45,14.21l0,1.3a1.64,1.64,0,0,0-.61.22l0-1.3a1.64,1.64,0,0,1,.61-.22"/></g></g></g><polygon class="cls-27" points="25.43 3.03 25.4 4.33 5.96 15.56 5.99 14.25 25.43 3.03"/><g class="cls-2"><g class="cls-28"><g class="cls-2"><path class="cls-15" d="M47.58,15.14l0,1.3v0l0-1.3v0"/><path class="cls-16" d="M47.58,15.16l0,1.3s0,.07,0,.1l0-1.3s0-.07,0-.1"/><path class="cls-17" d="M47.56,15.26l0,1.3,0,.09,0-1.3,0-.09"/><path class="cls-18" d="M47.53,15.35l0,1.3a.41.41,0,0,1,0,.09l0-1.3a.41.41,0,0,0,.05-.09"/><path class="cls-19" d="M47.48,15.44l0,1.3a.39.39,0,0,1-.08.1l0-1.3a.39.39,0,0,0,.08-.1"/><path class="cls-20" d="M47.4,15.54l0,1.3a.43.43,0,0,1-.12.11l0-1.3a.43.43,0,0,0,.12-.11"/><path class="cls-21" d="M47.28,15.65l0,1.3-.16.12,0-1.3.16-.12"/></g></g></g><g class="cls-2"><g class="cls-29"><g class="cls-2"><path class="cls-13" d="M6,14.25l0,1.31a.64.64,0,0,0-.16.11l0-1.3L6,14.25"/><path class="cls-12" d="M5.83,14.37l0,1.3a.43.43,0,0,0-.12.11l0-1.3a.43.43,0,0,1,.12-.11"/><path class="cls-11" d="M5.71,14.48l0,1.3-.08.1,0-1.3.08-.1"/><path class="cls-10" d="M5.63,14.58l0,1.3a.41.41,0,0,0,0,.09l0-1.3a.41.41,0,0,1,0-.09"/><path class="cls-9" d="M5.58,14.67l0,1.3,0,.1,0-1.31,0-.09"/><path class="cls-8" d="M5.55,14.76l0,1.31s0,.06,0,.09l0-1.3s0-.06,0-.1"/><path class="cls-7" d="M5.53,14.86l0,1.3v0l0-1.3v0"/></g></g></g><polygon class="cls-30" points="27.71 4.37 27.68 5.67 8.24 16.9 8.27 15.6 27.71 4.37"/><g class="cls-2"><g class="cls-31"><g class="cls-2"><path class="cls-21" d="M8.27,15.59l0,1.31a1.85,1.85,0,0,1-.6.21l0-1.3a1.66,1.66,0,0,0,.6-.22"/><path class="cls-20" d="M7.67,15.81l0,1.3a.91.91,0,0,1-.23,0l0-1.3.23,0"/><path class="cls-19" d="M7.44,15.84l0,1.3H7.22l0-1.3h.19"/><path class="cls-18" d="M7.25,15.85l0,1.3a.48.48,0,0,1-.17,0l0-1.3h.17"/><path class="cls-17" d="M7.08,15.85l0,1.3H6.89l0-1.3h.16"/><path class="cls-16" d="M6.92,15.84l0,1.3-.16,0,0-1.3.16,0"/><path class="cls-15" d="M6.76,15.82l0,1.3-.17,0,0-1.3.17,0"/><path class="cls-32" d="M6.59,15.79l0,1.3-.17,0,0-1.3.17,0"/><path class="cls-33" d="M6.42,15.75l0,1.3L6.2,17l0-1.3.19.07"/><path class="cls-34" d="M6.23,15.68l0,1.3L6,16.87a.84.84,0,0,1-.48-.68l0-1.3a.84.84,0,0,0,.48.68l.22.11"/></g></g></g><polygon class="cls-27" points="28.85 5.04 28.82 6.34 9.38 17.57 9.41 16.26 28.85 5.04"/><g class="cls-2"><g class="cls-35"><g class="cls-2"><path class="cls-13" d="M9.41,16.26l0,1.3-.16.12,0-1.31.16-.11"/><path class="cls-12" d="M9.25,16.37l0,1.31a.43.43,0,0,0-.12.11l0-1.3a.68.68,0,0,1,.12-.12"/><path class="cls-11" d="M9.13,16.49l0,1.3-.08.1,0-1.3.08-.1"/><path class="cls-10" d="M9.05,16.59l0,1.3A.41.41,0,0,1,9,18l0-1.3a.41.41,0,0,0,.05-.09"/><path class="cls-9" d="M9,16.68,9,18l0,.09,0-1.3,0-.09"/><path class="cls-8" d="M9,16.77l0,1.3s0,.07,0,.1l0-1.3s0-.07,0-.1"/><path class="cls-7" d="M9,16.87l0,1.3v0l0-1.31v0"/></g></g></g><path class="cls-1" d="M0,15.86l0-1.3A2.86,2.86,0,0,0,1.71,17l0,1.31A2.87,2.87,0,0,1,0,15.86Z"/><polygon class="cls-30" points="31.14 6.38 31.11 7.68 11.67 18.91 11.7 17.61 31.14 6.38"/><g class="cls-2"><g class="cls-36"><g class="cls-2"><path class="cls-21" d="M11.7,17.61l0,1.3a2,2,0,0,1-.61.21l0-1.3a1.91,1.91,0,0,0,.61-.21"/><path class="cls-20" d="M11.09,17.82l0,1.3a.83.83,0,0,1-.22,0l0-1.3a.83.83,0,0,0,.22,0"/><path class="cls-19" d="M10.87,17.85l0,1.3-.19,0,0-1.3.19,0"/><path class="cls-18" d="M10.68,17.87l0,1.3h-.17l0-1.31h.17"/><path class="cls-17" d="M10.51,17.86l0,1.31h-.17l0-1.31h.17"/><path class="cls-16" d="M10.34,17.85l0,1.31-.16,0,0-1.3.16,0"/><path class="cls-15" d="M10.18,17.83l0,1.3a.45.45,0,0,1-.16,0l0-1.3.16,0"/><path class="cls-32" d="M10,17.8l0,1.3-.17,0,0-1.3.17,0"/><path class="cls-33" d="M9.85,17.76l0,1.3L9.62,19l0-1.3.2.07"/><path class="cls-34" d="M9.65,17.69l0,1.3-.21-.11a.8.8,0,0,1-.48-.68l0-1.31a.8.8,0,0,0,.48.69l.21.11"/></g></g></g><polygon class="cls-27" points="33.4 6.41 33.37 7.71 11.69 20.22 11.72 18.92 33.4 6.41"/><g class="cls-2"><g class="cls-37"><g class="cls-2"><path class="cls-4" d="M44.28,21.47l0,1.3a.82.82,0,0,0-.48-.68,1.51,1.51,0,0,0-.22-.11l0-1.3.22.1a.84.84,0,0,1,.48.69"/><path class="cls-5" d="M43.58,20.68l0,1.3-.19-.07,0-1.3.19.07"/><path class="cls-6" d="M43.39,20.61l0,1.3-.17-.05,0-1.3.17.05"/><path class="cls-7" d="M43.22,20.56l0,1.3-.16,0,0-1.3.16,0"/><path class="cls-8" d="M43.06,20.53l0,1.3-.16,0,0-1.3.16,0"/><path class="cls-9" d="M42.9,20.51l0,1.3H42.7l0-1.3h.17"/><path class="cls-10" d="M42.73,20.5l0,1.3h-.17l0-1.3h.17"/><path class="cls-11" d="M42.56,20.5l0,1.3h-.18l0-1.3h.18"/><path class="cls-12" d="M42.38,20.51l0,1.3-.23,0,0-1.31.23,0"/><path class="cls-13" d="M42.15,20.54l0,1.31a2,2,0,0,0-.61.21l0-1.3a2.32,2.32,0,0,1,.61-.22"/></g></g></g><g class="cls-2"><g class="cls-38"><g class="cls-2"><path class="cls-15" d="M44.28,21.47l0,1.3v0l0-1.3v0"/><path class="cls-16" d="M44.28,21.5l0,1.3a.29.29,0,0,1,0,.09l0-1.3a.29.29,0,0,0,0-.09"/><path class="cls-17" d="M44.26,21.59l0,1.3a.22.22,0,0,1,0,.1l0-1.31a.16.16,0,0,0,0-.09"/><path class="cls-18" d="M44.23,21.68l0,1.31a.41.41,0,0,1-.05.09l0-1.3a.31.31,0,0,0,0-.1"/><path class="cls-19" d="M44.18,21.78l0,1.3-.07.1,0-1.3.07-.1"/><path class="cls-20" d="M44.11,21.88l0,1.3-.12.11L44,22l.12-.11"/><path class="cls-21" d="M44,22l0,1.3-.17.11,0-1.3L44,22"/></g></g></g><g class="cls-2"><g class="cls-39"><g class="cls-2"><path class="cls-4" d="M48.09,23.7l0,1.31a.84.84,0,0,0-.48-.69l-.22-.11,0-1.3.22.11a.84.84,0,0,1,.48.68"/><path class="cls-5" d="M47.39,22.91l0,1.3-.2-.07,0-1.3.2.07"/><path class="cls-6" d="M47.19,22.84l0,1.3-.17,0,0-1.3.17,0"/><path class="cls-7" d="M47,22.8l0,1.3-.16,0,0-1.3.16,0"/><path class="cls-8" d="M46.86,22.77l0,1.3-.16,0,0-1.3.16,0"/><path class="cls-9" d="M46.7,22.75l0,1.3h-.16l0-1.3h.16"/><path class="cls-10" d="M46.54,22.74l0,1.3h-.17l0-1.3h.17"/><path class="cls-11" d="M46.37,22.74l0,1.3h-.19l0-1.3h.19"/><path class="cls-12" d="M46.18,22.75l0,1.3-.23,0,0-1.3a1.81,1.81,0,0,1,.23,0"/><path class="cls-13" d="M46,22.78l0,1.3a1.66,1.66,0,0,0-.6.22l0-1.3a1.66,1.66,0,0,1,.6-.22"/></g></g></g><polygon class="cls-27" points="41.41 12.41 41.38 13.72 21.94 24.94 21.97 23.64 41.41 12.41"/><polygon class="cls-33" points="19.71 23.61 19.68 24.91 11.69 20.22 11.72 18.92 19.71 23.61"/><polygon class="cls-30" points="41.39 11.1 41.36 12.4 19.68 24.91 19.71 23.61 41.39 11.1"/><g class="cls-2"><g class="cls-40"><g class="cls-2"><path class="cls-15" d="M48.09,23.7l0,1.31v0l0-1.3v0"/><path class="cls-16" d="M48.08,23.73l0,1.3a.34.34,0,0,1,0,.1l0-1.3a.38.38,0,0,0,0-.1"/><path class="cls-17" d="M48.07,23.83l0,1.3,0,.09,0-1.3,0-.09"/><path class="cls-18" d="M48,23.92l0,1.3,0,.09L48,24l0-.09"/><path class="cls-19" d="M48,24l0,1.3a.39.39,0,0,1-.08.1l0-1.3L48,24"/><path class="cls-20" d="M47.91,24.11l0,1.3a.43.43,0,0,1-.12.11l0-1.3a.43.43,0,0,0,.12-.11"/><path class="cls-21" d="M47.79,24.22l0,1.3-.16.12,0-1.3.16-.12"/></g></g></g><g class="cls-2"><g class="cls-41"><g class="cls-2"><path class="cls-13" d="M22,23.64l0,1.3a.91.91,0,0,0-.16.11l0-1.3a.91.91,0,0,1,.16-.11"/><path class="cls-12" d="M21.81,23.75l0,1.3a.65.65,0,0,0-.12.11l0-1.3a.65.65,0,0,1,.12-.11"/><path class="cls-11" d="M21.69,23.86l0,1.3-.08.1,0-1.3.08-.1"/><path class="cls-10" d="M21.61,24l0,1.3a.93.93,0,0,0,0,.1l0-1.31.05-.09"/><path class="cls-9" d="M21.56,24.05l0,1.31,0,.09,0-1.3,0-.1"/><path class="cls-8" d="M21.53,24.15l0,1.3a.28.28,0,0,0,0,.09l0-1.3a.28.28,0,0,1,0-.09"/><path class="cls-7" d="M21.52,24.24l0,1.3v0l0-1.3v0"/></g></g></g><polygon class="cls-30" points="43.69 13.75 43.66 15.06 24.22 26.28 24.25 24.98 43.69 13.75"/><g class="cls-2"><g class="cls-42"><g class="cls-2"><path class="cls-21" d="M24.25,25l0,1.3a2.09,2.09,0,0,1-.61.22l0-1.31a1.83,1.83,0,0,0,.61-.21"/><path class="cls-20" d="M23.64,25.19l0,1.31-.22,0,0-1.3.22,0"/><path class="cls-19" d="M23.42,25.23l0,1.3H23.2l0-1.3h.19"/><path class="cls-18" d="M23.23,25.24l0,1.3H23l0-1.3h.17"/><path class="cls-17" d="M23.06,25.24l0,1.3h-.16l0-1.3h.16"/><path class="cls-16" d="M22.9,25.23l0,1.3-.16,0,0-1.3.16,0"/><path class="cls-15" d="M22.74,25.21l0,1.3-.16,0,0-1.3.16,0"/><path class="cls-32" d="M22.58,25.18l0,1.3-.17-.05,0-1.3.17.05"/><path class="cls-33" d="M22.41,25.13l0,1.3-.2-.07,0-1.3.2.07"/><path class="cls-34" d="M22.21,25.06l0,1.3a1.36,1.36,0,0,1-.21-.1.8.8,0,0,1-.48-.69l0-1.3A.82.82,0,0,0,22,25l.21.1"/></g></g></g><polygon class="cls-27" points="44.84 14.43 44.81 15.73 25.37 26.95 25.4 25.65 44.84 14.43"/><g class="cls-2"><g class="cls-43"><g class="cls-2"><path class="cls-13" d="M25.4,25.65l0,1.3-.17.11,0-1.3.17-.11"/><path class="cls-12" d="M25.23,25.76l0,1.3-.12.12,0-1.3.12-.12"/><path class="cls-11" d="M25.11,25.88l0,1.3a.36.36,0,0,0-.07.1L25,26l.07-.09"/><path class="cls-10" d="M25,26l0,1.31a.41.41,0,0,0-.05.09l0-1.3L25,26"/><path class="cls-9" d="M25,26.07l0,1.3a.16.16,0,0,0,0,.09l0-1.3a.16.16,0,0,1,0-.09"/><path class="cls-8" d="M25,26.16l0,1.3a.3.3,0,0,0,0,.1l0-1.31a.29.29,0,0,1,0-.09"/><path class="cls-7" d="M24.94,26.25l0,1.31v0l0-1.3v0"/></g></g></g><polygon class="cls-30" points="47.12 15.77 47.09 17.07 27.65 28.29 27.68 26.99 47.12 15.77"/><g class="cls-2"><g class="cls-44"><g class="cls-2"><path class="cls-21" d="M27.68,27l0,1.3a2,2,0,0,1-.61.22l0-1.3a2.32,2.32,0,0,0,.61-.22"/><path class="cls-20" d="M27.07,27.21l0,1.3-.22,0,0-1.3.22,0"/><path class="cls-19" d="M26.85,27.24l0,1.3h-.19l0-1.3h.19"/><path class="cls-18" d="M26.66,27.25l0,1.3h-.17l0-1.3h.17"/><path class="cls-17" d="M26.49,27.25l0,1.3H26.3l0-1.3h.16"/><path class="cls-16" d="M26.33,27.24l0,1.3-.16,0,0-1.3.16,0"/><path class="cls-15" d="M26.17,27.22l0,1.3-.17,0,0-1.3.17,0"/><path class="cls-32" d="M26,27.19l0,1.3-.17,0,0-1.3.17.05"/><path class="cls-33" d="M25.83,27.14l0,1.3-.19-.07,0-1.3.19.07"/><path class="cls-34" d="M25.64,27.07l0,1.3-.22-.1a.81.81,0,0,1-.48-.69l0-1.3a.79.79,0,0,0,.48.68l.22.11"/></g></g></g><polygon class="cls-27" points="41.54 20.76 41.51 22.06 29.17 29.18 29.2 27.88 41.54 20.76"/><g class="cls-2"><g class="cls-45"><g class="cls-2"><path class="cls-13" d="M29.2,27.88l0,1.3L29,29.3,29,28l.16-.12"/><path class="cls-12" d="M29,28l0,1.3a.43.43,0,0,0-.12.11l0-1.3A.43.43,0,0,1,29,28"/><path class="cls-11" d="M28.92,28.11l0,1.3-.08.1,0-1.3a.39.39,0,0,1,.08-.1"/><path class="cls-10" d="M28.84,28.21l0,1.3,0,.09,0-1.3.05-.09"/><path class="cls-9" d="M28.79,28.3l0,1.3,0,.1,0-1.31,0-.09"/><path class="cls-8" d="M28.76,28.39l0,1.31a.28.28,0,0,0,0,.09l0-1.3a.38.38,0,0,1,0-.1"/><path class="cls-7" d="M28.75,28.49l0,1.3v0l0-1.3v0"/></g></g></g><polygon class="cls-30" points="43.82 22.1 43.79 23.4 31.45 30.52 31.49 29.22 43.82 22.1"/><g class="cls-2"><g class="cls-46"><g class="cls-2"><path class="cls-21" d="M31.49,29.22l0,1.31a2,2,0,0,1-.61.21l0-1.3a1.78,1.78,0,0,0,.61-.22"/><path class="cls-20" d="M30.88,29.44l0,1.3a.91.91,0,0,1-.23,0l0-1.3.23,0"/><path class="cls-19" d="M30.65,29.47l0,1.3-.19,0,0-1.31h.19"/><path class="cls-18" d="M30.46,29.48l0,1.31h-.17l0-1.3h.17"/><path class="cls-17" d="M30.29,29.48l0,1.3H30.1l0-1.3h.16"/><path class="cls-16" d="M30.13,29.47l0,1.3-.16,0,0-1.3.16,0"/><path class="cls-15" d="M30,29.45l0,1.3a.45.45,0,0,1-.16,0l0-1.3.16,0"/><path class="cls-32" d="M29.81,29.42l0,1.3-.17,0,0-1.3.17,0"/><path class="cls-33" d="M29.64,29.38l0,1.3-.2-.07,0-1.3.2.07"/><path class="cls-34" d="M29.44,29.31l0,1.3-.22-.11a.84.84,0,0,1-.48-.68l0-1.3a.8.8,0,0,0,.47.68l.22.11"/></g></g></g><path class="cls-47" d="M41.54,20.76a2.47,2.47,0,0,1,2.26,0c.63.38.64,1,0,1.32L31.49,29.22a2.49,2.49,0,0,1-2.27,0c-.63-.37-.64-1,0-1.32Z"/><polygon class="cls-27" points="45.34 23 45.31 24.3 32.98 31.42 33.01 30.12 45.34 23"/><g class="cls-2"><g class="cls-48"><g class="cls-2"><path class="cls-13" d="M33,30.12l0,1.3-.17.11,0-1.3.17-.11"/><path class="cls-12" d="M32.84,30.23l0,1.3-.12.11,0-1.3.12-.11"/><path class="cls-11" d="M32.72,30.34l0,1.3a.86.86,0,0,1-.07.1l0-1.3a.86.86,0,0,0,.07-.1"/><path class="cls-10" d="M32.65,30.44l0,1.3a.47.47,0,0,0,0,.1l0-1.3a.31.31,0,0,1,0-.1"/><path class="cls-9" d="M32.6,30.54l0,1.3,0,.09,0-1.3,0-.09"/><path class="cls-8" d="M32.57,30.63l0,1.3a.29.29,0,0,0,0,.09l0-1.3a.29.29,0,0,1,0-.09"/><path class="cls-7" d="M32.55,30.72l0,1.3v0l0-1.3v0"/></g></g></g><polygon class="cls-30" points="47.63 24.34 47.6 25.64 35.26 32.76 35.29 31.46 47.63 24.34"/><g class="cls-2"><g class="cls-49"><g class="cls-2"><path class="cls-21" d="M35.29,31.46l0,1.3a2.32,2.32,0,0,1-.61.22l0-1.31a2,2,0,0,0,.61-.21"/><path class="cls-20" d="M34.68,31.67l0,1.31-.22,0,0-1.3.22,0"/><path class="cls-19" d="M34.46,31.71l0,1.3h-.19l0-1.3h.19"/><path class="cls-18" d="M34.27,31.72l0,1.3h-.17l0-1.3h.17"/><path class="cls-17" d="M34.1,31.72l0,1.3H33.9l0-1.3h.17"/><path class="cls-16" d="M33.93,31.71l0,1.3-.15,0,0-1.3.15,0"/><path class="cls-15" d="M33.78,31.69l0,1.3-.17,0,0-1.3.17,0"/><path class="cls-32" d="M33.61,31.66l0,1.3-.17-.05,0-1.3.17.05"/><path class="cls-33" d="M33.44,31.61l0,1.3-.19-.07,0-1.3.19.07"/><path class="cls-34" d="M33.25,31.54l0,1.3-.22-.1a.85.85,0,0,1-.48-.69l0-1.3a.87.87,0,0,0,.48.69l.22.1"/></g></g></g><path class="cls-47" d="M45.35,23a2.47,2.47,0,0,1,2.26,0c.63.37.64,1,0,1.32L35.29,31.46a2.47,2.47,0,0,1-2.26,0c-.63-.38-.64-1,0-1.32Z"/><path class="cls-50" d="M21.79.92a8.73,8.73,0,0,1,8,.08L58.63,18c2.22,1.3,2.25,3.38.07,4.63L38.55,34.23a8.74,8.74,0,0,1-7.95-.08l-28.89-17c-2.21-1.31-2.25-3.38-.07-4.64Zm19.6,10.4-8-4.69L11.72,19.14l8,4.69L41.39,11.32M31.14,6.6c.62-.35.6-.94,0-1.31a2.47,2.47,0,0,0-2.26,0L9.41,16.48c-.62.36-.6.95,0,1.32a2.5,2.5,0,0,0,2.26,0L31.14,6.6M43.69,14c.62-.35.61-.94,0-1.31a2.5,2.5,0,0,0-2.26,0L22,23.86c-.62.36-.6.95,0,1.32a2.45,2.45,0,0,0,2.25,0L43.69,14m3.43,2c.62-.36.61-1,0-1.32a2.47,2.47,0,0,0-2.26,0L25.4,25.87c-.62.36-.61.94,0,1.31a2.44,2.44,0,0,0,2.26,0L47.12,16M27.71,4.59c.62-.36.61-.95,0-1.32a2.47,2.47,0,0,0-2.26,0L6,14.47c-.62.36-.61.95,0,1.32a2.47,2.47,0,0,0,2.26,0L27.71,4.59m19.92,20c.62-.36.61-.95,0-1.32a2.47,2.47,0,0,0-2.26,0L33,30.34c-.62.36-.61.94,0,1.32a2.47,2.47,0,0,0,2.26,0l12.34-7.12m-3.81-2.24c.62-.36.61-.94,0-1.32a2.47,2.47,0,0,0-2.26,0L29.2,28.1c-.62.36-.61.95,0,1.32a2.49,2.49,0,0,0,2.27,0l12.33-7.12"/><path class="cls-47" d="M25.43,3a2.47,2.47,0,0,1,2.26,0c.63.37.64,1,0,1.32L8.27,15.59a2.47,2.47,0,0,1-2.26,0c-.63-.37-.64-1,0-1.32Z"/><path class="cls-47" d="M28.85,5a2.47,2.47,0,0,1,2.26,0c.63.37.65,1,0,1.31L11.7,17.61a2.5,2.5,0,0,1-2.26,0c-.63-.37-.65-1,0-1.32Z"/><polygon class="cls-47" points="33.4 6.41 41.39 11.1 19.71 23.61 11.72 18.92 33.4 6.41"/><path class="cls-47" d="M41.41,12.41a2.5,2.5,0,0,1,2.26,0c.63.37.64,1,0,1.31L24.25,25A2.45,2.45,0,0,1,22,25c-.63-.37-.65-1,0-1.32Z"/><path class="cls-47" d="M44.84,14.43a2.47,2.47,0,0,1,2.26,0c.63.37.64,1,0,1.32L27.68,27a2.44,2.44,0,0,1-2.26,0c-.63-.37-.64-.95,0-1.31Z"/><path class="cls-51" d="M60.3,20.33l0,.19,0,.13-.06.18-.06.13a1.14,1.14,0,0,1-.1.19l-.07.12a2.35,2.35,0,0,1-.19.25l-.06.07a3.11,3.11,0,0,1-.37.35l-.1.08a5.23,5.23,0,0,1-.52.35L38.55,34a6.51,6.51,0,0,1-.8.37l-.12,0a7.61,7.61,0,0,1-.85.25l-.16,0a8.11,8.11,0,0,1-.86.14l-.12,0c-.32,0-.64,0-1,0h-.16l-.93-.06-.15,0a9.12,9.12,0,0,1-.91-.17l-.15,0a5.94,5.94,0,0,1-.75-.23l-.19-.07a6.52,6.52,0,0,1-.84-.4L1.71,17A2.86,2.86,0,0,1,0,14.56l0,1.3a2.87,2.87,0,0,0,1.68,2.41l28.89,17a6.53,6.53,0,0,0,.75.37l.09,0,.19.07.41.15.34.09.15,0,.11,0a5.72,5.72,0,0,0,.57.11l.23,0,.15,0,.18,0,.58,0h.6c.22,0,.44,0,.66,0h0l.13,0c.21,0,.43,0,.64-.09l.21,0,.16,0a6,6,0,0,0,.85-.25l.12,0a6.51,6.51,0,0,0,.8-.37L58.67,23.67a5.23,5.23,0,0,0,.52-.35l.06,0a.08.08,0,0,0,0,0,3.11,3.11,0,0,0,.37-.35h0l0-.06a1.88,1.88,0,0,0,.18-.24l0,0,0-.08a1.62,1.62,0,0,0,.1-.18l0-.07,0-.07L60.2,22l0-.07a.13.13,0,0,1,0-.06l0-.19s0-.06,0-.09v-.09l0-1.3C60.31,20.21,60.3,20.27,60.3,20.33Z"/></g></g></g></g></svg>