<svg xmlns="http://www.w3.org/2000/svg" xmlns:xlink="http://www.w3.org/1999/xlink" viewBox="0 0 92.51 108.61"><defs><style>.cls-1{fill:none;}.cls-2{isolation:isolate;}.cls-3{fill:#001b40;}.cls-4{clip-path:url(#clip-path);}.cls-5{fill:#404d4f;}.cls-6{fill:#3e4a4c;}.cls-7{clip-path:url(#clip-path-2);}.cls-8{fill:url(#linear-gradient);}.cls-9{fill:#75f5ce;}</style><clipPath id="clip-path"><path class="cls-1" d="M65.24,55.37,50.53,46.82c1-5.19,0-9.67-3.17-11.46l14.72,8.55C65.21,45.7,66.27,50.18,65.24,55.37Z"/></clipPath><clipPath id="clip-path-2"><path class="cls-1" d="M38.83,84.18,24.12,75.63c-4.89-2.79-6.88-9.32-6-17.13l14.71,8.55C32,74.86,33.94,81.4,38.83,84.18Z"/></clipPath><linearGradient id="linear-gradient" x1="4.77" y1="114.73" x2="58.54" y2="-5.35" gradientUnits="userSpaceOnUse"><stop offset="0" stop-color="#006454"/><stop offset="0.52" stop-color="#75f5ce"/><stop offset="0.84" stop-color="#25927b"/><stop offset="1" stop-color="#006454"/></linearGradient></defs><title>extruded_equa_logo</title><g id="Layer_2" data-name="Layer 2"><g id="extruded_equa_logo"><g id="extruded_equa_logo-2" data-name="extruded_equa_logo"><g class="cls-2"><path class="cls-3" d="M52.9,72.78c.25-.13.5-.26.75-.41L81.08,56.54,66.37,48,38.94,63.82c-.25.15-.5.28-.76.41l-.19.1-.71.32-.05,0-.65.25-.19.06-.46.14-.18,0c-.31.08-.62.15-.92.2l-.15,0-.8.08h0c-.23,0-.46,0-.69,0H33l-.56-.07h-.09c-.2,0-.4-.08-.6-.14l-.15,0a3.12,3.12,0,0,1-.43-.15L31,65l-.49-.23-.07,0,0,0,14.71,8.55,0,0h0l.06,0,.48.23.07,0,.1,0a3.66,3.66,0,0,0,.43.15l.11,0h0a3.9,3.9,0,0,0,.59.14h.1l.55.07h.18c.23,0,.46,0,.7,0h0c.26,0,.53,0,.8-.08h.15c.31,0,.61-.12.93-.2l.07,0,.11,0,.45-.14.19-.06.65-.25h0l0,0,.71-.32Z"/><path class="cls-3" d="M82.88,49.05c.07-.43.13-.85.19-1.28,0-.2.07-.41.09-.61,0,0,0-.1,0-.14s0-.29,0-.43c0-.44.1-.87.14-1.31,0-.19,0-.38,0-.57,0-.4.06-.81.08-1.21,0-.17,0-.35,0-.52,0-.57,0-1.13,0-1.69,0-9.44-3.36-16.08-8.73-19.2L60.1,13.54c5.38,3.12,8.71,9.76,8.73,19.2,0,.56,0,1.12,0,1.69,0,.17,0,.35,0,.52,0,.4,0,.81-.08,1.21,0,.19,0,.38,0,.57,0,.44-.08.87-.13,1.31,0,.14,0,.28,0,.43s-.08.5-.11.75c-.06.42-.12.85-.19,1.28l-.15.82c-.08.4-.15.8-.24,1.2s-.15.73-.24,1.1-.1.45-.16.68c-.1.43-.21.87-.33,1.3,0,.18-.09.36-.14.53q-.25.93-.54,1.86l14.71,8.55c.18-.59.36-1.18.52-1.77a.29.29,0,0,0,0-.09c0-.17.1-.35.14-.52.12-.44.23-.87.34-1.31l.15-.68c.07-.27.13-.55.19-.82l.06-.28c.08-.4.15-.8.23-1.2Z"/><g class="cls-2"><g class="cls-4"><g class="cls-2"><path class="cls-5" d="M65.24,55.37,50.53,46.82c.09-.47.17-.93.22-1.38L65.47,54c-.06.45-.14.91-.23,1.38"/><path class="cls-6" d="M65.47,54,50.75,45.44c.6-4.59-.53-8.45-3.39-10.08l14.72,8.55c2.85,1.63,4,5.49,3.39,10.08"/></g></g></g><path class="cls-3" d="M51.92,93.94l.36-.18c.46-.24.92-.49,1.39-.76L78.55,78.64,63.83,70.09,39,84.45c-.46.27-.92.52-1.38.76l-.36.18c-.42.21-.83.42-1.24.6a.61.61,0,0,1-.14.07q-.63.28-1.26.54t-1.26.48l-.38.14c-.54.18-1.08.35-1.61.49L30.23,88l-.28.07c-.46.1-.91.18-1.36.25l-.2,0-1.06.13-.42,0-.85,0h-.38l-.94,0H24.5c-.38,0-.75-.06-1.12-.11l-.28,0-.86-.14L22,88.15q-.53-.12-1.05-.27l-.13,0c-.3-.09-.6-.19-.89-.3l-.27-.11a8.64,8.64,0,0,1-.88-.38l-.1,0c-.35-.17-.7-.36-1-.55L32.32,95l.26.15c.25.14.51.27.77.4l.1,0,.64.29.24.09.27.11c.3.11.59.21.9.3l.13,0,0,0,1,.25.28.06.39.07.48.07.27,0c.35,0,.7.08,1,.11h.31l.95,0h.72l.5,0L42,97l1.06-.13.2,0h0c.44-.06.88-.15,1.32-.24l.28-.07c.34-.08.68-.15,1-.25l.07,0c.53-.14,1.06-.31,1.6-.49l.39-.14,1.26-.48.18-.07,1.08-.47.14-.07C51.1,94.36,51.51,94.15,51.92,93.94Z"/><polygon class="cls-3" points="32.85 67.05 18.14 58.5 27.27 53.23 41.98 61.78 32.85 67.05"/><g class="cls-2"><g class="cls-7"><g class="cls-2"><path class="cls-3" d="M38.83,84.18,24.12,75.63c-4.89-2.79-6.88-9.32-6-17.13l14.71,8.55c-.9,7.81,1.09,14.35,6,17.13"/></g></g></g><path class="cls-3" d="M67.92,32.72l.13.07.07,0,.1.05.07,0,.1,0L53.68,24.42l0,0-.07,0-.07,0-.1,0-.07,0-.14-.07-.06,0L52.89,24l-.4-.17h0l-.12,0-.13-.05h0l-.16-.06-.35-.12-.12,0-.16,0-.21-.06-.42-.11-.44-.08h-.13l-.31,0-.44-.06-.45,0H47.48l-.28,0-.47.05-.48.06h-.2l-.28,0-.48.1-.48.1-.49.13h-.1l-.06,0h-.07l-.27.08-.49.15-.49.17-.5.18-.5.2h0l-.17.07h0l-.32.13-.5.23-.5.24-.51.26-.25.13-.5.28-.27.15L17.47,38.26l14.72,8.55L53.52,34.49l.28-.15.49-.28.26-.13.5-.26.5-.24.5-.23.39-.16h0l0,0,0,0,.5-.2.5-.18.49-.17.5-.15.34-.1,0,0H59l.49-.13.48-.1.48-.1.26,0H61l.48-.06.47-.05.28,0h1.12l.25,0h.2l.45,0,.44.06.31,0h.13l.44.08L66,32l.36.1.12,0,.35.12.16.06h0l.15.06h.06l0,0,.41.17.24.12Z"/><path class="cls-8" d="M14.79,78.22c0-.5.05-1,.09-1.51l.06-.76.15-1.5.09-.72c0-.35.09-.7.14-1,.08-.52.15-1,.24-1.57.06-.35.12-.7.19-1.06s.19-1,.29-1.52.17-.81.26-1.22.15-.67.23-1,.22-.9.34-1.34.17-.67.26-1c.14-.54.3-1.08.46-1.62.06-.2.11-.4.17-.6.23-.74.46-1.49.71-2.23l.13-.36c.21-.62.42-1.23.64-1.84l.26-.68c.21-.55.42-1.1.64-1.65l.21-.54c.28-.7.58-1.4.88-2.09.43-1,.89-2,1.37-3,.12-.26.25-.52.38-.78.38-.78.77-1.56,1.18-2.34l.38-.72c.52-1,1.05-1.94,1.61-2.89.1-.18.21-.36.32-.54.49-.83,1-1.65,1.51-2.46l.45-.72c.64-1,1.29-2,2-2.94.43-.62.87-1.24,1.32-1.84l0-.07c.48-.64,1-1.28,1.45-1.9.23-.3.47-.59.71-.89l.88-1.1.74-.87.87-1c.6-.68,1.21-1.35,1.82-2l.11-.12c.65-.7,1.32-1.37,2-2,.43-.42.86-.84,1.3-1.25.11-.11.22-.23.34-.33.57-.53,1.14-1.05,1.72-1.56l.47-.4c.43-.37.85-.73,1.28-1.08l.65-.52c.38-.31.76-.61,1.15-.9l.69-.52,1.15-.83.69-.49L51,15.4l.6-.39c.62-.39,1.24-.77,1.87-1.13s1.2-.67,1.79-1l.47-.25c.53-.27,1.06-.53,1.58-.77l.2-.1c.59-.27,1.18-.52,1.76-.75l.34-.14c.57-.22,1.14-.44,1.7-.63l.18-.06c.53-.18,1.06-.34,1.59-.49l.26-.07c.42-.12.84-.22,1.25-.32l.58-.14c.59-.12,1.17-.23,1.75-.32H67c.53-.08,1-.14,1.57-.19l.52,0,1.12-.06h.5c.38,0,.76,0,1.14,0h.4c.49,0,1,.07,1.45.13l.3,0c.39.05.78.11,1.16.18l.38.08c.44.1.87.2,1.29.32l.09,0c.44.13.88.28,1.31.44l.34.13c.35.14.7.28,1,.44l.27.12c.44.21.87.43,1.29.68L66.45,2.62l-.21-.12c-.35-.2-.71-.39-1.07-.56l-.27-.12-.61-.28-.42-.16-.34-.13c-.43-.16-.86-.31-1.3-.43h0l-.08,0c-.42-.12-.85-.22-1.29-.32L60.45.39l-.4-.08L59.3.2l-.3,0c-.43,0-.86-.09-1.3-.12h-.55c-.38,0-.76,0-1.15,0h-.88l-.73.05-.52,0c-.52.05-1,.11-1.58.19h-.07c-.57.09-1.16.2-1.75.32L49.9.77,48.8,1l-.16,0-.25.08c-.53.15-1.06.31-1.6.49l-.17.06c-.56.19-1.13.41-1.7.63l-.34.14-.36.14c-.46.19-.93.4-1.4.61l-.2.1c-.52.24-1,.5-1.59.77l-.46.25c-.6.31-1.19.63-1.8,1s-1.24.74-1.86,1.13l-.6.39-1.25.83-.69.48L33.22,9l-.69.52c-.39.29-.77.6-1.16.9l-.64.52c-.43.35-.86.71-1.28,1.08-.16.13-.32.26-.47.4-.58.51-1.16,1-1.72,1.56-.12.1-.23.22-.35.33L25.77,15.4c-.05,0-.1.11-.16.16-.67.67-1.33,1.34-2,2l-.11.11c-.61.66-1.22,1.34-1.82,2l-.18.2-.69.82-.74.87-.89,1.11c-.23.29-.47.58-.7.88,0,.05-.09.1-.13.16-.45.57-.89,1.16-1.32,1.74l-.05.07c-.41.56-.82,1.13-1.22,1.7l-.09.14c-.68,1-1.33,1.95-2,2.94l-.19.28-.27.44q-.76,1.22-1.5,2.46c-.08.13-.17.26-.24.39a1.09,1.09,0,0,0-.08.15C10.88,35,10.34,36,9.82,37l-.13.24-.24.48c-.41.77-.8,1.56-1.19,2.34L8,40.51l-.14.3c-.47,1-.93,2-1.37,3a.36.36,0,0,1,0,.09c-.29.66-.56,1.33-.83,2-.08.19-.15.37-.22.55l-.38,1c-.08.23-.17.46-.25.7s-.18.45-.26.68c-.22.61-.44,1.23-.65,1.84L3.76,51l0,.09c-.24.71-.46,1.43-.68,2.14l-.18.61c-.12.4-.24.81-.35,1.21,0,.13-.07.26-.1.39-.1.34-.18.67-.27,1l-.33,1.33c-.08.35-.16.69-.23,1s-.12.47-.17.71l-.09.5c-.11.51-.2,1-.3,1.53-.06.35-.13.7-.18,1.05-.09.53-.17,1-.24,1.57,0,.25-.08.49-.11.74,0,.1,0,.21,0,.31s-.05.48-.08.72c-.06.5-.11,1-.15,1.49,0,.26-.05.52-.06.78,0,.5-.07,1-.1,1.5l0,.68c0,.71,0,1.43,0,2.13C0,81.36,2.3,88.33,6.2,93a19.16,19.16,0,0,0,5.15,4.39L26.06,106a19.16,19.16,0,0,1-5.15-4.39C17,96.88,14.74,89.91,14.71,81c0-.7,0-1.42,0-2.13C14.76,78.67,14.78,78.45,14.79,78.22Z"/><path class="cls-9" d="M32.85,67.05,42,61.78c-.06.33-.12.65-.16,1a17.54,17.54,0,0,0-.2,3.34,11.83,11.83,0,0,0,.11,1.26c.07.49.13.85.21,1.18s.22.79.33,1.1a8.14,8.14,0,0,0,.44,1,6.86,6.86,0,0,0,.54.89,6.47,6.47,0,0,0,.66.78,6.32,6.32,0,0,0,.77.64c.21.15.34.23.47.31,2.35,1.34,5.43.91,8.5-.87L81.08,56.54a51.56,51.56,0,0,0,2.47-15.25c-.06-19-13.5-26.66-30-17.11C45.15,29,37.6,37.32,32.19,46.81L53.52,34.49l.28-.15.49-.28.26-.13.5-.26.5-.24.5-.23.5-.21.5-.2.5-.18.49-.17.5-.15.49-.14.49-.13.48-.1.48-.1.48-.07.48-.06.47-.05.47,0h.93l.45,0,.45,0,.44.06.44.07.44.08L66,32c.33.09.58.17.83.26l.41.16.41.17.78.4c4.89,2.79,6.89,9.32,6,17.13l-9.13,5.27c1-5.19,0-9.67-3.16-11.46l-.45-.23-.47-.19-.2-.06-.28-.09-.23-.05-.27-.06-.22,0-.28,0h-.22l-.3,0h-.54l-.53,0-.24,0-.31,0-.25.05-.31.07-.25.06-.31.09-.25.08-.32.1-.26.1-.31.12-.26.12-.31.14-.27.13-.31.15-.27.15-.28.16-17.2,9.93L26.15,60.62a50.85,50.85,0,0,0-2.47,15.24c0,9.38,3.32,16,8.64,19.15s13,2.8,21.35-2L78.55,78.64c-6.7,10.28-15.31,19.13-24.72,24.59s-18.2,6.63-25,4.09a18.83,18.83,0,0,1-8-5.73C17,96.88,14.74,89.91,14.71,81,14.64,56.35,32,26.28,53.49,13.88s38.95-2.45,39,22.24c0,8.87-2.2,18.45-6.06,27.64L53.68,82.67c-5.37,3.1-10.74,3.85-14.85,1.51C33.94,81.4,32,74.86,32.85,67.05Z"/></g></g></g></g></svg>