<svg xmlns="http://www.w3.org/2000/svg" xmlns:xlink="http://www.w3.org/1999/xlink" viewBox="0 0 369.37 241.72"><defs><style>.cls-1{fill:none;stroke-miterlimit:10;stroke:url(#linear-gradient);}</style><linearGradient id="linear-gradient" y1="120.86" x2="369.37" y2="120.86" gradientUnits="userSpaceOnUse"><stop offset="0" stop-color="#75f5ce"/><stop offset="1" stop-color="aqua"/></linearGradient></defs><title>path_collection</title><g id="Layer_2" data-name="Layer 2"><g id="document_network"><path id="path_collection" class="cls-1" d="M185.84,145.7l-58.08-33.53V92.84m174.4,52.23-53.45-30.86-60.62,35.23m46.28-26.9,14.34-8.33V101m-2.16,14.43L284.3,93.52M215,222V167.25l-29.19-16.86m-14.51,7.52L79,211.57l21.68,12.51M.25,166.1l85.24,49.21M369.12,73.69l-84.82-49v68.8m0-68.8-22.52-13M85.44,207.82,27.85,241.29M151.23,125.72,23.73,52.11m104,60,79-46L93,.43"/></g></g></svg>