<svg xmlns="http://www.w3.org/2000/svg" xmlns:xlink="http://www.w3.org/1999/xlink" viewBox="0 0 128.69 89.08"><defs><style>.cls-1{isolation:isolate;}.cls-2{fill:url(#linear-gradient);}.cls-3{fill:url(#linear-gradient-2);}</style><linearGradient id="linear-gradient" y1="63.08" x2="128.69" y2="63.08" gradientUnits="userSpaceOnUse"><stop offset="0" stop-color="#006454"/><stop offset="0.52" stop-color="#75f5ce"/><stop offset="0.84" stop-color="#25927b"/><stop offset="1" stop-color="#006454"/></linearGradient><linearGradient id="linear-gradient-2" x1="27.24" y1="74.38" x2="101.49" y2="0.13" gradientUnits="userSpaceOnUse"><stop offset="0" stop-color="#001b40"/><stop offset="0.54" stop-color="#007a5f"/><stop offset="0.95" stop-color="#68e7c1"/><stop offset="1" stop-color="#75f5ce"/></linearGradient></defs><title>platform_1_top</title><g id="Layer_2" data-name="Layer 2"><g id="document_stack_1_platform"><g id="platform_1_top"><g class="cls-1"><path class="cls-2" d="M128.67,38.16c0,.17,0,.33,0,.49l0,.42c0,.16,0,.33,0,.49s0,.28-.05.42l-.06.49-.06.41-.09.5c0,.13,0,.27-.08.4s-.07.33-.11.49l-.09.41-.13.49c0,.14-.07.27-.11.4s-.1.34-.16.51-.07.25-.12.38l-.18.52c0,.13-.09.25-.13.37l-.3.75-.06.15c-.12.29-.26.59-.4.89,0,.09-.08.17-.13.26s-.19.42-.3.62l-.18.35c-.1.18-.19.36-.3.54s-.12.21-.18.31-.23.41-.36.61l-.22.35-.36.56c-.08.12-.16.25-.25.37l-.38.55-.26.36-.43.56-.25.32c-.26.33-.53.66-.8,1l-.14.16-.74.82-.27.29c-.23.25-.46.49-.7.73l-.25.25c-.32.32-.65.63-1,.94l-.38.35-.49.43-.41.35-.5.42-.43.36-.51.41-.46.35-.52.4-.48.35-.54.39-.5.34-.56.39-.52.34-.58.38-.53.33L111,63l-1,.57c-.48.28-1,.56-1.46.82l-.43.23-1.15.61-.39.2c-.51.25-1,.5-1.53.74l-.27.13-1.31.59-.47.21-1.3.55-.32.13c-.53.22-1.07.43-1.62.64l-.41.15-1.28.47-.49.17L96,69.77l-.12,0-1.43.45-.33.1L93,70.69l-.54.15-.92.25-.61.16-.87.22-.65.16-.84.2L87.9,72l-.83.18-.69.14-.83.18-.69.13-.83.16-.61.11L82,73.13l-.44.07c-.61.09-1.22.19-1.83.27l-.39,0-1.48.19-.55.07L75.78,74l-.35,0-1.66.15-.28,0-1.39.1-.58,0-1.1.06-.64,0-1,0-.68,0-.89,0H63.25l-.93,0h-.67l-.86,0-.71,0-.86,0-.7,0-.88,0-.68,0-.9-.07-.66,0-.93-.08L53.85,74l-1.08-.11-.46,0-1.55-.19-.2,0-1.33-.18-.39-.06-1.17-.17-.58-.1-1-.16-.64-.11-.9-.17-.66-.13-.87-.17-.62-.13-1-.22-.63-.14-1-.23-.61-.15-1-.26-.55-.14-1.26-.35-.29-.08-1.77-.52L33.84,70l-1.41-.46L32,69.42l-1.71-.6L30,68.68l-1.37-.52L28.16,68q-1.05-.42-2.1-.87L25.71,67c-.69-.3-1.38-.62-2.05-.94l-.31-.15q-1-.5-2-1l-.2-.11c-.7-.37-1.4-.75-2.08-1.14C6.35,56.28,0,46.67,0,37.08L0,51.63c0,9.6,6.31,19.21,19,26.54.68.39,1.37.77,2.08,1.14l.2.11q1,.52,2,1l.31.15c.67.32,1.36.64,2.05.94l.35.15q1,.45,2.1.87l.15.06.27.11,1.37.52.38.14L32,84l.39.13,1.41.46.48.14c.58.19,1.17.36,1.77.53h0l.26.07,1.26.35.54.14,1,.26.61.15,1,.23.63.14,1,.22.4.09.22,0,.87.17.66.13.9.17.64.11,1,.16.58.1L48.8,88l.37.06h0l1.33.18.2,0,1.54.19.47,0,1.08.11.62.06.93.08h.06l.6,0,.9.07.68,0,.88,0,.69,0L60,89l.71,0,.85,0h.68l.93,0h3.91L68,89h.69l1,0,.64,0,1.1-.06.58,0,1.38-.1.29,0,1.66-.16h.09l.26,0,1.53-.17.56-.07,1.48-.19.39,0,1.83-.27.43-.07,1.42-.25.3,0,.31,0,.83-.16.69-.14.83-.17.69-.14.83-.19.67-.15.84-.2L90,86l.87-.22.6-.16.93-.25.54-.15,1.12-.33.32-.1,1.44-.45h0l.1,0,1.57-.53.49-.17,1.28-.47.41-.15c.55-.21,1.09-.42,1.62-.64l.32-.13,1.3-.55.47-.21,1.31-.59.27-.13,1.53-.74.39-.2,1.15-.61.43-.23c.49-.27,1-.54,1.46-.82l.78-.46.18-.11.6-.37.53-.33.58-.38.52-.34.56-.39.49-.34.55-.39.47-.35.53-.4.46-.35.51-.41.43-.36.5-.42.41-.35.49-.43.34-.31,0,0c.33-.31.66-.62,1-.94.08-.08.16-.17.25-.25.23-.24.47-.48.7-.73l.27-.29c.25-.27.5-.55.73-.82l.14-.16c.28-.32.55-.65.81-1l.07-.08.18-.24.43-.57.26-.35.38-.55.25-.37.36-.56.22-.35c.13-.2.24-.41.36-.61l.15-.25,0-.06c.1-.18.2-.36.29-.54l.19-.35.3-.61.13-.27c.14-.3.27-.6.4-.9l0-.12c.11-.26.21-.52.31-.77v0l.12-.33.18-.53.12-.38c.06-.17.11-.34.16-.51s.07-.26.11-.4l.13-.49.09-.41c0-.16.08-.32.11-.49s0-.05,0-.08l.06-.32c0-.17.06-.33.08-.5s0-.28.07-.41l.06-.49c0-.14,0-.28,0-.42s0-.33,0-.49l0-.42c0-.16,0-.33,0-.49s0-.1,0-.15,0-.38,0-.57l0-14.56C128.69,37.68,128.68,37.92,128.67,38.16Z"/><path class="cls-3" d="M109.7,10.91C134.9,25.46,135,49.05,110,63.6s-65.77,14.56-91,0-25.33-38.15-.3-52.7S84.5-3.64,109.7,10.91Z"/></g></g></g></g></svg>