<svg xmlns="http://www.w3.org/2000/svg" xmlns:xlink="http://www.w3.org/1999/xlink" viewBox="0 0 118.22 81.83"><defs><style>.cls-1{isolation:isolate;}.cls-2{fill:url(#linear-gradient);}.cls-3{fill:url(#linear-gradient-2);}</style><linearGradient id="linear-gradient" y1="57.95" x2="118.22" y2="57.95" gradientUnits="userSpaceOnUse"><stop offset="0" stop-color="#006454"/><stop offset="0.52" stop-color="#75f5ce"/><stop offset="0.84" stop-color="#25927b"/><stop offset="1" stop-color="#006454"/></linearGradient><linearGradient id="linear-gradient-2" x1="25.03" y1="68.33" x2="93.24" y2="0.12" gradientUnits="userSpaceOnUse"><stop offset="0" stop-color="#001b40"/><stop offset="0.54" stop-color="#007a5f"/><stop offset="0.95" stop-color="#68e7c1"/><stop offset="1" stop-color="#75f5ce"/></linearGradient></defs><title>platform_3_top</title><g id="Layer_2" data-name="Layer 2"><g id="document_stack_3_platform"><g id="platform_3_top"><g class="cls-1"><path class="cls-2" d="M118.21,35.06c0,.15,0,.3,0,.45l0,.38c0,.15,0,.3,0,.45s0,.26,0,.39l-.06.44-.06.39c0,.15,0,.3-.08.45s0,.25-.07.38-.06.29-.1.44,0,.25-.09.38-.07.3-.11.45-.07.25-.11.37-.09.31-.14.46-.07.24-.11.36-.11.32-.17.48l-.12.33-.27.69-.06.13c-.11.28-.23.55-.36.82l-.12.25c-.09.19-.18.38-.28.57l-.17.31c-.09.17-.17.33-.27.5l-.16.29-.33.56-.21.32-.33.52-.23.33-.35.51-.24.32-.39.52-.23.3-.74.9-.13.14c-.22.26-.44.51-.67.76l-.25.27-.65.67c-.08.07-.15.15-.23.23-.29.29-.59.58-.9.86l-.35.32-.44.4-.38.32-.46.39-.4.32-.47.38-.41.32-.49.37-.44.32-.5.36-.45.32-.52.35-.47.31-.53.35-.5.31-.54.33-.89.53c-.44.26-.89.51-1.34.75l-.39.22L98.26,60l-.36.18c-.46.24-.93.46-1.4.69l-.25.11-1.2.55-.43.19-1.2.5-.29.12-1.49.59-.38.14-1.18.43-.45.16-1.44.49-.11,0-1.32.42-.29.08-1,.31-.49.14-.85.23-.56.15-.8.2-.59.15-.77.18-.62.14L80,66.3l-.63.13-.77.16-.63.12-.77.15-.55.1-1.3.22-.41.07-1.67.25-.37,0-1.35.18-.51.06-1.41.15-.32,0-1.53.14-.26,0-1.27.09-.53,0-1,0-.6,0-1,0-.63,0-.81,0H58.1l-.85,0h-.62l-.78,0-.66,0-.79,0-.64,0-.81,0-.63,0-.82-.06-.61,0L50,68l-.57,0-1-.1-.43,0-1.41-.17-.19,0-1.22-.16-.36-.06-1.07-.16-.54-.09L42.37,67l-.59-.11L41,66.77l-.6-.12-.8-.16L39,66.37l-.92-.2L37.48,66l-.9-.21L36,65.7l-.94-.24-.5-.13L33.42,65l-.26-.08c-.55-.15-1.09-.31-1.63-.48l-.44-.14c-.43-.13-.87-.27-1.3-.42l-.36-.12-1.57-.55-.35-.13c-.42-.15-.84-.31-1.25-.48l-.39-.15c-.65-.25-1.29-.52-1.93-.8l-.32-.14c-.64-.28-1.26-.56-1.89-.86l-.28-.13c-.63-.31-1.26-.62-1.87-1l-.19-.1c-.64-.34-1.28-.69-1.91-1C5.83,51.71,0,42.88,0,34.06L0,47.44c0,8.81,5.79,17.64,17.44,24.37.63.36,1.27.71,1.91,1l.19.1c.62.32,1.24.64,1.88.94l.28.14,1.88.86.33.14,1.93.8.13,0,.25.1,1.26.48.34.13,1.58.55.35.12,1.3.42.44.13,1.63.49h0l.24.06,1.16.32.5.13.94.24.56.14.9.21.58.13.92.2.37.08.2,0,.8.16.61.12.83.15.58.1.89.15.54.09,1.07.16.34,0h0l1.22.16.19,0,1.41.17.43,0,1,.11.57,0,.86.07h0l.55,0,.83.06.62,0,.81.05.64,0,.8,0,.65,0,.78,0H61l.66,0,.81,0h.63l1,0,.6,0,1-.06.53,0,1.27-.1.26,0,1.53-.14h.08l.24,0L71,81.16l.51-.07,1.36-.17.36,0,1.67-.25.41-.07,1.3-.22.28,0,.28-.06.76-.14.64-.12.76-.16.63-.13.76-.17.62-.14.77-.19.6-.14.79-.21.56-.15.85-.23.5-.14,1-.3.3-.09L88,77.51h0l.09,0L89.6,77l.44-.15,1.19-.44.37-.14,1.49-.58.3-.12L94.58,75l.43-.19,1.2-.54.25-.12,1.4-.68.36-.19,1.06-.55.39-.21,1.34-.75.72-.43.17-.1.55-.34.49-.31.53-.34.47-.32c.18-.11.35-.23.52-.35s.31-.21.45-.32l.51-.36.43-.32.49-.37.42-.32.47-.37.39-.33.46-.39.38-.32.44-.4.32-.28,0,0,.9-.87a2.5,2.5,0,0,0,.23-.23c.22-.22.44-.44.65-.67l.25-.27L112,63l.13-.15c.26-.29.5-.6.74-.9l.06-.07.17-.22.39-.52.24-.33.36-.5c.07-.12.15-.23.22-.34s.23-.34.33-.51l.21-.33.33-.56.13-.22a.25.25,0,0,1,0-.07l.26-.49c.06-.11.12-.21.17-.32s.19-.37.28-.56l.12-.25c.13-.27.25-.55.37-.82l0-.12c.1-.23.2-.47.28-.7l0,0c0-.1.07-.2.1-.31s.12-.32.17-.48.08-.23.11-.35l.15-.47c0-.12.06-.24.1-.36l.12-.46c0-.12,0-.25.08-.37s.07-.3.1-.45l0-.08c0-.1,0-.19,0-.29s.06-.31.08-.46l.06-.38.06-.45c0-.13,0-.26,0-.39s0-.29,0-.44l0-.39c0-.15,0-.3,0-.45s0-.09,0-.14,0-.34,0-.52l0-13.37C118.22,34.62,118.22,34.84,118.21,35.06Z"/><path class="cls-3" d="M100.78,10c23.15,13.36,23.27,35,.27,48.4s-60.41,13.37-83.57,0-23.27-35-.27-48.4S77.63-3.34,100.78,10Z"/></g></g></g></g></svg>