<svg xmlns="http://www.w3.org/2000/svg" xmlns:xlink="http://www.w3.org/1999/xlink" viewBox="0 0 97.34 67.37"><defs><style>.cls-1{isolation:isolate;}.cls-2{fill:url(#linear-gradient);}.cls-3{fill:url(#linear-gradient-2);}</style><linearGradient id="linear-gradient" y1="47.71" x2="97.34" y2="47.71" gradientUnits="userSpaceOnUse"><stop offset="0" stop-color="#006454"/><stop offset="0.52" stop-color="#75f5ce"/><stop offset="0.84" stop-color="#25927b"/><stop offset="1" stop-color="#006454"/></linearGradient><linearGradient id="linear-gradient-2" x1="20.6" y1="56.26" x2="76.76" y2="0.1" gradientUnits="userSpaceOnUse"><stop offset="0" stop-color="#001b40"/><stop offset="0.54" stop-color="#007a5f"/><stop offset="0.95" stop-color="#68e7c1"/><stop offset="1" stop-color="#75f5ce"/></linearGradient></defs><title>platform_2_top</title><g id="Layer_2" data-name="Layer 2"><g id="document_stack_2_platform"><g id="platform_2_top"><g class="cls-1"><path class="cls-2" d="M97.32,28.87c0,.12,0,.24,0,.36s0,.22,0,.32,0,.25,0,.37l0,.32c0,.12,0,.24,0,.37s0,.21,0,.31l-.06.38-.06.3c0,.13-.06.25-.08.37s0,.21-.08.31l-.09.37-.09.31c0,.12-.07.25-.11.38s-.06.19-.1.29l-.13.39c0,.1-.07.19-.1.28l-.23.57A.49.49,0,0,0,96,35l-.3.67c0,.07-.07.14-.1.2s-.15.32-.23.47l-.14.26L95,37l-.14.24-.27.46-.17.27-.27.42c-.06.09-.13.18-.19.28s-.19.27-.29.41l-.2.27-.32.43-.19.24c-.2.25-.4.5-.61.74l-.1.12c-.18.21-.37.42-.56.62l-.21.23-.53.55-.19.19-.74.71-.28.26-.37.33L89,44l-.38.32-.33.27-.38.31-.35.26-.4.31c-.11.09-.24.17-.36.26l-.41.3-.37.26-.43.29-.39.26-.44.28-.4.26-.45.27c-.24.15-.48.3-.73.44s-.73.42-1.11.62l-.32.17-.87.46-.3.15-1.15.56-.21.1-1,.45-.36.15-1,.42-.25.1-1.22.48-.31.12-1,.35-.37.13-1.19.4-.09,0-1.08.34-.25.08-.85.25-.41.11-.7.19-.46.12-.65.17-.49.12-.64.15-.5.12-.63.14-.52.11-.63.13-.52.1-.63.12-.46.08L62,55.31l-.34.06-1.37.2-.3,0-1.12.15-.42.05-1.16.12-.26,0-1.26.11-.22,0-1,.08-.44,0-.83,0-.49,0-.79,0-.52,0-.67,0h-3l-.7,0h-.51l-.65,0-.54,0-.65,0-.53,0-.66,0-.52,0-.68-.06-.5,0L41.2,56l-.47,0-.82-.08-.35,0-1.16-.14-.16,0-1-.14-.3,0-.88-.13-.44-.07-.73-.12-.49-.09L33.72,55l-.5-.09-.66-.13-.47-.1-.76-.17-.47-.1-.74-.18-.46-.11-.78-.2-.41-.11-.95-.26-.22-.06L26,53.06,25.6,53l-1.07-.35-.3-.09-1.29-.46-.29-.1-1-.4-.32-.12-1.59-.66-.26-.12c-.53-.23-1-.46-1.56-.71l-.23-.11-1.54-.77L16,49c-.54-.29-1.06-.57-1.58-.87C4.8,42.57,0,35.3,0,28l0,11c0,7.26,4.77,14.53,14.36,20.07.52.3,1,.59,1.57.87l.16.08c.51.27,1,.52,1.54.78l.23.11c.51.24,1,.48,1.56.71l.26.11,1.59.66.11.05.21.07,1,.4.29.1,1.29.46.3.1,1.07.34.36.12,1.34.4h0l.2.06,1,.26.41.1.77.2.47.11.74.18.47.11.76.16.3.07.17,0,.66.13.5.1.68.12.48.09.73.12.45.07.88.13.28,0h0l1,.13.16,0,1.16.14.35,0,.82.08.47,0,.7.06h.05l.45,0,.68.05.51,0,.67,0,.53,0,.65,0,.54,0,.65,0h4.17l.67,0H52l.8,0,.48,0,.84-.05.43,0,1-.08h.22L57,67h.07l.2,0c.39,0,.77-.08,1.16-.12l.42,0L60,66.62l.3,0,1.38-.2.34-.06,1.07-.18.22,0,.23,0,.63-.12.53-.1.63-.13.51-.11.63-.14.51-.12.64-.15.49-.12.65-.17.46-.12.7-.19.41-.11.85-.25.24-.08,1.09-.34h0l.07,0,1.19-.4.37-.13,1-.35.31-.12c.41-.15.82-.31,1.22-.48l.25-.1,1-.42.35-.15,1-.45.21-.1,1.15-.56.3-.15.87-.46.32-.17c.38-.2.74-.41,1.11-.62l.59-.35.14-.08.45-.28.4-.26.44-.28.39-.26.43-.29.37-.26.41-.3.36-.26.4-.3.35-.27.38-.31.33-.27L89,55l.31-.26.36-.33.26-.23,0,0c.26-.23.5-.47.74-.71.07-.06.13-.13.19-.19l.53-.55.21-.22.55-.62.11-.12.61-.75,0-.06.14-.18c.11-.14.22-.28.32-.43l.2-.27c.1-.13.19-.27.29-.41s.12-.19.19-.28l.27-.42.17-.27.27-.46a1.74,1.74,0,0,1,.11-.18l0-.06c.07-.13.14-.27.22-.4a2.15,2.15,0,0,1,.14-.26c.08-.16.15-.31.22-.47s.07-.14.11-.2l.3-.68,0-.1.24-.58v0a2.5,2.5,0,0,0,.09-.25c0-.13.1-.26.14-.4a2.46,2.46,0,0,0,.09-.29c0-.13.09-.25.12-.38s.06-.2.08-.3.07-.25.1-.38,0-.2.07-.3l.09-.37s0,0,0-.07a2,2,0,0,0,0-.24c0-.13,0-.25.07-.38s0-.21,0-.31,0-.25,0-.37l0-.32c0-.12,0-.24,0-.37l0-.31c0-.13,0-.25,0-.37a.49.49,0,0,0,0-.12c0-.14,0-.28,0-.43l0-11C97.34,28.5,97.33,28.68,97.32,28.87Z"/><path class="cls-3" d="M83,8.25c19.07,11,19.17,28.85.23,39.86s-49.74,11-68.81,0S-4.77,19.26,14.17,8.25,63.91-2.75,83,8.25Z"/></g></g></g></g></svg>